<svg width="1922" height="1083" viewBox="0 0 1922 1083" fill="none" xmlns="http://www.w3.org/2000/svg">
    <line x1="653" y1="391.5" x2="1271" y2="391.5" stroke="#B583DF"/>
    <line x1="623" y1="373.5" x2="1301" y2="373.497" stroke="#B583DF"/>
    <line x1="623" y1="709.5" x2="1301" y2="709.5" stroke="#B583DF"/>
    <line x1="584" y1="733.5" x2="1341" y2="733.5" stroke="#B583DF"/>
    <line x1="583" y1="349.5" x2="1340" y2="349.5" stroke="#B583DF"/>
    <line x1="534" y1="320.5" x2="1389" y2="320.5" stroke="#B583DF"/>
    <line x1="534" y1="762.5" x2="1389" y2="762.5" stroke="#B583DF"/>
    <line x1="473" y1="798.5" x2="1449" y2="798.5" stroke="#B583DF"/>
    <line x1="473" y1="284.5" x2="1449" y2="284.5" stroke="#B583DF"/>
    <line x1="403" y1="242.5" x2="1519" y2="242.5" stroke="#B583DF"/>
    <line x1="403" y1="840.5" x2="1519" y2="840.5" stroke="#B583DF"/>
    <line x1="323" y1="194.5" x2="1600" y2="194.5" stroke="#B583DF"/>
    <line x1="323" y1="888.5" x2="1600" y2="888.5" stroke="#B583DF"/>
    <line x1="223" y1="134.5" x2="1700" y2="134.5" stroke="#B583DF"/>
    <line x1="222" y1="948.5" x2="1700" y2="948.5" stroke="#B583DF"/>
    <line x1="103" y1="1020.5" x2="1820" y2="1020.5" stroke="#B583DF"/>
    <line x1="1.74304" y1="1081.57" x2="652.743" y2="691.571" stroke="#B583DF"/>
    <line y1="-0.5" x2="758.881" y2="-0.5" transform="matrix(0.857842 0.513914 0.513914 -0.857842 2 1)" stroke="#B583DF"/>
    <line y1="-0.5" x2="758.881" y2="-0.5" transform="matrix(-0.857841 -0.513914 -0.513914 0.857842 1921 1082)" stroke="#B583DF"/>
    <line x1="1921.26" y1="1.42892" x2="1270.26" y2="391.429" stroke="#B583DF"/>
    <line x1="60.7278" y1="1081.58" x2="661.728" y2="691.581" stroke="#B583DF"/>
    <line y1="-0.5" x2="716.45" y2="-0.5" transform="matrix(0.838858 0.54435 0.54435 -0.838858 61 1)" stroke="#B583DF"/>
    <line y1="-0.5" x2="716.45" y2="-0.5" transform="matrix(-0.838858 -0.544351 -0.54435 0.838858 1862 1082)" stroke="#B583DF"/>
    <line x1="1862.27" y1="1.41943" x2="1261.27" y2="391.419" stroke="#B583DF"/>
    <line x1="244.684" y1="1081.61" x2="721.684" y2="691.613" stroke="#B583DF"/>
    <line y1="-0.5" x2="616.141" y2="-0.5" transform="matrix(0.774174 0.632973 0.632973 -0.774174 245 1)" stroke="#B583DF"/>
    <line y1="-0.5" x2="616.14" y2="-0.5" transform="matrix(-0.774174 -0.632973 -0.632972 0.774174 1678 1082)" stroke="#B583DF"/>
    <line x1="1678.32" y1="1.38709" x2="1201.32" y2="391.387" stroke="#B583DF"/>
    <line x1="423.632" y1="1081.66" x2="781.632" y2="691.662" stroke="#B583DF"/>
    <line x1="1499.63" y1="1082.34" x2="1141.63" y2="692.338" stroke="#B583DF"/>
    <line y1="-0.5" x2="529.4" y2="-0.5" transform="matrix(0.676238 0.736683 0.736683 -0.676238 424 1)" stroke="#B583DF"/>
    <line y1="-0.5" x2="528.049" y2="-0.5" transform="matrix(-0.674179 0.738568 0.738568 0.674179 1498 2)" stroke="#B583DF"/>
    <line x1="601.574" y1="1081.74" x2="841.574" y2="691.738" stroke="#B583DF"/>
    <line y1="-0.5" x2="457.93" y2="-0.5" transform="matrix(0.524098 0.851658 0.851658 -0.524098 602 1)" stroke="#B583DF"/>
    <line y1="-0.5" x2="457.93" y2="-0.5" transform="matrix(-0.524097 -0.851658 -0.851658 0.524098 1321 1082)" stroke="#B583DF"/>
    <line x1="1321.43" y1="1.26205" x2="1081.43" y2="391.262" stroke="#B583DF"/>
    <line x1="781.522" y1="1081.85" x2="901.522" y2="691.853" stroke="#B583DF"/>
    <line y1="-0.5" x2="408.044" y2="-0.5" transform="matrix(0.294086 0.955779 0.955779 -0.294086 782 1)" stroke="#B583DF"/>
    <line y1="-0.5" x2="408.044" y2="-0.5" transform="matrix(-0.294086 -0.955779 -0.955779 0.294086 1141 1082)" stroke="#B583DF"/>
    <line x1="1141.48" y1="1.14704" x2="1021.48" y2="391.147" stroke="#B583DF"/>
    <line x1="962.5" y1="1082" x2="961.5" y2="692.001" stroke="#B583DF"/>
    <line y1="-0.5" x2="390.001" y2="-0.5" transform="matrix(-0.00256381 0.999997 0.999997 0.00256381 963 1)" stroke="#B583DF"/>
    <line x1="103" y1="62.5" x2="1820" y2="62.5" stroke="#B583DF"/>
    <line x1="653" y1="421.5" x2="1271" y2="421.5" stroke="#B583DF"/>
    <line x1="1.18545" y1="161.536" x2="652.185" y2="421.536" stroke="#B583DF"/>
    <line y1="-0.5" x2="699.146" y2="-0.5" transform="matrix(-0.92828 0.371882 0.369917 0.929065 1920 162)" stroke="#B583DF"/>
    <line x1="0.822241" y1="909.533" x2="652.822" y2="661.533" stroke="#B583DF"/>
    <line y1="-0.5" x2="695.704" y2="-0.5" transform="matrix(-0.934305 -0.356473 -0.354565 0.935031 1920 910)" stroke="#B583DF"/>
    <line x1="1.09936" y1="349.51" x2="652.099" y2="481.51" stroke="#B583DF"/>
    <line y1="-0.5" x2="662.291" y2="-0.5" transform="matrix(-0.979937 0.199308 0.198135 0.980175 1920 350)" stroke="#B583DF"/>
    <line x1="0.902955" y1="730.51" x2="652.903" y2="601.51" stroke="#B583DF"/>
    <line y1="-0.5" x2="662.677" y2="-0.5" transform="matrix(-0.98087 -0.194665 -0.193517 0.981097 1920 731)" stroke="#B583DF"/>
    <line x1="1.00077" y1="540.5" x2="653" y2="541.5" stroke="#B583DF"/>
    <line y1="-0.5" x2="650" y2="-0.5" transform="matrix(-0.999999 0.00153846 0.00152904 0.999999 1920 541)" stroke="#B583DF"/>
    <line x1="653" y1="481.5" x2="1271" y2="481.5" stroke="#B583DF"/>
    <line x1="653" y1="541.5" x2="1271" y2="541.5" stroke="#B583DF"/>
    <line x1="653" y1="601.5" x2="1271" y2="601.5" stroke="#B583DF"/>
    <line x1="653" y1="691.5" x2="1271" y2="691.5" stroke="#B583DF"/>
    <line x1="653" y1="661.5" x2="1271" y2="661.5" stroke="#B583DF"/>
    <line x1="103.555" y1="1021" x2="103.5" y2="62" stroke="#B583DF"/>
    <line x1="1819.55" y1="1020" x2="1819.5" y2="62" stroke="#B583DF"/>
    <line x1="223.5" y1="949" x2="223.5" y2="134" stroke="#B583DF"/>
    <line x1="1699.5" y1="949" x2="1699.5" y2="134" stroke="#B583DF"/>
    <line x1="1518.5" y1="841" x2="1518.5" y2="242" stroke="#B583DF"/>
    <line x1="403.5" y1="841" x2="403.5" y2="242" stroke="#B583DF"/>
    <line x1="473.5" y1="799" x2="473.5" y2="284" stroke="#B583DF"/>
    <line x1="1448.5" y1="799" x2="1448.5" y2="285" stroke="#B583DF"/>
    <line x1="534.5" y1="763" x2="534.496" y2="320" stroke="#B583DF"/>
    <line x1="1388.5" y1="763" x2="1388.5" y2="320" stroke="#B583DF"/>
    <line x1="583.5" y1="734" x2="583.5" y2="350" stroke="#B583DF"/>
    <line x1="1340.5" y1="734" x2="1340.5" y2="349" stroke="#B583DF"/>
    <line x1="623.5" y1="709" x2="623.5" y2="374" stroke="#B583DF"/>
    <line x1="1300.5" y1="710" x2="1300.5" y2="373" stroke="#B583DF"/>
    <line x1="323.5" y1="889" x2="323.5" y2="194" stroke="#B583DF"/>
    <line x1="1599.5" y1="889" x2="1599.5" y2="194" stroke="#B583DF"/>
    <line y1="-0.5" x2="300" y2="-0.5" transform="matrix(0 -1 1 -0.000500274 1271 692)" stroke="#B583DF"/>
    <line y1="-0.5" x2="300" y2="-0.5" transform="matrix(0 -1 1 -0.000500274 1262 692)" stroke="#B583DF"/>
    <line y1="-0.5" x2="300" y2="-0.5" transform="matrix(0 -1 1 -0.000500274 662 692)" stroke="#B583DF"/>
    <line y1="-0.5" x2="300" y2="-0.5" transform="matrix(0 -1 1 -0.000500274 1202 692)" stroke="#B583DF"/>
    <line y1="-0.5" x2="300" y2="-0.5" transform="matrix(0 -1 1 -0.000500274 1142 692)" stroke="#B583DF"/>
    <line y1="-0.5" x2="300" y2="-0.5" transform="matrix(0 -1 1 -0.000500274 1082 692)" stroke="#B583DF"/>
    <line y1="-0.5" x2="300" y2="-0.5" transform="matrix(0 -1 1 -0.000500274 1022 692)" stroke="#B583DF"/>
    <line y1="-0.5" x2="300" y2="-0.5" transform="matrix(0 -1 1 -0.000500274 962 692)" stroke="#B583DF"/>
    <line y1="-0.5" x2="300" y2="-0.5" transform="matrix(0 -1 1 -0.000500274 902 692)" stroke="#B583DF"/>
    <line y1="-0.5" x2="300" y2="-0.5" transform="matrix(0 -1 1 -0.000500274 842 692)" stroke="#B583DF"/>
    <line y1="-0.5" x2="300" y2="-0.5" transform="matrix(0 -1 1 -0.000500274 782 692)" stroke="#B583DF"/>
    <line y1="-0.5" x2="300" y2="-0.5" transform="matrix(0 -1 1 -0.000500274 722 692)" stroke="#B583DF"/>
    <line y1="-0.5" x2="300" y2="-0.5" transform="matrix(0 -1 1 -0.000500274 653 692)" stroke="#B583DF"/>
</svg>