<svg width="26" height="75" viewBox="0 0 26 75" fill="none" xmlns="http://www.w3.org/2000/svg">
<path d="M25.1389 2.88223C25.626 2.21215 25.4777 1.27406 24.8076 0.786932C24.1375 0.299807 23.1994 0.448119 22.7123 1.11819L25.1389 2.88223ZM10.8111 23.5862L12.2507 24.0075L10.8111 23.5862ZM7.4809 40.4559L8.98086 40.4669L7.4809 40.4559ZM14.3282 74.6405C15.1041 74.9308 15.9684 74.5371 16.2587 73.7612L20.9892 61.1171C21.2795 60.3412 20.8858 59.4769 20.1099 59.1866C19.334 58.8963 18.4697 59.29 18.1794 60.0659L13.9745 71.3051L2.73536 67.1002C1.95945 66.8099 1.09514 67.2036 0.804851 67.9795C0.514565 68.7554 0.908236 69.6197 1.68414 69.91L14.3282 74.6405ZM22.7123 1.11819C17.9813 7.62606 11.8997 14.5257 9.37145 23.1649L12.2507 24.0075C14.5884 16.0195 20.1636 9.72608 25.1389 2.88223L22.7123 1.11819ZM9.37145 23.1649C7.78708 28.5788 6.02557 34.3552 5.98094 40.4449L8.98086 40.4669C9.02184 34.8746 10.6381 29.5178 12.2507 24.0075L9.37145 23.1649ZM5.98094 40.4449C5.89832 51.7203 8.86087 63.6967 13.4887 73.8573L16.2189 72.6139C11.7425 62.7859 8.90192 51.2401 8.98086 40.4669L5.98094 40.4449Z" fill="black"/>
</svg>
