
<svg width="2594" height="2594" viewBox="0 0 2594 2594" fill="none" xmlns="http://www.w3.org/2000/svg">
<path opacity="0.67" d="M1006.57 1219.05L134.095 868.035L44.1769 961.234L75.3217 1086.86L1006.57 1219.05ZM1086.54 75.6341L961.03 44.1382L867.833 134.058L1218.84 1006.55L1086.54 75.6341ZM1410.04 62.638L1296.7 0L1183.37 62.638L1296.7 996.033L1410.04 62.638ZM777.552 171.525L648.06 173.632L581.556 284.509L1146.24 1036.18L777.552 171.525ZM504.167 344.104L379.827 379.814L344.118 504.155L1084.18 1084.2L504.167 344.104ZM284.523 581.783L173.647 648.287L171.54 777.78L1036.53 1146.48L284.523 581.783ZM2249.27 504.158L2213.56 379.817L2089.22 344.107L1509.19 1084.18L2249.27 504.158ZM1597.36 1296.68L2530.74 1410.01L2593.38 1296.68L2530.74 1183.34L1597.36 1296.68ZM2421.85 777.543L2419.75 648.05L2308.87 581.546L1556.85 1146.48L2421.85 777.543ZM2517.74 1086.54L2548.89 960.907L2458.97 867.943L1586.82 1219.08L2517.74 1086.54ZM1725.32 134.079L1632.36 44.1595L1506.73 75.3046L1374.54 1006.24L1725.32 134.079ZM2011.59 284.529L1945.08 173.653L1815.59 171.545L1446.9 1036.54L2011.59 284.529ZM868.063 2459.35L961.027 2549.27L1086.66 2518.13L1218.84 1587.19L868.063 2459.35ZM1815.83 2421.89L1945.33 2419.78L2011.83 2308.9L1446.9 1556.88L1815.83 2421.89ZM2089.22 2249.31L2213.56 2213.6L2249.27 2089.26L1509.21 1509.22L2089.22 2249.31ZM996.02 1296.73L62.6372 1183.4L0 1296.73L62.6372 1410.06L996.02 1296.73ZM1586.81 1374.35L2459.29 1725.37L2549.21 1632.41L2518.07 1506.78L1586.81 1374.35ZM1506.85 2517.77L1632.47 2548.92L1725.44 2459L1374.31 1586.84L1506.85 2517.77ZM2308.86 2011.61L2419.73 1945.11L2421.84 1815.62L1556.86 1446.92L2308.86 2011.61ZM171.528 1815.85L173.636 1945.35L284.511 2011.85L1036.17 1447.16L171.528 1815.85ZM75.6394 1506.86L44.1439 1632.37L134.062 1725.57L1006.54 1374.56L75.6394 1506.86ZM344.106 2089.24L379.815 2213.58L504.155 2249.29L1084.19 1509.22L344.106 2089.24ZM1183.34 2530.74L1296.68 2593.38L1410.01 2530.74L1296.68 1597.35L1183.34 2530.74ZM581.79 2308.87L648.294 2419.75L777.785 2421.86L1146.48 1556.86L581.79 2308.87Z" fill="url(#paint0_radial_1701_13385)"/>
<defs>
<radialGradient id="paint0_radial_1701_13385" cx="0" cy="0" r="1" gradientUnits="userSpaceOnUse" gradientTransform="translate(1296.69 1296.69) rotate(90) scale(1296.69)">
<stop stop-color="white"/>
<stop offset="0.963549" stop-color="white" stop-opacity="0"/>
</radialGradient>
</defs>
</svg>
