<svg xmlns="http://www.w3.org/2000/svg" xmlns:xlink="http://www.w3.org/1999/xlink" fill="none" version="1.1" width="780" height="144.989990234375" viewBox="0 0 780 144.989990234375"><g><path d="M2,142.99Q34.875,109.122,74.5,85Q114.125,60.8775,160.5,46.5L215,30C237.339,20.5149,266.17,6.84033,324.178,2.879861C344.091,1.52631,374.442,1.566394,406.017,4.19333C417.99,5.1959800000000005,427.931,6.37909,434.886,7.29154C440.888,8.44461,449.523,10.1591,459.847,12.4852C502.918,22.1909,534.441,33.1298,554.997,40.3388C624.397,64.6731,692.584,97.6502,712.56,107.446C734.37,117.974,756.19,128.49200000000002,778,139.019C644.175,140.343,510.35,141.666,376.526,142.99L9,142.99L2,142.99Z" fill="#617C36" fill-opacity="1"/><path d="M159.92,44.5858Q113.297,59.0405,73.46,83.2917Q33.6172,107.547,0.5649200000000001,141.597L-2.7286799999999998,144.99L376.526,144.99L778.02,141.019L786.748,141.019L745.973,121.347L713.429,105.645Q628.473,63.9834,555.659,38.4515Q504.396,20.4738,460.287,10.53418Q448.257,7.82373,435.263,5.32746L435.205,5.31625L435.146,5.30853Q420.754,3.4204499999999998,406.184,2.200304Q360.545,-1.5967600000000002,324.042,0.8844700000000001Q287.866,3.35434,258.805,11.5386Q241.947,16.286099999999998,218.283,26.423Q215.649,27.5512,214.317,28.117L159.92,44.5858ZM6.77017,140.99Q38.1318,109.481,75.54,86.7083Q114.954,62.7145,161.08,48.4142L215.683,31.883L215.782,31.8409Q217.117,31.274,219.858,30.0999Q243.282,20.0656,259.889,15.3888Q288.552,7.31684,324.313,4.87526Q360.515,2.414543,405.85,6.18635Q420.296,7.39618,434.567,9.26684Q447.467,11.74595,459.408,14.4363Q503.292,24.3251,554.335,42.2262Q626.926,67.6792,711.69,109.247L744.235,124.949L769.428,137.104L376.526,140.99L6.77017,140.99Z" fill-rule="evenodd" fill="#313131" fill-opacity="1"/></g></svg>