<?xml version="1.0" encoding="utf-8"?>
<!-- Generator: Adobe Illustrator 28.3.0, SVG Export Plug-In . SVG Version: 6.00 Build 0)  -->
<svg version="1.1" xmlns="http://www.w3.org/2000/svg" xmlns:xlink="http://www.w3.org/1999/xlink" x="0px" y="0px"
	 viewBox="0 0 523 564" style="enable-background:new 0 0 523 564;" xml:space="preserve">
<style type="text/css">
	.st0{fill:#F4984B;}
	.st1{fill:none;stroke:#000000;stroke-width:3;stroke-linecap:round;stroke-linejoin:round;stroke-miterlimit:10;}
	.st2{fill:#FDD172;stroke:#000000;stroke-width:3;stroke-linecap:round;stroke-linejoin:round;stroke-miterlimit:10;}
	.st3{fill:#FFFFFF;stroke:#000000;stroke-width:3;stroke-linecap:round;stroke-linejoin:round;stroke-miterlimit:10;}
	.st4{fill:#4795BD;stroke:#000000;stroke-miterlimit:10;}
	.st5{fill:#29ABA1;stroke:#000000;stroke-width:3;stroke-linecap:round;stroke-linejoin:round;stroke-miterlimit:10;}
	.st6{fill:#A2A2A2;}
	.st7{fill:#92C8C6;}
	.st8{fill:#FFFFFF;}
	.st9{fill:#29ABA1;}
	.st10{fill:none;stroke:#FFFFFF;stroke-width:3;stroke-linecap:round;stroke-linejoin:round;stroke-miterlimit:10;}
	.st11{fill:#FEFEFD;stroke:#000000;stroke-width:3;stroke-linecap:round;stroke-linejoin:round;stroke-miterlimit:10;}
	.st12{fill:#4795BD;}
	.st13{fill:#FCDCDB;}
	.st14{fill:#E54040;}
	.st15{fill:none;stroke:#000000;stroke-miterlimit:10;}
</style>
<g id="Layer_1">
	<g>
		<g id="XMLID_00000125587542869150684100000015482041538028044462_">
			<g>
				<path class="st0" d="M399.12,135.1c10.98,16.18,38.77,17.36,44.24,17.01c-11.61,14.16-28.55,38.65-21.01,53.38
					c0.79,1.56,2.35,3.94,3.02,4.97c5.27,8.06,11.57,15.38,18.74,21.8c-6.89,3.35-27.98,15.1-32.68,35.34
					c-3.02,13,1.42,26.87,13.18,41.26c-9.84,0.26-39.04,2.55-51.89,20.5c-6.84,9.57-7.87,22.03-3.07,37.08
					c-8.94-4.49-33.3-14.8-50.94-4.16c-0.68,0.46-16.21,11.26-18.29,40.01c-14.93-20.06-40.38-29.19-59.71-20.85
					c-12.15,5.24-18.38,15.98-21.3,23.15c-2.9-8.57-10.99-26.76-28.65-32.3c-3.51-1.1-7.09-1.57-10.66-1.57
					c-17.65,0-34.92,11.54-40.26,15.92c1.24-7.53,4.19-33.96-12.83-47.45c-0.69-0.52-16.94-12.2-48.85-4.44
					c11.3-17.04,11.25-38.44-0.53-53.32c-10.72-13.53-27.11-16.41-34.62-17c5.85-6.6,20.72-25.66,17.71-45.75
					c-1.82-12.17-9.91-22.46-24.07-30.64c7.78-3.25,27.92-13.3,33.36-31.97c3.64-12.49-0.1-26.31-11.13-41.1
					c21.42,2.2,39.48-3.45,47.66-15.08c7.91-11.25,7.08-29.05,6.58-39.68c-0.15-3.17-0.45-6.36-0.88-9.51
					c5.98,1.86,12.04,3.5,18.06,4.88c23.8,5.47,31.3,3.43,35.86,0.41c1.83-1.22,3.28-2.66,3.55-2.93c3.54-3.6,5.91-8.56,7.46-15.62
					c2.93-13.35,4.69-20.36,5.73-24.05c4.01,4.86,24.01,27.65,46.1,27.65c1.08,0,2.18-0.06,3.27-0.17
					c12.27-1.29,22.75-9.93,31.18-25.7c2.89,7.74,11.45,26.16,29.43,32.7c14.13,5.14,30.76,1.66,49.48-10.33
					c-1.33,6.83-2.66,21.51,6.58,33.58c9.49,12.4,27.32,18.36,52.99,17.71C398.11,96.16,388.04,118.76,399.12,135.1z"/>
			</g>
			<g>
				<path class="st1" d="M180.1,370.72c3.57,0,7.15,0.47,10.66,1.57c17.66,5.54,25.75,23.73,28.65,32.3
					c2.92-7.17,9.15-17.91,21.3-23.15c19.33-8.34,44.78,0.79,59.71,20.85c2.08-28.75,17.61-39.55,18.29-40.01
					c17.64-10.64,42-0.33,50.94,4.16c-4.8-15.05-3.77-27.51,3.07-37.08c12.85-17.95,42.05-20.24,51.89-20.5
					c-11.76-14.39-16.2-28.26-13.18-41.26c4.7-20.24,25.79-31.99,32.68-35.34c-7.17-6.42-13.47-13.74-18.74-21.8
					c-0.67-1.03-2.23-3.41-3.02-4.97c-7.54-14.73,9.4-39.22,21.01-53.38c-5.47,0.35-33.26-0.83-44.24-17.01
					c-11.08-16.34-1.01-38.94,2.81-46.27c-25.67,0.65-43.5-5.31-52.99-17.71c-9.24-12.07-7.91-26.75-6.58-33.58
					c-18.72,11.99-35.35,15.47-49.48,10.33c-17.98-6.54-26.54-24.96-29.43-32.7c-8.43,15.77-18.91,24.41-31.18,25.7
					c-1.09,0.11-2.19,0.17-3.27,0.17c-22.09,0-42.09-22.79-46.1-27.65c-1.04,3.69-2.8,10.7-5.73,24.05
					c-1.55,7.06-3.92,12.02-7.46,15.62c-0.27,0.27-1.72,1.71-3.55,2.93c-4.56,3.02-12.06,5.06-35.86-0.41
					c-6.02-1.38-12.08-3.02-18.06-4.88c0.43,3.15,0.73,6.34,0.88,9.51c0.5,10.63,1.33,28.43-6.58,39.68
					c-8.18,11.63-26.24,17.28-47.66,15.08c11.03,14.79,14.77,28.61,11.13,41.1c-5.44,18.67-25.58,28.72-33.36,31.97
					c14.16,8.18,22.25,18.47,24.07,30.64c3.01,20.09-11.86,39.15-17.71,45.75c7.51,0.59,23.9,3.47,34.62,17
					c11.78,14.88,11.83,36.28,0.53,53.32c31.91-7.76,48.16,3.92,48.85,4.44c17.02,13.49,14.07,39.92,12.83,47.45
					C145.18,382.26,162.45,370.72,180.1,370.72z"/>
			</g>
		</g>
		<path class="st1" d="M183.12,7.06"/>
	</g>
	<path class="st2" d="M87.8,265.96c0,0-63.98,30.2-49.69,82.52c0,0,18.6-5.13,21.84-3.8c0,0,4.85-44.2,40.99-54.44l-11.95-24.27"/>
	<ellipse class="st2" cx="238.22" cy="218.79" rx="161.07" ry="160.07"/>
	<path class="st3" d="M27.8,358.08c0,0-10.13,15.55-4.76,29.33c-1.18,4.01-2.69,11.1-1.25,19.61c0.49,2.88,3.16,18.61,12.35,21.28
		c5.17,1.5,10.26-1.76,13.5-3.8c38.09-23.98,41.68-21.84,49.33-30.92c7.89-9.36-5.33-42.83-23.4-45.33
		c-12.22-1.69-22.36-2.63-32.03,1.01C35.1,351.69,30.62,355.46,27.8,358.08"/>
	<path class="st1" d="M225.44,393.79"/>
	<path class="st4" d="M26.27,358.08"/>
	<path class="st3" d="M37.25,334.72c-0.05,0.02-0.29,0.15-0.58,0.3c-1.41,0.75-14.44,7.89-13.59,15.93
		c0.25,2.33,1.62,4.74,4.72,7.13c0,0,16.21-19.15,45.77-9.83c1-0.97,3.37-3.55,2.99-6.53c-0.45-3.46-4.34-5.33-7.94-7
		c-3.44-1.6-9.64-3.8-18.45-3.39C47.07,331.42,42.5,332.05,37.25,334.72z"/>
	<path class="st2" d="M253.1,385.73c2.61-2.66,5.21-5.33,7.82-7.99c11.22-2.09,23.15-5.21,35.49-9.77c1.99-0.74,3.94-1.49,5.85-2.26
		c-11.88,13.71-23.76,27.42-35.64,41.13"/>
	<path class="st5" d="M224.45,406.26c0,0-12.34-3.9-16.87,1.25c-5.62,6.39,1.87,19.67,3.42,22.37c4.25,7.39,14.36,19.25,24.26,16.91
		c4.3-1.02,9.68-4.98,10.09-10.4c0.25-3.41-1.55-6.13-2.49-7.34"/>
	<g>
		<g id="XMLID_00000122693189879630523580000000065937154609620412_">
			<g>
				<path d="M394.92,463.55c1.52,5.75,1.86,11.53,1.01,17.18c-0.48,3.16-1.33,6.09-2.41,8.77l-0.33-0.14
					c0.31-0.66,0.11-1.46-0.51-1.88l-1.27-0.86c0.68-1.98,1.21-4.09,1.55-6.33c0.45-2.99,0.54-6.02,0.27-9.07
					c0.48,0.19,1.04,0.11,1.46-0.24c0.64-0.52,0.73-1.47,0.2-2.11c-0.54-0.66-1.12-1.29-1.72-1.89c0.11-0.03,0.22-0.08,0.33-0.13
					C394.85,466.21,395.01,464.71,394.92,463.55z"/>
				<path d="M394.89,468.87c0.53,0.64,0.44,1.59-0.2,2.11c-0.42,0.35-0.98,0.43-1.46,0.24c-0.12-1.38-0.31-2.76-0.58-4.15
					c0.17-0.01,0.34-0.03,0.52-0.09C393.77,467.58,394.35,468.21,394.89,468.87z"/>
				<path d="M394.92,463.55c0.09,1.16-0.07,2.66-1.42,3.3c-0.11,0.05-0.22,0.1-0.33,0.13c-0.22-0.22-0.44-0.43-0.67-0.62
					c-0.05-0.3-0.12-0.59-0.2-0.89c0.2,0.09,0.39,0.11,0.55,0.03c0.66-0.31,0.69-1.42,0.45-2.87c0,0-0.13-0.5-0.43-1.35
					c0.74-0.15,1.49,0.31,1.72,1.05C394.71,462.73,394.82,463.14,394.92,463.55C394.92,463.54,394.93,463.54,394.92,463.55z"/>
				<path d="M394.92,463.54c-0.1-0.4-0.21-0.81-0.33-1.21c-0.23-0.74-0.98-1.2-1.72-1.05c-1.44-4.14-6.84-16.7-20.92-21.66
					c-14.58-5.14-25.11-1.66-35.16,1.62c-7.04,2.29-22.55,9.43-27.67,19.21c-2.14,4.1-3.36,8.26-3.58,10.91
					c-1.53-0.53-8.07-3.43-11.38-9.49c-1.2-2.19-1.75-4.52-1.77-4.63c-0.52-2.36-0.45-4.42-0.28-5.94c0.51-0.13,1.03-0.25,1.54-0.36
					c-0.18,1.45-0.34,3.54,0.2,5.97c0.01,0.02,0.52,2.24,1.62,4.24c2.37,4.33,6.54,6.89,8.87,8.05c0.57-2.87,1.82-6.31,3.45-9.44
					c5.31-10.16,20.99-17.49,28.53-19.95l0.17-0.05c10.32-3.36,20.98-6.84,35.96-1.55c17.52,6.17,22.11,23.32,22.3,24.05
					c0.01,0.04,0.02,0.08,0.02,0.12C394.82,462.66,394.89,463.07,394.92,463.54z"/>
				<path d="M393.19,489.36l0.33,0.14c-2.4,5.99-5.93,10.75-8.91,14.12l-0.44-0.39c0.43-0.71,0.2-1.63-0.51-2.06l-0.56-0.34
					c2.47-2.9,5.19-6.7,7.2-11.34l0.69,0.47c0.26,0.17,0.55,0.26,0.84,0.26c0.48,0,0.96-0.23,1.25-0.66
					C393.12,489.5,393.16,489.43,393.19,489.36z"/>
				<path d="M393.3,462.63c0.24,1.45,0.21,2.56-0.45,2.87c-0.16,0.08-0.35,0.06-0.55-0.03c-0.17-0.77-0.37-1.53-0.59-2.3
					c-0.04-0.12-0.06-0.26-0.06-0.38c0.06,0.07,0.12,0.14,0.18,0.21c0-0.01,0-0.03,0-0.04c-0.02-0.08-0.07-0.25-0.15-0.5
					c0.1-0.53,0.49-0.99,1.05-1.15c0.05-0.01,0.09-0.02,0.14-0.03C393.17,462.13,393.3,462.63,393.3,462.63z"/>
				<path class="st6" d="M393.23,471.22c0.27,3.05,0.18,6.08-0.27,9.07c-0.34,2.24-0.87,4.35-1.55,6.33l-28.76-19.54
					c2.77-1.59,5.87-2.91,9.23-3.53c1.72-0.32,6.99-1.29,12.83,1.24c3,1.31,5.72,3.37,7.87,5.98
					C392.75,470.98,392.98,471.14,393.23,471.22z"/>
				<path d="M392.68,487.48c0.62,0.42,0.82,1.22,0.51,1.88c-0.03,0.07-0.07,0.14-0.11,0.2c-0.29,0.43-0.77,0.66-1.25,0.66
					c-0.29,0-0.58-0.09-0.84-0.26l-0.69-0.47c0.4-0.92,0.78-1.88,1.11-2.87L392.68,487.48z"/>
				<path d="M392.5,466.36c0.23,0.19,0.45,0.4,0.67,0.62c-0.18,0.06-0.35,0.08-0.52,0.09C392.61,466.83,392.56,466.6,392.5,466.36z"
					/>
				<path d="M392.87,461.28c-0.05,0.01-0.09,0.02-0.14,0.03c-0.56,0.16-0.95,0.62-1.05,1.15c-0.92-2.88-5.92-16.38-20.22-21.42
					c-14.03-4.95-24.2-1.64-34.04,1.57l-0.17,0.05c-8.3,2.71-22.29,9.86-26.8,18.49c-2.24,4.28-3.24,8.25-3.42,10.34
					c-0.04,0.46-0.29,0.88-0.68,1.13c-0.39,0.26-0.87,0.31-1.31,0.16c-0.34-0.12-8.25-2.98-12.2-10.18
					c-1.34-2.45-1.91-5.02-1.92-5.04c-0.46-2.07-0.49-3.93-0.39-5.41l-0.11-0.4c0.56-0.16,1.13-0.31,1.69-0.45
					c-0.17,1.52-0.24,3.58,0.28,5.94c0.02,0.11,0.57,2.44,1.77,4.63c3.31,6.06,9.85,8.96,11.38,9.49c0.22-2.65,1.44-6.81,3.58-10.91
					c5.12-9.78,20.63-16.92,27.67-19.21c10.05-3.28,20.58-6.76,35.16-1.62C386.03,444.58,391.43,457.14,392.87,461.28z"/>
				<path d="M393.23,471.22c-0.25-0.08-0.48-0.24-0.65-0.45c-2.15-2.61-4.87-4.67-7.87-5.98c-5.84-2.53-11.11-1.56-12.83-1.24
					c-3.36,0.62-6.46,1.94-9.23,3.53l-0.8-0.54c-0.52-0.35-1.19-0.33-1.69,0.01l-0.66-1.07c3.42-2.17,7.39-4.07,11.83-4.89
					c5.24-0.96,10.14-0.47,14.57,1.45c0.68,0.29,1.34,0.62,1.99,0.98c0.42,0.46,0.81,0.92,1.17,1.35c1.23,1.45,2.32,2.73,3.59,2.7
					C392.92,468.46,393.11,469.84,393.23,471.22z"/>
				<path d="M392.5,466.36c0.06,0.24,0.11,0.47,0.15,0.71c-1.27,0.03-2.36-1.25-3.59-2.7c-0.36-0.43-0.75-0.89-1.17-1.35
					C389.54,463.93,391.09,465.05,392.5,466.36z"/>
				<path d="M392.3,465.47c0.08,0.3,0.15,0.59,0.2,0.89c-1.41-1.31-2.96-2.43-4.61-3.34c-0.47-0.51-0.97-1.03-1.51-1.52
					c-8.3-7.52-24.42-2.94-27.58-1.95c-2.04,0.64-4.05,1.51-5.99,2.57c-2.85,1.47-5.52,3.21-7.97,5.2
					c-7.57,6.15-11.29,13.21-13.28,17l-0.38,0.73c-3.7,6.95-7.81,13.1-12.21,18.33c-1.46,1.74-2.96,3.38-4.49,4.91
					c-6.11,6.12-12.65,10.52-19.35,12.9c-2.04,0.73-8.93,2.99-15.45,2.99c-1.81,0-3.59-0.18-5.23-0.61
					c-0.39-0.75-0.62-1.24-0.68-1.38c-0.1-0.23-0.26-0.42-0.44-0.56c6.13,2.5,16.01,0.03,21.3-1.85
					c20.2-7.19,32.63-30.56,35.22-35.44c1.93-3.62,5.72-11.43,14.05-18.18c3.23-2.63,6.22-4.34,8.19-5.36
					c2.64-1.44,4.88-2.24,6.24-2.67c1.7-0.54,19.67-6.25,29.06,2.26C389.7,462.49,391.26,465.01,392.3,465.47z"/>
				<path d="M391.71,463.17c0.22,0.77,0.42,1.53,0.59,2.3c-1.04-0.46-2.6-2.98-4.91-5.08c-9.39-8.51-27.36-2.8-29.06-2.26
					c-1.36,0.43-3.6,1.23-6.24,2.67c-1.97,1.02-4.96,2.73-8.19,5.36c-8.33,6.75-12.12,14.56-14.05,18.18
					c-2.59,4.88-15.02,28.25-35.22,35.44c-5.29,1.88-15.17,4.35-21.3,1.85c-0.19-0.15-0.41-0.25-0.65-0.29
					c-1.33-0.64-2.44-1.56-3.25-2.8c-4.25-6.51,0.91-14.84-3.42-30.39c-1.75-6.27-4.46-11.04-6.5-14.12
					c1.12-1.68,2.58-3.69,4.43-5.86c1.63-1.82,3.36-3.52,5.2-5.1c6.09-5.24,13.37-9.1,21.28-11.32l0.11,0.4
					c-6,2.02-10.72,4.16-13.72,6.26c-1.3,0.9-3.34,2.42-5.69,4.53c-3.69,3.3-6.99,7.04-9.81,11.11c2.75,4.32,4.81,8.92,6.14,13.7
					c2.29,8.21,2.01,14.43,1.78,19.43c-0.2,4.52-0.35,7.78,1.45,10.54c3.76,5.76,16.51,3.11,23.45,0.64
					c12.68-4.51,24.89-16.84,34.4-34.72l0.37-0.71c2.1-3.99,6-11.4,14.05-17.94c2.61-2.11,5.45-3.97,8.45-5.52
					c2.08-1.14,4.27-2.08,6.48-2.77c4.83-1.53,21.25-5.83,30.52,2.58c1.17,1.06,2.15,2.22,2.94,3.15c0.1,0.11,0.21,0.24,0.31,0.36
					C391.65,462.91,391.67,463.05,391.71,463.17z"/>
				<path d="M391.83,462.96c0,0.01,0,0.03,0,0.04c-0.06-0.07-0.12-0.14-0.18-0.21c-0.01-0.11,0-0.22,0.03-0.33
					C391.76,462.71,391.81,462.88,391.83,462.96z"/>
				<path class="st7" d="M391.68,462.46c-0.03,0.11-0.04,0.22-0.03,0.33c-0.1-0.12-0.21-0.25-0.31-0.36
					c-0.79-0.93-1.77-2.09-2.94-3.15c-9.27-8.41-25.69-4.11-30.52-2.58c-2.21,0.69-4.4,1.63-6.48,2.77c-3,1.55-5.84,3.41-8.45,5.52
					c-8.05,6.54-11.95,13.95-14.05,17.94l-0.37,0.71c-9.51,17.88-21.72,30.21-34.4,34.72c-6.94,2.47-19.69,5.12-23.45-0.64
					c-1.8-2.76-1.65-6.02-1.45-10.54c0.23-5,0.51-11.22-1.78-19.43c-1.33-4.78-3.39-9.38-6.14-13.7c2.82-4.07,6.12-7.81,9.81-11.11
					c2.35-2.11,4.39-3.63,5.69-4.53c3-2.1,7.72-4.24,13.72-6.26c-0.1,1.48-0.07,3.34,0.39,5.41c0.01,0.02,0.58,2.59,1.92,5.04
					c3.95,7.2,11.86,10.06,12.2,10.18c0.44,0.15,0.92,0.1,1.31-0.16c0.39-0.25,0.64-0.67,0.68-1.13c0.18-2.09,1.18-6.06,3.42-10.34
					c4.51-8.63,18.5-15.78,26.8-18.49l0.17-0.05c9.84-3.21,20.01-6.52,34.04-1.57C385.76,446.08,390.76,459.58,391.68,462.46z"/>
				<path d="M362.65,467.08l28.76,19.54c-0.33,0.99-0.71,1.95-1.11,2.87l-30.13-20.47c-0.1-0.07-0.18-0.14-0.26-0.23
					C360.78,468.2,361.7,467.63,362.65,467.08z"/>
				<path class="st6" d="M360.17,469.02l30.13,20.47c-2.01,4.64-4.73,8.44-7.2,11.34l-34.42-20.95c-0.35-0.21-0.75-0.26-1.13-0.17
					c2.76-2.86,5.46-5.48,8.06-7.72c1.3-1.04,2.73-2.14,4.3-3.2C359.99,468.88,360.07,468.95,360.17,469.02z"/>
				<path class="st8" d="M386.38,461.5c0.54,0.49,1.04,1.01,1.51,1.52c-0.65-0.36-1.31-0.69-1.99-0.98
					c-4.43-1.92-9.33-2.41-14.57-1.45c-4.44,0.82-8.41,2.72-11.83,4.89c-2.15,1.36-4.1,2.83-5.81,4.2
					c-7.04,6.06-14.64,14.69-22.11,23.41c-1.07,1.25-2.13,2.5-3.19,3.74c-2.39,2.8-4.81,5.63-7.22,8.39l-2.2-1.84
					c4.4-5.23,8.51-11.38,12.21-18.33l0.38-0.73c1.99-3.79,5.71-10.85,13.28-17c2.45-1.99,5.12-3.73,7.97-5.2
					c1.94-1.06,3.95-1.93,5.99-2.57C361.96,458.56,378.08,453.98,386.38,461.5z"/>
				<path d="M384.17,503.23l0.44,0.39c-1.67,1.9-3.16,3.36-4.18,4.36c-0.42,0.4-0.76,0.74-1.02,1c-2.26,2.35-5.7,4.52-9.72,6.5
					l-0.72-1.46c0.24-0.14,0.44-0.35,0.57-0.61c0.21-0.4,0.22-0.86,0.06-1.25c3.19-1.66,5.88-3.41,7.64-5.25
					c0.28-0.28,0.65-0.65,1.09-1.08c0.74-0.72,1.68-1.64,2.72-2.74l1.06,0.64c0.24,0.15,0.51,0.22,0.77,0.22
					C383.39,503.95,383.88,503.69,384.17,503.23z"/>
				<path d="M383.66,501.17c0.71,0.43,0.94,1.35,0.51,2.06c-0.29,0.46-0.78,0.72-1.29,0.72c-0.26,0-0.53-0.07-0.77-0.22l-1.06-0.64
					c0.65-0.68,1.33-1.43,2.05-2.26L383.66,501.17z"/>
				<path d="M348.68,479.88l34.42,20.95c-0.72,0.83-1.4,1.58-2.05,2.26l-33.93-20.64c-0.54-0.33-0.8-0.96-0.7-1.55
					c0.39-0.4,0.76-0.8,1.13-1.19C347.93,479.62,348.33,479.67,348.68,479.88z"/>
				<path class="st6" d="M347.12,482.45l33.93,20.64c-1.04,1.1-1.98,2.02-2.72,2.74c-0.44,0.43-0.81,0.8-1.09,1.08
					c-1.76,1.84-4.45,3.59-7.64,5.25c-0.14-0.32-0.38-0.6-0.71-0.77l-33.73-17.42c-0.09-0.05-0.19-0.08-0.29-0.11
					c3.87-4.5,7.76-8.94,11.55-12.96C346.32,481.49,346.58,482.12,347.12,482.45z"/>
				<path d="M368.97,514.02l0.72,1.46c-5.31,2.63-11.62,4.95-17.55,7.02l-0.52-1.5c0.4-0.11,0.75-0.38,0.94-0.77
					c0.18-0.36,0.21-0.75,0.1-1.1c4.65-1.64,9.61-3.5,13.98-5.52l0.87,0.45c0.23,0.11,0.46,0.17,0.69,0.17
					C368.47,514.23,368.74,514.16,368.97,514.02z"/>
				<path d="M369.6,512.16c0.16,0.39,0.15,0.85-0.06,1.25c-0.13,0.26-0.33,0.47-0.57,0.61c-0.23,0.14-0.5,0.21-0.77,0.21
					c-0.23,0-0.46-0.06-0.69-0.17l-0.87-0.45C367.66,513.14,368.65,512.65,369.6,512.16z"/>
				<path d="M368.89,511.39c0.33,0.17,0.57,0.45,0.71,0.77c-0.95,0.49-1.94,0.98-2.96,1.45l-32.86-16.97
					c-0.31-0.16-0.54-0.42-0.67-0.72c0.58-0.68,1.17-1.37,1.76-2.06c0.1,0.03,0.2,0.06,0.29,0.11L368.89,511.39z"/>
				<path class="st6" d="M333.78,496.64l32.86,16.97c-4.37,2.02-9.33,3.88-13.98,5.52c-0.11-0.38-0.38-0.72-0.76-0.91l-26.13-13.13
					c-0.13-0.07-0.27-0.11-0.4-0.13c1.77-2.05,3.54-4.12,5.3-6.18c0.81-0.95,1.62-1.9,2.44-2.86
					C333.24,496.22,333.47,496.48,333.78,496.64z"/>
				<path d="M361.85,466.54l0.8,0.54c-0.95,0.55-1.87,1.12-2.74,1.71c-0.47-0.49-0.54-1.26-0.14-1.85c0.11-0.16,0.24-0.29,0.39-0.39
					C360.66,466.21,361.33,466.19,361.85,466.54z"/>
				<path d="M359.5,465.48l0.66,1.07c-0.15,0.1-0.28,0.23-0.39,0.39c-0.4,0.59-0.33,1.36,0.14,1.85c-1.57,1.06-3,2.16-4.3,3.2
					c-2.6,2.24-5.3,4.86-8.06,7.72c-0.37,0.09-0.72,0.32-0.93,0.68c-0.1,0.16-0.17,0.34-0.2,0.51c-3.79,4.02-7.68,8.46-11.55,12.96
					c-0.6-0.16-1.25,0.06-1.62,0.58l-1.67-1.35c7.47-8.72,15.07-17.35,22.11-23.41C355.4,468.31,357.35,466.84,359.5,465.48z"/>
				<path d="M352.66,519.13c0.11,0.35,0.08,0.74-0.1,1.1c-0.19,0.39-0.54,0.66-0.94,0.77c-0.13,0.04-0.26,0.06-0.4,0.06
					c-0.22,0-0.45-0.06-0.67-0.17l-1.2-0.6C350.42,519.92,351.53,519.53,352.66,519.13z"/>
				<path d="M351.62,521l0.52,1.5c-1.33,0.46-2.64,0.91-3.91,1.35c-5.02,1.72-9.35,3.22-11.94,4.48c-0.82,0.4-1.69,0.88-2.6,1.41
					l-0.38-0.64c0.32-0.13,0.59-0.38,0.75-0.71c0.36-0.71,0.08-1.57-0.6-1.96c0.52-0.29,1.02-0.55,1.51-0.79
					c2.75-1.35,7.17-2.87,12.29-4.63c0.68-0.23,1.38-0.47,2.09-0.72l1.2,0.6c0.22,0.11,0.45,0.17,0.67,0.17
					C351.36,521.06,351.49,521.04,351.62,521z"/>
				<path d="M351.9,518.22c0.38,0.19,0.65,0.53,0.76,0.91c-1.13,0.4-2.24,0.79-3.31,1.16l-24.92-12.52
					c-0.37-0.18-0.63-0.5-0.75-0.87c0.57-0.64,1.13-1.29,1.69-1.94c0.13,0.02,0.27,0.06,0.4,0.13L351.9,518.22z"/>
				<path class="st6" d="M324.43,507.77l24.92,12.52c-0.71,0.25-1.41,0.49-2.09,0.72c-5.12,1.76-9.54,3.28-12.29,4.63
					c-0.49,0.24-0.99,0.5-1.51,0.79c-0.02-0.02-0.05-0.04-0.08-0.05l-18.84-9.35c3.01-3.16,6.08-6.6,9.14-10.13
					C323.8,507.27,324.06,507.59,324.43,507.77z"/>
				<path d="M346.62,480.39c0.21-0.36,0.56-0.59,0.93-0.68c-0.37,0.39-0.74,0.79-1.13,1.19
					C346.45,480.73,346.52,480.55,346.62,480.39z"/>
				<path d="M333.25,494.44c0.37-0.52,1.02-0.74,1.62-0.58c-0.59,0.69-1.18,1.38-1.76,2.06c-0.19-0.4-0.19-0.88,0.03-1.3
					C333.17,494.56,333.21,494.49,333.25,494.44z"/>
				<path d="M333.46,526.43c0.68,0.39,0.96,1.25,0.6,1.96c-0.16,0.33-0.43,0.58-0.75,0.71c-0.19,0.09-0.39,0.13-0.6,0.13
					c-0.22,0-0.45-0.05-0.66-0.16l-1.66-0.82C331.45,527.58,332.48,526.97,333.46,526.43z"/>
				<path d="M333.31,529.1l0.38,0.64c-5.4,3.16-12.1,8.26-16.21,11.51l-0.03-0.04c0.16-0.13,0.29-0.3,0.39-0.5
					c0.37-0.74,0.07-1.64-0.67-2.01l-0.79-0.39c3.73-2.94,9.14-7.03,14.01-10.06l1.66,0.82c0.21,0.11,0.44,0.16,0.66,0.16
					C332.92,529.23,333.12,529.19,333.31,529.1z"/>
				<path d="M333.38,526.38c0.03,0.01,0.06,0.03,0.08,0.05c-0.98,0.54-2.01,1.15-3.07,1.82l-17.75-8.81
					c-0.1-0.05-0.18-0.1-0.26-0.17c0.72-0.73,1.44-1.48,2.16-2.24L333.38,526.38z"/>
				<path d="M333.25,494.44c-0.04,0.05-0.08,0.12-0.11,0.18c-0.22,0.42-0.22,0.9-0.03,1.3c-0.82,0.96-1.63,1.91-2.44,2.86
					c-1.76,2.06-3.53,4.13-5.3,6.18c-0.64-0.12-1.3,0.19-1.61,0.8c-0.18,0.37-0.2,0.78-0.08,1.14c-3.06,3.53-6.13,6.97-9.14,10.13
					l-0.57-0.28c-0.61-0.3-1.33-0.16-1.77,0.33l-0.97-0.92c1.84-1.91,3.72-3.94,5.62-6.04c1.43-1.6,2.88-3.24,4.32-4.9
					c2.41-2.76,4.83-5.59,7.22-8.39c1.06-1.24,2.12-2.49,3.19-3.74L333.25,494.44z"/>
				<path class="st6" d="M312.64,519.44l17.75,8.81c-4.87,3.03-10.28,7.12-14.01,10.06l-17.15-8.54c4.36-2.22,7.23-4.85,8.47-5.97
					c1.54-1.4,3.1-2.92,4.68-4.53C312.46,519.34,312.54,519.39,312.64,519.44z"/>
				<path d="M323.76,505.76c0.31-0.61,0.97-0.92,1.61-0.8c-0.56,0.65-1.12,1.3-1.69,1.94C323.56,506.54,323.58,506.13,323.76,505.76
					z"/>
				<path class="st8" d="M318.97,503.38l2.2,1.84c-1.44,1.66-2.89,3.3-4.32,4.9l-2.37-1.83
					C316.01,506.76,317.51,505.12,318.97,503.38z"/>
				<path d="M317.17,538.7c0.74,0.37,1.04,1.27,0.67,2.01c-0.1,0.2-0.23,0.37-0.39,0.5c-0.27,0.21-0.61,0.33-0.95,0.33
					c-0.23,0-0.45-0.05-0.67-0.15l-2.05-1.02c0.71-0.58,1.6-1.28,2.6-2.06L317.17,538.7z"/>
				<path d="M317.45,541.21l0.03,0.04c-2.26,1.78-3.74,3.01-3.78,3.05c-0.11,0.1-0.24,0.17-0.37,0.23
					c-4.13,1.76-7.99,2.51-11.54,2.51c-11.23,0-19.54-7.43-24.66-13.95l0.5-0.38c0.24,0.39,0.65,0.66,1.13,0.7
					c0.85,0.09,1.69,0.14,2.53,0.18c6.36,7.2,16.68,14.1,30.67,8.26c0.3-0.24,0.93-0.76,1.82-1.48l2.05,1.02
					c0.22,0.1,0.44,0.15,0.67,0.15C316.84,541.54,317.18,541.42,317.45,541.21z"/>
				<path class="st8" d="M314.48,508.29l2.37,1.83c-1.9,2.1-3.78,4.13-5.62,6.04c-1.89,1.95-3.75,3.78-5.56,5.43
					c-2.23,2.03-5.33,4.57-9.84,6.47c-0.37,0.16-0.76,0.31-1.15,0.46c-4.81,1.82-10.07,2.46-15.62,1.9
					c-0.11-0.01-0.22-0.01-0.33,0.01c-2.07-2.8-3.51-5.36-4.28-6.86c1.64,0.43,3.42,0.61,5.23,0.61c6.52,0,13.41-2.26,15.45-2.99
					C301.83,518.81,308.37,514.41,314.48,508.29z"/>
				<path d="M299.23,529.77l17.15,8.54c-1,0.78-1.89,1.48-2.6,2.06l-16.85-8.39c-0.36-0.18-0.62-0.48-0.74-0.83
					C297.27,530.73,298.29,530.26,299.23,529.77z"/>
				<path d="M313.97,516.75l0.57,0.28c-0.72,0.76-1.44,1.51-2.16,2.24c-0.56-0.43-0.74-1.19-0.42-1.84
					c0.07-0.13,0.15-0.25,0.24-0.35C312.64,516.59,313.36,516.45,313.97,516.75z"/>
				<path class="st6" d="M296.93,531.98l16.85,8.39c-0.89,0.72-1.52,1.24-1.82,1.48c-13.99,5.84-24.31-1.06-30.67-8.26
					c0.53,0.02,1.07,0.03,1.6,0.03c4.51,0,8.82-0.77,12.85-2.29c0.15-0.06,0.3-0.12,0.45-0.18
					C296.31,531.5,296.57,531.8,296.93,531.98z"/>
				<path d="M311.23,516.16l0.97,0.92c-0.09,0.1-0.17,0.22-0.24,0.35c-0.32,0.65-0.14,1.41,0.42,1.84
					c-1.58,1.61-3.14,3.13-4.68,4.53c-1.24,1.12-4.11,3.75-8.47,5.97l-0.97-0.48c-0.6-0.3-1.32-0.16-1.77,0.32l-0.66-1.55
					c4.51-1.9,7.61-4.44,9.84-6.47C307.48,519.94,309.34,518.11,311.23,516.16z"/>
				<path d="M298.26,529.29l0.97,0.48c-0.94,0.49-1.96,0.96-3.04,1.38c-0.14-0.37-0.13-0.8,0.06-1.19c0.06-0.13,0.15-0.25,0.24-0.35
					C296.94,529.13,297.66,528.99,298.26,529.29z"/>
				<path d="M296.4,440.71c1.31,2.43,1.49,5.54,0.49,8.77c-0.16,0.54-0.61,0.94-1.16,1.04c-0.7,0.13-1.39,0.27-2.08,0.42
					c0.04-0.26,0.07-0.51,0.1-0.73c0.04-0.28,0-0.56-0.11-0.81c0.65-0.14,1.26-0.26,1.82-0.36c0.43-1.39,1.21-4.67-0.38-7.61
					c-3.26-6.01-13.21-4.64-13.67-4.57c-3.46,0.52-5.94,2.19-10.75,5.51c-5.12,3.52-8.2,5.65-11.29,9.49
					c-3.64,4.52-9.6,14.33-6.08,19.26c1.22,1.71,3.24,2.34,4.46,2.61c1.42-2.13,3.2-4.51,5.42-6.95c-1.77,2.04-3.4,4.18-4.9,6.42
					c-0.34,0.5-0.34,1.16-0.01,1.66c0.05,0.07,0.1,0.15,0.14,0.22c-0.2,0.1-0.42,0.15-0.65,0.15c-0.1,0-0.21-0.01-0.32-0.03
					c-2.42-0.53-4.22-1.61-5.36-3.21c-4.95-6.92,4.98-19.65,6.13-21.07c3.23-4.02,6.38-6.19,11.61-9.79
					c4.68-3.22,7.5-5.17,11.38-5.75C281.66,435.31,292.61,433.72,296.4,440.71z"/>
				<path d="M295.83,528.06l0.66,1.55c-0.09,0.1-0.18,0.22-0.24,0.35c-0.19,0.39-0.2,0.82-0.06,1.19c-0.15,0.06-0.3,0.12-0.45,0.18
					c-4.03,1.52-8.34,2.29-12.85,2.29c-0.53,0-1.07-0.01-1.6-0.03c-0.94-1.06-1.79-2.13-2.56-3.16c0.11-0.02,0.22-0.02,0.33-0.01
					c5.55,0.56,10.81-0.08,15.62-1.9C295.07,528.37,295.46,528.22,295.83,528.06z"/>
				<path d="M259.37,451.86c3.09-3.84,6.17-5.97,11.29-9.49c4.81-3.32,7.29-4.99,10.75-5.51c0.46-0.07,10.41-1.44,13.67,4.57
					c1.59,2.94,0.81,6.22,0.38,7.61c-0.56,0.1-1.17,0.22-1.82,0.36c-0.09-0.21-0.22-0.39-0.4-0.54c-0.39-0.34-0.93-0.44-1.42-0.29
					c-7.34,2.31-13.12,4.86-16.72,7.37c-1.37,0.96-3.52,2.56-5.98,4.76c-2.07,1.86-4.03,3.85-5.84,5.95
					c-0.05,0.04-0.08,0.09-0.11,0.13c-2.22,2.44-4,4.82-5.42,6.95c-1.22-0.27-3.24-0.9-4.46-2.61
					C249.77,466.19,255.73,456.38,259.37,451.86z M294.25,447.75c0.35-1.51,0.54-3.7-0.49-5.61c-1.83-3.38-6.43-3.97-9.41-3.97
					c-1.56,0-2.68,0.17-2.71,0.17c-3.07,0.47-5.32,1.95-10.13,5.26c-5,3.45-8.02,5.53-10.97,9.2c-3.03,3.76-6.82,10.21-6.82,14.6
					c0,1.1,0.24,2.08,0.79,2.85c0.56,0.77,1.43,1.36,2.6,1.75c2.89-4.18,6.28-7.95,10.07-11.21
					C274.79,454.26,284.13,449.76,294.25,447.75z"/>
				<path class="st9" d="M293.76,442.14c1.03,1.91,0.84,4.1,0.49,5.61c-10.12,2.01-19.46,6.51-27.07,13.04
					c-3.79,3.26-7.18,7.03-10.07,11.21c-1.17-0.39-2.04-0.98-2.6-1.75c-0.55-0.77-0.79-1.75-0.79-2.85c0-4.39,3.79-10.84,6.82-14.6
					c2.95-3.67,5.97-5.75,10.97-9.2c4.81-3.31,7.06-4.79,10.13-5.26c0.03,0,1.15-0.17,2.71-0.17
					C287.33,438.17,291.93,438.76,293.76,442.14z"/>
				<path d="M293.64,449.4c0.11,0.25,0.15,0.53,0.11,0.81c-0.03,0.22-0.06,0.47-0.1,0.73c-0.51,0.11-1.03,0.23-1.54,0.36
					c0.05-0.49,0.11-0.93,0.16-1.3l-0.06-0.27C292.71,449.61,293.18,449.5,293.64,449.4z"/>
				<path d="M293.24,448.86c0.18,0.15,0.31,0.33,0.4,0.54c-0.46,0.1-0.93,0.21-1.43,0.33c-6.26,1.51-15.4,4.77-24.05,12.2
					c-1.82,1.56-3.44,3.15-4.88,4.72c1.81-2.1,3.77-4.09,5.84-5.95c2.46-2.2,4.61-3.8,5.98-4.76c3.6-2.51,9.38-5.06,16.72-7.37
					C292.31,448.42,292.85,448.52,293.24,448.86z"/>
				<path d="M292.21,449.73l0.06,0.27c-7.38,2.33-12.93,4.82-16.32,7.18c-0.9,0.62-3.13,2.22-5.83,4.64
					c-2.42,2.17-4.47,4.33-6.18,6.35c-1.79,2-3.44,4.13-4.94,6.39c-0.15,0.23-0.36,0.41-0.6,0.52c-0.04-0.07-0.09-0.15-0.14-0.22
					c-0.33-0.5-0.33-1.16,0.01-1.66c1.5-2.24,3.13-4.38,4.9-6.42c0.03-0.04,0.06-0.09,0.11-0.13c1.44-1.57,3.06-3.16,4.88-4.72
					C276.81,454.5,285.95,451.24,292.21,449.73z"/>
				<path d="M292.27,450c-0.05,0.37-0.11,0.81-0.16,1.3c-0.56,0.14-1.13,0.29-1.69,0.45c-7.91,2.22-15.19,6.08-21.28,11.32
					c-1.84,1.58-3.57,3.28-5.2,5.1c1.71-2.02,3.76-4.18,6.18-6.35c2.7-2.42,4.93-4.02,5.83-4.64
					C279.34,454.82,284.89,452.33,292.27,450z"/>
				<path d="M281.29,533.59c-0.84-0.04-1.68-0.09-2.53-0.18c-0.48-0.04-0.89-0.31-1.13-0.7c-0.17-0.27-0.25-0.6-0.21-0.94
					c0.06-0.72,0.63-1.27,1.31-1.34C279.5,531.46,280.35,532.53,281.29,533.59z"/>
				<path d="M277.63,532.71l-0.5,0.38c-3.97-5.05-6.05-9.55-6.1-9.67c-0.19-0.42-0.17-0.87,0.02-1.26c1.02,0.63,2.17,1.1,3.4,1.41
					c0.77,1.5,2.21,4.06,4.28,6.86c-0.68,0.07-1.25,0.62-1.31,1.34C277.38,532.11,277.46,532.44,277.63,532.71z"/>
				<path d="M274.45,523.57c-1.23-0.31-2.38-0.78-3.4-1.41c0.15-0.31,0.4-0.57,0.74-0.72c0.29-0.13,0.6-0.16,0.89-0.1
					c0.21,0.11,0.43,0.2,0.65,0.29c0.18,0.14,0.34,0.33,0.44,0.56C273.83,522.33,274.06,522.82,274.45,523.57z"/>
				<path d="M273.33,521.63c-0.22-0.09-0.44-0.18-0.65-0.29C272.92,521.38,273.14,521.48,273.33,521.63z"/>
				<path d="M272.68,521.34c-0.29-0.06-0.6-0.03-0.89,0.1c-0.34,0.15-0.59,0.41-0.74,0.72c-1.13-0.71-2.11-1.62-2.88-2.8
					c-2.33-3.57-2.15-7.43-1.93-12.31c0.21-4.79,0.48-10.75-1.68-18.5c-1.31-4.7-3.38-9.23-6.16-13.47c0.24-0.11,0.45-0.29,0.6-0.52
					c1.5-2.26,3.15-4.39,4.94-6.39c-1.85,2.17-3.31,4.18-4.43,5.86c2.04,3.08,4.75,7.85,6.5,14.12c4.33,15.55-0.83,23.88,3.42,30.39
					C270.24,519.78,271.35,520.7,272.68,521.34z"/>
				<path d="M249.73,487.69c6.18,10.28,5.57,20.49,5.17,27.26c-0.31,5.18-0.55,9.28-1.61,12.84c-0.25-0.5-0.77-0.84-1.38-0.81
					c-0.61,0.02-1.12,0.39-1.34,0.91l-0.46-0.01c1.22-3.4,1.46-7.49,1.8-13.11c0.4-6.78,0.95-16.05-4.75-25.53
					c-5.44-9.06-13.77-13.46-18.91-15.43c0.59,0.19,1.27,0,1.67-0.52c0.5-0.65,0.38-1.6-0.28-2.1c-0.05-0.04-0.11-0.08-0.16-0.11
					C235.04,473.22,243.9,477.97,249.73,487.69z"/>
				<path d="M253.45,528.43l0.26,8.47c0,2.57-1.26,4.89-3.37,6.26c-5.96,3.86-12.41,6.49-19.2,7.82c-3.54,0.69-6.95,0.99-10.2,0.99
					c-15.21,0-26.98-6.53-31.9-9.78c-23.78-15.76-26.22-43.97-26.47-49.46c-0.02-0.43-0.09-0.84-0.22-1.22
					c-1.77-5.23-7.14-23.02-1.8-32.52c1.69-3,4.27-4.91,7.68-5.67c0.01,0,0.02,0,0.03-0.01c-0.52,1.29-0.95,2.5-1.31,3.6
					c-1.62,0.72-2.86,1.9-3.79,3.55c-4.85,8.63,0.84,26.57,2.03,30.08c0.06,0.16,0.1,0.33,0.15,0.49c0.13,0.51,0.21,1.03,0.23,1.56
					c0.24,5.24,2.55,32.14,25.13,47.1c5.66,3.75,20.88,12.07,39.86,8.35c6.41-1.26,12.52-3.75,18.15-7.4c1.25-0.81,2-2.19,2-3.7
					l-0.11-3.61c1.26-1.74,2.1-3.56,2.69-5.54C253.39,527.98,253.44,528.2,253.45,528.43z"/>
				<path d="M251.91,526.98c0.61-0.03,1.13,0.31,1.38,0.81c-0.59,1.98-1.43,3.8-2.69,5.54l-0.14-4.81
					c-0.01-0.22,0.03-0.43,0.11-0.63C250.79,527.37,251.3,527,251.91,526.98z"/>
				<path class="st7" d="M247.16,489.24c5.7,9.48,5.15,18.75,4.75,25.53c-0.34,5.62-0.58,9.71-1.8,13.11
					c-0.56,1.54-1.32,2.94-2.38,4.28c-8.58,10.82-29.95,7.74-42.22,3.02c-8.32-3.2-13.84-7.95-15.83-9.84
					c-0.01-0.01-0.48-0.46-1.17-1.17c-0.01-0.01-1.3-1.35-2.5-2.78c-24.96-29.74-17.46-59.27-17.38-59.56
					c0.37-1.37,0.97-3.64,1.99-6.29c2.2-5.78,6.31-13.44,14.03-18.02c0.02-0.01,0.04-0.02,0.06-0.04c0.02-0.01,0.03-0.02,0.05-0.02
					c1.73-1.03,14.65-8.75,20.02-14.84l0.36,0.67c6.9,12.58,10.7,19.5,18.8,23.75c0.35,0.18,0.7,0.36,1.07,0.53
					c-2.1,3.53-6.24,12.17-2.42,20.21c0.15,0.32,0.32,0.64,0.49,0.95c-11.77-2.05-31.12,1.98-32.11,2.19
					c-0.81,0.17-1.33,0.96-1.16,1.77c0.15,0.71,0.77,1.19,1.47,1.19c0.1,0,0.21-0.01,0.31-0.03c7.35-1.55,26.68-4.51,34.51-1.23
					c0.17,0.16,0.34,0.32,0.52,0.48c0.15,0.13,0.32,0.23,0.5,0.3c0.29,0.1,0.59,0.21,0.91,0.32c0.07,0.03,0.15,0.06,0.22,0.09
					C233.39,475.78,241.72,480.18,247.16,489.24z"/>
				<path class="st8" d="M250.6,533.33l0.11,3.61c0,1.51-0.75,2.89-2,3.7c-5.63,3.65-11.74,6.14-18.15,7.4
					c-18.98,3.72-34.2-4.6-39.86-8.35c-22.58-14.96-24.89-41.86-25.13-47.1c-0.02-0.53-0.1-1.05-0.23-1.56l1.38-0.34
					c2.47,9.86,7.44,21.24,16.99,32.63c1.27,1.51,2.59,2.88,2.65,2.94c0.74,0.77,1.25,1.25,1.25,1.25c2.12,2.02,8,7.08,16.83,10.47
					c5.76,2.22,14.86,4.54,23.76,4.54c8.51,0,16.83-2.12,21.88-8.49C250.26,533.8,250.44,533.56,250.6,533.33z"/>
				<path d="M250.46,528.52l0.14,4.81c-0.16,0.23-0.34,0.47-0.52,0.7c-5.05,6.37-13.37,8.49-21.88,8.49c-8.9,0-18-2.32-23.76-4.54
					c-8.83-3.39-14.71-8.45-16.83-10.47c0,0-0.51-0.48-1.25-1.25c-0.06-0.06-1.38-1.43-2.65-2.94
					c-9.55-11.39-14.52-22.77-16.99-32.63c-4.24-16.98-1.04-29.44-0.99-29.64c0.27-0.99,0.65-2.43,1.22-4.14
					c0.59-0.29,1.24-0.5,1.94-0.66c0.52-0.11,0.92-0.49,1.09-0.96l0.64,0.25c-1.02,2.65-1.62,4.92-1.99,6.29
					c-0.08,0.29-7.58,29.82,17.38,59.56c1.2,1.43,2.49,2.77,2.5,2.78c0.69,0.71,1.16,1.16,1.17,1.17c1.99,1.89,7.51,6.64,15.83,9.84
					c12.27,4.72,33.64,7.8,42.22-3.02c1.06-1.34,1.82-2.74,2.38-4.28l0.46,0.01C250.49,528.09,250.45,528.3,250.46,528.52z"/>
				<path d="M229.64,471.19c0.66,0.5,0.78,1.45,0.28,2.1c-0.4,0.52-1.08,0.71-1.67,0.52c-0.07-0.03-0.15-0.06-0.22-0.09
					c-0.07-0.04-0.14-0.09-0.21-0.14c-0.48-0.37-1.06-0.69-1.72-0.96c-1.22-1.17-2.23-2.48-3.02-3.89c1.8,0.31,3.42,0.76,4.77,1.4
					c0.18,0.18,0.36,0.36,0.55,0.54c0.34,0.12,0.69,0.25,1.06,0.4c0.01-0.01,0.01,0,0.02,0.01
					C229.53,471.11,229.59,471.15,229.64,471.19z"/>
				<path d="M229.46,471.07c-0.37-0.15-0.72-0.28-1.06-0.4c-0.19-0.18-0.37-0.36-0.55-0.54
					C228.44,470.4,228.98,470.71,229.46,471.07z"/>
				<path d="M228.65,446.48c0.13,0.44,0.05,0.91-0.21,1.29c-0.74,1.04-7.08,10.43-3.14,18.73c0.63,1.31,1.48,2.53,2.55,3.63
					c-1.35-0.64-2.97-1.09-4.77-1.4c-0.17-0.31-0.34-0.63-0.49-0.95c-3.82-8.04,0.32-16.68,2.42-20.21
					c-0.37-0.17-0.72-0.35-1.07-0.53c-8.1-4.25-11.9-11.17-18.8-23.75l-0.36-0.67c-5.37,6.09-18.29,13.81-20.02,14.84
					c-0.02,0-0.03,0.01-0.05,0.02c-0.02,0.02-0.04,0.03-0.06,0.04c-7.72,4.58-11.83,12.24-14.03,18.02l-0.64-0.25
					c0.09-0.25,0.11-0.54,0.04-0.83c-0.18-0.8-0.95-1.31-1.76-1.15c2.45-5.99,6.83-13.54,14.73-18.29c0.12-0.1,0.26-0.18,0.4-0.24
					c7.49-4.44,19.6-12.75,20.69-16.46c0.02-0.08,0.04-0.16,0.07-0.24c0.01-0.05,0.02-0.09,0.04-0.14h0.01
					c0.15-0.44,0.42-0.88,1.07-1.04c0.52-0.12,1.07,0.04,1.45,0.43c0.37,0.38,0.5,0.94,0.35,1.46c-0.22,0.74-0.14,1.52,0.23,2.2
					l0.47,0.85c6.84,12.46,10.27,18.72,17.56,22.54c0.78,0.41,1.61,0.79,2.45,1.13C228.2,445.68,228.52,446.04,228.65,446.48z"/>
				<path d="M227.82,473.58c0.07,0.05,0.14,0.1,0.21,0.14c-0.32-0.11-0.62-0.22-0.91-0.32c-0.18-0.07-0.35-0.17-0.5-0.3
					c-0.18-0.16-0.35-0.32-0.52-0.48C226.76,472.89,227.34,473.21,227.82,473.58z"/>
				<path d="M223.08,468.73c0.79,1.41,1.8,2.72,3.02,3.89c-7.83-3.28-27.16-0.32-34.51,1.23c-0.1,0.02-0.21,0.03-0.31,0.03
					c-0.7,0-1.32-0.48-1.47-1.19c-0.17-0.81,0.35-1.6,1.16-1.77C191.96,470.71,211.31,466.68,223.08,468.73z"/>
				<path d="M170.02,454.46c0.07,0.29,0.05,0.58-0.04,0.83c-0.17,0.47-0.57,0.85-1.09,0.96c-0.7,0.16-1.35,0.37-1.94,0.66
					c0.36-1.1,0.79-2.31,1.31-3.6C169.07,453.15,169.84,453.66,170.02,454.46z"/>
				<path class="st8" d="M166.72,490.69l-1.38,0.34c-0.05-0.16-0.09-0.33-0.15-0.49c-1.19-3.51-6.88-21.45-2.03-30.08
					c0.93-1.65,2.17-2.83,3.79-3.55c-0.57,1.71-0.95,3.15-1.22,4.14C165.68,461.25,162.48,473.71,166.72,490.69z"/>
			</g>
			<g>
			</g>
		</g>
	</g>
	<path class="st1" d="M88.99,380.86c0,0-1.35,5.62-2.38,6.55"/>
	<path class="st3" d="M82.95,383.41c0,0,16.51,32.09,7.83,37.87c-4.1,2.73-9.4,4.23-14.17,2.43c-7.92-2.99-10.24-15.04-11.53-21.36
		c-0.33-1.6-0.52-2.97-0.64-3.96"/>
	<path class="st1" d="M58.27,397.28c0,0,4.94,2.04,8.34,0c3.4-2.04,3.4-2.04,3.4-2.04"/>
	<path class="st3" d="M38.78,401.07c0.24,9.6,3.43,17.25,7.63,22.11c2.05,2.38,5.79,5.95,11.22,5.92c4.24-0.02,9.14-2.32,10.91-6.27
		c1.18-2.64,0.31-4.56-1.93-14.33c-1-4.35-1.73-7.89-2.17-10.11"/>
	<path class="st1" d="M34.14,399.88c0,0,5.32,1.32,6.94,0.34s1.62-0.98,1.62-0.98"/>
	<path class="st1" d="M291.12,234.74c0,0,7.32,7.65,13.62,3.65c6.3-4,3.83-2.47,3.83-2.47"/>
	<path class="st1" d="M318.78,230.3c0,0,21.28-7.74,22.98,14.21c1.7,21.96-5.96,37.62-20.34,34.64"/>
	<path class="st1" d="M291.54,279.52c0,0,2.38-4.53,9.7-3.68c7.32,0.85,7.32,0.85,7.32,0.85"/>
	<ellipse cx="327.54" cy="251.67" rx="5.45" ry="13.02"/>
	<path class="st1" d="M195.37,129.86c0,0,3.57-23.98,26.89-14.1"/>
	<path class="st1" d="M287.12,126.13c0,0,4.26-23.66,26.89-12.77"/>
	<path class="st2" d="M433.37,37.22c0,0,2,23.86-19.28,22.84c0,0,20.62-2.64,20.1,23.4c0,0-0.78-26.55,18.46-24.51
		C451.26,60.64,433.02,54.63,433.37,37.22"/>
	<path class="st2" d="M231.78,402.67c-10.35,5.76-16.05,14.6-14.55,21.03c0.89,3.84,3.68,6.77,3.68,6.77
		c1.08,1.22,3.76,3.9,7.71,4.3c3.55,0.36,6.33-1.29,9.59-3.23c0,0,1.69-1,8.34-6.51l0,0C241.62,417.57,236.7,410.12,231.78,402.67z"
		/>
	<path class="st1" d="M227.34,445.96"/>
	<path class="st2" d="M226.34,393.79"/>
	<path class="st2" d="M226.34,393.77c0,0,30.92,49.91,32.38,56.61c0.04,0.19,0.06,0.35,0.05,0.47c-0.3,4.24,10.85-12.42,22.37-13.94
		c0,0-24.95-53.97-33.35-57.3c0,0-18.1,3.34-20.45,14.16"/>
	<path class="st10" d="M34.53,352.47"/>
	<path class="st10" d="M11.28,306.67"/>
	<path class="st10" d="M143.22,372.33"/>
	<path class="st10" d="M126.68,314.53"/>
</g>
<g id="Layer_3">
	<g>
		<path class="st11" d="M423.59,317.76c0,0,0.36-10.8,6.63-19.21c0.12-0.16,0.25-0.33,0.37-0.49c2.74-3.5,6.55-6.53,11.84-8.11
			c18.1-5.39,13.65-29.93,13.25-32.09c-0.4-2.16-1.75-22.79,11.87-18.34s16.83,16.18,15.02,26.56
			c-1.81,10.38-17.72,31.69-4.91,36.67c12.81,4.99,31.69,68.36-21.03,61.21c-4.66-0.84-11.69-2.68-19.23-7.1
			c-8.67-5.07-14.16-11.29-17.17-15.29c0,0-21.34-22.72,7.15-42.34c0.92-0.24,1.84-0.47,2.76-0.71"/>
		<path class="st1" d="M427.37,299.27"/>
		<path class="st11" d="M427.37,299.27c-1.22-2.15-5.22-8.67-10-8.29c0,0-1.09,0.09-2.17,0.67c-7.56,4.06-19.76,45.54-7.82,52.07
			c2.46,1.34,6.36,1.44,12.84-2.11C420.23,341.6,399.19,320.57,427.37,299.27z"/>
		<path class="st2" d="M366.32,315.84c11.56,3.15,24.09,6.61,35.64,9.75c0.23-4.7,1.15-8.28,1.99-10.73
			c0.79-2.31,1.67-4.14,3.27-8.72c0.71-2.05,1.26-3.75,1.61-4.9c-9.07-2.99-18.13-5.99-27.2-8.98c-2.17,4.57-5.61,9.56-9,14.76
			C370.53,310.24,368.4,313.18,366.32,315.84z"/>
		<path class="st1" d="M405.18,310.14"/>
		<path class="st1" d="M407.1,300.74"/>
		<path class="st1" d="M433.7,325.87c0,0,24.89-2.11,30.83-18.45"/>
		<ellipse class="st11" cx="477.86" cy="361.2" rx="17.81" ry="9.32"/>
		
			<ellipse transform="matrix(0.9991 -0.0414 0.0414 0.9991 -13.6035 20.2492)" class="st11" cx="482.57" cy="338.89" rx="20.45" ry="11.66"/>
		<ellipse class="st11" cx="488.46" cy="315.4" rx="20.32" ry="11.66"/>
		<path class="st1" d="M442.44,324.69c4.06,5.21,6.45,9.94,6.73,12.71c0.12,1.23,0.14,2.61,0.14,2.61c0.03,2.65-0.29,4.93-0.33,4.93
			"/>
		<path class="st1" d="M416.46,337.84"/>
		<path class="st1" d="M420.23,303.75"/>
	</g>
</g>
<g id="Layer_2">
	<g>
		<g id="XMLID_00000038414048644224362290000011252135122178085014_">
			<g>
				<path class="st12" d="M424.43,123.35c0.54,0.44,0.88,1.06,0.94,1.75c0.14,1.55,0.16,2.31,0.16,2.67
					c-0.81,3.48-23.45,43.14-58.86,101.54c-0.21,0.37-0.58,0.61-1,0.65c-0.43,0.07-0.84-0.09-1.15-0.42l-2.37-2.43l-57.8-59.07
					c-2.08-2.19-3.99-3.19-5.85-3.03c-0.03,0-0.06,0.01-0.09,0.01c-1.62,0.16-3.08,1.19-4.36,3.06c-0.58,0.84-1.14,1.67-1.74,2.52
					c-6.61,9.62-13.67,19.34-20.51,28.77c-7.85,10.82-15.97,22.02-23.45,33.06c-0.67,0.99-1.53,1.55-2.41,1.6
					c-0.92,0.05-1.87-0.45-2.66-1.42c-0.11-0.13-0.21-0.25-0.32-0.38c-11.7-14.03-23.86-28.24-35.63-42
					c-11.86-13.87-24.11-28.21-35.91-42.34c-0.1-0.12-0.18-0.66,0.23-1.57c0.15-0.34,0.33-0.65,0.52-0.92
					c0.57-0.83,1.25-1.34,1.64-1.38c0.01,0,0.01,0,0.01,0l248.7-21.28C423.22,122.7,423.9,122.91,424.43,123.35z M409.1,140.88
					c1.4-2.45,1.32-5.3-0.23-7.64c-1.54-2.34-4.16-3.59-7.01-3.35l-214.14,18.3c-0.81,0.06-1.37,0.74-1.3,1.51
					c0.01,0.11,0.03,0.21,0.06,0.31c-0.04,0.35,0.05,0.71,0.28,1.01l50.26,64.14c1.78,2.28,4.49,3.56,7.43,3.53s5.63-1.37,7.38-3.69
					l19.32-25.51l24.62-32.51c0.8-1.06,2.01-1.73,3.34-1.86c0.02,0,0.04,0,0.06-0.01c1.35-0.12,2.69,0.34,3.67,1.25l55.41,51.39
					c1.87,1.73,4.36,2.55,6.9,2.3c0.16-0.02,0.31-0.03,0.46-0.06c2.71-0.41,5.03-1.99,6.36-4.32l23.38-40.79L409.1,140.88z"/>
				<path d="M406.61,139.52c0.88-1.53,0.83-3.3-0.14-4.77c-0.96-1.46-2.59-2.24-4.37-2.09l-211.92,18.11l35.21,44.95l13.9,17.74
					c1.24,1.58,3.11,2.46,5.14,2.45c2.04-0.04,3.9-0.96,5.11-2.56l18.26-24.12c0.12-0.04,0.22-0.1,0.3-0.16
					c0.07-0.05,0.2-0.15,0.91-1.1l2.13,1.53l-19.32,25.51c-1.75,2.31-4.44,3.66-7.38,3.69s-5.64-1.25-7.43-3.53l-50.26-64.14
					c-0.23-0.29-0.32-0.66-0.28-1.01c-0.03-0.1-0.05-0.2-0.06-0.31c-0.07-0.77,0.5-1.45,1.3-1.51l214.14-18.3
					c2.85-0.24,5.47,1.01,7.01,3.35c1.54,2.35,1.63,5.2,0.23,7.64l-13.76,24.01l-1.83-0.99l7.55-13.57
					c0.21-0.38,0.23-0.83,0.06-1.21L406.61,139.52z"/>
				<path d="M391.79,165.38l9.33-16.27c0.17,0.38,0.15,0.83-0.06,1.21l-7.55,13.57c-0.08,0.16-0.2,0.29-0.33,0.41
					C393.09,164.37,392.61,164.76,391.79,165.38z"/>
				<path class="st13" d="M397.55,150.82l-6.4,11.51c-1.4,1.11-9.7,7.5-18.75,10.82c-6.43,2.37-12.36-0.32-17.58-2.69
					c-2.57-1.15-5-2.26-7.3-2.68c-0.85-0.16-1.7-0.18-2.54-0.09c-4.94,0.49-9.47,4.66-11.5,6.81l-6.96-7.66
					c2.69-2.04,9.36-6.94,13.58-8.62c4.79-1.9,10.19-1.32,19.92,2.1c8.87,3.13,13,0.76,17.78-2c0.57-0.33,1.16-0.67,1.76-1
					c2.37-1.32,3.71-2.44,4.78-3.34c1.56-1.32,2.5-2.12,5.85-2.68C393.41,150.76,395.94,150.73,397.55,150.82z"/>
				<path d="M361.82,227.43c0.49,0.6,0.4,1.47-0.23,1.96l-0.66,0.52l-1.97-2.02l0.86-0.67
					C360.43,226.74,361.33,226.83,361.82,227.43z"/>
				<path class="st14" d="M302.28,169.97l56.68,57.93l-5.14,4.04c-0.56,0.16-1.84-0.46-2.91-1.91c-0.03-0.04-0.08-0.09-0.11-0.13
					l-55.47-58.66c0.37-0.53,0.73-1.07,1.1-1.6c0.79-1.15,1.53-1.74,2.29-1.83C299.63,167.72,300.85,168.47,302.28,169.97z"/>
				<path d="M360.93,229.91l-5.47,4.31c-0.08,0.06-0.15,0.11-0.24,0.15c-0.37,0.2-0.77,0.3-1.19,0.34
					c-1.76,0.18-3.82-0.93-5.37-2.99l-54.96-58.12c0.55-0.79,1.09-1.58,1.63-2.38l55.47,58.66c0.03,0.04,0.08,0.09,0.11,0.13
					c1.07,1.45,2.36,2.07,2.91,1.91l5.14-4.04L360.93,229.91z"/>
				<path d="M377.81,158.32c-4.79,2.76-8.91,5.13-17.78,2c-9.73-3.43-15.13-4-19.92-2.1c-4.23,1.68-10.89,6.58-13.58,8.62l6.96,7.66
					c2.03-2.14,6.56-6.31,11.5-6.81c0.84-0.08,1.69-0.07,2.54,0.09c2.3,0.42,4.73,1.53,7.3,2.68c5.22,2.37,11.15,5.06,17.58,2.69
					c9.05-3.32,17.35-9.71,18.75-10.82l6.4-11.51c-1.6-0.09-4.14-0.06-7.34,0.48c-3.35,0.56-4.3,1.35-5.85,2.68
					c-1.07,0.9-2.41,2.02-4.78,3.34C378.97,157.65,378.38,157.99,377.81,158.32z M391.79,165.38c-2.98,2.24-10.29,7.4-18.39,10.38
					c-1.49,0.55-2.95,0.87-4.37,1.01c-5.81,0.58-11.05-1.79-15.42-3.78c-2.4-1.1-4.67-2.12-6.63-2.48
					c-5.78-1.08-12.31,6.87-12.38,6.94c-0.26,0.33-0.66,0.51-1.07,0.54c-0.42,0-0.83-0.16-1.11-0.47l-9.03-9.95
					c-0.26-0.28-0.39-0.66-0.35-1.04c0.03-0.38,0.22-0.73,0.52-0.97c0.4-0.31,9.72-7.67,15.48-9.95c6.32-2.5,13.08-1.06,21.95,2.07
					c7.61,2.69,10.7,0.9,15.38-1.79c0.58-0.33,1.17-0.68,1.8-1.02c2.13-1.17,3.29-2.16,4.32-3.03c1.74-1.46,3.1-2.62,7.23-3.32
					c6.3-1.07,10.22-0.29,10.38-0.25c0.44,0.09,0.8,0.38,0.99,0.78c0,0.01,0.01,0.03,0.01,0.04L391.79,165.38z"/>
				<path d="M333.53,178c0.42-0.02,0.81-0.21,1.07-0.54c0.07-0.07,6.6-8.02,12.38-6.94c1.96,0.36,4.23,1.38,6.63,2.48
					c4.37,1.98,9.61,4.36,15.42,3.78c1.42-0.14,2.88-0.46,4.37-1.01c8.1-2.97,15.41-8.14,18.39-10.38l-22.31,38.94
					c-0.9,1.57-2.47,2.64-4.29,2.91c-1.81,0.28-3.64-0.27-4.98-1.51l-29.01-26.92l1.24-1.28C332.7,177.84,333.11,178.01,333.53,178z
					"/>
				<path d="M292.56,170.36c0.58-0.52,1.48-0.49,2.01,0.07l0.76,0.8c-0.54,0.79-1.08,1.58-1.63,2.38l-1.22-1.28
					c-0.46-0.48-0.49-1.19-0.14-1.71C292.41,170.52,292.47,170.43,292.56,170.36z"/>
				<path d="M304.35,168.05l57.8,59.07l-0.33,0.31c-0.49-0.6-1.39-0.69-2-0.21l-0.86,0.67l-56.68-57.93
					c-1.43-1.5-2.65-2.25-3.56-2.17c-0.77,0.09-1.5,0.67-2.29,1.83c-0.37,0.53-0.73,1.07-1.1,1.6l-0.76-0.8
					c-0.53-0.56-1.43-0.59-2.01-0.07c-0.09,0.07-0.16,0.16-0.22,0.26l-0.01-0.01c0.59-0.84,1.16-1.68,1.74-2.52
					c1.27-1.87,2.74-2.9,4.36-3.06c0.03,0,0.06-0.01,0.09-0.01C300.36,164.86,302.27,165.86,304.35,168.05z"/>
				<path class="st13" d="M260.44,174.18c6.18,2.23,11.63,0.86,15.66-1.2c-4.19,6.05-8.53,12.25-9.67,13.74
					c-1.9,0.05-9.73-1.1-13.51-4.04c-5.46-4.24-13.07-0.03-14.63,1.83c-0.75,0.9-6.37,4.91-10.7,7.88l-7.65-9.85
					c1-0.27,2.45-0.67,3.99-1.16c1.52-0.48,2.72-1.55,4.25-2.9c1.73-1.54,4.1-3.63,8.1-5.93
					C243.2,168.56,248.4,169.82,260.44,174.18z"/>
				<path d="M360.2,205.73c1.35,1.24,3.17,1.79,4.98,1.51c1.83-0.28,3.39-1.34,4.29-2.91l22.31-38.94c0.82-0.62,1.3-1.02,1.39-1.08
					c0.13-0.12,0.25-0.25,0.33-0.41l1.83,0.99l-23.38,40.79c-1.33,2.34-3.65,3.91-6.36,4.32c-0.15,0.02-0.3,0.04-0.46,0.06
					c-2.54,0.25-5.03-0.57-6.9-2.3l-55.41-51.39c-0.98-0.91-2.31-1.37-3.67-1.25c-0.02,0-0.04,0-0.06,0.01
					c-1.32,0.13-2.54,0.8-3.34,1.86l-24.62,32.51l-2.13-1.53c0.67-0.91,1.88-2.58,4.08-5.72l0.04-0.06l20.34-26.85
					c1.27-1.69,3.22-2.77,5.35-2.98c0.04,0,0.07-0.01,0.09-0.01c2.16-0.19,4.3,0.54,5.87,1.99l26.39,24.49L360.2,205.73z"/>
				<path d="M267.81,189.22l5.29-6.98c-2.2,3.14-3.41,4.81-4.08,5.72c-0.72,0.95-0.84,1.05-0.91,1.1
					C268.02,189.12,267.93,189.18,267.81,189.22z"/>
				<path d="M261.44,171.56c11.04,3.99,19.27-5.36,19.62-5.76c0.49-0.57,1.34-0.67,1.95-0.22c0.61,0.44,0.75,1.28,0.32,1.89
					c-4.72,6.86-7.96,11.52-10.2,14.7l-0.04,0.06l-5.29,6.98c-2.37,0.97-12.39-1.03-16.66-4.35c-3.83-2.97-9.71,0.29-10.65,1.41
					c-1.37,1.63-10.57,7.94-12.41,9.18c-0.21,0.14-0.44,0.22-0.67,0.24c-0.47,0.05-0.96-0.15-1.28-0.55l-10.07-12.98
					c-0.47-0.61-0.35-1.49,0.28-1.95c0.5-0.38,1.17-0.38,1.66-0.05c0.39-0.1,2.66-0.66,5.06-1.43c0.93-0.3,1.88-1.14,3.21-2.31
					c1.82-1.62,4.31-3.82,8.56-6.28C242.79,165.55,248.75,166.98,261.44,171.56z M266.43,186.72c1.14-1.49,5.48-7.69,9.67-13.74
					c-4.03,2.05-9.48,3.43-15.66,1.2c-12.04-4.36-17.24-5.62-24.16-1.62c-4,2.3-6.37,4.4-8.1,5.93c-1.53,1.35-2.73,2.42-4.25,2.9
					c-1.54,0.49-2.99,0.9-3.99,1.16l7.65,9.85c4.34-2.97,9.95-6.99,10.7-7.88c1.56-1.86,9.17-6.07,14.63-1.83
					C256.7,185.62,264.53,186.77,266.43,186.72z"/>
				<path d="M274.15,200.98c-7.84,10.8-15.95,21.99-23.4,32.98c-1.18,1.75-2.85,2.78-4.65,2.86c-1.6,0.08-3.15-0.55-4.44-1.82
					l1.07-0.81c0.62-0.47,0.73-1.35,0.25-1.96c0.12,0.13,0.22,0.25,0.32,0.38c0.79,0.97,1.74,1.46,2.66,1.42
					c0.88-0.05,1.74-0.61,2.41-1.6c7.48-11.05,15.6-22.24,23.45-33.06c6.84-9.43,13.9-19.16,20.51-28.77l0.01,0.01
					c-0.35,0.52-0.32,1.24,0.14,1.71l1.22,1.28C287.34,182.78,280.65,192.02,274.15,200.98z"/>
				<path d="M241.08,234.4c-0.42-0.51-0.85-1.01-1.27-1.52l1.15-0.87c0.62-0.47,1.52-0.37,2,0.24c0.48,0.61,0.37,1.49-0.25,1.96
					l-1.07,0.81C241.46,234.83,241.27,234.62,241.08,234.4z"/>
				<path class="st14" d="M239.81,232.88l-4.86,3.7c-0.34,0.26-0.81,0.21-1.08-0.11l-75.11-88.24c-0.27-0.32-0.18-0.65-0.13-0.78
					c0.05-0.13,0.22-0.43,0.65-0.48l9.46-0.94c-0.21,0.68-0.28,1.34-0.22,1.93c0.07,0.66,0.3,1.25,0.7,1.72
					c11.8,14.14,24.07,28.48,35.93,42.36C216.59,205.42,228.4,219.24,239.81,232.88z"/>
				<path d="M239.29,213.45l-13.9-17.74l0.75-0.56c0.32,0.4,0.8,0.59,1.28,0.55c0.24-0.02,0.47-0.1,0.67-0.24
					c1.83-1.25,11.04-7.55,12.41-9.18c0.94-1.12,6.82-4.38,10.65-1.41c4.27,3.32,14.29,5.33,16.66,4.35l-18.26,24.12
					c-1.22,1.61-3.07,2.53-5.11,2.56C242.4,215.92,240.53,215.03,239.29,213.45z"/>
				<path d="M406.61,139.52l-5.49,9.59c0-0.01-0.01-0.03-0.01-0.04c-0.19-0.4-0.56-0.69-0.99-0.78c-0.17-0.04-4.08-0.82-10.38,0.25
					c-4.13,0.7-5.5,1.86-7.23,3.32c-1.03,0.87-2.19,1.85-4.32,3.03c-0.62,0.34-1.22,0.69-1.8,1.02c-4.68,2.69-7.77,4.47-15.38,1.79
					c-8.87-3.13-15.63-4.57-21.95-2.07c-5.76,2.28-15.08,9.64-15.48,9.95c-0.3,0.24-0.49,0.59-0.52,0.97
					c-0.04,0.38,0.09,0.76,0.35,1.04l9.03,9.95l-1.24,1.28l-26.39-24.49c-1.57-1.45-3.71-2.18-5.87-1.99
					c-0.03,0-0.06,0.01-0.09,0.01c-2.13,0.21-4.07,1.29-5.35,2.98l-20.34,26.85c2.23-3.17,5.47-7.84,10.2-14.7
					c0.43-0.61,0.29-1.45-0.32-1.89c-0.61-0.44-1.46-0.35-1.95,0.22c-0.35,0.4-8.59,9.75-19.62,5.76
					c-12.69-4.59-18.65-6.01-26.61-1.42c-4.25,2.46-6.75,4.66-8.56,6.28c-1.33,1.17-2.28,2.01-3.21,2.31
					c-2.41,0.77-4.67,1.33-5.06,1.43c-0.49-0.32-1.16-0.32-1.66,0.05c-0.63,0.46-0.75,1.35-0.28,1.95l10.07,12.98l-0.75,0.56
					l-35.21-44.95l211.92-18.11c1.78-0.15,3.42,0.63,4.37,2.09C407.44,136.22,407.49,138,406.61,139.52z"/>
				<path d="M362.15,227.12l2.37,2.43c0.31,0.32,0.72,0.49,1.15,0.42c0.43-0.04,0.79-0.28,1-0.65
					c35.4-58.4,58.05-98.06,58.86-101.54c0-0.36-0.03-1.13-0.16-2.67c-0.06-0.69-0.4-1.31-0.94-1.75c-0.53-0.44-1.21-0.65-1.91-0.58
					l-248.7,21.28c0,0,0,0-0.01,0c-0.39,0.04-1.07,0.55-1.64,1.38l-1.46,0.01c0.23-0.28,0.36-0.64,0.32-1.02
					c-0.05-0.49-0.36-0.9-0.78-1.1c0.89-1.07,2.07-1.92,3.34-2.04l248.68-21.28c1.45-0.14,2.88,0.3,4,1.22
					c1.12,0.92,1.81,2.21,1.94,3.64c0.12,1.42,0.18,2.43,0.17,3.01c-0.04,3.59-30.73,55.83-59.23,102.84
					c-0.65,1.13-1.81,1.88-3.15,2.03c-0.02,0-0.05,0-0.08,0.01c-1.31,0.13-2.57-0.33-3.47-1.28l-1.52-1.55l0.66-0.52
					c0.62-0.48,0.71-1.36,0.23-1.96L362.15,227.12z"/>
				<path d="M207.34,190.25c11.76,13.76,23.92,27.97,35.63,42c-0.48-0.61-1.38-0.71-2-0.24l-1.15,0.87
					c-11.41-13.65-23.22-27.46-34.66-40.84c-11.86-13.88-24.13-28.22-35.93-42.36c-0.4-0.47-0.63-1.07-0.7-1.72
					c-0.06-0.59,0.01-1.24,0.22-1.93l1.01-0.1c0.4-0.04,0.73-0.23,0.96-0.51l1.46-0.01c-0.19,0.27-0.37,0.58-0.52,0.92
					c-0.41,0.91-0.32,1.45-0.23,1.57C183.23,162.04,195.48,176.38,207.34,190.25z"/>
				<path d="M170.26,143.3c0.42,0.2,0.73,0.61,0.78,1.1c0.04,0.38-0.09,0.75-0.32,1.02s-0.56,0.47-0.96,0.51l-1.01,0.1
					c0.08-0.26,0.18-0.52,0.29-0.79C169.31,144.59,169.73,143.92,170.26,143.3z"/>
				<path d="M159.29,146.97c-0.43,0.04-0.6,0.35-0.65,0.48c-0.05,0.13-0.14,0.46,0.13,0.78l75.11,88.24
					c0.27,0.32,0.74,0.36,1.08,0.11l4.86-3.7c0.42,0.51,0.85,1.01,1.27,1.52c0.18,0.22,0.38,0.43,0.57,0.62l-4.95,3.76
					c-0.57,0.43-1.22,0.68-1.87,0.75c-1.16,0.12-2.35-0.33-3.15-1.26l-75.11-88.23c-0.86-1.02-1.07-2.41-0.56-3.63
					c0.52-1.22,1.67-2.06,3.01-2.2l10.47-1.04c0.28-0.03,0.55,0.02,0.78,0.15c-0.52,0.61-0.94,1.29-1.22,1.94
					c-0.12,0.26-0.21,0.53-0.29,0.79L159.29,146.97z"/>
			</g>
			<g>
				<path class="st15" d="M273.1,182.23c-2.2,3.14-3.41,4.81-4.08,5.72c-0.72,0.95-0.84,1.05-0.91,1.1
					c-0.08,0.06-0.18,0.12-0.3,0.16c-2.37,0.97-12.39-1.03-16.66-4.35c-3.83-2.97-9.71,0.29-10.65,1.41
					c-1.37,1.63-10.57,7.94-12.41,9.18c-0.21,0.14-0.44,0.22-0.67,0.24c-0.47,0.05-0.96-0.15-1.28-0.55l-10.07-12.98
					c-0.47-0.61-0.35-1.49,0.28-1.95c0.5-0.38,1.17-0.38,1.66-0.05c0.39-0.1,2.66-0.66,5.06-1.43c0.93-0.3,1.88-1.14,3.21-2.31
					c1.82-1.62,4.31-3.82,8.56-6.28c7.96-4.59,13.91-3.17,26.61,1.42c11.04,3.99,19.27-5.36,19.62-5.76
					c0.49-0.57,1.34-0.67,1.95-0.22c0.61,0.44,0.75,1.28,0.32,1.89c-4.72,6.86-7.96,11.52-10.2,14.7"/>
				<path class="st15" d="M219.94,182.55l7.65,9.85c4.34-2.97,9.95-6.99,10.7-7.88c1.56-1.86,9.17-6.07,14.63-1.83
					c3.78,2.94,11.61,4.09,13.51,4.04c1.14-1.49,5.48-7.69,9.67-13.74c-4.03,2.05-9.48,3.43-15.66,1.2
					c-12.04-4.36-17.24-5.62-24.16-1.62c-4,2.3-6.37,4.4-8.1,5.93c-1.53,1.35-2.73,2.42-4.25,2.9
					C222.4,181.87,220.95,182.28,219.94,182.55z"/>
				<path class="st15" d="M391.79,165.38c-2.98,2.24-10.29,7.4-18.39,10.38c-1.49,0.55-2.95,0.87-4.37,1.01
					c-5.81,0.58-11.05-1.79-15.42-3.78c-2.4-1.1-4.67-2.12-6.63-2.48c-5.78-1.08-12.31,6.87-12.38,6.94
					c-0.26,0.33-0.66,0.51-1.07,0.54c-0.42,0-0.83-0.16-1.11-0.47l-9.03-9.95c-0.26-0.28-0.39-0.66-0.35-1.04
					c0.03-0.38,0.22-0.73,0.52-0.97c0.4-0.31,9.72-7.67,15.48-9.95c6.32-2.5,13.08-1.06,21.95,2.07c7.61,2.69,10.7,0.9,15.38-1.79
					c0.58-0.33,1.17-0.68,1.8-1.02c2.13-1.17,3.29-2.16,4.32-3.03c1.74-1.46,3.1-2.62,7.23-3.32c6.3-1.07,10.22-0.29,10.38-0.25
					c0.44,0.09,0.8,0.38,0.99,0.78c0,0.01,0.01,0.03,0.01,0.04c0.17,0.38,0.15,0.83-0.06,1.21l-7.55,13.57
					c-0.08,0.16-0.2,0.29-0.33,0.41C393.09,164.37,392.61,164.76,391.79,165.38z"/>
				<path class="st15" d="M344.98,167.69c0.84-0.08,1.69-0.07,2.54,0.09c2.3,0.42,4.73,1.53,7.3,2.68
					c5.22,2.37,11.15,5.06,17.58,2.69c9.05-3.32,17.35-9.71,18.75-10.82l6.4-11.51c-1.6-0.09-4.14-0.06-7.34,0.48
					c-3.35,0.56-4.3,1.35-5.85,2.68c-1.07,0.9-2.41,2.02-4.78,3.34c-0.61,0.33-1.19,0.67-1.76,1c-4.79,2.76-8.91,5.13-17.78,2
					c-9.73-3.43-15.13-4-19.92-2.1c-4.23,1.68-10.89,6.58-13.58,8.62l6.96,7.66C335.52,172.35,340.05,168.18,344.98,167.69z"/>
				<path class="st15" d="M170.26,143.3c0.89-1.07,2.07-1.92,3.34-2.04l248.68-21.28c1.45-0.14,2.88,0.3,4,1.22
					c1.12,0.92,1.81,2.21,1.94,3.64c0.12,1.42,0.18,2.43,0.17,3.01c-0.04,3.59-30.73,55.83-59.23,102.84
					c-0.65,1.13-1.81,1.88-3.15,2.03c-0.02,0-0.05,0-0.08,0.01c-1.31,0.13-2.57-0.33-3.47-1.28l-1.52-1.55l-1.97-2.02l-56.68-57.93
					c-1.43-1.5-2.65-2.25-3.56-2.17c-0.77,0.09-1.5,0.67-2.29,1.83c-0.37,0.53-0.73,1.07-1.1,1.6c-0.54,0.79-1.08,1.58-1.63,2.38
					c-6.35,9.18-13.04,18.41-19.55,27.38c-7.84,10.8-15.95,21.99-23.4,32.98c-1.18,1.75-2.85,2.78-4.65,2.86
					c-1.6,0.08-3.15-0.55-4.44-1.82c-0.19-0.19-0.38-0.39-0.57-0.62c-0.42-0.51-0.85-1.01-1.27-1.52
					c-11.41-13.65-23.22-27.46-34.66-40.84c-11.86-13.88-24.13-28.22-35.93-42.36c-0.4-0.47-0.63-1.07-0.7-1.72
					c-0.06-0.59,0.01-1.24,0.22-1.93c0.08-0.26,0.18-0.52,0.29-0.79C169.31,144.59,169.73,143.92,170.26,143.3z"/>
				<path class="st15" d="M292.33,170.61c0.59-0.84,1.16-1.68,1.74-2.52c1.27-1.87,2.74-2.9,4.36-3.06c0.03,0,0.06-0.01,0.09-0.01
					c1.86-0.16,3.77,0.84,5.85,3.03l57.8,59.07l2.37,2.43c0.31,0.32,0.72,0.49,1.15,0.42c0.43-0.04,0.79-0.28,1-0.65
					c35.4-58.4,58.05-98.06,58.86-101.54c0-0.36-0.03-1.13-0.16-2.67c-0.06-0.69-0.4-1.31-0.94-1.75c-0.53-0.44-1.21-0.65-1.91-0.58
					l-248.7,21.28c0,0,0,0-0.01,0c-0.39,0.04-1.07,0.55-1.64,1.38c-0.19,0.27-0.37,0.58-0.52,0.92c-0.41,0.91-0.32,1.45-0.23,1.57
					c11.8,14.13,24.05,28.47,35.91,42.34c11.76,13.76,23.92,27.97,35.63,42c0.12,0.13,0.22,0.25,0.32,0.38
					c0.79,0.97,1.74,1.46,2.66,1.42c0.88-0.05,1.74-0.61,2.41-1.6c7.48-11.05,15.6-22.24,23.45-33.06
					C278.66,189.94,285.71,180.22,292.33,170.61z"/>
				<path class="st15" d="M395.34,164.89l-23.38,40.79c-1.33,2.34-3.65,3.91-6.36,4.32c-0.15,0.02-0.3,0.04-0.46,0.06
					c-2.54,0.25-5.03-0.57-6.9-2.3l-55.41-51.39c-0.98-0.91-2.31-1.37-3.67-1.25c-0.02,0-0.04,0-0.06,0.01
					c-1.32,0.13-2.54,0.8-3.34,1.86l-24.62,32.51l-19.32,25.51c-1.75,2.31-4.44,3.66-7.38,3.69s-5.64-1.25-7.43-3.53l-50.26-64.14
					c-0.23-0.29-0.32-0.66-0.28-1.01c-0.03-0.1-0.05-0.2-0.06-0.31c-0.07-0.77,0.5-1.45,1.3-1.51l214.14-18.3
					c2.85-0.24,5.47,1.01,7.01,3.35c1.54,2.35,1.63,5.2,0.23,7.64L395.34,164.89z"/>
				<path class="st15" d="M273.14,182.17l20.34-26.85c1.27-1.69,3.22-2.77,5.35-2.98c0.04,0,0.07-0.01,0.09-0.01
					c2.16-0.19,4.3,0.54,5.87,1.99l26.39,24.49l29.01,26.92c1.35,1.24,3.17,1.79,4.98,1.51c1.83-0.28,3.39-1.34,4.29-2.91
					l22.31-38.94l9.33-16.27l5.49-9.59c0.88-1.53,0.83-3.3-0.14-4.77c-0.96-1.46-2.59-2.24-4.37-2.09l-211.92,18.11l35.21,44.95
					l13.9,17.74c1.24,1.58,3.11,2.46,5.14,2.45c2.04-0.04,3.9-0.96,5.11-2.56l18.26-24.12l5.29-6.98L273.14,182.17z"/>
				<path class="st15" d="M360.93,229.91l-5.47,4.31c-0.08,0.06-0.15,0.11-0.24,0.15c-0.37,0.2-0.77,0.3-1.19,0.34
					c-1.76,0.18-3.82-0.93-5.37-2.99l-54.96-58.12l-1.22-1.28c-0.46-0.48-0.49-1.19-0.14-1.71c0.07-0.09,0.13-0.18,0.22-0.26
					c0.58-0.52,1.48-0.49,2.01,0.07l0.76,0.8l55.47,58.66c0.03,0.04,0.08,0.09,0.11,0.13c1.07,1.45,2.36,2.07,2.91,1.91l5.14-4.04
					l0.86-0.67c0.61-0.48,1.51-0.38,2,0.21c0.49,0.6,0.4,1.47-0.23,1.96L360.93,229.91z"/>
				<path class="st15" d="M241.65,235.01l-4.95,3.76c-0.57,0.43-1.22,0.68-1.87,0.75c-1.16,0.12-2.35-0.33-3.15-1.26l-75.11-88.23
					c-0.86-1.02-1.07-2.41-0.56-3.63c0.52-1.22,1.67-2.06,3.01-2.2l10.47-1.04c0.28-0.03,0.55,0.02,0.78,0.15
					c0.42,0.2,0.73,0.61,0.78,1.1c0.04,0.38-0.09,0.75-0.32,1.02s-0.56,0.47-0.96,0.51l-1.01,0.1l-9.46,0.94
					c-0.43,0.04-0.6,0.35-0.65,0.48c-0.05,0.13-0.14,0.46,0.13,0.78l75.11,88.24c0.27,0.32,0.74,0.36,1.08,0.11l4.86-3.7l1.15-0.87
					c0.62-0.47,1.52-0.37,2,0.24c0.48,0.61,0.37,1.49-0.25,1.96L241.65,235.01z"/>
			</g>
		</g>
	</g>
</g>
</svg>
