<svg width="32" height="33" viewBox="0 0 32 33" fill="none" xmlns="http://www.w3.org/2000/svg">
<path d="M31.1944 21.1825C30.4002 18.0058 31.6356 20.0353 31.4591 16.5939C31.2826 13.3289 26.2528 13.4171 25.9881 13.4171C27.2235 12.8877 28.1941 12.1818 28.9001 11.5641C30.8414 9.79921 29.6943 7.06369 24.7527 4.32817C23.0761 3.3575 21.6642 4.15168 20.6053 5.47532C20.6053 5.47532 19.1934 -1.84881 13.3694 1.59265C13.3694 1.59265 12.9282 3.79872 12.0458 3.44575C11.1633 3.09278 5.95701 1.94562 6.92767 6.2695C7.28064 8.03436 7.28065 8.91678 7.54538 9.62272C7.54538 9.62272 2.95677 7.76963 2.16258 11.6523C2.16258 11.6523 -1.01414 14.2113 0.927192 16.9468C2.07435 18.5352 4.28041 19.5059 6.7512 19.4176C6.7512 19.4176 3.2215 21.4472 4.01568 24.9769C4.01568 24.9769 4.80986 27.4477 7.01592 26.6535C7.01592 26.6535 5.69229 31.5069 11.1633 29.8303C11.1633 29.8303 12.134 29.6538 13.1929 28.1537C13.1929 28.1537 13.6341 34.1541 19.5464 31.5951C19.5464 31.5951 27.1352 32.3011 24.3997 23.7415C24.6644 24.0063 25.0174 24.1827 25.2821 24.4475C27.5764 25.9476 31.8121 24.3592 31.0179 21.1825H31.1944ZM20.2523 6.09302L20.6935 5.47532C20.517 5.65181 20.4288 5.82829 20.2523 6.09302Z" fill="#FFEC2D"/>
<path d="M16.1896 12.5342C16.1896 12.5342 14.8659 12.8872 14.8659 14.0343C14.8659 15.1815 13.807 13.3284 13.5423 14.299C13.2776 15.2697 11.6892 16.7698 13.7188 18.0935C15.7484 19.4171 17.072 19.1524 17.4249 18.9759C17.7779 18.7994 19.631 17.2993 19.1898 16.0639C18.7486 14.8285 19.0133 13.2401 16.1013 12.5342H16.1896Z" fill="#00B2FF" stroke="#111114" stroke-width="0.563256" stroke-linecap="round" stroke-linejoin="round"/>
<path d="M17.6914 13.1521C17.6914 12.8874 19.8975 1.68061 24.7508 4.41613C29.6924 7.15165 30.8395 9.79892 28.8982 11.652C26.9569 13.4169 22.1035 15.27 19.015 15.27" stroke="#111114" stroke-width="0.563256" stroke-linecap="round" stroke-linejoin="round"/>
<path d="M25.8944 13.4157C25.8944 13.4157 31.2772 13.2392 31.4537 16.5924C31.6302 19.9456 30.3948 18.0043 31.189 21.181C31.9832 24.3577 27.7475 25.9461 25.4532 24.446C23.1589 22.9459 20.0704 18.269 18.5703 18.0043" stroke="#111114" stroke-width="0.563256" stroke-linecap="round" stroke-linejoin="round"/>
<path d="M20.7801 5.47559C20.7801 5.47559 19.3682 -1.76029 13.5442 1.68117C13.5442 1.68117 13.103 3.88723 12.2206 3.53426C11.3381 3.18129 6.13184 2.03414 7.10251 6.35802C8.07317 10.6819 6.30832 9.62299 13.7207 14.3881" stroke="#111114" stroke-width="0.563256" stroke-linecap="round" stroke-linejoin="round"/>
<path d="M7.63132 9.62167C7.63132 9.62167 3.0427 7.76857 2.24852 11.6512C2.24852 11.6512 -0.928206 14.2103 1.01313 16.9458C2.95447 19.6813 8.33724 20.7402 12.6611 16.9458" stroke="#111114" stroke-width="0.563256" stroke-linecap="round" stroke-linejoin="round"/>
<path d="M6.83628 19.4174C6.83628 19.4174 3.3066 21.447 4.10078 24.9767C4.10078 24.9767 4.89496 27.4475 7.10102 26.6533C7.10102 26.6533 5.77737 31.5066 11.2484 29.83C11.2484 29.83 14.9546 29.0359 16.19 19.0645" stroke="#111114" stroke-width="0.563256" stroke-linecap="round" stroke-linejoin="round"/>
<path d="M13.3691 28.2422C13.3691 28.2422 13.8103 34.2427 19.7226 31.6837C19.7226 31.6837 27.3114 32.3896 24.5759 23.8301" stroke="#111114" stroke-width="0.563256" stroke-linecap="round" stroke-linejoin="round"/>
<path d="M18.3105 13.3301C18.3988 12.2712 19.193 11.5653 19.9872 10.9476C20.8696 9.62392 21.399 8.21204 22.0167 6.71191C22.2815 7.32961 22.1932 8.1238 22.0167 8.74149C21.6638 9.71216 20.7813 10.3299 20.1636 11.0358C19.7224 11.9182 19.193 12.7124 18.3988 13.3301H18.3105Z" fill="#111114"/>
<path d="M18.9281 14.4765C19.0163 13.3294 19.8988 12.5352 20.8694 12.094C21.6636 11.4763 22.546 10.8586 23.3402 10.4174C23.7814 10.0644 24.3109 9.71145 24.4874 9.09375C24.7521 9.79969 24.3109 10.6821 23.6932 11.1233C22.8108 11.8293 21.7519 11.741 20.8694 12.3587C20.1635 13.1529 19.7223 13.8589 18.8398 14.5648L18.9281 14.4765Z" fill="#111114"/>
<path d="M27.2232 16.3294C25.4584 17.3001 23.1641 17.3883 21.2228 16.6824C20.6051 16.5059 19.8991 16.4176 19.4579 16.8589V16.5941C21.9287 16.9471 24.3112 18.359 25.7231 20.565C26.1643 21.271 26.6938 21.8887 27.488 21.9769C26.6938 22.4181 25.7231 21.5357 25.1937 20.918C23.6053 19.1532 21.5757 17.5648 19.2814 16.8589C19.2814 16.8589 19.1932 16.7706 19.2814 16.6824C19.8109 16.1529 20.6933 16.2412 21.3992 16.3294C23.3406 16.5941 25.2819 16.5941 27.3115 16.3294H27.2232Z" fill="#111114"/>
<path d="M17.957 19.0654C18.7512 19.5066 19.0159 20.3891 19.1924 21.1833C19.5454 21.9774 20.0749 22.5951 20.2513 23.4776C20.3396 24.007 20.3396 24.6247 20.2513 25.1542C19.4572 23.9188 19.5454 22.5951 19.1042 21.2715C18.5747 20.5656 18.1335 19.9479 18.0453 19.0654H17.957Z" fill="#111114"/>
<path d="M17.0729 19.3304C17.0729 19.9481 17.3376 20.3893 17.5141 21.007C17.5141 21.6247 17.6024 22.2424 17.6906 22.9484C17.7789 24.272 17.0729 25.2427 17.0729 26.4781C16.6317 25.9486 16.6317 25.1544 16.7199 24.5367C16.8964 23.6543 17.6024 22.8601 17.4259 21.9777C17.1611 21.36 16.7199 20.9188 16.8082 20.2129C16.8082 19.8599 16.8082 19.5069 17.1612 19.2422L17.0729 19.3304Z" fill="#111114"/>
<path d="M13.3692 18.0947C13.3692 18.7124 12.9279 19.2419 12.3985 19.5066C11.869 19.7713 11.2513 19.7713 10.8984 20.1243C9.92769 20.742 9.7512 22.3304 8.25108 22.1539C8.07459 22.1539 7.89812 21.9774 7.98636 21.8009C7.98636 21.6244 8.16284 21.5362 8.33933 21.6244C8.60406 21.7127 9.04527 21.8009 9.22175 21.9774C8.95703 22.1539 8.60406 22.1539 8.33933 22.1539V21.6244C8.6923 21.6244 8.95703 21.2715 9.31 20.8302C9.66297 20.389 10.1924 20.1243 10.7219 19.9478C11.2513 19.7713 11.6043 19.3301 12.0455 18.9772C12.4867 18.7124 12.8397 18.4477 13.2809 18.0947H13.3692Z" fill="#111114"/>
<path d="M14.8713 19.0656C14.2536 19.4186 13.6359 20.0363 13.1947 20.5657C12.8417 21.3599 13.1947 22.2423 12.577 23.0365C12.224 23.4777 11.4298 24.0072 10.9004 23.7425C11.4298 23.3895 11.6946 23.0365 11.8711 22.6836C12.4888 21.7129 12.93 20.8305 13.1947 19.6833C13.4594 19.1539 14.1654 18.8009 14.7831 19.0656H14.8713Z" fill="#111114"/>
<path d="M7.72081 12.7119C8.51499 13.4179 9.39742 13.7708 10.4563 13.7708C11.5152 13.7708 13.0154 14.3003 13.1036 15.5357C13.1036 15.5357 13.1036 15.6239 13.0154 15.7122C12.0447 16.4181 10.8093 17.5652 9.48566 16.9476C8.33851 16.5063 7.4561 15.6239 6.2207 15.9769C7.54434 14.918 9.22094 16.3299 10.5446 16.4181C11.3388 16.4181 12.0447 15.7122 12.9271 15.4474L12.8389 15.6239C12.9271 15.1827 12.4859 14.6532 12.0447 14.565C10.9858 14.3003 9.83864 14.8297 8.77973 14.1238C8.25028 13.8591 7.89732 13.4179 7.63259 12.8884L7.72081 12.7119Z" fill="#111114"/>
<path d="M14.8668 13.4181C14.602 12.8887 14.1608 12.7122 13.7196 12.271C13.2784 11.8297 12.7489 11.4768 12.2195 11.1238C11.3371 10.3296 11.1606 8.65301 11.4253 7.50586C12.1312 8.47653 12.1313 9.80016 12.4842 10.8591C12.749 11.4768 13.3666 11.565 13.9843 11.7415C14.602 12.0062 15.1315 12.7122 14.955 13.3299L14.8668 13.4181Z" fill="#111114"/>
<path d="M15.8393 12.4475C15.5745 11.6533 15.398 11.0356 15.3098 10.2414C14.9568 9.44724 14.4274 8.7413 14.5156 7.85888C14.5156 7.32942 14.6039 6.71172 14.8686 6.27051C15.2216 6.79996 15.2216 7.41766 15.3098 7.85888C15.3098 8.65306 15.2216 9.44724 15.5745 10.1532C16.104 10.7709 16.5452 11.7415 16.0158 12.5357L15.8393 12.4475Z" fill="#111114"/>
</svg>
