<svg width="48" height="47" viewBox="0 0 48 47" fill="none" xmlns="http://www.w3.org/2000/svg">
<path d="M36.8198 40.7405C39.4671 41.3582 40.526 38.4462 40.526 38.4462C45.3793 35.799 43.2615 32.6222 43.2615 32.6222C48.1148 32.2693 46.0853 28.4748 46.0853 28.4748C48.6443 26.357 45.9971 23.9745 45.9971 23.9745C46.9677 23.3568 47.3207 22.0331 46.1735 20.0918C45.1146 18.2387 41.8496 18.8564 41.4084 18.9446C41.8496 18.5917 42.3791 18.2387 42.8203 17.8857C47.5854 13.8266 41.8496 10.5616 41.8496 10.5616C42.6438 6.59068 38.1435 6.32596 38.1435 6.32596C36.2021 2.00207 32.9371 3.76692 32.9371 3.76692C31.084 0.590192 27.8191 4.38462 27.8191 4.38462C27.9073 -0.821688 22.7892 1.20789 22.7892 1.20789C21.7303 0.501951 20.2302 1.20789 20.2302 1.20789C17.9359 0.413709 17.23 2.00207 17.23 2.00207C13.7003 2.70801 14.4945 5.7965 14.4945 5.7965C10.8765 1.73735 7.61155 8.09081 7.61155 8.09081C3.90537 8.53202 3.90536 11.797 3.90536 11.797C-0.947983 15.5032 3.90536 18.7682 3.90536 18.7682H3.99358C3.37588 18.7682 3.11115 18.7682 3.11115 18.7682C0.110906 20.0035 2.14051 22.7391 2.14051 22.7391C-0.50677 25.4746 2.58172 27.6806 2.58172 27.6806C2.22875 31.6516 6.02315 31.4751 6.02315 31.4751C5.75842 31.6516 5.58198 31.9163 5.40549 32.181C3.46416 34.9165 7.52328 37.2991 7.52328 37.2991C7.34679 39.6816 9.46463 39.2404 9.46463 39.2404C9.02341 42.1524 12.7296 43.7408 12.7296 43.7408C15.0239 44.3585 16.7005 43.4761 18.0242 41.9759C17.8477 42.2407 16.6123 44.182 20.2302 45.5056C24.1129 47.0058 25.0836 43.7408 25.0836 43.7408C26.2307 46.4763 28.878 44.9762 28.878 44.9762C31.2605 45.6821 31.79 43.829 31.8783 43.5643L32.0547 43.3878C32.4077 43.6525 32.8489 43.7408 33.2019 43.7408C36.9963 43.6525 36.908 40.6523 36.908 40.6523L36.8198 40.7405Z" fill="#FF97B5"/>
<path d="M18.9907 29.9748C18.9907 29.9748 14.5786 26.5333 16.2552 21.0623C17.9318 15.5913 25.4324 15.2383 25.4324 15.2383C25.4324 15.2383 33.286 17.3561 32.4035 23.6213C31.5211 29.8865 24.6382 35.1811 18.9024 29.9748H18.9907Z" fill="#00B2FF" stroke="#111114" stroke-width="0.70407" stroke-linecap="round" stroke-linejoin="round"/>
<path d="M21.3771 31.4744C21.3771 31.4744 20.3181 45.5932 12.641 43.6519C12.641 43.6519 8.84666 42.0635 9.37612 39.1515C9.37612 39.1515 7.25829 39.5045 7.43477 37.2102C7.43477 37.2102 3.46384 34.8276 5.31693 32.0921C7.25827 29.3566 16.5237 26.6211 16.5237 26.6211" stroke="#111114" stroke-width="0.70407" stroke-linecap="round" stroke-linejoin="round"/>
<path d="M5.84562 31.2987C5.84562 31.2987 2.13941 31.387 2.40414 27.5043C2.40414 27.5043 -0.596105 25.21 1.96293 22.5627C1.96293 22.5627 -0.154913 19.8272 2.93358 18.5918C2.93358 18.5918 8.93411 18.8565 15.9935 22.1215" stroke="#111114" stroke-width="0.70407" stroke-linecap="round" stroke-linejoin="round"/>
<path d="M3.8172 18.6793C3.8172 18.6793 -1.03614 15.4144 3.8172 11.7082C3.8172 11.7082 3.81721 8.44321 7.52339 8.002C7.52339 8.002 10.7884 1.64853 14.4063 5.70769C14.4063 5.70769 16.8771 13.3848 20.3186 16.6498" stroke="#111114" stroke-width="0.70407" stroke-linecap="round" stroke-linejoin="round"/>
<path d="M14.4027 5.61975C14.4027 5.61975 13.6085 2.53126 17.1382 1.82532C17.1382 1.82532 17.9324 0.148709 20.1384 1.03113C20.1384 1.03113 21.5503 0.325194 22.6975 1.03113C22.6975 1.03113 27.8156 -0.998446 27.7273 4.20786C27.7273 4.20786 25.08 13.9145 25.5212 15.2382" stroke="#111114" stroke-width="0.70407" stroke-linecap="round" stroke-linejoin="round"/>
<path d="M27.7305 4.20775C27.7305 4.20775 30.9072 0.413325 32.8485 3.59006C32.8485 3.59006 36.1135 1.8252 38.0549 6.14909C38.0549 6.14909 42.6434 6.41381 41.761 10.3847C41.761 10.3847 47.4968 13.6497 42.7317 17.7089C37.9666 21.768 32.4073 20.9738 32.4073 20.9738" stroke="#111114" stroke-width="0.70407" stroke-linecap="round" stroke-linejoin="round"/>
<path d="M41.1401 18.8559C41.1401 18.8559 44.8463 17.9735 45.9934 20.0031C47.1406 22.0327 46.7876 23.2681 45.8169 23.8858C45.8169 23.8858 48.5524 26.1801 45.9051 28.3861C45.9051 28.3861 48.2877 32.6218 42.1107 32.5335C35.9337 32.4453 30.9922 27.5037 30.9922 27.5037" stroke="#111114" stroke-width="0.70407" stroke-linecap="round" stroke-linejoin="round"/>
<path d="M43.171 32.5332C43.171 32.5332 45.2887 35.7099 40.4354 38.3572C40.4354 38.3572 39.3765 41.2692 36.7293 40.6515C36.7293 40.6515 36.9057 43.6517 33.0231 43.74C29.1404 43.8282 26.7578 31.5625 26.7578 31.5625" stroke="#111114" stroke-width="0.70407" stroke-linecap="round" stroke-linejoin="round"/>
<path d="M31.7903 43.6532C31.7903 43.6532 31.3491 45.771 28.7901 45.0651C28.7901 45.0651 26.1428 46.4769 24.9956 43.8297C24.9956 43.8297 24.025 47.0946 20.1423 45.5945C16.2596 44.0944 17.9362 41.9766 17.9362 41.9766" stroke="#111114" stroke-width="0.70407" stroke-linecap="round" stroke-linejoin="round"/>
<path d="M28.8784 15.8563C28.7901 14.7091 29.2314 13.6502 29.9373 12.6795C30.7315 11.0029 31.8786 9.14985 33.8199 8.79688C32.6728 10.2088 31.0845 11.2677 30.1138 12.7678C29.7608 13.6502 29.4961 15.1503 28.8784 15.768V15.8563Z" fill="#111114"/>
<path d="M30.2031 17.4451C30.6443 16.5626 31.4385 16.1214 32.2327 15.6802C33.2916 14.6213 34.174 13.3859 35.6742 12.8564C34.88 14.2683 33.4681 14.886 32.321 15.7684C31.7915 16.4744 31.1738 17.0921 30.2031 17.4451Z" fill="#111114"/>
<path d="M32.057 18.5035C33.2041 17.974 34.3513 17.7093 35.4985 17.4446C37.3515 16.6504 38.8517 15.2385 40.7048 14.4443C39.5576 16.2092 37.4398 16.9151 35.4985 17.6211C34.4395 18.2388 33.2924 18.68 31.9688 18.5917L32.057 18.5035Z" fill="#111114"/>
<path d="M32.7637 23.7981C33.6461 23.3569 34.6167 23.4451 35.4992 23.7099C36.9993 23.7099 38.5876 23.3569 39.9995 24.1511C38.4112 24.504 36.9993 23.9746 35.4992 23.8864C34.6167 24.0628 33.7343 24.1511 32.7637 23.8864V23.7981Z" fill="#111114"/>
<path d="M31.7031 25.4746C32.5856 25.4746 33.2915 25.7393 33.9974 26.1806C35.321 26.5335 36.6447 26.6218 37.7918 27.5924C36.3799 27.5924 35.2328 26.8865 33.9974 26.357C33.2032 26.2688 32.4091 26.0923 31.7031 25.4746Z" fill="#111114"/>
<path d="M30.1152 28.5635C30.9977 29.4459 31.6154 30.5048 32.3213 31.652C33.6449 33.2403 35.5862 34.2992 36.8216 35.9758C34.7038 35.2699 33.3802 33.4168 32.1448 31.7402C31.2624 30.8578 30.2035 29.7106 30.1152 28.5635Z" fill="#111114"/>
<path d="M28.35 30.9453C29.1442 31.3865 29.5854 32.0925 29.9383 32.8866C30.8208 33.9456 32.0562 34.828 32.4091 36.2399C31.0855 35.4457 30.556 34.122 29.7619 32.9749C29.1442 32.4454 28.5264 31.8277 28.2617 30.9453H28.35Z" fill="#111114"/>
<path d="M25.1743 32.623C25.6155 33.682 25.7038 34.7409 25.792 35.888C26.2332 37.6529 27.2039 39.3295 27.2922 41.2708C26.0568 39.9472 25.8803 37.7411 25.5273 35.9763C25.0861 34.9173 24.8214 33.7702 25.0861 32.623H25.1743Z" fill="#111114"/>
<path d="M23.0561 32.4463C23.6738 33.417 23.6738 34.6524 23.5856 35.7113C23.6738 37.5644 23.8503 39.6822 22.7031 41.1823C22.7031 39.3292 23.4091 37.5644 23.4091 35.7113C23.2326 34.7406 22.7914 33.2405 23.0561 32.4463Z" fill="#111114"/>
<path d="M17.2334 28.3866C16.351 28.916 15.4686 29.0925 14.5861 29.269C13.1743 29.9749 12.1154 31.1221 10.6152 31.7398C11.4977 30.2397 13.086 29.7102 14.5861 29.1807C15.3803 28.6513 16.351 28.2983 17.3217 28.3866H17.2334Z" fill="#111114"/>
<path d="M18.0252 29.9756C17.4075 30.9463 16.525 31.564 15.5544 32.1816C14.1425 33.417 12.9953 35.0054 11.2305 35.6231C12.2894 34.0347 13.966 33.1523 15.4661 32.0052C16.172 31.1227 16.9662 30.4168 18.0252 29.9756Z" fill="#111114"/>
<path d="M19.8819 31.2988C19.6172 32.2695 18.9113 32.8872 18.2053 33.5049C17.3229 34.7403 16.7052 36.3287 15.2051 37.1228C15.6463 35.5345 16.9699 34.5638 18.0288 33.4166C18.4701 32.5342 18.9113 31.74 19.7937 31.2988H19.8819Z" fill="#111114"/>
<path d="M23.0562 15.4149C22.9679 14.1795 23.1444 13.1206 23.4091 11.9734C23.4091 10.0321 23.0561 8.17899 23.4091 6.14941C24.2915 7.82602 23.8503 10.1203 23.6738 11.9734C23.7621 13.1206 23.6738 14.356 23.1444 15.4149H23.0562Z" fill="#111114"/>
<path d="M21.2036 15.5028C20.6741 14.6204 20.5859 13.738 20.5859 12.7673C20.2329 11.2672 19.4387 9.76708 19.7034 8.17871C20.5859 9.59059 20.4976 11.179 20.7624 12.7673C21.1153 13.6497 21.3801 14.5322 21.2918 15.5028H21.2036Z" fill="#111114"/>
<path d="M18.2923 17.179C16.8805 16.5613 15.9098 15.5024 14.9391 14.3553C13.1743 12.6786 11.2329 10.9138 10.6152 8.53125C12.2918 10.2961 13.439 12.4139 15.1156 14.267C16.1745 15.1494 17.5864 16.1201 18.2923 17.179Z" fill="#111114"/>
<path d="M17.1446 18.9441C15.6444 18.5029 14.4973 17.3558 12.9972 16.8263C11.497 16.4733 9.99693 16.2086 8.49681 15.7674L8.58503 15.4144C8.76152 15.5909 9.02622 15.7674 9.11446 16.0321C8.84974 16.0321 8.58502 15.7674 8.40853 15.6791C8.23205 15.6791 8.32029 15.3262 8.40853 15.3262C9.20272 15.3262 9.99691 15.3262 10.7911 15.5909C11.9382 15.8556 12.9089 16.5616 14.0561 16.9145C15.2032 17.1793 16.2621 17.797 17.0563 18.7676L17.1446 18.9441Z" fill="#111114"/>
<path d="M15.3793 23.6209C14.2322 23.7974 13.085 23.6209 12.0261 23.268C10.173 23.0915 8.1434 23.268 6.4668 22.4738C8.40813 22.1208 10.2612 22.8267 12.1143 23.0915C13.2615 23.0915 14.4086 23.0915 15.4675 23.6209H15.3793Z" fill="#111114"/>
<path d="M23.8519 16.3848C23.4107 17.1789 22.6165 17.6202 21.8223 17.9731C20.7634 18.8556 19.881 20.0027 18.3809 20.4439C19.175 19.1203 20.587 18.6791 21.7341 17.8849C22.3518 17.2672 22.9695 16.6495 23.8519 16.473V16.3848Z" fill="#111114"/>
<path d="M27.6433 16.1211C27.1138 16.9153 26.4079 17.3565 25.6137 17.7977C24.4665 18.7684 23.5841 19.9155 22.084 20.3567C22.9664 19.0331 24.2901 18.5036 25.5255 17.6212C26.1432 16.9153 26.7608 16.3858 27.6433 16.1211Z" fill="#111114"/>
<path d="M16.9691 23.2686C17.1456 22.7391 17.5868 22.5626 18.1162 22.3861C18.7339 21.8567 19.0869 21.1507 20.0576 21.0625C19.7046 22.0332 18.9104 22.0332 18.1162 22.4744C17.8515 22.9156 17.4986 23.2686 16.8809 23.2686H16.9691Z" fill="#111114"/>
<path d="M24.9967 20.1791C24.8202 20.7968 24.379 20.9732 23.8495 21.1497C23.2319 21.7674 22.9671 22.5616 21.9082 22.6499C22.2612 21.6792 23.0554 21.5027 23.7613 20.9732C24.0261 20.532 24.379 20.0908 24.9967 20.0908V20.1791Z" fill="#111114"/>
<path d="M19.7039 23.6221C19.6157 24.1515 19.1745 24.328 18.7333 24.5045C18.2038 25.034 18.0273 25.7399 17.0566 25.8281C17.3214 24.8575 18.0274 24.8575 18.645 24.4163C18.9098 23.975 19.0862 23.6221 19.7039 23.6221Z" fill="#111114"/>
<path d="M30.2041 17.4439C29.9393 17.9733 29.4981 18.0616 29.0569 18.0616C28.351 18.5028 28.0863 19.1205 27.0273 19.0322C27.5568 18.1498 28.2627 18.238 28.9686 17.9733C29.3216 17.6203 29.5864 17.3556 30.2041 17.4439Z" fill="#111114"/>
<path d="M30.9099 19.2971C30.9099 19.5618 30.6452 19.7383 30.4687 19.8265C30.204 19.8265 29.9392 19.8265 29.851 20.0913C29.5863 20.4442 29.0568 20.8855 28.5273 20.709C28.7038 20.0913 29.1451 19.9148 29.6745 19.8265C29.9393 19.8265 30.1157 19.5618 30.204 19.3853C30.204 19.2088 30.9099 19.0324 30.9099 19.2088V19.2971Z" fill="#111114"/>
<path d="M26.763 20.4453C26.763 20.9747 26.3219 21.063 25.9689 21.1512C25.8806 21.1512 25.7924 21.3277 25.7042 21.4159C25.4394 21.8572 25.0864 22.2101 24.4688 22.2101C24.6452 21.5924 24.9982 21.3277 25.5277 21.1512C25.7924 21.1512 25.9689 20.8865 26.0571 20.6218C26.0571 20.4453 26.7631 20.1805 26.8513 20.357L26.763 20.4453Z" fill="#111114"/>
<path d="M26.8514 22.3857C26.675 22.9152 26.2337 23.0034 25.7925 23.0917C25.1748 23.5329 24.9101 24.1506 23.9395 24.0624C24.3807 23.1799 25.0866 23.2682 25.7925 23.0034C26.0573 22.6505 26.4102 22.3857 26.9397 22.474L26.8514 22.3857Z" fill="#111114"/>
<path d="M22.4389 23.9736C22.4389 24.4148 22.2624 24.4148 21.9977 24.5031C21.9977 24.5031 21.9094 24.5913 21.9094 24.6796C21.8211 25.0325 21.6447 25.2973 21.1152 25.209C21.1152 24.6796 21.38 24.5031 21.7329 24.5031C21.9977 24.5031 21.9977 24.3266 21.9977 24.1501C21.9977 24.0619 22.4389 23.8854 22.5271 24.0619L22.4389 23.9736Z" fill="#111114"/>
<path d="M23.5871 25.5635C23.4106 26.0929 23.0576 26.2694 22.6164 26.3577C21.9987 26.8871 21.9105 27.5048 20.8516 27.5931C21.2045 26.6224 21.8222 26.7106 22.5281 26.2694C22.7929 25.9164 23.0576 25.5635 23.5871 25.5635Z" fill="#111114"/>
<path d="M19.7904 26.2695C19.7904 26.7107 19.6139 26.7107 19.3492 26.7107C19.3492 26.7107 19.2609 26.799 19.2609 26.8872C19.1727 27.2402 18.9963 27.4167 18.4668 27.3284C18.4668 26.8872 18.7315 26.7107 19.0845 26.7107C19.3492 26.7107 19.3492 26.5342 19.3492 26.3578C19.3492 26.2695 19.7904 26.1813 19.8787 26.3578L19.7904 26.2695Z" fill="#111114"/>
<path d="M29.8505 22.3857C29.5858 22.9152 29.1446 23.0917 28.7034 23.1799C27.9975 23.7094 27.7327 24.4153 26.6738 24.4153C27.115 23.4447 27.9092 23.4447 28.6152 23.0917C28.8799 22.6505 29.2328 22.3857 29.8505 22.3857Z" fill="#111114"/>
<path d="M31.794 20.4447C31.794 20.7094 31.7939 20.7976 31.6175 20.8859C31.441 20.8859 31.2645 20.8859 31.2645 21.0624C31.1763 21.4153 30.9998 21.5918 30.5586 21.4153C30.5586 20.9741 30.8233 20.7976 31.1762 20.7976C31.441 20.7976 31.441 20.6212 31.441 20.4447C31.441 20.3564 31.8822 20.2682 31.9705 20.4447H31.794Z" fill="#111114"/>
<path d="M31.7927 22.4746C31.6162 23.0923 31.0868 23.357 30.5573 23.6218C29.8514 24.2395 29.4984 25.1219 28.4395 25.2984C28.7924 24.2395 29.7631 24.063 30.469 23.4453C30.822 22.9158 31.0867 22.5629 31.7927 22.4746Z" fill="#111114"/>
<path d="M25.7929 25.2987C25.7929 25.7399 25.4399 25.9164 25.087 26.0046C24.9987 26.0046 24.9105 26.1811 24.9105 26.2694C24.734 26.7106 24.381 26.9753 23.8516 26.9753C23.9398 26.4458 24.2928 26.1811 24.734 26.0046C24.9987 26.0046 25.087 25.7399 25.1752 25.4752C25.1752 25.2987 25.7929 25.1222 25.8811 25.2987H25.7929Z" fill="#111114"/>
<path d="M21.7324 28.5635C21.6441 29.0047 21.3793 29.0047 21.0264 29.0047C20.9381 29.0047 20.8499 29.0929 20.8499 29.1812C20.5852 29.5341 20.3205 29.7106 19.791 29.6224C19.9675 29.0929 20.3204 29.0047 20.7617 29.0047C21.0264 29.0047 21.1146 28.8282 21.2029 28.6517C21.2029 28.5635 21.8206 28.4752 21.8206 28.6517L21.7324 28.5635Z" fill="#111114"/>
<path d="M26.8535 26.6211C26.8535 27.0623 26.5005 27.2388 26.1475 27.2388C26.0593 27.2388 25.971 27.4153 25.971 27.5035C25.7945 27.9447 25.4416 28.2095 24.9121 28.2095C25.0004 27.68 25.3533 27.4153 25.7945 27.327C26.0593 27.327 26.1475 27.0623 26.2357 26.8858C26.2357 26.7093 26.8534 26.5328 26.9417 26.7093L26.8535 26.6211Z" fill="#111114"/>
<path d="M23.1448 29.6211C23.1448 29.8858 22.9683 30.0623 22.7036 30.1505C22.4389 30.1505 22.2624 30.1506 22.1742 30.4153C21.9094 30.7682 21.6447 31.033 21.1152 30.8565C21.2917 30.327 21.6447 30.1505 22.0859 30.1505C22.3506 30.1505 22.4389 29.9741 22.5271 29.7976C22.5271 29.7093 23.1448 29.5328 23.1448 29.7976V29.6211Z" fill="#111114"/>
<path d="M31.7057 25.5635C31.4409 26.1812 30.8232 26.5341 30.2055 26.7106C29.4114 27.4166 28.7936 28.299 27.6465 28.5637C28.1759 27.5048 29.2349 27.2401 30.1173 26.6224C30.4703 26.0929 30.9115 25.6517 31.6174 25.5635H31.7057Z" fill="#111114"/>
<path d="M26.5857 28.916C26.4092 29.5337 25.8797 29.7984 25.3503 29.9749C24.6443 30.5926 24.2913 31.475 23.2324 31.6515C23.5854 30.5926 24.5561 30.4161 25.262 29.8867C25.5268 29.3572 25.8797 29.0043 26.5857 28.916Z" fill="#111114"/>
</svg>
