<svg width="56" height="55" viewBox="0 0 56 55" fill="none" xmlns="http://www.w3.org/2000/svg">
<path d="M46.1923 44.2486C46.1923 44.2486 54.4871 36.3951 55.193 22.9822C55.193 22.9822 56.6049 16.6287 48.6631 11.4224C46.3687 6.83383 42.2213 7.53975 42.2213 7.53975C41.7801 7.18678 41.2507 6.74556 40.7212 6.21611C34.6325 1.09804 31.2793 4.01004 31.2793 4.01004C30.8381 3.56883 30.3969 3.1276 29.9556 2.77463C28.985 1.8922 26.1612 0.74506 23.2492 1.62749C23.2492 1.62749 21.3079 -0.755052 18.3959 2.68641C15.4839 6.12787 14.1602 8.06918 14.1602 8.06918C2.33573 14.8639 5.15949 19.0995 5.15949 19.0995C4.27706 20.0702 3.74761 20.9526 3.74761 20.9526C-3.13531 32.8654 3.04167 37.6304 3.04167 37.6304C3.04167 37.6304 1.80627 46.19 15.1309 48.749C15.1309 48.749 26.1612 62.8678 46.1923 44.3369" fill="#FF6A37"/>
<path d="M46.1923 44.2486C46.1923 44.2486 54.4871 36.3951 55.193 22.9822C55.193 22.9822 56.6049 16.6287 48.6631 11.4224C46.3687 6.83383 42.2213 7.53975 42.2213 7.53975C41.7801 7.18678 41.2507 6.74556 40.7212 6.21611C34.6325 1.09804 31.2793 4.01004 31.2793 4.01004C30.8381 3.56883 30.3969 3.1276 29.9556 2.77463C28.985 1.8922 26.1612 0.74506 23.2492 1.62749C23.2492 1.62749 21.3079 -0.755052 18.3959 2.68641C15.4839 6.12787 14.1602 8.06918 14.1602 8.06918C2.33573 14.8639 5.15949 19.0995 5.15949 19.0995C4.27706 20.0702 3.74761 20.9526 3.74761 20.9526C-3.13531 32.8654 3.04167 37.6304 3.04167 37.6304C3.04167 37.6304 1.80627 46.19 15.1309 48.749C15.1309 48.749 26.1612 62.8678 46.1923 44.3369" stroke="#111114" stroke-width="0.422442" stroke-linecap="round" stroke-linejoin="round"/>
<path d="M26.4272 20.0712C26.4272 20.0712 24.3093 24.2186 22.8975 23.3362C21.4856 22.4538 20.6914 20.8653 20.6914 20.8653C20.6914 20.8653 20.6914 17.2474 22.9857 17.6004C25.28 17.9534 27.7508 18.1298 26.4272 20.1594V20.0712Z" stroke="#111114" stroke-width="0.492849" stroke-linecap="round" stroke-linejoin="round"/>
<path d="M22.543 25.4541C22.543 25.4541 26.8669 27.0424 29.0729 21.3066" stroke="#111114" stroke-width="0.492849" stroke-linecap="round" stroke-linejoin="round"/>
<path d="M26.1641 20.6013C26.1641 20.6013 29.6055 18.2187 31.3704 23.6898" stroke="#111114" stroke-width="0.492849" stroke-linecap="round" stroke-linejoin="round"/>
<path d="M29.7788 27.5721C29.6023 27.5721 25.8079 29.8664 22.8076 27.925C22.8076 27.925 18.3955 25.0131 18.925 21.6599C19.4544 18.3066 19.7191 16.8948 21.484 16.2771C23.2488 15.6594 25.7196 15.4829 27.1315 16.5418C28.5434 17.6007 27.5727 15.0416 30.6612 17.3359C33.7497 19.6303 32.8673 21.9246 32.8673 21.9246C32.8673 21.9246 32.6908 22.9835 30.573 21.9246" stroke="#111114" stroke-width="0.492849" stroke-linecap="round" stroke-linejoin="round"/>
<path d="M30.5742 31.0134C30.5742 31.0134 28.3682 28.8956 30.5742 25.4541C32.7803 22.0127 33.1333 22.4539 34.3687 18.3065C35.604 14.1591 36.0453 15.0415 36.0453 15.0415" stroke="#111114" stroke-width="0.492849" stroke-linecap="round" stroke-linejoin="round"/>
<path d="M28.7191 16.3656C28.7191 16.3656 26.7778 12.483 24.2188 11.2476C24.2188 11.2476 26.1601 10.1887 28.5426 10.9829C31.0134 11.777 34.8961 13.4536 35.1608 15.9244" stroke="#111114" stroke-width="0.492849" stroke-linecap="round" stroke-linejoin="round"/>
<path d="M24.3077 11.2474C24.3077 11.2474 20.3368 11.0709 17.6895 18.748C17.6895 18.748 13.2774 24.1308 20.2486 29.0724C27.2197 34.014 30.0435 30.1313 30.0435 30.1313" stroke="#111114" stroke-width="0.492849" stroke-linecap="round" stroke-linejoin="round"/>
<path d="M22.4541 34.8963C22.4541 34.3668 21.4834 29.69 20.248 29.0723" stroke="#111114" stroke-width="0.492849" stroke-linecap="round" stroke-linejoin="round"/>
<path d="M16.5403 24.396C13.9813 25.1902 17.9522 35.4263 17.9522 35.4263C17.9522 35.4263 14.599 36.3088 11.8635 30.6613C9.12798 25.102 13.0989 23.7783 13.7166 21.0428C14.3343 18.3073 18.1287 9.2183 22.5408 11.7773" stroke="#111114" stroke-width="0.492849" stroke-linecap="round" stroke-linejoin="round"/>
<path d="M18.8359 12.1292C18.8359 12.1292 19.7184 8.07007 23.954 8.3348C28.1896 8.51128 28.7191 6.21696 32.7783 9.04072C36.8374 11.8645 38.6905 13.8058 37.0139 18.3062C36.7492 18.9239 36.1315 23.8654 33.2195 27.2187C30.3957 30.5719 31.2781 31.7191 31.2781 31.7191" stroke="#111114" stroke-width="0.492849" stroke-linecap="round" stroke-linejoin="round"/>
<path d="M37.0139 18.2178C37.0139 18.2178 40.1024 19.8944 38.6906 23.2476C37.2787 26.6008 37.6316 25.2772 35.955 28.5422C34.1902 31.8071 29.7781 34.1897 27.0425 33.8367C24.307 33.4837 21.5715 35.4251 19.9831 35.7781C18.3948 36.131 10.6294 35.3368 8.95282 33.6602C7.27621 31.8954 4.9819 30.66 5.68784 34.8074C6.39378 38.9548 10.9824 42.4845 18.6595 40.6314C26.3366 38.7783 24.3953 37.5429 29.6898 34.9839C34.9844 32.4248 34.8079 31.4542 34.8079 31.4542" stroke="#111114" stroke-width="0.492849" stroke-linecap="round" stroke-linejoin="round"/>
<path d="M7.8946 32.6899C7.8946 32.6899 4.3649 28.013 8.68879 21.7478C13.0127 15.4826 9.92418 22.542 14.4246 15.9238C14.4246 15.9238 15.307 15.3943 15.9247 15.4826" stroke="#111114" stroke-width="0.492849" stroke-linecap="round" stroke-linejoin="round"/>
<path d="M14.1597 16.4536C14.1597 16.4536 12.3066 14.3358 15.3068 11.3356C18.3071 8.33532 17.2482 6.12929 20.6896 3.0408C24.2193 -0.0476855 28.6315 1.54064 29.9551 2.77603C31.2787 4.01143 32.6906 5.51158 32.6906 5.51158" stroke="#111114" stroke-width="0.492849" stroke-linecap="round" stroke-linejoin="round"/>
<path d="M26.6016 7.9817C26.6016 7.9817 30.1313 4.80496 33.308 5.59914C36.4847 6.39332 39.0438 7.98171 40.8969 12.1291C42.7499 16.2765 43.8089 20.9534 40.1909 24.2183" stroke="#111114" stroke-width="0.492849" stroke-linecap="round" stroke-linejoin="round"/>
<path d="M38.8693 22.6299C38.6046 23.2476 41.3401 23.2476 40.4576 27.042C39.5752 30.9247 35.5161 38.4253 32.957 38.1606" stroke="#111114" stroke-width="0.492849" stroke-linecap="round" stroke-linejoin="round"/>
<path d="M35.5145 29.249C35.5145 29.249 37.5441 30.5727 34.8086 34.0141C31.9848 37.3674 29.9553 38.2498 28.5434 40.9853C27.1315 43.7208 13.7186 46.5446 10.8066 40.5441" stroke="#111114" stroke-width="0.492849" stroke-linecap="round" stroke-linejoin="round"/>
<path d="M31.2793 3.92262C31.2793 3.92262 34.5443 1.01062 40.7212 6.12869C46.81 11.2468 44.6039 9.7466 46.2805 13.0998C47.9571 16.453 47.3394 21.9241 45.9276 20.8651" stroke="#111114" stroke-width="0.492849" stroke-linecap="round" stroke-linejoin="round"/>
<path d="M42.5735 18.3066C42.5735 18.3066 46.1915 19.2773 47.0739 24.1306C47.8681 28.984 44.8678 27.2191 43.456 33.2196C42.0441 39.2201 33.0433 44.5147 28.543 40.985" stroke="#111114" stroke-width="0.492849" stroke-linecap="round" stroke-linejoin="round"/>
<path d="M27.6613 41.8669C27.6613 41.8669 28.3673 51.2206 15.1309 48.6616C1.89452 46.1025 3.04167 37.543 3.04167 37.543C3.04167 37.543 -3.04706 32.7779 3.74761 20.8652C3.74761 20.8652 8.24798 13.7176 13.6308 15.4824" stroke="#111114" stroke-width="0.492849" stroke-linecap="round" stroke-linejoin="round"/>
<path d="M5.24756 19.0123C5.24756 19.0123 2.33556 14.7767 14.2483 7.982C14.2483 7.982 15.5719 5.95245 18.4839 2.59923C21.3959 -0.753986 23.3373 1.54031 23.3373 1.54031" stroke="#111114" stroke-width="0.492849" stroke-linecap="round" stroke-linejoin="round"/>
<path d="M42.2207 7.54166C42.2207 7.54166 50.0743 6.30626 50.1625 19.4544C50.1625 32.6025 46.9858 33.132 43.4561 33.2202" stroke="#111114" stroke-width="0.492849" stroke-linecap="round" stroke-linejoin="round"/>
<path d="M24.6602 47.7786C24.6602 47.7786 24.9249 52.0142 37.8083 43.8959C50.6917 35.7776 43.7205 41.3369 46.1913 32.7773" stroke="#111114" stroke-width="0.492849" stroke-linecap="round" stroke-linejoin="round"/>
<path d="M15.1328 48.6621C15.1328 48.6621 26.1631 62.7809 46.1942 44.25C46.1942 44.25 42.5762 47.2503 36.7522 44.603" stroke="#111114" stroke-width="0.492849" stroke-linecap="round" stroke-linejoin="round"/>
<path d="M46.1914 44.25C46.1914 44.25 54.4862 36.3964 55.1921 22.9836C55.1921 22.9836 56.604 16.6301 48.6622 11.4238" stroke="#111114" stroke-width="0.492849" stroke-linecap="round" stroke-linejoin="round"/>
</svg>
