<svg width="44" height="47" viewBox="0 0 44 47" fill="none" xmlns="http://www.w3.org/2000/svg">
<path d="M43.0501 8.18268C40.3146 8.18268 37.4908 8.18268 34.7553 8.18268C35.1965 6.32959 35.5495 4.4765 35.9907 2.62341C34.2259 3.41759 32.6375 4.65298 31.3139 6.15311C29.1078 4.4765 27.1665 2.53516 25.4899 0.329102C24.8722 2.97638 25.4898 5.80014 27.0782 7.82972C30.6962 12.4183 38.638 12.1536 43.0501 8.09444V8.18268Z" fill="#FFEC2D" stroke="#111114" stroke-width="0.492849" stroke-linecap="round" stroke-linejoin="round"/>
<path d="M1.7512 27.6837C0.16283 29.978 3.51605 29.7133 4.04551 31.2134C4.57496 32.6253 8.01642 33.4195 7.04575 34.1254C6.07508 34.8314 8.28114 37.3022 11.0167 39.9494C13.7522 42.5967 17.4584 40.4789 17.4584 40.4789C17.4584 40.4789 18.8702 43.9204 21.7822 46.0382C24.7825 48.156 26.7238 42.5967 26.7238 42.5967C27.3415 42.5085 30.6065 43.4791 36.6952 34.6549C42.784 25.8306 38.8131 26.0071 39.3425 18.7712C39.872 11.4471 30.5183 8.97632 29.9006 8.44686C20.6351 0.59328 16.0465 11.1824 10.3107 15.0651C4.4867 18.9477 2.28063 23.7128 1.04524 25.8306C-0.190156 27.8602 1.83944 27.6837 1.83944 27.6837" fill="#FFEC2D"/>
<path d="M1.7512 27.6837C0.16283 29.978 3.51605 29.7133 4.04551 31.2134C4.57496 32.6253 8.01642 33.4195 7.04575 34.1254C6.07508 34.8314 8.28114 37.3022 11.0167 39.9494C13.7522 42.5967 17.4584 40.4789 17.4584 40.4789C17.4584 40.4789 18.8702 43.9204 21.7822 46.0382C24.7825 48.156 26.7238 42.5967 26.7238 42.5967C27.3415 42.5085 30.6065 43.4791 36.6952 34.6549C42.784 25.8306 38.8131 26.0071 39.3425 18.7712C39.872 11.4471 30.5183 8.97632 29.9006 8.44686C20.6351 0.59328 16.0465 11.1824 10.3107 15.0651C4.4867 18.9477 2.28063 23.7128 1.04524 25.8306C-0.190156 27.8602 1.83944 27.6837 1.83944 27.6837" stroke="#111114" stroke-width="0.563256" stroke-miterlimit="10"/>
<path d="M26.7241 42.5976C26.7241 42.5976 24.7828 48.1568 21.7825 46.039C18.7823 43.9212 17.4586 40.4797 17.4586 40.4797C17.4586 40.4797 13.7525 42.5976 11.0169 39.9503C8.28142 37.303 6.07536 34.8322 7.04603 34.1263C8.0167 33.4203 4.57524 32.7144 4.04579 31.2143C3.51633 29.7141 0.0748695 30.0671 1.75148 27.6846" fill="#FFEC2D"/>
<path d="M26.7241 42.5976C26.7241 42.5976 24.7828 48.1568 21.7825 46.039C18.7823 43.9212 17.4586 40.4797 17.4586 40.4797C17.4586 40.4797 13.7525 42.5976 11.0169 39.9503C8.28142 37.303 6.07536 34.8322 7.04603 34.1263C8.0167 33.4203 4.57524 32.7144 4.04579 31.2143C3.51633 29.7141 0.0748695 30.0671 1.75148 27.6846" stroke="#111114" stroke-width="0.492849" stroke-linecap="round" stroke-linejoin="round"/>
<path d="M19.8398 31.4793C19.8398 31.4793 17.2808 38.4505 12.9569 38.627C8.633 38.7152 12.9569 33.1559 12.9569 33.1559L18.075 28.832" fill="#FF6A37"/>
<path d="M19.8398 31.4793C19.8398 31.4793 17.2808 38.4505 12.9569 38.627C8.633 38.7152 12.9569 33.1559 12.9569 33.1559L18.075 28.832" stroke="#111114" stroke-width="0.492849" stroke-linecap="round" stroke-linejoin="round"/>
<path d="M20.9 31.8311C20.9 31.8311 17.2821 38.5375 20.1941 41.626C23.1061 44.6262 23.1943 42.6849 23.1943 42.6849C23.1943 42.6849 22.6649 35.5372 23.7238 32.2723" fill="#FF6A37"/>
<path d="M20.9 31.8311C20.9 31.8311 17.2821 38.5375 20.1941 41.626C23.1061 44.6262 23.1943 42.6849 23.1943 42.6849C23.1943 42.6849 22.6649 35.5372 23.7238 32.2723" stroke="#111114" stroke-width="0.492849" stroke-linecap="round" stroke-linejoin="round"/>
<path d="M17.9893 27.9484C17.9893 27.9484 11.5476 34.4783 8.45914 32.7135C5.37065 30.9486 5.45889 30.5074 5.63537 30.4192C5.81186 30.3309 6.78253 29.4485 7.1355 29.4485C7.48847 29.4485 8.63562 29.9779 11.0182 28.6543C13.4007 27.3307 15.7833 26.4482 15.7833 26.4482" fill="#FF6A37"/>
<path d="M17.9893 27.9484C17.9893 27.9484 11.5476 34.4783 8.45914 32.7135C5.37065 30.9486 5.45889 30.5074 5.63537 30.4192C5.81186 30.3309 6.78253 29.4485 7.1355 29.4485C7.48847 29.4485 8.63562 29.9779 11.0182 28.6543C13.4007 27.3307 15.7833 26.4482 15.7833 26.4482" stroke="#111114" stroke-width="0.492849" stroke-linecap="round" stroke-linejoin="round"/>
<path d="M29.8123 8.44686C30.43 8.97632 39.7837 11.4471 39.2543 18.7712C38.7248 26.0954 42.6957 25.9189 36.607 34.6549C30.5183 43.4791 27.3415 42.5085 26.6356 42.5967C25.9296 42.685 23.4588 41.0966 24.8707 39.2435C26.2826 37.3904 26.9003 35.2726 26.7238 34.4784C26.5473 33.6842 26.1061 33.6842 25.3119 33.1548C23.9883 32.2723 22.1352 31.2134 21.694 31.2134C20.9881 31.2134 20.9881 32.8018 19.9292 31.4782C18.8702 30.1545 18.782 29.4486 18.2525 28.7426C17.7231 28.0367 18.6055 27.3308 17.1936 26.8896C15.7818 26.4483 15.2523 26.4483 14.6346 26.3601C13.9287 26.3601 14.6346 24.6835 13.0462 25.9189C11.4579 27.066 9.69302 27.5072 9.69302 27.5072L5.98683 27.772C5.98683 27.772 5.63385 26.8013 4.57494 27.066C3.51603 27.3308 1.83944 27.6837 1.83944 27.6837C1.83944 27.6837 -0.190156 27.8602 1.04524 25.8306C2.28063 23.8011 4.57494 19.036 10.3107 15.0651C16.1347 11.1824 20.6351 0.59328 29.9006 8.44686H29.8123Z" fill="#D793FF" stroke="#111114" stroke-width="0.492849" stroke-linecap="round" stroke-linejoin="round"/>
<path d="M26.5488 34.3899C28.6666 32.5368 29.6373 29.7131 30.0785 26.8893C30.5197 24.0656 30.4315 21.2418 30.6962 18.418C30.9609 15.5943 31.6669 12.7705 33.4317 10.5645" stroke="#111114" stroke-width="0.492849" stroke-linecap="round" stroke-linejoin="round"/>
<path d="M14.1914 25.0371C18.5153 18.8602 23.8098 13.3009 29.7221 8.62402" stroke="#111114" stroke-width="0.492849" stroke-linecap="round" stroke-linejoin="round"/>
<path d="M33.8711 10.2119C34.3123 9.77066 34.93 9.77066 35.4594 9.77066C36.3419 9.50594 37.2243 9.15296 38.195 9.50593C37.3125 10.0354 36.4301 9.77066 35.4594 9.94715C34.93 10.2119 34.4888 10.3884 33.8711 10.2119Z" fill="#111114"/>
<path d="M32.1094 9.15408C32.1094 8.53638 32.4623 8.18341 32.9036 7.7422C33.2565 6.94801 33.433 6.06559 34.3154 5.53613C34.3154 6.5068 33.5213 7.1245 32.9918 7.83044C32.8153 8.3599 32.6388 8.80111 32.1094 9.15408Z" fill="#111114"/>
<path d="M29.5491 7.91861C28.9314 7.56564 28.5784 7.03618 28.3137 6.41848C27.6077 5.53606 26.7253 4.83012 26.5488 3.59473C27.4313 4.30067 27.7842 5.35958 28.4019 6.33024C28.9314 6.77146 29.3726 7.21267 29.5491 7.91861Z" fill="#111114"/>
<path d="M18.9586 30.5088C18.5174 31.3912 17.8114 32.0089 17.0173 32.6266C15.9584 33.862 15.0759 35.3621 13.6641 36.0681C14.37 34.5679 15.7819 33.5973 16.929 32.5384C17.4585 31.8324 18.1644 30.7735 18.9586 30.5088Z" fill="#111114"/>
<path d="M17.283 27.1556C16.4888 27.8616 15.6063 28.3028 14.7239 28.6558C13.312 29.5382 12.1649 30.7736 10.4883 31.3913C11.3707 29.9794 13.2238 29.2734 14.6357 28.4793C15.4299 27.8616 16.4005 27.0674 17.283 27.0674V27.1556Z" fill="#111114"/>
<path d="M22.9305 32.0967C22.754 32.9791 22.3128 33.7733 21.9598 34.5675C21.6068 35.9793 21.9598 37.4795 21.6951 38.9796C20.9009 37.5677 21.3421 35.9793 21.6951 34.5675C21.7833 33.685 22.048 32.7144 22.754 32.0967H22.9305Z" fill="#111114"/>
<path d="M29.4598 7.91895C25.0477 9.0661 21.7827 12.5076 18.7825 15.6843C15.694 19.0375 12.5173 22.2142 9.16406 25.2145C12.1643 21.773 15.3411 18.5963 18.606 15.596C21.871 12.7723 24.8712 8.09543 29.5481 8.00719L29.4598 7.91895Z" fill="#111114"/>
<path d="M28.4021 7.30078C23.7252 7.83024 19.7543 10.7422 16.5776 14.0955C13.3126 17.4487 9.95939 20.7136 6.42969 23.8021C9.60642 20.3607 12.9597 17.0957 16.4011 14.0072C19.7543 11.007 23.637 6.85957 28.4021 7.38903V7.30078Z" fill="#111114"/>
<path d="M31.5789 9.15368C29.9905 11.1833 28.1374 12.9481 26.2843 14.713C23.4606 17.8897 21.078 21.5076 18.166 24.5961C20.1956 20.8017 23.2841 17.7132 26.1078 14.5365C27.6962 12.5951 29.461 10.3891 31.4906 9.06543L31.5789 9.15368Z" fill="#111114"/>
<path d="M32.9895 9.59375C31.3129 11.3586 29.6363 13.0352 28.1362 14.8883C25.8419 18.1533 24.6065 22.0359 23.3711 25.8304C23.7241 21.7712 25.6654 18.065 28.0479 14.8001C29.2833 12.8587 31.0482 10.6527 32.9895 9.59375Z" fill="#111114"/>
<path d="M33.0784 9.86035C30.9605 13.0371 28.7545 16.2138 27.6956 19.92C26.5484 23.6262 25.7542 27.3324 24.6953 30.9503C25.2248 27.1559 26.0189 23.3615 27.5191 19.8318C28.9309 16.3903 30.3428 12.2429 33.1666 9.86035H33.0784Z" fill="#111114"/>
<path d="M34.225 10.5664C33.872 13.0372 35.1957 15.155 35.9899 17.4493C38.3724 24.597 35.4604 32.1858 30.6953 37.6569C34.3133 31.8329 38.6371 24.597 35.6369 17.6258C34.8427 15.508 33.4308 12.7725 34.3133 10.6546L34.225 10.5664Z" fill="#111114"/>
<path d="M34.4907 11.0068C32.7258 13.8306 33.6965 17.2721 34.1377 20.3605C34.5789 23.6255 33.7847 27.067 31.9316 29.7142C33.2553 26.8022 33.9612 23.6255 33.9612 20.4488C33.9612 17.978 32.6376 15.5954 33.3435 13.2129C33.52 12.507 33.9612 11.448 34.5789 11.0951L34.4907 11.0068Z" fill="#111114"/>
</svg>
