<svg width="136" height="216" viewBox="0 0 136 216" fill="none" xmlns="http://www.w3.org/2000/svg">
<path d="M63.1766 85.8742C63.1766 85.8742 48.5507 103.901 40.499 118.801C32.4473 133.701 -0.0364477 198.739 0.860682 200.473L4.97547 202.408C4.04196 198.542 41.2181 127.607 41.2181 127.607C47.5983 113.105 67.6646 89.6803 67.6646 89.6803" fill="#00D675"/>
<path d="M63.1766 85.8742C63.1766 85.8742 48.5507 103.901 40.499 118.801C32.4473 133.701 -0.0364477 198.739 0.860682 200.473L4.97547 202.408C4.04196 198.542 41.2181 127.607 41.2181 127.607C47.5983 113.105 67.6646 89.6803 67.6646 89.6803" stroke="#111114" stroke-width="0.633663" stroke-linecap="round" stroke-linejoin="round"/>
<path d="M43.7703 112.118C43.7703 112.118 40.5728 96.4142 41.7223 92.0995C41.7223 92.0995 42.4622 83.7811 33.7835 80.2598C25.192 76.8507 23.9455 75.4782 23.9455 75.4782L22.0377 74.5294C22.0377 74.5294 20.3033 76.2372 21.9739 77.4603C23.6446 78.6833 24.3308 78.0601 25.3156 79.0958C26.3004 80.1314 29.705 80.4573 29.5176 81.1432C29.3302 81.8291 31.4246 83.7133 31.4246 83.7133L33.8053 86.5456L36.3973 90.9246L38.8027 94.368L41.3363 116.17" fill="#00D675"/>
<path d="M43.7703 112.118C43.7703 112.118 40.5728 96.4142 41.7223 92.0995C41.7223 92.0995 42.4622 83.7811 33.7835 80.2598C25.192 76.8507 23.9455 75.4782 23.9455 75.4782L22.0377 74.5294C22.0377 74.5294 20.3033 76.2372 21.9739 77.4603C23.6446 78.6833 24.3308 78.0601 25.3156 79.0958C26.3004 80.1314 29.705 80.4573 29.5176 81.1432C29.3302 81.8291 31.4246 83.7133 31.4246 83.7133L33.8053 86.5456L36.3973 90.9246L38.8027 94.368L41.3363 116.17" stroke="#111114" stroke-width="0.633663" stroke-linecap="round" stroke-linejoin="round"/>
<path d="M26.989 152.98C26.989 152.98 35.8697 151.662 39.1762 148.733C39.1762 148.733 46.3248 144.259 53.2562 150.399C60.2873 156.551 61.9584 156.963 61.9584 156.963L63.629 158.186C63.629 158.186 62.942 160.431 61.0217 159.582C59.1014 158.733 59.3264 157.748 58.0545 157.385C56.7825 157.023 54.8133 154.141 54.3517 154.59C53.89 155.039 51.1841 153.99 51.1841 153.99L47.5427 153.127L42.5167 152.801L38.4261 152.287L24.368 156.908" fill="#00D675"/>
<path d="M26.989 152.98C26.989 152.98 35.8697 151.662 39.1762 148.733C39.1762 148.733 46.3248 144.259 53.2562 150.399C60.2873 156.551 61.9584 156.963 61.9584 156.963L63.629 158.186C63.629 158.186 62.942 160.431 61.0217 159.582C59.1014 158.733 59.3264 157.748 58.0545 157.385C56.7825 157.023 54.8133 154.141 54.3517 154.59C53.89 155.039 51.1841 153.99 51.1841 153.99L47.5427 153.127L42.5167 152.801L38.4261 152.287L24.368 156.908" stroke="#111114" stroke-width="0.633663" stroke-linecap="round" stroke-linejoin="round"/>
<path d="M33.4289 142.843C33.4289 142.843 45.4075 131.375 54.7866 130.931C54.7866 130.931 64.2367 112.963 82.0053 120.767C82.0053 120.767 103.651 131.591 107.228 136.194C107.228 136.194 102.837 138.886 97.2359 141.527C91.6222 144.269 73.8326 153.589 55.8316 136.331C55.8316 136.331 55.5085 134.061 53.7995 134.759C52.0905 135.457 51.2689 132.313 44.4689 138.047C37.6689 143.781 34.0525 142.719 31.6811 146.272" fill="#00D675"/>
<path d="M33.4289 142.843C33.4289 142.843 45.4075 131.375 54.7866 130.931C54.7866 130.931 64.2367 112.963 82.0053 120.767C82.0053 120.767 103.651 131.591 107.228 136.194C107.228 136.194 102.837 138.886 97.2359 141.527C91.6222 144.269 73.8326 153.589 55.8316 136.331C55.8316 136.331 55.5085 134.061 53.7995 134.759C52.0905 135.457 51.2689 132.313 44.4689 138.047C37.6689 143.781 34.0525 142.719 31.6811 146.272" stroke="#111114" stroke-width="0.633663" stroke-linecap="round" stroke-linejoin="round"/>
<path d="M101.655 136.206C90.0976 128.979 75.6666 130.918 62.7079 131.622C60.7622 131.783 58.9038 132.057 57.0453 132.33C58.9163 131.957 60.7873 131.584 62.6457 131.31C75.4674 130.082 90.497 128.218 101.556 136.193L101.655 136.206Z" fill="#111114"/>
<path d="M58.8164 131.943C61.9198 136.285 66.0463 139.742 70.435 142.725C65.6343 140.602 61.1588 136.696 58.8164 131.943Z" fill="#111114"/>
<path d="M61.75 132.008C65.4641 137.136 73.8076 137.676 75.9246 144.225C73.0215 138.287 64.8651 137.871 61.75 132.008Z" fill="#111114"/>
<path d="M65.1543 131.523C69.093 136.477 76.9619 138.376 79.129 144.526L78.9795 144.102L79.2287 144.539C75.864 139.049 68.6063 137.125 65.1418 131.623L65.1543 131.523Z" fill="#111114"/>
<path d="M68.6348 131.25C72.9479 135.642 80.9169 136.744 82.7221 143.355C80.1434 137.255 72.3489 136.378 68.6348 131.25Z" fill="#111114"/>
<path d="M71.9141 130.953C75.0566 131.753 77.9867 133.438 80.3428 135.659C82.7114 137.781 84.0193 141.086 87.0993 142.385C86.3011 142.285 85.5405 141.885 84.8922 141.398C82.9473 139.938 81.6014 137.743 79.8686 136.208C77.5125 133.987 74.7819 132.326 71.9015 131.053L71.9141 130.953Z" fill="#111114"/>
<path d="M77.127 130.594C83.2751 131.669 84.6804 139.852 90.6912 141.214C84.2684 140.712 82.7633 132.517 77.127 130.594Z" fill="#111114"/>
<path d="M81.8789 130.683C84.1114 130.659 85.4698 132.755 86.1548 134.564C87.7124 137.495 90.6049 139.48 93.76 140.18C91.0286 140.141 88.3728 138.693 86.7151 136.559C85.0449 134.526 84.8469 131.258 81.8789 130.683Z" fill="#111114"/>
<path d="M86.7051 130.984C89.0995 131.285 90.6325 133.605 91.6043 135.552C92.6885 137.41 94.5336 138.858 96.7782 139.545C94.4585 139.457 92.2143 137.959 91.0554 135.888C89.9963 133.83 88.9246 131.871 86.7051 130.984Z" fill="#111114"/>
<path d="M91.0703 131.735C93.0532 132.086 94.7113 133.408 95.9328 134.98C97.0545 136.54 97.3902 138.71 99.3229 139.46C97.2278 139.197 96.4058 136.864 95.3713 135.417C94.2496 133.857 92.7785 132.659 91.0703 131.735Z" fill="#111114"/>
<path d="M97.5664 134.071C98.9006 134.745 99.8478 136.08 100.059 137.627C98.9745 136.579 98.2018 135.468 97.5664 134.071Z" fill="#111114"/>
<path d="M99.214 134.683C99.8255 133.847 100.861 133.673 101.709 134.185C100.835 134.683 100.212 134.808 99.214 134.683Z" fill="#111114"/>
<path d="M57.6952 132.005C57.746 129.985 58.7074 127.977 60.3667 126.868C59.5302 128.688 58.7187 130.309 57.6952 132.005Z" fill="#111114"/>
<path d="M60.4639 131.746C61.239 127.992 63.6104 124.439 66.8167 122.308C64.2212 125.225 62.1119 128.304 60.4639 131.746Z" fill="#111114"/>
<path d="M63.2547 131.285C64.8033 127.021 67.8982 123.355 71.8279 121.112C68.5089 124.141 65.6512 127.532 63.2547 131.285Z" fill="#111114"/>
<path d="M67.0349 131.05C68.2345 126.336 72.5767 122.422 77.4286 121.714C72.8631 123.37 69.2072 126.661 67.0349 131.05Z" fill="#111114"/>
<path d="M70.8158 130.816C72.9004 127.125 76.5935 124.345 80.6723 123.337C76.8924 125.194 73.636 127.724 70.8158 130.816Z" fill="#111114"/>
<path d="M75.1177 130.443C77.1147 127.451 80.4333 125.232 83.9757 124.461C80.7197 126.18 77.95 128.062 75.1177 130.443Z" fill="#111114"/>
<path d="M79.2707 130.458C81.3796 128.189 84.1242 126.507 87.068 125.66C84.5104 127.468 81.9903 128.976 79.2707 130.458Z" fill="#111114"/>
<path d="M82.6611 130.885C84.7946 129.227 87.0028 127.782 89.373 126.66C87.5138 128.555 85.2058 129.988 82.6611 130.885Z" fill="#111114"/>
<path d="M86.0067 130.898C87.5041 129.464 89.5499 128.505 91.7077 128.269C89.8488 129.353 88.1148 130.25 86.0067 130.898Z" fill="#111114"/>
<path d="M90.3841 131.548C91.7316 130.501 93.0415 129.753 94.551 129.03C93.565 130.427 92.0305 131.349 90.3841 131.548Z" fill="#111114"/>
<path d="M93.7109 132.473C94.734 131.588 95.7071 131.102 96.9794 130.654C96.3303 131.789 95.0204 132.536 93.7109 132.473Z" fill="#111114"/>
<path d="M96.7422 133.36C97.254 132.512 97.9152 132.089 98.8507 131.902C98.5385 132.775 97.7524 133.386 96.7422 133.36Z" fill="#111114"/>
<path d="M119.693 78.0694C121.426 77.983 122.923 77.3601 123.685 76.1382C133.553 70.9921 125.85 61.3102 125.85 61.3102C124.965 60.287 123.955 59.4509 123.045 58.6273C126.175 58.7162 127.45 53.4038 127.45 53.4038C128.615 43.3145 117.079 41.5628 115.483 41.3625C115.483 41.3625 115.383 41.3499 115.283 41.3374C116.119 40.3276 116.955 39.3178 117.804 38.2082C127.227 24.4937 114.817 24.8618 114.817 24.8618C108.282 25.2577 103.242 26.6521 99.3628 28.496C99.2631 28.4835 99.0635 28.4585 98.9638 28.446C103.469 22.4242 99.6587 9.98782 91.2781 8.93608C83.2966 7.93442 82.4557 18.6724 82.3551 20.2812C81.4705 18.4474 80.3739 16.6883 78.7408 15.1659C68.9173 6.23121 70.3981 13.0042 70.3981 13.0042C70.3981 13.0042 62.032 7.79931 63.5476 19.9477C63.9451 23.2405 64.8419 25.7852 66.0007 27.8561C66.0007 27.8561 66.0007 27.8561 65.9882 27.9559L66.0258 27.6566C66.0258 27.6566 56.2532 16.7014 50.5377 23.4834C44.8348 30.1655 46.1807 32.3613 51.0678 36.2175C53.3742 38.027 56.8528 40.1864 60.1444 42.2209C60.1444 42.2209 60.1319 42.3207 60.1193 42.4204C56.7151 41.2838 41.6636 36.8614 37.7565 43.7689C33.3502 51.4245 38.3617 55.9044 38.3617 55.9044C38.3617 55.9044 40.0699 56.8282 42.6263 57.453C42.6263 57.453 42.6013 57.6526 42.5888 57.7523C41.9898 58.4879 40.2549 61.0063 42.8732 62.7537C43.2472 63.0033 43.5215 63.2404 43.696 63.465C43.6584 63.7643 43.5211 64.0511 43.4835 64.3504C42.5977 64.9486 40.3899 65.5836 40.9376 67.6792C41.7342 71.022 43.5285 74.4901 49.578 73.1211C49.578 73.1211 49.6778 73.1337 49.7776 73.1462C49.1531 74.892 48.6906 76.9621 48.6022 79.2818C48.6022 79.2818 48.9742 83.5848 53.9271 80.4568C53.9271 80.4568 54.1517 80.2823 54.2515 80.2948L53.9271 80.4568C53.9271 80.4568 49.322 86.466 56.1815 86.7188C56.1815 86.7188 58.4265 86.5952 59.4246 85.9097C58.6135 86.72 56.5919 89.1011 60.3326 90.7867C62.6269 91.8853 65.6454 91.2507 68.5149 89.3813C68.5149 89.3813 67.3153 94.0951 73.2138 95.5448C79.1123 96.9944 81.0823 98.255 81.0823 98.255C81.0823 98.255 84.8856 99.4417 84.7389 93.3429C87.2938 97.2104 90.4606 99.432 92.2185 100.767C95.647 103.326 92.2185 100.767 98.7543 99.5608C105.078 98.4289 101.107 83.2362 100.833 82.1884C101.369 82.7624 109.733 92.0206 113.275 92.0598C116.917 92.1114 118.641 86.45 118.641 86.45C118.641 86.45 121.199 83.0215 119.967 78.3065L119.693 78.0694Z" fill="#FF97B5"/>
<path d="M75.0014 42.567C75.0014 42.567 80.2779 40.8983 86.9111 44.5683C89.2802 45.879 91.8609 47.9257 94.4286 50.8828C94.4286 50.8828 100.385 61.5617 92.4499 67.457C84.5149 73.3523 74.5286 65.7146 74.5286 65.7146C74.5286 65.7146 60.4135 59.4843 69.0254 46.58C69.0254 46.58 72.8437 42.8029 75.0139 42.4672L75.0014 42.567Z" fill="#FFEC2D" stroke="#111114" stroke-width="0.633663" stroke-miterlimit="10"/>
<path d="M86.9097 44.566C86.9097 44.566 87.8042 26.1329 114.857 24.5622C114.857 24.5622 127.354 24.3065 117.843 37.9087C108.42 51.6232 94.4272 50.8805 94.4272 50.8805" stroke="#111114" stroke-width="0.633663" stroke-linecap="round" stroke-linejoin="round"/>
<path d="M96.1835 55.4585C99.3891 54.9487 113.374 47.6844 125.964 61.2226C125.964 61.2226 134.8 73.175 119.707 77.9693C119.707 77.9693 121.693 71.8341 95.3935 64.1759C95.3935 64.1759 116.057 69.9107 118.86 75.8362C121.763 81.7743 118.381 86.1129 118.381 86.1129C118.381 86.1129 116.657 91.7743 113.015 91.7226C109.374 91.6709 100.573 81.8512 100.573 81.8512C100.573 81.8512 97.086 71.6849 90.2403 68.9003" stroke="#111114" stroke-width="0.633663" stroke-linecap="round" stroke-linejoin="round"/>
<path d="M115.4 41.2509C115.4 41.2509 128.819 42.5296 127.567 53.3172C127.567 53.3172 126.28 58.7294 123.062 58.5283" stroke="#111114" stroke-width="0.633663" stroke-linecap="round" stroke-linejoin="round"/>
<path d="M79.0703 68.3096C80.8908 69.1461 80.1505 78.2752 80.1505 78.2752C80.2811 91.7699 88.6343 97.8852 92.0628 100.444C95.4913 103.002 92.0628 100.444 98.5987 99.237C105.135 98.0305 100.678 81.8647 100.678 81.8647" stroke="#111114" stroke-width="0.633663" stroke-linecap="round" stroke-linejoin="round"/>
<path d="M68.01 60.3337C68.01 60.3337 49.127 61.4095 48.4449 78.9572C48.4449 78.9572 48.817 83.2602 53.7698 80.1322C58.7227 77.0041 63.4151 71.1072 65.8608 68.5766C68.3065 66.046 71.6874 64.1395 71.6874 64.1395" stroke="#111114" stroke-width="0.633663" stroke-linecap="round" stroke-linejoin="round"/>
<path d="M53.6682 80.1194C53.6682 80.1194 49.0631 86.1286 55.9225 86.3814C55.9225 86.3814 58.5666 86.3079 59.4027 85.2981C59.4027 85.2981 55.5723 88.3643 60.0737 90.4493C64.575 92.5343 71.449 88.634 75.369 80.816C75.369 80.816 80.7241 71.2526 78.1939 67.9962" stroke="#111114" stroke-width="0.633663" stroke-linecap="round" stroke-linejoin="round"/>
<path d="M68.2451 89.1447C68.2451 89.1447 67.0455 93.8585 72.944 95.3081C78.8425 96.7577 80.8125 98.0184 80.8125 98.0184C80.8125 98.0184 84.6158 99.2051 84.3944 92.8942" stroke="#111114" stroke-width="0.633663" stroke-linecap="round" stroke-linejoin="round"/>
<path d="M81.9736 42.7308C81.9736 42.7308 88.5929 23.9014 78.7694 14.9667C68.9459 6.03198 70.4267 12.805 70.4267 12.805C70.4267 12.805 62.0606 7.60007 63.5762 19.7485C65.0919 31.8969 73.2354 33.2229 74.9893 42.665" stroke="#111114" stroke-width="0.633663" stroke-linecap="round" stroke-linejoin="round"/>
<path d="M82.4704 20.1941C82.4704 20.1941 82.8258 7.67249 91.4184 8.64951C99.9986 9.72629 103.821 22.8736 98.6299 28.7079" stroke="#111114" stroke-width="0.633663" stroke-linecap="round" stroke-linejoin="round"/>
<path d="M65.9523 27.4449C65.9523 27.4449 56.1796 16.4898 50.4642 23.2717C44.7612 29.9539 46.1071 32.1496 50.9942 36.0058C55.8813 39.862 66.0934 44.8932 68.1122 48.1868" stroke="#111114" stroke-width="0.633663" stroke-linecap="round" stroke-linejoin="round"/>
<path d="M60.7469 42.2949C60.7469 42.2949 42.1171 35.7005 37.7107 43.3562C33.3044 51.0118 38.3159 55.4916 38.3159 55.4916C38.3159 55.4916 42.3184 57.514 46.9704 57.5911C51.6224 57.6683 58.2217 54.3415 66.6015 57.0146" stroke="#111114" stroke-width="0.633663" stroke-linecap="round" stroke-linejoin="round"/>
<path d="M42.6691 57.1552C42.6691 57.1552 39.6368 60.3215 42.8287 62.3436C46.0205 64.3656 40.0093 63.8139 40.7933 67.2565C41.5774 70.6991 43.4714 74.1797 49.6458 72.6237" stroke="#111114" stroke-width="0.633663" stroke-linecap="round" stroke-linejoin="round"/>
<path d="M89.3075 44.8687C90.2094 36.8746 97.8205 30.3306 105.89 30.6338C98.0818 31.4781 91.2693 37.3116 89.3075 44.8687Z" fill="#111114"/>
<path d="M90.5032 46.6413C91.927 42.5637 94.8098 38.9732 98.54 36.7051C95.5203 39.7717 92.8872 42.9882 90.5032 46.6413Z" fill="#111114"/>
<path d="M92.2852 47.7767C96.2028 44.8228 99.6591 41.5069 102.766 37.7419C100.494 42.1185 96.7013 45.6961 92.2852 47.7767Z" fill="#111114"/>
<path d="M93.8193 49.2857C100.793 46.2085 106.782 41.285 111.112 35.0387C107.717 41.9091 101.179 47.169 93.8193 49.2857Z" fill="#111114"/>
<path d="M96.0031 52.904C103.474 51.5108 110.759 49.1821 117.758 45.9054C111.258 50.0554 103.661 52.4463 96.0031 52.904Z" fill="#111114"/>
<path d="M96.8078 57.7691C103.407 54.4423 112.012 55.3196 117.71 59.9869C111.488 56.2672 103.681 55.4901 96.8078 57.7691Z" fill="#111114"/>
<path d="M96.7343 59.988C99.7782 58.3432 103.645 58.2203 106.799 59.731C103.407 59.3053 100.164 59.3037 96.7343 59.988Z" fill="#111114"/>
<path d="M96.8947 61.9352C104.241 61.5397 111.81 63.4017 118.107 67.3334C111.386 64.3618 104.215 62.5499 96.8947 61.9352Z" fill="#111114"/>
<path d="M93.8763 66.622C100.574 66.5504 107.27 69.7215 111.495 74.8122C106.571 70.4446 100.436 67.6479 93.8763 66.622Z" fill="#111114"/>
<path d="M92.4018 68.6673C98.7373 69.057 104.847 72.864 107.9 78.4155C103.948 73.5619 98.5124 70.0422 92.4018 68.6673Z" fill="#111114"/>
<path d="M88.1855 69.9629C94.4201 72.7721 98.6323 79.5839 98.392 86.3435C97.4973 79.7454 93.6963 73.6947 88.1855 69.9629Z" fill="#111114"/>
<path d="M85.6172 70.2471C89.545 72.0574 92.3741 76.1621 92.7587 80.3653C91.3388 76.3362 88.9334 72.8927 85.6172 70.2471Z" fill="#111114"/>
<path d="M82.7617 69.5859C87.4109 75.3378 90.4631 82.5106 91.2576 89.9069C89.4153 82.7845 86.5251 75.936 82.7617 69.5859Z" fill="#111114"/>
<path d="M81.875 69.3721C82.7079 74.8477 84.0648 80.1863 86.0578 85.3007C83.204 80.585 81.6852 74.922 81.875 69.3721Z" fill="#111114"/>
<path d="M79.1177 72.7761C79.2765 79.5858 76.3921 86.419 71.5382 91.1809C75.6566 85.82 78.2788 79.4606 79.1177 72.7761Z" fill="#111114"/>
<path d="M79.803 77.8276C78.9528 82.1799 78.7137 86.5075 78.961 90.9975C77.6785 86.6816 77.9676 81.9549 79.803 77.8276Z" fill="#111114"/>
<path d="M69.1701 62.4074C64.9665 63.6026 61.1118 65.2471 57.2944 67.4028C60.4138 64.3487 64.7924 62.5674 69.1701 62.4074Z" fill="#111114"/>
<path d="M70.5761 63.294C65.2617 66.0726 60.3836 69.4127 55.7421 73.2892C59.6605 68.7139 64.863 65.2119 70.5761 63.294Z" fill="#111114"/>
<path d="M73.0593 65.3279C68.3055 69.2916 64.2873 73.8544 61.0047 79.0162C63.3397 73.3301 67.7073 68.4058 73.0593 65.3279Z" fill="#111114"/>
<path d="M74.853 66.3638C72.2445 70.1914 69.4615 73.7944 66.4042 77.1603C68.6387 73.0831 71.5215 69.4926 74.853 66.3638Z" fill="#111114"/>
<path d="M76.8379 67.5249C76.3105 74.9579 71.4679 82.0521 64.6816 85.254C70.8697 81.1663 75.2255 74.7204 76.8379 67.5249Z" fill="#111114"/>
<path d="M66.2285 57.5795C60.6027 59.6097 54.6032 60.5796 48.5419 60.4269C52.9823 59.7681 61.7757 58.3381 66.2285 57.5795Z" fill="#111114"/>
<path d="M62.8095 60.5955C57.533 62.2642 51.9072 64.2944 46.693 66.2749C51.5335 63.2341 57.1469 61.3037 62.8095 60.5955Z" fill="#111114"/>
<path d="M66.9931 49.8717C60.7096 45.0296 52.579 42.7931 44.6464 43.8244C52.4174 41.6581 61.3337 44.0945 66.9931 49.8717Z" fill="#111114"/>
<path d="M66.4185 52.0292C62.3413 49.7948 58.1889 48.1589 53.6747 46.9843C58.3141 47.1612 62.9403 49.0592 66.4185 52.0292Z" fill="#111114"/>
<path d="M66.2061 53.7245C59.3839 53.9831 52.562 53.431 45.9275 52.193C52.4751 52.508 59.7086 53.0104 66.2061 53.7245Z" fill="#111114"/>
<path d="M72.9076 43.1148C70.291 38.1248 66.9133 33.5459 62.7246 29.7773C67.5123 32.8104 71.2515 37.7386 72.9076 43.1148Z" fill="#111114"/>
<path d="M70.9126 44.4854C69.2929 41.2419 67.2114 38.4472 64.4688 36.0762C67.8355 37.5121 70.3532 40.8683 70.9126 44.4854Z" fill="#111114"/>
<path d="M69.166 46.2939C65.876 41.0166 61.4631 36.6119 56.2266 33.1172C61.9873 35.6643 66.7493 40.5182 69.166 46.2939Z" fill="#111114"/>
<path d="M76.2746 42.1196C76.8514 35.9089 69.8938 32.4009 69.323 26.4515C69.2236 25.6283 69.3363 24.7304 69.636 23.9573C68.7595 30.9411 78.2861 34.9742 76.3744 42.1322L76.2746 42.1196Z" fill="#111114"/>
<path d="M77.5011 42.0696C79.2869 37.5307 75.5097 33.7125 74.6263 29.4466C74.3027 27.9873 74.4158 26.2787 75.1897 24.957C73.3285 30.9052 81.071 36.2345 77.6009 42.0822L77.5011 42.0696Z" fill="#111114"/>
<path d="M79.3064 42.1936C82.814 36.0467 75.7832 29.0839 79.4779 23.0618C76.7684 29.3089 83.7866 36.3714 79.3064 42.1936Z" fill="#111114"/>
<path d="M83.4857 42.8211C85.6596 35.1894 87.2473 27.3827 88.0494 19.3761C88.2575 27.4081 86.6447 35.4143 83.4857 42.8211Z" fill="#111114"/>
<path d="M84.7943 43.6953C85.7584 36.0131 89.1294 28.5316 94.1336 22.5725C89.9648 29.1431 86.8433 36.2506 84.7943 43.6953Z" fill="#111114"/>
<path d="M85.0774 46.2645C84.6533 46.414 84.4413 46.4887 84.3164 46.6757C84.2042 46.763 83.9796 46.9375 83.8297 47.324C82.9197 46.5004 84.604 45.1917 85.0774 46.2645Z" fill="#111114"/>
<path d="M81.5616 51.6992C81.4242 51.986 81.499 52.198 81.3742 52.385C81.3366 52.6844 81.2243 52.7716 81.1867 53.0709C80.1891 52.9457 80.7137 51.1874 81.5616 51.6992Z" fill="#111114"/>
<path d="M84.4746 55.1055C85.4598 55.3304 85.3467 57.039 84.2242 57.1009C84.3369 56.2029 84.3619 56.0034 84.4746 55.1055Z" fill="#111114"/>
<path d="M79.1984 55.9641C78.8115 56.6249 78.6366 57.211 78.7359 58.0342C77.5512 57.7842 78.1135 55.7266 79.1984 55.9641Z" fill="#111114"/>
<path d="M78.8984 59.9805C79.6966 60.0806 79.9959 60.1182 80.6567 60.5051C80.1575 61.2532 78.8855 60.8909 78.8984 59.9805Z" fill="#111114"/>
<path d="M74.8872 51.5714C74.4005 52.2197 74.5128 52.1324 73.9388 52.6684C73.2033 52.0694 74.1517 50.9724 74.8872 51.5714Z" fill="#111114"/>
<path d="M81.7295 56.7891C82.1658 57.3506 82.0785 57.2383 81.8911 57.9241C81.1802 57.9363 80.9936 57.0008 81.7295 56.7891Z" fill="#111114"/>
<path d="M86.6984 51.9402C87.2971 52.0153 87.3718 52.2274 86.9101 52.6762C86.3115 52.601 86.2368 52.389 86.6984 51.9402Z" fill="#111114"/>
<path d="M88.9157 55.258C89.2397 55.9067 89.0648 56.4928 88.4035 56.9166C88.0796 56.2679 88.2545 55.6818 88.9157 55.258Z" fill="#111114"/>
<path d="M79.6014 47.9079C79.2896 47.9701 79.2771 48.0699 79.1773 48.0574C79.1773 48.0574 78.9778 48.0323 78.6785 47.9948C78.367 47.2463 79.8014 47.1223 79.6014 47.9079Z" fill="#111114"/>
<path d="M78.1784 51.9844C78.4151 52.5208 78.0782 52.7826 77.5919 52.6202C77.3552 52.0838 77.692 51.822 78.1784 51.9844Z" fill="#111114"/>
<path d="M74.4962 56.2856C74.4086 56.9839 74.5334 56.7969 74.0717 57.2457C73.3984 56.9585 73.8229 55.9984 74.4962 56.2856Z" fill="#111114"/>
<path d="M75.0319 60.9133C74.7698 61.3871 74.2334 61.6238 73.722 61.6609L73.8097 60.9625C75.393 62.0733 75.0311 62.5346 73.5225 61.6359C73.3229 61.6108 73.2607 61.299 73.3855 61.112C73.3981 61.0122 73.6101 60.9375 73.7099 60.95C74.109 61.0001 74.508 61.0502 75.0194 61.013L75.0319 60.9133Z" fill="#111114"/>
<path d="M81.2031 65.0333C80.9535 65.4074 80.6416 65.4696 80.3423 65.432L80.4175 64.8334C80.5172 64.8459 80.592 65.058 80.6667 65.2701C80.3423 65.432 79.9182 65.5815 79.8685 65.1699C79.8936 64.9704 80.1056 64.8956 80.2179 64.8084C80.5423 64.6464 80.8291 64.7837 81.0908 65.1206L81.2031 65.0333Z" fill="#111114"/>
<path d="M85.0957 62.2776C85.3324 62.814 85.1826 63.2006 84.5714 63.2252C84.3347 62.6888 84.4846 62.3023 85.0957 62.2776Z" fill="#111114"/>
<path d="M85.3494 59.471C85.3244 59.6706 85.2993 59.8701 85.2993 59.8701L85.3744 59.2715C85.3744 59.2715 85.574 59.2965 85.5239 59.6956C85.2868 59.9699 85.0872 59.9448 84.9875 59.9323C84.3141 59.6451 84.8134 58.8971 85.3494 59.471Z" fill="#111114"/>
<path d="M88.7891 60.3086C89.2503 60.6705 89.113 60.9573 88.5891 61.0942C88.1278 60.7323 88.2652 60.4455 88.7891 60.3086Z" fill="#111114"/>
<path d="M88.4398 64.7231C88.5768 65.247 88.477 65.2345 88.1155 64.8851C87.9786 64.3612 88.0783 64.3737 88.4398 64.7231Z" fill="#111114"/>
<path d="M91.0712 62.3182C91.4328 62.6676 91.4077 62.8671 90.9089 62.8045C90.5474 62.4551 90.5724 62.2556 91.0712 62.3182Z" fill="#111114"/>
<path d="M91.222 57.8783C91.2846 57.3794 91.8828 58.2652 91.2842 58.1901C91.1844 58.1776 90.9974 58.0528 91.1222 57.8657C91.3218 57.8908 91.1598 57.5664 91.0475 57.6537C90.5487 57.5911 91.0721 58.2648 91.1222 57.8657L91.222 57.8783Z" fill="#111114"/>
<path d="M92.5578 55.31C92.5949 55.8214 92.4826 55.9086 92.2334 55.472C92.1963 54.9606 92.3085 54.8733 92.5578 55.31Z" fill="#111114"/>
<path d="M90.9748 52.5789C90.8125 53.0652 90.7127 53.0527 90.7753 52.5538C90.9377 52.0675 91.0375 52.08 90.9748 52.5789Z" fill="#111114"/>
<path d="M87.9482 49.2588C87.686 49.7326 87.3867 49.6951 87.3495 49.1837C87.6117 48.7099 87.911 48.7475 87.9482 49.2588Z" fill="#111114"/>
<path d="M84.3287 49.8181C84.3658 50.3295 84.3658 50.3295 84.3287 49.8181C84.2915 49.3067 84.2915 49.3067 84.3287 49.8181Z" fill="#111114"/>
<path d="M81.4991 45.7142C81.3617 46.0009 81.262 45.9884 81.262 45.9884C81.262 45.9884 81.262 45.9884 81.312 45.5894C81.4494 45.3026 81.5491 45.3151 81.5491 45.3151C81.5491 45.3151 81.5491 45.3151 81.4991 45.7142Z" fill="#111114"/>
<path d="M75.7872 46.01C76.0364 46.4467 75.9241 46.5339 75.4503 46.2718C75.2011 45.8351 75.3134 45.7479 75.7872 46.01Z" fill="#111114"/>
<path d="M74.4888 49.0893C74.4262 49.5881 74.3265 49.5756 74.0898 49.0392C74.1524 48.5403 74.2521 48.5528 74.4888 49.0893Z" fill="#111114"/>
<path d="M70.5696 51.2327C70.9186 51.6819 70.7937 51.8689 70.3074 51.7065C69.9584 51.2574 70.0832 51.0704 70.5696 51.2327Z" fill="#111114"/>
<path d="M69.8924 55.81C70.3662 56.0721 70.2414 56.2591 69.8298 56.3088C69.356 56.0467 69.4808 55.8597 69.8924 55.81Z" fill="#111114"/>
<path d="M70.5801 60.0503C70.9165 60.5993 70.9791 60.1004 70.5175 60.5492C69.8938 60.6736 70.0065 59.7757 70.5801 60.0503Z" fill="#111114"/>
<path d="M86.0915 67.2671C85.6173 67.8156 85.1059 67.8528 84.5574 67.3786C85.0316 66.8301 85.543 66.7929 86.0915 67.2671Z" fill="#111114"/>
<path d="M77.3031 63.8325C77.4401 64.3564 77.3403 64.3438 76.9788 63.9944C76.8418 63.4706 76.9416 63.4831 77.3031 63.8325Z" fill="#111114"/>
<path d="M93.2674 60.1605C93.2048 60.6594 92.893 60.7216 92.7686 60.0979C92.8312 59.5991 93.143 59.5369 93.2674 60.1605Z" fill="#111114"/>
<path d="M92.4027 64.6141C92.1155 65.2874 91.6788 65.5366 91.0055 65.2495C91.2927 64.5761 91.7293 64.3269 92.4027 64.6141Z" fill="#111114"/>
</svg>
