<svg width="120" height="243" viewBox="0 0 120 243" fill="none" xmlns="http://www.w3.org/2000/svg">
<path d="M74.3457 92.1641C74.3457 92.1641 89.6117 130.285 93.7591 147.58C97.9065 164.876 113.084 239.441 111.761 240.941L107.084 241.823C109.025 238.117 90.7588 156.316 90.7588 156.316C88.1998 139.903 68.9629 94.8113 68.9629 94.8113L74.4339 92.1641H74.3457Z" fill="#00D675" stroke="#111114" stroke-width="0.774477" stroke-linecap="round" stroke-linejoin="round"/>
<path d="M86.2559 122.431C86.2559 122.431 93.7565 107.43 93.7565 102.753C93.7565 102.753 95.2566 94.1056 104.963 92.9584C114.582 91.8113 116.17 90.8406 116.17 90.8406L118.288 90.3994C118.288 90.3994 119.611 92.5172 117.494 93.3996C115.376 94.2821 114.935 93.3996 113.699 94.1056C112.464 94.8115 108.846 94.282 108.846 94.988C108.846 95.6939 106.199 97.1058 106.199 97.1058L103.022 99.3119L99.2275 103.018L95.8743 105.842L87.403 127.197" fill="#00D675"/>
<path d="M86.2559 122.431C86.2559 122.431 93.7565 107.43 93.7565 102.753C93.7565 102.753 95.2566 94.1056 104.963 92.9584C114.582 91.8113 116.17 90.8406 116.17 90.8406L118.288 90.3994C118.288 90.3994 119.611 92.5172 117.494 93.3996C115.376 94.2821 114.935 93.3996 113.699 94.1056C112.464 94.8115 108.846 94.282 108.846 94.988C108.846 95.6939 106.199 97.1058 106.199 97.1058L103.022 99.3119L99.2275 103.018L95.8743 105.842L87.403 127.197" stroke="#111114" stroke-width="0.774477" stroke-linecap="round" stroke-linejoin="round"/>
<path d="M92.6982 158.965C92.6982 158.965 83.6975 144.052 74.3438 141.14C74.3438 141.14 69.6669 120.491 49.6358 123.491C49.6358 123.491 24.7514 128.609 19.9863 132.227C19.9863 132.227 23.7808 136.11 28.6341 140.346C33.5757 144.581 49.0181 158.877 71.9612 146.258C71.9612 146.258 72.9319 144.052 74.3438 145.287C75.8439 146.523 77.5205 143.522 82.9033 151.111C88.2861 158.7 92.1687 158.612 93.5806 162.847" fill="#00D675"/>
<path d="M92.6982 158.965C92.6982 158.965 83.6975 144.052 74.3438 141.14C74.3438 141.14 69.6669 120.491 49.6358 123.491C49.6358 123.491 24.7514 128.609 19.9863 132.227C19.9863 132.227 23.7808 136.11 28.6341 140.346C33.5757 144.581 49.0181 158.877 71.9612 146.258C71.9612 146.258 72.9319 144.052 74.3438 145.287C75.8439 146.523 77.5205 143.522 82.9033 151.111C88.2861 158.7 92.1687 158.612 93.5806 162.847" stroke="#111114" stroke-width="0.774477" stroke-linecap="round" stroke-linejoin="round"/>
<path d="M25.457 133.816C32.9576 130.728 41.4289 131.698 49.106 133.64C56.7831 135.846 64.4602 138.14 71.6079 141.934C64.2837 138.758 56.6067 136.463 48.9296 134.434C41.2525 132.404 33.1341 131.434 25.457 133.816Z" fill="#111114"/>
<path d="M69.9315 141.141C68.2549 143.435 65.7841 144.935 63.3133 146.259C60.8425 147.494 58.107 148.641 55.2832 148.906C60.4895 147.053 65.6076 144.582 69.9315 141.141Z" fill="#111114"/>
<path d="M67.0176 140.433C62.3408 145.551 53.9578 143.786 49.3691 148.904C53.2518 142.903 61.8113 144.58 67.0176 140.433Z" fill="#111114"/>
<path d="M63.6661 138.934C60.0481 142.552 54.5771 143.257 50.0768 145.464C48.5766 146.169 47.1647 147.052 46.0176 148.287L46.3706 147.934L46.0176 148.376C49.7238 142.816 58.3715 142.904 63.6661 139.022V138.934Z" fill="#111114"/>
<path d="M60.224 137.697C55.1059 141.933 47.0758 140.697 42.752 146.169C46.2817 139.903 54.6647 140.962 60.224 137.697Z" fill="#111114"/>
<path d="M57.0485 136.462C53.6953 136.991 50.5186 138.05 47.6066 139.639C44.6946 141.051 42.0473 144.051 38.5176 143.963C40.9884 143.698 43.1062 141.756 45.0475 140.345C48.489 137.874 52.8129 136.462 57.0485 136.55V136.462Z" fill="#111114"/>
<path d="M51.7536 134.787C45.4884 135.228 41.7823 143.081 35.1641 141.846C41.6058 142.022 45.2237 134.169 51.7536 134.787Z" fill="#111114"/>
<path d="M46.9881 133.551C43.8996 133.375 42.6642 136.64 40.4582 138.228C38.1639 139.905 35.0754 140.611 32.3398 139.905C35.1636 139.993 37.8991 139.199 40.017 137.61C41.5171 136.64 42.3112 135.051 43.8114 134.081C44.782 133.551 45.9292 133.286 46.8999 133.551H46.9881Z" fill="#111114"/>
<path d="M42.046 132.579C39.5752 132.932 37.9869 134.609 36.3103 136.374C34.5454 138.138 31.8982 139.021 29.5156 138.491C31.8982 138.403 34.1925 137.433 35.7808 135.844C37.2809 134.079 39.487 132.314 42.046 132.579Z" fill="#111114"/>
<path d="M37.3696 132.139C35.4283 132.58 33.5752 133.462 32.0751 134.698C30.6632 135.933 29.1631 138.139 26.957 137.698C29.1631 137.433 30.0455 135.404 31.5457 134.08C33.134 132.756 35.2518 131.962 37.3696 132.139Z" fill="#111114"/>
<path d="M30.2231 132.757C29.1642 133.992 28.1052 134.875 26.6934 135.669C27.3111 134.169 28.6347 133.11 30.2231 132.757Z" fill="#111114"/>
<path d="M28.3688 132.932C27.3099 132.756 26.6923 132.491 25.9863 131.697C26.957 131.344 28.0159 131.962 28.3688 132.932Z" fill="#111114"/>
<path d="M71.0792 141.492C70.5497 139.462 70.1967 137.609 69.8438 135.491C71.1674 137.08 71.6969 139.462 71.0792 141.492Z" fill="#111114"/>
<path d="M68.3436 140.522C67.5494 136.551 66.314 132.845 64.4609 129.227C67.1965 132.227 68.6084 136.462 68.3436 140.522Z" fill="#111114"/>
<path d="M65.6076 139.287C64.1957 134.786 62.2543 130.639 59.6953 126.668C63.1368 129.933 65.2546 134.61 65.6076 139.287Z" fill="#111114"/>
<path d="M61.9011 137.963C60.8422 132.933 58.0185 128.697 53.8711 125.785C58.6362 127.726 61.9894 132.933 61.9011 137.963Z" fill="#111114"/>
<path d="M58.1938 136.639C56.076 132.757 53.5169 129.404 50.252 126.403C54.1346 128.433 57.1349 132.316 58.1938 136.639Z" fill="#111114"/>
<path d="M53.869 135.139C51.663 132.051 49.3687 129.315 46.5449 126.668C49.8981 128.345 52.6336 131.521 53.869 135.139Z" fill="#111114"/>
<path d="M49.7256 134.08C47.3431 131.874 45.2252 129.579 43.1074 127.108C45.8429 128.785 48.1372 131.256 49.7256 134.08Z" fill="#111114"/>
<path d="M46.1944 133.552C43.8118 132.051 41.8705 129.934 40.5469 127.463C42.7529 129.228 44.606 131.257 46.1944 133.552Z" fill="#111114"/>
<path d="M42.7525 132.668C40.8112 131.433 39.2228 130.109 37.7227 128.433C39.8405 129.227 41.6053 130.727 42.7525 132.668Z" fill="#111114"/>
<path d="M38.1649 132.226C36.4882 131.609 35.1646 130.285 34.5469 128.608C35.9588 129.667 37.1059 130.814 38.1649 132.226Z" fill="#111114"/>
<path d="M34.4585 132.138C33.0467 131.873 31.8995 130.814 31.6348 129.402C32.8702 130.197 33.6644 130.991 34.4585 132.138Z" fill="#111114"/>
<path d="M31.2821 132.316C30.3114 132.139 29.6055 131.345 29.6055 130.286C30.5761 130.727 31.0174 131.345 31.2821 132.316Z" fill="#111114"/>
<path d="M66.4074 5.95151C66.4074 5.95151 57.8479 12.9227 61.907 29.777C61.907 29.777 64.1131 41.9545 64.2896 44.337C64.2896 44.337 58.3773 44.337 56.1713 46.0136C56.1713 46.0136 48.053 19.8056 39.7582 16.1876C39.2287 15.9229 40.5523 3.74546 51.0532 2.5983C51.0532 2.5983 61.7306 -2.78452 66.4074 6.03973V5.95151Z" fill="#FF97B5" stroke="#111114" stroke-width="0.774477" stroke-linecap="round" stroke-linejoin="round"/>
<path d="M61.6437 44.6003C55.7314 34.1877 53.6136 21.4807 55.9079 9.65625C54.6725 21.569 56.7021 33.6582 61.6437 44.6003Z" fill="#111114"/>
<path d="M58.1134 44.8668C56.6133 35.2484 53.0836 25.9829 47.7891 17.7764C54.0543 25.3652 57.7605 35.0719 58.1134 44.8668Z" fill="#111114"/>
<path d="M64.2899 44.3357C64.2899 44.3357 48.9358 11.5977 71.7023 1.09688C71.7023 1.09688 81.5855 -0.226782 82.1149 3.83238C82.7326 7.89153 76.7322 19.3631 76.7322 19.3631C76.7322 19.3631 69.8492 34.3643 70.2904 45.3064" fill="#FF97B5"/>
<path d="M64.2899 44.3357C64.2899 44.3357 48.9358 11.5977 71.7023 1.09688C71.7023 1.09688 81.5855 -0.226782 82.1149 3.83238C82.7326 7.89153 76.7322 19.3631 76.7322 19.3631C76.7322 19.3631 69.8492 34.3643 70.2904 45.3064" stroke="#111114" stroke-width="0.774477" stroke-linecap="round" stroke-linejoin="round"/>
<path d="M66.7597 43.8054C62.6123 34.6282 61.9064 23.8626 64.8184 14.2441C63.0535 24.1273 63.6712 34.2752 66.7597 43.8054Z" fill="#111114"/>
<path d="M68.7887 44.159C65.9649 33.0405 67.9062 20.5983 74.0832 10.8916C68.8769 21.1277 67.0238 32.7758 68.7887 44.159Z" fill="#111114"/>
<path d="M74.8762 48.1297C75.3174 46.9826 75.8468 45.9236 76.4645 44.8647L78.0529 42.394C85.8183 31.7166 100.731 26.775 101.172 20.951C101.702 14.1564 96.5839 16.0094 96.5839 16.0094C97.731 15.48 97.2898 13.3621 97.2898 13.3621C88.995 5.24383 77.7882 17.3331 77.7882 17.3331C77.7882 17.3331 68.611 37.5406 70.3758 45.3059C70.3758 45.3059 73.1113 46.3649 74.5232 47.6003L74.9644 48.1297H74.8762Z" fill="#FF97B5" stroke="#111114" stroke-width="0.774477" stroke-linecap="round" stroke-linejoin="round"/>
<path d="M71.9647 45.7472C71.7882 34.7169 77.8769 23.6866 87.4071 18.0391C78.5829 24.569 72.9353 34.8934 71.9647 45.7472Z" fill="#111114"/>
<path d="M73.1113 46.1885C74.3467 38.5996 79.1118 31.452 85.73 27.5693C79.7295 32.3344 75.3174 38.8644 73.1113 46.1885Z" fill="#111114"/>
<path d="M77.4402 55.6306C77.705 53.0716 74.793 48.0418 74.793 48.0418C78.2344 38.2468 93.9416 28.6284 93.9416 28.6284C93.9416 28.6284 102.942 24.8339 108.766 29.6873C114.59 34.5406 111.149 36.9232 111.149 36.9232C111.149 36.9232 114.237 38.5998 111.414 40.6294C108.59 42.6589 92.3532 41.4236 77.4402 55.5424V55.6306Z" fill="#FF97B5" stroke="#111114" stroke-width="0.774477" stroke-linecap="round" stroke-linejoin="round"/>
<path d="M76.2031 50.3364C79.1151 41.9534 87.1452 35.5999 95.9695 34.541C87.4982 36.6588 80.174 42.5711 76.2031 50.3364Z" fill="#111114"/>
<path d="M77.2637 52.8056C79.6462 46.8933 85.2938 42.2165 91.559 41.0693C85.5585 43.3636 80.6169 47.4228 77.2637 52.8056Z" fill="#111114"/>
<path d="M76.4648 61.8071C77.259 60.5717 77.5238 55.6301 77.5238 55.6301L80.524 53.1593C82.5536 51.4827 84.8479 50.1591 87.3187 49.2767C92.7898 47.3353 102.673 44.4233 107.526 47.2471C107.526 47.2471 115.203 50.7768 115.468 55.7183C115.645 60.6599 93.6722 58.0127 76.5531 61.8071H76.4648Z" fill="#FF97B5" stroke="#111114" stroke-width="0.774477" stroke-linecap="round" stroke-linejoin="round"/>
<path d="M77.1738 58.1882C84.2332 52.5407 93.4987 49.6287 102.499 50.5111C93.4987 50.7758 84.7627 53.4231 77.1738 58.1882Z" fill="#111114"/>
<path d="M76.7305 60.3074C82.378 56.8659 89.0844 55.1893 95.7026 55.5423C89.1727 56.2482 82.9074 57.8366 76.7305 60.3074Z" fill="#111114"/>
<path d="M72.4948 69.3975C72.4948 69.3975 91.0257 74.2508 92.9671 87.2225C92.9671 87.2225 95.4378 90.9287 89.2609 94.1936C89.2609 94.1936 90.9375 97.8998 82.9074 99.4882C74.8774 101.077 61.1998 86.7813 60.2291 79.1924C60.2291 79.1924 46.4633 92.6053 49.1988 109.46C49.1988 109.46 51.2284 115.195 43.6395 115.019C43.6395 115.019 37.286 120.049 33.5799 109.724C29.9619 99.3999 36.2271 83.428 46.9927 79.5454C46.9927 79.5454 52.6403 76.1922 60.2291 79.1924C60.2291 79.1924 62.7881 72.4859 72.4948 69.3975Z" fill="#FF97B5"/>
<path d="M60.2291 79.1924C61.1998 86.7813 74.8774 101.077 82.9074 99.4882C90.9375 97.8998 89.2609 94.1936 89.2609 94.1936C95.4378 90.9287 92.9671 87.2225 92.9671 87.2225C91.0257 74.2508 72.4948 69.3975 72.4948 69.3975C62.7881 72.4859 60.2291 79.1924 60.2291 79.1924ZM60.2291 79.1924C60.2291 79.1924 46.4633 92.6053 49.1988 109.46C49.1988 109.46 51.2284 115.195 43.6395 115.019C43.6395 115.019 37.286 120.049 33.5799 109.724C29.9619 99.3999 36.2271 83.428 46.9927 79.5454C46.9927 79.5454 52.6403 76.1922 60.2291 79.1924Z" stroke="#111114" stroke-width="0.774477" stroke-linecap="round" stroke-linejoin="round"/>
<path d="M67.5547 72.1328C75.1435 73.1917 82.3794 77.5156 87.0563 83.6043C81.6735 78.2215 74.9671 74.2506 67.5547 72.1328Z" fill="#111114"/>
<path d="M64.7305 73.8086C70.5545 76.1911 75.849 80.2503 79.467 85.3684C74.9666 80.9563 70.025 77.0736 64.7305 73.8086Z" fill="#111114"/>
<path d="M63.0527 76.0156C65.9647 79.7218 69.0532 83.075 72.5829 86.0753C68.4355 83.8692 64.9941 80.2513 63.0527 76.0156Z" fill="#111114"/>
<path d="M60.8477 78.1338C63.142 81.9282 66.1422 85.3697 69.7601 87.9287C72.4074 89.9583 75.5841 91.1937 78.5844 92.6938C79.555 93.3115 80.5257 94.0174 81.0552 94.9881C80.3492 94.1057 79.3786 93.488 78.4079 93.0468C75.3194 91.7232 72.0544 90.6642 69.3189 88.5464C65.701 85.8991 62.7007 82.2812 60.8477 78.1338Z" fill="#111114"/>
<path d="M52.1976 78.5742C42.1379 82.2804 35.7845 92.693 37.1081 103.37C34.4608 92.8695 41.6085 81.1333 52.1976 78.5742Z" fill="#111114"/>
<path d="M56.6116 77.6914C47.6991 83.6037 42.1399 94.1045 42.3163 104.782C40.9045 94.0163 46.9049 82.633 56.6116 77.6914Z" fill="#111114"/>
<path d="M46.9935 79.6331C46.9935 79.6331 43.3755 77.9565 42.8461 75.3975C42.8461 75.3975 14.6967 83.4275 15.5791 96.6639C15.5791 96.6639 14.8732 106.812 18.5794 107.871C18.5794 107.871 18.9324 111.577 23.168 109.459C27.4036 107.341 32.3452 102.4 32.6982 100.194L38.2574 86.4278C39.3164 85.0159 40.64 83.604 42.1401 82.3686L46.9052 79.6331H46.9935Z" fill="#FF97B5" stroke="#111114" stroke-width="0.774477" stroke-linecap="round" stroke-linejoin="round"/>
<path d="M43.9056 77.4268C36.405 79.6328 29.875 84.3979 25.4629 90.7514C28.9926 83.692 36.1403 78.5739 43.9056 77.4268Z" fill="#111114"/>
<path d="M45.14 78.3994C37.0217 81.5761 30.7565 88.7238 28.6387 97.1951C29.6093 88.4591 36.5805 80.5172 45.14 78.3994Z" fill="#111114"/>
<path d="M41.2554 69.22C41.2554 69.22 9.7528 64.9844 6.48782 79.4561C6.48782 79.4561 3.66407 85.2801 7.98796 86.7803C7.98796 86.7803 6.92902 93.1337 12.0471 91.9866C12.0471 91.9866 15.8415 91.6336 20.4301 86.8685C20.4301 86.8685 29.7839 78.7502 40.8142 76.1029L42.8437 75.4852C42.8437 75.4852 41.1671 71.4261 41.3436 69.3083" fill="#FF97B5"/>
<path d="M41.2554 69.22C41.2554 69.22 9.7528 64.9844 6.48782 79.4561C6.48782 79.4561 3.66407 85.2801 7.98796 86.7803C7.98796 86.7803 6.92902 93.1337 12.0471 91.9866C12.0471 91.9866 15.8415 91.6336 20.4301 86.8685C20.4301 86.8685 29.7839 78.7502 40.8142 76.1029L42.8437 75.4852C42.8437 75.4852 41.1671 71.4261 41.3436 69.3083" stroke="#111114" stroke-width="0.774477" stroke-linecap="round" stroke-linejoin="round"/>
<path d="M41.5186 71.6031C32.9591 71.6913 24.4878 73.015 16.2812 75.3976C24.1348 71.9561 32.9591 70.7207 41.5186 71.6031Z" fill="#111114"/>
<path d="M42.5804 74.1606C37.727 74.1606 32.7855 74.6901 28.0204 75.6607C23.873 76.4549 16.8136 77.8668 18.049 83.5143C16.3724 79.5434 20.7845 76.4549 24.2259 75.7489C30.1382 74.0723 36.4034 73.4547 42.4921 74.0724L42.5804 74.1606Z" fill="#111114"/>
<path d="M43.0216 59.955C43.0216 59.955 20.3432 42.3947 3.66535 52.8073C2.78293 53.3368 2.07702 54.3075 1.98878 55.3664C1.90053 56.4253 2.34173 57.6606 4.28306 58.3666C4.28306 58.3666 -4.45295 65.5142 4.28306 71.0735C4.28306 71.0735 3.57711 73.3678 14.6957 71.0735C14.6957 71.0735 25.373 67.4556 35.8739 68.691L41.2567 69.1322C41.2567 69.1322 41.3449 61.808 43.0216 59.8667" fill="#FF97B5"/>
<path d="M43.0216 59.955C43.0216 59.955 20.3432 42.3947 3.66535 52.8073C2.78293 53.3368 2.07702 54.3075 1.98878 55.3664C1.90053 56.4253 2.34173 57.6606 4.28306 58.3666C4.28306 58.3666 -4.45295 65.5142 4.28306 71.0735C4.28306 71.0735 3.57711 73.3678 14.6957 71.0735C14.6957 71.0735 25.373 67.4556 35.8739 68.691L41.2567 69.1322C41.2567 69.1322 41.3449 61.808 43.0216 59.8667" stroke="#111114" stroke-width="0.774477" stroke-linecap="round" stroke-linejoin="round"/>
<path d="M42.3167 62.4252C33.9337 57.9249 24.7564 54.9246 15.3145 53.5127C24.9329 53.8657 34.3749 56.9542 42.3167 62.4252Z" fill="#111114"/>
<path d="M41.4321 65.337C33.1373 59.866 22.6364 58.0129 12.9297 60.1307C22.4599 56.8657 33.6667 58.8953 41.4321 65.337Z" fill="#111114"/>
<path d="M41.6097 67.6318C33.2267 63.1315 23.1671 62.1608 14.0781 65.0728C22.8141 61.1019 33.7562 62.0726 41.6097 67.6318Z" fill="#111114"/>
<path d="M4.54939 52.2777L12.4912 50.9541C26.2571 48.6598 43.1114 59.9548 43.1114 59.9548L46.1999 54.3955C46.1999 54.3955 29.7868 30.923 9.491 39.9238C9.491 39.9238 6.57899 42.3946 9.31451 45.4831C9.31451 45.4831 1.10796 49.3657 4.63766 52.2777H4.54939Z" fill="#FF97B5" stroke="#111114" stroke-width="0.774477" stroke-linecap="round" stroke-linejoin="round"/>
<path d="M44.1728 58.1904C36.584 51.5722 26.9655 47.513 16.9941 46.5423C27.142 46.4541 37.2899 50.778 44.1728 58.1904Z" fill="#111114"/>
<path d="M44.7873 56.1603C39.5809 49.9833 32.5216 45.5712 24.668 43.6299C32.7863 44.4241 40.4634 49.1891 44.7873 56.1603Z" fill="#111114"/>
<path d="M56.0832 46.013C56.0832 46.013 49.2003 48.8367 46.1118 54.396C46.1118 54.396 33.7579 37.0123 18.0507 37.8947C16.1976 37.9829 15.7564 33.5708 15.7564 33.5708C13.2856 29.2469 20.5215 24.4818 20.5215 24.4818C22.6393 20.1579 27.1397 22.4522 27.1397 22.4522C25.8161 15.0399 27.5809 12.922 33.2284 11.3337C38.8759 9.83354 45.3176 19.452 45.3176 19.452C50.0827 23.3347 56.0832 46.013 56.0832 46.013Z" fill="#FF97B5" stroke="#111114" stroke-width="0.774477" stroke-linecap="round" stroke-linejoin="round"/>
<path d="M48.3178 51.8368C43.1998 44.6891 36.3168 38.8651 28.375 34.9824C36.758 37.8944 44.0822 44.0714 48.3178 51.8368Z" fill="#111114"/>
<path d="M50.0845 49.4553C42.6721 42.8371 36.2305 35.2483 30.8477 26.8652C36.8481 34.3658 43.6428 42.3077 50.0845 49.4553Z" fill="#111114"/>
<path d="M52.1988 47.8662C45.4924 41.6009 40.2861 33.7474 37.1094 25.0996C41.2568 33.2179 46.2866 40.8068 52.1988 47.8662Z" fill="#111114"/>
<path d="M53.8786 47.6886C50.8784 39.835 46.731 32.4226 41.7012 25.6279C47.6134 31.7167 51.9373 39.3938 53.8786 47.6886Z" fill="#111114"/>
<path d="M48.0525 52.0146C48.0525 52.0146 57.5827 39.7489 72.5839 46.1906C72.5839 46.1906 82.3789 51.5734 74.0841 67.2806L72.4074 69.4866C72.4074 69.4866 62.8772 72.3104 60.1417 79.2815C60.1417 79.2815 54.2295 76.1048 46.9053 79.6345C46.9053 79.6345 39.14 76.6343 41.6991 62.9567C41.6991 62.9567 44.4346 55.3678 48.0525 52.0146Z" fill="#FFEC2D" stroke="#111114" stroke-width="0.774477" stroke-linecap="round" stroke-linejoin="round"/>
<path d="M58.5501 48.9268C59.0795 49.1032 59.1678 49.4562 58.7266 49.8092C58.1971 49.6327 58.1089 49.2797 58.5501 48.9268Z" fill="#111114"/>
<path d="M48.3141 58.5449C49.02 58.7214 48.7553 58.545 49.2847 59.0744C49.02 59.8686 47.7846 59.1626 48.3141 58.5449Z" fill="#111114"/>
<path d="M51.3164 56.2499C51.9341 55.8087 52.7283 56.2499 52.5518 56.9558C51.8459 56.9558 51.6694 56.8676 51.3164 56.2499Z" fill="#111114"/>
<path d="M57.0499 56.1631C57.5794 56.3396 57.6676 56.6043 57.2264 57.0455C56.6087 56.869 56.6087 56.6043 57.0499 56.1631Z" fill="#111114"/>
<path d="M54.4016 59.7803C54.6664 60.1332 54.8429 59.9567 54.7546 60.1332C54.7546 60.1332 54.7546 60.3097 54.7546 60.4862C54.6664 60.5744 54.4899 60.6627 54.4016 60.5744C53.9604 60.4862 54.0487 59.7803 54.5781 59.7803H54.4016Z" fill="#111114"/>
<path d="M52.1964 61.6338C52.5493 62.2515 52.5494 62.1633 52.2846 62.8692C51.5787 62.8692 51.4904 61.8103 52.1964 61.6338Z" fill="#111114"/>
<path d="M48.6686 63.1351C48.7569 63.6646 48.5804 63.9293 48.051 63.6645C47.9627 63.1351 48.1392 62.8704 48.6686 63.1351Z" fill="#111114"/>
<path d="M59.8715 54.5742C60.4892 54.5742 60.5774 54.9272 60.1362 55.3684C59.5185 55.3684 59.4303 55.0154 59.8715 54.5742Z" fill="#111114"/>
<path d="M57.0494 52.9863C57.5789 53.3393 57.5789 53.7805 57.0494 54.1335C56.52 53.7805 56.52 53.3393 57.0494 52.9863Z" fill="#111114"/>
<path d="M54.4914 52.0159C54.5797 52.7219 54.4914 52.8101 53.9619 53.2513C53.4325 52.8101 53.7855 51.9277 54.4914 52.0159Z" fill="#111114"/>
<path d="M54.4009 55.5449C54.4009 55.8979 54.4009 56.1626 54.3126 56.5156V56.1626C54.8421 56.7803 55.195 57.4862 55.2833 58.3686C54.4891 57.9274 54.0479 57.2215 53.7832 56.4273C53.7832 56.0744 54.2244 55.8096 54.4891 55.5449H54.4009Z" fill="#111114"/>
<path d="M59.5224 51.2207C60.1401 51.0442 60.4048 51.3089 60.3166 51.9266C59.6989 52.1031 59.4342 51.8384 59.5224 51.2207Z" fill="#111114"/>
<path d="M61.1973 49.2804C61.7267 48.8392 62.3444 49.4569 61.9915 49.9864C61.2855 49.8981 61.3738 49.9864 61.1973 49.2804Z" fill="#111114"/>
<path d="M64.1086 53.4258C64.638 53.6905 64.7262 54.0435 64.1086 54.3964C63.5791 54.1317 63.4909 53.7788 64.1086 53.4258Z" fill="#111114"/>
<path d="M61.9037 54.9277C62.6979 55.4572 62.5215 56.6043 61.7273 56.9573C61.5508 56.0749 61.5507 55.7219 61.9037 54.9277Z" fill="#111114"/>
<path d="M59.1666 58.7207C59.6961 58.8972 59.6961 59.2501 59.1666 59.4266C58.6372 59.2501 58.6372 58.8972 59.1666 58.7207Z" fill="#111114"/>
<path d="M56.2539 60.3086C56.8716 60.5733 56.9598 60.9263 56.4304 61.3675C55.8127 61.1028 55.7244 60.7498 56.2539 60.3086Z" fill="#111114"/>
<path d="M56.0801 64.457C56.3448 65.0747 56.0801 65.4277 55.3741 65.4277C55.1094 64.81 55.3741 64.457 56.0801 64.457Z" fill="#111114"/>
<path d="M51.6684 59.075C51.9332 59.6044 51.6685 59.8691 51.139 59.6926C50.8743 59.1632 51.139 58.8985 51.6684 59.075Z" fill="#111114"/>
<path d="M48.5765 55.7217C49.106 56.3394 49.106 56.5159 48.9295 57.3101C48.1353 57.1336 47.9588 56.1629 48.5765 55.7217Z" fill="#111114"/>
<path d="M50.6068 53.9561C51.2245 54.0443 51.3128 54.3973 50.9598 54.9268C50.3421 54.8385 50.2539 54.4855 50.6068 53.9561Z" fill="#111114"/>
<path d="M47.1641 57.3975C47.4288 58.1034 47.1641 58.5446 46.4581 58.6329C46.1934 57.9269 46.4582 57.4857 47.1641 57.3975Z" fill="#111114"/>
<path d="M45.4004 60.8389C46.0181 61.1918 46.1945 62.0742 45.9298 62.7802C45.5769 63.4861 45.0474 63.9274 44.4297 64.3686C44.4297 63.6626 44.8709 63.0449 45.1356 62.5154C45.4003 62.0742 45.3121 61.4566 45.3121 60.8389H45.4004Z" fill="#111114"/>
<path d="M45.6665 66.7507C46.196 66.5743 46.3725 66.7508 46.1078 67.2802C45.5783 67.4567 45.4018 67.2802 45.6665 66.7507Z" fill="#111114"/>
<path d="M50.8717 66.2217C51.4012 66.6629 51.4012 67.1924 50.8717 67.7218C50.3422 67.2806 50.3422 66.7511 50.8717 66.2217Z" fill="#111114"/>
<path d="M67.5502 49.9844C67.9915 50.4256 67.9032 50.9551 67.2855 51.1316C66.8443 50.6904 66.9325 50.1609 67.5502 49.9844Z" fill="#111114"/>
<path d="M70.3718 54.2217C70.3718 55.0159 70.0188 55.5453 69.2246 55.6335C69.2246 54.8394 69.5776 54.3099 70.3718 54.2217Z" fill="#111114"/>
<path d="M67.4645 58.1035C68.1704 58.1035 68.5234 58.5447 68.4351 59.2507C67.7292 59.2507 67.3763 58.8095 67.4645 58.1035Z" fill="#111114"/>
<path d="M64.6393 60.8389C65.1687 61.1918 65.1687 61.5448 64.6393 61.8095C64.1098 61.4565 64.1098 61.1036 64.6393 60.8389Z" fill="#111114"/>
<path d="M60.051 62.5166C60.5805 62.5166 60.6687 62.7814 60.1393 63.0461C59.6098 63.0461 59.5216 62.7813 60.051 62.5166Z" fill="#111114"/>
<path d="M59.5199 68.6049C60.1376 68.6049 59.7846 68.2519 59.8729 68.9578C59.6081 69.5755 58.9022 68.9578 59.5199 68.6049Z" fill="#111114"/>
<path d="M61.7272 67.5459C62.2566 67.7224 62.2566 67.9871 61.7272 68.1636C61.1977 67.9871 61.1977 67.7224 61.7272 67.5459Z" fill="#111114"/>
<path d="M65.6971 67.1927C65.8736 67.281 65.9618 67.3692 66.05 67.4575L65.8735 67.7222C65.697 67.8987 65.5206 67.8104 65.2559 67.6339C65.2559 67.281 65.2558 67.1045 65.6088 67.1045L65.4323 67.3692C65.4323 67.3692 65.6088 67.1927 65.7853 67.1927H65.6971Z" fill="#111114"/>
<path d="M53.1694 68.0752C53.5224 68.0752 53.5224 68.0752 53.6106 68.0752C53.6106 68.0752 53.6106 68.0752 53.2576 68.2517C52.9046 68.2517 52.9046 68.2517 52.8164 68.2517C52.8164 68.2517 52.8164 68.2517 53.1694 68.0752Z" fill="#111114"/>
<path d="M53.874 72.2227C54.4917 72.2227 54.4916 72.3109 54.4034 72.9286C53.8739 73.1933 53.4328 72.6639 53.874 72.2227Z" fill="#111114"/>
<path d="M50.5213 73.987C50.2566 73.987 50.1683 73.987 50.1683 73.987C50.1683 73.987 51.0507 73.8105 50.8743 73.8105C50.6978 73.8105 50.3448 73.8988 50.1683 73.987C50.0801 73.987 50.9625 73.8105 50.8743 73.8105C50.8743 73.8105 50.8743 73.8106 50.5213 73.8988V73.987Z" fill="#111114"/>
<path d="M49.019 71.2514C49.5485 71.5161 49.019 72.0455 48.7543 71.5161C48.7543 71.3396 48.7543 71.2513 48.666 71.1631C48.666 71.1631 48.666 71.2514 49.019 71.2514Z" fill="#111114"/>
<path d="M46.4604 73.0166C46.8133 73.0166 46.8133 73.0166 46.9016 73.0166C46.9016 73.0166 46.9016 73.0166 46.5486 73.1931C46.1957 73.1931 46.1957 73.1931 46.1074 73.1931C46.1074 73.1931 46.1074 73.1931 46.4604 73.0166Z" fill="#111114"/>
<path d="M47.2534 76.0176C47.5181 76.0176 47.6064 76.0176 47.6064 76.0176C47.6064 76.0176 47.6064 76.0176 47.2534 76.1059C46.9887 76.1059 46.9004 76.1059 46.9004 76.1059C46.9004 76.1059 46.9004 76.1058 47.2534 76.0176Z" fill="#111114"/>
<path d="M57.6666 71.7812C58.1961 71.7812 58.1961 71.9577 57.6666 72.046C57.1372 72.046 57.1372 71.8695 57.6666 71.7812Z" fill="#111114"/>
<path d="M58.9038 75.5752C59.1685 75.5752 59.2567 75.5752 59.2567 75.6635C59.2567 75.6635 59.2567 75.6635 58.9038 75.6635C58.5508 75.6635 58.5508 75.6634 58.5508 75.5752C58.5508 75.5752 58.5508 75.5752 58.9038 75.5752Z" fill="#111114"/>
<path d="M61.5488 72.0465C61.7253 71.5171 61.8135 71.5171 61.8135 72.0465C61.6371 72.576 61.5488 72.576 61.5488 72.0465Z" fill="#111114"/>
<path d="M66.8455 69.2221C66.7572 68.9574 66.7572 68.8691 66.8455 68.8691C66.8455 68.8691 66.9337 68.8692 67.1102 69.2221C67.1984 69.4869 67.1984 69.5751 67.1102 69.5751C67.1102 69.5751 67.022 69.5751 66.8455 69.2221Z" fill="#111114"/>
<path d="M62.4311 64.2803C62.6958 64.2803 62.7841 64.2803 62.8723 64.2803C62.8723 64.2803 62.8723 64.2803 62.5193 64.4568C62.1664 64.4568 62.1664 64.4568 62.0781 64.4568C62.0781 64.4568 62.0781 64.4568 62.4311 64.2803Z" fill="#111114"/>
<path d="M68.0781 63.3988C68.5193 63.7518 68.4311 63.84 67.9017 63.6635C67.4604 63.3105 67.5486 63.2223 68.0781 63.3988Z" fill="#111114"/>
<path d="M66.6674 63.3982C66.9322 63.5747 66.9322 63.6629 66.9322 63.6629C66.9322 63.6629 66.844 63.6629 66.5792 63.4865C66.3145 63.31 66.3145 63.2217 66.3145 63.2217C66.3145 63.2217 66.4027 63.2217 66.6674 63.3982Z" fill="#111114"/>
<path d="M71.5229 62.0742C71.7876 62.0742 71.8759 62.0743 71.8759 62.1625C71.8759 62.1625 71.8759 62.1625 71.5229 62.1625C71.1699 62.1625 71.1699 62.1625 71.1699 62.0742C71.1699 62.0742 71.1699 62.0742 71.5229 62.0742Z" fill="#111114"/>
<path d="M69.6686 64.8984C70.198 64.8984 70.198 65.1632 69.6686 65.3397C69.1391 65.3397 69.1391 65.0749 69.6686 64.8984Z" fill="#111114"/>
<path d="M66.9346 65.9577C67.1994 65.7813 67.2876 65.7813 67.2876 65.7813C67.2876 65.7813 67.2876 65.7812 67.0229 66.046C66.7582 66.2225 66.6699 66.2225 66.6699 66.2225C66.6699 66.2225 66.6699 66.2225 66.9346 65.9577Z" fill="#111114"/>
<path d="M69.9336 67.9871C70.3748 67.3694 70.5513 67.3694 71.169 67.5459C71.169 68.2518 70.3748 68.5165 69.9336 67.9871Z" fill="#111114"/>
<path d="M73.021 64.7214C73.2857 64.8979 73.2857 64.9861 73.2857 64.9861C73.2857 64.9861 73.2857 64.9862 72.9327 64.8097C72.668 64.6332 72.668 64.5449 72.668 64.5449C72.668 64.5449 72.668 64.5449 73.021 64.7214Z" fill="#111114"/>
<path d="M65.169 56.4265C65.2573 56.603 65.2573 56.6912 65.3455 56.7795L64.9043 56.3383C64.9043 56.1618 65.0808 56.1618 65.169 56.0735C65.6985 55.9853 65.875 56.25 65.6103 56.6913C65.522 56.8677 65.169 56.8678 64.9043 56.8678C64.6396 56.8678 64.5514 56.5148 64.8161 56.4265C64.9043 56.4265 64.9926 56.4265 65.2573 56.4265H65.169Z" fill="#111114"/>
<path d="M66.6685 53.2503L66.9333 53.6915C67.198 54.1328 66.4921 54.4857 66.2273 54.0445C66.0508 53.868 66.3156 53.4268 66.4038 53.2503H66.9333H66.2273L66.6685 53.1621V53.2503Z" fill="#111114"/>
<path d="M64.02 49.1911C64.1965 49.2794 64.2848 49.3676 64.373 49.4559L64.1965 49.0146C64.373 49.0146 64.373 49.1911 64.2847 49.4559C64.1082 49.6323 64.1083 49.6323 64.02 49.7206C63.8435 49.7206 63.7553 49.4559 63.667 49.4559C63.5788 49.2794 63.7553 49.1911 64.1082 49.1911H64.02Z" fill="#111114"/>
<path d="M63.2272 58.1922C63.5802 58.6334 63.2272 59.0746 62.6978 58.7216C62.6095 58.1039 62.6978 58.1039 63.2272 58.1922Z" fill="#111114"/>
<path d="M61.6397 59.6045C62.2574 59.6045 62.2574 60.3987 61.6397 60.3987C61.2868 59.8692 61.2868 60.1339 61.6397 59.6045Z" fill="#111114"/>
<path d="M60.3158 64.9854C60.5806 65.0736 60.6688 65.1618 60.6688 65.1618C60.6688 65.1618 60.6688 65.1618 60.3158 65.1618C60.0511 65.0736 59.9629 64.9854 59.9629 64.9854C59.9629 64.9854 60.0511 64.9854 60.3158 64.9854Z" fill="#111114"/>
<path d="M63.8432 69.3105C64.1079 69.3105 64.1962 69.3105 64.1962 69.3105C64.1962 69.3105 64.1961 69.3105 63.8432 69.3988C63.5784 69.3988 63.4902 69.3988 63.4902 69.3988C63.4902 69.3988 63.4902 69.3988 63.8432 69.3105Z" fill="#111114"/>
<path d="M54.8451 50.4268C55.1099 50.4268 55.1981 50.4268 55.1981 50.515C55.1981 50.515 55.1981 50.515 54.8451 50.515C54.4922 50.515 54.4922 50.515 54.4922 50.4268C54.4922 50.4268 54.4922 50.4268 54.8451 50.4268Z" fill="#111114"/>
<path d="M51.4897 52.1035C51.7544 52.1035 51.8426 52.1035 51.8426 52.1035C51.8426 52.1035 51.8426 52.1035 51.4897 52.1917C51.2249 52.1917 51.1367 52.1917 51.1367 52.1917C51.1367 52.1917 51.1367 52.1918 51.4897 52.1035Z" fill="#111114"/>
<path d="M52.7266 65.0752C53.1678 65.4282 53.0795 65.6047 52.5501 65.5164C52.1089 65.1635 52.1971 64.987 52.7266 65.0752Z" fill="#111114"/>
<path d="M48.3143 66.5752C48.579 66.6634 48.6672 66.7516 48.6672 66.7516C48.6672 66.7516 48.579 66.7516 48.226 66.7516C47.9613 66.6634 47.873 66.5752 47.873 66.5752C47.873 66.5752 47.9613 66.5752 48.3143 66.5752Z" fill="#111114"/>
<path d="M45.7535 70.3698C46.3712 70.1933 45.7536 69.8403 45.93 70.458C45.93 71.0757 45.2241 70.6345 45.7535 70.3698Z" fill="#111114"/>
<path d="M43.8143 70.6348C44.079 70.6348 44.1673 70.723 44.1673 70.723C44.1673 70.723 44.1673 70.723 43.726 70.723C43.4613 70.723 43.373 70.6348 43.373 70.6348C43.373 70.6348 43.373 70.6348 43.8143 70.6348Z" fill="#111114"/>
<path d="M44.5193 74.8705C45.137 74.694 44.8723 74.5175 45.0488 75.1352C44.8723 75.7529 44.1664 75.3117 44.5193 74.8705Z" fill="#111114"/>
<path d="M49.373 76.0167C50.079 75.6637 50.3437 75.6637 50.9614 76.0167C50.6084 76.7226 49.726 76.6344 49.373 76.0167Z" fill="#111114"/>
<path d="M53.5187 75.0459C53.6952 75.2224 53.7835 75.3989 53.7835 75.4871L53.5187 75.0459C53.6069 75.0459 53.6952 75.0459 53.7835 75.2224C53.7835 75.3106 53.8717 75.3989 53.8717 75.6636C53.607 75.8401 53.4305 75.9283 53.254 75.8401C52.8128 75.5754 52.9892 75.2224 53.5187 75.1341V75.0459Z" fill="#111114"/>
<path d="M55.7261 74.8708C55.9908 74.9591 56.0791 75.0473 56.0791 75.1355L55.6379 74.6943C55.6379 74.6943 55.8144 74.6944 55.9908 75.0473C55.9908 75.4885 55.9908 75.4885 55.7261 75.4885C55.2849 75.4885 55.1966 74.9591 55.7261 74.8708Z" fill="#111114"/>
<path d="M55.552 69.0456C55.7285 69.3104 55.7285 69.4868 55.6403 69.5751L55.0225 69.1339C55.0225 69.0456 55.1108 68.9574 55.199 68.8691C55.2873 68.8691 55.4638 68.8691 55.6403 68.8691C55.8167 69.1339 55.8167 69.3986 55.6403 69.5751C54.9343 70.281 54.4931 68.9574 55.552 68.9574V69.0456Z" fill="#111114"/>
<path d="M57.0483 66.575C57.313 66.4867 57.4012 66.4867 57.4012 66.575C57.4012 66.575 57.4012 66.6632 57.0483 66.8397C56.7835 66.9279 56.6953 66.9279 56.6953 66.8397C56.6953 66.8397 56.6953 66.7515 57.0483 66.575Z" fill="#111114"/>
<path d="M59.0788 72.4002C59.6965 72.3119 59.6965 72.3119 59.7847 72.9296C59.3435 73.3708 58.8141 72.9296 59.0788 72.4002Z" fill="#111114"/>
<path d="M60.6705 74.5166C61.2 74.5166 61.2 74.6931 60.6705 74.7813C60.1411 74.7813 60.1411 74.6048 60.6705 74.5166Z" fill="#111114"/>
<path d="M71.3461 57.9268C71.5226 58.1033 71.6108 58.2798 71.5226 58.2798L71.2579 57.6621C71.2579 57.6621 71.4344 57.6621 71.4344 58.1033C71.2579 58.5445 71.1696 58.4563 70.9931 58.368C70.5519 58.1916 70.7284 57.5739 71.3461 57.8386V57.9268Z" fill="#111114"/>
<path d="M74.0789 61.1045C74.3436 61.281 74.4319 61.4574 74.3436 61.6339L73.9024 61.1927C73.9907 61.1927 74.1671 61.1927 74.3436 61.4574C74.3436 62.0751 73.5495 62.0752 73.6377 61.5457C73.6377 61.281 73.6377 61.1927 74.0789 61.1045Z" fill="#111114"/>
<path d="M74.9646 57.3095C75.3176 57.6624 75.2293 57.8389 74.7881 57.6624C74.4351 57.3094 74.5234 57.133 74.9646 57.3095Z" fill="#111114"/>
<path d="M73.5496 54.0444C73.6379 54.3091 73.6379 54.3973 73.5496 54.3973C73.5496 54.3973 73.4614 54.3974 73.2849 54.0444C73.1967 53.7797 73.1967 53.6914 73.2849 53.6914C73.2849 53.6914 73.3732 53.6914 73.5496 54.0444Z" fill="#111114"/>
<path d="M63.8467 51.3087C64.0232 51.5734 64.0232 51.6617 64.0232 51.6617C64.0232 51.6617 64.0233 51.6617 63.7585 51.3969C63.582 51.1322 63.582 51.0439 63.582 51.0439C63.582 51.0439 63.582 51.0439 63.8467 51.3087Z" fill="#111114"/>
<path d="M61.9043 46.8089C62.169 46.3677 62.3455 46.3677 62.3455 46.8971C62.0808 47.4266 61.9043 47.3384 61.9043 46.8089Z" fill="#111114"/>
<path d="M58.9053 47.3379C59.0818 47.8674 58.9053 47.9556 58.4641 47.6909C58.2876 47.1614 58.4641 47.0732 58.9053 47.3379Z" fill="#111114"/>
<path d="M56.6094 50.6028C56.8741 50.1616 57.1389 50.1617 57.1389 50.6911C56.8741 51.1323 56.6094 51.1323 56.6094 50.6028Z" fill="#111114"/>
<path d="M65.6981 46.7217C66.2276 46.7217 66.3158 46.9864 65.9628 47.3393C65.4334 47.3393 65.3451 47.0746 65.6981 46.7217Z" fill="#111114"/>
<path d="M69.5775 47.4268C69.8423 47.4268 69.9305 47.4268 70.0188 47.4268C70.0188 47.4268 70.0188 47.4268 69.6658 47.6033C69.3129 47.6033 69.3129 47.6033 69.2246 47.6033C69.2246 47.6033 69.2246 47.6032 69.5775 47.4268Z" fill="#111114"/>
<path d="M70.815 49.9844C71.2562 50.5138 70.815 51.0433 70.1973 50.7786C70.1973 50.1609 70.1973 50.0726 70.815 49.9844Z" fill="#111114"/>
<path d="M68.9623 52.1048C69.1388 52.1931 69.2271 52.1931 69.3153 52.1048C69.2271 52.1048 69.1388 52.2813 69.3153 52.4578C69.3153 52.7225 68.8741 52.7225 68.7859 52.546C68.6094 52.3696 68.7859 52.0166 69.0506 52.0166L68.9623 52.1048Z" fill="#111114"/>
<path d="M73.021 50.8682C73.2857 50.8682 73.3739 50.8682 73.3739 50.8682C73.3739 50.8682 73.3739 50.8682 73.021 50.9564C72.7562 50.9564 72.668 50.9564 72.668 50.9564C72.668 50.9564 72.668 50.9564 73.021 50.8682Z" fill="#111114"/>
<path d="M72.5808 48.4855C73.022 48.1325 73.022 48.2207 72.669 48.5737C72.2278 48.9266 72.2278 48.8384 72.5808 48.4855Z" fill="#111114"/>
<path d="M72.5815 55.9863C72.8462 55.9863 72.9344 55.9863 72.9344 55.9863C72.9344 55.9863 72.9345 55.9863 72.5815 56.0745C72.3168 56.0745 72.2285 56.0745 72.2285 56.0745C72.2285 56.0745 72.2285 56.0746 72.5815 55.9863Z" fill="#111114"/>
<path d="M75.6697 54.9263C76.0227 55.3675 75.9344 55.4557 75.4932 55.191C75.1402 54.7498 75.2285 54.6615 75.6697 54.9263Z" fill="#111114"/>
<path d="M75.5804 52.2797C75.5804 52.5445 75.5804 52.6327 75.5804 52.6327C75.5804 52.6327 75.5804 52.6327 75.4922 52.2797C75.4922 52.015 75.4922 51.9268 75.4922 51.9268C75.4922 51.9268 75.4922 51.9268 75.5804 52.2797Z" fill="#111114"/>
<path d="M66.2274 59.8691C66.5804 60.3986 66.2274 61.0163 65.5215 60.8398C65.5215 60.1339 65.5215 60.0456 66.2274 59.8691Z" fill="#111114"/>
<path d="M64.8131 64.3701C65.3426 64.3701 65.3426 64.5466 64.8131 64.6348C64.2837 64.6348 64.2837 64.4584 64.8131 64.3701Z" fill="#111114"/>
<path d="M61.8159 70.1055C62.0806 70.1055 62.1689 70.1055 62.1689 70.1055C62.1689 70.1055 62.1689 70.1054 61.8159 70.1937C61.5512 70.1937 61.4629 70.1937 61.4629 70.1937C61.4629 70.1937 61.4629 70.1937 61.8159 70.1055Z" fill="#111114"/>
<path d="M63.7553 72.0469C64.0201 72.0469 64.1083 72.0469 64.1083 72.1351C64.1083 72.1351 64.1083 72.1351 63.7553 72.1351C63.4024 72.1351 63.4023 72.1351 63.4023 72.0469C63.4023 72.0469 63.4024 72.0469 63.7553 72.0469Z" fill="#111114"/>
<path d="M51.6694 70.3691C51.9341 70.4574 52.0224 70.5456 52.0224 70.5456C52.0224 70.5456 52.0224 70.5456 51.6694 70.5456C51.4047 70.4574 51.3164 70.3691 51.3164 70.3691C51.3164 70.3691 51.4047 70.3691 51.6694 70.3691Z" fill="#111114"/>
<path d="M57.4916 75.9297C57.7563 75.9297 57.8446 75.9297 57.8446 75.9297C57.8446 75.9297 57.8446 75.9297 57.4916 76.0179C57.2269 76.0179 57.1387 76.0179 57.1387 76.0179C57.1387 76.0179 57.1386 76.0179 57.4916 75.9297Z" fill="#111114"/>
<path d="M42.6664 68.1634C43.0193 67.7221 43.1076 67.8104 42.9311 68.3398C42.5781 68.7811 42.4899 68.6928 42.6664 68.1634Z" fill="#111114"/>
<path d="M47.3424 77.6934C47.7836 77.9581 47.7836 78.1346 47.2542 78.1346C46.7247 77.8698 46.8129 77.6934 47.3424 77.6934Z" fill="#111114"/>
<path d="M53.786 62.781C53.9625 62.8692 54.0507 62.8692 54.1389 62.781C54.0507 62.781 53.9624 62.8693 53.8742 63.0458C53.433 63.487 53.08 62.6045 53.786 62.6928V62.781Z" fill="#111114"/>
<path d="M57.4018 62.6924C57.6665 62.6924 57.7548 62.6924 57.7548 62.6924C57.7548 62.6924 57.7548 62.6924 57.4018 62.7806C57.1371 62.7806 57.0488 62.7806 57.0488 62.7806C57.0488 62.7806 57.0488 62.7806 57.4018 62.6924Z" fill="#111114"/>
<path d="M68.875 61.6329C69.3162 61.1917 69.6692 61.3681 69.7574 61.8976C69.3162 62.3388 68.9632 62.1623 68.875 61.6329Z" fill="#111114"/>
<path d="M71.7865 66.3103C72.0513 66.2221 72.1395 66.1339 72.1395 66.2221C72.1395 66.2221 72.1395 66.2221 71.7865 66.4868C71.5218 66.5751 71.4336 66.6633 71.4336 66.5751C71.4336 66.5751 71.4336 66.5751 71.7865 66.3103Z" fill="#111114"/>
<path d="M56.1679 48.2207C56.4327 48.7502 56.1679 48.8384 55.7267 48.5737C55.462 48.0443 55.7267 47.956 56.1679 48.2207Z" fill="#111114"/>
<path d="M52.9897 50.3389C53.2544 50.4271 53.3427 50.5154 53.3427 50.5154C53.3427 50.5154 53.3427 50.5154 52.9897 50.5154C52.725 50.4271 52.6367 50.3389 52.6367 50.3389C52.6367 50.3389 52.725 50.3389 52.9897 50.3389Z" fill="#111114"/>
<path d="M68.2581 92.1637L65.9638 89.6047C64.9931 88.4575 64.0224 87.2221 63.2282 85.8985L62.5223 84.8395C61.4634 83.0747 60.6692 81.2216 60.1397 79.2803C55.1982 82.1923 51.3155 92.7814 50.0801 96.6641C49.7272 97.6347 49.6389 98.6054 49.7271 99.5761C50.2566 104.782 52.6391 121.813 61.0222 117.93C61.0222 117.93 64.9931 122.078 67.6404 116.783C70.3759 111.489 72.1408 99.5761 68.1698 92.1637H68.2581Z" fill="#FF97B5" stroke="#111114" stroke-width="0.774477" stroke-linecap="round" stroke-linejoin="round"/>
<path d="M59.5216 81.4863C54.4036 85.4572 53.4329 92.4284 54.2271 98.5171C54.4918 100.635 54.8448 102.665 55.1095 104.782C52.5505 97.1935 51.5798 86.3397 59.5216 81.5746V81.4863Z" fill="#111114"/>
<path d="M59.0806 82.5459C57.404 87.3992 56.698 92.3408 56.9628 97.5471C55.6391 92.6055 56.4333 86.958 59.0806 82.5459Z" fill="#111114"/>
<path d="M59.7871 82.0156C61.199 91.4576 61.4637 101.076 60.7578 110.606C60.4048 101.341 60.0518 91.1928 59.7871 82.0156Z" fill="#111114"/>
<path d="M62.875 86.252C64.4634 91.4583 65.1693 96.9293 65.0811 102.312C64.1104 96.9293 63.4045 91.6347 62.875 86.252Z" fill="#111114"/>
<path d="M100.203 59.3369C100.203 59.3369 81.1422 60.3958 76.4654 61.8077L72.4062 68.9553C85.5544 79.9857 98.0848 79.4562 102.497 78.5738C106.909 77.6914 106.291 70.5437 106.291 70.5437C112.027 68.4259 111.939 64.7197 111.939 64.7197C112.204 59.0722 100.203 59.2487 100.203 59.2487V59.3369Z" fill="#FF97B5" stroke="#111114" stroke-width="0.774477" stroke-linecap="round" stroke-linejoin="round"/>
<path d="M74.1719 65.4251C82.7314 62.7778 91.9969 61.9837 100.909 63.1308C91.9086 63.0426 82.9961 63.7485 74.1719 65.4251Z" fill="#111114"/>
<path d="M73.7305 66.6611C80.8781 67.3671 87.9375 67.8965 95.0852 68.2495C87.9375 68.9554 80.6134 68.426 73.7305 66.6611Z" fill="#111114"/>
</svg>
