<svg width="69" height="102" viewBox="0 0 69 102" fill="none" xmlns="http://www.w3.org/2000/svg">
<path d="M68.2331 1.83316C68.2331 2.71559 66.2035 4.74516 64.5269 5.80407C61.1737 8.27486 57.9087 11.0104 55.5261 14.4518C46.8784 26.5411 54.6437 35.1888 56.4968 47.631C57.8205 55.9258 55.8791 65.1913 49.4374 70.9271C46.5254 73.8391 40.7014 76.3981 37.2599 74.192C35.1421 72.6919 38.0542 72.0742 39.2896 71.8977C44.8488 71.1918 50.4963 66.162 52.3494 61.1321C55.1732 53.6315 52.5259 42.513 50.4963 35.0124C49.7021 32.0121 49.4374 29.3648 49.1727 26.5411C48.7315 21.3348 50.8493 15.4225 54.1143 11.4516C56.2321 8.62783 58.4382 6.51001 61.1737 4.21571C62.4973 3.06855 64.2622 1.83316 65.674 1.39195C67.2624 0.774251 68.2331 0.950737 68.2331 1.74492V1.83316Z" fill="#00D675" stroke="#111114" stroke-width="0.492849" stroke-linecap="round" stroke-linejoin="round"/>
<path d="M41.316 62.6328C40.8748 65.3683 40.4336 68.1039 39.9924 70.8394C41.8455 70.7511 43.7868 70.6629 45.6399 70.5746C44.5809 72.163 43.0808 73.5749 41.4042 74.5456C42.7279 76.9281 44.3162 79.2224 46.1693 81.252C43.4338 81.4285 40.7865 80.3696 39.0217 78.5165C35.139 74.1926 36.6391 66.5155 41.2277 62.7211L41.316 62.6328Z" fill="#FFEC2D" stroke="#111114" stroke-width="0.492849" stroke-linecap="round" stroke-linejoin="round"/>
<path d="M15.6375 100.137C13.0785 101.372 13.8727 98.0188 12.549 97.3129C11.2254 96.607 10.9607 93.0773 10.1665 93.8714C9.37235 94.7539 7.25452 92.1066 5.1367 89.1063C3.01888 86.0179 5.66613 82.7529 5.66613 82.7529C5.66613 82.7529 2.48944 80.8998 0.901071 77.6348C-0.687295 74.3698 5.04843 73.3109 5.04843 73.3109C5.22491 72.6932 4.78373 69.34 14.4022 64.7514C24.0206 60.1628 23.2264 64.0455 30.4623 64.7514C37.6982 65.3691 38.6688 74.9875 39.0218 75.6935C45.287 86.0179 34.1685 88.8416 29.4034 93.8714C24.6383 98.9013 19.6084 100.401 17.4024 101.284C15.1963 102.166 15.7258 100.137 15.7258 100.137" fill="#FFEC2D"/>
<path d="M15.6375 100.137C13.0785 101.372 13.8727 98.0188 12.549 97.3129C11.2254 96.607 10.9607 93.0773 10.1665 93.8714C9.37235 94.7539 7.25452 92.1066 5.1367 89.1063C3.01888 86.0179 5.66613 82.7529 5.66613 82.7529C5.66613 82.7529 2.48944 80.8998 0.901071 77.6348C-0.687295 74.3698 5.04843 73.3109 5.04843 73.3109C5.22491 72.6932 4.78373 69.34 14.4022 64.7514C24.0206 60.1628 23.2264 64.0455 30.4623 64.7514C37.6982 65.3691 38.6688 74.9875 39.0218 75.6935C45.287 86.0179 34.1685 88.8416 29.4034 93.8714C24.6383 98.9013 19.6084 100.401 17.4024 101.284C15.1963 102.166 15.7258 100.137 15.7258 100.137" stroke="#111114" stroke-width="0.563256" stroke-miterlimit="10"/>
<path d="M4.96059 73.2217C4.96059 73.2217 -0.775188 74.2806 0.813178 77.5456C2.40154 80.8105 5.5783 82.6636 5.5783 82.6636C5.5783 82.6636 2.93099 86.0169 5.04881 89.0171C7.16663 92.1056 9.28446 94.6646 10.0786 93.7822C10.8728 92.8998 11.1376 96.4295 12.4612 97.2237C13.7848 98.0178 12.9907 101.283 15.5497 100.047" fill="#FFEC2D"/>
<path d="M4.96059 73.2217C4.96059 73.2217 -0.775188 74.2806 0.813178 77.5456C2.40154 80.8105 5.5783 82.6636 5.5783 82.6636C5.5783 82.6636 2.93099 86.0169 5.04881 89.0171C7.16663 92.1056 9.28446 94.6646 10.0786 93.7822C10.8728 92.8998 11.1376 96.4295 12.4612 97.2237C13.7848 98.0178 12.9907 101.283 15.5497 100.047" stroke="#111114" stroke-width="0.492849" stroke-linecap="round" stroke-linejoin="round"/>
<path d="M14.7568 81.6924C14.7568 81.6924 7.52094 83.1043 6.72676 87.3399C5.93257 91.5755 12.1095 88.1341 12.1095 88.1341L17.2276 83.8102" fill="#FF6A37"/>
<path d="M14.7568 81.6924C14.7568 81.6924 7.52094 83.1043 6.72676 87.3399C5.93257 91.5755 12.1095 88.1341 12.1095 88.1341L17.2276 83.8102" stroke="#111114" stroke-width="0.492849" stroke-linecap="round" stroke-linejoin="round"/>
<path d="M14.6682 80.634C14.6682 80.634 7.43227 83.1048 4.96148 79.7516C2.49069 76.3984 4.43205 76.5748 4.43205 76.5748C4.43205 76.5748 11.3149 78.2515 14.7564 77.722" fill="#FF6A37"/>
<path d="M14.6682 80.634C14.6682 80.634 7.43227 83.1048 4.96148 79.7516C2.49069 76.3984 4.43205 76.5748 4.43205 76.5748C4.43205 76.5748 11.3149 78.2515 14.7564 77.722" stroke="#111114" stroke-width="0.492849" stroke-linecap="round" stroke-linejoin="round"/>
<path d="M17.9331 84.1631C17.9331 84.1631 10.5207 89.4576 11.7561 92.7226C12.9915 95.9876 13.4327 95.9876 13.6091 95.8993C13.7856 95.8111 14.7563 94.9287 14.7563 94.5757C14.7563 94.2227 14.4916 92.9873 16.1682 90.8695C17.8448 88.7517 19.0802 86.5456 19.0802 86.5456" fill="#FF6A37"/>
<path d="M17.9331 84.1631C17.9331 84.1631 10.5207 89.4576 11.7561 92.7226C12.9915 95.9876 13.4327 95.9876 13.6091 95.8993C13.7856 95.8111 14.7563 94.9287 14.7563 94.5757C14.7563 94.2227 14.4916 92.9873 16.1682 90.8695C17.8448 88.7517 19.0802 86.5456 19.0802 86.5456" stroke="#111114" stroke-width="0.492849" stroke-linecap="round" stroke-linejoin="round"/>
<path d="M38.9345 75.6043C38.4933 74.8984 37.6109 65.2799 30.375 64.6622C23.1391 64.0445 23.9333 60.0736 14.3148 64.6622C4.69639 69.2508 5.13763 72.5158 4.96114 73.2218C4.78466 73.9277 5.93183 76.575 7.96141 75.5161C9.99099 74.4572 12.197 74.1924 12.903 74.4572C13.6089 74.7219 13.6089 75.2513 13.9619 76.0455C14.6678 77.4574 15.2855 79.487 15.2855 79.9282C15.2855 80.6341 13.6089 80.3694 14.756 81.693C15.9032 83.0167 16.6092 83.1932 17.2269 83.8109C17.8446 84.4286 18.6387 83.7226 18.9034 85.1345C19.1682 86.6346 18.9917 87.0758 18.9034 87.7818C18.8152 88.4877 20.5801 88.0465 19.0799 89.3701C17.6681 90.6938 16.9621 92.3704 16.9621 92.3704L16.0797 95.9883C16.0797 95.9883 16.9621 96.5178 16.5209 97.4885C16.0797 98.4591 15.462 100.047 15.462 100.047C15.462 100.047 14.9325 102.077 17.1386 101.195C19.3447 100.312 24.3745 98.8121 29.1396 93.7823C33.9047 88.7524 44.935 85.9287 38.758 75.6043H38.9345Z" fill="#00B2FF" stroke="#111114" stroke-width="0.492849" stroke-linecap="round" stroke-linejoin="round"/>
<path d="M12.9922 74.7223C15.1983 72.9574 18.1103 72.428 20.934 72.428C23.7578 72.428 26.4933 72.9574 29.3171 73.1339C32.1408 73.3104 35.0529 73.1339 37.5237 71.6338" stroke="#111114" stroke-width="0.492849" stroke-linecap="round" stroke-linejoin="round"/>
<path d="M20.2266 88.312C26.933 85.0471 33.1982 80.7232 38.7575 75.6934" stroke="#111114" stroke-width="0.492849" stroke-linecap="round" stroke-linejoin="round"/>
<path d="M37.7871 71.3687C37.7871 70.751 38.0518 70.3098 38.3165 69.8686C38.5813 68.9862 38.493 68.0155 39.199 67.3096C39.4637 68.2802 38.846 69.0744 38.493 69.9568C38.493 70.4863 38.3165 71.0158 37.8753 71.457L37.7871 71.3687Z" fill="#111114"/>
<path d="M38.5801 73.2215C39.0213 72.7803 39.4625 72.6921 39.992 72.6038C40.7862 72.2509 41.4921 71.6332 42.4628 71.7214C41.8451 72.4274 40.8744 72.4274 40.0802 72.6921C39.639 73.0451 39.1978 73.3098 38.5801 73.2215Z" fill="#111114"/>
<path d="M39.4648 75.957C40.0825 76.31 40.5238 76.7512 40.8768 77.3689C41.6709 78.0749 42.8181 78.6043 43.2593 79.6632C42.1122 79.3102 41.4944 78.3396 40.7885 77.5454C40.259 77.1924 39.7296 76.7512 39.4648 76.0453V75.957Z" fill="#111114"/>
<path d="M15.6409 82.8398C15.0232 83.634 14.1408 84.0752 13.2584 84.5164C11.9348 85.4871 10.7876 86.7225 9.19922 87.1637C10.2581 85.8401 11.7583 85.2224 13.1701 84.4282C13.8761 83.8105 14.7585 83.0163 15.6409 82.9281V82.8398Z" fill="#111114"/>
<path d="M18.6425 84.959C18.2896 85.9297 17.5836 86.6356 16.7895 87.3415C15.7306 88.5769 14.7599 90.3418 13.2598 90.9595C14.1422 89.4594 15.4658 88.4887 16.613 87.2533C17.1424 86.4591 17.7601 85.4002 18.5543 84.959H18.6425Z" fill="#111114"/>
<path d="M14.672 78.6932C13.966 79.3109 12.9953 79.4874 12.1129 79.3991C10.701 79.5756 8.93622 79.7521 7.78906 78.7814C9.28919 78.7814 10.701 79.3109 12.1129 79.2226C12.9071 79.0461 13.8778 78.6049 14.672 78.6932Z" fill="#111114"/>
<path d="M39.4673 76.0449C38.4084 80.7218 33.6433 82.7513 30.2018 85.5751C26.6721 88.3106 23.0542 90.9579 19.2598 93.3404C22.7012 90.4284 26.3192 87.8694 30.1136 85.3986C33.7315 82.9278 37.6142 80.1041 39.5555 76.1332L39.4673 76.0449Z" fill="#111114"/>
<path d="M39.9082 77.1934C39.4669 82.1349 35.0548 85.1352 31.5251 87.959C27.9072 90.871 24.201 93.6947 20.3184 96.2538C23.8481 93.2535 27.5542 90.4297 31.4369 87.7825C35.2313 85.2234 38.761 81.6055 39.9964 77.2816L39.9082 77.1934Z" fill="#111114"/>
<path d="M38.5869 73.8398C36.7338 75.6047 34.5277 76.9283 32.3217 78.1637C28.792 80.458 25.174 83.0171 21.2031 84.4289C24.7328 82.0464 28.6155 80.2815 32.2334 78.0755C34.263 76.6636 36.469 74.8988 38.5869 73.8398Z" fill="#111114"/>
<path d="M38.4115 72.4287C36.8232 74.1936 34.7053 75.5172 32.4993 76.3996C28.9696 78.2527 24.9986 79.5764 20.9395 79.3116C24.8221 78.6939 28.793 77.988 32.411 76.3114C34.4406 75.1642 36.4702 73.5759 38.4115 72.4287Z" fill="#111114"/>
<path d="M38.1446 72.252C35.0561 74.6345 31.1735 75.3404 27.4673 76.2229C23.7611 77.1053 19.8784 77.2818 16.084 77.1935C19.8784 76.6641 23.6729 76.4876 27.4673 75.9581C31.2617 75.5169 34.8797 73.6638 38.2329 72.252H38.1446Z" fill="#111114"/>
<path d="M37.6139 71.0163C35.1431 71.281 32.937 69.6927 30.9957 68.5455C24.6423 64.4864 16.8769 67.5749 10.5234 70.2221C16.6122 66.4277 24.554 64.7511 31.1722 68.2808C33.2018 69.5162 35.3196 70.9281 37.6139 71.1928V71.0163Z" fill="#111114"/>
<path d="M37.2624 70.6635C34.3504 72.8696 30.9972 70.3105 27.9088 69.7811C24.732 69.2516 21.5553 69.4281 18.4668 70.2223C21.3788 68.7222 24.9085 68.5457 27.997 69.5163C30.909 70.487 34.2622 71.8106 37.2624 70.6635Z" fill="#111114"/>
</svg>
