<svg width="71" height="76" viewBox="0 0 71 76" fill="none" xmlns="http://www.w3.org/2000/svg">
<path d="M0.257812 71.6178C1.052 73.2945 2.37562 74.7063 4.05223 75.5888C12.347 65.9703 21.9655 57.499 32.6428 50.5279C30.3485 48.8513 30.7897 42.4978 27.966 43.4685C25.3187 44.4391 23.4656 48.6748 22.3184 50.9691C20.3771 54.8517 13.9354 61.5582 10.7587 64.5584C7.58194 67.5587 0.610783 72.412 0.257812 71.6178Z" fill="#00D675" stroke="#111114" stroke-width="0.492849" stroke-linecap="round" stroke-linejoin="round"/>
<path d="M66.7935 21.6721C66.7935 21.6721 66.7935 21.5839 66.7935 21.4956C69.3525 11.9654 68.3818 7.55328 67.4112 9.31813C66.4405 11.083 63.0873 13.3773 62.8226 13.8185C62.8226 11.7007 63.0873 9.93586 63.352 9.40641C64.1462 7.90628 64.2344 6.0532 62.999 6.93563C62.4696 7.37684 60.087 8.43572 57.528 9.49463C57.3515 4.64129 63.352 2.52346 59.2929 2.69994C56.9986 2.78818 54.3513 3.4059 52.4982 3.93536C52.5864 3.4059 52.5864 2.87647 52.4982 2.5235C53.0276 -0.300261 51.1746 1.19986 51.1746 1.19986C47.9096 5.08253 29.2904 14.7892 29.2904 14.7892C17.2012 24.5841 16.2305 34.379 17.9071 41.2619C18.8778 45.4093 20.8191 48.4978 21.878 49.998C22.6722 51.5863 23.6429 52.8217 24.9665 53.6159C25.0548 53.6159 25.2312 53.7924 25.3195 53.8806C26.2902 54.4983 27.6138 55.2043 29.3787 55.7337C30.4376 55.9985 31.673 56.2632 33.0848 56.3514C36.1733 56.5279 40.1442 56.0867 45.0858 54.1454C45.0858 54.1454 56.9986 48.8508 62.2049 31.5553C62.2049 31.5553 63.4403 28.555 65.2934 26.0842L68.7348 22.9075C71.0291 21.8486 68.7348 21.7604 66.7935 21.7604V21.6721Z" fill="#FF6A37"/>
<path d="M22.6703 51.0559C13.9343 39.7609 15.9639 25.4656 29.0238 15.1412C34.936 11.6997 47.3782 5.34623 51.1727 1.37532C51.4374 1.02235 52.0551 0.75762 52.4081 0.934105C52.761 1.28707 52.6728 1.99306 52.5845 2.52251C52.5845 2.61076 52.5846 3.58141 52.4963 3.66966C51.1727 4.11087 50.555 3.84615 49.849 5.16979C48.3489 8.34652 46.6723 13.1998 44.9074 15.8471C44.2015 16.9943 43.1426 18.4062 41.819 19.9945C37.6716 25.0243 29.9945 29.1717 26.2 35.437C23.5528 39.9373 21.6997 47.5262 23.4645 52.3795L22.5821 51.0559H22.6703Z" stroke="#111114" stroke-width="0.492849" stroke-linecap="round" stroke-linejoin="round"/>
<path d="M48.965 28.4658C48.965 28.4658 26.8162 49.644 25.4043 53.8797" stroke="#111114" stroke-width="0.492849" stroke-linecap="round" stroke-linejoin="round"/>
<path d="M50.9082 12.2288C52.2318 11.6993 60.3501 8.3461 62.7327 7.02246C63.0857 6.84597 63.4386 6.40474 63.7916 6.66947C64.2328 7.28716 63.6151 8.69908 63.2622 9.40502C62.5562 12.1405 62.8209 21.053 62.8209 22.5531" stroke="#111114" stroke-width="0.492849" stroke-linecap="round" stroke-linejoin="round"/>
<path d="M62.8203 13.8172C63.8792 12.6701 66.5265 10.9052 67.3207 9.40508C67.4972 9.14035 67.4972 9.05211 67.7619 8.96387C69.4385 9.49332 67.9384 17.6999 66.7912 21.759" stroke="#111114" stroke-width="0.492849" stroke-linecap="round" stroke-linejoin="round"/>
<path d="M50.291 4.72825C50.291 4.72825 55.4091 2.87512 59.38 2.69863C63.3509 2.52215 57.4387 4.63998 57.6151 9.49332" stroke="#111114" stroke-width="0.492849" stroke-linecap="round" stroke-linejoin="round"/>
<path d="M50.2007 3.8457C42.3471 10.0227 31.9345 13.7289 23.9927 24.8474C20.1983 29.9655 17.9922 34.1129 17.9922 41.2605" stroke="#111114" stroke-width="0.492849" stroke-linecap="round" stroke-linejoin="round"/>
<path d="M20.1094 46.9084C23.4626 29.7893 33.5222 19.8179 38.6403 17.1706C41.817 14.9646 46.7586 10.5524 48.6117 7.72866C48.9647 7.11096 49.2294 6.75799 49.4941 6.40502C49.3176 6.40502 55.4946 5.16961 57.5242 4.02246C57.5242 4.19895 54.7887 10.5524 54.7887 10.5524" stroke="#111114" stroke-width="0.492849" stroke-linecap="round" stroke-linejoin="round"/>
<path d="M50.3785 9.6718C49.9372 13.8192 49.6725 21.0551 47.4665 25.026C47.3782 25.2025 44.378 30.7617 40.4953 33.5855C36.3479 36.5857 27.3472 47.7926 23.5527 52.2929C23.9939 52.8224 25.7588 54.5872 29.3767 55.6461C33.9654 57.058 40.4071 56.0874 45.0839 54.146C50.6432 51.234 55.2318 46.3807 58.7615 40.0272C60.1734 37.38 61.4088 34.4679 62.2912 31.5559C62.8207 30.2323 63.3501 29.2616 64.2325 27.7615C65.3797 25.8202 67.0563 23.6141 68.8212 22.82C69.1741 22.6435 69.6153 22.467 69.7918 22.2022C70.1448 21.4963 66.8798 21.6728 65.5562 21.761C64.8502 21.761 65.115 21.761 63.7913 22.2905C61.2323 23.3494 56.379 25.379 53.4669 26.6144C51.4374 27.4968 50.2902 27.938 49.0548 28.4674C49.0548 28.4674 53.2022 16.643 50.9962 12.3191C50.9962 12.2308 50.9962 12.2309 50.9962 12.2309C50.9962 12.0544 50.9962 11.8778 50.9962 11.5249C50.3785 5.7891 47.29 11.6131 46.2311 13.7309" stroke="#111114" stroke-width="0.492849" stroke-linecap="round" stroke-linejoin="round"/>
<path d="M66.7914 21.6709C66.7914 21.6709 58.9378 25.9065 55.0552 34.4661C51.1725 43.0256 41.2011 53.6147 29.4648 55.6443" stroke="#111114" stroke-width="0.492849" stroke-linecap="round" stroke-linejoin="round"/>
<path d="M68.732 22.8184C65.3788 23.8773 59.996 29.0835 57.7899 32.7015C57.084 34.6428 56.5545 36.0547 55.3191 38.349C53.6425 41.5258 50.9953 45.4966 47.1126 48.5851C46.4066 49.1146 45.7007 49.6441 44.9948 50.1735C35.8175 56.2623 33.082 56.3505 33.082 56.2622" stroke="#111114" stroke-width="0.492849" stroke-linecap="round" stroke-linejoin="round"/>
<path d="M51.4355 14.17C51.4355 14.17 59.9068 12.317 61.4952 9.66968C61.5834 9.4932 58.2302 22.9943 60.701 23.612" stroke="#111114" stroke-width="0.492849" stroke-linecap="round" stroke-linejoin="round"/>
<path d="M62.8203 16.024C62.8203 16.024 66.1735 14.5239 66.8795 12.9355L65.0264 21.848" stroke="#111114" stroke-width="0.492849" stroke-linecap="round" stroke-linejoin="round"/>
<path d="M60.8769 10.7295C60.8769 10.7295 54.0822 21.1421 50.1113 24.5836" stroke="#111114" stroke-width="0.492849" stroke-linecap="round" stroke-linejoin="round"/>
<path d="M47.7315 5.34799C41.8192 11.7014 34.9363 16.996 29.2888 23.6142C23.8177 30.1441 19.4939 38.439 20.3763 47.175C20.1116 45.0571 20.1116 42.8511 20.3763 40.645C22.8471 24.9378 37.1424 15.6724 47.6432 5.25977L47.7315 5.34799Z" fill="#111114"/>
<path d="M48.0865 9.40625C47.1158 26.5253 24.8787 33.2317 24.5257 50.5272C24.5257 51.5862 24.614 52.6451 24.8787 53.704C24.614 52.6451 24.4375 51.5862 24.4375 50.5272C24.4375 33.0552 46.5864 26.2606 48.1747 9.40625H48.0865Z" fill="#111114"/>
<path d="M48.5265 11.876C46.8499 28.1126 28.9367 36.1427 25.2305 51.4969C25.5834 49.5556 26.2011 47.7024 26.9953 45.9376C32.6428 33.6719 46.4969 25.9065 48.5265 11.876Z" fill="#111114"/>
<path d="M62.6457 21.9365C47.0268 28.5547 40.4968 45.9385 27.084 55.3804C40.1439 45.5855 46.7621 28.1135 62.6457 21.9365Z" fill="#111114"/>
<path d="M28.4961 55.2039C36.7909 54.8509 40.6736 46.2914 45.2622 40.6439C50.0273 34.5552 55.4983 28.9959 61.4988 24.1426C55.763 29.2606 50.3802 34.8199 45.6151 40.9087C40.9383 46.5562 36.8791 55.2039 28.4961 55.2039Z" fill="#111114"/>
</svg>
