<svg width="114" height="117" viewBox="0 0 114 117" fill="none" xmlns="http://www.w3.org/2000/svg">
<path d="M10.5273 31.228C12.8216 31.0515 15.0277 30.875 17.4102 30.875C15.2042 31.4927 12.8216 31.6692 10.5273 31.228Z" fill="#111114"/>
<path d="M12.1152 37.0532C13.9683 36.7003 15.8214 36.5238 17.7628 36.4355C15.9979 37.1415 13.9683 37.318 12.1152 37.0532Z" fill="#111114"/>
<path d="M5.32227 39.5238C7.61657 39.0826 10.0874 39.0825 12.3817 39.612C9.99912 39.612 7.70481 39.612 5.32227 39.5238Z" fill="#111114"/>
<path d="M5.23242 40.5826C7.43848 40.3179 9.73277 40.4062 11.9388 40.7591C9.73277 41.0239 7.43848 40.9356 5.23242 40.5826Z" fill="#111114"/>
<path d="M12.7344 43.8465C13.5286 43.8465 16.8818 43.4935 16.7053 44.7289C16.617 44.3759 16.2641 44.2877 15.9111 44.2877C14.8522 44.2877 13.7933 44.1994 12.7344 43.8465Z" fill="#111114"/>
<path d="M4.96875 44.2006C7.79251 43.8476 10.881 44.8183 12.9106 46.6714C10.4398 45.2595 7.79251 44.4653 4.96875 44.2006Z" fill="#111114"/>
<path d="M9.99805 48.4355C11.8511 48.8768 13.6159 49.9357 15.0278 51.3476C13.3512 50.3769 11.6747 49.4945 9.99805 48.4355Z" fill="#111114"/>
<path d="M8.05859 53.9062C10.0882 55.1416 11.853 56.8183 13.1766 58.7596C11.3236 57.2595 9.64696 55.6711 8.05859 53.9062Z" fill="#111114"/>
<path d="M4.43945 58.6719C6.73376 60.2602 8.76338 62.2016 10.44 64.4076C8.32217 62.6428 6.29255 60.7015 4.43945 58.6719Z" fill="#111114"/>
<path d="M113.155 52.8483C113.155 52.6719 113.155 52.5836 113.155 52.4071C112.537 50.6423 109.801 49.3187 108.301 48.701C109.89 47.3773 110.684 46.4067 110.772 46.3184C110.86 46.1419 110.949 45.9654 110.86 45.8772C110.772 45.789 110.684 45.6125 110.507 45.5242C108.919 44.9948 107.419 44.5536 105.919 44.2006C109.625 41.4651 109.713 38.7296 109.713 38.6413C109.713 38.4648 109.713 38.3766 109.537 38.2001C107.507 36.347 103.36 36.2588 101.242 36.4353C103.095 34.2292 104.066 32.4643 104.066 32.4643C104.154 32.2879 104.154 32.1114 104.066 31.9349C103.977 31.7584 103.801 31.6701 103.624 31.6701L96.4768 31.4054C96.4768 31.4054 96.3886 31.4054 96.3003 31.4054C101.86 26.2874 101.507 22.0517 101.418 21.8752C101.418 21.6988 101.33 21.5223 101.154 21.434C98.3299 19.8457 91.447 22.14 88.7114 23.1989C90.5645 17.9043 89.9469 14.2864 89.8586 14.0216C89.8586 13.8452 89.7703 13.7569 89.5939 13.6687C89.5056 13.6687 89.3291 13.5804 89.1526 13.6687C88.7997 13.7569 88.3585 13.9334 88.0055 14.0216C88.6232 12.1685 88.2702 9.25656 88.182 8.55062C88.182 8.28589 88.0055 8.10941 87.7408 8.10941C85.623 7.57995 82.6227 9.52128 81.1226 10.6684C81.1226 9.52128 80.9461 8.72711 80.9461 8.63887C80.9461 8.46238 80.8579 8.2859 80.6814 8.19766C80.5049 8.19766 80.3284 8.10941 80.2402 8.19766C79.6225 8.46238 79.093 8.7271 78.4753 8.99183C78.9165 5.63862 77.5046 2.10892 77.4164 1.93243C77.4164 1.75595 77.2399 1.66769 77.1517 1.66769C76.9752 1.66769 76.887 1.66769 76.7105 1.66769C73.7985 2.90308 70.8865 5.90335 69.6511 7.31523C69.3863 6.69753 69.2099 6.25631 69.1216 6.25631C69.1216 6.07982 68.9451 5.99159 68.7686 5.99159C68.5922 5.99159 68.4157 5.99157 68.3274 6.07981C67.7097 6.52103 67.1803 6.96224 66.7391 7.40345C66.2979 4.49145 63.3858 1.05 63.2976 0.87351C63.1211 0.697025 62.7682 0.608777 62.5917 0.785262C60.3856 2.37363 58.4443 4.84444 57.5618 5.99159C56.5029 4.7562 55.5323 4.22674 55.444 4.13849C55.2676 4.05025 55.0028 4.1385 54.8263 4.22674C54.5616 4.49147 54.2969 4.84444 54.0321 5.10917C53.0615 2.9031 49.7965 0.961769 49.3553 0.697041C49.1788 0.608799 48.9141 0.608799 48.7376 0.697041C46.9727 2.28541 46.0903 5.19741 45.6491 6.87402C44.9432 5.90335 44.4137 5.37388 44.3255 5.28564C44.2372 5.10915 44.0607 5.10917 43.796 5.10917C43.6195 5.10917 43.4431 5.28565 43.3548 5.46213C43.0901 5.99159 42.9136 6.52103 42.7371 7.05049C40.9723 3.69727 35.8542 2.46189 35.5895 2.37364C35.413 2.37364 35.3247 2.37364 35.1483 2.37364C32.7657 3.96201 32.9422 7.84466 33.1186 9.60951C31.7068 9.1683 30.7361 8.90358 30.5596 8.90358C30.3832 8.90358 30.1184 8.9036 30.0302 9.08008C29.5007 9.78602 29.1478 10.6684 28.9713 11.5509C26.0593 8.81534 22.2648 10.2272 22.2648 10.2272C22.0883 10.2272 22.0001 10.4037 21.9119 10.5802C21.2942 12.4333 21.7354 14.7276 22.0883 15.963C21.2059 15.7865 20.2353 15.61 19.2646 15.5218C19.0881 15.5218 18.9999 15.5218 18.8234 15.6983C18.7352 15.7865 18.6469 15.963 18.6469 16.1395C18.6469 16.1395 18.8234 18.6103 19.794 22.0517C17.1468 20.9046 12.5581 21.081 12.3816 21.081C12.1169 21.081 11.9405 21.2575 11.8522 21.5223C11.3228 24.9637 12.9111 28.317 13.7936 29.8171C12.9111 29.9053 11.9405 30.0818 10.9698 30.4348C10.7933 30.4348 10.6168 30.6995 10.6168 30.876C10.6168 31.0525 10.5286 33.082 11.764 35.7293C9.9109 35.3763 6.29292 35.1116 4.61632 37.4942C4.61632 37.5824 4.5281 37.6706 4.5281 37.8471C4.5281 38.0236 4.70456 42.0828 7.26359 44.1123C5.93995 44.3771 4.52806 44.6418 3.11618 45.1713C2.85145 45.1713 2.675 45.5242 2.76324 45.7889C2.76324 45.9654 3.02798 47.2008 4.26338 48.7892C3.02798 48.9657 1.26309 49.5834 0.468906 51.4365C0.468906 51.5247 0.468906 51.7012 0.468906 51.7895C0.468906 51.8777 1.35133 54.172 3.99861 55.2309C3.29267 55.7604 2.67497 56.3781 2.23376 57.084C2.05727 57.3487 2.23377 57.6134 2.41025 57.7899C2.41025 57.7899 4.17511 58.9371 6.99888 60.0842C4.88105 60.5255 1.7043 61.4961 0.468906 63.9669C0.380664 64.1434 0.468906 64.4081 0.468906 64.5846C0.468906 64.6729 1.43962 65.7318 3.38095 66.8789C2.49853 67.6731 1.08665 69.085 0.733677 70.7616C0.733677 70.9381 0.733656 71.1146 0.821898 71.2028C0.910141 71.291 3.20444 73.7618 5.49874 74.203C5.14577 74.8207 4.79279 75.4385 4.43982 76.1444C4.35158 76.4091 4.43983 76.6738 4.61632 76.7621C4.70456 76.7621 5.8517 77.6445 7.96952 78.174C7.17534 79.2329 5.85173 81.5272 5.85173 83.8215C5.85173 83.998 6.02819 84.2627 6.20467 84.3509C6.38116 84.3509 9.11667 85.4981 11.4992 85.4981C13.8818 85.4981 12.1169 85.4981 12.3816 85.4981C11.8522 86.91 11.4992 88.4101 11.411 90.1749C11.411 90.3514 11.411 90.5279 11.5875 90.6162C11.6757 90.7044 11.8522 90.7926 11.9404 90.7926C11.9404 90.7926 12.7347 90.7926 13.7936 90.5279C13.2641 91.5868 12.6464 93.4399 12.6464 95.7342C12.6464 95.9989 12.8229 96.1754 13.0876 96.2637C13.8818 96.4402 15.9996 96.8814 17.6762 96.8814C19.3528 96.8814 18.2939 96.8814 18.5586 96.8814C18.2939 98.7345 18.2057 100.676 18.5586 102.882C18.5586 103.058 18.6469 103.235 18.8234 103.235C18.8234 103.235 18.9999 103.235 19.0881 103.235C19.1764 103.235 19.2646 103.235 19.2646 103.235C19.4411 103.235 20.7647 102.617 22.4413 101.735C22.1766 102.97 21.8236 105.088 22.2648 107.559C22.2648 107.823 22.5296 108 22.7943 108C22.9708 108 26.7652 107.735 28.9713 105.529C28.9713 105.706 28.9713 105.882 28.9713 106.059C28.9713 106.235 28.9712 106.323 29.1477 106.412C29.236 106.412 29.3242 106.5 29.5007 106.5C29.589 106.5 30.6479 106.323 32.3245 105.706C32.6775 107.206 33.8246 111.088 35.5012 112.5C35.5894 112.589 35.766 112.677 35.8542 112.677C35.9424 112.677 36.1189 112.677 36.2071 112.589L41.6782 108.176C42.2959 110.118 43.0901 112.147 44.0607 114.265C44.0607 114.442 44.2372 114.53 44.4137 114.53C44.5902 114.53 44.4137 114.53 44.502 114.53C44.6784 114.53 44.7667 114.53 44.8549 114.353C45.0314 114.177 49.7082 109.853 51.6496 105.97C53.5909 110.912 56.2382 114.177 56.3265 114.265C56.4147 114.353 56.5912 114.442 56.7677 114.442C56.9442 114.442 57.1207 114.442 57.2089 114.265C57.6501 113.647 58.0913 113.03 58.4443 112.324C59.062 113.736 60.4738 116.206 63.0329 116.559C63.2094 116.559 63.2976 116.559 63.3859 116.383C63.4741 116.295 65.9449 113.647 66.6508 111.265C67.092 111.706 67.6215 112.059 68.1509 112.412C68.2392 112.412 68.3274 112.5 68.5039 112.5C68.6804 112.5 68.5039 112.5 68.5921 112.5C68.7686 112.5 68.8569 112.412 68.9451 112.236C68.9451 112.147 69.7393 110.824 70.5335 108.706C71.7689 109.765 74.8574 111.883 78.2106 111.971C78.4753 111.971 78.6518 111.794 78.74 111.53C78.74 111.265 79.7989 106.235 79.6225 103.235C80.2402 103.588 80.6814 103.764 80.6814 103.764H80.8579C80.8579 103.764 81.0344 103.764 81.1226 103.764C81.2991 103.764 81.3873 103.5 81.3873 103.323C81.5638 101.823 81.6521 100.411 81.5638 99.0874C84.7405 101.205 89.6821 101.735 89.9469 101.735C90.2116 101.735 90.388 101.558 90.4763 101.382C91.5352 98.2932 89.4174 94.7636 88.0938 92.9105C90.5646 93.5282 92.7706 93.6164 94.0943 93.6164C95.4179 93.6164 95.5944 93.6164 95.5944 93.6164C95.7709 93.6164 95.8591 93.5282 95.9473 93.3517C96.0356 93.2634 96.0356 93.087 95.9473 92.9105C95.6826 92.1163 95.5062 91.3221 95.1532 90.6162C96.4768 91.0574 97.7122 91.1456 98.8593 91.1456C101.683 91.1456 103.801 90.1749 103.889 90.1749C104.066 90.1749 104.154 89.9985 104.154 89.822C105.125 86.8217 101.683 82.7626 100.007 81.086C103.271 80.733 105.389 80.0271 105.389 79.9388C105.566 79.9388 105.654 79.7623 105.742 79.5858C105.831 79.4094 105.742 79.2329 105.654 79.1446C104.948 78.174 104.154 77.2915 103.36 76.4974C106.625 76.0561 109.713 74.0266 109.89 73.9383C110.066 73.8501 110.154 73.6736 110.154 73.4089C109.978 70.6734 106.536 68.1143 104.948 67.0554C106.36 66.3495 107.066 65.82 107.154 65.7318C107.242 65.6435 107.331 65.467 107.331 65.3788C107.331 65.2023 107.331 65.1141 107.154 64.9376C106.889 64.5846 106.536 64.3199 106.183 63.9669C109.272 62.555 110.684 60.2607 110.772 60.1725C110.86 59.996 110.86 59.8195 110.772 59.643C110.331 58.7606 109.272 57.8782 108.125 56.9958C110.86 55.7604 112.184 53.1131 112.272 53.0248L113.155 52.8483Z" fill="#FFEC2D"/>
<path d="M50.4128 13.2272C50.2364 12.2565 50.4128 11.2859 50.6776 10.4034C50.854 8.90331 50.854 7.0502 51.6482 5.72656C51.6482 7.31493 51.1188 8.81507 50.8541 10.4034C50.8541 11.2859 50.854 12.433 50.5011 13.2272H50.4128Z" fill="#111114"/>
<path d="M47.5011 32.9932C46.8834 32.0225 46.5305 30.9636 46.4422 29.8165C45.9128 28.0516 45.3833 26.1103 45.8245 24.1689C46.2657 26.022 46.1775 27.8751 46.5304 29.7282C46.8834 30.7872 47.4129 31.9343 47.5011 32.9932Z" fill="#111114"/>
<path d="M48.2961 33.1702C47.8549 31.6701 47.7667 30.2582 47.7667 28.7581C47.4137 26.2873 46.796 23.8165 46.9725 21.3457C47.6784 23.7283 47.6784 26.2873 47.8549 28.7581C48.1196 30.17 48.4726 31.8466 48.2961 33.2584V33.1702Z" fill="#111114"/>
<path d="M49.4413 32.4639C49.6178 29.5519 50.1472 26.5516 49.6178 23.6396C49.1766 20.7276 48.3824 17.9038 47.5 15.0801C48.9119 17.7274 49.6178 20.6394 49.7943 23.6396C49.8825 26.5516 50.3237 29.8166 49.3531 32.4639H49.4413Z" fill="#111114"/>
<path d="M82.7969 33.5226C84.4735 32.0224 86.5913 31.0518 88.1796 29.3752L92.8565 24.4336C91.7976 26.3749 90.121 28.1398 88.3561 29.5516C86.5913 30.8753 84.9147 32.8166 82.8851 33.5226H82.7969Z" fill="#111114"/>
<path d="M77.9453 42.1714C78.8277 39.7888 80.8573 38.2887 82.7987 36.965C84.74 35.5532 87.2108 34.759 89.6816 34.9355C87.299 35.2884 85.0929 35.9944 82.9751 37.1415C80.8573 38.2004 79.4454 40.4948 77.9453 42.1714Z" fill="#111114"/>
<path d="M78.8262 43.494C79.3556 42.6998 80.0615 42.1704 80.944 41.7292C82.1794 40.8467 83.4148 39.6996 85.0031 39.6113C83.7678 40.582 82.3559 41.0232 81.0322 41.9056C80.4145 42.5233 79.6204 43.3175 78.8262 43.5822V43.494Z" fill="#111114"/>
<path d="M79.7109 44.9063C81.0346 44.2886 82.4464 43.8474 83.7701 43.318C85.9761 42.259 87.741 40.5824 89.8588 39.2588C88.3587 41.2884 86.0644 42.4355 83.8583 43.4944C82.6229 44.2004 81.0346 44.9945 79.7109 44.9063Z" fill="#111114"/>
<path d="M80.8574 46.3184C84.2989 45.5242 87.9168 44.6418 90.917 42.6122C93.9173 40.5827 96.4764 38.1118 98.6824 35.2881C96.9176 38.4648 94.182 41.0239 91.0053 42.7887C87.9168 44.4653 84.3871 46.4066 80.8574 46.3184Z" fill="#111114"/>
<path d="M82.4456 33.7873C84.6517 32.7284 87.0343 32.1989 89.0638 30.8753C91.0934 29.5516 93.0348 28.0515 94.9761 26.6396C93.476 28.4927 91.3581 29.9929 89.1521 31.0518C87.0342 32.1107 84.74 33.6108 82.3574 33.7873H82.4456Z" fill="#111114"/>
<path d="M94.1839 43.582C95.2428 42.8761 96.39 42.3466 97.5371 41.9054C99.3902 40.8465 100.89 39.2581 102.655 38.1992C101.42 39.9641 99.3902 41.023 97.5371 41.9936C96.5665 42.6996 95.2429 43.4937 94.0957 43.582H94.1839Z" fill="#111114"/>
<path d="M81.3867 49.0537C84.2987 48.6124 87.299 48.6125 90.1228 47.8183C92.9465 47.0241 95.682 45.9652 98.5058 44.9062C95.9468 46.4064 93.123 47.4653 90.211 47.9947C87.3872 48.5242 84.2105 49.4949 81.3867 49.0537Z" fill="#111114"/>
<path d="M82.4456 51.7005C83.1516 50.8181 84.387 50.7299 85.4459 50.7299C87.2108 50.4651 88.9756 50.0239 90.7405 50.2887C89.0639 50.9064 87.2108 50.7299 85.4459 50.9064C84.387 51.0829 83.3281 51.4358 82.3574 51.7005H82.4456Z" fill="#111114"/>
<path d="M83.1543 53.3764C86.0663 52.5822 89.1548 52.4939 92.155 51.6997C93.6552 51.3468 95.067 50.9938 96.5672 50.6408C98.0673 50.2879 99.5674 50.0231 100.626 48.876C99.9204 50.2879 98.1555 50.7291 96.6554 51.082C95.1553 51.435 93.6552 51.6997 92.155 51.9645C89.1548 52.3174 86.0663 53.4646 83.1543 53.3764Z" fill="#111114"/>
<path d="M95.5941 43.4938C96.7413 42.9643 97.9767 42.6996 99.1238 42.6113C101.153 42.1701 103.183 41.5524 105.213 41.9054C103.183 42.4348 101.153 42.4348 99.1238 42.7878C97.9767 43.1408 96.653 43.582 95.5059 43.582L95.5941 43.4938Z" fill="#111114"/>
<path d="M102.035 52.3183C102.918 52.1418 103.712 52.3183 104.506 52.3183C105.83 52.23 107.153 51.6123 108.565 51.6123C107.418 52.4947 105.918 52.4947 104.506 52.4947C103.712 52.6712 102.653 52.7595 102.035 52.3183Z" fill="#111114"/>
<path d="M100.801 55.3184C95.3303 57.1715 89.1534 57.6127 83.5059 56.9067C86.9473 56.289 90.6535 56.5537 94.1832 56.9067C97.7129 57.3479 101.243 58.0539 104.596 58.8481C101.154 58.4068 97.6247 57.7891 94.095 57.3479C90.6535 56.9067 87.1238 56.642 83.5941 56.995V56.8185C89.3298 57.4362 95.2421 56.3773 100.801 55.3184Z" fill="#111114"/>
<path d="M101.949 52.849C102.655 52.6725 103.273 52.849 103.979 53.0255C105.126 53.0255 106.273 52.9372 107.332 53.4667C106.185 53.7314 105.126 53.2902 103.979 53.1137C103.361 53.1137 102.479 53.1137 102.037 52.7607L101.949 52.849Z" fill="#111114"/>
<path d="M83.0645 61.7616C84.5646 61.3204 86.0647 61.1439 87.5648 61.2322C90.0356 61.0557 92.6829 60.7027 95.1537 61.4087C92.5947 61.5851 90.1238 61.2322 87.5648 61.4087C86.0647 61.5851 84.3881 61.9381 83.0645 61.8499V61.7616Z" fill="#111114"/>
<path d="M82.9746 62.6436C83.857 62.3789 84.8277 62.4672 85.7102 62.6436C87.2103 62.6436 88.8869 62.2907 90.2988 62.6436C88.7987 63.0849 87.2103 62.7319 85.7102 62.6436C84.8277 62.7319 83.6805 62.9084 82.9746 62.5554V62.6436Z" fill="#111114"/>
<path d="M82.623 63.7015C84.2114 63.7015 85.7997 64.0545 87.3881 64.231C90.0354 64.4075 92.7709 63.9662 95.4182 63.9662C92.8592 64.7604 90.0354 64.5839 87.3881 64.3192C85.888 64.3192 83.9467 64.3192 82.623 63.6133V63.7015Z" fill="#111114"/>
<path d="M82.3578 64.6722L86.7699 65.5547C91.1821 66.6136 95.7707 65.9958 100.271 65.6429C97.359 66.4371 94.2705 66.6136 91.1821 66.2606C88.5348 65.9959 84.4756 65.8194 82.2695 64.584L82.3578 64.6722Z" fill="#111114"/>
<path d="M92.8594 69.1729C94.183 69.3493 95.5067 69.6141 96.8303 69.8788C99.0364 70.0553 101.331 69.5258 103.537 69.4376C101.419 70.4083 99.0364 70.32 96.8303 70.0553C95.5067 70.0553 93.9183 69.967 92.8594 69.2611V69.1729Z" fill="#111114"/>
<path d="M93.5667 69.7026C94.8021 69.6144 95.9493 69.8791 97.0964 70.2321C99.0378 70.5851 101.067 70.8498 102.744 71.997C100.803 71.7322 98.9496 70.8498 97.0082 70.4086C95.8611 70.2321 94.5374 70.2321 93.4785 69.7909L93.5667 69.7026Z" fill="#111114"/>
<path d="M81.2109 69.3491C83.6817 68.8196 86.0643 69.5256 88.4468 69.9668C90.8294 70.408 93.2119 71.3787 95.065 72.967C91.8001 71.4669 88.4469 69.702 84.8289 69.6138L81.2109 69.4373V69.3491Z" fill="#111114"/>
<path d="M80.8598 70.4093C81.9187 70.1446 83.0658 70.321 84.1247 70.5857C85.8896 70.7622 87.9191 71.027 89.331 72.0859C87.5662 71.8212 85.8896 71.027 84.0365 70.674C82.9776 70.674 81.7422 70.674 80.7715 70.321L80.8598 70.4093Z" fill="#111114"/>
<path d="M80.3301 71.2022C81.1243 71.1139 81.9185 71.2904 82.6244 71.6434C83.8598 71.9081 85.4482 71.9081 86.4188 72.7905C85.0952 72.7905 83.8598 72.1728 82.6244 71.8199C81.9185 71.8199 80.8595 71.7316 80.3301 71.2904V71.2022Z" fill="#111114"/>
<path d="M79.7992 72.1722C82.7994 73.5841 85.7114 75.2607 88.9764 75.8784C92.2414 76.5843 95.5063 76.8491 98.8595 76.9373C95.5063 77.3785 92.1531 77.0256 88.8881 76.0549C85.7996 75.0842 82.1817 74.2018 79.7109 72.084L79.7992 72.1722Z" fill="#111114"/>
<path d="M92.2402 80.291C93.7404 80.4675 95.1522 81.1734 96.3876 82.0559C98.5937 83.203 100.888 84.6149 102.123 86.821C100.182 85.2326 98.4172 83.3795 96.2994 82.1441C94.9758 81.5264 93.3874 80.997 92.2402 80.291Z" fill="#111114"/>
<path d="M89.5938 80.0267C90.7409 80.2915 91.7998 80.8209 92.7705 81.5268C94.5354 82.4093 96.3885 83.2917 97.6239 84.7918C95.859 83.9976 94.3588 82.5857 92.6822 81.6151C91.6233 81.1739 90.3879 80.7327 89.5938 79.9385V80.0267Z" fill="#111114"/>
<path d="M89.7695 81.4395C91.1814 81.7924 92.4168 82.4983 93.5639 83.3808C95.5935 84.5279 97.7996 85.7633 99.2115 87.6164C97.1819 86.381 95.5053 84.7927 93.4757 83.469C92.2403 82.8513 90.7402 82.2336 89.7695 81.4395Z" fill="#111114"/>
<path d="M76.7988 77.2041C79.3579 77.5571 81.4757 79.0572 83.77 80.2043C85.9761 81.3515 88.0939 82.9399 89.6823 84.9695C86.682 82.6752 83.9465 79.9396 80.3285 78.7042L76.8871 77.2041H76.7988Z" fill="#111114"/>
<path d="M76.4453 77.9961C77.416 78.1726 78.2101 78.702 79.0043 79.3197C80.328 80.1139 82.0928 80.8199 82.887 82.0553C81.3869 81.3493 80.2397 80.2904 78.9161 79.408C78.1219 79.055 76.9748 78.6138 76.4453 77.9961Z" fill="#111114"/>
<path d="M75.3867 78.4375C77.4163 80.4671 79.0929 82.7614 81.5637 84.3498C83.9462 85.9381 86.417 87.1735 89.0643 88.4089C86.2405 87.703 83.6815 86.2911 81.4755 84.5263C79.3577 82.7614 76.7103 80.9083 75.4749 78.4375H75.3867Z" fill="#111114"/>
<path d="M69.5616 83.7328C69.738 85.1446 69.8263 86.4683 70.091 87.7919C70.7969 89.998 72.297 91.7628 73.7089 93.5277C71.6793 92.2923 70.5322 89.998 69.9145 87.7919C69.385 86.5565 69.0321 84.8799 69.4733 83.6445L69.5616 83.7328Z" fill="#111114"/>
<path d="M70.2694 83.3789C70.7107 83.9966 70.7989 84.6143 70.8871 85.3203C71.3284 86.3792 72.0343 87.2616 72.1225 88.497C71.2401 87.791 71.0636 86.4674 70.7107 85.4085C70.3577 84.7908 70.0929 84.1731 70.1812 83.4672L70.2694 83.3789Z" fill="#111114"/>
<path d="M70.625 82.8496C72.7428 84.7027 73.537 87.35 74.6842 89.8208C75.7431 92.2916 76.3608 94.9388 76.7138 97.5861C75.8313 95.0271 75.2136 92.468 74.5077 89.909C73.8018 87.35 71.9487 85.0557 70.7133 82.9379L70.625 82.8496Z" fill="#111114"/>
<path d="M71.5918 82.6729C72.9154 83.2905 73.9744 84.3494 74.8568 85.4966C76.4451 87.2614 78.0335 89.3793 78.3865 91.8501C76.9746 89.3793 76.0039 86.4673 73.7096 84.6142L71.5918 82.6729Z" fill="#111114"/>
<path d="M78.4746 87.085C80.5924 87.9674 82.0043 89.8205 83.5927 91.4088C85.181 92.9972 86.5929 94.9385 87.2989 97.0564C86.0635 95.2033 84.828 93.3502 83.4162 91.5853C82.0925 89.8205 79.8865 88.6733 78.4746 87.085Z" fill="#111114"/>
<path d="M79.5352 89.0273C80.4176 89.4686 81.1235 90.2628 81.7412 91.0569C82.8884 92.2041 84.3885 93.4395 84.8297 95.0279C83.5943 93.8807 82.7119 92.3806 81.6529 91.1452C80.947 90.5275 79.9764 89.8215 79.5352 89.0273Z" fill="#111114"/>
<path d="M80.5938 91.7637C81.2114 92.3814 81.6526 93.0873 82.0938 93.7933C83.0645 94.8522 84.2999 95.5581 85.1823 96.7053C83.7704 96.264 82.888 95.0286 82.0056 93.8815C81.3879 93.352 80.682 92.5579 80.5938 91.7637Z" fill="#111114"/>
<path d="M72.0332 96.5283C73.2686 97.9402 73.798 99.7933 74.7687 101.382C75.7394 102.97 76.7101 104.735 77.063 106.5C75.7394 104.558 75.0335 102.352 73.9745 100.235C73.2686 99.0874 72.3862 97.7637 72.0332 96.5283Z" fill="#111114"/>
<path d="M75.1234 99.7051C75.6529 100.146 75.9176 100.764 76.0941 101.47C76.6235 102.441 77.506 103.323 77.5942 104.47C76.7118 103.676 76.447 102.617 75.9176 101.558C75.4764 101.029 75.1234 100.499 75.0352 99.7933L75.1234 99.7051Z" fill="#111114"/>
<path d="M72.3866 100.059C72.9161 101.206 73.1808 102.353 73.4456 103.589C74.2397 105.53 75.4752 107.207 76.2693 109.06C74.7692 107.648 73.975 105.53 73.3573 103.589C72.8279 102.53 72.2984 101.118 72.3866 99.9707V100.059Z" fill="#111114"/>
<path d="M72.2114 103.058C72.3879 103.675 72.2114 104.205 72.2114 104.822C72.3879 105.793 72.9173 106.587 73.0056 107.646C72.2114 106.94 72.1232 105.881 72.1232 104.822C71.9467 104.205 71.8585 103.587 72.2114 103.058Z" fill="#111114"/>
<path d="M64.0938 85.3203C66.1233 87.1734 67.1822 89.8207 68.2412 92.3797C69.3001 94.9387 69.9177 97.6743 69.653 100.41C69.3883 97.6743 68.8588 95.027 68.0647 92.468C67.3587 89.8207 65.3291 87.6146 64.0938 85.3203Z" fill="#111114"/>
<path d="M54.3848 86.3799L53.5906 90.2626C52.6199 94.1452 53.5906 98.2044 54.0318 102.087C53.0611 99.6163 52.7964 96.8808 52.9729 94.2335C53.2376 91.6745 53.1494 88.6742 54.3848 86.3799Z" fill="#111114"/>
<path d="M62.8555 85.9385C63.7379 86.8209 64.4438 88.1446 64.885 89.2917C65.8557 91.233 66.8264 93.3509 66.8264 95.5569C66.0322 93.5274 65.6792 91.3213 64.7968 89.38C64.1791 88.2328 63.2967 87.0856 62.9437 85.9385H62.8555Z" fill="#111114"/>
<path d="M61.5332 86.3799C63.0333 88.6742 63.4745 91.4097 64.1805 94.057C64.8864 96.7043 65.0629 99.4398 64.6217 102.175C64.357 98.2044 64.4452 93.9688 62.9451 90.2626L61.5332 86.4681V86.3799Z" fill="#111114"/>
<path d="M55.5311 86.6445C55.4429 87.8799 55.0899 89.0271 54.7369 90.1742C54.4722 92.2038 54.7369 94.2334 54.4722 96.263C53.8545 94.3216 54.2075 92.2038 54.5605 90.1742C54.5605 89.0271 54.8252 87.527 55.4429 86.6445H55.5311Z" fill="#111114"/>
<path d="M56.7662 86.292C56.7662 87.6156 56.5896 88.9393 56.4132 90.2629C56.3249 92.469 56.5896 94.7633 56.2367 96.8811C55.7072 94.675 56.0602 92.469 56.2367 90.2629C56.2367 88.9393 56.2367 87.4391 56.7662 86.292Z" fill="#111114"/>
<path d="M57.4746 86.3802C58.357 88.7628 58.2688 91.3218 58.5335 93.7926C58.7983 96.2634 58.7982 98.9107 58.1805 101.293C58.1805 98.8224 58.2688 96.2634 58.357 93.7926C58.4453 91.3218 57.5628 88.6745 57.5628 86.292L57.4746 86.3802Z" fill="#111114"/>
<path d="M61.7965 104.823C61.973 105.882 61.7965 106.853 61.7965 107.823C61.7965 109.5 62.326 111.177 62.0613 112.942C61.4436 111.353 61.6201 109.588 61.6201 107.823C61.5318 106.853 61.3553 105.617 61.7965 104.823Z" fill="#111114"/>
<path d="M62.2383 105.265C62.7677 105.971 62.9442 106.853 63.0325 107.735C63.3855 109.059 63.9149 110.736 63.4737 111.971C63.0325 110.559 63.1207 109.147 62.9443 107.735C62.6795 106.941 62.2383 106.059 62.3266 105.265H62.2383Z" fill="#111114"/>
<path d="M47.0615 85.9388C42.4729 90.4392 43.3552 95.116 43.267 100.94C42.8258 98.2928 42.6493 95.469 43.267 92.8217C43.8847 90.2627 44.7671 87.086 47.1497 85.8506L47.0615 85.9388Z" fill="#111114"/>
<path d="M47.6774 86.0264C47.0597 87.35 46.442 88.5854 45.7361 89.909C44.8537 92.2033 44.6772 94.5859 44.0595 96.8802C43.7947 94.4094 44.6772 92.0269 45.5596 89.8208C46.0008 88.4972 46.6185 86.9088 47.5892 86.0264H47.6774Z" fill="#111114"/>
<path d="M48.7359 86.1152L47.3241 90.7921C45.7357 95.4689 45.8239 100.411 45.6474 105.264C45.2062 101.999 45.3827 98.7339 46.0004 95.4689C46.6181 92.7334 47.2358 88.4095 48.7359 86.1152Z" fill="#111114"/>
<path d="M49.7104 86.2914C49.3575 88.4974 48.3868 90.6153 48.122 92.8213C47.8573 95.0274 47.5926 97.3217 47.1514 99.5278C46.9749 97.2334 47.3279 94.9391 47.8573 92.7331C48.475 90.6152 48.5633 88.0562 49.7104 86.2031V86.2914Z" fill="#111114"/>
<path d="M50.6775 86.4688C49.9716 89.9102 49.1774 93.3517 49.2657 96.8814C49.2657 100.411 49.5304 103.941 49.2657 107.47C49.001 103.941 48.9127 100.411 49.1774 96.8814C49.4421 93.4399 49.3539 89.5572 50.854 86.4688H50.6775Z" fill="#111114"/>
<path d="M40.8836 82.9385C37.1774 85.2328 35.8538 89.9979 34.4419 93.7923C33.9124 95.116 33.4712 96.7043 32.8535 97.8515C33.4712 95.0277 34.3536 92.2922 35.6773 89.6449C36.9127 87.1741 37.9716 83.7327 40.8836 82.9385Z" fill="#111114"/>
<path d="M41.5906 83.8213C40.9729 84.6155 40.2669 85.2332 39.561 85.8509C38.5903 87.0863 37.9726 88.6746 37.002 89.91C37.1784 88.2334 38.3256 86.998 39.4727 85.7626C40.0022 84.9685 40.7081 84.086 41.5906 83.8213Z" fill="#111114"/>
<path d="M43.0024 84.1738C42.2083 85.1445 41.3259 86.0269 40.4434 86.9094C39.1198 88.4977 38.3256 90.439 37.002 92.1157C37.5314 90.0861 38.9433 88.4095 40.3552 86.8211C41.0611 85.8504 41.9435 84.615 43.0024 84.1738Z" fill="#111114"/>
<path d="M44.0608 84.6152C42.8254 86.6448 41.1488 88.4979 40.1781 90.704C39.2075 92.9101 38.5016 95.2043 37.6191 97.4986C37.7956 95.1161 38.7663 92.7336 39.9134 90.6157C41.1488 88.5862 42.1195 86.0271 43.9726 84.6152H44.0608Z" fill="#111114"/>
<path d="M40.1779 101.559C39.6485 102.441 38.9426 103.235 38.3249 104.029C37.4424 105.529 37.0012 107.206 36.207 108.706C36.207 106.941 37.266 105.353 38.2367 103.941C38.6779 103.059 39.3838 102 40.1779 101.559Z" fill="#111114"/>
<path d="M40.7951 101.294C40.6187 102.265 40.1774 103.147 39.7362 104.029C39.1185 105.53 38.8538 107.206 37.7949 108.53C37.9714 106.853 38.9421 105.53 39.5598 104.029C39.8245 103.147 40.0892 102 40.7951 101.382V101.294Z" fill="#111114"/>
<path d="M25.5332 103.322C26.3274 100.763 28.1805 98.7337 29.8571 96.7041C29.8571 96.7041 29.9453 96.7041 30.0336 96.7041C29.9453 98.0277 29.4159 99.5279 29.0629 100.852C28.6217 102.087 27.9158 103.587 27.0333 104.469C28.357 102.087 29.0629 99.4396 29.8571 96.7923H30.0336C28.1805 98.7337 27.0333 101.381 25.5332 103.411V103.322Z" fill="#111114"/>
<path d="M35.5891 79.3203C32.0594 82.5853 29.9416 87.7916 25 89.2035C27.0296 87.8798 29.0592 86.468 30.7358 84.7914C32.5006 83.203 33.2948 80.291 35.5891 79.4086V79.3203Z" fill="#111114"/>
<path d="M36.9131 80.5557C34.1775 82.497 32.1479 85.3207 30.6478 88.2327C29.1477 91.233 27.2064 94.4097 23.9414 95.6451C26.8534 93.8803 28.6182 90.9683 30.4713 88.1445C32.2362 85.409 33.8246 81.7028 37.0013 80.5557H36.9131Z" fill="#111114"/>
<path d="M31.2664 72.9668C30.2075 75.3493 28.0014 76.9377 25.9718 78.4378C23.9423 80.0262 21.4715 80.9969 18.8242 81.1733C21.295 80.4674 23.5893 79.4967 25.7953 78.2613C28.0014 77.026 29.5898 74.6434 31.1782 72.9668H31.2664Z" fill="#111114"/>
<path d="M31.8836 74.29C31.0895 76.6726 29.0599 78.3492 27.2068 79.8493C25.2655 81.4377 22.8829 82.4083 20.4121 82.4083C22.7947 81.7906 25.0007 80.9082 27.1185 79.6728C29.2363 78.4374 30.56 76.0549 31.9719 74.29H31.8836Z" fill="#111114"/>
<path d="M33.4741 75.5264C31.974 78.3501 29.7679 80.6444 27.4736 82.7623C25.1793 84.8801 22.0908 86.5567 18.9141 86.4684C22.0026 86.0272 24.8263 84.5271 27.2971 82.674C29.8561 80.8209 31.3563 77.7324 33.4741 75.6146V75.5264Z" fill="#111114"/>
<path d="M22.0893 87.7035C21.7363 88.4976 21.0304 89.0271 20.2362 89.3801C19.0891 90.1743 17.8536 91.1449 16.3535 90.9684C17.5889 90.2625 18.9126 89.9978 20.148 89.2036C20.7657 88.6741 21.3833 87.88 22.0893 87.6152V87.7035Z" fill="#111114"/>
<path d="M22.7952 87.7041C22.1775 88.3218 21.4716 88.763 20.7656 89.2925C19.795 90.3514 19.442 91.8515 18.7361 93.0869C18.6478 91.4985 19.6185 90.2631 20.6774 89.2042C21.2069 88.4983 22.0011 87.7041 22.7952 87.7041Z" fill="#111114"/>
<path d="M42.2955 35.8164C41.2366 32.2867 40.5306 28.6688 38.7658 25.4038C37.0009 22.1388 35.0596 19.1386 32.8535 16.2266C35.5008 18.8738 37.5304 21.9623 38.9423 25.4038C40.3542 28.757 42.119 32.2867 42.2955 35.9047V35.8164Z" fill="#111114"/>
<path d="M36.4708 14.5518C36.7355 15.7872 36.8237 16.9343 36.8237 18.1697C37.1767 20.1993 38.0591 22.0524 38.4121 24.082C37.2649 22.3171 37.0002 20.1993 36.7355 18.1697C36.4708 17.0226 36.1178 15.6107 36.4708 14.5518Z" fill="#111114"/>
<path d="M36.5586 5.81445C37.5293 6.43215 38.0587 7.40282 38.4999 8.46173C39.3824 10.0501 40.2648 11.9032 39.9118 13.7563C39.3823 11.9914 39.2058 10.2266 38.4117 8.54998C37.8822 7.66755 36.9998 6.69688 36.6468 5.81445H36.5586Z" fill="#111114"/>
<path d="M24.5566 12.2559C25.5273 12.5206 26.2332 13.2265 26.7627 14.0207C27.8216 15.1679 28.9688 16.4915 28.9688 18.0799C28.1746 16.7562 27.6451 15.2561 26.6744 14.109C25.9685 13.4913 25.0861 12.9618 24.6449 12.2559H24.5566Z" fill="#111114"/>
<path d="M40.2651 6.87305C40.4415 7.75547 40.265 8.54965 40.0886 9.43207C40.0886 10.844 40.3533 12.2558 40.0003 13.6677C39.4709 12.2558 39.8239 10.844 40.0003 9.43207C40.0003 8.63789 39.9121 7.57899 40.3533 6.87305H40.2651Z" fill="#111114"/>
<path d="M28.2671 17.5501C27.7376 17.1089 27.3847 16.6677 27.0317 16.1383C26.2375 15.4323 25.1786 15.0793 24.4727 14.2852C25.6198 14.2852 26.414 15.2558 27.1199 16.05C27.6494 16.403 28.1788 16.8442 28.2671 17.5501Z" fill="#111114"/>
<path d="M23.9414 24.9629C26.6769 31.0516 31.442 36.5227 37.9719 38.6405L37.7955 38.9934C35.9424 37.5816 34.2658 35.9932 32.7657 34.2284C31.3538 32.4635 29.7654 30.5221 28.7947 28.5808C30.2066 30.3457 31.6185 32.1988 33.1186 33.8754C34.6187 35.552 36.2954 37.2286 38.0602 38.6405C38.2367 38.7287 38.0602 39.0817 37.8837 38.9934C31.795 36.4344 25.8827 31.4046 24.0296 24.9629H23.9414Z" fill="#111114"/>
<path d="M38.3266 38.4645C37.1794 36.1702 36.4735 33.6994 34.9734 31.6698C33.5615 29.552 31.8849 27.6106 30.3848 25.5811C32.4143 27.1694 34.0027 29.2873 35.2381 31.4933C36.3853 33.6994 38.0619 35.9937 38.3266 38.4645Z" fill="#111114"/>
<path d="M39.7382 37.8461C38.944 34.6694 38.1499 31.4926 36.1203 28.8454C34.0907 26.2863 31.7082 24.0803 28.9727 22.3154C31.9729 23.6391 34.5319 25.9334 36.2968 28.7571C37.9734 31.4926 39.8264 34.6694 39.7382 37.8461Z" fill="#111114"/>
<path d="M24.7364 32.7289C23.854 31.7582 23.1481 30.6993 22.4421 29.6404C21.0303 27.9638 19.2654 26.7284 17.8535 25.0518C19.7949 26.0224 21.2067 27.7873 22.5304 29.5521C23.4128 30.4346 24.3835 31.5817 24.7364 32.7289Z" fill="#111114"/>
<path d="M21.8242 31.1399C20.7653 30.7869 19.8829 29.9927 19.0887 29.1985C17.6768 28.0514 16.0884 26.7277 15.4707 24.9629C16.7943 26.2865 17.8533 27.8749 19.1769 29.1103C20.0593 29.728 21.2065 30.3457 21.8242 31.1399Z" fill="#111114"/>
<path d="M16.7949 38.1992C20.5894 42.2584 25.7074 45.5233 31.3549 45.7881V46.141C27.2958 45.0821 23.8543 42.4348 20.6776 39.7876C22.3542 40.7582 24.1191 42.1701 25.8839 43.1408C27.6488 44.1997 29.5019 45.1704 31.4432 45.7881C31.5315 45.7881 31.6197 45.8763 31.5314 46.0528C31.5314 46.0528 31.4432 46.141 31.3549 46.141C29.9431 45.9646 28.5312 45.6116 27.2076 45.1704C23.2367 43.935 19.0892 41.6407 16.7949 38.1992Z" fill="#111114"/>
<path d="M32.1487 45.0822C30.1192 44.0233 28.619 42.3467 26.6777 41.1113C24.8246 39.8759 22.8833 38.5522 21.2949 36.9639C23.2363 38.0228 25.0894 39.5229 26.766 40.9348C28.4426 42.4349 30.7369 43.4938 32.0605 45.0822H32.1487Z" fill="#111114"/>
<path d="M33.0325 44.5539C31.3559 42.0831 29.6793 39.524 27.1203 37.8474C24.6495 36.1708 21.914 35.0237 19.002 34.2295C22.0022 34.4942 24.9142 35.8179 27.2968 37.7592C29.5911 39.6123 32.1501 41.8183 33.0325 44.6421V44.5539Z" fill="#111114"/>
<path d="M30.2063 48.7889C26.2354 48.0829 22.8821 45.8769 19.1759 44.3767C15.558 42.7884 11.9401 41.1118 8.85156 38.5527C11.7636 40.3176 16.264 42.5236 19.2642 44.2003C22.7057 46.0533 26.6766 47.377 30.2063 48.7889Z" fill="#111114"/>
<path d="M19.2654 44.3753C17.8535 44.2871 16.4416 43.9341 15.118 43.4929C12.8237 43.1399 10.3529 43.2282 8.05859 42.6105C10.4411 42.2575 12.8237 42.8752 15.118 43.3164C16.4416 43.4929 18.1183 43.6694 19.2654 44.2871V44.3753Z" fill="#111114"/>
<path d="M28.3517 54.7015C25.5279 54.9662 22.7041 54.2603 19.8804 53.8191C17.0566 53.3778 14.2329 52.6719 11.6738 51.4365C14.4093 52.1425 17.1449 52.9366 19.8804 53.6426C22.6159 54.3485 25.7044 54.172 28.2634 54.7015H28.3517Z" fill="#111114"/>
<path d="M28.4425 53.4651C26.2365 53.6416 24.1187 53.0239 21.9126 52.7592C19.7065 52.5827 17.5887 52.1415 15.4709 51.3473C15.4709 51.3473 15.3826 51.3473 15.4709 51.1708C15.6473 50.9943 16.1768 51.3473 16.4416 51.4355C16.1768 51.4355 15.8239 51.4355 15.5591 51.3473V51.1708C17.4122 51.5238 20.0595 52.1415 22.0008 52.5827C24.1186 53.1121 26.5012 52.8474 28.5308 53.5534L28.4425 53.4651Z" fill="#111114"/>
<path d="M28.7062 52.495C27.559 52.5832 26.4119 52.4067 25.2647 52.0537C23.4116 51.789 21.2056 51.7008 19.6172 50.8184C21.5585 50.9066 23.4116 51.5243 25.2647 51.9655C26.4119 52.0537 27.7355 52.0538 28.7062 52.5832V52.495Z" fill="#111114"/>
<path d="M29.0588 51.6134C26.588 50.9074 24.2937 49.672 21.8229 49.3191C19.3521 48.8779 16.7931 48.6131 14.3223 48.1719C16.8813 47.9954 19.4404 48.3484 21.9112 49.0544C24.2937 49.8485 27.1174 50.2015 29.0588 51.6134Z" fill="#111114"/>
<path d="M27.737 57.3473C25.178 57.7886 22.619 57.2591 20.0599 57.2591C17.5009 57.2591 14.8536 56.9944 12.3828 56.2002C14.9418 56.2884 17.5009 56.6414 20.0599 56.9944C22.5307 57.3473 25.3545 56.9061 27.737 57.3473Z" fill="#111114"/>
<path d="M27.6467 58.5843C26.323 58.849 25.0876 58.849 23.764 58.6726C21.6461 58.6726 19.2636 58.9373 17.3223 58.2314C19.5283 58.0549 21.6461 58.4079 23.764 58.4961C24.9994 58.4961 26.4995 58.2314 27.6467 58.4961V58.5843Z" fill="#111114"/>
<path d="M27.3834 59.995C25.8833 60.4362 24.1184 60.5244 22.53 60.348C19.8828 60.348 17.059 60.348 14.5 59.2891L20.8535 60.1715C22.9713 60.5245 25.2656 59.8185 27.2952 59.995H27.3834Z" fill="#111114"/>
<path d="M27.9118 62.9072C25.794 64.1426 23.3231 64.2309 20.9406 64.4956C18.558 64.7603 16.0873 64.4956 13.793 63.7014C17.3227 64.1426 20.9406 64.8486 24.4703 63.7897L27.9118 62.9072Z" fill="#111114"/>
<path d="M28.177 64.1426C25.3533 65.9957 21.9118 66.5251 18.6468 66.8781C15.2936 67.3193 11.8522 66.8781 8.76367 65.5545C12.0286 66.3486 15.2936 66.7898 18.5586 66.7016C21.9118 66.7016 25.0886 65.2015 28.0888 64.1426H28.177Z" fill="#111114"/>
<path d="M28.709 67.8486C27.7383 68.7311 26.5029 69.2605 25.2675 69.6135C23.238 70.4077 21.0319 71.1136 18.9141 70.5842C21.0319 70.2312 23.238 70.143 25.2675 69.5253C26.4147 68.9958 27.6501 68.2016 28.7972 67.9369L28.709 67.8486Z" fill="#111114"/>
<path d="M29.0589 68.8197C26.9411 70.4963 24.2056 71.114 21.7348 71.9964C19.1758 72.8789 16.4402 73.2318 13.793 72.9671C17.7639 72.4376 21.823 72.2612 25.441 70.4081L29.0589 68.7314V68.8197Z" fill="#111114"/>
<path d="M29.414 69.7914C28.7081 70.5856 27.8256 71.0268 26.855 71.3797C25.3548 72.1739 23.7665 73.1446 22.0898 73.0564C23.59 72.2622 25.2666 71.9974 26.855 71.2033C27.6491 70.6738 28.6198 69.8796 29.5022 69.7031L29.414 69.7914Z" fill="#111114"/>
<path d="M29.7673 70.849C28.1789 72.5256 26.0611 73.3198 24.0315 74.2904C22.002 75.2611 19.7959 75.967 17.5898 75.967C19.7077 75.3493 21.9137 74.8199 23.9433 74.0257C26.0611 73.3198 27.826 71.6432 29.7673 70.7607V70.849Z" fill="#111114"/>
<path d="M16.7054 78.7031C15.7348 79.4091 14.6759 79.8503 13.5287 80.0268C11.6756 80.6445 9.82255 81.4386 7.79297 81.1739C9.64606 80.5562 11.5874 80.468 13.4405 79.9385C14.4994 79.4973 15.6465 78.8796 16.7054 78.7031Z" fill="#111114"/>
<path d="M17.5879 78.7029C16.7937 79.0558 15.9995 79.2323 15.2053 79.497C13.9699 80.203 13.1757 81.4384 12.2051 82.409C12.4698 80.9089 13.7934 80.0265 15.1171 79.4088C15.7348 78.9676 16.7937 78.4381 17.5879 78.7911V78.7029Z" fill="#111114"/>
<path d="M11.4994 69.2617C10.8817 69.7029 10.0876 69.7912 9.38165 69.7029C8.23449 69.8794 6.73434 70.2324 5.76367 69.7029C6.99907 69.4382 8.14625 69.7029 9.38165 69.7029C10.0876 69.5264 10.8818 69.1735 11.5877 69.35L11.4994 69.2617Z" fill="#111114"/>
<path d="M55.266 31.5826C54.2953 28.4941 54.3836 25.1409 54.2071 21.9641C54.0306 18.6992 54.2071 15.4342 55.0013 12.3457C54.7365 15.6107 54.4718 18.7874 54.3836 21.9641C54.2071 25.1409 55.1777 28.4941 55.266 31.5826Z" fill="#111114"/>
<path d="M57.6504 31.8462C57.6504 29.0225 58.3563 26.1105 58.0033 23.2867C57.7386 20.4629 57.2091 17.6392 56.6797 14.8154C57.7386 17.5509 58.1798 20.3747 58.1798 23.2867C58.1798 26.1105 58.5328 29.2872 57.5621 31.8462H57.6504Z" fill="#111114"/>
<path d="M62.0629 32.1106C62.1511 28.9339 63.21 25.9337 63.6512 22.8452C64.1807 19.7567 64.7984 16.58 65.8573 13.668C65.4161 16.7565 64.6219 19.8449 63.8277 22.9334C63.0336 25.9337 62.9453 29.2869 61.9746 32.1989L62.0629 32.1106Z" fill="#111114"/>
<path d="M72.1214 36.6112C72.8274 33.3462 74.857 30.5225 76.6218 27.6987C78.4749 24.8749 80.8575 22.4924 83.6812 20.7275C81.2104 22.9336 78.8278 25.2279 76.7983 27.8752C74.6804 30.4342 73.5333 33.7874 72.0332 36.6112H72.1214Z" fill="#111114"/>
<path d="M63.8262 32.3753C63.9144 30.9635 64.2674 29.6398 64.7086 28.3162C65.1498 26.1101 65.1498 23.7275 65.944 21.5215C66.1204 23.8158 65.4145 26.1101 64.885 28.3162C64.7086 29.6398 64.5321 31.2282 63.9144 32.2871L63.8262 32.3753Z" fill="#111114"/>
<path d="M73.002 37.317C73.3549 36.3464 73.9726 35.4639 74.5903 34.5815C75.3845 32.9931 75.8257 31.2283 76.7964 29.8164C76.6199 31.5813 75.6492 33.1696 74.7668 34.6697C74.4138 35.6404 73.7961 36.7876 73.002 37.317Z" fill="#111114"/>
<path d="M74.5918 38.7289L76.7979 35.9934C79.1804 33.3461 80.0629 29.9046 81.2983 26.6396C81.0335 29.0222 80.1511 31.2283 78.9157 33.1696C77.6803 35.1109 76.5331 37.4935 74.5918 38.6406V38.7289Z" fill="#111114"/>
<path d="M64.7988 32.9938C66.1225 30.523 67.7991 28.0522 68.3285 25.2285C68.858 22.4047 69.1227 19.5809 69.0345 16.6689C69.6522 19.4927 69.3874 22.493 68.5932 25.2285C67.7108 27.8758 66.8284 31.0525 64.7988 32.9056V32.9938Z" fill="#111114"/>
<path d="M68.5043 34.0521C70.0044 31.1401 71.7693 28.4045 72.6517 25.2278C73.5341 22.0511 74.1518 18.8743 74.5048 15.6094C74.593 18.8743 73.9753 22.2276 72.8281 25.2278C71.681 28.228 70.6221 31.6695 68.416 33.9638L68.5043 34.0521Z" fill="#111114"/>
<path d="M72.916 24.8748C73.1807 23.6394 73.7984 22.5805 74.5926 21.6098C75.6515 19.845 76.7104 17.9919 78.5635 16.8447C77.4164 18.5213 75.9162 19.9332 74.7691 21.6098C74.2396 22.6687 73.7102 23.9924 73.0042 24.7866L72.916 24.8748Z" fill="#111114"/>
<path d="M81.123 17.6381C81.5643 16.7557 82.182 16.0497 82.7997 15.2555C83.6821 13.8437 84.0351 12.2553 85.0057 10.9316C84.8293 12.6082 83.8586 14.0201 82.8879 15.3438C82.4467 16.1379 81.9172 17.2851 81.123 17.6381Z" fill="#111114"/>
<path d="M71.6797 13.5806C72.2091 12.5217 72.8268 11.551 73.4445 10.6686C74.327 8.99197 74.6799 7.05063 75.6506 5.37402C75.6506 7.31536 74.5917 9.08021 73.621 10.7568C73.1798 11.8157 72.5621 13.0511 71.6797 13.6688V13.5806Z" fill="#111114"/>
<path d="M61.8858 14.5501C61.6211 13.3147 61.7093 12.0794 61.8858 10.844C61.8858 8.81439 61.5328 6.69657 61.974 4.66699C62.4153 6.69657 61.974 8.81439 61.974 10.844C61.974 12.0794 62.2388 13.4912 61.8858 14.5501Z" fill="#111114"/>
<path d="M82.0059 17.0219C82.0941 16.3159 82.5353 15.7865 83.0648 15.3453C83.7707 14.4628 84.5649 13.4922 85.7121 13.4922C84.9179 14.2864 83.9472 14.7276 83.153 15.4335C82.8 15.963 82.5353 16.6689 82.0059 17.0219Z" fill="#111114"/>
<path d="M62.0605 12.8752C62.0605 11.9927 62.3253 11.2868 62.7665 10.5808C63.2077 9.34544 63.4724 7.75707 64.5313 6.96289C64.2666 8.28653 63.4724 9.43369 62.943 10.6691C62.7665 11.4633 62.59 12.4339 62.1488 12.9634L62.0605 12.8752Z" fill="#111114"/>
<path d="M50.504 14.2851C50.3276 13.0497 50.4158 11.9025 50.4158 10.6671C50.1511 8.63756 49.3569 6.78446 49.0039 4.75488C50.1511 6.43149 50.4158 8.63756 50.5923 10.5789C50.7688 11.726 51.0335 13.2262 50.5923 14.1968L50.504 14.2851Z" fill="#111114"/>
<path d="M46.796 33.7871C44.8547 31.5811 44.1488 28.6691 43.4428 25.9335C42.7369 23.1098 42.7369 20.1095 43.6193 17.374C43.2664 20.1978 43.2664 23.0216 43.6193 25.8453C43.9723 28.6691 45.6489 31.3163 46.7078 33.7871H46.796Z" fill="#111114"/>
<path d="M39.7365 38.1991C39.7365 38.1991 50.3256 27.6099 65.8563 33.5222C81.387 39.4344 83.593 54.2592 83.1518 59.642C82.6224 65.113 79.0044 83.8204 61.4442 86.0265C43.8839 88.2325 35.7656 82.8498 29.5886 69.5251C23.4116 56.2005 33.5595 39.4344 39.7365 38.1991Z" fill="#FF6A37" stroke="#111114" stroke-width="0.492849" stroke-linecap="round" stroke-linejoin="round"/>
<path d="M53.1471 31.9344C53.1471 31.9344 46.7937 12.7858 55.5297 4.0498C55.5297 4.0498 65.2364 9.07963 59.9418 31.9344" stroke="#111114" stroke-width="0.492849" stroke-linecap="round" stroke-linejoin="round"/>
<path d="M61.4453 16.8448C61.4453 16.8448 62.9454 10.5795 69.1224 5.81445C69.1224 5.81445 72.9169 13.5798 71.7697 20.6392C70.6225 27.6986 66.7399 33.7873 66.7399 33.7873" stroke="#111114" stroke-width="0.492849" stroke-linecap="round" stroke-linejoin="round"/>
<path d="M70.5312 35.7282C70.5312 35.7282 74.5022 18.168 89.8564 13.7559C89.8564 13.7559 92.3272 26.2863 75.7376 39.7874" stroke="#111114" stroke-width="0.492849" stroke-linecap="round" stroke-linejoin="round"/>
<path d="M71.7676 14.7256C71.7676 14.7256 75.562 10.4017 80.9448 8.10742C80.9448 8.10742 81.5625 14.2844 80.9448 18.52" stroke="#111114" stroke-width="0.492849" stroke-linecap="round" stroke-linejoin="round"/>
<path d="M76.4453 40.6701C76.4453 40.6701 79.8868 31.4928 97.0058 31.7576L104.153 32.0223C104.153 32.0223 95.3292 47.2883 80.8574 47.4648" stroke="#111114" stroke-width="0.492849" stroke-linecap="round" stroke-linejoin="round"/>
<path d="M91.8864 44.2869C91.8864 44.2869 101.064 42.4338 111.035 45.9635C111.035 45.9635 102.74 56.5526 83.1504 55.4937" stroke="#111114" stroke-width="0.492849" stroke-linecap="round" stroke-linejoin="round"/>
<path d="M83.2406 59.73C83.2406 59.73 99.4772 55.9356 108.213 65.4658C108.213 65.4658 97.8006 73.6724 82.1816 65.4658" stroke="#111114" stroke-width="0.492849" stroke-linecap="round" stroke-linejoin="round"/>
<path d="M81.5649 67.4958C81.5649 67.4958 96.6544 66.7016 106.626 79.6733C106.626 79.6733 91.7128 85.2325 79.0059 73.5845" stroke="#111114" stroke-width="0.492849" stroke-linecap="round" stroke-linejoin="round"/>
<path d="M77.5901 75.9668C77.5901 75.9668 92.4148 77.6434 96.6505 93.3506C96.6505 93.3506 80.3256 95.2037 74.5898 79.673" stroke="#111114" stroke-width="0.492849" stroke-linecap="round" stroke-linejoin="round"/>
<path d="M72.3841 81.7031C72.3841 81.7031 83.6792 87.1742 81.7379 103.764C81.7379 103.764 67.5308 97.675 68.1485 84.2622" stroke="#111114" stroke-width="0.492849" stroke-linecap="round" stroke-linejoin="round"/>
<path d="M58.7954 86.3799C58.7954 86.3799 67.002 101.381 57.3835 114.441C57.3835 114.441 45.8238 100.322 53.1479 86.5564" stroke="#111114" stroke-width="0.492849" stroke-linecap="round" stroke-linejoin="round"/>
<path d="M61.6211 104.293C61.6211 104.293 64.886 109.411 69.2099 112.588C69.2099 112.588 73.6221 105.087 71.8572 95.9102" stroke="#111114" stroke-width="0.492849" stroke-linecap="round" stroke-linejoin="round"/>
<path d="M65.5879 85.2314C65.5879 85.2314 67.9704 86.4668 68.4116 88.3199" stroke="#111114" stroke-width="0.492849" stroke-linecap="round" stroke-linejoin="round"/>
<path d="M45.3842 85.4092C45.3842 85.4092 35.148 92.6451 44.943 114.441C44.943 114.441 50.767 109.058 52.1789 104.999" stroke="#111114" stroke-width="0.492849" stroke-linecap="round" stroke-linejoin="round"/>
<path d="M39.03 82.1445C39.03 82.1445 28.088 89.3804 29.7646 106.235C29.7646 106.235 34.8827 105.617 40.8832 100.411" stroke="#111114" stroke-width="0.492849" stroke-linecap="round" stroke-linejoin="round"/>
<path d="M33.0293 105.351C33.0293 105.351 34.2647 110.822 36.206 112.586L42.2948 107.557" stroke="#111114" stroke-width="0.492849" stroke-linecap="round" stroke-linejoin="round"/>
<path d="M45.7347 34.2294C45.7347 34.2294 34.7927 26.6405 44.0581 5.10938C44.0581 5.10938 49.8821 11.7275 50.941 16.2279C51.9999 20.7283 52.0882 31.2291 51.294 32.2881" stroke="#111114" stroke-width="0.492849" stroke-linecap="round" stroke-linejoin="round"/>
<path d="M41.327 36.9634C41.327 36.9634 37.5325 17.3735 19.0898 15.7852C19.0898 15.7852 19.7958 32.816 36.1206 40.4048" stroke="#111114" stroke-width="0.492849" stroke-linecap="round" stroke-linejoin="round"/>
<path d="M33.8249 42.8759C33.8249 42.8759 25.5301 26.4628 10.8818 30.6984C10.8818 30.6984 10.1759 42.17 30.7364 47.994" stroke="#111114" stroke-width="0.492849" stroke-linecap="round" stroke-linejoin="round"/>
<path d="M29.6769 50.2885C29.6769 50.2885 17.676 40.6701 2.93945 45.5234C2.93945 45.5234 4.52782 55.4949 28.0886 55.7596" stroke="#111114" stroke-width="0.492849" stroke-linecap="round" stroke-linejoin="round"/>
<path d="M11.4991 53.2002C11.4991 53.2002 4.52798 53.8179 2.41016 57.3476C2.41016 57.3476 14.5876 65.2012 27.7358 61.4067" stroke="#111114" stroke-width="0.492849" stroke-linecap="round" stroke-linejoin="round"/>
<path d="M8.85108 60.3486C8.85108 60.3486 2.49762 60.7016 0.644531 64.2313C0.644531 64.2313 5.14489 69.7906 17.6753 69.0847C17.6753 69.0847 26.0584 68.2905 28.3527 65.9079" stroke="#111114" stroke-width="0.492849" stroke-linecap="round" stroke-linejoin="round"/>
<path d="M12.9113 69.084C12.9113 69.084 7.44024 70.4076 4.79297 76.4964C4.79297 76.4964 9.55808 79.8496 18.2058 78.173C26.8536 76.4963 30.648 71.643 30.648 71.643" stroke="#111114" stroke-width="0.492849" stroke-linecap="round" stroke-linejoin="round"/>
<path d="M18.2031 78.1725C18.2031 78.1725 12.4673 82.5847 11.8496 90.4382C11.8496 90.4382 28.7922 88.7616 33.822 77.0254" stroke="#111114" stroke-width="0.492849" stroke-linecap="round" stroke-linejoin="round"/>
<path d="M23.3237 87.085C23.3237 87.085 17.941 93.7914 19.0881 102.969C19.0881 102.969 28.6183 98.9977 30.4714 95.5562" stroke="#111114" stroke-width="0.492849" stroke-linecap="round" stroke-linejoin="round"/>
<path d="M69.916 7.75448C69.916 7.75448 73.6222 3.07762 77.4166 1.48926C77.4166 1.48926 79.2697 5.98963 78.2108 9.51933" stroke="#111114" stroke-width="0.492849" stroke-linecap="round" stroke-linejoin="round"/>
<path d="M81.1211 11.2849C81.1211 11.2849 85.5332 7.5787 88.0923 8.1964C88.0923 8.1964 88.8864 13.9322 87.0334 14.8146" stroke="#111114" stroke-width="0.492849" stroke-linecap="round" stroke-linejoin="round"/>
<path d="M88.1816 23.9041C88.1816 23.9041 98.0648 19.6684 101.506 21.6098C101.506 21.6098 101.947 26.1984 95.4175 31.7577" stroke="#111114" stroke-width="0.492849" stroke-linecap="round" stroke-linejoin="round"/>
<path d="M100.533 36.964C100.533 36.964 107.151 36.1698 109.799 38.5524C109.799 38.5524 109.799 41.5526 105.21 44.4646" stroke="#111114" stroke-width="0.492849" stroke-linecap="round" stroke-linejoin="round"/>
<path d="M101.154 52.6699C101.154 52.6699 110.067 56.8173 111.743 59.9058C111.743 59.9058 110.155 62.5531 106.625 63.8767" stroke="#111114" stroke-width="0.492849" stroke-linecap="round" stroke-linejoin="round"/>
<path d="M107.77 48.876C107.77 48.876 112.446 50.4644 113.241 52.6704C113.241 52.6704 111.564 55.8471 108.387 56.8178" stroke="#111114" stroke-width="0.492849" stroke-linecap="round" stroke-linejoin="round"/>
<path d="M105.21 67.0537C105.21 67.0537 110.681 70.3187 110.946 73.5837C110.946 73.5837 107.063 76.1427 103.445 76.1427" stroke="#111114" stroke-width="0.492849" stroke-linecap="round" stroke-linejoin="round"/>
<path d="M100.181 80.9072C100.181 80.9072 106.181 86.3783 105.034 89.9962C105.034 89.9962 100.445 92.114 95.5039 89.9962" stroke="#111114" stroke-width="0.492849" stroke-linecap="round" stroke-linejoin="round"/>
<path d="M87.6498 92.292C87.6498 92.292 92.3267 97.4101 91.003 101.646C91.003 101.646 84.8261 101.028 81.9141 98.3807" stroke="#111114" stroke-width="0.492849" stroke-linecap="round" stroke-linejoin="round"/>
<path d="M29.6769 19.3146C29.6769 19.3146 28.0885 12.167 30.471 8.99023C30.471 8.99023 39.0306 10.8433 40.8837 14.9025" stroke="#111114" stroke-width="0.492849" stroke-linecap="round" stroke-linejoin="round"/>
<path d="M14.4975 29.9935C14.4975 29.9935 11.4973 25.6696 12.2033 21.2574C12.2033 21.2574 18.645 21.081 20.5863 22.9341" stroke="#111114" stroke-width="0.492849" stroke-linecap="round" stroke-linejoin="round"/>
<path d="M12.6466 36.3449C12.6466 36.3449 6.91079 34.6683 4.79297 37.6686C4.79297 37.6686 4.96945 42.9631 8.76388 44.375" stroke="#111114" stroke-width="0.492849" stroke-linecap="round" stroke-linejoin="round"/>
<path d="M5.14455 49.1413C5.14455 49.1413 1.79133 48.9648 0.732422 51.5238C0.732422 51.5238 1.70309 54.3476 5.14455 54.9653" stroke="#111114" stroke-width="0.492849" stroke-linecap="round" stroke-linejoin="round"/>
<path d="M4.17443 66.7891C4.17443 66.7891 1.52715 68.7304 1.08594 70.9364C1.08594 70.9364 3.99794 74.1132 6.38049 73.8485" stroke="#111114" stroke-width="0.492849" stroke-linecap="round" stroke-linejoin="round"/>
<path d="M8.85192 78.085C8.85192 78.085 6.29289 81.0852 6.38114 84.0855C6.38114 84.0855 11.058 85.8503 13.3523 84.8796" stroke="#111114" stroke-width="0.492849" stroke-linecap="round" stroke-linejoin="round"/>
<path d="M14.9416 89.9092C14.9416 89.9092 13.1767 92.38 13.2649 95.9097C13.2649 95.9097 18.2065 97.0568 19.2655 96.2627" stroke="#111114" stroke-width="0.492849" stroke-linecap="round" stroke-linejoin="round"/>
<path d="M23.4093 100.939C23.4093 100.939 22.2622 103.94 22.8799 107.822C22.8799 107.822 27.8215 107.469 29.5863 104.381" stroke="#111114" stroke-width="0.492849" stroke-linecap="round" stroke-linejoin="round"/>
<path d="M59.1484 111.528C59.1484 111.528 60.4721 116.028 63.7371 116.558C63.7371 116.558 66.9138 113.205 67.0903 110.646" stroke="#111114" stroke-width="0.492849" stroke-linecap="round" stroke-linejoin="round"/>
<path d="M70.9727 108.262C70.9727 108.262 74.7671 111.88 79.0027 111.969C79.0027 111.969 80.3264 105.262 79.7087 102.703" stroke="#111114" stroke-width="0.492849" stroke-linecap="round" stroke-linejoin="round"/>
<path d="M57.9141 6.34319C57.9141 6.34319 60.3849 2.54876 63.2086 0.607422C63.2086 0.607422 67.1795 5.28428 66.5618 8.10804" stroke="#111114" stroke-width="0.492849" stroke-linecap="round" stroke-linejoin="round"/>
<path d="M46.0879 7.57893C46.0879 7.57893 46.9703 2.72559 49.2647 0.519531C49.2647 0.519531 54.2944 3.51978 54.0297 5.81408" stroke="#111114" stroke-width="0.492849" stroke-linecap="round" stroke-linejoin="round"/>
<path d="M33.8243 9.96129C33.8243 9.96129 32.6771 4.22552 35.5009 2.28418C35.5009 2.28418 42.0308 3.87255 42.825 8.01994" stroke="#111114" stroke-width="0.492849" stroke-linecap="round" stroke-linejoin="round"/>
<path d="M22.8813 16.4033C22.8813 16.4033 21.5576 12.9619 22.4401 10.4029C22.4401 10.4029 26.5875 8.81449 29.4112 12.4324" stroke="#111114" stroke-width="0.492849" stroke-linecap="round" stroke-linejoin="round"/>
<path d="M41.5012 40.4939C41.5012 40.4939 50.9432 31.052 64.7973 36.3465C78.6513 41.6411 80.5927 54.7892 80.1515 59.6425C79.7103 64.4959 76.4453 81.1737 60.8263 83.2033C45.2074 85.1446 37.9715 80.3795 32.4122 68.4668C26.9412 56.5541 35.942 41.6411 41.413 40.5822L41.5012 40.4939Z" stroke="#111114" stroke-width="1.33773" stroke-linecap="round" stroke-linejoin="round"/>
<path d="M43.0023 42.5237C43.0023 42.5237 51.4736 34.0524 63.8276 38.8175C76.1815 43.4943 77.9464 55.3188 77.5934 59.6427C77.2404 63.9666 74.3284 78.8796 60.3861 80.6444C46.4438 82.4093 39.9138 78.0854 35.0605 67.4963C30.1189 56.9072 38.2372 43.5826 43.0906 42.6119L43.0023 42.5237Z" fill="#FF97B5" stroke="#111114" stroke-width="0.563256" stroke-linecap="round" stroke-linejoin="round"/>
<path d="M44.7661 44.8183C44.7661 44.8183 52.002 37.5825 62.6793 41.6416C73.3567 45.7008 74.8568 55.8486 74.5038 59.5548C74.1509 63.261 71.6801 76.1444 59.6791 77.6446C47.6781 79.1447 42.0306 75.4385 37.8832 66.3495C33.6476 57.2605 40.6187 45.7008 44.8544 44.9066L44.7661 44.8183Z" stroke="#111114" stroke-width="0.844884" stroke-linecap="round" stroke-linejoin="round"/>
<path d="M46.1803 46.7592C46.1803 46.7592 52.4456 40.494 61.6228 44.0237C70.8 47.5534 72.1236 56.2894 71.8589 59.4661C71.5942 62.6429 69.3881 73.7614 59.0637 75.0851C48.6511 76.4087 43.886 73.232 40.1798 65.2902C36.5619 57.4366 42.4742 47.4652 46.1803 46.7592Z" fill="#FF6A37" stroke="#111114" stroke-width="0.492849" stroke-linecap="round" stroke-linejoin="round"/>
<path d="M49.4406 51.083C49.4406 51.083 53.588 46.9356 59.5885 49.2299C65.589 51.5242 66.4714 57.26 66.295 59.3778C66.1185 61.4956 64.7066 68.7315 57.9119 69.6139C51.1172 70.4963 47.9405 68.3785 45.558 63.1722C43.1754 58.0541 47.0581 51.5242 49.4406 51.083Z" fill="#FF97B5" stroke="#111114" stroke-width="0.492849" stroke-linecap="round" stroke-linejoin="round"/>
<path d="M51.8257 54.2603C51.8257 54.2603 54.2966 51.7895 57.9145 53.2014C61.5324 54.6133 62.0619 58.0547 61.9736 59.2901C61.8854 60.5255 61.003 64.9376 56.9438 65.4671C52.8846 65.9966 50.9433 64.7612 49.5315 61.5844C48.1196 58.4959 50.4139 54.525 51.914 54.2603H51.8257Z" fill="#111114" stroke="#111114" stroke-width="0.492849" stroke-linecap="round" stroke-linejoin="round"/>
<path d="M47.9428 49.0533C47.9428 49.0533 53.0608 43.9352 60.5615 46.759C68.0621 49.5827 69.121 56.7304 68.8562 59.3777C68.5915 62.025 66.8267 71.0257 58.4436 72.0846C49.9723 73.1435 46.0897 70.5845 43.0895 64.1428C40.0892 57.7011 45.0308 49.671 47.9428 49.0533Z" stroke="#111114" stroke-width="0.633663" stroke-linecap="round" stroke-linejoin="round"/>
<path d="M50.6797 52.7604C50.6797 52.7604 53.9447 49.4954 58.6216 51.3485C63.3867 53.1133 64.0044 57.6137 63.8279 59.2903C63.6514 60.9669 62.5925 66.6144 57.2097 67.3204C51.9152 68.0263 49.4444 66.3497 47.503 62.2905C45.6499 58.2314 48.7384 53.1133 50.5915 52.7604H50.6797Z" stroke="#111114" stroke-width="0.422442" stroke-linecap="round" stroke-linejoin="round"/>
</svg>
