<svg width="46" height="47" viewBox="0 0 46 47" fill="none" xmlns="http://www.w3.org/2000/svg">
<path d="M5.78124 36.0886C5.16354 38.6477 7.9873 39.7948 7.9873 39.7948C10.4581 44.5599 13.6348 42.5304 13.6348 42.5304C13.8996 47.2955 17.694 45.3541 17.694 45.3541C19.7236 47.9131 22.1061 45.3541 22.1061 45.3541C22.7238 46.3248 23.9592 46.766 25.9888 45.6189C27.9301 44.5599 27.2242 40.942 27.2242 40.8537C27.4889 41.2949 27.8419 41.8244 28.2831 42.2656C32.1658 47.0307 35.519 41.4714 35.519 41.4714C39.4016 42.3539 39.7546 37.9417 39.7546 37.9417C43.9902 36.0886 42.4019 32.9119 42.4019 32.9119C45.5786 31.1471 41.9607 27.8821 41.9607 27.8821H41.7842C41.8724 27.8821 41.9607 27.8821 41.9607 27.8821C47.0787 28.1468 45.2256 23.0287 45.2256 23.0287C45.9316 21.9698 45.2256 20.558 45.2256 20.558C46.1081 18.3519 44.5197 17.5577 44.5197 17.5577C43.9903 14.4692 41.5195 14.6457 40.99 14.734C44.9609 11.2043 38.8722 7.93928 38.8722 7.93928C38.5192 4.32134 35.2542 4.23308 35.2542 4.23308C31.7245 -0.620256 28.3713 4.14486 28.3713 4.14486C28.3713 4.2331 28.3713 4.23308 28.3713 4.23308C28.3713 3.70363 28.4596 3.35066 28.4596 3.35066C27.3124 0.350412 24.5769 2.29174 24.5769 2.29174C22.0179 -0.355539 19.6353 2.64473 19.6353 2.64473C15.7526 2.20352 15.8409 5.90971 15.8409 5.90971C15.6644 5.64499 15.3997 5.46849 15.2232 5.292C12.5759 3.35067 10.1051 7.23335 10.1051 7.23335C7.81082 7.05687 8.07555 9.08642 8.07555 9.08642C5.16355 8.55697 3.57518 12.2631 3.57518 12.2631C2.95748 14.4692 3.75167 16.1458 5.16355 17.3812C4.72233 17.1165 3.04572 16.3223 1.72209 19.499C0.13372 23.2052 3.31045 24.2641 3.31045 24.2641C0.663178 25.3231 1.98682 27.9703 1.98682 27.9703C1.19263 30.4411 3.31045 30.9706 3.31045 30.9706C3.31045 30.8823 3.48694 31.0588 3.48694 31.0588C3.22221 31.4118 3.04572 31.853 3.04572 32.2942C3.04572 36.0886 6.04597 35.9122 6.04597 35.9122L5.78124 36.0886ZM15.9291 6.17443C15.9291 6.17443 15.9291 6.08618 15.8409 5.99793V6.17443C15.9291 6.17443 15.9291 6.17443 15.9291 6.17443Z" fill="#D793FF"/>
<path d="M16.7216 18.7916C16.7216 18.7916 20.2513 14.556 25.5458 16.3208C30.8404 18.0857 31.1051 25.498 31.1051 25.498C31.1051 25.498 28.8991 33.1751 22.7221 32.2045C16.5451 31.1456 11.5153 24.3509 16.8098 18.7916H16.7216Z" fill="#FFEC2D" stroke="#111114" stroke-width="0.563256" stroke-linecap="round" stroke-linejoin="round"/>
<path d="M15.1362 21.086C15.1362 21.086 1.28209 19.7624 3.39992 12.2618C3.39992 12.2618 5.07652 8.55561 7.90028 9.08506C7.90028 9.08506 7.54732 6.96726 9.92986 7.23199C9.92986 7.23199 12.4006 3.34931 15.0479 5.29064C17.6952 7.23198 20.2542 16.4092 20.2542 16.4092" stroke="#111114" stroke-width="0.563256" stroke-linecap="round" stroke-linejoin="round"/>
<path d="M15.6621 5.90879C15.6621 5.90879 15.6621 2.20259 19.4565 2.6438C19.4565 2.6438 21.7508 -0.268221 24.3981 2.29081C24.3981 2.29081 27.1336 0.349487 28.2808 3.34973C28.2808 3.34973 27.9278 9.262 24.5746 16.0567" stroke="#111114" stroke-width="0.563256" stroke-linecap="round" stroke-linejoin="round"/>
<path d="M28.1934 4.14354C28.1934 4.14354 31.4583 -0.533339 35.0763 4.23176C35.0763 4.23176 38.3413 4.32001 38.6942 7.93795C38.6942 7.93795 44.8712 11.2912 40.812 14.7326C40.812 14.7326 33.2232 17.0269 29.9582 20.3801" stroke="#111114" stroke-width="0.563256" stroke-linecap="round" stroke-linejoin="round"/>
<path d="M40.722 14.8215C40.722 14.8215 43.8104 14.1155 44.4281 17.557C44.4281 17.557 46.0165 18.3512 45.1341 20.5572C45.1341 20.5572 45.84 21.9691 45.1341 23.028C45.1341 23.028 47.0754 28.0578 41.8691 27.8813C41.8691 27.8813 32.4272 25.0576 31.1035 25.4988" stroke="#111114" stroke-width="0.563256" stroke-linecap="round" stroke-linejoin="round"/>
<path d="M41.8714 27.8818C41.8714 27.8818 45.4894 31.1468 42.3126 32.9117C42.3126 32.9117 43.9893 36.0884 39.6654 37.9415C39.6654 37.9415 39.3124 42.4419 35.4297 41.4712C35.4297 41.4712 32.0765 47.0305 28.1938 42.2654C24.3112 37.5003 25.1936 32.1175 25.1936 32.1175" stroke="#111114" stroke-width="0.563256" stroke-linecap="round" stroke-linejoin="round"/>
<path d="M27.1338 40.853C27.1338 40.853 27.928 44.5592 25.8984 45.6181C23.957 46.677 22.6334 46.324 22.0157 45.3533C22.0157 45.3533 19.7214 47.9123 17.6036 45.3533C17.6036 45.3533 13.3679 47.5594 13.5444 41.5589C13.7209 35.5584 18.7507 30.7051 18.7507 30.7051" stroke="#111114" stroke-width="0.563256" stroke-linecap="round" stroke-linejoin="round"/>
<path d="M13.723 42.5292C13.723 42.5292 10.5462 44.5587 8.07545 39.7936C8.07545 39.7936 5.25169 38.7347 5.86939 36.0874C5.86939 36.0874 2.95738 36.1757 2.86914 32.4695C2.86914 28.6751 14.9584 26.6455 14.9584 26.6455" stroke="#111114" stroke-width="0.563256" stroke-linecap="round" stroke-linejoin="round"/>
<path d="M3.04482 31.0581C3.04482 31.0581 0.927002 30.5286 1.72119 28.0579C1.72119 28.0579 0.397547 25.4106 3.04482 24.3517C3.04482 24.3517 -0.131904 23.2928 1.45646 19.5866C3.04483 15.8804 5.0744 17.557 5.0744 17.557" stroke="#111114" stroke-width="0.563256" stroke-linecap="round" stroke-linejoin="round"/>
<path d="M23.0793 32.0312C22.7264 35.4727 22.7264 38.8259 23.0793 42.2674C22.0204 39.0024 22.0204 35.2962 23.0793 32.0312Z" fill="#111114"/>
<path d="M21.4887 32.5596C21.0475 34.4127 20.7828 36.1776 20.518 38.1189C19.9886 36.2658 20.3416 34.1479 21.4887 32.5596Z" fill="#111114"/>
<path d="M20.0779 31.4131C18.666 33.8839 17.7836 36.5312 17.4306 39.3549C16.9894 36.5312 17.9601 33.3544 20.0779 31.4131Z" fill="#111114"/>
<path d="M17.5181 30.1768C15.2238 32.0299 13.2824 34.0594 11.5176 36.3537C12.5765 33.6182 14.8708 31.3239 17.5181 30.1768Z" fill="#111114"/>
<path d="M16.194 28.5879C13.9879 30.3527 11.8701 32.1176 9.66406 33.8824C11.2524 31.5881 13.5467 29.735 16.194 28.5879Z" fill="#111114"/>
<path d="M15.3112 27.5293C12.7521 29.0294 10.2813 30.4413 7.81055 32.0296C9.84012 29.9118 12.4874 28.3235 15.3112 27.5293Z" fill="#111114"/>
<path d="M14.0766 25.3242C11.2528 25.3242 8.6938 26.0302 6.13477 27.1773C8.25259 25.3242 11.3411 24.5301 14.0766 25.3242Z" fill="#111114"/>
<path d="M14.3389 23.7352C11.7798 24.1764 8.95606 23.5587 6.75 22.0586C9.30903 22.8528 11.6916 23.3822 14.3389 23.7352Z" fill="#111114"/>
<path d="M15.8417 19.588C13.0179 18.9703 10.2824 17.2937 8.51758 14.9111C10.9001 16.676 13.2827 18.1761 15.8417 19.588Z" fill="#111114"/>
<path d="M16.9017 18.1755C15.2251 17.3813 13.8132 16.2341 12.666 14.8223C14.3426 15.6164 15.7545 16.7636 16.9017 18.1755Z" fill="#111114"/>
<path d="M18.2253 16.941C16.4605 15.3527 14.9604 13.5878 13.6367 11.6465C15.5781 13.0584 17.0782 14.8232 18.2253 16.941Z" fill="#111114"/>
<path d="M19.106 16.1465C17.6059 13.8521 15.5763 10.7637 14.0762 8.55762C16.3705 10.5872 18.1353 13.2344 19.106 16.1465Z" fill="#111114"/>
<path d="M23.6064 15.3526C23.3417 13.4112 23.6064 11.4699 24.5771 9.70508C24.4889 11.6464 24.1359 13.4995 23.6064 15.3526Z" fill="#111114"/>
<path d="M21.9316 15.3521C22.0199 12.6165 22.2846 9.88103 22.7258 7.14551C23.0788 9.88103 22.7258 12.7048 21.9316 15.3521Z" fill="#111114"/>
<path d="M25.5477 29.117C25.1947 29.5582 24.6652 28.8523 25.1947 28.6758C25.3712 28.764 25.4594 28.6758 25.4594 28.764C25.4594 28.764 25.4594 28.764 25.4594 29.117H25.5477Z" fill="#111114"/>
<path d="M23.1653 28.6773C22.8123 28.5009 22.5476 28.2361 22.3711 27.9714C22.3711 27.8832 22.3711 27.7067 22.3711 27.6184C23.077 26.9125 23.3418 27.1772 22.8123 27.9714V27.6184C22.9888 27.8831 23.1653 28.2361 23.1653 28.5891V28.6773Z" fill="#111114"/>
<path d="M25.1065 25.8523C24.4888 25.6758 24.3123 25.5876 23.8711 25.1464C24.4005 24.7052 25.1947 25.1464 25.1065 25.8523Z" fill="#111114"/>
<path d="M20.4307 20.7341C19.813 20.5577 19.6365 20.4694 19.1953 20.0282C19.7248 19.587 20.519 20.0282 20.4307 20.7341Z" fill="#111114"/>
<path d="M22.2829 25.2359C21.8417 25.1476 21.8417 24.8829 22.1064 24.6182C22.5477 24.7064 22.5477 24.9711 22.2829 25.2359Z" fill="#111114"/>
<path d="M21.2243 23.7339C20.7831 23.6456 20.7831 23.3809 21.0479 23.1162C21.4891 23.2045 21.4891 23.4691 21.2243 23.7339Z" fill="#111114"/>
<path d="M28.1052 21.1763C27.664 21.0881 27.664 20.8233 27.9287 20.5586C28.3699 20.6468 28.3699 20.9116 28.1052 21.1763Z" fill="#111114"/>
<path d="M25.7251 27.1769C25.3721 27.1769 25.2838 26.8239 25.6368 26.6475C25.9898 26.6475 26.078 27.0004 25.7251 27.1769Z" fill="#111114"/>
<path d="M24.4887 27.6173C24.1358 27.6173 24.0475 27.2644 24.4005 27.0879C24.7535 27.0879 24.8417 27.4408 24.4887 27.6173Z" fill="#111114"/>
<path d="M26.9594 25.8517C26.6065 25.8517 26.5182 25.4988 26.8712 25.3223C27.2242 25.3223 27.3124 25.6752 26.9594 25.8517Z" fill="#111114"/>
<path d="M16.5454 22.2346C16.1924 22.2346 16.1042 21.8816 16.4571 21.7051C16.8101 21.7051 16.8983 22.0581 16.5454 22.2346Z" fill="#111114"/>
<path d="M26.959 27.6173C26.959 27.1761 26.959 27.1761 27.312 27.0879C27.6649 27.4409 27.312 27.8821 26.959 27.6173Z" fill="#111114"/>
<path d="M28.5469 26.8234C28.5469 26.3822 28.5469 26.3822 28.8998 26.2939C29.2528 26.6469 28.8998 27.0881 28.5469 26.8234Z" fill="#111114"/>
<path d="M26.3418 30.3537C26.3418 29.9124 26.3418 29.9125 26.6948 29.8242C27.0477 30.1772 26.6948 30.6184 26.3418 30.3537Z" fill="#111114"/>
<path d="M26.7819 24.7063C26.3407 24.4416 26.3407 24.3533 26.4289 23.9121C26.9584 23.9121 27.1349 24.4416 26.7819 24.7063Z" fill="#111114"/>
<path d="M26.6081 20.9116C26.0786 21.0881 25.8139 20.9116 25.4609 20.5586C25.9022 20.2057 26.4316 20.3822 26.6081 20.9116Z" fill="#111114"/>
<path d="M24.4004 21.5283C24.4004 22.3225 24.4004 22.6755 24.3122 23.4697C23.6945 23.0285 23.6945 21.9695 24.4004 21.5283Z" fill="#111114"/>
<path d="M21.5794 21.4408C21.05 21.176 21.2265 20.4701 21.7559 20.3818C21.9324 20.9113 21.9324 20.9995 21.5794 21.4408Z" fill="#111114"/>
<path d="M20.4299 22.4107C20.0769 22.4107 19.9004 22.2343 19.9004 21.8813H20.0769C19.9004 21.7048 19.9004 21.6166 20.0769 21.5283C20.4298 21.7048 20.6063 21.8813 20.4299 22.3225V22.4107Z" fill="#111114"/>
<path d="M26.9591 22.941C26.6062 22.941 26.4297 22.7645 26.4297 22.4115H26.6062C26.4297 22.235 26.4297 22.1468 26.6062 22.0586C26.9591 22.2351 27.1356 22.4115 26.9591 22.8527V22.941Z" fill="#111114"/>
<path d="M22.8113 23.1179C22.3701 23.2061 22.1936 23.1179 22.2818 22.5884C22.723 22.5002 22.8995 22.5884 22.8113 23.1179Z" fill="#111114"/>
<path d="M25.5496 23.8239C25.1083 23.9122 24.9319 23.8239 25.0201 23.2945C25.4613 23.2062 25.6378 23.2945 25.5496 23.8239Z" fill="#111114"/>
<path d="M20.6081 25.5881C20.1669 25.5881 20.0787 25.4116 20.2551 25.0586C20.6964 25.0586 20.7846 25.2351 20.6081 25.5881Z" fill="#111114"/>
<path d="M20.9591 27.529C20.6944 27.7938 20.4297 27.7937 20.4297 27.3525C20.6944 27.0878 20.9591 27.0878 20.9591 27.529Z" fill="#111114"/>
<path d="M21.9318 26.5593C21.6671 26.824 21.4023 26.824 21.4023 26.3828C21.6671 26.1181 21.9318 26.1181 21.9318 26.5593Z" fill="#111114"/>
<path d="M22.3696 30.4409C22.1049 30.7939 21.9284 30.7056 21.752 30.3526C22.0167 29.9996 22.1932 30.0879 22.3696 30.4409Z" fill="#111114"/>
<path d="M24.9312 30.4409C24.5783 30.6173 24.5783 30.6173 24.843 30.2644C25.196 30.0879 25.196 30.0879 24.9312 30.4409Z" fill="#111114"/>
<path d="M23.9605 29.6469C23.6076 29.8234 23.6076 29.8234 23.8723 29.4704C24.2253 29.2939 24.2253 29.2939 23.9605 29.6469Z" fill="#111114"/>
<path d="M27.3145 29.0303C27.3145 28.4126 27.6674 27.9714 28.2851 27.7949C28.2851 28.4126 27.9322 28.8538 27.3145 29.0303Z" fill="#111114"/>
<path d="M29.9593 25.5004C29.6063 25.5004 29.5181 25.5004 29.7828 25.1475C30.1358 25.1475 30.224 25.1474 29.9593 25.5004Z" fill="#111114"/>
<path d="M28.373 22.9406C28.02 22.7641 27.9317 22.5876 28.373 22.4111C28.7259 22.5876 28.8142 22.7641 28.373 22.9406Z" fill="#111114"/>
<path d="M26.9602 19.0587C26.519 19.0587 26.4308 18.9705 26.519 18.5293C26.9602 18.5293 27.0485 18.6175 26.9602 19.0587Z" fill="#111114"/>
<path d="M24.0468 18.3518C23.6938 18.0871 23.6056 17.8223 24.0468 17.5576C24.488 17.8223 24.488 18.0871 24.0468 18.3518Z" fill="#111114"/>
<path d="M21.7527 17.9107C21.3115 17.9107 21.135 17.7342 21.3998 17.293C21.841 17.293 22.0175 17.4695 21.7527 17.9107Z" fill="#111114"/>
<path d="M25.5477 19.5874C25.1065 19.5874 24.93 19.4109 25.1947 18.9697C25.6359 18.9697 25.8124 19.1462 25.5477 19.5874Z" fill="#111114"/>
<path d="M23.4288 20.0288C23.0758 20.0288 23.0758 19.8523 23.4288 19.6758C23.7818 19.6758 23.7818 19.8523 23.4288 20.0288Z" fill="#111114"/>
<path d="M25.3702 21.7944C25.0172 21.7944 25.0172 21.6179 25.3702 21.4414C25.7232 21.4414 25.7232 21.6179 25.3702 21.7944Z" fill="#111114"/>
<path d="M21.753 19.3227C21.4 19.3227 21.4 19.1462 21.753 18.9697C22.106 18.9697 22.106 19.1462 21.753 19.3227Z" fill="#111114"/>
<path d="M23.1651 21.4399C22.8121 21.4399 22.8121 21.2634 23.1651 21.0869C23.5181 21.0869 23.5181 21.2634 23.1651 21.4399Z" fill="#111114"/>
<path d="M19.813 18.7048C19.5483 19.0578 19.2836 18.9696 19.1953 18.5283C19.46 18.1754 19.7248 18.2636 19.813 18.7048Z" fill="#111114"/>
<path d="M17.8729 20.5574C17.8729 20.9103 17.6964 20.9986 17.4316 20.6456C17.4316 20.2044 17.6081 20.2044 17.8729 20.5574Z" fill="#111114"/>
<path d="M17.6925 23.823C17.2513 23.823 17.2513 23.6466 17.6042 23.3818C18.0454 23.3818 18.0454 23.5583 17.6925 23.823Z" fill="#111114"/>
<path d="M19.3702 23.7348C19.0172 23.7348 19.0172 23.5583 19.3702 23.3818C19.7232 23.3818 19.7232 23.5583 19.3702 23.7348Z" fill="#111114"/>
<path d="M18.4021 25.8542C18.4021 25.766 17.9609 25.5013 18.1374 25.3248C18.3139 25.1483 18.4903 25.5013 18.5786 25.5013L18.4021 25.8542L18.5786 25.5895L18.2256 25.766L18.4021 25.8542Z" fill="#111114"/>
<path d="M28.3719 25.4122C27.9307 25.324 27.9307 25.1475 28.3719 24.8828C28.8131 24.9711 28.8131 25.1475 28.3719 25.4122Z" fill="#111114"/>
<path d="M29.4325 24.2639C28.9913 24.1756 28.9913 23.9991 29.4325 23.7344C29.8737 23.8226 29.8737 23.9991 29.4325 24.2639Z" fill="#111114"/>
<path d="M20.0783 28.7644C19.8136 29.0291 19.5488 29.0291 19.5488 28.5879C19.8136 28.3232 20.0783 28.3232 20.0783 28.7644Z" fill="#111114"/>
<path d="M18.1342 27.3539C17.7812 27.6186 17.693 27.5303 17.8695 27.1774C18.2225 26.9126 18.3107 27.0009 18.1342 27.3539Z" fill="#111114"/>
<path d="M18.6655 28.8529C18.3125 29.1176 18.2243 29.0294 18.4007 28.6764C18.7537 28.4117 18.842 28.4999 18.6655 28.8529Z" fill="#111114"/>
<path d="M18.5776 22.0589C18.2246 22.3237 18.1364 22.2354 18.3129 21.8824C18.6658 21.6177 18.7541 21.706 18.5776 22.0589Z" fill="#111114"/>
<path d="M23.1655 26.2054C22.8125 26.4701 22.7243 26.3819 22.9007 26.0289C23.2537 25.7642 23.342 25.8524 23.1655 26.2054Z" fill="#111114"/>
<path d="M23.517 31.0589C23.1641 31.3237 23.0758 31.2354 23.2523 30.8824C23.6053 30.6177 23.6935 30.706 23.517 31.0589Z" fill="#111114"/>
<path d="M23.6088 24.265C23.2559 24.5297 23.1676 24.4415 23.3441 24.0885C23.6971 23.8238 23.7853 23.912 23.6088 24.265Z" fill="#111114"/>
<path d="M21.4897 29.5589C21.1367 29.8237 21.0485 29.7354 21.225 29.3824C21.5779 29.1177 21.6662 29.206 21.4897 29.5589Z" fill="#111114"/>
<path d="M20.0776 30.0892C19.7246 30.3539 19.6364 30.2657 19.8129 29.9127C20.1658 29.648 20.2541 29.7362 20.0776 30.0892Z" fill="#111114"/>
<path d="M19.5483 26.8235C19.1953 27.0883 19.1071 27.0001 19.2836 26.6471C19.6365 26.3824 19.7248 26.4706 19.5483 26.8235Z" fill="#111114"/>
<path d="M16.1948 25.6774C15.8418 25.2362 15.8418 25.0597 16.0183 24.5303C16.5477 24.7068 16.636 25.3244 16.1948 25.6774Z" fill="#111114"/>
<path d="M27.0469 31.7656C27.9293 34.5011 28.9 37.1484 29.8706 39.7957C28.1058 37.5014 27.1351 34.5894 27.0469 31.7656Z" fill="#111114"/>
<path d="M28.1953 30.3535C29.6954 31.5889 30.9308 33.0008 31.8133 34.6774C30.3131 33.442 29.0777 32.0301 28.1953 30.3535Z" fill="#111114"/>
<path d="M29.6055 28.9414C31.1938 29.8238 32.5175 30.971 33.6646 32.3829C32.0763 31.5005 30.7526 30.3533 29.6055 28.9414Z" fill="#111114"/>
<path d="M30.4004 27.0879C32.3417 27.3526 34.1948 28.4998 35.342 30.1764C33.6654 29.1175 32.1652 28.1468 30.4004 27.0879Z" fill="#111114"/>
<path d="M31.1074 24.0893C33.0488 23.4716 35.1666 23.3834 37.1962 23.8246C35.1666 24.1776 33.137 24.2658 31.1074 24.0893Z" fill="#111114"/>
<path d="M30.7559 22.5886C32.8737 21.7062 35.0797 21.265 37.2858 21.1768C35.168 22.0592 32.9619 22.5004 30.7559 22.5886Z" fill="#111114"/>
<path d="M30.5781 21.2639C33.2254 19.9402 35.9609 18.8814 38.8729 18.2637C36.2256 19.5873 33.4901 20.5579 30.5781 21.2639Z" fill="#111114"/>
<path d="M29.4316 19.235C31.373 16.9407 33.932 15.0876 36.7558 13.9404C34.3732 15.7935 31.9907 17.4701 29.4316 19.235Z" fill="#111114"/>
<path d="M28.4593 17.7353C30.0477 15.6175 32.1655 13.7644 34.3716 12.3525V12.529C33.5774 12.7055 33.5774 12.6173 34.3716 12.3525H34.4598C32.695 14.2939 30.4889 16.0587 28.3711 17.7353H28.4593Z" fill="#111114"/>
<path d="M27.4023 16.7643C27.8436 15.6171 28.373 14.7347 28.9907 13.6758C29.079 14.9112 28.4613 16.1466 27.4023 16.7643Z" fill="#111114"/>
</svg>
