<svg width="38" height="38" viewBox="0 0 38 38" fill="none" xmlns="http://www.w3.org/2000/svg">
<path d="M34.7314 29.506C32.79 33.3004 29.1721 36.1242 24.9364 36.6536C22.4656 37.0066 19.8184 36.6536 17.7005 34.4475C17.7005 34.4475 8.17036 26.3292 5.69957 18.1227C5.69957 18.1227 2.78758 15.7401 1.19922 16.799C1.19922 16.799 4.28769 14.6812 6.14078 15.1224C6.14078 15.1224 1.64039 9.38667 1.81687 5.23927C1.81687 5.23927 4.46415 5.94521 9.7587 6.29818C9.7587 6.29818 8.52332 3.2097 10.8176 0.827148C10.8176 0.827148 10.1117 4.62157 14.1708 4.70982C18.0535 4.70982 39.5847 11.0633 37.0257 23.8584C36.8492 24.8291 36.408 25.7998 35.9667 26.7705L34.7314 29.3295V29.506Z" fill="#FF6A37" stroke="#111114" stroke-width="0.492849" stroke-linecap="round" stroke-linejoin="round"/>
<path d="M6.14258 15.123C15.408 18.6527 24.0558 24.1238 31.2035 31.0067" stroke="#111114" stroke-width="0.492849" stroke-linecap="round" stroke-linejoin="round"/>
<path d="M9.49414 6.03418C11.5237 9.21091 14.0828 12.1229 16.6418 15.0349C19.0244 17.7704 21.4951 20.5942 24.3189 22.9767C27.0544 25.3593 30.2311 27.3889 33.7608 28.4478" stroke="#111114" stroke-width="0.492849" stroke-linecap="round" stroke-linejoin="round"/>
<path d="M29.7887 32.5952C19.9938 31.095 15.4934 19.8 5.875 18.0352C15.7582 19.1823 20.3468 30.4774 29.7887 32.5952Z" fill="#111114"/>
<path d="M6.4043 18.916C13.7284 24.0341 17.8758 35.4174 28.2002 34.9762C29.5238 34.9762 30.8475 34.5349 31.9946 33.9172C30.8475 34.6232 29.5238 35.0644 28.2002 35.2409C17.6994 36.0351 13.2872 24.5635 6.4043 18.916Z" fill="#111114"/>
<path d="M10.375 2.67969C11.8751 7.97424 16.199 11.8569 20.7876 14.5042C24.2291 16.622 28.2882 17.8574 31.2885 20.6812C32.2592 21.6518 33.0533 22.799 33.5828 24.0344C33.0533 22.799 32.1709 21.7401 31.2003 20.8576C28.1118 18.2104 24.0526 17.0632 20.6112 14.9454C15.9343 12.2099 11.6104 8.15072 10.4633 2.67969H10.375Z" fill="#111114"/>
<path d="M13.9922 4.88574C20.4339 11.6804 33.935 13.0041 34.8174 24.0344C33.229 13.2688 19.9927 12.2099 13.9922 4.88574Z" fill="#111114"/>
<path d="M2.25586 5.76855C7.7269 13.6221 17.3453 16.9754 23.4341 24.123C16.8159 17.5048 7.19744 14.0634 2.25586 5.76855Z" fill="#111114"/>
</svg>
