<svg width="71" height="71" viewBox="0 0 71 71" fill="none" xmlns="http://www.w3.org/2000/svg">
<path d="M7.43601 54.476C6.81831 60.1235 11.7599 61.2706 11.7599 61.2706C15.6426 69.6537 21.996 63.7414 22.1725 63.565C21.9078 64.2709 21.8195 64.7121 21.8195 64.7121C22.5255 69.6537 27.3788 67.4476 27.3788 67.4476C30.4673 72.2127 34.9677 68.5065 34.9677 68.5065C40.7034 70.3596 41.7624 64.7121 41.7624 64.7121C42.0271 65.1533 42.2918 65.5063 42.5565 65.8592C45.998 69.6537 50.9396 64.5356 50.9396 64.5356C54.381 65.5945 54.5575 62.3295 54.5575 62.3295C58.7932 64.0061 62.4111 58.9763 62.4111 58.9763C64.0877 55.7996 63.3818 52.9758 61.6169 50.5933C61.9699 51.0345 64.4407 53.2405 67.6174 48.4755C71.1471 43.2691 66.735 40.7101 66.735 40.7101C71.1471 39.9159 69.9117 35.4156 69.9117 35.4156C71.8531 31.9741 69.0293 30.474 68.8528 30.474L68.5881 30.121C69.0293 29.6798 69.3823 29.1504 69.5588 28.5327C70.7059 22.7969 66.2055 22.0027 66.2055 22.0027C67.9704 18.2965 63.9995 15.7375 63.9995 15.7375C61.7052 7.70743 56.2341 9.73702 56.2341 9.73702C57.293 2.32465 51.0278 4.17775 51.0278 4.17775C48.7335 -0.410861 44.3214 2.85411 44.3214 2.85411C43.7037 1.1775 41.9388 0.206793 38.5856 1.2657C35.7619 2.14813 35.3207 6.47203 35.3207 7.79567H35.1442C34.8794 7.17797 34.5265 6.38377 34.1735 5.67783C29.7614 -2.88169 22.8785 4.53069 22.8785 4.53069C17.3192 1.97165 15.2896 8.6781 15.2896 8.6781C8.2302 10.09 9.73032 15.561 9.73032 15.561C4.61225 17.1494 8.40668 22.7087 8.8479 23.2381C1.1708 21.385 2.49444 29.6798 2.49444 29.6798C1.08256 31.0917 1.70025 33.4742 1.70025 33.4742C-0.329333 36.5627 1.87673 38.2393 1.87673 38.2393C1.70024 43.2692 5.84765 43.6221 6.46535 43.6221C-0.682295 47.6813 7.52426 54.6524 7.52426 54.6524L7.43601 54.476ZM41.4094 64.3591C41.4094 64.3591 41.4094 64.4474 41.4976 64.5356V64.3591H41.4094Z" fill="#FFEC2D"/>
<path d="M44.0582 44.8586C44.0582 44.8586 37.44 50.2414 29.9394 45.8293C22.4388 41.5054 24.3801 30.1221 24.3801 30.1221C24.3801 30.1221 30.1159 19.0918 39.2049 22.6215C48.2939 26.1512 53.7649 38.1522 44.0582 44.8586Z" fill="#FF97B5" stroke="#111114" stroke-width="0.70407" stroke-linecap="round" stroke-linejoin="round"/>
<path d="M47.2339 41.8584C47.2339 41.8584 67.8826 48.2119 62.3233 58.9775C62.3233 58.9775 58.7054 64.0073 54.4698 62.3307C54.4698 62.3307 54.2933 65.5956 50.8518 64.5367C50.8518 64.5367 45.9102 69.6548 42.4688 65.8604C39.0273 62.0659 38.0566 47.3294 38.0566 47.3294" stroke="#111114" stroke-width="0.70407" stroke-linecap="round" stroke-linejoin="round"/>
<path d="M41.6752 64.802C41.6752 64.802 40.6163 70.4495 34.8806 68.5964C34.8806 68.5964 30.4684 72.3026 27.2917 67.5375C27.2917 67.5375 22.4384 69.6553 21.7324 64.802C21.7324 64.802 24.115 55.9777 31.3509 46.624" stroke="#111114" stroke-width="0.70407" stroke-linecap="round" stroke-linejoin="round"/>
<path d="M22.0842 63.6534C22.0842 63.6534 15.5542 69.7421 11.6715 61.3591C11.6715 61.3591 6.8182 60.1237 7.34765 54.5644C7.34765 54.5644 -1.0354 47.505 6.28873 43.5341C6.28873 43.5341 18.5544 42.4752 24.6432 38.416" stroke="#111114" stroke-width="0.70407" stroke-linecap="round" stroke-linejoin="round"/>
<path d="M6.37816 43.4466C6.37816 43.4466 1.52482 43.6231 1.61307 38.0638C1.61307 38.0638 -0.593008 36.3872 1.43657 33.2988C1.43657 33.2988 0.818881 30.9162 2.23076 29.5043C2.23076 29.5043 0.907126 21.2095 8.67247 23.1509C8.67247 23.1509 22.1736 30.3867 24.3796 30.122" stroke="#111114" stroke-width="0.70407" stroke-linecap="round" stroke-linejoin="round"/>
<path d="M8.75837 23.1507C8.75837 23.1507 4.258 17.1502 9.64079 15.3854C9.64079 15.3854 8.14067 10.0026 15.2001 8.50245C15.2001 8.50245 17.1414 1.79601 22.7889 4.35504C22.7889 4.35504 29.6718 -3.05729 34.084 5.50223C38.4961 14.0618 35.4076 21.9153 35.4076 21.9153" stroke="#111114" stroke-width="0.70407" stroke-linecap="round" stroke-linejoin="round"/>
<path d="M35.1445 8.06111C35.1445 8.06111 35.1445 2.23711 38.4977 1.1782C41.851 0.119289 43.6158 1.17819 44.2335 2.76655C44.2335 2.76655 48.5574 -0.49842 50.9399 4.09019C50.9399 4.09019 57.9993 2.06061 55.8815 11.1496C53.7637 20.2386 44.5865 25.9743 44.5865 25.9743" stroke="#111114" stroke-width="0.70407" stroke-linecap="round" stroke-linejoin="round"/>
<path d="M56.1446 9.73821C56.1446 9.73821 61.6157 7.62038 63.91 15.7387C63.91 15.7387 67.8809 18.2977 66.116 22.0039C66.116 22.0039 70.6164 22.7981 69.4693 28.5339C68.3221 34.2696 49.2617 33.6519 49.2617 33.6519" stroke="#111114" stroke-width="0.70407" stroke-linecap="round" stroke-linejoin="round"/>
<path d="M68.7655 30.4736C68.7655 30.4736 71.7658 31.8855 69.8244 35.5035C69.8244 35.5035 71.0599 39.9156 66.6477 40.798C66.6477 40.798 71.1481 43.357 67.5301 48.5634C64.0004 53.7697 61.4414 50.5929 61.4414 50.5929" stroke="#111114" stroke-width="0.70407" stroke-linecap="round" stroke-linejoin="round"/>
<path d="M42.7301 36.918C42.3771 36.3886 42.7301 35.7709 43.3478 36.2121C43.8772 36.4768 44.0537 37.0945 43.436 37.4474C42.9948 37.6239 42.7301 37.271 42.6418 36.918H42.7301ZM42.8183 36.918C42.9066 37.0945 43.1713 36.918 43.2595 36.918C43.3478 36.918 43.6125 36.565 43.2595 36.4768C43.1713 36.4768 43.083 36.4768 43.083 36.6533C43.083 36.7415 42.6418 36.6533 42.7301 37.0062L42.8183 36.918Z" fill="#111114"/>
<path d="M40.2633 38.7715C39.9103 38.2421 40.2633 37.6244 40.881 38.0656C41.4104 38.3303 41.5869 38.948 40.9692 39.301C40.528 39.4775 40.2633 39.1245 40.175 38.7715H40.2633ZM40.3515 38.7715C40.4398 38.948 40.7045 38.7715 40.7927 38.7715C40.881 38.7715 41.1457 38.4186 40.7927 38.3303C40.7045 38.3303 40.6162 38.3303 40.6162 38.5068C40.6162 38.595 40.175 38.5068 40.2633 38.8598L40.3515 38.7715Z" fill="#111114"/>
<path d="M38.4957 35.7715C38.1427 35.2421 38.4957 34.6244 39.1134 35.0656C39.6429 35.3303 39.8193 35.948 39.2016 36.301C38.7604 36.4774 38.4957 36.1245 38.4075 35.7715H38.4957ZM38.5839 35.6832C38.6722 35.8597 38.9369 35.6832 39.0251 35.6832C39.1134 35.6832 39.3781 35.3303 39.0251 35.242C38.9369 35.242 38.8487 35.242 38.8487 35.4185C38.8487 35.5068 38.4074 35.4186 38.4957 35.7715L38.5839 35.6832Z" fill="#111114"/>
<path d="M41.9371 33.7423C41.5841 33.2128 41.9371 32.5951 42.5548 33.0363C43.0842 33.301 43.2607 33.9187 42.643 34.2717C42.2018 34.4482 41.9371 34.0952 41.8488 33.7423H41.9371ZM41.9371 33.7423C42.0253 33.9188 42.2901 33.7423 42.3783 33.7423C42.4666 33.7423 42.7313 33.3893 42.3783 33.3011C42.2901 33.3011 42.2018 33.301 42.2018 33.4775C42.2018 33.5657 41.7606 33.4775 41.8488 33.8305L41.9371 33.7423Z" fill="#111114"/>
<path d="M45.9996 34.7998C45.6466 34.2704 45.9996 33.6527 46.6173 34.0939C47.1468 34.3586 47.3232 34.9764 46.7055 35.3293C46.2643 35.5058 45.9996 35.1528 45.9114 34.7998H45.9996ZM46.0878 34.7998C46.1761 34.9763 46.4408 34.7998 46.5291 34.7998C46.6173 34.7998 46.882 34.4469 46.5291 34.3586C46.4408 34.3586 46.3526 34.3586 46.3526 34.5351C46.3526 34.6234 45.9114 34.5351 45.9996 34.8881L46.0878 34.7998Z" fill="#111114"/>
<path d="M42.5562 41.8604C42.2033 41.3309 42.5562 40.7132 43.1739 41.1545C43.7034 41.4192 43.8799 42.0369 43.2622 42.3899C42.821 42.5664 42.5562 42.2134 42.468 41.8604H42.5562ZM42.6445 41.7722C42.7327 41.9487 42.9975 41.7722 43.0857 41.7722C43.1739 41.7722 43.4387 41.4192 43.0857 41.331C42.9975 41.331 42.9092 41.331 42.9092 41.5075C42.9092 41.5957 42.468 41.5074 42.5562 41.8604L42.6445 41.7722Z" fill="#111114"/>
<path d="M45.3785 39.0362C45.0255 38.5068 45.3785 37.889 45.9962 38.3302C46.5257 38.595 46.7021 39.2127 46.0844 39.5657C45.6432 39.7421 45.3785 39.3892 45.2903 39.0362H45.3785ZM45.3785 39.0362C45.4667 39.2127 45.7315 39.0362 45.8197 39.0362C45.908 39.0362 46.1727 38.6832 45.8197 38.595C45.7315 38.595 45.6432 38.595 45.6432 38.7714C45.6432 38.8597 45.202 38.7715 45.2903 39.1244L45.3785 39.0362Z" fill="#111114"/>
<path d="M44.0543 31.4463C43.7013 30.9169 44.0543 30.2992 44.672 30.7404C45.2014 31.0051 45.3779 31.6228 44.7602 31.9758C44.319 32.1523 44.0543 31.7993 43.966 31.4463H44.0543ZM44.1425 31.4463C44.2308 31.6228 44.4955 31.4463 44.5837 31.4463C44.672 31.4463 44.9367 31.0934 44.5837 31.0051C44.4955 31.0051 44.4073 31.0051 44.4073 31.1816C44.4073 31.2699 43.966 31.1816 44.0543 31.5346L44.1425 31.4463Z" fill="#111114"/>
<path d="M41.4098 29.2412C41.0568 28.7118 41.4097 28.0941 42.0274 28.5353C42.5569 28.8 42.7334 29.4178 42.1157 29.7707C41.6745 29.9472 41.4098 29.5942 41.3215 29.2412H41.4098ZM41.498 29.2412C41.5862 29.4177 41.851 29.2412 41.9392 29.2412C42.0275 29.2412 42.2922 28.8883 41.9392 28.8C41.851 28.8 41.7627 28.8 41.7627 28.9765C41.7627 29.0648 41.3215 28.9766 41.4098 29.3295L41.498 29.2412Z" fill="#111114"/>
<path d="M39.0269 32.2403C38.674 31.7108 39.0269 31.0931 39.6446 31.5343C40.1741 31.7991 40.3506 32.4167 39.7329 32.7697C39.2917 32.9462 39.0269 32.5932 38.9387 32.2403H39.0269ZM39.0269 32.2403C39.1152 32.4168 39.3799 32.2403 39.4682 32.2403C39.5564 32.2403 39.8211 31.8873 39.4682 31.7991C39.3799 31.7991 39.2917 31.7991 39.2917 31.9756C39.2917 32.0638 38.8504 31.9755 38.9387 32.3285L39.0269 32.2403Z" fill="#111114"/>
<path d="M39.9957 26.5059C39.6427 25.9764 39.9957 25.3588 40.6134 25.8C41.1428 26.0647 41.3193 26.6824 40.7016 27.0353C40.2604 27.2118 39.9957 26.8589 39.9074 26.5059H39.9957ZM39.9957 26.5059C40.0839 26.6824 40.3487 26.5059 40.4369 26.5059C40.5251 26.5059 40.7899 26.1529 40.4369 26.0647C40.3487 26.0647 40.2604 26.0647 40.2604 26.2412C40.2604 26.3294 39.8192 26.2411 39.9074 26.5941L39.9957 26.5059Z" fill="#111114"/>
<path d="M38.0562 28.7989C37.7033 28.2694 38.0562 27.6517 38.6739 28.0929C39.2034 28.3577 39.3799 28.9754 38.7622 29.3284C38.321 29.5048 38.0562 29.1518 37.968 28.7989H38.0562ZM38.0562 28.7989C38.1445 28.9754 38.4092 28.7989 38.4974 28.7989C38.5857 28.7989 38.8504 28.4459 38.4974 28.3577C38.4092 28.3577 38.321 28.3577 38.321 28.5341C38.321 28.6224 37.8798 28.5342 37.968 28.8871L38.0562 28.7989Z" fill="#111114"/>
<path d="M37.0836 25.3575C36.7306 24.8281 37.0836 24.2103 37.7013 24.6515C38.2307 24.9163 38.4072 25.534 37.7895 25.8869C37.3483 26.0634 37.0836 25.7105 36.9953 25.3575H37.0836ZM37.0836 25.3575C37.1718 25.534 37.4366 25.3575 37.5248 25.3575C37.613 25.3575 37.8778 25.0045 37.5248 24.9163C37.4366 24.9163 37.3483 24.9163 37.3483 25.0927C37.3483 25.181 36.9071 25.0928 36.9953 25.4457L37.0836 25.3575Z" fill="#111114"/>
<path d="M37.0836 45.214C36.7306 44.6845 37.0836 44.0668 37.7013 44.508C38.2307 44.7727 38.4072 45.3904 37.7895 45.7434C37.3483 45.9199 37.0836 45.5669 36.9953 45.214H37.0836ZM37.1718 45.1257C37.2601 45.3022 37.5248 45.1257 37.613 45.1257C37.7013 45.1257 37.966 44.7727 37.613 44.6845C37.5248 44.6845 37.4365 44.6845 37.4365 44.861C37.4365 44.9492 36.9953 44.861 37.0836 45.214L37.1718 45.1257Z" fill="#111114"/>
<path d="M34.9683 42.5665C34.6154 42.037 34.9684 41.4193 35.5861 41.8605C36.1155 42.1252 36.292 42.743 35.6743 43.0959C35.2331 43.2724 34.9684 42.9195 34.8801 42.5665H34.9683ZM35.0566 42.5665C35.1448 42.743 35.4096 42.5665 35.4978 42.5665C35.586 42.5665 35.8508 42.2135 35.4978 42.1253C35.4096 42.1253 35.3213 42.1252 35.3213 42.3017C35.3213 42.39 34.8801 42.3017 34.9683 42.6547L35.0566 42.5665Z" fill="#111114"/>
<path d="M33.8199 45.0362C33.4669 44.5067 33.8199 43.889 34.4376 44.3302C34.9671 44.595 35.1435 45.2126 34.5258 45.5656C34.0846 45.7421 33.8199 45.3891 33.7317 45.0362H33.8199ZM33.9081 45.0362C33.9964 45.2127 34.2611 45.0362 34.3494 45.0362C34.4376 45.0362 34.7023 44.6832 34.3494 44.595C34.2611 44.595 34.1729 44.595 34.1729 44.7715C34.1729 44.8597 33.7317 44.7714 33.8199 45.1244L33.9081 45.0362Z" fill="#111114"/>
<path d="M33.732 39.5655C33.379 39.036 33.732 38.4183 34.3497 38.8595C34.8792 39.1243 35.0557 39.7419 34.438 40.0949C33.9967 40.2714 33.732 39.9184 33.6438 39.5655H33.732ZM33.732 39.5655C33.8203 39.742 34.085 39.5655 34.1732 39.5655C34.2615 39.5655 34.5262 39.2125 34.1732 39.1243C34.085 39.1243 33.9967 39.1243 33.9967 39.3008C33.9967 39.389 33.5555 39.3007 33.6438 39.6537L33.732 39.5655Z" fill="#111114"/>
<path d="M33.2926 36.212C32.9396 35.6825 33.2926 35.0648 33.9103 35.506C34.4397 35.7708 34.6162 36.3884 33.9985 36.7414C33.5573 36.9179 33.2926 36.5649 33.2043 36.212H33.2926ZM33.3808 36.212C33.4691 36.3884 33.7338 36.212 33.822 36.212C33.9103 36.212 34.175 35.859 33.822 35.7707C33.7338 35.7707 33.6455 35.7708 33.6455 35.9472C33.6455 36.0355 33.2043 35.9472 33.2926 36.3002L33.3808 36.212Z" fill="#111114"/>
<path d="M33.5562 32.419C33.2033 31.8896 33.5562 31.2718 34.1739 31.713C34.7034 31.9778 34.8799 32.5955 34.2622 32.9485C33.821 33.1249 33.5562 32.772 33.468 32.419H33.5562ZM33.6445 32.419C33.7327 32.5955 33.9974 32.419 34.0857 32.419C34.1739 32.419 34.4387 32.0661 34.0857 31.9778C33.9974 31.9778 33.9092 31.9778 33.9092 32.1543C33.9092 32.2425 33.468 32.1543 33.5562 32.5073L33.6445 32.419Z" fill="#111114"/>
<path d="M30.9078 34.2705C30.5548 33.7411 30.9078 33.1234 31.5255 33.5646C32.0549 33.8293 32.2314 34.447 31.6137 34.8C31.1725 34.9765 30.9078 34.6235 30.8196 34.2705H30.9078ZM30.996 34.1823C31.0843 34.3588 31.349 34.1823 31.4372 34.1823C31.5255 34.1823 31.7902 33.8294 31.4372 33.7411C31.349 33.7411 31.2608 33.7411 31.2608 33.9176C31.2608 34.0058 30.8196 33.9176 30.9078 34.2705L30.996 34.1823Z" fill="#111114"/>
<path d="M29.3219 31.5362C28.9689 31.0068 29.3219 30.389 29.9396 30.8302C30.469 31.095 30.6455 31.7127 30.0278 32.0657C29.5866 32.2421 29.3219 31.8892 29.2336 31.5362H29.3219ZM29.3219 31.5362C29.4101 31.7127 29.6748 31.5362 29.7631 31.5362C29.8513 31.5362 30.116 31.1832 29.7631 31.095C29.6748 31.095 29.5866 31.095 29.5866 31.2714C29.5866 31.3597 29.1454 31.2715 29.2336 31.6244L29.3219 31.5362Z" fill="#111114"/>
<path d="M28.0836 28.712C27.7306 28.1825 28.0836 27.5648 28.7013 28.006C29.2307 28.2708 29.4072 28.8884 28.7895 29.2414C28.3483 29.4179 28.0836 29.0649 27.9953 28.712H28.0836ZM28.0836 28.712C28.1718 28.8884 28.4366 28.712 28.5248 28.712C28.613 28.712 28.8778 28.359 28.5248 28.2707C28.4366 28.2707 28.3483 28.2708 28.3483 28.4472C28.3483 28.5355 27.9071 28.4472 27.9953 28.8002L28.0836 28.712Z" fill="#111114"/>
<path d="M31.0836 38.1534C30.7306 37.6239 31.0836 37.0062 31.7013 37.4474C32.2307 37.7121 32.4072 38.3299 31.7895 38.6828C31.3483 38.8593 31.0836 38.5064 30.9953 38.1534H31.0836ZM31.1718 38.1534C31.2601 38.3299 31.5248 38.1534 31.613 38.1534C31.7013 38.1534 31.966 37.8004 31.613 37.7122C31.5248 37.7122 31.4365 37.7121 31.4365 37.8886C31.4365 37.9769 30.9953 37.8887 31.0836 38.2416L31.1718 38.1534Z" fill="#111114"/>
<path d="M32.232 41.9493C31.879 41.4198 32.232 40.8021 32.8497 41.2433C33.3792 41.5081 33.5557 42.1257 32.938 42.4787C32.4967 42.6552 32.232 42.3022 32.1438 41.9493H32.232ZM32.232 41.861C32.3203 42.0375 32.585 41.861 32.6732 41.861C32.7615 41.861 33.0262 41.508 32.6732 41.4198C32.585 41.4198 32.4967 41.4198 32.4967 41.5963C32.4967 41.6845 32.0555 41.5963 32.1438 41.9493L32.232 41.861Z" fill="#111114"/>
<path d="M30.1148 43.6241C29.7619 43.0946 30.1148 42.4769 30.7325 42.9181C31.262 43.1829 31.4385 43.8006 30.8208 44.1535C30.3796 44.33 30.1148 43.977 30.0266 43.6241H30.1148ZM30.2031 43.6241C30.2913 43.8005 30.556 43.6241 30.6443 43.6241C30.7325 43.6241 30.9973 43.2711 30.6443 43.1828C30.556 43.1828 30.4678 43.1829 30.4678 43.3593C30.4678 43.4476 30.0266 43.3594 30.1148 43.7123L30.2031 43.6241Z" fill="#111114"/>
<path d="M29.3219 40.625C28.9689 40.0956 29.3219 39.4779 29.9396 39.9191C30.469 40.1838 30.6455 40.8015 30.0278 41.1545C29.5866 41.331 29.3219 40.978 29.2336 40.625H29.3219ZM29.4101 40.625C29.4984 40.8015 29.7631 40.625 29.8513 40.625C29.9396 40.625 30.2043 40.2721 29.8513 40.1838C29.7631 40.1838 29.6748 40.1838 29.6748 40.3603C29.6748 40.4486 29.2336 40.3603 29.3219 40.7133L29.4101 40.625Z" fill="#111114"/>
<path d="M28.4371 36.2998C28.0841 35.7704 28.4371 35.1527 29.0548 35.5939C29.5842 35.8586 29.7607 36.4764 29.143 36.8293C28.7018 37.0058 28.4371 36.6528 28.3488 36.2998H28.4371ZM28.5253 36.2998C28.6136 36.4763 28.8783 36.2998 28.9666 36.2998C29.0548 36.2998 29.3195 35.9469 28.9666 35.8586C28.8783 35.8586 28.7901 35.8586 28.7901 36.0351C28.7901 36.1234 28.3489 36.0351 28.4371 36.3881L28.5253 36.2998Z" fill="#111114"/>
<path d="M27.025 38.7715C26.672 38.2421 27.025 37.6244 27.6427 38.0656C28.1721 38.3303 28.3486 38.948 27.7309 39.301C27.2897 39.4775 27.025 39.1245 26.9367 38.7715H27.025ZM27.025 38.6833C27.1132 38.8598 27.378 38.6833 27.4662 38.6833C27.5544 38.6833 27.8192 38.3303 27.4662 38.2421C27.378 38.2421 27.2897 38.2421 27.2897 38.4186C27.2897 38.5068 26.8485 38.4186 26.9367 38.7715L27.025 38.6833Z" fill="#111114"/>
<path d="M26.7613 33.3887C26.4083 32.8593 26.7613 32.2416 27.379 32.6828C27.9085 32.9475 28.0849 33.5652 27.4672 33.9181C27.026 34.0946 26.7613 33.7417 26.6731 33.3887H26.7613ZM26.7613 33.3887C26.8496 33.5652 27.1143 33.3887 27.2025 33.3887C27.2908 33.3887 27.5555 33.0357 27.2025 32.9475C27.1143 32.9475 27.026 32.9475 27.026 33.124C27.026 33.2122 26.5848 33.124 26.6731 33.4769L26.7613 33.3887Z" fill="#111114"/>
<path d="M34.7906 28.1827C34.4376 27.6532 34.7906 27.0355 35.4083 27.4767C35.9378 27.7415 36.1143 28.3592 35.4966 28.7121C35.0553 28.8886 34.7906 28.5356 34.7024 28.1827H34.7906ZM34.7906 28.1827C34.8789 28.3591 35.1436 28.1827 35.2318 28.1827C35.3201 28.1827 35.5848 27.8297 35.2318 27.7414C35.1436 27.7414 35.0553 27.7415 35.0553 27.9179C35.0553 28.0062 34.6141 27.918 34.7024 28.2709L34.7906 28.1827Z" fill="#111114"/>
<path d="M33.4664 25.1817C33.1134 24.6522 33.4664 24.0345 34.0841 24.4757C34.6135 24.7405 34.79 25.3581 34.1723 25.7111C33.7311 25.8876 33.4664 25.5346 33.3782 25.1817H33.4664ZM33.5546 25.1817C33.6429 25.3582 33.9076 25.1817 33.9959 25.1817C34.0841 25.1817 34.3488 24.8287 33.9959 24.7405C33.9076 24.7405 33.8194 24.7405 33.8194 24.917C33.8194 25.0052 33.3782 24.9169 33.4664 25.2699L33.5546 25.1817Z" fill="#111114"/>
<path d="M31.9683 29.7716C31.6154 29.2421 31.9683 28.6244 32.586 29.0656C33.1155 29.3303 33.292 29.948 32.6743 30.301C32.2331 30.4775 31.9683 30.1245 31.8801 29.7716H31.9683ZM31.9683 29.7716C32.0566 29.9481 32.3213 29.7716 32.4096 29.7716C32.4978 29.7716 32.7625 29.4186 32.4096 29.3304C32.3213 29.3304 32.2331 29.3303 32.2331 29.5068C32.2331 29.595 31.7919 29.5068 31.8801 29.8598L31.9683 29.7716Z" fill="#111114"/>
<path d="M30.732 26.8575C30.379 26.328 30.732 25.7103 31.3497 26.1515C31.8792 26.4163 32.0556 27.034 31.4379 27.3869C30.9967 27.5634 30.732 27.2104 30.6438 26.8575H30.732ZM30.732 26.8575C30.8203 27.0339 31.085 26.8575 31.1732 26.8575C31.2615 26.8575 31.5262 26.5045 31.1732 26.4162C31.085 26.4162 30.9967 26.4163 30.9967 26.5927C30.9967 26.681 30.5555 26.5928 30.6438 26.9457L30.732 26.8575Z" fill="#111114"/>
<path d="M35.9371 34.4473C35.5841 33.9178 35.9371 33.3002 36.5548 33.7414C37.0842 34.0061 37.2607 34.6238 36.643 34.9767C36.2018 35.1532 35.9371 34.8003 35.8488 34.4473H35.9371ZM35.9371 34.359C36.0253 34.5355 36.2901 34.359 36.3783 34.359C36.4666 34.359 36.7313 34.0061 36.3783 33.9178C36.2901 33.9178 36.2018 33.9178 36.2018 34.0943C36.2018 34.1826 35.7606 34.0943 35.8488 34.4473L35.9371 34.359Z" fill="#111114"/>
<path d="M36.0269 31.2705C35.674 30.7411 36.0269 30.1234 36.6446 30.5646C37.1741 30.8293 37.3506 31.4471 36.7329 31.8C36.2917 31.9765 36.0269 31.6235 35.9387 31.2705H36.0269ZM36.1152 31.1823C36.2034 31.3588 36.4681 31.1823 36.5564 31.1823C36.6446 31.1823 36.9094 30.8294 36.5564 30.7411C36.4681 30.7411 36.3799 30.7411 36.3799 30.9176C36.3799 31.0059 35.9387 30.9176 36.0269 31.2705L36.1152 31.1823Z" fill="#111114"/>
<path d="M36.2926 37.6241C35.9396 37.0946 36.2926 36.4769 36.9103 36.9181C37.4397 37.1829 37.6162 37.8006 36.9985 38.1535C36.5573 38.33 36.2926 37.977 36.2043 37.6241H36.2926ZM36.3808 37.6241C36.4691 37.8005 36.7338 37.6241 36.822 37.6241C36.9103 37.6241 37.175 37.2711 36.822 37.1828C36.7338 37.1828 36.6455 37.1829 36.6455 37.3593C36.6455 37.4476 36.2043 37.3594 36.2926 37.7123L36.3808 37.6241Z" fill="#111114"/>
<path d="M37.5269 40.5362C37.174 40.0067 37.5269 39.389 38.1446 39.8302C38.6741 40.095 38.8506 40.7127 38.2329 41.0657C37.7917 41.2421 37.5269 40.8891 37.4387 40.5362H37.5269ZM37.6152 40.448C37.7034 40.6244 37.9681 40.448 38.0564 40.448C38.1446 40.448 38.4094 40.095 38.0564 40.0067C37.9681 40.0067 37.8799 40.0067 37.8799 40.1832C37.8799 40.2715 37.4387 40.1832 37.5269 40.5362L37.6152 40.448Z" fill="#111114"/>
<path d="M39.6441 43.0948C39.2912 42.5653 39.6441 41.9476 40.2618 42.3888C40.7913 42.6536 40.9678 43.2712 40.3501 43.6242C39.9089 43.8007 39.6441 43.4477 39.5559 43.0948H39.6441ZM39.6441 43.0948C39.7324 43.2712 39.9971 43.0948 40.0853 43.0948C40.1736 43.0948 40.4383 42.7418 40.0853 42.6536C39.9971 42.6536 39.9089 42.6536 39.9089 42.83C39.9089 42.9183 39.4677 42.83 39.5559 43.183L39.6441 43.0948Z" fill="#111114"/>
<path d="M54.4693 61.9791C52.6162 60.2142 51.2925 58.0964 50.0571 55.9786C47.7628 52.5371 45.2038 49.0074 44.0566 44.9482C46.3509 48.4779 47.9393 52.2724 50.1454 55.8021C51.5573 57.7435 53.4103 59.8613 54.381 61.9791H54.4693Z" fill="#111114"/>
<path d="M33.8206 47.8604C34.2618 50.5076 33.8206 53.2431 32.9382 55.8022C31.8792 60.1261 29.9379 64.4499 26.4082 67.3619C29.0555 63.8322 31.5263 60.0378 32.7617 55.8022C33.2911 53.2431 33.3794 50.3311 33.8206 47.8604Z" fill="#111114"/>
<path d="M26.4062 42.8311C25.1708 45.5666 22.9648 47.6844 20.494 49.361C16.6113 52.3612 11.8462 54.5673 6.81641 54.2143C11.5815 53.5084 16.4348 52.0965 20.4058 49.1845C22.6118 47.3314 24.6414 44.8606 26.4945 42.8311H26.4062Z" fill="#111114"/>
<path d="M23.9378 34.9765C21.114 36.0354 18.0255 36.0354 15.1135 35.4177C10.2602 34.7118 5.31861 32.6822 2.31836 28.623C5.9363 31.7998 10.2602 34.4471 15.1135 35.3295C18.0255 35.6825 21.2023 35.3295 23.8495 35.0648L23.9378 34.9765Z" fill="#111114"/>
<path d="M28.7023 24.2117C26.2315 23.241 24.1137 21.5644 22.2606 19.6231C18.9956 16.6228 16.1718 13.0049 15.2012 8.59277C17.1425 12.4754 19.2603 16.3581 22.3488 19.4466C24.2902 21.1232 26.7609 22.6233 28.614 24.2117H28.7023Z" fill="#111114"/>
<path d="M41.057 23.3286C43.2631 21.3873 45.2044 19.3577 46.881 16.9752C49.2635 12.8278 50.0577 7.88619 49.8813 3.12109C51.1166 7.97443 49.5283 13.0042 46.9692 17.0634C46.528 17.7693 45.9103 18.8282 45.3809 19.5342C44.2337 21.0343 42.5571 22.6227 40.9688 23.3286H41.057Z" fill="#111114"/>
<path d="M66.2039 21.7402C64.2625 23.3286 61.7917 24.564 59.4974 25.4464C55.703 27.2995 51.7321 29.1526 47.4082 29.6821C51.3791 28.1819 55.5265 27.1231 59.4092 25.3582C61.6153 24.2111 63.9978 22.6227 66.2039 21.8285V21.7402Z" fill="#111114"/>
<path d="M66.5583 40.7119C64.5288 41.859 62.058 41.9473 59.8519 41.5943C56.0575 41.2413 52.0866 39.8294 49.9688 36.5645C53.0572 39.1235 56.8517 41.506 60.9991 41.4178H62.1462C63.5581 41.4178 65.2347 40.9766 66.5583 40.8001V40.7119Z" fill="#111114"/>
<path d="M60.3803 60.7438C59.3214 58.0083 58.1742 55.2728 56.5859 52.8902C53.5856 49.0075 49.35 46.3603 44.8496 44.4189C49.7912 45.3896 53.8503 48.8311 56.7624 52.802C57.2918 53.5079 57.9977 54.4786 58.5272 55.1845C59.4979 56.8612 60.3803 58.979 60.4685 60.7438H60.3803Z" fill="#111114"/>
<path d="M50.6723 64.4505C48.8192 62.5974 47.4955 60.3913 46.4366 58.097C44.3188 54.3908 42.2892 50.5081 41.7598 46.2725C43.3481 50.2434 44.5835 54.3026 46.5249 58.0088C47.8485 60.1266 49.6134 62.3326 50.584 64.4505H50.6723Z" fill="#111114"/>
<path d="M39.8203 47.596C40.791 50.0668 41.4969 52.5376 42.2911 55.0966C43.9677 59.1558 46.262 62.862 48.1151 66.8329C45.2914 63.3915 43.6147 59.244 42.1146 55.0966C41.0557 52.8023 39.9086 49.8904 39.8203 47.5078V47.596Z" fill="#111114"/>
<path d="M36.38 48.126C35.8506 50.685 35.3211 53.1558 35.0564 55.8031C35.0564 60.127 36.2036 64.3626 37.6154 68.4218C36.6448 67.1864 36.0271 65.245 35.4976 63.6566C34.7917 61.1858 34.7917 58.3621 34.8799 55.8031C34.8799 55.0089 34.8799 53.95 34.8799 53.1558C35.0564 51.4792 35.4976 49.4496 36.38 48.126Z" fill="#111114"/>
<path d="M32.6751 47.5957C32.1456 51.3019 30.2043 54.5669 28.7924 57.9201C27.3805 61.3615 25.4392 64.5383 23.0566 67.362C24.9097 64.1853 26.7628 61.0086 28.6159 57.8319C30.469 54.6551 31.175 50.6842 32.8516 47.5957H32.6751Z" fill="#111114"/>
<path d="M28.2597 45.124C27.2008 47.7713 25.7889 50.2421 24.0241 52.5364C21.4651 56.4191 17.8471 60.39 13.082 61.096C17.4059 59.3311 21.2003 56.2426 23.9359 52.4481C25.436 50.1538 26.6714 47.2419 28.348 45.2123L28.2597 45.124Z" fill="#111114"/>
<path d="M25.0834 41.1533C23.3185 43.6241 20.6712 45.4772 17.9357 46.7126C13.4354 49.0069 8.22904 50.3305 3.19922 49.0951C8.1408 49.3599 13.3471 48.8304 17.8475 46.6244C20.4065 45.2125 22.8773 43.0064 25.0834 41.3298V41.1533Z" fill="#111114"/>
<path d="M23.6723 36.7418C21.1133 38.4184 18.0248 39.1243 15.0245 39.2126C9.99469 39.6538 4.70013 38.9479 0.552734 35.8594C5.0531 37.9772 9.99469 39.3891 14.9363 39.0361C17.8483 38.6832 20.9368 37.6242 23.584 36.7418H23.6723Z" fill="#111114"/>
<path d="M23.6715 32.5058C20.8477 33.0353 18.024 32.5058 15.2885 31.7116C10.6998 30.5645 6.19946 28.6232 3.19922 24.917C6.9054 27.7408 10.8763 30.2998 15.3767 31.5352C18.1122 32.1529 21.1125 32.1529 23.6715 32.5058Z" fill="#111114"/>
<path d="M26.2322 26.9467C23.4967 26.9467 20.9376 25.7995 18.7316 24.3876C14.8489 22.2698 11.2309 19.1813 9.64258 14.8574C12.1134 18.4754 14.9371 21.9168 18.7316 24.2111C21.0259 25.3583 23.8496 26.1525 26.1439 26.9467H26.2322Z" fill="#111114"/>
<path d="M31.967 22.2703C30.8198 19.976 29.9374 17.6817 28.9668 15.2991C27.0254 11.5929 24.6429 8.1515 22.6133 4.44531C25.5253 7.62204 27.2901 11.4165 29.055 15.2991C30.2021 17.417 31.5258 19.976 31.8787 22.3585L31.967 22.2703Z" fill="#111114"/>
<path d="M30.7309 22.8009C28.2601 21.4773 26.2305 19.4477 24.5539 17.2416C21.5537 13.7119 18.9947 9.65279 18.377 4.8877C19.9653 9.21158 21.8184 13.4472 24.6422 17.0652C26.4953 19.0947 28.8778 20.9478 30.6427 22.8009H30.7309Z" fill="#111114"/>
<path d="M33.5555 21.5641C32.8495 19.0933 32.3201 16.6226 31.6141 14.1518C30.114 10.1809 27.7315 6.65115 25.5254 3.0332C28.6139 6.12169 30.3787 10.0926 31.7024 14.1518C31.9671 14.8577 32.4083 15.8284 32.673 16.5344C33.1143 18.1227 33.6437 20.064 33.4672 21.5641H33.5555Z" fill="#111114"/>
<path d="M44.2341 1.88574C45.9107 4.35653 45.8225 7.53326 45.0283 10.2688C43.9694 15.0339 40.9692 19.0048 37.4395 22.2698C42.4693 15.2986 47.2344 11.063 44.3224 1.88574H44.2341Z" fill="#111114"/>
<path d="M36.3793 22.0933C37.5264 19.7108 38.5853 17.3282 39.2913 14.7692C40.0855 10.4453 39.2913 5.9449 37.7911 1.88574C40.2619 5.76841 40.3502 10.5335 39.3795 14.8574C39.203 15.6516 39.0265 16.7105 38.8501 17.5047C38.3206 19.093 37.4382 21.1226 36.291 22.1815L36.3793 22.0933Z" fill="#111114"/>
<path d="M44.1449 25.2693C45.998 23.1515 47.8511 20.9455 49.5277 18.6512C51.9102 14.5038 53.0574 9.82689 53.8516 5.23828C54.1163 10.0916 52.175 14.6803 49.6159 18.7394C49.1747 19.4454 48.6453 20.5043 48.1158 21.2102C47.0569 22.7103 45.5568 24.3869 44.0566 25.2693H44.1449Z" fill="#111114"/>
<path d="M46.3519 27.6517C48.558 26.2398 50.9405 25.0926 53.2348 23.8573C56.941 21.4747 60.1178 18.4744 63.5592 15.8271C60.8237 19.2686 57.0293 21.7394 53.2348 24.0337C51.117 25.5339 48.6462 27.1222 46.2637 27.6517H46.3519Z" fill="#111114"/>
<path d="M48.7305 31.4478C51.2895 30.8301 54.1133 30.2125 56.6723 29.7712L57.9959 29.4182C61.5256 28.3593 65.8495 26.5063 69.3792 25.1826L69.4675 25.5356C68.938 25.712 68.3203 25.8885 67.7026 25.9768C68.2321 25.712 68.7615 25.4473 69.291 25.2708C69.4675 25.2708 69.6439 25.4473 69.4675 25.6238C67.8791 26.5063 66.2025 27.2122 64.5259 27.8299C61.9668 28.8006 59.3196 29.33 56.6723 30.036C54.1133 30.8301 51.2013 31.5361 48.7305 31.4478Z" fill="#111114"/>
<path d="M49.5273 34.7122C51.9981 35.5064 54.4689 36.2124 57.028 36.7418C61.3518 37.0948 65.5875 36.0359 69.6466 34.7122C65.8522 37.0948 61.2636 37.4478 57.028 36.8301C56.2338 36.8301 55.1749 36.6536 54.4689 36.5653C52.7923 36.2123 50.851 35.5947 49.6156 34.624L49.5273 34.7122Z" fill="#111114"/>
<path d="M48.9961 38.9473C51.9963 40.6239 55.1731 42.0357 58.6145 42.7417C61.8795 43.4476 65.8504 44.6831 67.88 47.4186C64.4385 44.7713 60.1147 43.6241 56.0555 42.3005C53.5847 41.6828 50.5845 40.8886 48.9961 38.9473Z" fill="#111114"/>
</svg>
