<svg width="58" height="58" viewBox="0 0 58 58" fill="none" xmlns="http://www.w3.org/2000/svg">
<path d="M55.9174 23.8646C54.1526 22.3645 50.7994 21.835 49.9169 21.7468C49.9169 21.7468 49.9169 21.7468 49.9169 21.6585C52.829 19.5407 53.6231 17.2464 53.6231 17.2464C53.6231 17.2464 55.388 14.4226 49.7405 14.3344C48.9463 14.3344 48.1521 14.4226 47.4462 14.6874C47.4462 14.6874 47.4462 14.6874 47.4462 14.5991C47.4462 14.5991 52.123 8.5104 48.0639 6.74555C46.652 6.12785 44.9754 6.48081 43.387 7.275C43.387 7.275 43.387 7.18676 43.2988 7.09852H43.4753C43.4753 7.18676 44.6224 4.53948 42.3281 2.86287C40.0338 1.18626 37.6513 4.36301 37.6513 4.36301C37.4748 3.92179 37.3865 3.7453 37.3865 3.7453C37.3865 3.7453 37.3865 -2.16694 33.1509 1.89221C32.1802 2.86288 31.4743 4.27475 30.9448 5.77488C31.1213 2.86287 29.5329 1.62748 29.5329 1.62748C25.6503 -1.19628 24.8561 4.01003 24.8561 4.01003C24.8561 4.01003 24.8561 1.71573 21.6793 1.27452C18.7673 0.921547 19.1203 4.62772 18.8556 5.33366C18.8556 5.33366 18.7674 5.33366 18.6791 5.33366C17.3555 3.7453 16.1201 2.68639 15.0611 2.95112C11.8844 3.56882 14.0022 7.80446 13.914 8.06919C13.8258 8.33392 10.649 5.5984 8.26646 7.80446C5.79567 10.0105 9.85487 14.5109 9.85487 14.5109H10.0313C9.67834 14.4227 9.32542 14.3344 8.97245 14.2462C7.11935 13.8932 3.23667 12.9225 3.94261 16.717C4.64855 20.5114 8.88417 22.541 8.88417 22.541H8.97245C5.88396 22.4527 1.20707 23.4234 0.942345 26.4236C0.677617 29.7769 6.50166 31.1005 7.2076 31.1887C5.70747 31.8947 4.56029 32.8653 3.58962 34.0125C1.20707 37.0127 2.7072 37.8952 2.7072 37.8952C4.64853 39.9247 11.4432 38.8658 12.2374 38.6893C10.7373 39.9247 9.50189 41.6896 9.23716 43.9839C8.35474 50.6021 9.50188 49.4549 9.50188 49.4549C9.50188 49.4549 11.5315 49.3667 15.6789 47.0724C17.0907 46.2782 18.2379 45.0428 19.1203 43.7192C19.1203 43.8074 19.1203 43.8956 19.2086 43.9839C18.5909 45.3958 18.3261 47.0724 18.1496 49.1902C17.7967 53.6906 18.8556 57.6615 21.8558 55.5437C24.8561 53.4258 27.5034 47.4253 27.5034 47.4253C27.5034 47.4253 27.5034 47.4254 27.5034 47.3371C27.6799 49.9844 28.474 51.308 28.474 51.308C31.6508 57.5732 34.4745 56.8673 34.4745 56.8673C34.4745 56.8673 36.1511 56.9555 37.0336 52.014C37.0336 51.5728 37.1218 51.1315 37.1218 50.6903C39.1514 52.8081 41.5339 52.6317 41.5339 52.6317C44.8871 53.8671 44.1812 47.9548 44.1812 47.9548C44.1812 47.6018 44.1812 47.2489 44.0047 46.8959C45.7695 47.8666 48.5933 47.7783 48.5933 47.7783C48.5933 47.7783 50.1817 48.9255 51.0641 45.2193C52.0348 41.5131 48.5933 37.7187 48.5933 37.7187C50.7111 38.0716 52.476 37.8069 53.5349 37.2775C55.8292 36.1303 55.9174 36.3068 55.035 34.1007C54.2408 32.1594 51.1524 30.3063 50.4464 29.9533C50.4464 29.9533 50.4464 29.9533 50.4464 29.8651C54.6821 29.2474 55.8292 27.2178 55.8292 27.2178C55.8292 27.2178 58.1235 25.453 56.0939 23.6881L55.9174 23.8646Z" fill="#FF6A37"/>
<path d="M23.0032 18.0431C23.0032 18.0431 28.386 14.9546 34.1218 17.6901C39.8575 20.4257 41.8871 25.279 41.2694 30.3971C40.8282 33.9268 38.5339 37.7212 33.504 40.1037C23.5326 44.9571 16.385 33.8385 16.8262 32.1619C16.8262 32.1619 14.1789 23.6024 22.9149 18.0431H23.0032Z" fill="#FFEC2D" stroke="black" stroke-width="0.352035" stroke-linecap="round" stroke-linejoin="round"/>
<path d="M29.797 16.5418C29.797 16.5418 28.9146 5.86445 33.1502 1.8053C37.2976 -2.25386 37.3859 3.65839 37.3859 3.65839C37.3859 3.65839 40.2979 7.62931 34.2092 17.7772" stroke="black" stroke-width="0.352035" stroke-linecap="round" stroke-linejoin="round"/>
<path d="M37.1211 11.4232C37.1211 11.4232 43.9158 4.89326 48.0632 6.65811C52.1223 8.42296 47.4455 14.5117 47.4455 14.5117" stroke="black" stroke-width="0.352035" stroke-linecap="round" stroke-linejoin="round"/>
<path d="M38.6191 21.3946C38.6191 21.3946 44.0902 14.1587 49.7377 14.3352C55.3852 14.4235 53.6204 17.2472 53.6204 17.2472C53.6204 17.2472 51.2378 23.8654 40.5605 24.7478" stroke="black" stroke-width="0.352035" stroke-linecap="round" stroke-linejoin="round"/>
<path d="M49.7381 21.6602C49.7381 21.6602 53.9738 22.0131 56.0034 23.778C58.033 25.5428 55.7387 27.3077 55.7387 27.3077C55.7387 27.3077 53.0914 31.8963 41.4434 29.3373" stroke="black" stroke-width="0.352035" stroke-linecap="round" stroke-linejoin="round"/>
<path d="M50.0905 29.9551C50.0905 29.9551 53.885 31.9846 54.7674 34.1907C55.6498 36.3968 55.5616 36.2203 53.2672 37.3674C50.9729 38.5146 44.796 38.1616 40.1191 33.8377" stroke="black" stroke-width="0.352035" stroke-linecap="round" stroke-linejoin="round"/>
<path d="M48.4171 37.8965C48.4171 37.8965 51.8586 41.6027 50.8879 45.3971C49.9172 49.1915 48.4171 47.9561 48.4171 47.9561C48.4171 47.9561 45.4168 48.1326 43.7402 47.0737" stroke="black" stroke-width="0.352035" stroke-linecap="round" stroke-linejoin="round"/>
<path d="M36.8574 38.0723C36.8574 38.0723 43.2991 41.3372 44.005 48.1319C44.005 48.1319 44.7992 54.0442 41.3578 52.8088C41.3578 52.8088 38.887 52.9853 36.8574 50.6909" stroke="black" stroke-width="0.352035" stroke-linecap="round" stroke-linejoin="round"/>
<path d="M32.974 40.3672C32.974 40.3672 37.7391 47.0736 36.8567 52.0152C35.9743 57.045 34.2976 56.8686 34.2976 56.8686C34.2976 56.8686 31.4739 57.4862 28.2972 51.3093C28.2972 51.3093 26.3558 47.956 27.856 41.2496" stroke="black" stroke-width="0.352035" stroke-linecap="round" stroke-linejoin="round"/>
<path d="M27.4169 47.5138C27.4169 47.5138 24.8579 53.6025 21.7694 55.6321C18.7692 57.7499 17.7103 53.779 18.0632 49.2787C18.4162 44.7783 19.4751 42.2193 22.5636 39.3955" stroke="black" stroke-width="0.352035" stroke-linecap="round" stroke-linejoin="round"/>
<path d="M21.3275 38.6031C21.3275 38.6031 19.6509 44.7801 15.5918 47.0744C11.4444 49.3687 9.4148 49.457 9.4148 49.457C9.4148 49.457 8.26761 50.6041 9.15003 43.9859C10.0325 37.3677 18.5038 35.5146 18.5038 35.5146" stroke="black" stroke-width="0.352035" stroke-linecap="round" stroke-linejoin="round"/>
<path d="M12.1498 38.6902C12.1498 38.6902 4.64916 40.0138 2.53134 37.896C2.53134 37.896 1.11946 37.0135 3.41376 34.0133C5.70807 31.013 9.32602 29.4247 16.3854 30.4836" stroke="black" stroke-width="0.352035" stroke-linecap="round" stroke-linejoin="round"/>
<path d="M7.20691 31.1015C7.20691 31.1015 0.588711 29.8661 0.853438 26.2481C1.11817 22.7184 7.55988 21.9243 10.2954 22.4537C13.0309 22.9832 16.9136 25.8069 16.9136 25.8069" stroke="black" stroke-width="0.352035" stroke-linecap="round" stroke-linejoin="round"/>
<path d="M8.7943 22.3658C8.7943 22.3658 4.55863 20.2479 3.85269 16.5418C3.14675 12.7473 7.11767 13.718 8.88252 14.071C15.0595 15.2181 19.4716 21.0421 19.4716 21.0421" stroke="black" stroke-width="0.352035" stroke-linecap="round" stroke-linejoin="round"/>
<path d="M9.76478 14.2476C9.76478 14.2476 5.70563 9.74722 8.17642 7.54116C10.6472 5.3351 13.7357 8.07062 13.824 7.80589C13.9122 7.54116 11.7944 3.30552 14.9711 2.68782C18.1478 2.07012 23.7954 13.1887 24.4131 17.3361" stroke="black" stroke-width="0.352035" stroke-linecap="round" stroke-linejoin="round"/>
<path d="M18.7676 5.24608C19.2088 5.0696 18.5028 0.745704 21.6796 1.09867C24.8563 1.45164 24.8563 3.8342 24.8563 3.8342C24.8563 3.8342 25.6505 -1.37211 29.5332 1.45165C29.5332 1.45165 31.1215 2.77528 30.945 5.77553" stroke="black" stroke-width="0.352035" stroke-linecap="round" stroke-linejoin="round"/>
<path d="M37.6523 4.18789C37.6523 4.18789 40.0349 1.01116 42.3292 2.68777C44.6235 4.36437 43.4763 7.01166 43.4763 7.01166" stroke="black" stroke-width="0.352035" stroke-linecap="round" stroke-linejoin="round"/>
<path d="M23.9747 29.0702C24.4159 28.0996 23.5334 25.8052 26.0042 24.5699C28.475 23.3345 30.5046 22.9815 32.2694 24.5699C33.946 26.1582 34.7402 29.9527 33.5931 30.8351C32.4459 31.7175 30.2399 36.0414 26.7102 33.5706C23.1805 31.0998 24.0629 29.0702 24.0629 29.0702H23.9747Z" fill="black"/>
<path d="M23.975 29.0711C24.328 27.7475 23.975 26.2473 25.0339 25.1884C26.6222 23.8648 28.8283 22.8941 30.8579 23.4236C32.9757 24.0413 34.1229 26.3356 34.3876 28.4534C34.3876 29.2476 34.3876 30.483 33.6817 31.1007C32.0051 32.8655 29.8872 35.601 27.1517 34.0127C25.5633 32.9538 23.5338 31.2771 23.975 29.1593V29.0711ZM23.975 29.0711C23.3573 31.3654 26.887 34.4539 29.093 34.1009C31.1226 33.7479 32.1815 31.6301 33.5934 30.3065C34.3876 28.1004 32.9757 24.659 30.6814 23.8648C28.8283 23.2471 26.6222 24.1295 25.0339 25.2767C23.8867 26.2473 24.2397 27.8357 23.8867 29.0711H23.975Z" fill="black"/>
<path d="M35.3574 18.3946C36.4163 14.6885 39.1518 11.4235 42.2403 9.30566C39.5048 11.9529 36.8575 14.9532 35.3574 18.3946Z" fill="black"/>
<path d="M36.2383 18.923C37.5619 16.1874 39.415 13.6284 41.974 12.04C39.768 14.0696 38.0031 16.5404 36.2383 18.923Z" fill="black"/>
<path d="M37.3867 19.9818C39.3281 17.2463 41.3576 14.6872 43.7402 12.3047C41.8871 15.0402 39.681 17.5992 37.3867 19.9818Z" fill="black"/>
<path d="M38.0039 20.5996C40.2982 18.1288 42.769 15.9228 45.0633 13.452C45.7692 12.6578 46.6517 11.8636 47.0929 10.8047C46.8281 11.9518 46.034 12.746 45.328 13.6285C43.122 16.1875 40.6512 18.4818 38.0922 20.5996H38.0039Z" fill="black"/>
<path d="M39.3281 22.3641C41.2695 19.805 43.8285 17.3342 47.0052 16.54C44.005 17.8637 41.6224 20.158 39.3281 22.3641Z" fill="black"/>
<path d="M39.7695 23.1596C41.7109 21.3948 43.9169 19.7182 46.2112 18.3945C44.1816 20.2476 42.0638 21.836 39.7695 23.1596Z" fill="black"/>
<path d="M40.2109 23.9523C43.2994 21.8345 46.8291 20.4226 49.7411 18.04C48.594 19.5402 46.8291 20.4226 45.2408 21.3932C43.5642 22.2757 41.9758 23.2463 40.2109 23.9523Z" fill="black"/>
<path d="M40.3867 24.3942C42.8575 23.247 45.4166 22.5411 47.7991 21.3057C45.7695 23.0705 43.034 23.8647 40.3867 24.3942Z" fill="black"/>
<path d="M40.916 25.7181C44.0927 24.8357 47.446 24.7475 50.4463 23.4238C49.8286 24.0415 49.0344 24.218 48.2402 24.4827C45.8576 25.1887 43.3868 25.5417 40.916 25.7181Z" fill="black"/>
<path d="M41.1797 26.9532C43.5622 26.512 46.033 26.4238 48.4155 25.8943C48.7685 25.8943 49.1215 25.7179 49.3862 25.4531C48.945 25.9826 48.1508 26.1591 47.5331 26.3356C45.5035 26.7768 43.3857 26.9533 41.2679 26.865L41.1797 26.9532Z" fill="black"/>
<path d="M41.3555 28.0124C44.8852 27.5712 48.4149 27.6594 51.9446 26.8652C48.5914 28.1889 44.8852 28.1006 41.3555 28.0124Z" fill="black"/>
<path d="M41.3555 28.8057C43.5615 28.6292 45.8558 29.1587 47.9737 28.8057C45.9441 29.7764 43.4733 29.1587 41.3555 28.8057Z" fill="black"/>
<path d="M41.2676 30.3945C43.9149 30.8357 46.5621 31.5417 49.2976 31.8064C46.5621 32.1594 43.8266 31.3652 41.2676 30.3945Z" fill="black"/>
<path d="M41.1797 31.4531C43.0328 31.8943 44.7093 32.6003 46.6507 32.7768C44.7976 33.1297 42.8563 32.4238 41.1797 31.4531Z" fill="black"/>
<path d="M40.8281 32.4238C44.2696 33.6592 47.7111 34.7181 51.329 35.0711C47.7111 35.3358 44.0049 34.1887 40.8281 32.4238Z" fill="black"/>
<path d="M40.5625 33.1299C42.6803 34.277 44.7099 35.4242 47.0042 36.0419C44.6216 36.0419 42.3274 34.7182 40.5625 33.1299Z" fill="black"/>
<path d="M39.8555 34.542C41.885 36.8363 44.4441 38.6012 47.4443 39.2188C44.3558 39.2188 41.4438 37.1893 39.8555 34.542Z" fill="black"/>
<path d="M39.3281 35.4248C40.9165 37.0132 42.5049 38.8663 44.6227 39.7487C42.3284 39.3075 40.4753 37.3661 39.3281 35.4248Z" fill="black"/>
<path d="M38.7988 36.042C41.3579 38.7775 43.9169 41.6013 47.3584 43.2779C43.6522 42.219 40.8284 39.1305 38.7988 36.042Z" fill="black"/>
<path d="M38.0039 37.0127C40.7394 39.307 43.5632 41.7778 45.2398 45.0428C43.122 42.1308 40.3865 39.7482 38.0039 37.0127Z" fill="black"/>
<path d="M33.5918 40.1016C35.4449 42.1311 37.0332 44.6019 37.8274 47.2492C36.5038 44.7784 35.0037 42.4841 33.5918 40.1016Z" fill="black"/>
<path d="M34.4766 39.6602C35.8884 40.9838 37.3003 42.5722 37.8298 44.4252C36.7709 42.7486 35.5355 41.3368 34.4766 39.6602Z" fill="black"/>
<path d="M35.707 38.9541C38.0013 41.4249 40.1191 44.4251 40.6486 47.8666C39.5897 44.6899 37.5601 41.7779 35.707 38.9541Z" fill="black"/>
<path d="M36.502 38.3359C38.355 39.8361 40.1199 41.7774 40.9141 44.1599C39.5904 42.0421 38.0021 40.2773 36.502 38.3359Z" fill="black"/>
<path d="M28.736 41.3369C28.9125 43.2782 28.736 45.1313 29.0007 47.0727C28.2065 45.3078 28.383 43.19 28.736 41.3369Z" fill="black"/>
<path d="M29.4453 41.3369C30.1513 44.5136 30.416 47.7786 31.1219 50.9553C31.2102 51.3966 31.2984 51.926 31.6514 52.1907C30.9454 51.573 30.8572 50.5141 30.5925 49.6317C29.9748 46.8962 29.6218 44.0724 29.5336 41.3369H29.4453Z" fill="black"/>
<path d="M30.4121 41.248C31.118 43.7188 31.5592 46.2779 31.6475 48.8369C30.9415 46.3661 30.5886 43.8071 30.4121 41.248Z" fill="black"/>
<path d="M31.207 40.9834C32.2659 43.7189 33.1484 46.6309 33.0602 49.6312C32.5307 46.7192 31.7365 43.8954 31.207 40.9834Z" fill="black"/>
<path d="M32.1797 40.7188C33.7681 43.6308 35.2681 46.984 35.1799 50.4254C34.6504 47.0722 33.3268 43.8955 32.1797 40.7188Z" fill="black"/>
<path d="M23.0904 39.8369C21.2373 43.2784 19.3841 46.8081 19.0312 50.6907C18.8547 46.7198 20.7078 42.9254 23.0904 39.8369Z" fill="black"/>
<path d="M23.9727 40.2783C23.0021 42.9256 21.9431 45.5729 20.5312 48.0437C21.4137 45.3081 22.5608 42.6609 23.9727 40.2783Z" fill="black"/>
<path d="M25.0323 40.7188C24.0616 43.8955 22.8263 46.984 21.3262 49.9842C22.2968 46.8075 23.5322 43.719 25.0323 40.7188Z" fill="black"/>
<path d="M25.915 40.9834C25.4738 43.3659 24.6797 45.6602 23.709 47.7781C24.1502 45.3955 24.9444 43.1012 25.915 40.9834Z" fill="black"/>
<path d="M26.886 41.248C26.7095 45.4837 25.5624 49.9841 22.6504 53.1608C25.0329 49.6311 26.0918 45.3954 26.886 41.248Z" fill="black"/>
<path d="M18.768 36.042C15.6795 37.7186 12.591 39.8364 10.8262 42.9249C12.1498 39.4835 15.4148 37.1009 18.768 36.042Z" fill="black"/>
<path d="M19.295 36.6602C17.3537 38.2485 15.2359 39.5722 13.3828 41.337C14.7947 39.2192 17.0007 37.7191 19.295 36.6602Z" fill="black"/>
<path d="M19.8266 37.1895C17.444 40.1897 14.7968 42.9252 11.8848 45.396C14.3556 42.484 17.0028 39.7485 19.8266 37.1895Z" fill="black"/>
<path d="M20.3558 37.7188C19.2087 39.7483 17.7968 41.8662 15.8555 43.278C17.3556 41.5132 18.6792 39.4836 20.3558 37.7188Z" fill="black"/>
<path d="M20.7983 38.1592C19.5629 41.0712 17.9745 44.3362 15.0625 45.9245C17.6215 43.8949 19.1217 40.8947 20.7983 38.1592Z" fill="black"/>
<path d="M16.7392 31.4537C13.5624 31.4537 10.121 30.9243 7.20898 32.6009C9.76802 30.3948 13.6507 30.836 16.7392 31.4537Z" fill="black"/>
<path d="M16.9147 32.1595C13.5615 32.689 10.2083 33.1302 7.03152 34.2774C6.59031 34.4538 6.06082 34.7186 5.61961 34.895C5.44312 35.0715 5.17844 35.1598 5.00195 35.3363C6.50208 33.7479 8.70811 33.3067 10.6494 32.7772C12.679 32.336 14.7969 32.0713 16.9147 32.0713V32.1595Z" fill="black"/>
<path d="M17.0017 33.1299C14.1779 34.1006 11.2659 34.7183 8.26562 35.1595C11.0894 34.1888 14.0014 33.5711 17.0017 33.1299Z" fill="black"/>
<path d="M17.531 34.0996C14.1778 35.335 10.7364 36.3057 7.29492 37.0116C10.6481 35.7762 14.0896 34.8055 17.531 34.0996Z" fill="black"/>
<path d="M17.7959 34.6289C14.8839 36.3055 11.7071 37.7174 8.26562 37.8939C11.5306 37.0997 14.6191 35.7761 17.7959 34.6289Z" fill="black"/>
<path d="M16.56 29.601C13.1185 29.601 9.76533 29.248 6.41211 29.601C9.67708 28.7185 13.295 29.0715 16.56 29.601Z" fill="black"/>
<path d="M16.5608 28.5414C12.3251 28.2766 8.08951 27.5707 3.76562 28.1001C7.91302 27.0412 12.4134 27.7472 16.5608 28.5414Z" fill="black"/>
<path d="M16.6475 27.7472C12.9413 27.4825 9.23513 27.0413 5.61719 26.2471C9.32337 26.5118 13.0296 26.953 16.6475 27.7472Z" fill="black"/>
<path d="M16.7377 26.7771C13.4728 25.6299 10.0313 24.8358 6.58984 24.6593C10.1195 24.3063 13.6492 25.1887 16.7377 26.7771Z" fill="black"/>
<path d="M17.3562 24.5715C15.8561 23.6009 14.0912 22.7184 12.5029 21.9243C10.8263 21.1301 9.23786 20.1594 7.38477 19.9829C9.23786 19.8064 11.0027 20.7771 12.6793 21.5713C14.2677 22.4537 15.9443 23.3361 17.3562 24.5715Z" fill="black"/>
<path d="M17.7974 23.6888C15.503 22.2769 13.297 20.6003 10.8262 19.4531C13.4734 20.0708 15.856 21.8357 17.7974 23.6888Z" fill="black"/>
<path d="M18.2371 22.8045C15.0603 20.5984 12.0601 17.8629 8.26562 16.9805C12.1483 17.3334 15.4133 20.2454 18.2371 22.8045Z" fill="black"/>
<path d="M18.767 21.9234C16.5609 20.2468 14.5313 18.2172 12.0605 16.8936C14.7961 17.6877 16.9139 19.8056 18.767 21.9234Z" fill="black"/>
<path d="M20.2671 20.2466C17.4433 17.3346 14.6195 14.0696 11.0898 12.04C14.9725 13.6284 17.7963 16.9816 20.2671 20.2466Z" fill="black"/>
<path d="M20.9737 19.5406C18.6794 17.2463 16.738 14.4225 14.3555 12.3047C17.1792 13.9813 19.2088 16.8933 20.9737 19.5406Z" fill="black"/>
<path d="M21.678 18.9232C19.8249 15.8348 17.9718 12.4815 15.2363 10.0107C16.9129 10.8932 17.9718 12.5698 19.0307 13.9817C20.0014 15.57 21.0603 17.0701 21.678 18.9232Z" fill="black"/>
<path d="M22.5641 18.3938C21.2404 15.923 20.2698 13.011 18.2402 10.9814C20.6228 12.5698 21.6817 15.6583 22.5641 18.3938Z" fill="black"/>
<path d="M23.5332 17.7777C21.6801 13.9833 20.3564 9.65943 17.1797 6.65918C19.0328 7.80633 20.1799 9.83591 21.1506 11.7772C22.1213 13.7186 22.9155 15.7482 23.5332 17.866V17.7777Z" fill="black"/>
<path d="M25.208 17.1574C24.4138 12.8335 23.6196 8.33314 21.0605 4.62695C24.149 7.89193 24.9432 12.7453 25.208 17.1574Z" fill="black"/>
<path d="M26.2669 16.8931C25.561 13.0105 25.561 8.9513 23.9727 5.24512C25.2081 6.83348 25.4728 8.9513 25.8257 10.8926C26.0905 12.834 26.2669 14.8636 26.2669 16.8931Z" fill="black"/>
<path d="M27.1477 16.7171C26.883 13.5403 27.3242 10.1871 26.3535 7.09863C27.2359 8.51051 27.236 10.2754 27.4124 11.8637C27.4124 13.4521 27.4124 15.1287 27.1477 16.7171Z" fill="black"/>
<path d="M28.3869 16.5406C28.2987 13.2757 28.4752 10.0989 28.3869 6.83395C28.3869 5.77504 28.3869 4.62789 27.8574 3.65723C28.4751 4.53965 28.5634 5.6868 28.7398 6.74571C29.0046 10.0107 28.7399 13.2757 28.4751 16.4524L28.3869 16.5406Z" fill="black"/>
<path d="M30.8555 16.7166C31.032 13.6281 31.5614 10.5397 31.6496 7.45117C32.0908 10.5397 31.5614 13.7164 30.8555 16.7166Z" fill="black"/>
<path d="M31.916 16.8941C32.4455 13.7173 33.1514 10.6289 33.6809 7.45213C33.8574 6.39322 34.0338 5.3343 33.8573 4.27539C34.2103 5.3343 34.122 6.39322 34.0338 7.45213C33.6808 10.6289 32.9749 13.8056 31.916 16.8941Z" fill="black"/>
<path d="M33.0605 17.2456C34.2077 14.2453 35.4431 11.2451 35.7078 8.06836C36.0608 11.3333 34.7372 14.5101 33.0605 17.2456Z" fill="black"/>
<path d="M37.3867 10.8936C38.0927 8.68752 39.681 6.65794 39.7693 4.27539C40.034 4.80485 39.9458 5.51079 39.7693 6.04024C39.3281 7.80509 38.4456 9.39346 37.3867 10.8936Z" fill="black"/>
<path d="M37.916 10.0993C38.7984 8.33443 40.1221 6.56957 41.9752 5.77539C40.475 7.09903 39.1514 8.59916 37.916 10.0993Z" fill="black"/>
</svg>
