<svg width="56" height="26" viewBox="0 0 56 26" fill="none" xmlns="http://www.w3.org/2000/svg">
<path d="M50.5877 24.744C42.0282 25.5381 33.9098 21.479 25.968 18.3023C17.9379 15.2138 8.40776 13.1842 1.17188 17.7728C5.584 11.5076 10.8785 5.59532 17.8497 2.50684C24.8208 -0.581652 33.8216 -0.14044 39.2926 5.15411C42.1164 7.88963 43.793 11.6841 45.9991 14.9491C48.2051 18.214 51.3818 21.3908 55.3528 21.5673L50.5877 24.744Z" fill="#00D675" stroke="#111114" stroke-width="0.844884" stroke-linecap="round" stroke-linejoin="round"/>
<path d="M46.528 20.6836C45.0278 22.6249 41.7629 22.8897 39.998 21.3013C42.2924 21.919 44.4101 21.7425 46.528 20.6836Z" fill="#111114"/>
<path d="M40.4385 17.3321C38.2324 17.8616 36.1146 18.1263 33.8203 18.2145C35.8499 17.1556 38.2324 16.8027 40.4385 17.3321Z" fill="#111114"/>
<path d="M35.9392 13.5372C33.5567 13.9784 31.4388 14.4196 29.1445 14.9491C30.9976 13.449 33.6449 12.9195 35.9392 13.5372Z" fill="#111114"/>
<path d="M29.497 10.5361C27.8204 12.301 25.7025 13.6246 23.4082 14.3306C25.2613 12.7422 27.2909 11.5068 29.497 10.5361Z" fill="#111114"/>
<path d="M24.9103 9.21387C23.5867 10.9787 21.9101 12.4788 19.9688 13.4495C21.2924 11.6846 22.969 10.2728 24.9103 9.21387Z" fill="#111114"/>
<path d="M19.9674 9.91863C17.4084 10.6246 15.0258 11.2423 12.4668 11.9482C14.5846 10.3598 17.3201 9.65391 19.9674 9.91863Z" fill="#111114"/>
<path d="M20.5863 9.12504C18.998 8.86031 17.6743 8.50735 16.0859 7.97789C17.6743 7.53668 19.4392 7.97788 20.5863 9.12504Z" fill="#111114"/>
<path d="M24.3786 8.77208C22.9667 7.27196 21.6431 6.03653 20.0547 4.71289C22.0843 5.1541 23.8491 6.83074 24.3786 8.77208Z" fill="#111114"/>
<path d="M29.7625 10.0959C28.5271 8.4193 27.3799 6.91915 26.1445 5.1543C28.0859 6.03672 29.4977 7.97809 29.7625 10.0959Z" fill="#111114"/>
<path d="M33.1146 11.1544C32.2322 9.21304 31.5263 7.53641 30.8203 5.50684C32.3204 6.91872 33.2028 9.03656 33.1146 11.1544Z" fill="#111114"/>
<path d="M36.6454 13.7131C36.3806 11.0658 35.9395 8.68328 34.9688 6.21249L35.2335 6.03599C35.5865 7.00666 35.5865 7.00667 34.9688 6.21249C34.8805 6.036 35.057 5.85951 35.2335 6.03599C36.7336 8.15381 37.3513 11.0658 36.6454 13.7131Z" fill="#111114"/>
<path d="M42.0285 17.6843C41.1461 14.5959 40.2636 11.7721 39.293 8.68359C41.1461 11.2426 42.1168 14.5076 42.0285 17.6843Z" fill="#111114"/>
<path d="M49.3531 21.3899C44.8527 21.3899 42.029 17.3308 38.9405 14.6835C33.1165 10.7126 25.7924 10.889 19.0859 9.5654V9.47718C28.6161 8.85948 35.1461 10.8891 42.5584 16.8896C44.6762 18.6544 46.7058 20.5075 49.4413 21.3017V21.3899H49.3531Z" fill="#111114"/>
</svg>
