<svg width="37" height="87" viewBox="0 0 37 87" fill="none" xmlns="http://www.w3.org/2000/svg">
<path d="M29.0888 79.6854C29.0888 79.6854 -6.20819 49.5946 2.08661 0.884766C2.08661 0.884766 20.441 65.0371 35.8835 86.6565L29.0888 79.6854Z" fill="#00D675" stroke="#111114" stroke-width="0.70407" stroke-linecap="round" stroke-linejoin="round"/>
<path d="M29.9726 78.539C15.1478 61.2434 5.88239 39.3593 3.58808 16.7692C3.23511 13.5042 3.05859 10.3275 3.05859 7.0625C4.1175 32.9176 13.7359 58.3314 29.9726 78.539Z" fill="#111114"/>
<path d="M17.8809 65.7436C19.4692 66.0965 20.8811 66.6259 22.3812 67.2436L22.0282 67.4201C22.4694 66.273 23.1754 65.2141 24.2343 64.4199C23.5283 65.3906 22.9989 66.4495 22.5577 67.5966C22.5577 67.7731 22.3812 67.8614 22.2047 67.7731C20.7046 67.1554 19.2927 66.5377 17.9691 65.7436H17.8809Z" fill="#111114"/>
<path d="M13.1152 59.1247C15.0566 59.2129 16.9979 59.8306 18.6745 60.713L18.3216 60.8895C18.9393 59.3894 19.9099 57.9775 21.2336 57.0068C20.2629 58.2422 19.4687 59.6541 18.851 61.066C18.851 61.2425 18.6745 61.2425 18.498 61.2425C16.8214 60.36 14.9683 59.7424 13.1152 59.1247Z" fill="#111114"/>
<path d="M9.23633 52.33C11.4424 52.9477 13.3838 54.0066 15.2369 55.3302H14.8839C15.8545 54.0948 16.8252 52.8594 17.9724 51.624C17.1782 53.0359 16.2957 54.3595 15.4133 55.6832C15.4133 55.7714 15.1486 55.8597 15.0604 55.6832C13.2955 54.4478 11.3542 53.3006 9.41282 52.2417L9.23633 52.33Z" fill="#111114"/>
<path d="M5.26367 45.5354C7.64622 45.8001 9.85229 46.5061 12.0584 47.3885L11.7054 47.4767C12.8526 45.8884 14.2644 44.3882 15.9411 43.3293V43.4176C15.7646 43.1529 15.6763 42.7999 15.4998 42.5352C15.5881 42.7999 16.2058 43.2411 16.0293 43.4176C14.6174 44.653 13.2938 46.0649 12.2349 47.7415C12.2349 47.8297 11.9701 47.918 11.8819 47.8297C11.3524 47.6532 10.823 47.3885 10.2935 47.212C8.70514 46.5943 6.94031 46.0649 5.35195 45.5354H5.26367Z" fill="#111114"/>
<path d="M3.93783 37.8588C5.79092 37.947 7.5558 38.5648 9.14416 39.5354H8.79117C10.203 38.4765 11.6149 37.4176 13.2033 36.5352C11.9679 37.7706 10.556 38.9177 9.14416 40.0649C9.05592 40.0649 8.87941 40.0649 8.79117 40.0649C7.29105 39.1824 5.61446 38.4765 3.84961 37.947L3.93783 37.8588Z" fill="#111114"/>
<path d="M1.38086 28.7695C3.14571 29.8284 4.91053 31.0638 6.58714 32.2992C6.94011 32.6522 7.38136 32.8287 7.73433 32.6522C8.88148 31.7698 10.0286 30.5344 11.1758 29.652C10.5581 30.4461 9.85213 31.2403 9.14619 32.0345C8.61674 32.6522 7.91077 33.6229 7.02835 33.1817C4.99877 31.9463 3.23393 30.3579 1.46908 28.7695H1.38086Z" fill="#111114"/>
<path d="M27.1471 75.4494C26.5294 74.214 26.3529 72.1845 27.6766 71.4785C26.9706 72.8022 27.3236 74.0375 27.1471 75.4494Z" fill="#111114"/>
</svg>
