<svg width="28" height="55" viewBox="0 0 28 55" fill="none" xmlns="http://www.w3.org/2000/svg">
<path d="M0.734375 49.5334C0.734375 40.9739 5.67595 33.2968 9.64686 25.6197C13.5295 17.9426 16.5298 8.6771 12.7354 1C18.5594 6.02982 23.8539 11.8538 26.2365 19.178C28.619 26.4138 27.2954 35.3263 21.4714 40.2679C18.4711 42.827 14.5002 44.0624 11.0587 45.9154C7.52903 47.7685 4.08758 50.6805 3.46989 54.5632L0.734375 49.5334Z" fill="#00D675" stroke="#111114" stroke-width="0.844884" stroke-linecap="round" stroke-linejoin="round"/>
<path d="M5.23379 46.0039C3.46894 44.3273 3.46894 41.0624 5.23379 39.3857C4.43961 41.5918 4.35137 43.7096 5.23379 46.0039Z" fill="#111114"/>
<path d="M9.20385 40.268C8.93912 37.9737 8.85088 35.8558 9.02737 33.5615C9.90979 35.6793 9.90979 38.0619 9.20385 40.268Z" fill="#111114"/>
<path d="M13.4426 36.1202C13.2661 33.7377 13.0014 31.6199 12.6484 29.2373C13.9721 31.2669 14.2368 33.9142 13.4426 36.1202Z" fill="#111114"/>
<path d="M17.0595 30.0306C15.4712 28.1775 14.324 25.9714 13.8828 23.5889C15.2065 25.6184 16.2654 27.7363 17.0595 30.0306Z" fill="#111114"/>
<path d="M18.9132 25.6191C17.2366 24.119 16.0012 22.2659 15.207 20.2363C16.8836 21.7365 18.119 23.5895 18.9132 25.6191Z" fill="#111114"/>
<path d="M18.6475 20.5892C18.2063 17.9419 17.7651 15.5594 17.4121 12.9121C18.7357 15.2064 19.177 17.9419 18.6475 20.5892Z" fill="#111114"/>
<path d="M19.3516 21.2956C19.7928 19.7072 20.234 18.3836 20.9399 16.9717C21.2929 18.56 20.587 20.3249 19.3516 21.2956Z" fill="#111114"/>
<path d="M19.3516 25.1776C21.0282 23.854 22.3518 22.7068 23.8519 21.2949C23.2342 23.2363 21.3811 24.8246 19.3516 25.1776Z" fill="#111114"/>
<path d="M17.4121 30.3834C19.2652 29.3245 20.8536 28.3538 22.6184 27.2949C21.5595 29.0598 19.4417 30.2952 17.4121 30.3834Z" fill="#111114"/>
<path d="M16.0879 33.5614C18.1175 32.8554 19.8823 32.326 21.9119 31.8848C20.3235 33.2966 18.1175 33.9143 16.0879 33.5614Z" fill="#111114"/>
<path d="M13.1758 36.826C15.8231 36.826 18.2056 36.6495 20.7646 35.9435L20.8529 36.2083C19.8822 36.473 19.8822 36.473 20.7646 35.9435C20.9411 35.8553 21.1176 36.12 20.9411 36.2083C18.6468 37.5319 15.6466 37.7966 13.1758 36.826Z" fill="#111114"/>
<path d="M8.76367 41.7678C11.8522 41.2383 14.8524 40.6206 17.9409 40.0029C15.2054 41.5913 11.8522 42.209 8.76367 41.7678Z" fill="#111114"/>
<path d="M4.26367 48.7404C4.70488 44.2401 9.02875 41.8575 11.9408 39.0337C16.4411 33.6509 17.0588 26.3268 19.0884 19.7969H19.1767C18.9119 29.3271 16.1764 35.6805 9.38173 42.387C7.44039 44.3283 5.32257 46.0931 4.35191 48.7404H4.26367Z" fill="#111114"/>
</svg>
