<svg width="24" height="24" viewBox="0 0 24 24" fill="none" xmlns="http://www.w3.org/2000/svg">
<path d="M11.0769 1.21625C11.4187 0.395585 12.5813 0.395584 12.9231 1.21624L13.6207 2.89093C13.8729 3.4964 14.6298 3.69923 15.151 3.30098L16.5924 2.19943C17.2988 1.65963 18.3056 2.24093 18.1913 3.12256L17.9581 4.92165C17.8738 5.5721 18.4279 6.12625 19.0783 6.04192L20.8774 5.80867C21.7591 5.69437 22.3404 6.70121 21.8006 7.40757L20.699 8.84901C20.3008 9.37015 20.5036 10.1271 21.1091 10.3793L22.7838 11.0769C23.6044 11.4187 23.6044 12.5813 22.7838 12.9231L21.1091 13.6207C20.5036 13.8729 20.3008 14.6298 20.699 15.151L21.8006 16.5924C22.3404 17.2988 21.7591 18.3056 20.8774 18.1913L19.0784 17.9581C18.4279 17.8738 17.8737 18.4279 17.9581 19.0783L18.1913 20.8774C18.3056 21.7591 17.2988 22.3404 16.5924 21.8006L15.151 20.699C14.6299 20.3008 13.8729 20.5036 13.6207 21.1091L12.9231 22.7838C12.5813 23.6044 11.4187 23.6044 11.0769 22.7838L10.3793 21.1091C10.1271 20.5036 9.37015 20.3008 8.84901 20.699L7.40757 21.8006C6.70121 22.3404 5.69437 21.7591 5.80867 20.8774L6.04192 19.0784C6.12625 18.4279 5.5721 17.8737 4.92165 17.9581L3.12256 18.1913C2.24093 18.3056 1.65963 17.2988 2.19943 16.5924L3.30098 15.151C3.69923 14.6299 3.4964 13.8729 2.89093 13.6207L1.21625 12.9231C0.395585 12.5813 0.395584 11.4187 1.21624 11.0769L2.89093 10.3793C3.4964 10.1271 3.69923 9.37015 3.30098 8.84901L2.19943 7.40757C1.65963 6.70121 2.24093 5.69437 3.12256 5.80867L4.92165 6.04192C5.5721 6.12625 6.12625 5.5721 6.04192 4.92165L5.80867 3.12256C5.69437 2.24093 6.70121 1.65963 7.40757 2.19943L8.84901 3.30098C9.37015 3.69923 10.1271 3.4964 10.3793 2.89093L11.0769 1.21625Z" fill="#fff"/>
</svg>
