
<svg width="227" height="64" viewBox="0 0 227 64" fill="none" xmlns="http://www.w3.org/2000/svg">
<path d="M34.6 62.66C36.76 62.66 39.08 62.24 41.56 61.4C44.08 60.56 46.66 59.38 49.3 57.86C51.98 56.34 54.58 54.56 57.1 52.52C59.66 50.44 62.04 48.18 64.24 45.74L65.14 44.72H65.62L64.72 45.74C62.44 48.3 60 50.64 57.4 52.76C54.84 54.88 52.22 56.7 49.54 58.22C46.86 59.78 44.24 60.98 41.68 61.82C39.12 62.66 36.76 63.08 34.6 63.08C31.4 63.08 28.6 62.5 26.2 61.34C23.84 60.18 22 58.54 20.68 56.42C19.36 54.34 18.7 51.88 18.7 49.04C18.7 46.08 19.42 43.24 20.86 40.52C22.3 37.76 24.26 35.3 26.74 33.14C29.26 30.94 32.1 29.22 35.26 27.98C38.42 26.74 41.7 26.12 45.1 26.12C46.86 26.12 48.22 26.3 49.18 26.66C50.14 26.98 50.62 27.46 50.62 28.1C50.62 28.5 50.4 28.86 49.96 29.18C49.52 29.46 48.96 29.6 48.28 29.6C46.68 29.6 45.36 28.94 44.32 27.62C43.32 26.3 42.82 24.6 42.82 22.52C42.82 20.28 43.42 18.12 44.62 16.04C45.82 13.92 47.44 12.04 49.48 10.4C51.52 8.76 53.82 7.46 56.38 6.5C58.94 5.54 61.62 5.06 64.42 5.06C71.02 5.06 74.32 8.06 74.32 14.06C74.32 16.06 73.9 18.22 73.06 20.54C72.26 22.86 71.16 25.18 69.76 27.5C68.36 29.78 66.76 31.98 64.96 34.1C63.16 36.18 61.28 38.04 59.32 39.68C57.36 41.32 55.4 42.62 53.44 43.58C51.48 44.54 49.64 45.02 47.92 45.02C46.24 45.02 44.9 44.44 43.9 43.28C42.9 42.12 42.4 40.56 42.4 38.6C42.4 36.88 42.86 34.98 43.78 32.9C44.7 30.82 45.9 28.74 47.38 26.66C48.9 24.58 50.56 22.68 52.36 20.96C54.16 19.24 55.96 17.86 57.76 16.82C59.6 15.78 61.26 15.26 62.74 15.26C64.38 15.26 65.2 16.2 65.2 18.08C65.2 20 64.52 22.04 63.16 24.2C61.84 26.32 60.02 28.44 57.7 30.56C55.42 32.68 52.8 34.7 49.84 36.62C46.88 38.54 43.74 40.24 40.42 41.72C37.1 43.2 33.78 44.38 30.46 45.26C27.14 46.1 23.98 46.52 20.98 46.52C17.06 46.52 13.54 45.9 10.42 44.66C7.3 43.42 4.86 41.74 3.1 39.62C1.3 37.46 0.399999 35 0.399999 32.24C0.399999 29.84 1.06 27.64 2.38 25.64C3.7 23.64 5.58 21.9 8.02 20.42C10.42 18.9 13.22 17.74 16.42 16.94C19.66 16.1 23.22 15.68 27.1 15.68C29.78 15.68 32.58 15.92 35.5 16.4C38.46 16.84 41.38 17.48 44.26 18.32C47.14 19.12 49.84 20.06 52.36 21.14C54.88 22.22 57.1 23.4 59.02 24.68C60.98 25.96 62.5 27.28 63.58 28.64L63.28 28.88C62.36 27.68 60.98 26.46 59.14 25.22C57.34 23.98 55.2 22.82 52.72 21.74C50.28 20.66 47.64 19.7 44.8 18.86C41.96 17.98 39.04 17.3 36.04 16.82C33.04 16.3 30.08 16.04 27.16 16.04C23.32 16.04 19.8 16.44 16.6 17.24C13.4 18.04 10.62 19.18 8.26 20.66C5.9 22.14 4.08 23.88 2.8 25.88C1.48 27.84 0.819999 30 0.819999 32.36C0.819999 34.96 1.7 37.3 3.46 39.38C5.22 41.46 7.62 43.1 10.66 44.3C13.7 45.5 17.14 46.1 20.98 46.1C23.94 46.1 27.08 45.68 30.4 44.84C33.72 44 37 42.86 40.24 41.42C43.52 39.94 46.62 38.26 49.54 36.38C52.5 34.5 55.12 32.52 57.4 30.44C59.68 28.32 61.48 26.22 62.8 24.14C64.12 22.02 64.78 20 64.78 18.08C64.78 16.44 64.1 15.62 62.74 15.62C61.26 15.62 59.64 16.14 57.88 17.18C56.12 18.22 54.34 19.6 52.54 21.32C50.78 23 49.16 24.86 47.68 26.9C46.2 28.94 45 31 44.08 33.08C43.2 35.12 42.76 36.98 42.76 38.66C42.76 40.46 43.24 41.92 44.2 43.04C45.16 44.12 46.38 44.66 47.86 44.66C49.58 44.66 51.4 44.2 53.32 43.28C55.24 42.32 57.18 41.02 59.14 39.38C61.1 37.74 62.96 35.9 64.72 33.86C66.52 31.78 68.1 29.6 69.46 27.32C70.86 25 71.96 22.72 72.76 20.48C73.56 18.2 73.96 16.06 73.96 14.06C73.96 11.22 73.22 9.08 71.74 7.64C70.3 6.16 68.16 5.42 65.32 5.42C62.8 5.42 60.3 5.98 57.82 7.1C55.34 8.18 53.08 9.62 51.04 11.42C49.04 13.22 47.42 15.22 46.18 17.42C44.94 19.58 44.32 21.78 44.32 24.02C44.32 27.5 45.66 29.24 48.34 29.24C48.9 29.24 49.36 29.14 49.72 28.94C50.08 28.7 50.26 28.44 50.26 28.16C50.26 27.68 49.82 27.28 48.94 26.96C48.1 26.64 47.02 26.48 45.7 26.48C43.42 26.48 41.18 26.96 38.98 27.92C36.78 28.84 34.7 30.12 32.74 31.76C30.78 33.4 29.06 35.3 27.58 37.46C26.1 39.62 24.92 41.94 24.04 44.42C23.2 46.86 22.78 49.34 22.78 51.86C22.78 59.06 26.72 62.66 34.6 62.66ZM67.4167 44.72H66.9367L67.5367 44.06C69.3767 42.02 71.1167 40.4 72.7567 39.2C74.4367 37.96 75.7767 37.34 76.7767 37.34C77.1367 37.34 77.4367 37.48 77.6767 37.76C77.9567 38 78.0967 38.34 78.0967 38.78C78.0967 39.7 77.7167 40.74 76.9567 41.9C76.1967 43.02 74.8767 44.54 72.9967 46.46H73.6567L72.3967 48.2L68.0767 53H63.8767C65.4367 51.88 67.0167 50.6 68.6167 49.16C70.2167 47.72 71.6967 46.28 73.0567 44.84C74.4167 43.4 75.5167 42.12 76.3567 41C77.1967 39.84 77.6167 39 77.6167 38.48C77.6167 37.96 77.3167 37.7 76.7167 37.7C76.1967 37.7 75.4367 37.98 74.4367 38.54C73.4767 39.1 72.4167 39.88 71.2567 40.88C70.1367 41.84 69.0567 42.9 68.0167 44.06L67.4167 44.72ZM78.0367 53.42C77.5167 53.42 77.0767 53.22 76.7167 52.82C76.3567 52.38 76.1767 51.88 76.1767 51.32C76.1767 50.44 76.5167 49.52 77.1967 48.56C77.8767 47.56 78.7167 46.58 79.7167 45.62C80.7567 44.66 81.7767 43.74 82.7767 42.86C83.7767 41.98 84.5967 41.18 85.2367 40.46C85.9167 39.74 86.2567 39.12 86.2567 38.6C86.2567 38.12 85.9767 37.88 85.4167 37.88C84.8167 37.88 83.9967 38.2 82.9567 38.84C81.9567 39.44 80.8367 40.26 79.5967 41.3C78.3567 42.3 77.1167 43.42 75.8767 44.66C74.6367 45.86 73.4767 47.04 72.3967 48.2H71.8567C72.9367 46.96 74.1167 45.74 75.3967 44.54C76.6767 43.3 77.9567 42.16 79.2367 41.12C80.5167 40.04 81.6967 39.18 82.7767 38.54C83.8567 37.86 84.7567 37.52 85.4767 37.52C85.9167 37.52 86.3367 37.68 86.7367 38C87.1767 38.32 87.3967 38.82 87.3967 39.5C87.3967 40.42 87.0367 41.36 86.3167 42.32C85.5967 43.24 84.7167 44.16 83.6767 45.08C82.6767 46 81.6567 46.9 80.6167 47.78C79.6167 48.62 78.7567 49.42 78.0367 50.18C77.3567 50.94 77.0167 51.62 77.0167 52.22C77.0167 52.5 77.1167 52.72 77.3167 52.88C77.5167 53.04 77.7567 53.12 78.0367 53.12C78.6767 53.12 79.5967 52.76 80.7967 52.04C81.9967 51.32 83.2967 50.36 84.6967 49.16C86.0967 47.96 87.4167 46.68 88.6567 45.32L89.2567 44.72H89.7367L89.2567 45.2C87.9367 46.72 86.5367 48.12 85.0567 49.4C83.5767 50.64 82.2167 51.62 80.9767 52.34C79.7367 53.06 78.7567 53.42 78.0367 53.42ZM93.5823 33.74V33.26H118.842V33.74H93.5823ZM93.8223 43.94C91.9023 46.06 90.5623 47.74 89.8023 48.98C89.0023 50.18 88.6023 51.2 88.6023 52.04C88.6023 52.76 88.9023 53.12 89.5023 53.12C90.1023 53.12 90.8023 52.88 91.6023 52.4C92.4023 51.92 93.3823 51.12 94.5423 50C95.7023 48.84 97.1623 47.28 98.9223 45.32L99.5223 44.72H100.002L99.5823 45.2C96.9023 48.2 94.7823 50.32 93.2223 51.56C91.7023 52.8 90.4023 53.42 89.3223 53.42C88.2023 53.42 87.6423 52.78 87.6423 51.5C87.6423 49.54 88.7623 47.28 91.0023 44.72C91.6423 43.92 92.2623 43.18 92.8623 42.5C93.4623 41.78 94.1223 41.02 94.8423 40.22C95.6023 39.38 96.5423 38.36 97.6623 37.16C98.7823 35.92 100.182 34.42 101.862 32.66C103.582 30.86 105.682 28.64 108.162 26C108.722 26 109.362 25.96 110.082 25.88C110.842 25.76 111.562 25.6 112.242 25.4C111.202 26.16 109.722 27.46 107.802 29.3C105.882 31.14 103.702 33.32 101.262 35.84C98.8623 38.36 96.3823 41.06 93.8223 43.94ZM110.898 35.78L109.938 34.76L139.938 0.559999H143.958C143.278 0.879997 142.358 1.54 141.198 2.54C140.078 3.54 138.878 4.7 137.598 6.02C136.318 7.3 135.058 8.62 133.818 9.98C132.578 11.34 131.478 12.56 130.518 13.64L110.898 35.78ZM110.898 35.78L101.058 46.46H101.718L100.398 48.2L96.1384 53H92.7784C94.1784 51.92 95.6384 50.64 97.1584 49.16C98.6384 47.64 100.018 46.14 101.298 44.66L109.938 34.76L110.898 35.78ZM106.038 53.42C105.558 53.42 105.138 53.22 104.778 52.82C104.418 52.38 104.238 51.88 104.238 51.32C104.238 50.44 104.578 49.52 105.258 48.56C105.938 47.56 106.778 46.58 107.778 45.62C108.778 44.66 109.778 43.74 110.778 42.86C111.778 41.98 112.618 41.18 113.298 40.46C113.978 39.74 114.318 39.12 114.318 38.6C114.318 38.12 114.018 37.88 113.418 37.88C112.858 37.88 112.058 38.2 111.018 38.84C110.018 39.44 108.878 40.26 107.598 41.3C106.358 42.3 105.118 43.4 103.878 44.6C102.638 45.8 101.478 47 100.398 48.2H99.9184C100.998 46.96 102.178 45.74 103.458 44.54C104.738 43.3 106.018 42.16 107.298 41.12C108.578 40.04 109.758 39.18 110.838 38.54C111.918 37.86 112.798 37.52 113.478 37.52C113.958 37.52 114.398 37.68 114.798 38C115.198 38.32 115.398 38.82 115.398 39.5C115.398 40.42 115.038 41.36 114.318 42.32C113.638 43.24 112.778 44.16 111.738 45.08C110.738 46 109.718 46.9 108.678 47.78C107.678 48.62 106.818 49.42 106.098 50.18C105.418 50.94 105.078 51.62 105.078 52.22C105.078 52.82 105.418 53.12 106.098 53.12C106.738 53.12 107.658 52.76 108.858 52.04C110.058 51.32 111.358 50.38 112.758 49.22C114.158 48.02 115.458 46.72 116.658 45.32L117.258 44.72H117.738L117.318 45.2C115.998 46.72 114.598 48.12 113.118 49.4C111.678 50.64 110.318 51.62 109.038 52.34C107.798 53.06 106.798 53.42 106.038 53.42ZM124.916 38.12H128.756C128.036 38.48 127.116 39.14 125.996 40.1C124.876 41.06 123.716 42.14 122.516 43.34C121.316 44.5 120.176 45.7 119.096 46.94C118.056 48.14 117.196 49.22 116.516 50.18C115.836 51.14 115.496 51.82 115.496 52.22C115.496 52.82 115.756 53.12 116.276 53.12C116.876 53.12 117.796 52.72 119.036 51.92C120.276 51.12 121.656 50.02 123.176 48.62C124.696 47.22 126.236 45.66 127.796 43.94H128.276C125.436 46.94 122.956 49.28 120.836 50.96C118.756 52.6 117.216 53.42 116.216 53.42C115.856 53.42 115.576 53.28 115.376 53C115.136 52.76 115.016 52.44 115.016 52.04C115.016 51.2 115.316 50.22 115.916 49.1C116.516 47.94 117.536 46.5 118.976 44.78C120.416 43.02 122.396 40.8 124.916 38.12ZM124.556 53.42C123.596 53.42 123.116 52.94 123.116 51.98C123.116 50.74 123.896 49.04 125.456 46.88C127.016 44.68 129.536 41.76 133.016 38.12H136.856C136.416 38.32 135.896 38.66 135.296 39.14C134.696 39.62 134.016 40.22 133.256 40.94C130.976 43.22 129.136 45.1 127.736 46.58C126.376 48.06 125.376 49.24 124.736 50.12C124.136 50.96 123.836 51.64 123.836 52.16C123.836 52.8 124.076 53.12 124.556 53.12C125.156 53.12 125.996 52.76 127.076 52.04C128.196 51.32 129.416 50.38 130.736 49.22C132.056 48.02 133.356 46.72 134.636 45.32L135.236 44.72H135.716L135.236 45.2C133.836 46.8 132.436 48.22 131.036 49.46C129.636 50.7 128.356 51.68 127.196 52.4C126.076 53.08 125.196 53.42 124.556 53.42ZM137.429 44.72H136.949L137.549 44.06C140.549 40.74 142.969 38.02 144.809 35.9C146.689 33.78 147.909 32.28 148.469 31.4H150.629C149.309 32.4 147.669 33.88 145.709 35.84C143.789 37.76 141.249 40.48 138.089 44L137.429 44.72ZM149.609 45.2C147.809 47.24 145.929 48.8 143.969 49.88C142.049 50.96 140.149 51.5 138.269 51.5C136.869 51.5 135.689 51.62 134.729 51.86C133.769 52.1 133.289 52.42 133.289 52.82C133.289 53.02 133.489 53.12 133.889 53.12C135.209 53.12 136.489 52.76 137.729 52.04C139.009 51.32 140.149 50.36 141.149 49.16C142.189 47.96 142.989 46.62 143.549 45.14C144.149 43.62 144.449 42.08 144.449 40.52C144.449 39.56 144.529 38.72 144.689 38C144.849 37.28 145.169 36.52 145.649 35.72C146.129 34.92 146.869 34 147.869 32.96L150.569 31.4C149.409 32.32 148.489 33.06 147.809 33.62C147.169 34.18 146.709 34.7 146.429 35.18C146.189 35.62 146.069 36.1 146.069 36.62C146.069 37.14 146.169 37.88 146.369 38.84C146.569 39.8 146.669 40.78 146.669 41.78C146.669 43.22 146.289 44.64 145.529 46.04C144.809 47.4 143.829 48.64 142.589 49.76C141.389 50.88 140.029 51.78 138.509 52.46C137.029 53.1 135.529 53.42 134.009 53.42C133.329 53.42 132.989 53.22 132.989 52.82C132.989 52.34 133.509 51.94 134.549 51.62C135.549 51.3 136.769 51.14 138.209 51.14C141.849 51.14 145.429 49.2 148.949 45.32L149.549 44.72H150.029L149.609 45.2ZM148.767 53.42C148.367 53.42 148.027 53.28 147.747 53C147.467 52.76 147.327 52.42 147.327 51.98C147.327 50.74 148.107 49.04 149.667 46.88C151.227 44.68 153.747 41.76 157.227 38.12H161.067C160.627 38.36 160.107 38.72 159.507 39.2C158.907 39.64 158.227 40.22 157.467 40.94C155.147 43.18 153.287 45.04 151.887 46.52C150.527 48 149.547 49.18 148.947 50.06C148.347 50.94 148.047 51.64 148.047 52.16C148.047 52.8 148.307 53.12 148.827 53.12C149.387 53.12 150.227 52.78 151.347 52.1C152.427 51.38 153.627 50.42 154.947 49.22C156.267 48.02 157.547 46.72 158.787 45.32L159.387 44.72H159.927L159.447 45.2C158.047 46.8 156.647 48.22 155.247 49.46C153.847 50.7 152.567 51.68 151.407 52.4C150.287 53.08 149.407 53.42 148.767 53.42ZM169.947 25.16C170.347 25.16 170.547 25.3 170.547 25.58C170.547 26.02 170.247 26.56 169.647 27.2C169.087 27.8 168.427 28.34 167.667 28.82C166.947 29.3 166.307 29.54 165.747 29.54C165.427 29.54 165.267 29.4 165.267 29.12C165.267 28.72 165.547 28.2 166.107 27.56C166.707 26.92 167.367 26.36 168.087 25.88C168.847 25.4 169.467 25.16 169.947 25.16ZM160.034 53.3C158.954 53.3 158.414 52.48 158.414 50.84C158.414 49.72 158.754 48.54 159.434 47.3C160.074 46.06 160.934 44.86 162.014 43.7C163.134 42.54 164.374 41.48 165.734 40.52C167.134 39.56 168.554 38.8 169.994 38.24C171.474 37.68 172.874 37.4 174.194 37.4C175.314 37.4 175.874 37.84 175.874 38.72C175.874 39.48 175.354 40.48 174.314 41.72C173.314 42.96 172.034 44.38 170.474 45.98C169.274 47.22 167.994 48.4 166.634 49.52C165.314 50.64 164.074 51.56 162.914 52.28C161.754 52.96 160.794 53.3 160.034 53.3ZM160.094 53C160.734 53 161.574 52.7 162.614 52.1C163.694 51.46 164.894 50.6 166.214 49.52C167.534 48.4 168.874 47.14 170.234 45.74C171.794 44.1 173.034 42.72 173.954 41.6C174.914 40.44 175.394 39.5 175.394 38.78C175.394 38.22 175.034 37.94 174.314 37.94C173.674 37.94 172.854 38.2 171.854 38.72C170.854 39.24 169.774 39.94 168.614 40.82C167.494 41.66 166.374 42.62 165.254 43.7C164.174 44.74 163.174 45.8 162.254 46.88C161.334 47.96 160.594 48.96 160.034 49.88C159.474 50.8 159.194 51.58 159.194 52.22C159.194 52.74 159.494 53 160.094 53ZM180.074 44.72L179.594 45.2C178.274 46.72 176.914 48.12 175.514 49.4C174.114 50.64 172.834 51.62 171.674 52.34C170.514 53.06 169.574 53.42 168.854 53.42C168.494 53.42 168.174 53.28 167.894 53C167.614 52.76 167.474 52.42 167.474 51.98C167.474 50.86 168.074 49.38 169.274 47.54C170.514 45.66 172.214 43.6 174.374 41.36H174.614L177.554 38.12H181.334C180.774 38.44 180.174 38.86 179.534 39.38C178.934 39.86 178.354 40.38 177.794 40.94C175.354 43.34 173.434 45.28 172.034 46.76C170.634 48.2 169.634 49.34 169.034 50.18C168.474 50.98 168.194 51.64 168.194 52.16C168.194 52.8 168.454 53.12 168.974 53.12C169.574 53.12 170.394 52.8 171.434 52.16C172.474 51.48 173.654 50.56 174.974 49.4C176.294 48.2 177.634 46.84 178.994 45.32L179.594 44.72H180.074ZM181.794 44.72H181.314L181.914 44.06C184.914 40.74 187.334 38.02 189.174 35.9C191.054 33.78 192.274 32.28 192.834 31.4H194.994C193.674 32.4 192.034 33.88 190.074 35.84C188.154 37.76 185.614 40.48 182.454 44L181.794 44.72ZM193.974 45.2C192.174 47.24 190.294 48.8 188.334 49.88C186.414 50.96 184.514 51.5 182.634 51.5C181.234 51.5 180.054 51.62 179.094 51.86C178.134 52.1 177.654 52.42 177.654 52.82C177.654 53.02 177.854 53.12 178.254 53.12C179.574 53.12 180.854 52.76 182.094 52.04C183.374 51.32 184.514 50.36 185.514 49.16C186.554 47.96 187.354 46.62 187.914 45.14C188.514 43.62 188.814 42.08 188.814 40.52C188.814 39.56 188.894 38.72 189.054 38C189.214 37.28 189.534 36.52 190.014 35.72C190.494 34.92 191.234 34 192.234 32.96L194.934 31.4C193.774 32.32 192.854 33.06 192.174 33.62C191.534 34.18 191.074 34.7 190.794 35.18C190.554 35.62 190.434 36.1 190.434 36.62C190.434 37.14 190.534 37.88 190.734 38.84C190.934 39.8 191.034 40.78 191.034 41.78C191.034 43.22 190.654 44.64 189.894 46.04C189.174 47.4 188.194 48.64 186.954 49.76C185.754 50.88 184.394 51.78 182.874 52.46C181.394 53.1 179.894 53.42 178.374 53.42C177.694 53.42 177.354 53.22 177.354 52.82C177.354 52.34 177.874 51.94 178.914 51.62C179.914 51.3 181.134 51.14 182.574 51.14C186.214 51.14 189.794 49.2 193.314 45.32L193.914 44.72H194.394L193.974 45.2ZM196.192 44.72H195.712L196.312 44.06C198.152 42.02 199.892 40.4 201.532 39.2C203.212 37.96 204.552 37.34 205.552 37.34C205.912 37.34 206.212 37.48 206.452 37.76C206.732 38 206.872 38.34 206.872 38.78C206.872 39.7 206.492 40.74 205.732 41.9C204.972 43.02 203.652 44.54 201.772 46.46H202.432L201.172 48.2L196.852 53H192.652C194.212 51.88 195.792 50.6 197.392 49.16C198.992 47.72 200.472 46.28 201.832 44.84C203.192 43.4 204.292 42.12 205.132 41C205.972 39.84 206.392 39 206.392 38.48C206.392 37.96 206.092 37.7 205.492 37.7C204.972 37.7 204.212 37.98 203.212 38.54C202.252 39.1 201.192 39.88 200.032 40.88C198.912 41.84 197.832 42.9 196.792 44.06L196.192 44.72ZM214.972 53.42C214.492 53.42 214.072 53.22 213.712 52.82C213.392 52.38 213.232 51.88 213.232 51.32C213.232 50.44 213.572 49.52 214.252 48.56C214.932 47.56 215.772 46.58 216.772 45.62C217.772 44.66 218.772 43.74 219.772 42.86C220.772 41.98 221.612 41.18 222.292 40.46C222.972 39.74 223.312 39.12 223.312 38.6C223.312 38.12 222.992 37.88 222.352 37.88C221.792 37.88 220.992 38.2 219.952 38.84C218.952 39.44 217.832 40.26 216.592 41.3C215.352 42.3 214.112 43.42 212.872 44.66C211.632 45.86 210.452 47.04 209.332 48.2H208.852C209.972 46.96 211.172 45.74 212.452 44.54C213.732 43.3 215.012 42.16 216.292 41.12C217.572 40.04 218.752 39.18 219.832 38.54C220.912 37.86 221.792 37.52 222.472 37.52C222.952 37.52 223.392 37.68 223.792 38C224.192 38.32 224.392 38.82 224.392 39.5C224.392 40.42 224.032 41.36 223.312 42.32C222.632 43.24 221.772 44.16 220.732 45.08C219.732 46 218.712 46.9 217.672 47.78C216.672 48.62 215.812 49.42 215.092 50.18C214.372 50.94 214.012 51.62 214.012 52.22C214.012 52.82 214.352 53.12 215.032 53.12C215.712 53.12 216.632 52.76 217.792 52.04C218.992 51.32 220.292 50.38 221.692 49.22C223.092 48.02 224.432 46.72 225.712 45.32L226.252 44.72H226.732L226.312 45.2C224.952 46.72 223.532 48.12 222.052 49.4C220.612 50.64 219.252 51.62 217.972 52.34C216.732 53.06 215.732 53.42 214.972 53.42ZM201.172 48.2H200.632L204.532 44.06C206.332 42.06 207.992 40.5 209.512 39.38C211.072 38.22 212.352 37.64 213.352 37.64C213.712 37.64 214.012 37.76 214.252 38C214.532 38.24 214.672 38.56 214.672 38.96C214.672 39.88 214.332 40.9 213.652 42.02C212.972 43.14 211.752 44.62 209.992 46.46H210.652L209.392 48.2L205.132 53H201.352C202.792 51.88 204.252 50.62 205.732 49.22C207.252 47.78 208.632 46.36 209.872 44.96C211.152 43.56 212.192 42.3 212.992 41.18C213.792 40.06 214.192 39.26 214.192 38.78C214.192 38.22 213.892 37.94 213.292 37.94C212.772 37.94 212.052 38.22 211.132 38.78C210.252 39.34 209.272 40.08 208.192 41C207.152 41.92 206.112 42.94 205.072 44.06L201.172 48.2Z" fill="black"/>
</svg>
