<svg width="82" height="82" viewBox="0 0 82 82" fill="none" xmlns="http://www.w3.org/2000/svg">
<circle cx="41" cy="41" r="39" stroke="white" stroke-width="4"/>
<path d="M43 23C43 21.8954 42.1046 21 41 21C39.8954 21 39 21.8954 39 23H43ZM39.5858 60.4142C40.3668 61.1953 41.6332 61.1953 42.4142 60.4142L55.1421 47.6863C55.9232 46.9052 55.9232 45.6389 55.1421 44.8579C54.3611 44.0768 53.0948 44.0768 52.3137 44.8579L41 56.1716L29.6863 44.8579C28.9052 44.0768 27.6389 44.0768 26.8579 44.8579C26.0768 45.6389 26.0768 46.9052 26.8579 47.6863L39.5858 60.4142ZM39 23V59H43V23H39Z" fill="white"/>
</svg>
