<svg width="133" height="19" viewBox="0 0 133 19" fill="none" xmlns="http://www.w3.org/2000/svg">
<path d="M4.32 13.58C4.32 15.26 4.3 14.28 4.32 18.06C4.32 18.82 4.78 18.8 5.2 18.82C6.42 18.9 13.04 18.86 13.04 18.86C14.04 18.86 14.24 18.6 14.28 17.96C14.34 17.16 14.28 13.4 14.28 13.36C14.28 13.02 13.94 12.84 13.76 12.84C13.14 12.84 13.06 13.24 13.06 13.56C13.06 13.56 13.08 13.56 13.06 14.76C10.88 14.82 7.8 14.86 5.6 14.76V13.5C5.62 12.74 4.32 12.72 4.32 13.58ZM5.08 0.92C2.68 0.879999 1.48 2.14 1.48 3.86C1.48 5.72 2.7 6.72 4.86 6.72C6.68 6.72 8.1 5.92 8.18 3.96C8.26 2.22 7.12 0.959999 5.08 0.92ZM10 11.58C10 11.92 10.22 12.2 10.62 12.2C10.94 12.2 11.2 11.98 11.22 11.62C11.24 11.36 11.24 9.28 11.24 9C11.2 7.4 11.26 7.98 11.22 4.3V1.44C11.22 1.08 10.82 0.779999 10.52 0.84C10.2 0.859999 9.86 1.12 9.92 1.54C10.04 4.62 10 2.76 10 8.8V9.96C9.02 9.98 7.86 9.98 7.44 9.92C7.12 9.88 6.78 10.04 6.78 10.48C6.78 10.94 7.1 11.04 7.42 11.06C7.84 11.08 9.02 11.08 10 11.08V11.58ZM13.2 11.66C13.2 12 13.4 12.24 13.8 12.24C14.12 12.24 14.4 12 14.42 11.64C14.44 11.38 14.44 10.56 14.44 10.28C14.4 7.08 14.46 8.24 14.42 4.56V1.3C14.42 0.94 14.02 0.64 13.72 0.699999C13.4 0.719999 13.06 0.979999 13.12 1.4C13.24 4.48 13.2 4.34 13.2 10.38V11.66ZM5.58 17.74V15.94C7.7 16.02 11.22 15.92 13.08 15.92C13.06 16.16 13.08 17.12 13.06 17.74H5.58ZM4.54 7.98C2.46 8.06 1.6 7.98 1.16 8.02C0.88 8.04 0.68 8.18 0.68 8.56C0.68 9.04 1 9.12 1.28 9.12C2.12 9.14 2.98 9.16 3.86 9.14C3.86 9.9 3.9 10.4 3.88 10.94V11.64C3.86 12.02 4.18 12.18 4.52 12.16C4.78 12.14 5.1 11.98 5.12 11.62C5.14 10.8 5.14 9.94 5.14 9.1C6.4 9.06 7.02 8.98 8.6 8.66C8.88 8.6 9.12 8.48 9.1 8.06C9.08 7.64 8.7 7.56 8.42 7.6C6.78 7.82 6.5 7.9 4.54 7.98ZM2.72 3.86C2.72 2.78 3.46 1.94 5.02 2.04C6.52 2.14 7.02 2.88 6.98 3.98C6.94 5.16 6.04 5.64 4.82 5.62C3.38 5.6 2.72 4.98 2.72 3.86ZM18.0361 14.42C17.6961 14.42 17.1561 14.38 16.8161 14.46C16.5361 14.52 16.3961 14.7 16.3961 15C16.3961 15.4 16.6361 15.64 16.9361 15.64C17.2561 15.64 17.5561 15.62 17.9161 15.62C21.6561 15.54 25.6961 15.6 29.6761 15.62C29.6761 15.62 30.2961 15.64 30.5561 15.56C30.8561 15.48 30.9961 15.32 30.9961 14.92C30.9961 14.54 30.7761 14.38 30.4161 14.38C30.4161 14.38 29.7761 14.4 29.2961 14.4L26.8561 14.42C26.8761 13.24 26.9161 12.08 26.8961 11.42C26.8761 11.02 26.5361 10.8 26.2361 10.82C25.9161 10.84 25.6161 11.08 25.6161 11.54C25.6161 11.88 25.6161 13.42 25.5961 14.42H21.8161C21.8361 13.28 21.8761 12.26 21.8361 11.42C21.8161 11.02 21.4961 10.8 21.1961 10.82C20.8761 10.84 20.5561 11.08 20.5561 11.54C20.5561 11.88 20.5561 13.42 20.5361 14.42H18.0361ZM29.3761 9.3C29.3361 8.72 28.8961 8.76 28.3361 8.8C27.9761 8.84 27.4561 8.86 26.8561 8.86C26.8761 7.54 26.8561 5.7 26.8361 4.54C26.8161 4.2 26.6961 3.94 26.2561 3.94C25.9561 3.94 25.6161 4.12 25.6361 4.54C25.6561 5.1 25.6761 7.5 25.6561 8.88C24.3361 8.9 22.9961 8.9 21.7961 8.9C21.7761 7.76 21.7961 5.68 21.7761 4.84V4.48C21.7561 4.18 21.4961 4.06 21.1561 4.06C20.6761 4.06 20.5361 4.3 20.5161 4.64C20.4961 5.2 20.4961 7.62 20.5361 8.9H19.8561C19.3761 8.9 18.9761 8.88 18.7961 8.9C18.4561 8.94 18.3361 9.1 18.2561 9.34C18.1761 9.66 18.3161 10.04 18.7361 10.06C18.9961 10.08 19.3561 10.06 19.7361 10.06C21.4961 10.04 27.4161 10.02 28.4361 9.94C28.9161 9.9 29.4161 9.8 29.3761 9.3ZM28.9761 2.66C28.9561 2.08 28.5361 1.96 27.9761 2C26.2361 2.1 21.5761 2.04 19.9961 2.06C19.5161 2.06 19.2161 2.02 19.0161 2.04C18.6561 2.08 18.4561 2.32 18.4161 2.58C18.3761 2.86 18.5361 3.16 18.9361 3.22C19.1761 3.26 19.4961 3.24 19.8761 3.24C21.6361 3.22 27.0161 3.24 28.0361 3.16C28.5161 3.14 28.9961 3.16 28.9761 2.66ZM43.2667 1.98C43.2467 1.68 42.9667 1.5 42.7867 1.48C42.6067 1.46 42.0267 1.46 41.5467 1.46C39.6667 1.48 37.4867 1.52 35.4067 1.52C34.8467 1.52 34.6267 1.7 34.6267 2.14C34.6267 2.42 34.8467 2.6 35.2867 2.62C35.7467 2.64 39.4067 2.58 40.8467 2.56C40.9267 2.56 40.9667 2.66 40.9067 2.7C38.3267 4.6 36.6067 5.52 33.9867 6.62C33.6467 6.76 33.4867 6.98 33.5667 7.3C33.6467 7.62 33.9667 7.74 34.3467 7.62C35.9067 7.1 37.6267 6.32 39.2267 5.38C40.9067 6.4 43.0467 7.4 43.7467 7.54C44.1267 7.62 44.4267 7.54 44.5067 7.32C44.5867 7.06 44.5267 6.7 44.1667 6.56C43.1867 6.18 41.6867 5.38 40.4667 4.62C41.4067 4 42.2667 3.32 42.9867 2.64C43.2267 2.42 43.2667 2.22 43.2667 1.98ZM45.8267 9.68C45.8267 9.68 45.1467 9.7 44.7067 9.7C40.6067 9.72 37.3667 9.7 33.4067 9.72C33.0667 9.72 32.6667 9.7 32.3467 9.72C32.0467 9.74 31.7667 9.94 31.7667 10.26C31.7667 10.64 31.9867 10.86 32.2867 10.88C32.6067 10.9 33.1867 10.9 33.4867 10.9C35.2667 10.92 37.0867 10.92 38.9067 10.92C38.9067 11.8 38.9067 12.44 38.8867 13.62V14.52C38.8667 14.9 39.1867 15.06 39.5267 15.04C39.7867 15.02 40.0267 14.88 40.1067 14.62C40.1467 14.48 40.1467 13.94 40.1467 13.52C40.1667 12.48 40.1867 11.88 40.1667 10.92H45.0867C45.0867 10.92 45.7067 10.92 45.9467 10.86C46.1867 10.8 46.3867 10.68 46.3867 10.3C46.3867 9.9 46.1467 9.68 45.8267 9.68ZM36.2467 17.32C35.8267 17.26 35.6867 17.32 35.7067 16.7C35.7467 15.58 35.7467 14.7 35.7667 13.32C35.7667 12.9 35.4667 12.68 35.1867 12.68C34.8267 12.68 34.4467 12.8 34.4267 13.3C34.4067 13.84 34.4267 16.54 34.3667 17.14C34.3467 18.34 34.6667 18.54 35.6667 18.54C39.1667 18.52 40.5867 18.58 43.9467 18.5C44.2067 18.5 44.5267 18.36 44.5067 17.82C44.4867 17.54 44.1267 17.24 43.8667 17.28C40.6267 17.38 38.8867 17.38 36.2467 17.32ZM63.1527 17.84C63.1527 18.18 63.2727 18.56 63.7927 18.56C64.0727 18.56 64.2927 18.5 64.3927 18.14C64.4727 17.88 64.4327 17.28 64.4327 17C64.3527 14.38 64.3527 11.68 64.3727 9.06C65.2527 9.08 66.2127 9.06 67.2327 9.04C68.0527 9.06 68.0927 7.82 67.2327 7.84C66.2127 7.86 65.2327 7.86 64.4127 7.84C64.4127 5.92 64.3727 3.92 64.3327 2.46C64.3127 1.96 64.3127 1.56 64.3127 1.24C64.3127 0.879999 64.0927 0.599999 63.5927 0.64C63.2927 0.66 63.0127 0.92 63.0327 1.34C63.0927 2.28 63.1527 11 63.1527 17.84ZM56.1927 2.6C56.1927 2.98 56.1927 3.36 56.1727 3.72C55.9727 7.32 54.8527 10.08 52.8127 13.02C52.6127 13.3 52.3327 13.72 52.6527 14.08C52.9127 14.36 53.4127 14.1 53.6327 13.8C54.8927 12.08 55.9927 10.36 56.6927 8.12C57.6527 10.34 59.0927 13.04 59.7127 13.74C59.9927 14.08 60.2527 14.14 60.5727 13.94C60.7527 13.82 60.8727 13.44 60.6327 13.06C59.2327 10.72 58.2127 8.86 57.1927 5.98C57.2927 5.42 57.3527 4.84 57.4127 4.2C57.4527 3.8 57.4527 3 57.4727 2.58C57.4927 1.8 57.2927 1.52 56.8727 1.52C56.2327 1.52 56.1927 2 56.1927 2.6ZM72.7288 2.44C69.8688 2.52 69.1088 5.28 69.1088 7.72C69.1088 10.14 69.5288 13.46 72.7888 13.46C75.9288 13.46 76.5688 10.54 76.5688 7.72C76.5688 5.3 75.8888 2.36 72.7288 2.44ZM72.7088 3.58C74.5488 3.44 75.3088 5.28 75.3088 7.72C75.3088 9.2 75.1688 12.34 72.7888 12.34C70.5088 12.34 70.3688 9.6 70.3688 7.72C70.3688 6.14 70.6688 3.74 72.7088 3.58ZM79.7088 17.84C79.7088 18.18 79.9888 18.56 80.3288 18.56C80.5888 18.56 80.8488 18.48 80.9688 18.12C81.0288 17.86 80.9488 17.28 80.9488 17C80.8288 12 80.9888 6.54 80.9488 2.86C80.9488 2.36 80.9288 1.56 80.9288 1.24C80.9288 0.879999 80.5288 0.599999 80.2288 0.64C79.9088 0.679999 79.6488 0.92 79.6688 1.34C79.8288 3.82 79.7088 11 79.7088 17.04V17.84ZM85.9888 2.54C85.9488 2.96 85.9288 8.08 85.9688 9.22C85.9888 9.94 86.0688 10.54 87.1288 10.58C88.5288 10.62 89.7888 10.6 91.6088 10.56C93.2288 10.52 94.3888 10.52 95.2088 10.38C96.0688 10.24 95.9088 9.18 95.0288 9.24C92.5288 9.42 90.1888 9.4 87.7688 9.4C87.3888 9.4 87.2688 9.38 87.2688 8.86V6.7C89.2488 6.72 93.3688 6.72 94.5888 6.58C95.2088 6.46 95.1688 5.4 94.3888 5.46C93.4288 5.52 89.0888 5.52 87.2688 5.52C87.2688 4.34 87.2888 3.24 87.3088 2.9C89.5288 2.96 93.2487 2.96 94.7888 2.82C95.4088 2.76 95.2688 1.66 94.4888 1.72C93.0687 1.8 88.3088 1.76 86.7088 1.74C86.4688 1.76 86.2688 1.86 86.1488 2C86.0288 2.14 86.0288 2.3 85.9888 2.54ZM97.2888 14.12C97.2888 14.12 96.7088 14.14 96.2288 14.14C94.2687 14.14 89.5288 14.1 85.0288 14.16C84.6888 14.16 84.2288 14.1 83.8888 14.18C83.6088 14.24 83.3888 14.44 83.3888 14.74C83.3888 15.14 83.6287 15.38 83.9288 15.38C84.2488 15.38 84.5488 15.36 84.9088 15.36C88.6488 15.28 92.6288 15.34 96.6088 15.36C96.6088 15.36 97.2288 15.38 97.4888 15.3C97.7888 15.22 97.9288 15.06 97.9288 14.66C97.9288 14.28 97.6488 14.12 97.2888 14.12ZM114.295 2.32C114.315 2.78 114.335 3.62 114.315 5.04C112.835 5.04 109.435 5.02 107.975 5.04C108.015 3.72 108.035 2.9 107.995 2.14C107.975 1.78 107.675 1.62 107.355 1.62C107.015 1.62 106.715 1.84 106.715 2.18V3.04C106.715 6.12 106.635 6.5 106.695 9.64C106.695 10.32 107.115 10.44 107.755 10.46C109.095 10.54 114.115 10.5 114.115 10.5C115.115 10.5 115.395 10.34 115.475 9.5C115.535 8.66 115.515 7.62 115.555 6.16C115.595 4.5 115.535 2.24 115.535 2.24C115.535 1.94 115.335 1.64 114.995 1.6C114.395 1.52 114.275 1.98 114.295 2.32ZM107.915 9.32C107.915 8.42 107.895 7.46 107.935 6.18C109.355 6.16 112.795 6.22 114.295 6.18C114.275 7.66 114.235 8.72 114.215 9.38L107.915 9.32ZM118.035 14.48C118.035 14.48 117.395 14.5 116.915 14.5C115.275 14.5 113.335 14.52 111.795 14.5C111.835 13.52 111.875 12.76 111.815 12.12C111.795 11.72 111.475 11.5 111.175 11.52C110.855 11.54 110.535 11.78 110.535 12.24C110.535 12.72 110.595 13.6 110.535 14.5C109.095 14.5 107.235 14.5 105.515 14.52C105.175 14.52 104.635 14.48 104.295 14.56C104.015 14.62 103.875 14.8 103.875 15.1C103.875 15.5 104.115 15.74 104.415 15.74C104.735 15.74 105.035 15.72 105.395 15.72C109.135 15.64 113.315 15.7 117.295 15.72C117.295 15.72 117.915 15.74 118.175 15.66C118.475 15.58 118.615 15.42 118.615 15.02C118.615 14.64 118.395 14.48 118.035 14.48ZM130.885 17.86C130.885 18.16 131.145 18.48 131.485 18.48C131.745 18.48 132.045 18.28 132.045 17.86C132.125 13.58 132.065 3.56 132.105 1.32C132.145 0.94 131.765 0.66 131.485 0.66C131.145 0.66 130.885 0.899999 130.885 1.32V17.86ZM121.105 3.22C121.945 3.22 124.905 3.16 126.165 3.16C126.525 3.16 126.465 3.4 126.445 3.52C125.725 7.12 123.205 10.72 120.425 13.24C120.225 13.42 119.945 13.66 120.205 14.06C120.425 14.4 120.885 14.22 121.105 14.08C124.465 11.28 127.045 7.22 127.825 3.42C128.045 2.3 127.685 1.96 126.825 2C126.685 2 126.345 2.02 126.205 2.02C124.785 2.04 121.865 2.12 121.125 2.1C120.265 2.04 120.245 3.24 121.105 3.22Z" fill="black"/>
</svg>
