<svg width="326" height="57" viewBox="0 0 326 57" fill="none" xmlns="http://www.w3.org/2000/svg">
<path d="M0.38 22.86C2.41 33.99 4.72 45.68 6.19 53.73C6.47 55.27 7.31 55.9 8.15 56.04C9.2 56.18 10.32 55.55 10.81 54.71C12.49 51.77 16.55 39.94 18.93 32.8C21.38 40.15 23.97 49.18 26.63 54.78C27.05 55.62 27.82 56.04 28.66 56.04C29.57 56.04 30.41 55.55 30.69 54.57C33.84 42.32 35.73 33.85 38.04 23C38.25 22.02 37.76 21.39 37.06 21.04C35.94 20.55 34.33 20.83 33.98 22.3C32.16 30.28 30.27 39.73 28.03 48.76L20.96 25.59C20.61 24.82 19.98 24.47 19.35 24.33C18.44 24.19 17.53 24.61 17.11 25.73C14.94 32.1 11.72 42.6 9.27 48.62C7.8 38.61 6.05 31.12 4.65 22.72C4.44 21.32 3.25 20.69 2.2 20.9C1.36 21.04 0.59 21.74 0.38 22.86ZM43.4109 37.77C43.1309 49.6 47.8209 55.9 57.2009 55.9C60.7009 55.9 63.7109 55.06 66.7909 52.82C67.7709 52.12 67.7009 51 67.2109 50.23C66.6509 49.39 65.6709 48.9 64.5509 49.6C62.5209 50.86 60.2109 51.84 57.6209 51.84C49.3609 51.84 47.9609 45.33 47.9609 39.45C53.0709 39.38 62.0309 38.89 64.6909 38.54C67.8409 38.12 67.9109 36.44 67.8409 34.62C67.4909 25.8 62.1009 21.18 56.9909 21.18C47.1209 21.18 43.6209 29.3 43.4109 37.77ZM56.7809 25.45C60.5609 25.66 63.2209 29.02 63.5009 34.55C54.8209 35.39 50.8309 35.25 48.3109 35.25C48.3809 30.21 51.1109 25.1 56.7809 25.45ZM75.2062 53.45C75.2062 54.71 75.9762 55.48 76.8862 55.62C78.0062 55.83 79.3362 55.13 79.3362 53.52V52.68C81.0862 54.22 83.8862 55.48 86.6162 55.41C92.4962 55.27 97.8162 49.39 97.8162 38.89C97.8162 30.28 95.2262 21.32 87.1062 21.25C84.7262 21.25 81.2262 22.02 79.3362 23.49V2.91C78.9162 1.44 77.6562 0.879999 76.6762 1.16C75.9762 1.37 75.3462 2 75.1362 3.05C75.1362 19.99 75.0662 42.11 75.2062 53.45ZM86.9662 25.38C91.4462 25.73 93.7562 32.1 93.5462 38.96C93.3362 46.1 90.4662 51.35 86.3362 51.35C83.3262 51.35 81.5762 50.23 79.3362 48.55V27.9C81.1562 26.5 84.3762 25.17 86.9662 25.38ZM125.466 26.71C124.626 23.21 119.726 20.9 114.196 20.9C105.656 20.9 101.526 30.07 107.126 35.11C111.046 38.68 116.506 38.61 120.076 42.18C122.386 44.49 122.106 48.06 120.706 50.02C119.726 51.35 116.646 52.05 113.916 51.84C110.556 51.56 108.316 50.44 106.916 47.92C106.216 46.59 104.606 46.66 103.626 47.43C102.926 47.99 102.576 48.9 103.136 49.95C105.306 54.22 109.576 55.55 113.426 55.83C117.976 56.18 122.526 54.71 124.276 52.33C126.866 48.9 127.006 42.95 123.576 39.66C119.796 36.02 114.546 35.6 110.766 32.24C107.406 29.3 110.066 24.89 114.616 24.89C117.626 24.89 120.916 26.29 121.826 28.25C122.246 29.09 123.226 29.3 124.066 29.09C125.046 28.81 125.816 28.04 125.466 26.71ZM139.506 3.54C139.436 3.54 139.366 3.47 139.296 3.47L139.506 3.54ZM139.296 3.47C138.246 3.19 136.986 3.82 136.706 5.36C136.706 10.12 136.776 14.32 136.706 19.01H131.316C129.846 19.01 129.286 20.13 129.286 21.11C129.286 22.02 129.916 23.07 131.176 23.07H136.636C136.566 28.39 136.636 30.28 136.636 35.6C136.636 40.36 136.566 44.35 136.776 49.18C136.916 53.38 139.156 55.55 143.006 55.41C144.966 55.34 147.346 55.27 149.656 54.36C151.196 53.8 151.406 52.33 150.846 51.35C150.426 50.58 149.516 50.09 148.536 50.44C146.996 50.93 145.456 50.93 144.126 51.14C142.026 51.42 141.116 50.51 141.046 48.62C140.906 44 140.906 39.94 140.906 35.46C140.906 30.14 140.906 28.32 140.976 23C144.196 22.93 145.386 22.93 148.606 22.93C150.006 22.93 150.496 22.16 150.496 21.11C150.496 19.99 150.006 19.01 148.746 19.01C145.456 19.01 144.266 18.94 140.976 19.01C141.046 14.25 140.976 9.98 140.976 5.22C140.696 4.31 140.136 3.75 139.506 3.54L139.296 3.47ZM162.399 28.11C163.169 27.2 165.409 25.66 167.929 25.1C171.219 24.33 175.489 24.96 175.769 29.37C175.909 31.4 175.979 33.01 175.979 34.41C173.879 34.13 170.169 34.27 168.279 34.62C162.959 35.6 157.639 39.17 157.359 45.54C157.079 51.91 161.559 56.11 168.419 55.62C171.079 55.41 175.349 54.22 176.469 52.05L176.539 53.8C176.539 55.06 177.519 55.69 178.429 55.69C179.409 55.69 180.389 54.92 180.319 53.59C180.179 45.33 180.179 35.67 179.969 28.6C179.759 21.81 173.109 19.71 167.509 20.9C163.589 21.74 160.579 23.77 159.319 25.31C158.129 26.71 158.339 28.04 159.039 28.81C159.809 29.65 161.139 29.65 162.399 28.11ZM161.699 45.82C161.699 41.9 165.409 39.24 168.909 38.47C170.519 38.12 173.879 37.98 176.049 38.26V46.24C176.119 49.11 172.409 51.7 167.999 51.98C164.569 52.19 161.699 50.3 161.699 45.82ZM190.07 53.59C190.21 55.2 191.4 55.9 192.45 55.76C193.36 55.62 194.2 54.92 194.27 53.59L194.34 30.49C196.37 28.81 198.12 27.62 200.08 26.57C205.47 23.77 207.71 27.69 207.85 31.89C208.13 39.38 207.85 46.45 207.85 53.8C207.99 55.2 208.9 55.83 209.88 55.9C210.93 55.97 212.05 55.2 212.12 53.66C212.26 48.48 212.05 38.54 212.19 31.82C212.26 25.24 208.62 21.39 204.07 21.53C200.22 21.67 197.14 23.56 194.34 25.66L194.27 23.14C193.92 22.09 193.15 21.46 192.38 21.32C191.4 21.18 190.35 21.81 190.07 23.28V53.59ZM241.955 53.31C241.955 54.78 240.905 55.55 239.925 55.55C238.875 55.55 237.825 54.85 237.825 53.38V52.54C236.075 54.08 233.275 55.34 230.545 55.27C224.665 55.13 219.345 49.6 219.345 39.1C219.345 29.72 222.845 21.46 230.965 21.39C233.345 21.39 235.935 21.95 237.825 23.14V2.91C238.245 1.58 239.295 0.949998 240.275 1.09C241.115 1.23 241.815 1.86 242.025 3.05C242.025 19.99 242.095 41.97 241.955 53.31ZM231.105 25.52C226.625 25.87 223.405 30.91 223.615 39.17C223.825 46.31 226.695 51.21 230.825 51.21C233.835 51.21 235.585 50.09 237.825 48.41V27.55C236.005 26.36 233.695 25.31 231.105 25.52ZM254.411 28.11C255.181 27.2 257.421 25.66 259.941 25.1C263.231 24.33 267.501 24.96 267.781 29.37C267.921 31.4 267.991 33.01 267.991 34.41C265.891 34.13 262.181 34.27 260.291 34.62C254.971 35.6 249.651 39.17 249.371 45.54C249.091 51.91 253.571 56.11 260.431 55.62C263.091 55.41 267.361 54.22 268.481 52.05L268.551 53.8C268.551 55.06 269.531 55.69 270.441 55.69C271.421 55.69 272.401 54.92 272.331 53.59C272.191 45.33 272.191 35.67 271.981 28.6C271.771 21.81 265.121 19.71 259.521 20.9C255.601 21.74 252.591 23.77 251.331 25.31C250.141 26.71 250.351 28.04 251.051 28.81C251.821 29.65 253.151 29.65 254.411 28.11ZM253.711 45.82C253.711 41.9 257.421 39.24 260.921 38.47C262.531 38.12 265.891 37.98 268.061 38.26V46.24C268.131 49.11 264.421 51.7 260.011 51.98C256.581 52.19 253.711 50.3 253.711 45.82ZM298.741 25.24C299.931 25.03 300.491 23.98 300.351 23C300.211 22.02 299.511 21.18 298.251 21.32C293.771 21.88 290.341 23.07 286.561 26.85L286.351 22.79C286.351 21.46 285.371 20.83 284.321 20.9C283.341 20.97 282.291 21.67 282.291 22.93C282.081 32.66 282.221 42.81 282.431 54.01C282.431 55.27 283.411 55.83 284.391 55.83C285.511 55.83 286.701 55.13 286.631 53.87C286.491 48.06 286.351 40.29 286.631 32.87C289.921 27.97 293.421 25.94 298.741 25.24ZM325.558 53.31C325.558 54.78 324.508 55.55 323.528 55.55C322.478 55.55 321.428 54.85 321.428 53.38V52.54C319.678 54.08 316.878 55.34 314.148 55.27C308.268 55.13 302.948 49.6 302.948 39.1C302.948 29.72 306.448 21.46 314.568 21.39C316.948 21.39 319.538 21.95 321.428 23.14V2.91C321.848 1.58 322.898 0.949998 323.878 1.09C324.718 1.23 325.418 1.86 325.628 3.05C325.628 19.99 325.698 41.97 325.558 53.31ZM314.708 25.52C310.228 25.87 307.008 30.91 307.218 39.17C307.428 46.31 310.298 51.21 314.428 51.21C317.438 51.21 319.188 50.09 321.428 48.41V27.55C319.608 26.36 317.298 25.31 314.708 25.52Z" fill="black"/>
</svg>
