<?xml version="1.0" encoding="utf-8"?>
<!-- Generator: Adobe Illustrator 28.3.0, SVG Export Plug-In . SVG Version: 6.00 Build 0)  -->
<svg version="1.1" xmlns="http://www.w3.org/2000/svg" xmlns:xlink="http://www.w3.org/1999/xlink" x="0px" y="0px"
	 viewBox="0 0 217.47 348.3" enable-background="new 0 0 217.47 348.3" xml:space="preserve">
<g id="레이어_3">
</g>
<g id="레이어_6">
	<g>
		<g>
			<g>
				
					<path fill="#FF97B5" stroke="#111114" stroke-width="1.2" stroke-linecap="round" stroke-linejoin="round" stroke-miterlimit="10" d="
					M112.17,39.71c0,0,10.56,7.05,7.83,26.77c0,0-1.09,14.24-1.03,16.92c0,0,6.76-0.64,9.52,1.01c0,0,6.28-30.96,15.35-36.06
					c0.62-0.35-2.27-14.12-14.48-14.31C129.36,34.04,116.48,29.14,112.17,39.71z"/>
				<g>
					<path fill="#111114" d="M122.03,83.39c4.21-13.11,5.12-27.1,2.61-40.68C128.83,55.91,127.82,70.81,122.03,83.39L122.03,83.39z"
						/>
				</g>
				<g>
					<path fill="#111114" d="M126.1,83.33c-0.9-11.25,2.27-22.97,8.73-32.23C129.84,61.25,126.9,72.05,126.1,83.33L126.1,83.33z"/>
				</g>
			</g>
			<g>
				
					<path fill="#FF97B5" stroke="#111114" stroke-width="1.2" stroke-linecap="round" stroke-linejoin="round" stroke-miterlimit="10" d="
					M118.98,83.4c0,0,13.83-39.2-13.38-48.68c0,0-11.43-0.36-11.64,4.32c-0.2,4.67,7.93,17.21,7.93,17.21s9.6,16.42,10.29,28.96"/>
				<g>
					<g>
						<path fill="#111114" d="M116.03,83.09c2.26-11.37,1.88-22.92-1.11-34.12C119.53,59.59,119.93,72.19,116.03,83.09L116.03,83.09
							z"/>
					</g>
					<g>
						<path fill="#111114" d="M113.74,83.72c0.49-13.14-2.94-26.22-9.86-37.45C112.25,56.54,115.91,70.65,113.74,83.72L113.74,83.72
							z"/>
					</g>
				</g>
			</g>
			<g>
				
					<path fill="#FF97B5" stroke="#111114" stroke-width="1.2" stroke-linecap="round" stroke-linejoin="round" stroke-miterlimit="10" d="
					M107.27,88.93c-0.63-1.25-1.36-2.41-2.15-3.52L103,82.77c-10.16-11.34-27.75-15.3-28.91-21.91c-1.34-7.69,4.66-6.21,4.66-6.21
					c-1.36-0.49-1.11-2.95-1.11-2.95c8.57-10.25,22.83,2.27,22.83,2.27s12.85,22.07,11.71,31.23c0,0-2.98,1.53-4.46,3.11
					L107.27,88.93z"/>
				<g>
					<path fill="#111114" d="M110.35,85.87c-2.53-12.33-10.11-23.31-20.83-30C101.15,61.03,109.51,73.15,110.35,85.87L110.35,85.87z
						"/>
				</g>
				<g>
					<path fill="#111114" d="M109,86.54c-3.66-8.1-9.3-14.84-16.6-19.9C100.54,70.16,106.99,77.9,109,86.54L109,86.54z"/>
				</g>
			</g>
			<g>
				
					<path fill="#FF97B5" stroke="#111114" stroke-width="1.2" stroke-linecap="round" stroke-linejoin="round" stroke-miterlimit="10" d="
					M105.12,97.87c-0.62-2.94,2.16-8.94,2.16-8.94c-5.08-10.86-24.12-20.02-24.12-20.02s-10.76-3.3-16.83,2.95s-1.91,8.59-1.91,8.59
					s-3.39,2.29,0.11,4.23C68.02,86.61,86.45,83.38,105.12,97.87z"/>
				<g>
					<path fill="#111114" d="M105.97,91.64c-5.65-8.41-14.42-14.1-24.39-15.85C91.75,75.74,101.9,82.34,105.97,91.64L105.97,91.64z"
						/>
				</g>
				<g>
					<path fill="#111114" d="M105.08,94.58c-4.67-5.69-10.68-9.69-17.72-11.83C94.72,83.13,101.9,87.94,105.08,94.58L105.08,94.58z"
						/>
				</g>
			</g>
			<g>
				
					<path fill="#FF97B5" stroke="#111114" stroke-width="1.2" stroke-linecap="round" stroke-linejoin="round" stroke-miterlimit="10" d="
					M107,104.87c-1.07-1.34-1.89-7-1.89-7l-3.76-2.5c-2.51-1.67-5.28-2.91-8.2-3.64c-6.52-1.64-18.09-3.79-23.37-0.03
					c0,0-8.4,4.96-8.08,10.61C62.03,107.97,86.91,102.49,107,104.87z"/>
				<g>
					<path fill="#111114" d="M105.73,100.81c-9.41-4.4-19.54-6.4-29.92-5.93C85.96,92.68,97.19,94.92,105.73,100.81L105.73,100.81z"
						/>
				</g>
				<g>
					<path fill="#111114" d="M106.47,103.19c-7.36-1.93-14.64-2.99-22.25-3.25C91.68,98.51,99.73,99.69,106.47,103.19L106.47,103.19
						z"/>
				</g>
			</g>
			<g>
				<g>
					
						<path fill="#FF97B5" stroke="#111114" stroke-width="1.2" stroke-linecap="round" stroke-linejoin="round" stroke-miterlimit="10" d="
						M112.39,113.07c0,0-20.63,7.7-21.4,22.71c0,0-2.45,4.48,5.06,7.6c0,0-1.53,4.39,7.84,5.33s23.37-17.04,23.68-25.79
						c0,0,17.25,13.76,16.09,33.4c0,0-1.65,6.76,7.01,5.71c0,0,7.9,5.06,10.88-7.17s-6.05-29.76-18.76-33.03
						c0,0-6.85-3.17-15.23,1.09C127.57,122.92,123.93,115.57,112.39,113.07z"/>
					<g>
						<path fill="#111114" d="M118.35,115.63c-8.14,3.54-15.16,8.7-20.98,15.39C101.77,123.34,109.7,117.53,118.35,115.63
							L118.35,115.63z"/>
					</g>
					<g>
						<path fill="#111114" d="M121.83,117.2c-5.66,4.62-10.74,9.51-15.6,14.97C109.69,125.76,115.28,120.4,121.83,117.2
							L121.83,117.2z"/>
					</g>
					<g>
						<path fill="#111114" d="M123.98,119.61c-1.53,5.2-5.14,9.87-9.8,12.66C117.77,128.17,120.92,124.12,123.98,119.61
							L123.98,119.61z"/>
					</g>
					<g>
						<path fill="#111114" d="M126.7,121.73c-2.72,9.23-9.76,15.39-18.32,19.18c-1.11,0.62-2.11,1.42-2.86,2.48
							c0.52-1.21,1.5-2.17,2.54-2.97c3.2-2.15,6.65-3.88,9.45-6.56C121.33,130.46,124.37,126.31,126.7,121.73L126.7,121.73z"/>
					</g>
				</g>
				<g>
					<g>
						<path fill="#111114" d="M136.67,121.25c12.47,1.49,22.1,14.33,20.05,26.66c-0.01-3.04-0.52-6.03-1.43-8.87
							C152.59,130.43,145.31,123.71,136.67,121.25L136.67,121.25z"/>
					</g>
					<g>
						<path fill="#111114" d="M131.48,120.76c8.82,3.34,15.65,11.2,18.29,20.2c0.9,3,1.3,6.15,1.15,9.25
							C149.7,137.89,142.26,126.71,131.48,120.76L131.48,120.76z"/>
					</g>
				</g>
			</g>
			<g>
				
					<path fill="#FF97B5" stroke="#111114" stroke-width="1.2" stroke-linecap="round" stroke-linejoin="round" stroke-miterlimit="10" d="
					M142.8,121.83c0,0,3.98-2.29,4.25-5.31c0,0,33.2,6.01,33.6,21.23c0,0,1.95,11.54-2.2,13.19c0,0,0.02,4.28-5.09,2.29
					c-5.11-1.98-11.28-7.04-11.95-9.52l-7.96-15.09c-1.4-1.53-3.03-2.98-4.91-4.25L142.8,121.83z"/>
				<g>
					<path fill="#111114" d="M146.03,118.98c9.03,0.19,18.04,5.42,22.67,13.18C162.65,125.45,154.85,120.91,146.03,118.98
						L146.03,118.98z"/>
				</g>
				<g>
					<path fill="#111114" d="M144.79,120.3c10.08,1.21,19.11,9.61,21.03,19.61C162.17,130.51,154.43,123.28,144.79,120.3
						L144.79,120.3z"/>
				</g>
			</g>
			<g>
				
					<path fill="#FF97B5" stroke="#111114" stroke-width="1.2" stroke-linecap="round" stroke-linejoin="round" stroke-miterlimit="10" d="
					M148.11,109.28c0,0,35.63-8.48,40.94,7.73c0,0,3.94,6.34-0.85,8.52c0,0,1.92,7.12-4.02,6.38c0,0-4.4,0.06-10.19-4.89
					c0,0-11.67-8.22-24.56-10l-2.38-0.5C147.06,116.52,148.52,111.63,148.11,109.28"/>
				<g>
					<path fill="#111114" d="M148.15,112.03c9.61-2.27,19.98-1.76,29.32,1.44C167.71,111.9,158.03,111.42,148.15,112.03
						L148.15,112.03z"/>
				</g>
				<g>
					<path fill="#111114" d="M147.18,115.14c6.9-1.6,14.19-1.6,21.17-0.35c4.09,0.52,9.46,3.48,7.97,8.35
						c0.63-6.56-7.52-7.3-12.32-7.76C158.44,114.79,152.83,114.8,147.18,115.14L147.18,115.14z"/>
				</g>
			</g>
			<g>
				
					<path fill="#FF97B5" stroke="#111114" stroke-width="1.2" stroke-linecap="round" stroke-linejoin="round" stroke-miterlimit="10" d="
					M145.05,98.85c0,0,24.02-22.67,44.28-12.66c1.12,0.55,2,1.54,2.22,2.77c0.21,1.19-0.12,2.64-2.29,3.72c0,0,10.78,7.2,1.5,14.53
					c0,0,1.09,2.58-11.97,1.23c0,0-12.66-2.93-24.56-0.3l-6.12,1.15C148.11,109.28,147.14,100.92,145.05,98.85"/>
				<g>
					<path fill="#111114" d="M146.16,101.69c8.25-7.3,18.94-12.07,29.89-13.31C165.4,91.3,155.45,95.72,146.16,101.69L146.16,101.69
						z"/>
				</g>
				<g>
					<path fill="#111114" d="M147.52,104.92c7.94-8.4,20.88-12.11,32.07-9.17C168.1,94.59,156.65,97.86,147.52,104.92L147.52,104.92
						z"/>
				</g>
				<g>
					<path fill="#111114" d="M147.6,107.48c8.17-7.41,20.84-9.88,31.2-6.07C167.99,99.34,156.85,101.5,147.6,107.48L147.6,107.48z"
						/>
				</g>
			</g>
			<g>
				
					<path fill="#FF97B5" stroke="#111114" stroke-width="1.2" stroke-linecap="round" stroke-linejoin="round" stroke-miterlimit="10" d="
					M188.26,85.7l-9.21-0.62c-16.05-1.06-34,13.77-34,13.77l-4.16-6.02c0,0,16.15-28.77,40.41-20.76c0,0,3.58,2.55,0.84,6.34
					C182.14,78.42,191.95,81.9,188.26,85.7z"/>
				<g>
					<path fill="#111114" d="M143.58,96.97c6.85-9.42,18.23-15.7,29.85-16.47C162.04,83,151.76,88.66,143.58,96.97L143.58,96.97z"/>
				</g>
				<g>
					<path fill="#111114" d="M142.65,94.7c3.92-8.51,12.41-15.03,21.64-16.62C155.52,81.38,148.1,87.07,142.65,94.7L142.65,94.7z"/>
				</g>
			</g>
			<g>
				
					<path fill="#FF97B5" stroke="#111114" stroke-width="1.2" stroke-linecap="round" stroke-linejoin="round" stroke-miterlimit="10" d="
					M128.5,84.41c0,0,8.23,2.41,12.39,8.42c0,0,12.21-21.35,30.24-22.11c2.15-0.09,2.09-5.2,2.09-5.2c2.36-5.22-6.5-9.9-6.5-9.9
					c-2.92-4.68-7.8-1.55-7.8-1.55c0.71-8.62-1.57-10.92-8.21-12.02s-12.88,10.69-12.88,10.69C132.76,57.73,128.5,84.41,128.5,84.41
					"/>
				<g>
					<path fill="#111114" d="M138.11,90.22c3.76-9.5,11.56-17.57,20.95-21.62C150.47,74.18,143.41,81.46,138.11,90.22L138.11,90.22z
						"/>
				</g>
				<g>
					<path fill="#111114" d="M135.78,87.69c6.61-9.31,13.03-18.58,19.44-28.03C150.25,69.92,143.65,79.43,135.78,87.69L135.78,87.69
						z"/>
				</g>
				<g>
					<path fill="#111114" d="M133.17,86.05c5.78-8.84,10.63-18.01,14.69-27.75C145.4,68.55,140.26,78.25,133.17,86.05L133.17,86.05z
						"/>
				</g>
				<g>
					<path fill="#111114" d="M131.26,86.06c1.15-9.69,5.23-19.15,11.49-26.63C137.86,67.9,134.06,76.69,131.26,86.06L131.26,86.06z"
						/>
				</g>
			</g>
			<g>
				
					<path fill="#FFEC2D" stroke="#111114" stroke-width="1.2" stroke-linecap="round" stroke-linejoin="round" stroke-miterlimit="10" d="
					M138.37,90.37c0,0-12.27-12.95-28.8-3.91c0,0-10.63,7.28,0.71,24.31l2.12,2.3c0,0,11.25,2.16,15.18,9.85
					c0,0,6.42-4.31,15.23-1.09c0,0,8.51-4.37,4.04-19.67C146.84,102.16,142.8,93.8,138.37,90.37z"/>
				<g>
					<g>
						<path fill="#111114" d="M126.01,88.07c0.79,0.33,0.77,0.74-0.06,0.98C125.16,88.72,125.19,88.31,126.01,88.07L126.01,88.07z"
							/>
					</g>
					<g>
						<path fill="#111114" d="M138.87,97.84c0.91,0.73-0.67,1.85-1.06,0.75c0.23-0.31,0.2-0.46,0.33-0.65
							C138.38,97.88,138.51,97.96,138.87,97.84L138.87,97.84z"/>
					</g>
					<g>
						<path fill="#111114" d="M135.13,95.63c-0.27,0.97-0.36,1.04-1.37,1C133.38,95.67,134.34,94.98,135.13,95.63L135.13,95.63z"/>
					</g>
					<g>
						<path fill="#111114" d="M128.57,96.11c0.77,0.37,0.74,0.77-0.1,0.98C127.7,96.73,127.74,96.32,128.57,96.11L128.57,96.11z"/>
					</g>
					<g>
						<path fill="#111114" d="M132,100c0.65-0.18,0.9,0.73,0.33,0.94c-0.15,0.06-0.36,0.06-0.55-0.13c-0.05-0.26-0.14-0.37-0.2-0.43
							c-0.07-0.07-0.1-0.08-0.1-0.08C131.65,100.28,131.78,100.24,132,100L132,100z"/>
					</g>
					<g>
						<path fill="#111114" d="M134.79,101.83c1.04,0,1.06,1.4,0.02,1.42C134.22,102.42,134.23,102.68,134.79,101.83L134.79,101.83z"
							/>
					</g>
					<g>
						<path fill="#111114" d="M138.93,103.19c0.66-0.53,1-0.33,0.8,0.5C139.07,104.23,138.74,104.01,138.93,103.19L138.93,103.19z"
							/>
					</g>
					<g>
						<path fill="#111114" d="M125.14,94.63c0.72,0.47,0.63,0.87-0.23,0.97C124.19,95.13,124.29,94.73,125.14,94.63L125.14,94.63z"
							/>
					</g>
					<g>
						<path fill="#111114" d="M128.25,92.53c0.85,0.29,0.91,0.81,0.15,1.29C127.55,93.54,127.5,93.01,128.25,92.53L128.25,92.53z"/>
					</g>
					<g>
						<path fill="#111114" d="M131.05,91.12c0.95-0.31,1.51,0.73,0.72,1.35C130.84,92.08,130.86,92.1,131.05,91.12L131.05,91.12z"/>
					</g>
					<g>
						<path fill="#111114" d="M131.5,95.13c0.39,0.18,1.05,0.47,1.05,0.87c-0.21,1.03-0.66,1.93-1.66,2.47
							c-0.2-1.04,0.12-1.89,0.72-2.67c0,0,0.03,0.47,0.03,0.47C131.52,95.93,131.45,95.57,131.5,95.13L131.5,95.13z"/>
					</g>
					<g>
						<path fill="#111114" d="M125.13,90.81c0.37,0.8,0.05,1.18-0.8,0.91C123.96,90.92,124.29,90.55,125.13,90.81L125.13,90.81z"/>
					</g>
					<g>
						<path fill="#111114" d="M123.07,88.77c-0.02,0.97,0.17,0.77-0.8,0.91C121.52,89.04,122.33,88.11,123.07,88.77L123.07,88.77z"
							/>
					</g>
					<g>
						<path fill="#111114" d="M120.16,93.86c0.81,0.31,0.83,0.78,0.03,1.14C119.37,94.68,119.36,94.21,120.16,93.86L120.16,93.86z"
							/>
					</g>
					<g>
						<path fill="#111114" d="M122.87,95.26c0.69,0.96,0.74,1.18,0.45,2.32C122.13,97.41,121.84,95.86,122.87,95.26L122.87,95.26z"
							/>
					</g>
					<g>
						<path fill="#111114" d="M126.41,99.29c0.82,0.2,0.85,0.55,0.06,0.86C125.64,99.95,125.63,99.6,126.41,99.29L126.41,99.29z"/>
					</g>
					<g>
						<path fill="#111114" d="M129.95,100.78c0.76,0.45,0.72,0.97-0.13,1.26C129.05,101.59,129.11,101.07,129.95,100.78
							L129.95,100.78z"/>
					</g>
					<g>
						<path fill="#111114" d="M130.61,105.52c0.89-0.19,1.25,0.25,0.88,1.08C130.6,106.79,130.25,106.35,130.61,105.52
							L130.61,105.52z"/>
					</g>
					<g>
						<path fill="#111114" d="M135.1,98.87c0.75-0.39,1.02-0.13,0.65,0.63C134.99,99.9,134.73,99.63,135.1,98.87L135.1,98.87z"/>
					</g>
					<g>
						<path fill="#111114" d="M138.2,94.66c0.97,0.4,0.85,1.63-0.18,1.82C137.49,95.59,137.51,95.43,138.2,94.66L138.2,94.66z"/>
					</g>
					<g>
						<path fill="#111114" d="M135.69,92.85c0.71,0.5,0.61,0.96-0.25,1.11C134.72,93.46,134.83,93,135.69,92.85L135.69,92.85z"/>
					</g>
					<g>
						<path fill="#111114" d="M140.01,96.4c0.95-0.06,1.36,0.48,1,1.37C140.05,97.84,139.66,97.29,140.01,96.4L140.01,96.4z"/>
					</g>
					<g>
						<path fill="#111114" d="M142.48,100.19c0.09,0.69,0.22,1.27,0.45,1.74c0.46,0.64,0.94,1.34,0.97,2.21
							c-0.85-0.36-1.5-0.85-1.98-1.59C141.52,101.79,141.72,100.66,142.48,100.19L142.48,100.19z"/>
					</g>
					<g>
						<path fill="#111114" d="M142.78,107.01c0.5,0.67,0.3,0.95-0.49,0.66C141.78,107,141.99,106.72,142.78,107.01L142.78,107.01z"
							/>
					</g>
					<g>
						<path fill="#111114" d="M136.83,106.99c0.84,0.46,0.89,1.14,0.11,1.71C136.1,108.24,136.06,107.55,136.83,106.99
							L136.83,106.99z"/>
					</g>
					<g>
						<path fill="#111114" d="M115.84,90.31c0.89,0.14,1.08,0.67,0.44,1.32C115.37,91.49,115.2,90.96,115.84,90.31L115.84,90.31z"/>
					</g>
					<g>
						<path fill="#111114" d="M113.06,95.42c1.04-0.08,1.58,0.49,1.44,1.53C113.46,97.03,112.92,96.45,113.06,95.42L113.06,95.42z"
							/>
					</g>
					<g>
						<path fill="#111114" d="M116.87,99.6c0.37,0.89-0.02,1.48-0.99,1.46C115.5,100.17,115.9,99.59,116.87,99.6L116.87,99.6z"/>
					</g>
					<g>
						<path fill="#111114" d="M120.44,102.38c0.85,0.22,0.92,0.69,0.17,1.15C119.76,103.31,119.69,102.84,120.44,102.38
							L120.44,102.38z"/>
					</g>
					<g>
						<path fill="#111114" d="M125.89,103.74c0.78,0.27,0.76,0.54-0.06,0.64C125.04,104.11,125.07,103.85,125.89,103.74
							L125.89,103.74z"/>
					</g>
					<g>
						<path fill="#111114" d="M127.2,110.64c0.95,0.3,0.03,1.32-0.36,0.4c0-0.31-0.04-0.47-0.19-0.54
							C126.73,110.65,126.9,110.67,127.2,110.64L127.2,110.64z"/>
					</g>
					<g>
						<path fill="#111114" d="M124.54,109.72c0.81,0.19,0.83,0.51,0.03,0.76C123.75,110.3,123.74,109.98,124.54,109.72
							L124.54,109.72z"/>
					</g>
					<g>
						<path fill="#111114" d="M119.92,109.81c0.32,0.02,0.47,0.07,0.57,0.14c-0.22-0.28-0.51-0.43-0.19-0.4
							c0.22,0.13,0.21,0.28,0.22,0.7c-0.19,0.29-0.33,0.38-0.44,0.43c-0.2,0.1-0.33-0.21-0.62-0.49
							C119.53,110.08,119.64,109.96,119.92,109.81L119.92,109.81z"/>
					</g>
					<g>
						<path fill="#111114" d="M134.32,109.34c0.47,0.08,0.57,0.13,0.59,0.17c-0.02,0.03-0.13,0.06-0.61,0.05
							c-0.47-0.08-0.57-0.13-0.59-0.17C133.74,109.36,133.85,109.33,134.32,109.34C134.32,109.34,133.85,109.33,134.32,109.34z"/>
					</g>
					<g>
						<path fill="#111114" d="M134.06,114.14c0.72,0.53,0.29,1.26-0.52,0.87C133.19,114.19,133.18,114.22,134.06,114.14
							L134.06,114.14z"/>
					</g>
					<g>
						<path fill="#111114" d="M138.07,115.78c-1.49-0.2,0.4,0.01,0.6,0.03c-0.02,0-0.01,0-0.03,0c-0.33,0-0.81-0.05-1.13-0.11
							c-0.02,0-0.02-0.01-0.03-0.01C137.68,115.71,139.57,115.89,138.07,115.78L138.07,115.78z"/>
					</g>
					<g>
						<path fill="#111114" d="M139.47,112.51c0.91-0.2,0.28-0.7,0.31,0.24C139.54,113.68,138.64,112.97,139.47,112.51L139.47,112.51
							z"/>
					</g>
					<g>
						<path fill="#111114" d="M142.66,114.29c0.47,0.08,0.57,0.13,0.59,0.17c-0.02,0.03-0.13,0.06-0.61,0.05
							c-0.47-0.08-0.57-0.13-0.59-0.17C142.08,114.3,142.19,114.28,142.66,114.29C142.66,114.29,142.19,114.28,142.66,114.29z"/>
					</g>
					<g>
						<path fill="#111114" d="M142.04,117.8c0.47,0.06,0.57,0.08,0.59,0.09c-0.02,0.01-0.13,0.01-0.6-0.03
							c-0.47-0.06-0.58-0.08-0.59-0.09C141.46,117.77,141.57,117.77,142.04,117.8C142.04,117.8,141.57,117.77,142.04,117.8z"/>
					</g>
					<g>
						<path fill="#111114" d="M129.68,114.08c0.48,0,0.59,0.03,0.61,0.08c-0.01,0.05-0.11,0.1-0.58,0.2c-0.48,0-0.59-0.03-0.61-0.08
							C129.11,114.23,129.21,114.17,129.68,114.08C129.68,114.08,129.21,114.17,129.68,114.08z"/>
					</g>
					<g>
						<path fill="#111114" d="M128.64,118.58c0.81-0.05,0.82,0.04,0.03,0.22C127.86,118.86,127.85,118.77,128.64,118.58
							L128.64,118.58z"/>
					</g>
					<g>
						<path fill="#111114" d="M125.27,114.9c0.14,0.8,0.03,0.84-0.28,0.08C124.85,114.17,124.96,114.14,125.27,114.9L125.27,114.9z"
							/>
					</g>
					<g>
						<path fill="#111114" d="M118.81,112.25c-0.33,0.74-0.42,0.71-0.21-0.07C118.93,111.44,119.01,111.47,118.81,112.25
							L118.81,112.25z"/>
					</g>
					<g>
						<path fill="#111114" d="M123.38,106.09c0.47,0.07,0.57,0.11,0.59,0.14c-0.02,0.03-0.13,0.04-0.6,0.02
							c-0.47-0.07-0.57-0.11-0.59-0.14C122.8,106.08,122.9,106.07,123.38,106.09C123.38,106.09,122.9,106.07,123.38,106.09z"/>
					</g>
					<g>
						<path fill="#111114" d="M116.74,105.71c0.74-0.35,0.81-0.24,0.19,0.29C116.19,106.35,116.12,106.23,116.74,105.71
							L116.74,105.71z"/>
					</g>
					<g>
						<path fill="#111114" d="M118.34,105.53c0.66-0.46,0.73-0.39,0.14,0.18C117.82,106.17,117.76,106.09,118.34,105.53
							L118.34,105.53z"/>
					</g>
					<g>
						<path fill="#111114" d="M112.64,104.53c0.81-0.05,0.82,0.04,0.03,0.22C111.86,104.8,111.86,104.71,112.64,104.53
							L112.64,104.53z"/>
					</g>
					<g>
						<path fill="#111114" d="M115.09,107.59c0.81,0.14,0.81,0.34,0,0.49C114.28,107.94,114.29,107.74,115.09,107.59L115.09,107.59z
							"/>
					</g>
					<g>
						<path fill="#111114" d="M118.38,108.52c0.38,0.28,0.46,0.35,0.47,0.38c-0.03,0.01-0.13-0.03-0.53-0.28
							c-0.39-0.28-0.46-0.35-0.47-0.38C117.87,108.24,117.97,108.28,118.38,108.52C118.38,108.52,117.97,108.28,118.38,108.52z"/>
					</g>
					<g>
						<path fill="#111114" d="M115.12,111.17c-0.47,0.86-1.46,0.63-1.48-0.36C114.47,110.31,114.61,110.35,115.12,111.17
							L115.12,111.17z"/>
					</g>
					<g>
						<path fill="#111114" d="M111.29,107.81c0.37-0.29,0.46-0.35,0.49-0.35c-0.01,0.02-0.08,0.1-0.44,0.41
							c-0.38,0.29-0.47,0.35-0.49,0.35C110.86,108.2,110.93,108.12,111.29,107.81C111.29,107.81,110.93,108.12,111.29,107.81z"/>
					</g>
					<g>
						<path fill="#111114" d="M119.26,97.33c0.27-0.07,0.44-0.07,0.57-0.03c0.3,0.06,0.29,0.53-0.01,0.58
							c-0.26,0.03-0.84,0.28-1.03-0.01c-0.09-0.13-0.15-0.32-0.11-0.7c0.3-0.24,0.49-0.3,0.65-0.29c0.15,0.02,0.27,0.11,0.34,0.28
							l-0.62,0.7C119.07,97.73,119.12,97.57,119.26,97.33L119.26,97.33z"/>
					</g>
					<g>
						<path fill="#111114" d="M117.27,93.94l0.7,0.04l-1.07,0.03l0.7-0.09c0.01,0.01,0.39,0.59,0.39,0.6
							c0.19,0.3,0.11,0.69-0.19,0.88c-0.54,0.38-1.25-0.32-0.89-0.86C116.91,94.54,117.27,93.94,117.27,93.94L117.27,93.94z"/>
					</g>
					<g>
						<path fill="#111114" d="M119.75,88.99c0.39-0.03,0.69-0.07,0.65,0.16c-0.17,0.26-0.27,0.71-0.46,0.59
							c-0.1-0.04-0.22-0.12-0.43-0.35c-0.1-0.32-0.24-0.65,0.01-0.68c0,0-0.24,0.67-0.24,0.67
							C119.33,89.3,119.44,89.18,119.75,88.99L119.75,88.99z"/>
					</g>
					<g>
						<path fill="#111114" d="M121.68,99.2c0.83-0.26,0.78-0.31,0.65,0.55C121.72,100.39,121.15,99.9,121.68,99.2L121.68,99.2z"/>
					</g>
					<g>
						<path fill="#111114" d="M123.66,100.59c0.75,0.57,0.69,0.13,0.12,0.88C122.86,101.73,122.71,100.58,123.66,100.59
							L123.66,100.59z"/>
					</g>
					<g>
						<path fill="#111114" d="M125.86,106.66c0.45-0.15,0.55-0.17,0.58-0.16c-0.01,0.03-0.1,0.08-0.54,0.27
							c-0.45,0.15-0.56,0.17-0.58,0.16C125.34,106.91,125.43,106.85,125.86,106.66C125.86,106.66,125.43,106.85,125.86,106.66z"/>
					</g>
					<g>
						<path fill="#111114" d="M122.25,111.93c0.47,0.06,0.57,0.09,0.59,0.11c-0.02,0.02-0.13,0.02-0.6-0.01
							c-0.47-0.07-0.58-0.09-0.59-0.11C121.67,111.91,121.78,111.91,122.25,111.93C122.25,111.93,121.78,111.91,122.25,111.93z"/>
					</g>
					<g>
						<path fill="#111114" d="M130.46,89.3c0.81-0.05,0.82,0.04,0.03,0.22C129.68,89.56,129.67,89.47,130.46,89.3L130.46,89.3z"/>
					</g>
					<g>
						<path fill="#111114" d="M134.48,90.88c0.47,0.06,0.57,0.09,0.59,0.11c-0.02,0.02-0.13,0.02-0.6-0.01
							c-0.47-0.07-0.58-0.09-0.59-0.11C133.9,90.86,134.01,90.86,134.48,90.88C134.48,90.88,134.01,90.86,134.48,90.88z"/>
					</g>
					<g>
						<path fill="#111114" d="M134.54,105.91c0.77-0.29,0.89-0.1,0.28,0.46C134.05,106.66,133.94,106.47,134.54,105.91
							L134.54,105.91z"/>
					</g>
					<g>
						<path fill="#111114" d="M139.75,107.07c0.46-0.13,0.57-0.13,0.6-0.1c0,0.04-0.09,0.12-0.52,0.33c-0.46,0.13-0.57,0.13-0.6,0.1
							C139.24,107.35,139.32,107.27,139.75,107.07C139.75,107.07,139.32,107.27,139.75,107.07z"/>
					</g>
					<g>
						<path fill="#111114" d="M143.08,111.14c0.48,0.08,0.53,0.76,0.05,0.57c-0.31-0.12-0.15-0.72-0.32-0.88
							c-0.13-0.15-0.26-0.04-0.14,0.12C142.72,111.02,142.83,111.11,143.08,111.14L143.08,111.14z"/>
					</g>
					<g>
						<path fill="#111114" d="M145.34,111.26c0.47-0.08,0.58-0.07,0.6-0.05c-0.01,0.03-0.11,0.08-0.57,0.22
							c-0.47,0.08-0.58,0.07-0.6,0.05C144.78,111.44,144.88,111.39,145.34,111.26C145.34,111.26,144.88,111.39,145.34,111.26z"/>
					</g>
					<g>
						<path fill="#111114" d="M145.08,116.16c0.7,0.62-0.19,1.24-0.53,0.37C144.64,115.61,144.19,115.93,145.08,116.16
							L145.08,116.16z"/>
					</g>
					<g>
						<path fill="#111114" d="M139.59,118.02c-0.23,1.01-1.37,1.15-1.82,0.21C138.49,117.5,138.73,117.47,139.59,118.02
							L139.59,118.02z"/>
					</g>
					<g>
						<path fill="#111114" d="M134.72,117.35c0.59-0.02,0.95,0.22,0.68,0.63c-0.15,0.13-0.32,0.43-0.57,0.35
							c-0.13-0.04-0.28-0.1-0.5-0.32c-0.04-0.42-0.05-0.69,0.28-0.79c0,0-0.28,0.72-0.28,0.72
							C134.32,117.79,134.4,117.61,134.72,117.35L134.72,117.35z"/>
					</g>
					<g>
						<path fill="#111114" d="M132.26,117.43c0.31,0.02,0.48-0.02,0.63,0.13c0.11,0.21,0.03,0.47-0.18,0.58
							c-0.07,0.05-0.39,0.09-0.47,0.11c-0.19-0.06-0.16-0.31-0.2-0.62c0.11-0.3,0.14-0.54,0.34-0.56c0,0-0.65,0.69-0.65,0.69
							C131.81,117.58,131.98,117.55,132.26,117.43L132.26,117.43z"/>
					</g>
					<g>
						<path fill="#111114" d="M131.74,110.77c1.58-0.36,1.02,1.79-0.15,0.78c-0.3-0.23-0.23-0.5-0.05-0.91
							c0.3-0.11,0.47-0.11,0.62-0.09c0.14,0.03,0.23,0.11,0.28,0.22l-0.9,0.72C131.5,111.33,131.52,111.12,131.74,110.77
							L131.74,110.77z"/>
					</g>
					<g>
						<path fill="#111114" d="M129.74,108.08c0.73,0.33,0.71,0.42-0.08,0.21C128.93,107.95,128.96,107.86,129.74,108.08
							L129.74,108.08z"/>
					</g>
					<g>
						<path fill="#111114" d="M128.08,114.95c0.55,0.7-0.08,1.27-0.71,0.63C127.27,114.7,127.22,114.76,128.08,114.95L128.08,114.95
							z"/>
					</g>
					<g>
						<path fill="#111114" d="M126.47,117.55c0.81,0.05,0.83,0.18,0.02,0.33C125.67,117.83,125.67,117.7,126.47,117.55
							L126.47,117.55z"/>
					</g>
					<g>
						<path fill="#111114" d="M112.36,99.79c0.27-0.13,0.42-0.24,0.61-0.18c0.22,0.15,0.23,0.49,0.02,0.66
							c-0.24,0.17-0.36,0.41-0.51,0.23c-0.34-0.32-0.33-1.08-0.11-1.09c0,0-0.32,0.94-0.32,0.94
							C112.04,100.15,112.17,100.03,112.36,99.79L112.36,99.79z"/>
					</g>
					<g>
						<path fill="#111114" d="M109.58,103.74c0.37,0.01,0.61,0.01,0.71,0.28c0.08,0.35-0.03,0.75-0.44,0.79
							c-0.37,0.03-0.46-0.27-0.53-0.66C109.42,103.93,109.5,103.81,109.58,103.74c0.08-0.09,0.16-0.12,0.22-0.13l-0.64,0.77
							C109.09,104.1,109.28,103.97,109.58,103.74L109.58,103.74z"/>
					</g>
					<g>
						<path fill="#111114" d="M108.16,99.53c0.71-0.41,0.83-0.26,0.29,0.35C107.73,100.3,107.62,100.15,108.16,99.53L108.16,99.53z"
							/>
					</g>
					<g>
						<path fill="#111114" d="M109.47,95.6c0.33-0.73,0.42-0.71,0.21,0.07C109.34,96.42,109.26,96.38,109.47,95.6L109.47,95.6z"/>
					</g>
					<g>
						<path fill="#111114" d="M120.24,91.41c0.23-0.42,0.3-0.5,0.33-0.51c0.02,0.03,0,0.14-0.18,0.58c-0.23,0.42-0.3,0.5-0.33,0.51
							C120.04,91.96,120.06,91.85,120.24,91.41C120.24,91.41,120.06,91.85,120.24,91.41z"/>
					</g>
					<g>
						<path fill="#111114" d="M121.96,86.01c0.1,0.81-0.1,0.89-0.5,0.17C121.35,85.36,121.56,85.29,121.96,86.01L121.96,86.01z"/>
					</g>
					<g>
						<path fill="#111114" d="M125.46,86.25c0.58-0.59,0.79-0.46,0.51,0.32C125.39,87.16,125.18,87.02,125.46,86.25L125.46,86.25z"
							/>
					</g>
					<g>
						<path fill="#111114" d="M128.42,89.69c0.08,0.82-0.18,0.91-0.62,0.21C127.73,89.07,127.98,88.99,128.42,89.69L128.42,89.69z"
							/>
					</g>
					<g>
						<path fill="#111114" d="M117.54,86.33c0.73,0.41,0.66,0.72-0.18,0.74C116.63,86.66,116.71,86.35,117.54,86.33L117.54,86.33z"
							/>
					</g>
					<g>
						<path fill="#111114" d="M113.25,87.53c0.47,0.07,0.57,0.11,0.59,0.14c-0.02,0.03-0.13,0.04-0.6,0.02
							c-0.47-0.07-0.57-0.11-0.59-0.14C112.67,87.52,112.78,87.51,113.25,87.53C113.25,87.53,112.78,87.51,113.25,87.53z"/>
					</g>
					<g>
						<path fill="#111114" d="M112.12,90.62c0.9-0.04,0.93-0.01,0.79,0.88C112.14,92.01,111.53,91.32,112.12,90.62L112.12,90.62z"/>
					</g>
					<g>
						<path fill="#111114" d="M114.47,92.84c0.66-0.18,0.76,0.82,0.15,0.83c-0.16,0.01-0.36-0.08-0.43-0.33
							c0.04-0.26-0.05-0.38-0.11-0.44c-0.15-0.12-0.22,0.01-0.04,0.07C114.12,93,114.27,93.01,114.47,92.84L114.47,92.84z"/>
					</g>
					<g>
						<path fill="#111114" d="M109.62,91.88c0.47,0.06,0.57,0.08,0.59,0.09c-0.02,0.01-0.13,0.01-0.6-0.03
							c-0.47-0.06-0.58-0.08-0.59-0.09C109.04,91.84,109.15,91.84,109.62,91.88C109.62,91.88,109.15,91.84,109.62,91.88z"/>
					</g>
					<g>
						<path fill="#111114" d="M109.85,89.09c0.34,0.33,0.4,0.42,0.4,0.46c-0.03,0.01-0.14-0.03-0.52-0.31
							c-0.34-0.33-0.4-0.42-0.4-0.46C109.37,88.77,109.47,88.81,109.85,89.09C109.85,89.09,109.47,88.81,109.85,89.09z"/>
					</g>
					<g>
						<path fill="#111114" d="M110.72,97.73c0.47,0.06,0.57,0.08,0.59,0.09c-0.02,0.01-0.13,0.01-0.6-0.03
							c-0.47-0.06-0.58-0.08-0.59-0.09C110.14,97.69,110.25,97.69,110.72,97.73C110.72,97.73,110.25,97.69,110.72,97.73z"/>
					</g>
					<g>
						<path fill="#111114" d="M107.06,96.89c0.64-0.51,0.74-0.42,0.25,0.24C106.66,97.64,106.57,97.54,107.06,96.89L107.06,96.89z"
							/>
					</g>
					<g>
						<path fill="#111114" d="M106.89,93.77c0.06-0.47,0.08-0.57,0.09-0.59c0.01,0.02,0.01,0.13-0.03,0.6
							c-0.06,0.47-0.08,0.58-0.09,0.59C106.85,94.35,106.85,94.24,106.89,93.77C106.89,93.77,106.85,94.24,106.89,93.77z"/>
					</g>
					<g>
						<path fill="#111114" d="M118.53,101.44c0.94,0.03,0.98,0.07,0.88,1C118.58,102.92,117.95,102.19,118.53,101.44L118.53,101.44z
							"/>
					</g>
					<g>
						<path fill="#111114" d="M120.63,106.46c0.48,0,0.59,0.03,0.61,0.08c-0.01,0.05-0.11,0.1-0.58,0.2c-0.48,0-0.59-0.03-0.61-0.08
							C120.06,106.61,120.16,106.56,120.63,106.46C120.63,106.46,120.16,106.56,120.63,106.46z"/>
					</g>
					<g>
						<path fill="#111114" d="M124.67,112.66c0.47,0.06,0.57,0.09,0.59,0.11c-0.02,0.02-0.13,0.02-0.6-0.01
							c-0.47-0.07-0.58-0.09-0.59-0.11C124.09,112.64,124.2,112.63,124.67,112.66C124.67,112.66,124.2,112.63,124.67,112.66z"/>
					</g>
					<g>
						<path fill="#111114" d="M122.7,115.12c0.81-0.05,0.82,0.03,0.03,0.22C121.93,115.39,121.92,115.3,122.7,115.12L122.7,115.12z"
							/>
					</g>
					<g>
						<path fill="#111114" d="M136.31,111.76c0.45-0.15,0.55-0.17,0.58-0.16c-0.01,0.03-0.1,0.08-0.54,0.27
							c-0.45,0.15-0.56,0.17-0.58,0.16C135.78,112.01,135.87,111.95,136.31,111.76C136.31,111.76,135.87,111.95,136.31,111.76z"/>
					</g>
					<g>
						<path fill="#111114" d="M130.29,118.86c0.47,0.06,0.57,0.08,0.59,0.09c-0.02,0.01-0.13,0.01-0.6-0.03
							c-0.47-0.06-0.58-0.08-0.59-0.09C129.71,118.82,129.82,118.82,130.29,118.86C130.29,118.86,129.82,118.82,130.29,118.86z"/>
					</g>
					<g>
						<path fill="#111114" d="M146.41,108.28c0.36,0.73,0.25,0.81-0.29,0.19C145.76,107.73,145.87,107.66,146.41,108.28
							L146.41,108.28z"/>
					</g>
					<g>
						<path fill="#111114" d="M142.13,119.71c0.81-0.11,0.89,0.1,0.17,0.5C141.48,120.32,141.42,120.11,142.13,119.71L142.13,119.71
							z"/>
					</g>
					<g>
						<path fill="#111114" d="M133.09,103.31c0.5-0.21,0.87,0.42,0.37,0.59c-0.12,0.03-0.29,0.01-0.47-0.17
							c-0.14-0.26-0.3-0.42-0.45-0.34C132.63,103.54,132.84,103.47,133.09,103.31L133.09,103.31z"/>
					</g>
					<g>
						<path fill="#111114" d="M128.87,103.71c0.47,0.06,0.57,0.09,0.59,0.11c-0.02,0.02-0.13,0.02-0.6-0.01
							c-0.47-0.07-0.58-0.09-0.59-0.11C128.29,103.69,128.4,103.68,128.87,103.71C128.87,103.71,128.4,103.68,128.87,103.71z"/>
					</g>
					<g>
						<path fill="#111114" d="M115.65,103.75c0.02,0.87-0.4,1.05-1.02,0.44C114.61,103.31,115.03,103.14,115.65,103.75
							L115.65,103.75z"/>
					</g>
					<g>
						<path fill="#111114" d="M112.81,109.48c0.43,0.21,0.51,0.27,0.52,0.31c-0.03,0.02-0.14,0.01-0.59-0.15
							c-0.43-0.21-0.52-0.27-0.52-0.31C112.26,109.31,112.37,109.33,112.81,109.48C112.81,109.48,112.37,109.33,112.81,109.48z"/>
					</g>
					<g>
						<path fill="#111114" d="M128.7,86.95c0.63-0.54,0.84-0.38,0.5,0.38C128.57,87.87,128.36,87.71,128.7,86.95L128.7,86.95z"/>
					</g>
					<g>
						<path fill="#111114" d="M132.55,89.07c0.45-0.15,0.56-0.17,0.58-0.16c-0.01,0.03-0.1,0.08-0.54,0.27
							c-0.45,0.15-0.56,0.17-0.58,0.16C132.02,89.31,132.11,89.25,132.55,89.07C132.55,89.07,132.11,89.25,132.55,89.07z"/>
					</g>
				</g>
			</g>
			<g>
				<g>
					
						<path fill="#FF97B5" stroke="#111114" stroke-width="1.2" stroke-linecap="round" stroke-linejoin="round" stroke-miterlimit="10" d="
						M119.81,138.64l2.29-3.19c1.03-1.43,1.93-2.95,2.7-4.53l0.65-1.34c1.02-2.1,1.74-4.34,2.13-6.65v0
						c5.95,2.74,11.63,14.5,13.55,18.79c0.47,1.05,0.7,2.17,0.7,3.32c-0.01,6.07-0.81,25.76-10.83,22.26c0,0-4.05,5.19-7.76-0.55
						C119.53,160.99,116.08,147.58,119.81,138.64z"/>
				</g>
				<g>
					<path fill="#111114" d="M128.61,125.39c9.8,4.34,9.99,17.12,7.68,26.1C136.77,142.25,137.2,131.13,128.61,125.39L128.61,125.39
						z"/>
				</g>
				<g>
					<path fill="#111114" d="M129.29,126.63c3.72,4.62,5.31,11.08,4.14,16.9C132.88,137.6,131.54,132.14,129.29,126.63
						L129.29,126.63z"/>
				</g>
				<g>
					<path fill="#111114" d="M128.34,126.08c0.94,10.99,1.65,21.89,2.14,32.9C128.35,148.17,127.64,137.08,128.34,126.08
						L128.34,126.08z"/>
				</g>
				<g>
					<path fill="#111114" d="M125.31,131.24c0.24,6.28,0.03,12.43-0.66,18.68C123.68,143.71,123.91,137.36,125.31,131.24
						L125.31,131.24z"/>
				</g>
			</g>
			<g>
				
					<path fill="#FF97B5" stroke="#111114" stroke-width="1.2" stroke-linecap="round" stroke-linejoin="round" stroke-miterlimit="10" d="
					M79.55,104.7c0,0,21.97-1,27.45,0.16l5.45,7.7c-13.81,14.15-28.19,14.95-33.4,14.43c-5.22-0.52-5.23-8.72-5.23-8.72
					c-6.85-1.74-7.13-5.98-7.13-5.98C65.75,105.88,79.55,104.7,79.55,104.7z"/>
				<g>
					<path fill="#111114" d="M110.06,108.68c-10.36-0.66-20.55-0.51-30.89,0.45C89.2,106.52,99.96,106.37,110.06,108.68
						L110.06,108.68z"/>
				</g>
				<g>
					<path fill="#111114" d="M110.63,110.05c-7.69,3.03-16.03,4.51-24.29,4.29C94.49,112.9,102.47,111.5,110.63,110.05
						L110.63,110.05z"/>
				</g>
			</g>
		</g>
		<g>
			<g>
				<g>
					
						<path fill="#00D675" stroke="#111114" stroke-width="1.2" stroke-linecap="round" stroke-linejoin="round" stroke-miterlimit="10" d="
						M103.9,148.71c0,0-14.46,38.56-15.84,59.66c0,0-14.23,105.94-11.34,110.39"/>
					
						<path fill="#00D675" stroke="#111114" stroke-width="1.2" stroke-linecap="round" stroke-linejoin="round" stroke-miterlimit="10" d="
						M96.61,145.9c0,0-10.1,29.23-13.43,51.6S68.75,316.36,70.67,318.15"/>
				</g>
				
					<path fill="#00D675" stroke="#111114" stroke-width="1.2" stroke-linecap="round" stroke-linejoin="round" stroke-miterlimit="10" d="
					M89.91,164.79c0,0-11.15-18.26-11.67-24.13c0,0-2.9-10.83-15.3-11.23s-14.48-1.49-14.48-1.49l-2.77-0.28c0,0-1.4,2.87,1.29,3.74
					c2.69,0.87,3.29-0.27,4.91,0.49c1.62,0.76,6.18-0.26,6.22,0.62c0.05,0.88,3.62,2.34,3.62,2.34l4.32,2.5l5.21,4.28l4.56,3.18
					l13.17,26.21"/>
			</g>
			<g>
				
					<path fill="#00D675" stroke="#111114" stroke-width="1.2" stroke-linecap="round" stroke-linejoin="round" stroke-miterlimit="10" d="
					M82.61,201.55c-0.33-0.55-4.79-11.38-4.92-13.47c-0.14-2.09,6.13-21.17-11.34-28.46c-17.47-7.29-46.88-8.27-48.82-10.13
					s3.09,13.77,16.01,28.26c12.92,14.49,32.26,25.74,42.47,14.97l5.78,15.03"/>
				<g>
					<g>
						<path fill="#111114" d="M74.86,189.48c-4.58-10.36-16.6-12.68-26.22-16.3c-9.97-3.93-18.97-10.51-25.44-19.06
							c6.99,8.02,15.84,14.4,25.77,18.22C58.48,175.97,70.97,178.73,74.86,189.48L74.86,189.48z"/>
					</g>
					<g>
						<path fill="#111114" d="M72.58,185.05c0.54-6.13,1.69-12.43-1.35-18.11C75.43,171.96,74.39,179.27,72.58,185.05L72.58,185.05z
							"/>
					</g>
					<g>
						<path fill="#111114" d="M73.7,187.94c-5.84,3.74-13.34,5.09-20.12,3.6C60.53,191.75,67.26,190.55,73.7,187.94L73.7,187.94z"/>
					</g>
					<g>
						<path fill="#111114" d="M66.57,164.06c3.75,4.92,4.67,12.07,2.28,17.78C69.95,175.75,69.18,169.67,66.57,164.06L66.57,164.06z
							"/>
					</g>
					<g>
						<path fill="#111114" d="M71.69,184.45c-6.01,3.64-13.84,4.44-20.46,2.09C58.17,187.62,65.1,186.91,71.69,184.45L71.69,184.45z
							"/>
					</g>
					<g>
						<path fill="#111114" d="M67.41,180.9c-3.47,2.53-8.14,2.01-12.21,2.19c-4.18-0.03-8.36-0.33-12.47-1.12
							c4.18,0.07,8.32,0.21,12.47,0.21C59.27,182.01,63.63,182.77,67.41,180.9L67.41,180.9z"/>
					</g>
					<g>
						<path fill="#111114" d="M65.3,178.75c0.91-6.12-4.73-10.89-4.36-16.94C61.81,167.55,67.5,172.68,65.3,178.75L65.3,178.75z"/>
					</g>
					<g>
						<path fill="#111114" d="M61.5,177.14c-0.25-6.55-7.25-11-6.57-17.73C55.51,165.86,62.51,170.38,61.5,177.14L61.5,177.14z"/>
					</g>
					<g>
						<path fill="#111114" d="M57.45,175.62c-0.09-1.63-0.97-2.99-1.96-4.19c-4.24-4.19-5.56-7.18-4.51-13.21
							c0.2,3.11,0.26,6.43,2.09,9.04C54.78,169.72,57.97,172.21,57.45,175.62L57.45,175.62z"/>
					</g>
					<g>
						<path fill="#111114" d="M52.96,174.02c-2.61-4.98-10.04-10.18-6.31-16.43C44.29,164.06,51.47,168.31,52.96,174.02
							L52.96,174.02z"/>
					</g>
					<g>
						<path fill="#111114" d="M47.04,171.89c-0.16-2.41-2.37-3.68-3.95-5.22c-2.94-2.79-3.17-7.46-1.63-11
							c-0.88,4.7,0.03,8.9,3.83,12.02C46.35,168.77,47.34,170.32,47.04,171.89L47.04,171.89z"/>
					</g>
					<g>
						<path fill="#111114" d="M40.8,168.89c0.13-1.87-1.38-2.99-2.42-4.32c-1.85-2.37-2.3-5.9-0.83-8.54
							c-0.46,2.3-0.23,4.59,0.69,6.6C39.01,164.62,41.74,166.47,40.8,168.89L40.8,168.89z"/>
					</g>
					<g>
						<path fill="#111114" d="M35.87,165.82c-0.86-3.4-5.21-7.24-2.27-10.72C31.99,158.95,36.27,162.01,35.87,165.82L35.87,165.82z"
							/>
					</g>
					<g>
						<path fill="#111114" d="M30.91,162.16c0.51-1.58-0.71-2.6-1.44-3.91c-0.87-1.42-0.5-3.24,0.22-4.62
							c0.01-0.04,0.05-0.08,0.09-0.05c0.08,0.02-0.01,0.3-0.01,0.35c0,0-0.09-0.27-0.09-0.27l0.13,0.01
							c-0.07,1.45-0.32,2.88,0.44,4.16C30.95,158.95,32.18,160.93,30.91,162.16L30.91,162.16z"/>
					</g>
					<g>
						<path fill="#111114" d="M26.88,158.09c-0.07-1.47-1.76-3.37-0.17-4.54C26.4,155.09,28.12,156.73,26.88,158.09L26.88,158.09z"
							/>
					</g>
					<g>
						<path fill="#111114" d="M62.66,178.38c-7.18,3.63-15.61-2.7-22.64,1.56C46.6,174.45,55.29,180.73,62.66,178.38L62.66,178.38z"
							/>
					</g>
					<g>
						<path fill="#111114" d="M54.88,175.29c-5.8,2.26-12.75-1.86-18.04,2.22C41.47,172.26,49.01,176.25,54.88,175.29L54.88,175.29z
							"/>
					</g>
					<g>
						<path fill="#111114" d="M47.73,172.55c-4.1,1.55-9.77-2-12.72,2.39c0.25-1.17,1.22-2.12,2.32-2.62
							C40.71,170.79,44.3,172.77,47.73,172.55L47.73,172.55z"/>
					</g>
					<g>
						<path fill="#111114" d="M41.77,169.58c-1.65,1.02-3.78,0.44-5.56,0.37c-1.75-0.15-3.46,0.45-4.9,1.7
							c0.87-1.77,3.01-2.76,4.95-2.6C38.22,169.16,39.89,169.89,41.77,169.58L41.77,169.58z"/>
					</g>
					<g>
						<path fill="#111114" d="M35.62,165.85c-0.72,3.02-4.9,0.6-6.34,2.69c-0.01-0.67,0.57-1.27,1.19-1.54
							C32.17,166.17,34.24,167.39,35.62,165.85L35.62,165.85z"/>
					</g>
					<g>
						<path fill="#111114" d="M31.81,163.2c-1.13,1.89-4.11-0.56-4.99,1.55c-0.27-0.5,0.09-1.17,0.58-1.47
							C28.87,162.35,30.31,163.72,31.81,163.2L31.81,163.2z"/>
					</g>
					<g>
						<path fill="#111114" d="M27.9,159.67c-0.72,0.15-1.41,0.06-2.03,0.32c-0.66,0.23-0.85,0.77-1.17,1.42
							C23.75,159.3,26.5,158.28,27.9,159.67L27.9,159.67z"/>
					</g>
					<g>
						<path fill="#111114" d="M24.96,156.58c-1.12,0.22-1.51,0.27-2.65,0.28C22.63,155.71,24.41,155.53,24.96,156.58L24.96,156.58z"
							/>
					</g>
				</g>
			</g>
			<g>
				
					<path fill="#00D675" stroke="#111114" stroke-width="1.2" stroke-linecap="round" stroke-linejoin="round" stroke-miterlimit="10" d="
					M85.19,230.98c0,0,9.77-19.9,21.32-24.63c0,0,3.71-26.81,29.5-25.1c0,0,32.17,3.72,38.68,7.83c0,0-4.34,5.35-10.13,11.32
					s-23.86,25.83-54.36,12.31c0,0-1.44-2.73-3.19-1.01c-1.75,1.72-4.27-1.9-10.22,8.35c-5.95,10.25-10.89,10.6-12.25,16.14"/>
				<g>
					<g>
						<path fill="#111114" d="M167.84,191.59c-10.01-2.27-20.3-0.11-29.78,3.32c-9.52,3.49-19.01,7.26-27.95,12.11
							c6.42-4.16,13.45-7.29,20.51-10.19C142.22,192.01,155.36,187.85,167.84,191.59L167.84,191.59z"/>
					</g>
					<g>
						<path fill="#111114" d="M112.17,205.77c5.85,3.99,12.63,6.49,19.45,8.26c-3.6-0.08-7.1-1.18-10.42-2.5
							C117.92,210.11,114.6,208.43,112.17,205.77L112.17,205.77z"/>
					</g>
					<g>
						<path fill="#111114" d="M115.85,204.52c7.05,4.73,17.7,1.65,23.34,8.84C132.82,207.23,122.34,210.4,115.85,204.52
							L115.85,204.52z"/>
					</g>
					<g>
						<path fill="#111114" d="M119.94,202.29c7.15,4.42,18,3.25,23.44,9.88c0,0-0.45-0.5-0.45-0.5l0.52,0.42l-0.08,0.08
							c-1.64-1.38-3.52-2.38-5.5-3.13C131.98,206.72,125.02,206.47,119.94,202.29L119.94,202.29z"/>
					</g>
					<g>
						<path fill="#111114" d="M124.1,200.34c7.33,3.5,18.01,1.36,23.16,8.79C141.2,202.66,131.1,205.07,124.1,200.34L124.1,200.34z"
							/>
					</g>
					<g>
						<path fill="#111114" d="M128.09,198.47c5.42-0.55,11,0.8,15.69,3.55c2.64,1.57,5.49,3.76,8.68,3.84
							c-1.07,0.15-2.19,0.02-3.25-0.27c-3.11-0.95-5.76-3.02-8.72-4.23C136.57,199.65,132.37,198.73,128.09,198.47L128.09,198.47z"
							/>
					</g>
					<g>
						<path fill="#111114" d="M134.54,195.7c8.21-1.46,13.69,8.1,21.84,7.1C148.13,205.12,142.53,195.52,134.54,195.7L134.54,195.7z
							"/>
					</g>
					<g>
						<path fill="#111114" d="M140.45,193.62c1.28-0.51,2.77-0.2,4.01,0.32c2.02,1.04,3.28,3.01,5.25,4.1
							c2.94,1.81,6.5,2.52,10.04,2.06c-3.44,1.2-7.41,0.61-10.52-1.29C146.28,197.07,144.4,192.98,140.45,193.62L140.45,193.62z"/>
					</g>
					<g>
						<path fill="#111114" d="M146.66,191.87c3.29-0.6,6.07,1.42,8.27,3.48c2.24,1.9,5.2,2.81,8.26,2.64
							c-2.99,0.92-6.44,0.08-8.83-1.94C152.21,193.99,149.76,191.98,146.66,191.87L146.66,191.87z"/>
					</g>
					<g>
						<path fill="#111114" d="M152.5,190.8c2.62-0.44,5.37,0.4,7.56,1.86c2.13,1.48,3.5,3.97,6.31,4.04
							c-2.74,0.74-4.88-1.93-6.82-3.3C157.46,191.99,155.03,191.07,152.5,190.8L152.5,190.8z"/>
					</g>
					<g>
						<path fill="#111114" d="M161.71,190.74c2.01,0.29,3.8,1.54,4.76,3.32C164.63,193.18,163.18,192.16,161.71,190.74
							L161.71,190.74z"/>
					</g>
					<g>
						<path fill="#111114" d="M164.08,190.78c0.35-1.25,1.62-2.06,2.91-1.83C166.11,189.92,165.34,190.4,164.08,190.78
							L164.08,190.78z"/>
					</g>
					<g>
						<path fill="#111114" d="M110.73,206.36c-0.88-2.52-0.52-5.47,0.95-7.71C111.4,201.32,111.11,203.7,110.73,206.36
							L110.73,206.36z"/>
					</g>
					<g>
						<path fill="#111114" d="M114.12,204.78c-0.78-5.11,0.59-10.64,3.67-14.79C115.82,194.78,114.62,199.61,114.12,204.78
							L114.12,204.78z"/>
					</g>
					<g>
						<path fill="#111114" d="M117.45,202.91c-0.01-6.02,2.23-12.13,6.13-16.72C120.72,191.51,118.7,197,117.45,202.91
							L117.45,202.91z"/>
					</g>
					<g>
						<path fill="#111114" d="M121.99,200.84c-0.63-6.49,3.08-13.38,8.85-16.41C125.85,188.58,122.72,194.38,121.99,200.84
							L121.99,200.84z"/>
					</g>
					<g>
						<path fill="#111114" d="M126.59,198.8c0.93-5.53,4.3-10.75,8.97-13.86C131.72,189.04,128.76,193.6,126.59,198.8L126.59,198.8z
							"/>
					</g>
					<g>
						<path fill="#111114" d="M131.95,196.44c1.16-4.69,4.24-8.97,8.32-11.56C137.01,188.46,134.3,192.2,131.95,196.44
							L131.95,196.44z"/>
					</g>
					<g>
						<path fill="#111114" d="M137.09,194.59c1.68-3.77,4.3-7.12,7.58-9.63C142.29,188.35,139.82,191.47,137.09,194.59
							L137.09,194.59z"/>
					</g>
					<g>
						<path fill="#111114" d="M141.52,193.53c1.86-3.07,3.99-5.82,6.51-8.39C146.54,188.41,144.31,191.28,141.52,193.53
							L141.52,193.53z"/>
					</g>
					<g>
						<path fill="#111114" d="M145.81,192.04c1.27-2.55,3.35-4.65,5.9-5.93C149.94,188.36,148.05,190.26,145.81,192.04
							L145.81,192.04z"/>
					</g>
					<g>
						<path fill="#111114" d="M151.53,190.91c1.21-1.92,2.49-3.48,4.14-5.04C155.1,188.06,153.56,189.93,151.53,190.91
							L151.53,190.91z"/>
					</g>
					<g>
						<path fill="#111114" d="M156.19,190.41c0.93-1.54,1.89-2.66,3.29-3.8C159.19,188.38,157.89,189.87,156.19,190.41
							L156.19,190.41z"/>
					</g>
					<g>
						<path fill="#111114" d="M160.34,190.28c0.27-1.25,0.85-2.09,1.93-2.78C162.29,188.78,161.54,189.85,160.34,190.28
							L160.34,190.28z"/>
					</g>
				</g>
			</g>
		</g>
	</g>
</g>
</svg>
