<?xml version="1.0" encoding="UTF-8"?>
<svg id="_오른쪽_위" data-name="오른쪽_위" xmlns="http://www.w3.org/2000/svg" version="1.1" viewBox="0 0 142.37 169.02">
  <defs>
    <style>
      .cls-1 {
        fill: #00d675;
      }

      .cls-1, .cls-2, .cls-3 {
        stroke: #111114;
        stroke-linecap: round;
        stroke-linejoin: round;
      }

      .cls-1, .cls-3 {
        stroke-width: 1.13px;
      }

      .cls-2 {
        fill: none;
        stroke-width: 1.2px;
      }

      .cls-3 {
        fill: #ff6a37;
      }

      .cls-4 {
        fill: #111114;
        stroke-width: 0px;
      }
    </style>
  </defs>
  <path class="cls-1" d="M70.84,150.95s7.05-40.63,34.12-39.53c27.08,1.1,36.84-.79,36.84-.79,0,0-40.46,39.36-61.72,44.55,0,0-7.29,2.23-8.96-.66l-.29-3.58Z"/>
  <path class="cls-1" d="M62.23,156.52s-1.8-.29-2.7-7.16c-.9-6.87-2.53-3.07-2.53-3.07-22.61,11.58-18.27-4.7-37.69-7.96C-.12,135.07.57,128.01.57,128.01c3.8,1.27,10.49-2.53,12.12-2.89,38.61-8.58,44.51,6.3,44.51,6.3,0,0,2.86,4.02,1.37,8.06,0,0,1.99,2.46,3.66,13.22v3.81Z"/>
  <path class="cls-4" d="M71.5,153.83c5.57-19.04,26.77-25.55,43.29-32.07,5.72-2.31,11.29-4.96,16.35-8.52-4.69,4.08-10.26,7.03-15.89,9.58-16.27,7.19-36.68,12.84-43.75,31.01h0Z"/>
  <path class="cls-4" d="M60.25,145.41c-2.09-4.54-6.34-7.62-10.91-9.35-9.41-3.54-19.68-1.32-29.51-2.85-4.95-.74-10.01-2.46-13.68-5.95,4.04,3.01,8.97,4.26,13.84,4.79,9.85,1.07,20.33-1.13,29.8,2.93,4.62,1.98,8.89,5.53,10.47,10.43h0Z"/>
  <path class="cls-4" d="M79.8,140.91c-.51-4.82-.49-9.64.1-14.45.52,4.82.48,9.64-.1,14.45h0Z"/>
  <path class="cls-4" d="M85.85,135.93c6.81,1.34,14.41,2.08,20.94,4.48-6.81-1.34-14.41-2.09-20.94-4.48h0Z"/>
  <path class="cls-4" d="M92.55,131.91c-.42-4.48.1-9,.88-13.41.29-1.47.58-2.93.94-4.39l.13.02-.2.62.07-.65s.04-.06.07-.06c.03,2.54-.63,6.36-.89,8.98-.28,2.21-.78,6.66-1,8.88h0Z"/>
  <path class="cls-4" d="M101.5,127.77c4.73,1.61,9.47,2.83,14.13,4.64-4.92-.74-9.85-2.03-14.13-4.64h0Z"/>
  <path class="cls-4" d="M113.75,122.96c3.63,1.23,7.27,2.17,10.84,3.56-3.77-.57-7.56-1.56-10.84-3.56h0Z"/>
  <path class="cls-4" d="M97.85,129.34c.36-5.76,1.26-11.48,2.7-17.07-.36,5.76-1.26,11.48-2.7,17.07h0Z"/>
  <path class="cls-4" d="M105.44,127.44c.36-5.76,1.26-11.48,2.7-17.07-.36,5.76-1.26,11.48-2.7,17.07h0Z"/>
  <path class="cls-4" d="M88.99,133.92c7.27.91,14.47,2.36,21.53,4.35-7.27-.91-14.47-2.37-21.53-4.35h0Z"/>
  <path class="cls-4" d="M84.9,136.09c-.64-5.37-.43-10.86.73-16.15-.07,5.23-.3,10.94-.73,16.15h0Z"/>
  <path class="cls-4" d="M76.32,145.28c5.31.99,10.52,2.4,15.67,4.02-5.38-.54-10.66-1.98-15.67-4.02h0Z"/>
  <path class="cls-4" d="M73.04,150.34c3.47.99,6.76,2.12,10.1,3.49-3.59-.28-7.1-1.5-10.1-3.49h0Z"/>
  <path class="cls-4" d="M78.2,142.73c6.22.78,12.37,2.32,18.12,4.81-5.99-1.43-12.24-2.99-18.12-4.81h0Z"/>
  <path class="cls-4" d="M53.06,137.18c-1.31-4.26-2.89-8.25-4.42-12.43,2.51,3.65,4.2,7.98,4.42,12.43h0Z"/>
  <path class="cls-4" d="M48.51,135.44c-5.16,4.15-11.49,6.9-18.05,7.83,6.28-2.01,12.3-4.62,18.05-7.83h0Z"/>
  <path class="cls-4" d="M38.64,133.2c-2.38-3.55-4.78-6.88-7.39-10.25,3.39,2.58,6.02,6.22,7.39,10.25h0Z"/>
  <path class="cls-4" d="M31.43,133.31c-2.38-3.55-4.78-6.88-7.39-10.25,3.39,2.58,6.02,6.22,7.39,10.25h0Z"/>
  <path class="cls-4" d="M28.52,133.31c-2.38-3.55-4.78-6.88-7.39-10.25,3.39,2.58,6.02,6.22,7.39,10.25h0Z"/>
  <path class="cls-4" d="M24.83,134.46c-2.38-3.55-4.78-6.88-7.39-10.25,3.39,2.58,6.02,6.22,7.39,10.25h0Z"/>
  <path class="cls-4" d="M40.48,133.57c-1.5-3.85-3.3-7.33-5.57-10.77,3.12,2.69,5.18,6.68,5.57,10.77h0Z"/>
  <path class="cls-4" d="M50.85,136.33c-4.21,5.41-11.38,8.12-18.13,7.87,6.63-.89,13.15-3.3,18.13-7.87h0Z"/>
  <path class="cls-4" d="M45.04,133.64c-.93-2.59-1.87-4.88-3.01-7.38,2.05,1.81,3.2,4.66,3.01,7.38h0Z"/>
  <path class="cls-4" d="M55.91,139.36c-2.51,2.66-6.01,4.44-9.64,4.88,3.34-1.53,6.43-3.09,9.64-4.88h0Z"/>
  <path class="cls-4" d="M54.61,137.73c.03-1.87-.71-3.16-.95-4.99,1.26,1.22,2.13,3.44.95,4.99h0Z"/>
  <path class="cls-4" d="M41.02,133.64c-1.87,2.26-4.52,3.86-7.39,4.46,2.45-1.63,4.8-3.05,7.39-4.46h0Z"/>
  <path class="cls-4" d="M35.12,133.64c-1.87,2.26-4.52,3.86-7.39,4.46,2.45-1.63,4.8-3.05,7.39-4.46h0Z"/>
  <path class="cls-4" d="M28.52,133.21c-1.87,2.26-4.52,3.86-7.39,4.46,2.45-1.63,4.8-3.05,7.39-4.46h0Z"/>
  <path class="cls-4" d="M19.31,132.98c-1.87,2.26-4.52,3.86-7.39,4.46,2.45-1.63,4.8-3.05,7.39-4.46h0Z"/>
  <path class="cls-1" d="M71.73,166.74c-2.69-7.99,0-63.18,0-63.18l-9.54-1.61c.12.94,0,66.5,0,66.5l9.54-1.72Z"/>
  <g>
    <path class="cls-3" d="M55.22,99.77s21.24,9.31,46.98,0c0,0,13.11-2.46,16.58-21.5h0c6.72-7.96,2.25-15.12,2.25-15.12.36-1.13.76-2.42,1.22-3.91,4.78-15.58-3.26-19.47-3.26-19.47h0c.45-1.11.93-2.31,1.34-3.44.94-2.56.81-8.84-3.16-13.49h.02s2.9-5.56-5.81-8.27c-8.71-2.71-13.5-3.59-13.5-3.59-22.1-16.88-27.85-8.1-27.85-8.1h0c-2.61-.88-4.56-1.21-4.56-1.21-27.77-3.43-31.83,11.85-31.83,11.85,0,0-17.05,4.54-11.34,31.47,0,0-17.68,31.9,32.92,54.78"/>
    <path class="cls-2" d="M84.88,43.6s-9.43-.79-8.93-4.07,2.98-6.05,2.98-6.05c0,0,6.7-2.99,7.94,1.63,1.24,4.61,2.75,9.32-1.99,8.49Z"/>
    <path class="cls-2" d="M71.69,40.5s.54,9.37,13.02,8.96"/>
    <path class="cls-2" d="M83.71,43.46s7.24,4.62-1.69,12.27"/>
    <path class="cls-2" d="M73.53,55.74c-.33-.33-7.43-5.66-6.21-12.75,0,0,1.91-10.65,8.61-12.31s9.59-2.22,12.19.55,4.82,7.42,3.93,10.92,3.22-.39,1.33,7.32c-1.89,7.71-6.9,7.71-6.9,7.71,0,0-2.11.5-1.77-4.24"/>
    <path class="cls-2" d="M67.65,60.06s2.28-5.77,10.55-4.33,7.63,2.47,16.4,1.46,7.54.59,7.54.59"/>
    <path class="cls-2" d="M93.7,44.98s5.78-6.72,6.11-12.46c0,0,3.55,2.71,3.99,7.97s.43,13.83-4.11,16.37"/>
    <path class="cls-2" d="M99.81,32.53s-2.74-7.59-19.28-6.5c0,0-13.65-4.01-17.42,12.96-3.77,16.97,5.75,19.27,5.75,19.27"/>
    <path class="cls-2" d="M53.9,47.86c.89-.44,8.98-5.88,9.2-8.87"/>
    <path class="cls-2" d="M68.92,28.38c-3.58-4.17-19.68,11.39-19.68,11.39,0,0-4.21-5.55,4.1-15.19,8.32-9.65,13.97-3.11,19.52-4.21s25.61-1.15,24.39,9.13"/>
    <path class="cls-2" d="M93.88,22.97s8.26-1.53,11.25,6.52c2.99,8.06,7.76,7.17,5.77,17.15-2,9.98-4.33,14.86-14.08,15.3-1.34.06-11.09,2.66-19.63,0s-10.01,0-10.01,0"/>
    <path class="cls-2" d="M96.82,61.95s-.67,7.21-8.21,7.1-4.55-.35-12.09-1.01c-7.54-.66-15.41-7.11-16.97-12.53-1.55-5.42-7.32-9-9.2-11.81-1.89-2.82-6.65-17.9-4.77-22.45,1.89-4.55,2.44-9.82-4.77-5.24-7.21,4.58-10.2,16.01-.67,28.98,9.54,12.97,10.31,8.43,19.3,16.3,8.98,7.87,10.76,6.76,10.76,6.76"/>
    <path class="cls-2" d="M46.44,18.77s6.02-10.38,21.21-7.17c15.19,3.22-.55,2.88,15.53,6.21,0,0,1.74,1.22,1.98,2.44"/>
    <path class="cls-2" d="M82.02,17.56s2.49-5.14,10.58-1.95c8.1,3.19,11.31-.55,19.85,3.6s9.09,13.79,7.87,17.12c-1.22,3.33-2.99,7.36-2.99,7.36"/>
    <path class="cls-2" d="M107.7,34.34s8.75,4.11,9.86,10.65.06,12.75-6.18,19.4c-6.24,6.65-14.33,12.5-23.26,8.21"/>
    <path class="cls-2" d="M89.95,68.98c-1.34.06.88,5.16-7.1,6.49-7.98,1.33-25.4-.27-26.84-5.29"/>
    <path class="cls-2" d="M74.93,67.81s-.88,4.95-9.46,2.37-11.79-5.69-18.12-6.13-22.24-23.4-13.23-33.6"/>
    <path class="cls-2" d="M118.99,39.77s8.04,3.89,3.26,19.47c-4.78,15.58-3.7,10.18-8.64,15.89-4.94,5.71-15.8,8.95-14.76,5.55"/>
    <path class="cls-2" d="M101.06,72.45s1.11,7.6-7.36,13c-8.47,5.4-7.54-1.71-19.88.46-12.34,2.16-29.47-10.56-26.46-21.86"/>
    <path class="cls-2" d="M44.98,63.14s-16.97,8.77-22.68-18.16c-5.71-26.93,11.34-31.47,11.34-31.47,0,0,4.06-15.27,31.83-11.85,0,0,16.94,2.88,17.89,14.34"/>
    <path class="cls-2" d="M70.03,2.88s5.75-8.78,27.85,8.1c0,0,4.79.88,13.5,3.59,8.71,2.71,5.81,8.28,5.81,8.28"/>
    <path class="cls-2" d="M121.03,63.14s8.62,13.81-16.06,24.38-28.23,4.86-31.16-1.62"/>
    <path class="cls-2" d="M31.43,62.19s-7.74,3.82,17.71,21.56c25.45,17.74,9.42,9.11,27.61,6.95"/>
    <path class="cls-2" d="M22.3,44.98s-17.68,31.9,32.92,54.78c0,0-8.48-4.43-8.21-17.52"/>
    <path class="cls-2" d="M55.22,99.77s21.24,9.31,46.98,0c0,0,13.11-2.46,16.58-21.5"/>
  </g>
</svg>