<?xml version="1.0" encoding="UTF-8"?>
<svg id="_오른쪽_위" data-name="오른쪽_위" xmlns="http://www.w3.org/2000/svg" version="1.1" viewBox="0 0 66.67 43.83">
  <defs>
    <style>
      .cls-1, .cls-2 {
        fill: #00d675;
      }

      .cls-1, .cls-3 {
        stroke: #111114;
        stroke-linecap: round;
        stroke-linejoin: round;
        stroke-width: 1.11px;
      }

      .cls-2, .cls-4 {
        stroke-width: 0px;
      }

      .cls-3 {
        fill: none;
      }

      .cls-4 {
        fill: #111114;
      }
    </style>
  </defs>
  <path class="cls-1" d="M57.87,15.13c.21,7.84-5.93,17.05-16.09,22.89-10.03,5.76-21.34,6.72-28.62,3.21-4.82-2.33-7.76-6.39-12.6-6.17,9.5-3.54,16.79-14.58,26.21-18.84,7.37-3.34,20.46-4.47,29.62-3.65,0,0,8.56-3.63,6.33-7.44s-5.4-4.19-5.4-4.19l5.77-.37s5.4,3.35,1.77,7.35c-3.63,4-6.99,7.23-6.99,7.23Z"/>
  <g>
    <path class="cls-2" d="M51.12,17.37c-.57,4.73-1.22,9.95-5.24,14.87"/>
    <path class="cls-4" d="M51.18,17.37c.43,2.08-.01,4.08-.82,5.96-.48,1.98-.61,4.09-1.7,5.87-.7,1.19-1.59,2.27-2.73,3.07-.05.03-.12-.02-.09-.08,1.07-2.49,2.29-4.69,3.49-7.08.69-1.19.76-2.54.75-3.88.14-1.31.42-2.61.99-3.89.02-.05.11-.05.12.01h0Z"/>
  </g>
  <g>
    <path class="cls-2" d="M45.04,20.77c-4.41-3.39-10.29-4.79-15.99-4.23"/>
    <path class="cls-4" d="M45.01,20.81c-2.07-.74-3.74-1.82-5.59-2.87-3.37-1.01-6.88-.63-10.35-1.35-.06,0-.07-.1-.01-.12,3.52-1.42,7.18-.25,10.49,1.11,2.13.39,4.24,1.28,5.54,3.14.03.05-.02.12-.07.09h0Z"/>
  </g>
  <g>
    <path class="cls-2" d="M39.09,23.08c-2.41,4.86-5.95,12.58-11.32,16.27"/>
    <path class="cls-4" d="M39.15,23.11c-.5,2.55-1.77,4.73-3.32,6.75-1.26,2.19-2.15,4.63-3.9,6.53-1.15,1.26-2.52,2.38-4.12,3.02-.06.02-.11-.05-.07-.1,2.24-2.44,4.25-5.05,6.36-7.57,2.2-2.63,2.45-6.07,4.94-8.68.04-.05.12,0,.11.05h0Z"/>
  </g>
  <g>
    <path class="cls-2" d="M45.07,20.38c-.94,3.11-3.26,9.12-5.97,12.08"/>
    <path class="cls-4" d="M45.12,20.4c.14,1.84-.64,3.4-1.62,4.83-.69,1.57-.9,3.35-1.88,4.81-.64.96-1.43,1.88-2.48,2.46-.05.03-.11-.03-.09-.08,1.05-2.85,2.81-4.79,4.09-7.34.33-1.69.72-3.3,1.87-4.72.03-.05.11-.02.11.03h0Z"/>
  </g>
  <g>
    <path class="cls-2" d="M38.83,22.66c-2.42-1.35-5.18-2.11-8.02-2.27-.05.08-.09.15-.14.23"/>
    <path class="cls-4" d="M38.8,22.71c-.81.01-1.45-.17-2.06-.49-.55-.43-1.11-.94-1.87-.87-1.47.06-2.74-.09-4.07-.77,0,0,.17-.09.17-.09-.08.06-.16.11-.25.16-.17.07-.1-.36-.04-.4,1.47-.59,3.06-.31,4.35.54.63.46,1.38.39,2.1.49.69.21,1.31.63,1.73,1.33.03.04,0,.11-.06.1h0Z"/>
  </g>
  <g>
    <path class="cls-2" d="M31.94,26.18c-2.85,4.01-6.36,10.24-11.08,12.55"/>
    <path class="cls-4" d="M31.99,26.22c-.66,2.12-1.96,3.79-3.48,5.31-1.27,1.73-2.13,3.77-3.79,5.2-1.09.96-2.38,1.77-3.83,2.06-.06.01-.1-.07-.05-.11,2.1-1.87,3.96-3.88,6-5.77,1.1-.95,1.73-2.22,2.31-3.51.71-1.21,1.59-2.33,2.75-3.25.04-.04.12.01.1.07h0Z"/>
  </g>
  <g>
    <path class="cls-2" d="M31.94,26.18c-.04-1.41-4.84-2.41-5.9-3.13-1.02-.69-2.43-.96-3.92-.75"/>
    <path class="cls-4" d="M31.88,26.18c-.4-.62-1.58-.83-2.21-1.13-1.25-.56-2.36-1.39-3.77-1.75-1.31-.3-2.49-.4-3.77-.95-.05-.02-.06-.09-.02-.12.84-.62,1.95-.75,2.89-.33.94.34,1.34,1.3,2.37,1.53,1.57.35,3.45.46,4.46,1.96.14.22.25.52.16.79-.02.06-.1.06-.12,0h0Z"/>
  </g>
  <g>
    <path class="cls-2" d="M14.69,37.63c3.17-1.64,5.83-6.18,7.43-9.12-1.2-1.13-4.21-1.64-6.13-1.26-1.88.37-3.89,1.49-5.48,3.04"/>
    <path class="cls-4" d="M14.66,37.58c1.53-1.28,2.71-2.78,3.9-4.32,1.25-1.5,2.59-3.02,3.36-4.86,0,0,.04.28.04.28-1.65-1.01-3.96-1.07-5.81-.8-1.93.37-3.8,1.29-5.6,2.46-.05.04-.12-.03-.08-.09,1.89-2.78,5.53-4.42,8.83-3.47,1.09.27,2.17.74,2.99,1.58.07.07.08.18.03.26-1.64,2.53-2.51,5.59-4.95,7.54-.78.66-1.66,1.25-2.65,1.53-.06.02-.11-.07-.06-.11h0Z"/>
  </g>
  <path class="cls-3" d="M55.38,14.89c-12.08,7.37-25.52,12.38-37.23,14.21"/>
</svg>