<?xml version="1.0" encoding="UTF-8"?>
<svg id="_오른쪽_위" data-name="오른쪽_위" xmlns="http://www.w3.org/2000/svg" version="1.1" viewBox="0 0 31.16 36.9">
  <defs>
    <style>
      .cls-1 {
        stroke: #111114;
        stroke-linecap: round;
        stroke-linejoin: round;
        stroke-width: 1.2px;
      }

      .cls-1, .cls-2 {
        fill: #00d675;
      }

      .cls-2, .cls-3 {
        stroke-width: 0px;
      }

      .cls-3 {
        fill: #111114;
      }
    </style>
  </defs>
  <path class="cls-1" d="M26.55,1.19c-5.61,1.59-11.8,3.61-15.8,9.26C5.4,18.02,6.28,29.05.6,36.3c3.97-2.97,8.49-2.67,12.79-4.05,5.48-1.77,10.77-6.57,13.92-12.64,3.15-6.08,4.09-13.29,2.49-19.01"/>
  <g>
    <path class="cls-2" d="M26.95,3.94c.86,3.66.91,7.76.16,11.86"/>
    <path class="cls-3" d="M27.01,3.93c.98,1.34,1.01,2.9.76,4.43.07,1.51.59,3.02.36,4.54-.14,1-.41,2-.96,2.91-.03.05-.11.03-.11-.02-.58-2.55.32-4.9.34-7.41-.43-1.46-.8-2.83-.5-4.43,0-.05.08-.07.11-.03h0Z"/>
  </g>
  <g>
    <path class="cls-2" d="M24.67,8.15c-3.6-1.35-8.01-.71-11.93,1.73"/>
    <path class="cls-3" d="M24.65,8.2c-1.67.08-3.02-.28-4.57-.54-1.52.04-2.93.95-4.33,1.4-.95.32-1.9.65-2.98.88-.05.01-.1-.06-.06-.1,1.76-2.3,4.68-2.59,7.35-2.55,1.57-.43,3.34-.37,4.63.81.04.04.02.11-.04.11h0Z"/>
  </g>
  <g>
    <path class="cls-2" d="M22.09,11.61c.19,4.03-.65,8.38-2.38,12.38"/>
    <path class="cls-3" d="M22.15,11.6c.73,1.59.45,3.24-.11,4.78-.24,1.59-.06,3.27-.64,4.8-.37,1.01-.88,1.99-1.64,2.82-.04.04-.11.01-.11-.05.07-2.75,1.48-5.02,2.02-7.63-.12-1.61-.22-3.12.36-4.73.01-.05.1-.06.12,0h0Z"/>
  </g>
  <g>
    <path class="cls-2" d="M24.58,7.85c.37,2.5.26,5.22-.32,7.91"/>
    <path class="cls-3" d="M24.63,7.84c.49.6.67,1.29.61,1.97-.2.68-.42,1.32-.16,2.03.37,1.38.19,2.81-.77,3.94-.03.04-.1.02-.11-.02-.23-.72-.25-1.38-.22-2.03.02-.97.65-1.92.62-2.9-.34-.99-.59-1.88-.08-2.97.02-.05.08-.06.11-.02h0Z"/>
  </g>
  <g>
    <path class="cls-2" d="M21.81,11.39c-1.9-.2-3.94.15-5.91,1.02,0,.08,0,.15,0,.23"/>
    <path class="cls-3" d="M21.8,11.45c-.54.34-1,.43-1.49.39-.48-.15-1-.4-1.48-.06-.91.62-1.73.94-2.85.82l.12-.19c-.04.08-.08.15-.14.23-.1.12-.27-.19-.27-.26.68-1.03,1.87-1.41,3.04-1.14.58.16,1.03-.21,1.53-.4.52-.08,1.08.04,1.54.48.03.03.03.09-.01.11h0Z"/>
  </g>
  <g>
    <path class="cls-2" d="M18.97,16.15c-.24,3.58-1.44,7.31-3.4,10.52"/>
    <path class="cls-3" d="M19.03,16.16c.56,1.47.13,2.88-.56,4.16-.38,1.36-.33,2.87-1.03,4.14-.45.84-1.02,1.63-1.82,2.23-.04.03-.11,0-.1-.06.29-2.43,1.82-4.2,2.58-6.41.02-1.43.06-2.74.8-4.08.02-.05.1-.04.12,0h0Z"/>
  </g>
  <g>
    <path class="cls-2" d="M16.45,17.84c-.62-.93-1.58-1.52-2.65-1.62s-2.27.28-3.3,1.06"/>
    <path class="cls-3" d="M16.4,17.87c-.64-.24-1.03-.44-1.41-.77-.3-.45-.8-.83-1.38-.57-.98.34-2.13.92-3.16.74.43-1.28,1.97-1.87,3.19-1.37.3.12.58.23.87.28.29.05.65,0,.96.1.6.24,1.04.84,1.02,1.54,0,.05-.05.08-.1.06h0Z"/>
  </g>
  <g>
    <path class="cls-2" d="M11.87,29.1c1.36-2.33,2.01-5.13,1.75-7.58-1.38-.19-3.87.83-5.14,1.99s-2.24,2.87-2.57,4.61"/>
    <path class="cls-3" d="M11.82,29.07c.56-2.56,1.74-4.92,1.62-7.53,0,0,.15.16.15.16-.86-.07-1.71.37-2.48.77-2.42,1.17-4.04,3.24-5.16,5.66-.02.06-.11.04-.11-.02-.12-2.96,2.09-5.75,4.92-6.5.93-.26,1.9-.38,2.87-.26.08,0,.15.08.16.16.06,1.2.35,2.89.04,4.06-.33,1.32-.94,2.6-1.92,3.57-.04.04-.12,0-.1-.06h0Z"/>
  </g>
  <path class="cls-1" d="M28.52.95c-4.35,8.78-10.4,16.68-17.4,22.69"/>
</svg>