<?xml version="1.0" encoding="UTF-8"?>
<svg id="_오른쪽_위" data-name="오른쪽_위" xmlns="http://www.w3.org/2000/svg" version="1.1" viewBox="0 0 107.94 152.68">
  <defs>
    <style>
      .cls-1 {
        fill: #00d675;
      }

      .cls-1, .cls-2 {
        stroke: #111114;
        stroke-linecap: round;
        stroke-linejoin: round;
        stroke-width: 1.2px;
      }

      .cls-2 {
        fill: none;
      }

      .cls-3 {
        fill: #ff6a37;
      }

      .cls-3, .cls-4 {
        stroke-width: 0px;
      }

      .cls-4 {
        fill: #111114;
      }
    </style>
  </defs>
  <path class="cls-1" d="M.6,146.31c2.06,2.71,4.99,4.76,8.24,5.77,11.38-20.3,25.66-38.97,42.27-55.26-4.66-2.27-6.18-13.79-10.95-10.92-4.39,2.65-6.22,11.01-7.43,15.4-2.13,7.71-11.2,21.98-15.78,28.53-1.06,1.51-15.35,17.8-16.35,16.48Z"/>
  <g>
    <path class="cls-3" d="M101.97,32.8c0-.11.01-.22.02-.33,0-.02,0-.04,0-.06s0-.04,0-.06c1.21-18.07-2.24-25.63-3.33-22.04-1.06,3.49-6.25,8.86-6.55,9.66-.01,0-.02.02-.04.02-.62-3.82-1-7.1-.7-8.14.84-2.97.4-6.32-1.48-4.25-.82.91-4.76,3.73-8.92,6.6-2.07-8.65,7.89-14.51.81-12.78-4.08,1-8.59,3.11-11.7,4.72-.03-1.02-.18-1.92-.42-2.61-.12-5.27-2.93-1.89-2.93-1.89-4.43,8.09-34.34,32.17-34.34,32.17-18.14,21.84-16.36,39.77-10.9,51.63,3.25,7.05,7.78,11.95,10.22,14.26,1.94,2.51,4.24,4.37,6.8,5.37.25.11.5.23.77.34,1.93.8,4.59,1.57,7.92,1.83h0s.01,0,.02,0c2.03.16,4.31.12,6.84-.22h0s.02,0,.04,0c5.69-.77,12.6-3.07,20.66-8.21,0,0,19.4-13.81,22.56-46.74,0,0,1.19-5.78,3.58-11l4.96-6.99c3.76-2.78-.54-2.09-3.92-1.3ZM101.95,32.8s0,0,0-.01h0s0,.01,0,.01Z"/>
    <g>
      <path class="cls-2" d="M33.42,101.22c-19.71-17.18-21.26-43.41-1.54-66.77C41.19,26.18,61.32,10.35,66.63,1.85c.44-.67,1.32-1.49,2.15-1.18.83.53.83,1.84.89,2.77,0,.23.27,1.97.23,2.02-2.27,1.3-3.42,1.03-4.18,3.71-1.6,6.23-2.79,15.51-5.01,20.86-.88,2.32-2.28,5.3-3.99,8.52-5.58,10.45-17.89,20.63-22.46,33.38-3.12,9.09-3.76,23.39,1.21,31.4l-2.05-2.1Z"/>
      <path class="cls-2" d="M72.46,51.38s-32.18,45.92-33.16,54.03"/>
      <path class="cls-2" d="M70.06,21.6c2.2-1.46,15.52-10.33,19.37-13.55.53-.4,1.08-1.37,1.79-.99,1.06,1.01.41,3.75.1,5.14-.27,5.19,3.34,21.09,3.88,23.83"/>
      <path class="cls-2" d="M92.09,20.05c1.55-2.43,5.59-6.55,6.51-9.56.16-.45.21-.75.54-.99,3.16.43,3.43,15.6,2.82,23.3"/>
      <path class="cls-2" d="M66.25,8.26s8.46-5.11,15.54-6.85c7.08-1.73-2.88,4.13-.81,12.78"/>
      <path class="cls-2" d="M65.87,6.8c-11.9,13.95-29.18,24.33-39.51,47.07-4.88,10.59-7.48,18.82-4.85,31.58"/>
      <path class="cls-2" d="M27.25,94.78c-.12-31.84,14.34-53.39,22.48-60.05,4.91-5.14,12.22-14.81,14.41-20.53.45-1.17.71-1.88,1.02-2.73-.25.1,10.23-4.42,13.47-7.21l.12-.09c-.08.38-2.57,12.74-2.57,12.74"/>
      <path class="cls-2" d="M68.21,17.07c.72,7.57,2.88,20.65.32,28.64-.12.41-3.42,11.47-9.45,17.91-6.36,6.94-18.55,30.18-23.61,39.7,1.03.82,4.69,3.26,11.57,3.92,8.78.94,19.94-3.25,27.64-8.36,8.97-7.19,15.36-17.58,19.41-30.28,1.64-5.3,2.7-10.87,3.25-16.43.52-2.51,1.13-4.58,2.14-7.5,1.41-3.96,3.58-8.47,6.4-10.56.59-.45,1.27-.99,1.44-1.46.39-1.33-5.46.14-7.71.76-1.32.32-.8.26-2.9,1.61-4.21,2.85-12.15,8.2-16.99,11.48-3.33,2.25-5.21,3.52-7.25,4.9,0,.01,3.21-22.71-2.28-29.63-.11-.15-.14-.18-.14-.21-.08-.35-.17-.7-.32-1.19-3.14-10.05-6.67,1.53-7.71,5.73"/>
      <path class="cls-2" d="M101.97,32.8s-12.57,10.5-16.46,27.25c-3.89,16.75-17.95,39.26-38.28,47.2"/>
      <path class="cls-2" d="M105.88,34.1c-5.68,3.08-13.38,14.38-16.03,21.73-.54,3.69-1.09,6.46-2.46,11.04-1.92,6.31-5.27,14.34-10.98,21.34-1,1.23-2.11,2.46-3.21,3.56-14.27,14.27-19.14,15.28-19.13,15.27"/>
      <path class="cls-2" d="M71.77,24.78s14.56-6.4,16.43-11.7c.15-.4-1.08,25.06,3.52,25.29"/>
      <path class="cls-2" d="M92.78,24.03s5.49-3.95,6.12-7.05l-.18,16.68"/>
      <path class="cls-2" d="M87.49,15.26s-8.48,21.14-14.3,28.68"/>
    </g>
  </g>
  <path class="cls-4" d="M61.91,10.37c-14.18,22.91-36.4,44.41-35.82,73.21.08,3.94.68,7.89,1.86,11.67-1.31-3.74-2.04-7.68-2.26-11.65-1.18-29,21.15-50.81,36.21-73.22h0Z"/>
  <path class="cls-4" d="M64.03,17.45c4.34,31.03-33.01,51.13-27.53,82.31.39,1.93.98,3.83,1.75,5.65-.83-1.8-1.48-3.68-1.94-5.61-6.43-31.34,31-51.47,27.72-82.35h0Z"/>
  <path class="cls-4" d="M65.63,21.81c2.55,26.03-19.64,45.18-25.94,68.96-.93,3.42-1.52,6.94-1.62,10.49-.02-3.56.43-7.12,1.25-10.59,5.75-24.05,27.85-42.93,26.32-68.86h0Z"/>
  <path class="cls-4" d="M94.7,34.76c-22.28,15.29-29.45,42.96-44.6,64.06-2.21,3.04-4.59,5.96-7.19,8.67,2.5-2.8,4.77-5.79,6.87-8.9,14.62-21.37,21.97-49.31,44.92-63.84h0Z"/>
  <path class="cls-4" d="M45.36,106.65c14.77-3.67,18.56-20.41,24.88-32.21,4.83-9.45,10.37-18.54,16.65-27.09,2.11-2.84,4.28-5.63,6.52-8.36-2.14,2.81-4.21,5.68-6.2,8.59-6.03,8.69-11.5,17.78-16.26,27.23-6.36,11.81-10.53,28.76-25.59,31.85h0Z"/>
</svg>