<?xml version="1.0" encoding="UTF-8"?>
<svg id="_오른쪽_위" data-name="오른쪽_위" xmlns="http://www.w3.org/2000/svg" version="1.1" viewBox="0 0 156.19 324.61">
  <defs>
    <style>
      .cls-1 {
        fill: #d793ff;
      }

      .cls-1, .cls-2, .cls-3 {
        stroke-width: 0px;
      }

      .cls-4 {
        fill: #00d675;
        stroke: #000;
        stroke-width: 1.16px;
      }

      .cls-4, .cls-5, .cls-6 {
        stroke-linecap: round;
        stroke-linejoin: round;
      }

      .cls-2 {
        fill: #000;
      }

      .cls-5 {
        fill: none;
        stroke-width: 1.11px;
      }

      .cls-5, .cls-6 {
        stroke: #111114;
      }

      .cls-3 {
        fill: #111114;
      }

      .cls-6 {
        fill: #00b2ff;
        stroke-width: 1.2px;
      }
    </style>
  </defs>
  <g>
    <g>
      <path class="cls-4" d="M64.69,222.87s-23.79,15.93-51.19-22.92c0,0-10.52-24.08-12.69-25.51s11.4-3.82,34.95-1.43c23.55,2.39,40.65,19.86,32.1,46.31"/>
      <g>
        <path class="cls-2" d="M61.82,218.19c-6.82,2.02-13.8,3.27-20.9,3.73,6.82-2.03,13.8-3.27,20.9-3.73h0Z"/>
        <path class="cls-2" d="M58.34,213.21c-8.42,2.01-16.95,3.25-25.59,3.69,8.41-2.02,16.95-3.24,25.59-3.69h0Z"/>
        <path class="cls-2" d="M53.94,207.79c-8.79,2.32-17.73,3.88-26.8,4.63,8.79-2.33,17.73-3.87,26.8-4.63h0Z"/>
        <path class="cls-2" d="M50.25,203.84c-8.63,2.27-17.5,3.44-26.41,3.95,8.68-2.09,17.52-3.24,26.41-3.95h0Z"/>
        <path class="cls-2" d="M47.15,200.89c-8.78,1.77-17.66,2.76-26.62,2.96,8.78-1.78,17.66-2.76,26.62-2.96h0Z"/>
        <path class="cls-2" d="M42.88,197.26c-8.2,1.38-16.47,1.99-24.79,1.79,8.2-1.39,16.47-1.98,24.79-1.79h0Z"/>
        <path class="cls-2" d="M39.39,194.66c-8.04.79-16.09.8-24.12,0,8.04-.8,16.09-.79,24.12,0h0Z"/>
        <path class="cls-2" d="M33.84,191.07c-6.83.79-13.66.8-20.49,0,6.83-.8,13.66-.79,20.49,0h0Z"/>
        <path class="cls-2" d="M65.13,215.05c-.06-5.44.66-10.78,2.17-16,.07,5.44-.66,10.78-2.17,16h0Z"/>
        <path class="cls-2" d="M61.82,210.79c.07-6.67.92-13.25,2.57-19.72-.07,6.67-.93,13.25-2.57,19.72h0Z"/>
        <path class="cls-2" d="M57.63,206.3c.02-7.1.81-14.12,2.41-21.04-.01,7.1-.82,14.12-2.41,21.04h0Z"/>
        <path class="cls-2" d="M53.94,202.95c-.07-6.95.64-13.83,2.15-20.61.08,6.95-.65,13.82-2.15,20.61h0Z"/>
        <path class="cls-2" d="M50.46,200.17c-.25-6.85.29-13.66,1.63-20.38.25,6.85-.3,13.66-1.63,20.38h0Z"/>
        <path class="cls-2" d="M47.37,197.86c-.46-6.65-.15-13.28.98-19.85.47,6.65.14,13.28-.98,19.85h0Z"/>
        <path class="cls-2" d="M28.43,188.16c-5.31.71-10.62.64-15.91-.23,5.31-.72,10.62-.64,15.91.23h0Z"/>
        <path class="cls-2" d="M27.14,187.14c-1.87-4.25-2.97-8.71-3.3-13.34,1.87,4.25,2.97,8.71,3.3,13.34h0Z"/>
        <path class="cls-2" d="M43.35,195.02c-.46-6.13-.13-12.24,1-18.28.46,6.13.12,12.24-1,18.28h0Z"/>
        <path class="cls-2" d="M39.67,192.65c-.5-5.67-.22-11.32.87-16.91.51,5.67.21,11.32-.87,16.91h0Z"/>
        <path class="cls-2" d="M36.64,190.88c-.66-5.19-.53-10.38.4-15.53.66,5.19.52,10.38-.4,15.53h0Z"/>
        <path class="cls-2" d="M33.35,189.2c-.63-4.51-.47-9.01.49-13.47.63,4.51.46,9.01-.49,13.47h0Z"/>
        <path class="cls-2" d="M30.22,187.93c-1-4.28-1.21-8.61-.62-12.96,1,4.27,1.2,8.61.62,12.96h0Z"/>
        <path class="cls-2" d="M26.28,187.15c-5.72-.58-11.28-1.92-16.63-4.04,5.73.57,11.28,1.92,16.63,4.04h0Z"/>
        <path class="cls-2" d="M26.54,187.14c-4.34-3.7-8.11-7.94-11.27-12.7,4.35,3.7,8.11,7.94,11.27,12.7h0Z"/>
      </g>
      <path class="cls-4" d="M72.67,241.04s-9.91-37.39-46.39-53.89c0,0,6.32-.99,25.56,14.09,19.24,15.08,21.34,31.88,21.34,31.88l-.51,7.92Z"/>
    </g>
    <g>
      <path class="cls-4" d="M82.13,180.47s-8.67-17.82,1.12-32.06c9.8-14.25,36.62-17.25,52.43-15.58,15.81,1.67,19.92.45,19.92.45,0,0-8.13,18.25-16.59,25.82-8.46,7.57-19.31,35.75-55.89,26.71"/>
      <path class="cls-4" d="M77.75,192.76s-.15-5.95,7.66-17.63c14.22-21.27,40.91-34.01,57.99-36.88,0,0-17.87,4.67-38.64,20.11-8.25,6.13-14.88,14.17-19.55,23.32-4.35,8.51-8.89,18.54-7.41,20.67l-.04-9.59Z"/>
      <g>
        <path class="cls-2" d="M85.4,175.13c-3.14-6.61-4.15-14.35-2.71-21.53.18,7.29,1.1,14.4,2.71,21.53h0Z"/>
        <path class="cls-2" d="M89.43,169.71c-3.32-6.97-4.11-15.25-2.17-22.72-.32,7.68.38,15.22,2.17,22.72h0Z"/>
        <path class="cls-2" d="M93.47,165.19c-3.43-6.63-4.49-15.13-1.13-21.98-1.76,7.33-.76,14.75,1.13,21.98h0Z"/>
        <path class="cls-2" d="M98.27,160.62c-3.25-6.35-3.53-14.31-.73-20.87-1.2,6.98-.97,13.97.73,20.87h0Z"/>
        <path class="cls-2" d="M102.72,156.94c-2.41-5.84-2.72-12.9,0-18.68-1.14,6.23-.84,12.41,0,18.68h0Z"/>
        <path class="cls-2" d="M107.31,153.6c-2.16-5.22-1.91-11.55.73-16.56-1.07,5.51-1.3,10.95-.73,16.56h0Z"/>
        <path class="cls-2" d="M111.99,150.59c-1.52-4.83-1.78-10.83,1.79-14.85-2.08,4.75-1.67,9.8-1.79,14.85h0Z"/>
        <path class="cls-2" d="M115.96,148.3c-.96-4.54-.27-9.88,2.91-13.43-1.73,4.35-2.24,8.8-2.91,13.43h0Z"/>
        <path class="cls-2" d="M120.5,145.95c-1.28-3.78-1.18-8.85,2.69-11.08-2.03,2.82-2.56,6.17-2.5,9.56-.04.49,0,1.02-.19,1.51h0Z"/>
        <path class="cls-2" d="M124.46,144.13c-.7-3.3.06-7.31,3.07-9.26-1.68,2.93-2.13,6.08-3.07,9.26h0Z"/>
        <path class="cls-2" d="M128.99,142.29c-1.07-3.13.54-6.76,3.94-7.41-1.55,1.53-2.9,3.08-3.38,5.24-.22.71-.23,1.48-.56,2.17h0Z"/>
        <path class="cls-2" d="M132.94,140.89c-.76-2.56,1.44-5.23,3.79-6.02-1.3,2.1-2.86,3.66-3.79,6.02h0Z"/>
        <path class="cls-2" d="M137.64,139.5c.48-2.02,1.54-3.54,3.3-4.63-.43,1.97-1.59,3.59-3.3,4.63h0Z"/>
        <path class="cls-2" d="M85.19,181.68c7.8.47,15.97,1.4,23.71,0-7.49,2.99-16.09,2.05-23.71,0h0Z"/>
        <path class="cls-2" d="M88.09,177.08c9.17.56,18.72,1.23,27.84,0-8.96,2.82-18.8,2.15-27.84,0h0Z"/>
        <path class="cls-2" d="M91.19,171.99c10.48.34,20.95,1.62,31.42.67-5.09,1.46-10.49,1.46-15.74,1.28-5.27-.25-10.52-.84-15.68-1.95h0Z"/>
        <path class="cls-2" d="M95.78,166.44c10.2.43,20.82,1.58,31.03,1.55-10.29,1.62-20.87.46-31.03-1.55h0Z"/>
        <path class="cls-2" d="M100.64,161.69c4.42-.15,10.74.65,15.2.97,5.03.34,10.1,1.14,15.12.41-4.88,1.63-10.18,1.05-15.22.74-5.08-.4-10.08-1.34-15.1-2.12h0Z"/>
        <path class="cls-2" d="M106.45,157.12c9.36,1.49,18.97,3.28,28.38,1.24-8.92,3.63-19.53,1.8-28.38-1.24h0Z"/>
        <path class="cls-2" d="M111.55,153.6c4.11.41,9.87,1.05,13.93,1.31,4.61.23,9.32.63,13.81-.71-7.49,3.73-19.9,1.58-27.74-.6h0Z"/>
        <path class="cls-2" d="M117.39,150.18c8.68,0,17.35,1.36,26,0-8.35,2.95-17.5,1.59-26,0h0Z"/>
        <path class="cls-2" d="M123.19,146.71c7.58-.62,15.51.08,23.07-.76-3.63,1.45-7.64,1.47-11.49,1.59-3.87,0-7.74-.19-11.57-.83h0Z"/>
        <path class="cls-2" d="M129.67,143.51c3.02-.26,6-.27,8.97-.34,2.94-.15,5.98.13,8.79-.88-2.43,1.89-5.83,1.85-8.76,2.04-3.02.03-6.04-.16-8.99-.82h0Z"/>
      </g>
    </g>
    <path class="cls-4" d="M75.47,83.15s3.27,232.64,7.6,240.88h-11.13c3.48-10.95-2.47-246.06-2.47-246.06,0,0-.39,1.31,5.99,5.18Z"/>
  </g>
  <g>
    <g>
      <path class="cls-1" d="M114.36,50.79l-.65.16v-.04c9.01-1.44,7.07-4.46,7.07-4.46,3.85-13.88-13.71-11.35-13.71-11.35,5.03-3.05,8.46-6.58,6.92-10.18-4.2-9.79-16.76-2.84-17.39-2.49h0c2.62-3.68,4.03-7.17,2.67-9.67-4.45-8.23-13.44.79-13.77,1.12l-.38-.07c.52-2.99.33-4.68.33-4.68-5.21-13.36-11.23-.76-11.27-.95-.24-1.16-.62-2.25-1.19-3.24-5.66-9.85-12.06,0-12.06,0h0c-1.25-3.23-3.34-5.06-6.74-3.96-3.24,1.04-4.68,3.68-5.04,7.02h0s-5.38-9.29-9.46-6.12c-3.29,2.56-8.07,5.13-6.01,10.2l-.04.02c-.96-.2-15.87-3.02-12.54,10.31,0,.05-.01.1-.02.15-.62-.06-1.25-.1-1.87-.08-12.14.45-9.2,8.47-9.2,8.47l.08.02c-1.2.07-2.24.4-3.02,1.1-6.57,5.81-8.15,19.97-2.26,19.57-4.98,9.34-3.28,15.6,5.16,18.59-1.65,2.39-2.42,5.43-1.76,9.33,3.39,19.89,20.66,3.63,20.74,3.55h0c-4.89,6.21-7,13.32.75,19.1,0,0,9.59,5.42,14.27-3.36h.14c-.78,6.89.73,12.44,7.6,12.58,0,0,9.56.97,10.9-6.38h0c1.51,3.71,3.84,6.34,7.38,6.74,0,0,9.8,1.89,8.97-11.06l.31.17c1.57,2.02,3.33,3.18,5.3,2.91l16.74-13.85,16.47-23.39c.49-.69.31-1.64-.39-2.12l-1.19-.8c4.82.3,4.03.15,5.14-1.83,3.72-6.64-6.97-11.03-6.97-11.03ZM106.52,35.47l-.04-.04c.19-.11.39-.22.58-.33l-.54.38ZM19.93,33.74v.07c-.11-.05-.22-.11-.33-.16l.33.09Z"/>
      <path class="cls-6" d="M42.26,42.3s10.81-13.96,24.33-7.21c13.51,6.76,19.47,7.66,17.39,19.37-2.08,11.71-5.81,15.77-9.8,16.22s-16.6,5.41-24.26,0c-7.66-5.41-14.42-8.35-13.51-17.46.9-9.11,5.86-10.92,5.86-10.92Z"/>
      <g>
        <path class="cls-5" d="M56.21,33.5c.1-.02-14.71-28.46-2.03-32.53s7.25,32.27,7.25,32.27"/>
        <path class="cls-5" d="M60.92,4.94s6.4-9.85,12.06,0c5.66,9.85-6.4,30.16-6.4,30.16"/>
        <path class="cls-5" d="M74.18,8.17c.04.19,6.06-12.41,11.27.95,0,0,1.33,12.05-13.04,28.79"/>
        <path class="cls-5" d="M85.48,13.88s9.25-9.51,13.78-1.13c4.53,8.38-21.7,27.78-21.7,27.78"/>
        <path class="cls-5" d="M96.57,22.44s13.11-7.56,17.42,2.47c4.3,10.04-31.91,19.19-31.91,19.19"/>
        <path class="cls-5" d="M107.07,35.09s17.56-2.53,13.71,11.35c0,0,4.88,7.55-36.41,4.49"/>
        <path class="cls-5" d="M114.36,50.79s10.7,4.39,6.97,11.03c-3.72,6.64-38.14-3.6-38.14-3.6"/>
        <path class="cls-5" d="M82.15,61.83s14.35,8.29,20.51,9.14c6.16.84,7.25,0,7.25,0,0,0,10.07-1.76,7.48-6.51"/>
        <path class="cls-5" d="M80.74,65.16c1.99,2.18,23.96,13.44,20.56,24.8"/>
        <path class="cls-5" d="M77.57,69.26s13.5,19.67,13.63,23.49"/>
        <path class="cls-5" d="M69.98,71.58s4.86,33.59,14.58,32.23"/>
        <path class="cls-5" d="M60.92,73.12s-5.06,37.09,9.05,38.67c0,0,9.94,1.93,8.97-11.3"/>
        <path class="cls-5" d="M53.07,72.27s-19.65,38.8-1.37,39.16c0,0,9.56.97,10.9-6.38"/>
        <path class="cls-5" d="M46.55,68.38s-34.77,20.48-16.85,33.84c0,0,9.83,5.58,14.45-3.66"/>
        <path class="cls-5" d="M38.65,61.83s-33.84-2.19-30.44,17.74c3.4,19.93,20.74,3.55,20.74,3.55"/>
        <path class="cls-5" d="M36.4,53.22s-26.61-10.9-31.59-1.56c-4.98,9.34-3.28,15.6,5.16,18.59"/>
        <path class="cls-5" d="M38.65,45.76c-1.45-.85-25-19.49-31.57-13.68-6.57,5.81-8.15,19.97-2.27,19.57"/>
        <path class="cls-5" d="M43.91,40.47c-1.05-1.45-12.56-18.43-24.7-17.98-12.14.45-9.2,8.47-9.2,8.47"/>
        <path class="cls-5" d="M49.15,7.99s-5.38-9.28-9.46-6.11c-4.08,3.17-10.43,6.34-3.29,14.27,7.14,7.93,14.19,19.32,14.19,19.32"/>
        <path class="cls-5" d="M33.69,12.11s-16.08-3.49-12.57,10.37"/>
      </g>
      <g>
        <path class="cls-3" d="M58.84,32.59c-2.57-6.33-3.69-13.3-3.21-20.12.81,6.8,1.86,13.41,3.21,20.12h0Z"/>
        <path class="cls-3" d="M64.7,33.5c1.15-7.85,2.03-15.61,2.68-23.52.64,7.9-.29,15.97-2.68,23.52h0Z"/>
        <path class="cls-3" d="M70.36,36c2.77-5.51,5.3-11.11,7.35-16.92.72-1.93,1.34-3.89,1.99-5.85.02-.09.17-.07.16.03,0,0-.01,1.02-.01,1.02l-.16-1.01h.17c-.34,2.05-.85,4.06-1.41,6.05-1.79,5.93-4.45,11.65-8.09,16.68h0Z"/>
        <path class="cls-3" d="M75.7,38.61c6-5.65,10.98-12.06,14.96-19.28-2.78,7.74-8.16,14.65-14.96,19.28h0Z"/>
        <path class="cls-3" d="M81.89,42.14c8.74-2.95,16.71-7.83,23.32-14.26-5.68,7.35-14.19,12.55-23.32,14.26h0Z"/>
        <path class="cls-3" d="M85.28,47.55c7.88-2.05,16.04-3.05,24.19-2.93-8.07,1.16-16.07,2.12-24.19,2.93h0Z"/>
        <path class="cls-3" d="M84.83,55.1c9.23.03,18.46.68,27.6,1.97-9.23-.02-18.46-.69-27.6-1.97h0Z"/>
        <path class="cls-3" d="M83.99,60.01c6.32,1.89,12.4,4.37,18.23,7.45-6.32-1.89-12.4-4.38-18.23-7.45h0Z"/>
        <path class="cls-3" d="M80.44,68.68c5.85,3.19,10.86,8.07,14.18,13.85-4.39-5.04-9.04-9.59-14.18-13.85h0Z"/>
        <path class="cls-3" d="M73.37,70.78c4.16,6.65,7.77,13.6,10.8,20.84-4.17-6.65-7.77-13.6-10.8-20.84h0Z"/>
        <path class="cls-3" d="M64.95,73.76c2.11,9.24,3.61,18.62,4.47,28.06-2.11-9.24-3.6-18.62-4.47-28.06h0Z"/>
        <path class="cls-3" d="M56.11,73.54c-.64,8.74-1.9,17.43-3.79,25.99.63-8.74,1.91-17.43,3.79-25.99h0Z"/>
        <path class="cls-3" d="M48.75,71.16c-5.31,5.99-9.77,12.47-13.47,19.56,2.49-7.59,7.27-14.52,13.47-19.56h0Z"/>
        <path class="cls-3" d="M40.89,66.05c-8.66-1.78-17.88,1.6-23.34,8.55,4.43-7.9,14.85-11.71,23.34-8.55h0Z"/>
        <path class="cls-3" d="M36.43,56.99c-8.8-1.04-17.63-1.25-26.47-.64,8.69-1.89,17.88-1.66,26.47.64h0Z"/>
        <path class="cls-3" d="M36.88,48.88c-8.01-4.91-16.8-8.38-26-10.29,9.42.63,18.69,4.3,26,10.29h0Z"/>
        <path class="cls-3" d="M39.83,42.31c-6.12-4.83-12.24-9.45-18.55-14.03,6.97,3.48,13.3,8.28,18.55,14.03h0Z"/>
        <path class="cls-3" d="M45.25,37.12c-4.35-6.88-9.18-13.26-14.62-19.31,6.32,5.11,11.42,11.85,14.62,19.31h0Z"/>
        <path class="cls-3" d="M53.28,33.86c-6.09-6.89-10.62-15.22-13.09-24.08,3.66,8.41,8.02,16.44,13.09,24.08h0Z"/>
        <path class="cls-3" d="M37.81,50.21c8.73-7.82,20.53-12.29,32.26-12.2-11.61,1.19-22.77,5.4-32.26,12.2h0Z"/>
        <path class="cls-3" d="M36.83,55.58c11.46-9.12,25.82-14.72,40.44-15.74-14.43,2.29-28.26,7.67-40.44,15.74h0Z"/>
        <path class="cls-3" d="M37.26,59.47c13.36-8.67,28.94-14.02,44.81-15.36-15.68,2.6-30.84,7.79-44.81,15.36h0Z"/>
        <path class="cls-3" d="M39.64,62.14c14-5.57,28.74-9.37,43.69-11.23-14.73,3.1-29.29,6.83-43.69,11.23h0Z"/>
        <path class="cls-3" d="M43.11,64.96c9.18-4.47,19.27-6.99,29.44-7.79,3.4-.23,6.8-.29,10.19-.08.08,0,.11.12.03.14,0,0-1.31.45-1.31.45l1.25-.58s.03.14.03.14c-3.39.11-6.77.31-10.12.69-10.1,1.04-19.98,3.53-29.51,7.03h0Z"/>
        <path class="cls-3" d="M46.58,68.45c10.93-4.34,22.91-6.17,34.64-5.29-11.73.38-23.33,2.15-34.64,5.29h0Z"/>
        <path class="cls-3" d="M51.27,71.24c8.13-4.31,17.82-5.76,26.86-4.02-9.13-.45-18.26.9-26.86,4.02h0Z"/>
        <path class="cls-3" d="M39.53,44.68c1.76,8.77,5.07,17.13,9.78,24.73-5.79-6.88-9.29-15.75-9.78-24.73h0Z"/>
        <path class="cls-3" d="M42.61,41.72c2.86,11.2,5.51,23.41,14.63,31.33-10.03-6.99-13.04-19.89-14.63-31.33h0Z"/>
        <path class="cls-3" d="M47.01,38.34c2.16,12.39,7.19,24.16,14.65,34.29-8.48-9.36-13.74-21.7-14.65-34.29h0Z"/>
        <path class="cls-3" d="M51.27,35.52c2.12,13.14,6.68,25.78,13.43,37.25-7.83-10.81-12.56-23.94-13.43-37.25h0Z"/>
        <path class="cls-3" d="M56.79,33.9c2.99,13.23,7.01,26.17,12.02,38.76-6.17-12.1-10.26-25.3-12.02-38.76h0Z"/>
        <path class="cls-3" d="M62.37,34.06c3.6,11.88,7.37,24.99,10.63,36.97-4.57-11.99-8.12-24.38-10.63-36.97h0Z"/>
        <path class="cls-3" d="M67.76,36.91c5.11,10.28,7.89,21.79,8.02,33.27-1.41-11.37-4.09-22.51-8.02-33.27h0Z"/>
        <path class="cls-3" d="M73.21,39.63c4.32,8.15,6.5,17.49,6.21,26.71-.99-9.14-3.06-18.08-6.21-26.71h0Z"/>
        <path class="cls-3" d="M77.08,41.51c2.96,4.92,5.56,10.8,4.48,16.67-.24-5.91-2.66-11.13-4.48-16.67h0Z"/>
      </g>
    </g>
    <path class="cls-5" d="M115.27,69.86c-1.23,2.59-2.88,4.98-4.89,7.03"/>
    <path class="cls-5" d="M98.63,70.18c2.11,2.41,4.11,3.74,6.96,5.19"/>
  </g>
</svg>