<?xml version="1.0" encoding="UTF-8"?>
<svg id="_오른쪽_위" data-name="오른쪽_위" xmlns="http://www.w3.org/2000/svg" version="1.1" viewBox="0 0 61.76 60.64">
  <defs>
    <style>
      .cls-1 {
        fill: #ff97b5;
      }

      .cls-1, .cls-2 {
        stroke-width: 0px;
      }

      .cls-3 {
        fill: none;
      }

      .cls-3, .cls-4 {
        stroke: #111114;
        stroke-linecap: round;
        stroke-linejoin: round;
        stroke-width: 1.2px;
      }

      .cls-2 {
        fill: #111114;
      }

      .cls-4 {
        fill: #00b2ff;
      }
    </style>
  </defs>
  <path class="cls-1" d="M47.63,53.25c3.49.8,4.86-3.06,4.86-3.06,6.34-3.46,3.54-7.68,3.54-7.68h0c6.41-.52,3.68-5.45,3.68-5.45,3.37-2.83-.17-5.87-.17-5.87,1.29-.84,1.78-2.53.26-5.14-1.39-2.4-5.62-1.63-6.3-1.5l-.05-.07c.62-.4,1.24-.84,1.85-1.36,6.3-5.34-1.22-9.68-1.22-9.68,1.1-5.17-4.89-5.56-4.89-5.56-2.57-5.63-6.81-3.36-6.81-3.36-2.48-4.2-6.68.76-6.68.76v.05s0,0-.01-.01c0,0,.01-.04.01-.04.15-6.87-6.56-4.18-6.56-4.18-1.45-.95-3.31.03-3.31.03-2.97-1.08-3.97,1.08-3.97,1.08-4.67.91-3.6,5-3.6,5h.02s0,.02,0,.02c0,0,0-.02,0-.02-4.77-5.39-9.07,2.97-9.07,2.97-4.83.56-4.91,4.9-4.91,4.9-6.34,4.89.04,9.18.04,9.18l.16-.02v.04c-.76-.08-1.2-.1-1.2-.1-4,1.57-1.27,5.2-1.27,5.2-3.43,3.54.56,6.54.56,6.54-.43,5.17,4.48,5.01,4.48,5.01h0c-.31.29-.58.58-.79.87-2.5,3.63,2.73,6.77,2.73,6.77-.22,3.11,2.56,2.61,2.56,2.61-.61,3.86,4.33,5.97,4.33,5.97,3.02.78,5.25-.36,6.91-2.33h0c-.23.33-1.83,2.84,2.89,4.69,5.05,1.98,6.35-2.26,6.35-2.26,1.53,3.55,5.03,1.68,5.03,1.68,3.14.91,3.88-1.46,3.97-1.8l.28-.28c.48.31.99.48,1.52.46,5.04-.14,4.81-4.06,4.81-4.06ZM7.29,40.71h0s-.05.04-.07.06l.06-.06Z"/>
  <g>
    <path class="cls-4" d="M24.23,39.12s-5.77-4.55-3.54-11.67,12.1-7.65,12.1-7.65c0,0,10.35,2.74,9.14,11.02-1.2,8.28-10.22,15.21-17.71,8.3Z"/>
    <path class="cls-3" d="M27.33,41.19s-1.42,18.55-11.46,15.97c0,0-4.95-2.1-4.33-5.97,0,0-2.77.5-2.56-2.61,0,0-5.23-3.15-2.73-6.77,2.5-3.63,14.7-7.23,14.7-7.23"/>
    <path class="cls-3" d="M7.03,40.94s-4.91.16-4.48-5.01c0,0-3.99-3-.56-6.54,0,0-2.73-3.63,1.27-5.2,0,0,7.88.31,17.09,4.64"/>
    <path class="cls-3" d="M4.3,24.27s-6.38-4.29-.04-9.18c0,0,.08-4.34,4.91-4.9,0,0,4.3-8.36,9.07-2.97,0,0,3.26,10.06,7.81,14.39"/>
    <path class="cls-3" d="M18.24,7.22s-1.06-4.08,3.6-5c0,0,1-2.16,3.97-1.08,0,0,1.86-.97,3.31-.03,0,0,6.71-2.68,6.56,4.18,0,0-3.53,12.7-2.89,14.5"/>
    <path class="cls-3" d="M35.69,5.3s4.2-4.96,6.68-.76c0,0,4.25-2.27,6.81,3.36,0,0,5.99.38,4.89,5.56,0,0,7.53,4.34,1.22,9.68-6.3,5.34-13.54,4.28-13.54,4.28"/>
    <path class="cls-3" d="M53.4,24.57s4.88-1.14,6.4,1.47c1.52,2.61,1.03,4.3-.26,5.14,0,0,3.54,3.04.17,5.87,0,0,3.09,5.56-4.95,5.5s-14.62-6.64-14.62-6.64"/>
    <path class="cls-3" d="M56.03,42.51s2.8,4.22-3.54,7.68c0,0-1.38,3.85-4.86,3.06,0,0,.23,3.93-4.81,4.06-5.04.14-8.18-15.98-8.18-15.98"/>
    <path class="cls-3" d="M41.03,57.09s-.61,2.82-3.98,1.85c0,0-3.49,1.87-5.03-1.68,0,0-1.3,4.24-6.35,2.26-5.05-1.98-2.86-4.72-2.86-4.72"/>
  </g>
  <g>
    <path class="cls-2" d="M37.27,20.62c-.17-1.54.49-2.95,1.41-4.12,1.07-2.16,2.57-4.6,5.07-5.14,0,.01,0,.03-.01.04-1.18,1.22-2.85,2.84-4.01,4.05-1.36,1.44-1.35,3.5-2.38,5.18-.02.04-.08.03-.08-.02h0Z"/>
    <path class="cls-2" d="M38.99,22.67c.61-1.11,1.58-1.76,2.63-2.34,1.43-1.36,2.59-3.01,4.54-3.73.03-.02.07.03.05.06-1.03,1.8-2.84,2.67-4.42,3.86-.75.94-1.55,1.79-2.75,2.21-.03.01-.07-.03-.05-.06h0Z"/>
    <path class="cls-2" d="M41.39,24.07c1.47-.74,2.97-1.04,4.52-1.4,2.42-1.08,4.39-2.82,6.83-3.9.04-.02.08.03.05.06-.66.87-1.48,1.58-2.37,2.18-1.34.92-2.94,1.3-4.42,1.9-1.4.8-2.94,1.39-4.6,1.24-.04,0-.05-.06-.01-.08h0Z"/>
    <path class="cls-2" d="M42.34,31.01c1.17-.52,2.38-.41,3.57-.16,1.2.04,2.41-.28,3.6-.09.79.11,1.58.31,2.33.67.03.02.03.07-.01.08-2.03.42-3.93-.25-5.92-.4-1.19.21-2.35.36-3.56-.02-.04,0-.04-.07,0-.08h0Z"/>
    <path class="cls-2" d="M40.99,33.27c1.15-.08,2.09.38,3.02.95.99.36,2.11.34,3.09.75.65.26,1.28.59,1.87,1.05.03.02.01.08-.03.08-1.88.1-3.37-.95-5.01-1.63-1.08-.12-2.1-.34-2.96-1.12-.03-.02-.01-.08.03-.08h0Z"/>
    <path class="cls-2" d="M38.84,37.31c1.2,1.21,2,2.6,2.86,4.02,1.8,2.08,4.28,3.54,5.96,5.7-2.73-.93-4.49-3.33-6.16-5.54-1.23-1.14-2.3-2.47-2.73-4.15-.01-.04.04-.07.07-.04h0Z"/>
    <path class="cls-2" d="M36.51,40.43c1.04.61,1.6,1.56,2.09,2.58,1.22,1.41,2.74,2.56,3.29,4.45.01.04-.03.07-.06.05-1.68-1.02-2.39-2.79-3.43-4.34-.86-.74-1.63-1.53-1.94-2.69-.01-.04.03-.07.06-.05h0Z"/>
    <path class="cls-2" d="M32.37,42.66c.61,1.41.72,2.84.79,4.32.63,2.37,1.8,4.53,2.02,7.03,0,.04-.05.06-.07.03-.59-.82-1.02-1.72-1.35-2.65-.52-1.4-.53-2.92-.85-4.35-.53-1.39-.9-2.84-.62-4.36,0-.04.07-.05.08,0h0Z"/>
    <path class="cls-2" d="M29.53,42.4c.79,1.32.86,2.84.68,4.32.17,2.41.39,5.18-1.16,7.19-.01-2.44.88-4.75.9-7.18-.28-1.44-.59-2.79-.5-4.31,0-.04.06-.06.08-.02h0Z"/>
    <path class="cls-2" d="M21.94,37.06c-1.12.69-2.28.92-3.51,1.18-1.87.91-3.3,2.4-5.26,3.19-.03.02-.08-.03-.05-.06.46-.74,1.07-1.34,1.75-1.84,1.03-.77,2.31-1.03,3.46-1.53,1.07-.7,2.27-1.21,3.6-1.02.04,0,.05.06.02.08h0Z"/>
    <path class="cls-2" d="M23.01,39.16c-.83,1.28-2.02,2.1-3.29,2.85-1.8,1.61-3.37,3.71-5.69,4.55,1.33-2.12,3.59-3.27,5.52-4.75.97-1.11,1.99-2.13,3.4-2.72.04-.02.08.03.05.06h0Z"/>
    <path class="cls-2" d="M25.39,40.86c-.4,1.25-1.25,2.12-2.19,2.95-.76.95-1.22,2.15-2.02,3.08-.53.62-1.11,1.2-1.81,1.69-.03.02-.08-.01-.06-.05.69-2.04,2.34-3.33,3.69-4.88.57-1.11,1.22-2.15,2.33-2.84.03-.02.08.01.06.05h0Z"/>
    <path class="cls-2" d="M29.53,20.03c-.17-1.58.14-3.04.49-4.54.06-2.55-.49-5.04-.07-7.6,0-.04.07-.05.08,0,.37.98.55,2,.62,3.03.13,1.55-.28,3.07-.37,4.6.12,1.55.06,3.1-.67,4.54-.02.04-.08.03-.08-.01h0Z"/>
    <path class="cls-2" d="M27.13,20.21c-.69-1.12-.81-2.33-.83-3.58-.49-1.98-1.53-3.99-1.1-6.06,1.16,1.81,1.04,3.97,1.36,6,.48,1.16.85,2.32.65,3.62,0,.04-.06.05-.08.02h0Z"/>
    <path class="cls-2" d="M23.35,22.41c-1.81-.79-3.18-2.17-4.36-3.7-2.28-2.2-4.82-4.53-5.67-7.66,2.22,2.27,3.7,5.15,5.85,7.48,1.4,1.19,3.27,2.4,4.17,3.88h0Z"/>
    <path class="cls-2" d="M21.78,24.63c-2.44-.85-4.24-2.85-6.87-3.1-1.48-.34-2.92-.63-4.39-1.04,0,0,.16-.42.16-.42.25.24.49.49.71.76.03.03-.01.08-.05.06-.29-.19-1.17-.34-1.02-.76.05-.09.15-.12.25-.12,2.08-.09,4.13.55,5.94,1.53,1.87.85,4,1.25,5.32,3.01.03.03,0,.08-.05.06h0Z"/>
    <path class="cls-2" d="M19.48,30.77c-1.53.26-2.98-.06-4.42-.48-2.45-.24-5.11.03-7.35-1.1,2.51-.46,4.94.43,7.39.84,1.5-.04,2.98.02,4.39.66.04.01.03.08-.01.08h0Z"/>
    <path class="cls-2" d="M30.64,21.32c-.63,1.03-1.6,1.58-2.63,2.05-1.44,1.2-2.63,2.71-4.53,3.23-.04.01-.07-.03-.05-.06,1.06-1.66,2.85-2.36,4.42-3.38.76-.85,1.57-1.61,2.74-1.91.04-.01.07.03.05.06h0Z"/>
    <path class="cls-2" d="M35.6,20.92c-.65,1.06-1.64,1.65-2.71,2.16-1.48,1.26-2.7,2.82-4.66,3.41-.04.01-.07-.03-.05-.06,1.1-1.72,2.93-2.48,4.55-3.55.78-.88,1.62-1.68,2.81-2.02.04-.01.07.03.05.06h0Z"/>
    <path class="cls-2" d="M21.64,30.37c.18-.46.48-.77.85-.95.43-.1.84-.21,1.08-.62.51-.69,1.31-1.34,2.19-1.23-.18.45-.48.78-.8,1.05-.47.41-1.2.46-1.7.82-.38.55-.8,1-1.58.99-.03,0-.06-.03-.05-.07h0Z"/>
    <path class="cls-2" d="M32.11,26.29c-.16.49-.44.83-.82,1.06-.44.15-.85.31-1.08.75-.48.76-1.25,1.5-2.18,1.5.15-.48.45-.85.76-1.16.46-.47,1.21-.6,1.7-1.03.36-.6.76-1.11,1.57-1.19.03,0,.06.03.05.06h0Z"/>
    <path class="cls-2" d="M25.19,30.77c-.11.45-.35.76-.68.95-.39.11-.76.23-.94.64-.39.69-1.09,1.35-1.91,1.27.11-.44.36-.77.62-1.04.39-.42,1.07-.48,1.5-.86.29-.54.63-1,1.36-1.02.03,0,.06.03.05.06h0Z"/>
    <path class="cls-2" d="M39.03,22.73c-.22.42-.53.67-.91.79-.42.03-.82.07-1.09.42-.55.59-1.4,1.09-2.2.84.22-.41.54-.68.87-.89.49-.32,1.18-.25,1.7-.52.42-.47.87-.84,1.6-.71.03,0,.05.04.04.07h0Z"/>
    <path class="cls-2" d="M39.85,25.14c-.11.4-.33.63-.62.74-.34.03-.66.05-.84.39-.38.6-.9.91-1.65.83-.16-.18.4-.8.53-.88.35-.3.94-.23,1.32-.48.27-.44.57-.79,1.21-.66.03,0,.05.04.04.07h0Z"/>
    <path class="cls-2" d="M34.41,26.69c-.08.42-.28.68-.57.83-.35.07-.68.15-.83.51-.34.66-.85,1.05-1.63,1.07-.18-.16.34-.87.47-.97.34-.36.95-.36,1.32-.67.24-.49.52-.88,1.19-.84.03,0,.06.03.05.06h0Z"/>
    <path class="cls-2" d="M34.63,29.18c-.19.42-.48.66-.84.79-.4.03-.78.07-1.03.43-.5.59-1.31,1.1-2.08.85.19-.41.49-.68.8-.89.46-.33,1.13-.25,1.61-.53.38-.47.79-.84,1.51-.71.03,0,.05.04.04.07h0Z"/>
    <path class="cls-2" d="M28.81,31.24c.04.59-.22.63-.64.69-.24.17-.18.63-.5.84-.1.08-.62.26-.77.06-.01-.33.07-.54.21-.7.25-.29.69-.17.89-.4.06-.09.06-.25.1-.36.05-.18.59-.33.71-.13h0Z"/>
    <path class="cls-2" d="M30.33,33.37c-.13.44-.38.72-.71.9-.39.09-.76.18-.95.57-.41.65-1.13,1.27-1.93,1.13.13-.43.38-.74.66-.99.41-.39,1.07-.41,1.51-.75.31-.52.66-.95,1.38-.92.03,0,.06.03.05.06h0Z"/>
    <path class="cls-2" d="M25.32,34.25c.03.58-.22.58-.61.59-.23.13-.17.57-.48.75-.1.07-.59.17-.73-.03,0-.31.08-.51.21-.65.26-.26.66-.09.85-.28.06-.08.06-.23.1-.33.05-.16.55-.25.67-.05h0Z"/>
    <path class="cls-2" d="M38.51,29.2c-.2.45-.51.74-.89.91-.43.08-.85.17-1.11.57-.54.67-1.37,1.28-2.24,1.13.2-.44.52-.76.85-1.01.49-.39,1.22-.4,1.73-.75.4-.53.84-.97,1.62-.92.03,0,.06.04.04.07h0Z"/>
    <path class="cls-2" d="M41.1,26.63c.02.57-.22.57-.6.56-.23.12-.17.55-.48.73-.1.06-.58.16-.72-.05,0-.31.08-.5.21-.64.26-.25.65-.07.83-.25.06-.08.06-.23.1-.33.05-.16.54-.23.66-.03h0Z"/>
    <path class="cls-2" d="M41.02,29.36c-.27.82-.9,1.17-1.61,1.46-.56.45-.88,1.2-1.48,1.61-.39.28-.83.51-1.36.63-.03,0-.07-.03-.05-.06.52-1.37,1.66-1.65,2.72-2.38.41-.64.87-1.2,1.72-1.32.03,0,.06.03.05.06h0Z"/>
    <path class="cls-2" d="M33.2,33.06c-.04.4-.21.64-.47.78-.32.06-.62.11-.74.46-.27.62-.72.98-1.44.96-.18-.14.25-.83.36-.91.3-.33.87-.31,1.18-.6.2-.46.4-.82,1.05-.76.03,0,.05.03.05.06h0Z"/>
    <path class="cls-2" d="M27.83,37.27c-.15.6-.48.62-.94.59-.33.14-.45.64-.85.78-.13.06-.77.16-.87-.07.1-.34.27-.54.48-.69.35-.25.81-.06,1.12-.25.24-.39.45-.66,1.03-.44.03.01.04.04.04.07h0Z"/>
    <path class="cls-2" d="M34.58,34.72c-.05.39-.22.62-.48.74-.31.04-.61.08-.73.42-.28.6-.73.93-1.43.88-.18-.15.27-.8.38-.88.31-.32.86-.26,1.17-.53.2-.45.41-.79,1.05-.7.03,0,.05.03.05.06h0Z"/>
    <path class="cls-2" d="M29.71,38.7c-.08.37-.27.57-.52.65-.3,0-.58-.02-.73.3-.32.55-.78.79-1.44.64-.16-.17.32-.74.44-.8.34-.27.84-.12,1.16-.34.24-.41.45-.7,1.05-.52.03,0,.05.04.04.07h0Z"/>
    <path class="cls-2" d="M41,33.34c-.39.86-1.12,1.23-1.91,1.54-.66.48-1.09,1.27-1.79,1.71-.46.3-.95.55-1.54.67-.03,0-.07-.03-.05-.06.66-1.37,2.04-1.79,3.23-2.52.52-.68,1.09-1.26,2.02-1.4.03,0,.06.03.05.06h0Z"/>
    <path class="cls-2" d="M34.28,37.82c-.27.81-.89,1.16-1.59,1.44-.56.44-.86,1.19-1.46,1.6-.39.28-.82.51-1.35.62-.03,0-.07-.03-.05-.06.52-1.37,1.64-1.63,2.69-2.36.4-.64.86-1.19,1.71-1.3.03,0,.06.03.05.06h0Z"/>
  </g>
</svg>