<?xml version="1.0" encoding="UTF-8"?>
<svg id="_오른쪽_위" data-name="오른쪽_위" xmlns="http://www.w3.org/2000/svg" version="1.1" viewBox="0 0 168.38 315.2">
  <defs>
    <style>
      .cls-1 {
        fill: #ff97b5;
      }

      .cls-1, .cls-2, .cls-3 {
        stroke: #111114;
        stroke-linecap: round;
        stroke-linejoin: round;
        stroke-width: 1.2px;
      }

      .cls-2 {
        fill: #00d675;
      }

      .cls-4 {
        fill: #111114;
        stroke-width: 0px;
      }

      .cls-3 {
        fill: #ffec2d;
      }
    </style>
  </defs>
  <g>
    <g>
      <path class="cls-2" d="M86.49,119.17s9.49,51.54,10.31,74.14c.82,22.61,1.11,119.72-.99,121.29l-6.07-.07c3.36-4.1,1.02-110.96,1.02-110.96.97-21.12-11.82-82.41-11.82-82.41l7.55-1.98Z"/>
      <path class="cls-2" d="M93.77,160.05s13.11-16.9,14.29-22.69c0,0,4.09-10.44,16.45-9.46s14.56.13,14.56.13l2.78.03s1.07,3.01-1.7,3.57-3.23-.64-4.93-.06-6.11-.95-6.25-.08-3.86,1.92-3.86,1.92l-4.58,2.01-5.66,3.67-4.89,2.65-16,24.58"/>
    </g>
    <g>
      <path class="cls-2" d="M96.92,197.39c.38-.51,6.02-10.78,6.39-12.84s-3.74-21.72,14.44-27.02c18.17-5.3,47.51-3,49.64-4.63s-4.6,13.34-19.06,26.31-34.92,21.98-43.88,10.15l-7.41,14.29"/>
      <g>
        <path class="cls-4" d="M105.97,186.26c5.04-10.28,17.77-11.64,27.63-14.2,7.69-2.01,14.99-5.51,21.44-10.16,2.17-1.53,4.23-3.24,6.21-5.02-1.83,1.95-3.83,3.74-5.92,5.42-6.33,4.99-13.69,8.63-21.48,10.74-9.97,2.53-22.15,3.48-27.89,13.24h0Z"/>
        <path class="cls-4" d="M108.73,182.11c-1.22-5.93-1.44-13.37,3.36-17.85-3.59,5.35-3.15,11.69-3.36,17.85h0Z"/>
        <path class="cls-4" d="M107.29,184.86c6.15,3.25,12.67,5.18,19.6,5.82-6.9.8-14.25-1.39-19.6-5.82h0Z"/>
        <path class="cls-4" d="M117.04,161.92c-3.16,5.33-4.6,11.23-4.25,17.41-1.81-5.93-.08-12.98,4.25-17.41h0Z"/>
        <path class="cls-4" d="M109.68,181.61c6.31,3.12,13.07,4.58,20.1,4.35-6.83,1.67-14.57-.01-20.1-4.35h0Z"/>
        <path class="cls-4" d="M114.33,178.56c3.57,2.25,7.96,1.97,11.99,2.59,4.12.46,8.25.79,12.41,1.22-4.17.36-8.36.21-12.52-.23-4.03-.64-8.74-.65-11.88-3.58h0Z"/>
        <path class="cls-4" d="M116.67,176.66c-1.58-6.28,4.65-10.77,6.22-16.34-.23,6.07-6.37,10.17-6.22,16.34h0Z"/>
        <path class="cls-4" d="M120.62,175.49c-.32-6.85,7.14-10.57,8.5-16.89,0,6.78-7.45,10.43-8.5,16.89h0Z"/>
        <path class="cls-4" d="M124.82,174.42c-.18-3.45,3.28-5.6,5.25-7.85,2.1-2.38,2.54-5.66,3.12-8.72.43,6.12-1.23,8.97-5.93,12.65-1.11,1.07-2.15,2.31-2.44,3.92h0Z"/>
        <path class="cls-4" d="M129.46,173.33c2.05-5.55,9.65-8.93,8.1-15.63,3.09,6.63-4.89,11.01-8.1,15.63h0Z"/>
        <path class="cls-4" d="M135.58,171.87c-.19-3.35,3.86-4.67,5.39-7.02,1.72-2.42,2.07-5.53,1.95-8.48,1.19,3.69.44,8.34-2.81,10.78-1.75,1.35-4.07,2.34-4.53,4.71h0Z"/>
        <path class="cls-4" d="M142.11,169.6c-.71-2.51,2.21-4.09,3.2-5.96,1.13-1.89,1.63-4.12,1.47-6.46,1.22,2.79.38,6.27-1.74,8.43-1.19,1.2-2.81,2.12-2.92,4h0Z"/>
        <path class="cls-4" d="M147.35,167.09c-.03-3.85,4.55-6.4,3.45-10.4,2.6,3.78-2.14,7.16-3.45,10.4h0Z"/>
        <path class="cls-4" d="M152.69,164c-1.16-1.35.28-3.22,1.09-4.27.89-1.18.82-2.61.93-4.05,0,0,.14,0,.14,0l-.13.26s-.07-.37.05-.36c.73,1.36.83,3.41-.19,4.72-.87,1.23-2.19,2.06-1.9,3.7h0Z"/>
        <path class="cls-4" d="M157.15,160.41c-1.14-1.49.74-2.94.68-4.49,1.51,1.32-.37,3.06-.68,4.49h0Z"/>
        <path class="cls-4" d="M119.33,176.59c7.07,3.08,16.44-2.18,22.33,4.07-6.54-4.95-15.62.4-22.33-4.07h0Z"/>
        <path class="cls-4" d="M127.41,174.38c5.73,1.54,13.71-1.57,17.68,4.22-4.84-4.59-12.18-1.26-17.68-4.22h0Z"/>
        <path class="cls-4" d="M134.82,172.46c3.39.54,7.18-1.03,10.37.9,1.04.63,1.9,1.7,2,2.9-2.49-4.64-8.48-1.73-12.37-3.79h0Z"/>
        <path class="cls-4" d="M141.07,170.17c1.84.48,3.57-.07,5.54.04,1.95.05,3.99,1.3,4.62,3.18-1.32-1.37-2.94-2.13-4.68-2.18-1.77-.13-3.97.19-5.48-1.03h0Z"/>
        <path class="cls-4" d="M147.6,167.15c1.24,1.64,3.4.64,5.02,1.68.58.35,1.09,1.02.99,1.7-1.12-1.74-3.28-.83-4.9-1.75-.59-.31-1.16-.94-1.1-1.62h0Z"/>
        <path class="cls-4" d="M151.68,164.94c1.46.62,3.02-.57,4.39.54.45.36.73,1.09.39,1.56-.7-2.13-3.9-.04-4.78-2.1h0Z"/>
        <path class="cls-4" d="M155.96,161.87c1.53-1.33,4.26.09,2.99,2.08-.27-.67-.41-1.19-1.02-1.49-.58-.33-1.27-.33-1.96-.59h0Z"/>
        <path class="cls-4" d="M159.22,159.12c.64-1.05,2.46-.65,2.6.57-1.19-.09-1.49-.16-2.6-.57h0Z"/>
      </g>
    </g>
    <g>
      <path class="cls-2" d="M92.65,207.32s-7.49-20.86-18.44-26.85c0,0-.7-27.05-26.52-28.23,0,0-32.38.12-39.32,3.48,0,0,3.72,5.8,8.8,12.37,5.09,6.57,20.84,28.32,52.65,18.28,0,0,1.74-2.55,3.28-.65,1.55,1.9,4.45-1.41,9.22,9.43,4.77,10.84,9.64,11.75,10.38,17.41"/>
      <g>
        <path class="cls-4" d="M14.9,158.97c17.45-3.15,35.3,8.24,49.53,17.18,2.1,1.45,4.16,2.95,6.12,4.58-2.09-1.45-4.21-2.86-6.39-4.17-6.51-3.94-13.24-7.57-20.06-10.93-9.03-4.46-19.03-7.76-29.21-6.65h0Z"/>
        <path class="cls-4" d="M68.65,179.25c-2.69,2.41-6.19,3.72-9.6,4.76-3.45.94-7.06,1.63-10.65,1.28,6.97-1.06,13.96-2.79,20.25-6.04h0Z"/>
        <path class="cls-4" d="M65.13,177.6c-7.09,5.18-17.14.88-24.18,6.18,6.38-6.57,16.63-2.33,24.18-6.18h0Z"/>
        <path class="cls-4" d="M61.31,174.93c-5.49,3.63-12.44,3.12-18.58,4.75-2.04.51-4.03,1.29-5.82,2.47l-.07-.1.57-.35-.5.45c6.06-6.05,16.79-3.69,24.4-7.22h0Z"/>
        <path class="cls-4" d="M57.4,172.53c-7.46,3.99-17.22.47-24,6.16,5.91-6.87,16.31-3.57,24-6.16h0Z"/>
        <path class="cls-4" d="M53.64,170.23c-4.26-.19-8.56.27-12.64,1.54-3.06.87-5.94,2.63-9.14,3.21-1.09.17-2.21.17-3.26-.11,1.08.06,2.14-.05,3.16-.37,1.78-.46,4.19-1.75,5.88-2.53,4.97-2.22,10.68-2.94,16-1.74h0Z"/>
        <path class="cls-4" d="M47.54,166.76c-7.91-1-14.56,7.91-22.5,4.62,7.99,1.83,14.51-7.06,22.5-4.62h0Z"/>
        <path class="cls-4" d="M41.89,164.04c-3.86-1.04-6.16,2.82-9.29,4.22-3.3,1.55-7.34,1.68-10.62.07,3.48.82,7.08.49,10.19-.97,2.08-.86,3.55-2.67,5.68-3.47,1.3-.38,2.82-.51,4.03.15h0Z"/>
        <path class="cls-4" d="M35.92,161.6c-3.09-.19-5.73,1.53-8.08,3.33-2.6,1.75-6.15,2.19-9.02.91,3.02.47,6.05-.11,8.47-1.74,2.42-1.8,5.42-3.5,8.63-2.49h0Z"/>
        <path class="cls-4" d="M30.23,159.89c-2.55.03-5.05.68-7.27,1.85-2.07,1.15-4.55,3.56-7.17,2.48,2.8.19,4.4-2.12,6.7-3.36,2.35-1.22,5.19-1.74,7.75-.97h0Z"/>
        <path class="cls-4" d="M21.08,158.8c-1.59,1.31-3.13,2.15-5.1,2.77,1.11-1.72,3.05-2.77,5.1-2.77h0Z"/>
        <path class="cls-4" d="M18.73,158.58c-1.26-.47-1.95-1.01-2.69-2.14,1.33-.15,2.53.82,2.69,2.14h0Z"/>
        <path class="cls-4" d="M70.01,180c-.15-2.7-.18-5.06-.08-7.77,1.27,2.37,1.3,5.37.08,7.77h0Z"/>
        <path class="cls-4" d="M66.82,178.05c.01-5.2-.64-10.09-2-15.11,2.67,4.44,3.42,10.13,2,15.11h0Z"/>
        <path class="cls-4" d="M63.72,175.82c-.66-6.01-2.05-11.66-4.23-17.3,3.43,4.96,4.97,11.32,4.23,17.3h0Z"/>
        <path class="cls-4" d="M59.43,173.26c-.07-6.5-2.52-12.56-6.97-17.3,5.45,3.6,8.39,10.93,6.97,17.3h0Z"/>
        <path class="cls-4" d="M55.09,170.72c-1.64-5.39-4.06-10.22-7.37-14.77,4.35,3.56,7.13,9.16,7.37,14.77h0Z"/>
        <path class="cls-4" d="M50.03,167.78c-1.93-4.45-4.19-8.45-6.99-12.41,3.81,2.97,6.42,7.61,6.99,12.41h0Z"/>
        <path class="cls-4" d="M45.12,165.37c-2.42-3.37-4.53-6.74-6.46-10.41,3.03,2.82,5.28,6.44,6.46,10.41h0Z"/>
        <path class="cls-4" d="M40.84,163.82c-2.58-2.51-4.48-5.62-5.54-9.06,2.27,2.8,4.08,5.76,5.54,9.06h0Z"/>
        <path class="cls-4" d="M36.74,161.86c-2.08-1.98-3.75-4.07-5.2-6.55,2.44,1.5,4.29,3.83,5.2,6.55h0Z"/>
        <path class="cls-4" d="M31.19,160.11c-1.96-1.15-3.3-3.21-3.55-5.47,1.53,1.7,2.62,3.38,3.55,5.47h0Z"/>
        <path class="cls-4" d="M26.6,159.1c-1.67-.68-2.81-2.33-2.84-4.14,1.32,1.26,2.14,2.46,2.84,4.14h0Z"/>
        <path class="cls-4" d="M22.5,158.5c-1.2-.52-1.84-1.69-1.61-2.97,1.06.78,1.54,1.66,1.61,2.97h0Z"/>
      </g>
    </g>
  </g>
  <g>
    <g>
      <path class="cls-1" d="M98.15,9.36s-12.42,6.61-11.57,28.66c0,0-.36,15.82-.72,18.77,0,0-7.38-1.44-10.61.07,0,0-3.52-34.83-12.96-41.45-.64-.45,4.06-15.32,17.54-14.19,0,0,14.74-3.99,18.33,8.14Z"/>
      <path class="cls-4" d="M82.49,56.45c-4.53-13.66-4.23-28.9.55-42.46.34-.9.68-1.79,1.04-2.68-.45,1.58-1.1,3.91-1.48,5.53-3.14,12.97-3.09,26.61-.11,39.6h0Z"/>
      <path class="cls-4" d="M78,55.93c.55-11.65-1.22-23.36-5.26-34.3-.28-.72-.56-1.46-.83-2.19.36.69.72,1.39,1.07,2.09,5.04,10.6,6.9,22.8,5.02,34.4h0Z"/>
    </g>
    <g>
      <path class="cls-1" d="M85.85,56.79s-10.94-44.74,20.1-52.21c0,0,12.65.86,12.36,6.04-.29,5.17-10.63,18.11-10.63,18.11,0,0-12.38,17.05-14.53,30.8"/>
      <g>
        <path class="cls-4" d="M89.14,56.77c-2.72-11.75-1.24-24.45,3.87-35.36.35-.72.72-1.44,1.09-2.15-.48,1.29-1.19,3.18-1.62,4.51-3.54,10.58-4.62,21.91-3.35,32.99h0Z"/>
        <path class="cls-4" d="M91.59,57.72c-.73-13.75,4.19-27.73,13.12-38.18.61-.68,1.23-1.36,1.85-2.03-.95,1.25-2.32,3.11-3.2,4.44-7.12,10.56-11.18,23.06-11.77,35.77h0Z"/>
      </g>
    </g>
    <g>
      <path class="cls-1" d="M98.15,64.17c.83-1.3,1.77-2.51,2.76-3.65l2.62-2.67c12.44-11.39,32.28-13.82,34.28-20.99,2.32-8.33-4.46-7.36-4.46-7.36,1.55-.39,1.55-3.14,1.55-3.14-8.33-12.24-25.42,0-25.42,0,0,0-16.59,22.92-16.34,33.15,0,0,3.12,2.02,4.58,3.92l.42.73Z"/>
      <path class="cls-4" d="M95.1,60.46c2.07-11.3,9.34-21.46,19.12-27.41,0,0,2.3-1.31,2.3-1.31l2.39-1.12c.82-.33,1.63-.65,2.45-.95-1.34.67-3.29,1.71-4.6,2.51-10.4,6.34-18.25,16.59-21.66,28.29h0Z"/>
      <path class="cls-4" d="M96.52,61.35c3.19-8.69,10.25-15.89,18.77-19.47.57-.23,1.15-.44,1.73-.65-.92.51-2.27,1.26-3.18,1.83-7.27,4.43-13.23,10.82-17.31,18.29h0Z"/>
    </g>
    <g>
      <path class="cls-1" d="M99.55,74.27c1-3.17-1.4-10.09-1.4-10.09,6.8-11.42,28.79-19.43,28.79-19.43,0,0,12.23-2.46,18.23,5.1s1.16,9.68,1.16,9.68c0,0,3.49,2.9-.58,4.65-4.07,1.75-24.04-3.83-46.21,10.09Z"/>
      <path class="cls-4" d="M99.29,67.31c4.72-7.89,13.25-13.31,22.32-14.6,0,0,2.1-.24,2.1-.24,0,0,2.11-.06,2.11-.06.7.02,1.4.05,2.1.1-1.2.09-2.95.26-4.15.45-9.59,1.5-18.46,6.72-24.47,14.35h0Z"/>
      <path class="cls-4" d="M99.95,70.64c4.43-6.82,12.7-11.24,20.84-11.1-8.02,1.34-15.25,5.19-20.84,11.1h0Z"/>
    </g>
    <g>
      <path class="cls-1" d="M96.7,81.77c1.33-1.35,2.85-7.51,2.85-7.51l4.42-2.34c2.95-1.56,6.14-2.63,9.44-3.12,7.37-1.1,20.36-2.19,25.77,2.53,0,0,8.72,6.39,7.75,12.59-.97,6.2-27.8-2.58-50.22-2.16Z"/>
      <path class="cls-4" d="M98.55,77.44c9.57-5.04,21.06-6.34,31.56-3.82.7.18,1.39.37,2.08.57-1.22-.18-3.01-.43-4.26-.56-9.93-1.07-20.03.31-29.38,3.81h0Z"/>
      <path class="cls-4" d="M97.47,79.98c7.9-2.89,16.75-3.29,24.88-1.14-.9-.06-2.22-.17-3.13-.22-7.28-.5-14.57.05-21.75,1.36h0Z"/>
    </g>
    <g>
      <g>
        <path class="cls-1" d="M89.86,90.23s21.9,10.75,21.1,27.39c0,0,2.21,5.21-6.42,7.82,0,0,1.2,5.01-9.22,5.01s-23.9-21.35-23.28-31.03c0,0-20.53,13.28-21.41,35.06,0,0,1.07,7.64-8.35,5.53,0,0-9.26,4.71-11.21-9.1-1.95-13.81,9.93-32.15,24.31-34.36,0,0,7.9-2.74,16.67,2.87,0,0,4.83-7.71,17.82-9.2Z"/>
        <path class="cls-4" d="M83.01,92.4c9.27,3.28,17.19,10.41,21.44,19.27-.61-.86-1.49-2.12-2.15-2.97-5.12-6.8-11.78-12.33-19.3-16.3h0Z"/>
        <path class="cls-4" d="M79,93.74c6.73,4.43,12.24,10.88,15.56,18.22-4.56-6.67-9.68-12.68-15.56-18.22h0Z"/>
        <path class="cls-4" d="M76.36,96.17c2.67,5.38,5.74,10.28,9.41,15.03-4.67-3.75-8.07-9.2-9.41-15.03h0Z"/>
        <path class="cls-4" d="M73.14,98.2c1.92,5.34,4.83,10.33,8.69,14.5,2.81,3.26,6.42,5.56,9.77,8.22,1.07.97,2.05,2.12,2.52,3.49-.68-1.27-1.69-2.29-2.83-3.11-3.56-2.4-7.35-4.61-10.2-7.92-3.89-4.26-6.74-9.54-7.95-15.18h0Z"/>
      </g>
      <g>
        <path class="cls-4" d="M62.19,96.58c-11.58,1.82-21.53,10.79-24.2,22.25-.43,1.61-.68,3.27-.84,4.95-.07-1.68.08-3.38.35-5.05,1.91-11.9,12.61-21.63,24.69-22.15h0Z"/>
        <path class="cls-4" d="M67.97,96.61c-10.23,4.19-18.52,12.68-22.56,22.97-.84,2.22-1.65,5.04-2.11,7.37.09-1.47.47-3.64.78-5.1,0,0,.72-2.49.72-2.49,3.48-10.68,12.32-19.63,23.17-22.75h0Z"/>
      </g>
    </g>
    <g>
      <path class="cls-1" d="M55.37,96.55s-4.13-2.96-4.11-6.32c0,0-37.26,2.98-39.37,19.72,0,0-3.41,12.51.98,14.79,0,0-.49,4.71,5.36,3.09,5.85-1.63,13.21-6.53,14.22-9.18l10.44-15.76c1.71-1.53,3.67-2.96,5.89-4.14l6.6-2.18Z"/>
      <path class="cls-4" d="M52.12,93.05c-8.61.8-16.93,4.13-23.63,9.6-.85.68-2.01,1.72-2.81,2.45.39-.49.79-.97,1.19-1.44,6.29-6.99,15.83-11.11,25.24-10.6h0Z"/>
      <path class="cls-4" d="M53.34,94.64c-9.53,1.69-18.15,7.51-23.31,15.68-.65,1.03-1.49,2.56-2.03,3.64.23-.66.47-1.31.72-1.97l.88-1.91,1.05-1.83c4.82-7.77,13.51-13.17,22.68-13.61h0Z"/>
    </g>
    <g>
      <path class="cls-1" d="M50.89,82.13s-38.35-13.26-45.99,4.02c0,0-5.04,6.56,0,9.49,0,0-2.9,7.64,3.74,7.48,0,0,4.85.55,11.77-4.28,0,0,13.77-7.78,28.18-8.33l2.68-.29s-1.08-5.55-.37-8.1"/>
      <path class="cls-4" d="M50.54,85.16c-10.04-1.84-20.26-2.48-30.44-1.77-.68.06-1.36.1-2.04.14,10.71-2.27,22.06-1.71,32.49,1.62h0Z"/>
      <path class="cls-4" d="M51.27,88.69c-6.13-1.14-12.34-1.79-18.57-1.75-5.37,0-14.57-.02-14.43,7.37-.4-1.54.14-3.23,1.09-4.52,3.13-3.99,8.77-3.68,13.34-3.86,6.28,0,12.59.85,18.58,2.75h0Z"/>
    </g>
    <g>
      <path class="cls-1" d="M55.41,70.97S31.41,43.33,7.98,52.15c-1.29.49-2.38,1.48-2.75,2.81-.37,1.29-.16,2.93,2.11,4.36,0,0-12.68,6.75-3.25,15.85,0,0-1.48,2.73,13.06,2.67,0,0,14.28-1.84,27.12,2.36l6.63,1.94s1.99-9.11,4.52-11.17"/>
      <path class="cls-4" d="M53.87,73.97c-8.21-6.75-17.37-12.32-27.23-16.29-1.23-.51-3.03-1.19-4.26-1.66,11.89,2.82,23.01,9.15,31.49,17.95h0Z"/>
      <path class="cls-4" d="M52.02,77.39c-7.9-7.78-18.53-12.64-29.58-13.48-1.39-.11-3.39-.15-4.77-.15,1.36-.2,3.39-.31,4.79-.34,11.23.08,22.5,5.18,29.56,13.97h0Z"/>
      <path class="cls-4" d="M51.65,80.2c-8.13-6.77-18.62-10.51-29.19-10.37-1.33.01-3.23.14-4.54.26.74-.16,1.49-.31,2.24-.45,11.34-1.79,23.59,2.19,31.49,10.57h0Z"/>
    </g>
    <g>
      <path class="cls-1" d="M9.21,51.72l10.22.33c17.82.59,35.98,18.91,35.98,18.91l5.25-6.18s-14.65-33.5-42.27-27.32c0,0-4.23,2.42-1.63,6.9,0,0-11.2,2.76-7.55,7.36Z"/>
      <path class="cls-4" d="M57.24,69.05c-6.88-8.85-16.1-15.8-26.56-19.84-1.31-.51-3.22-1.16-4.55-1.6.79.16,1.58.32,2.37.5,11.76,2.94,22.41,10.57,28.73,20.94h0Z"/>
      <path class="cls-4" d="M58.51,66.66c-4.29-7.9-10.75-14.55-18.6-18.92-.98-.56-2.43-1.28-3.44-1.78.62.19,1.23.4,1.85.61,9.13,3.44,16.78,10.92,20.19,20.08h0Z"/>
    </g>
    <g>
      <path class="cls-1" d="M75.25,56.86s-9.34,1.75-14.59,7.93c0,0-11.12-24.88-30.92-27.7-2.36-.34-1.74-5.96-1.74-5.96-2.03-6.01,8.26-10.2,8.26-10.2,3.74-4.84,8.78-.85,8.78-.85.16-9.59,2.93-11.86,10.37-12.35s13.03,13.2,13.03,13.2c5.04,6.05,6.81,35.93,6.81,35.93"/>
      <path class="cls-4" d="M64.01,62.21c-4.06-8.96-9.99-17.04-17.46-23.44-.93-.81-2.31-1.92-3.27-2.69.61.36,1.21.73,1.81,1.11,8.88,5.85,15.79,14.84,18.91,25.03h0Z"/>
      <path class="cls-4" d="M66.86,59.67c-7.59-10.09-13.8-21.27-18.36-33.04,5.64,10.89,12.09,22.51,18.36,33.04h0Z"/>
      <path class="cls-4" d="M69.91,58.16c-6.77-9.52-11.32-20.68-13.15-32.21.22.7.43,1.4.62,2.1,3.08,10.46,7.32,20.54,12.53,30.12h0Z"/>
      <path class="cls-4" d="M72.02,58.37c-1.71-9.94-4.66-19.63-8.89-28.79-.29-.61-.57-1.22-.85-1.84,5.88,9.08,9.3,19.81,9.74,30.62h0Z"/>
    </g>
    <g>
      <path class="cls-3" d="M63.7,62.35s14.94-12.93,32.19-1.15c0,0,10.92,9.2-3.45,26.73l-2.59,2.3s-12.65,1.15-17.82,9.2c0,0-6.61-5.46-16.67-2.87,0,0-8.91-5.75-2.3-22.13,0,0,5.37-8.78,10.63-12.07Z"/>
      <g>
        <path class="cls-4" d="M77.59,61.16c.66.36.65.79-.05,1.09-.66-.36-.64-.79.05-1.09h0Z"/>
        <path class="cls-4" d="M62.34,70.53c.31.18.46.17.68.31.18.2.18.34.41.63-.54.9-1.9-.29-1.09-.94h0Z"/>
        <path class="cls-4" d="M66.7,68.5c.85-.42,1.72.35,1.41,1.25-.93-.19-1.1-.35-1.41-1.25h0Z"/>
        <path class="cls-4" d="M73.88,69.75c.68.33.68.76,0,1.09-.68-.33-.67-.76,0-1.09h0Z"/>
        <path class="cls-4" d="M69.68,73.66c.11.2.21.27.27.32.13.1.13.08.04.21-.04.07-.11.17-.16.39-.19.13-.38.1-.51.02-.47-.27-.23-1.09.36-.94h0Z"/>
        <path class="cls-4" d="M66.4,75.38c.31.86.33.79-.18,1.56-.91-.23-.76-1.54.18-1.56h0Z"/>
        <path class="cls-4" d="M61.68,76.42c.02.75-.35.93-.94.47-.02-.75.35-.93.94-.47h0Z"/>
        <path class="cls-4" d="M77.82,68.5c.71.24.78.67.15,1.09-.72-.24-.77-.67-.15-1.09h0Z"/>
        <path class="cls-4" d="M74.62,65.84c.57.58.45,1.12-.31,1.41-.57-.58-.45-1.12.31-1.41h0Z"/>
        <path class="cls-4" d="M71.7,63.98c-.04.91-.1,1.02-.94,1.41-.58-.72.06-1.66.94-1.41h0Z"/>
        <path class="cls-4" d="M70.76,68.35c-.05.44-.2.81-.38,1.16l.06-.39c.5.92.8,1.89.63,2.98-.86-.76-1.24-1.76-1.43-2.84.02-.41.74-.71,1.12-.91h0Z"/>
        <path class="cls-4" d="M78.25,64.29c.79-.06,1.09.36.78,1.09-.79.06-1.09-.36-.78-1.09h0Z"/>
        <path class="cls-4" d="M80.75,62.26c.76-.43,1.44.51.78,1.09-.81-.31-.74-.23-.78-1.09h0Z"/>
        <path class="cls-4" d="M83.41,68.19c.62.47.57.95-.16,1.25-.63-.47-.56-.95.16-1.25h0Z"/>
        <path class="cls-4" d="M80.26,69.44c.82.8.39,2.29-.75,2.51,0-1.15.12-1.55.75-2.51h0Z"/>
        <path class="cls-4" d="M75.91,73.5c.62.4.56.76-.16.94-.62-.4-.56-.76.16-.94h0Z"/>
        <path class="cls-4" d="M71.85,74.75c.68.43.68.97,0,1.41-.68-.43-.68-.97,0-1.41h0Z"/>
        <path class="cls-4" d="M70.6,79.9c.14.82-.27,1.24-1.09,1.09-.14-.82.27-1.23,1.09-1.09h0Z"/>
        <path class="cls-4" d="M66.38,72.08c.18.72-.12.97-.78.62-.19-.72.12-.96.78-.62h0Z"/>
        <path class="cls-4" d="M63.42,67.1c.46.87.46,1.16,0,2.03-.9-.41-.89-1.62,0-2.03h0Z"/>
        <path class="cls-4" d="M66.39,65.38c.72.3.78.78.16,1.25-.72-.3-.78-.78-.16-1.25h0Z"/>
        <path class="cls-4" d="M61.24,68.82c.11.89-.35,1.42-1.25,1.41-.12-.89.35-1.41,1.25-1.41h0Z"/>
        <path class="cls-4" d="M58.09,72.73c.66.64.72,1.81.22,2.57-.6.74-1.35,1.24-2.23,1.63.22-.86.82-1.51,1.36-2.14.42-.52.55-1.33.65-2.06h0Z"/>
        <path class="cls-4" d="M57.02,80.21c.72-.11.91.2.47.78-.72.11-.9-.2-.47-.78h0Z"/>
        <path class="cls-4" d="M63.58,80.84c.57.7.46,1.4-.31,1.87-.58-.7-.46-1.4.31-1.87h0Z"/>
        <path class="cls-4" d="M88.56,64.76c.42.71.19,1.25-.62,1.41-.43-.71-.19-1.24.62-1.41h0Z"/>
        <path class="cls-4" d="M91.05,70.69c-.12,1.01-.73,1.55-1.75,1.52.12-1.01.73-1.54,1.75-1.52h0Z"/>
        <path class="cls-4" d="M86.4,74.89c.89.22,1.24.85.93,1.72-.89-.22-1.23-.86-.93-1.72h0Z"/>
        <path class="cls-4" d="M82.16,77.56c.56.55.44,1.03-.31,1.25-.56-.55-.44-1.03.31-1.25h0Z"/>
        <path class="cls-4" d="M76,78.45c.67.22.68.5,0,.72-.68-.22-.67-.5,0-.72h0Z"/>
        <path class="cls-4" d="M73.79,85.92c.79.19.41-.33.36.48-.47.71-1.17-.24-.36-.48h0Z"/>
        <path class="cls-4" d="M76.83,85.2c.63.35.59.68-.12.84-.64-.35-.59-.68.12-.84h0Z"/>
        <path class="cls-4" d="M81.92,85.8c.21.18.28.31.32.42l-.32.29c-.27.22-.47.05-.72-.29.08-.41.18-.65.53-.57,0,0-.32.29-.32.29.1-.07.23-.13.51-.14h0Z"/>
        <path class="cls-4" d="M66.09,83.71c.67.07.68.17,0,.24-.68-.07-.67-.17,0-.24h0Z"/>
        <path class="cls-4" d="M65.85,89.03c.75.23.78.29.48,1.02-.77.18-1.11-.54-.48-1.02h0Z"/>
        <path class="cls-4" d="M61.25,90.4c-.39-.01-.48-.02-.5-.04-.03,0,1.11-.01.97,0-.27.03-.68.03-.95,0-.14-.02,1.01,0,.97,0-.02.01-.11.02-.5.04h0Z"/>
        <path class="cls-4" d="M60.06,86.64c.64.48-.21,1.02-.36.23.04-.25.05-.38-.05-.48,0,0,.02.15.41.25h0Z"/>
        <path class="cls-4" d="M56.35,88.25c.67.07.68.17,0,.24-.68-.07-.67-.17,0-.24h0Z"/>
        <path class="cls-4" d="M56.65,92.19c.39,0,.48.02.5.03-.01.01-.1.02-.5.03-.4-.01-.49-.02-.5-.03.02,0,.11-.02.5-.03,0,0-.39,0,0,0Z"/>
        <path class="cls-4" d="M70.69,89.45c.64.22.62.34-.06.3-.65-.22-.62-.34.06-.3h0Z"/>
        <path class="cls-4" d="M71.34,94.52c.37.14.45.2.45.24-.02.04-.12.05-.51,0-.37-.14-.45-.2-.45-.24.03-.04.12-.05.51,0,0,0-.39-.06,0,0Z"/>
        <path class="cls-4" d="M75.46,90.83c.34-.59.46-.55.3.12-.34.6-.46.55-.3-.12h0Z"/>
        <path class="cls-4" d="M82.88,88.62c-.05-.39-.03-.49,0-.51.04,0,.1.08.24.46.05.39.04.49,0,.51-.04,0-.1-.08-.24-.46,0,0,.13.37,0,0Z"/>
        <path class="cls-4" d="M78.51,81.32c.39.03.48.06.5.09-.01.03-.1.06-.5.09-.4-.03-.49-.06-.5-.09.02-.03.11-.06.5-.09,0,0-.39.03,0,0Z"/>
        <path class="cls-4" d="M85.87,81.63c.45.51.37.63-.24.3-.46-.52-.36-.63.24-.3h0Z"/>
        <path class="cls-4" d="M84.13,81.26c.25.31.28.4.26.44-.04.02-.13-.01-.44-.26-.25-.31-.28-.4-.26-.44.04-.02.13.01.44.26,0,0-.31-.25,0,0Z"/>
        <path class="cls-4" d="M90.52,80.78c.37.14.45.2.46.24-.02.04-.12.05-.51,0-.37-.14-.45-.2-.46-.24.03-.04.12-.05.51,0,0,0-.39-.06,0,0Z"/>
        <path class="cls-4" d="M87.48,83.89c.65.23.63.45-.06.54-.66-.23-.63-.45.06-.54h0Z"/>
        <path class="cls-4" d="M83.75,84.55c.36-.16.45-.19.47-.17,0,.03-.07.09-.41.29-.36.16-.45.19-.47.17,0-.03.07-.09.41-.29,0,0-.34.2,0,0Z"/>
        <path class="cls-4" d="M87.05,87.83c.65-.62.88-.66,1.67-.23-.23.87-1.22,1-1.67.23h0Z"/>
        <path class="cls-4" d="M91.65,84.55c.27.29.32.36.32.38-.02,0-.09-.05-.38-.32-.27-.29-.32-.36-.32-.38.02,0,.09.05.38.32,0,0-.29-.27,0,0Z"/>
        <path class="cls-4" d="M84.01,72.12c.08.23.09.39.07.52l-.45-.63c.11-.16.25-.23.41-.25.17-.01.36.04.62.25-.07.79-.55.82-1.15.67-.3-.04-.32-.49-.03-.56.13-.04.29-.05.52.01h0Z"/>
        <path class="cls-4" d="M86.58,68.6l.2.61c.19.62-.74.92-.94.3-.13-.3.27-.73.39-.97,0,0,.61.23.61.23l-.89-.11.64-.06h0Z"/>
        <path class="cls-4" d="M84.39,62.87c.24.2.31.32.33.42l-.14-.57c.24.09.14.31.03.62-.21.16-.33.21-.43.22-.19.06-.29-.35-.38-.46-.07-.29.21-.29.59-.23h0Z"/>
        <path class="cls-4" d="M81.14,73.91c.33.69-.25,1.09-.78.54.04-.76.06-.77.78-.54h0Z"/>
        <path class="cls-4" d="M78.8,75.23c.81.15.57,1.19-.23.96-.35-.73-.42-.46.23-.96h0Z"/>
        <path class="cls-4" d="M75.71,81.68c.34.2.41.26.42.29-.02.01-.11,0-.48-.17-.34-.2-.41-.26-.42-.29.03-.01.11,0,.48.17,0,0-.36-.16,0,0Z"/>
        <path class="cls-4" d="M79.11,87.89c.39.02.48.04.5.06-.01.02-.1.04-.5.06-.4-.02-.49-.04-.5-.06.02-.02.11-.04.5-.06,0,0-.39.02,0,0Z"/>
        <path class="cls-4" d="M72.55,62.03c.37.13.45.19.46.24-.02.04-.12.06-.51,0-.38-.13-.45-.19-.46-.24.03-.04.12-.05.51,0,0,0-.39-.05,0,0Z"/>
        <path class="cls-4" d="M67.94,63.34c.39.02.48.04.5.06-.01.02-.1.04-.5.06-.4-.02-.49-.04-.5-.06.02-.02.11-.04.5-.06,0,0-.39.02,0,0Z"/>
        <path class="cls-4" d="M66.22,79.9c.43.55.29.74-.36.47-.43-.55-.28-.74.36-.47h0Z"/>
        <path class="cls-4" d="M60.35,80.6c.33.22.39.3.39.34-.03.03-.13.03-.51-.1-.33-.22-.39-.3-.39-.34.03-.03.13-.03.51.1,0,0-.37-.14,0,0Z"/>
        <path class="cls-4" d="M56.23,84.73c.8-.04.22-.63.18.18-.22.79-.97.04-.18-.18h0Z"/>
        <path class="cls-4" d="M53.73,84.61c.36.16.44.21.44.25-.02.03-.12.03-.5-.07-.37-.16-.44-.21-.44-.25.03-.02.12-.03.5.07,0,0-.38-.1,0,0Z"/>
        <path class="cls-4" d="M53.48,90.05c.78-.06.49-.31.55.47-.42.68-1.15.04-.55-.47h0Z"/>
        <path class="cls-4" d="M59.32,92.7c.93-.3,1.27-.23,1.99.43-.62.75-1.73.5-1.99-.43h0Z"/>
        <path class="cls-4" d="M64.77,92.49c.23.28.26.47.23.63l-.17-.62c.11.04.19.11.25.23.05.13.09.27.05.54-.34.2-.57.27-.82.05-.49-.39-.22-.85.46-.83h0Z"/>
        <path class="cls-4" d="M67.47,92.85c.22.14.37.2.4.39,0,0-.48-.63-.48-.63.24,0,.42.58.17.9-.09.16-.26.05-.38.04-.25-.05-.38-.35-.26-.58.12-.14.28-.12.55-.12h0Z"/>
        <path class="cls-4" d="M68.78,85.56c.13.34.1.55.02.72l-.69-.67c.08-.11.18-.19.33-.22.15-.03.32-.04.58.06.09.42.04.68-.26.88-1.06.71-1.29-1.08.02-.76h0Z"/>
        <path class="cls-4" d="M71.28,82.82c.39-.06.49-.04.51,0,0,.04-.08.1-.45.24-.39.06-.49.04-.51,0,0-.04.08-.11.45-.24,0,0-.37.14,0,0Z"/>
        <path class="cls-4" d="M72.36,90.58c.77-.01.79,0,.72.78-.66.43-1.19-.15-.72-.78h0Z"/>
        <path class="cls-4" d="M73.84,93.63c.65.22.63.36-.06.36-.65-.22-.63-.35.06-.36h0Z"/>
        <path class="cls-4" d="M91.36,75.59c.13.23.22.36.16.54,0,0-.19-.81-.19-.81.06,0,.1.05.13.13.16.44-.25.91-.45.8,0,0-.22-.18-.22-.18-.2-.16-.19-.49.03-.63.18-.06.31.03.54.15h0Z"/>
        <path class="cls-4" d="M93.98,80.25c.23.26.35.43.24.69,0,0-.47-.69-.47-.69.15.02.31.12.47.48-.19.63-.76.68-.95.18-.05-.45.2-.69.71-.66h0Z"/>
        <path class="cls-4" d="M96.01,75.77c.37.59.23.73-.36.36-.37-.59-.23-.73.36-.36h0Z"/>
        <path class="cls-4" d="M95,71.29c.06.39.04.49,0,.51-.04,0-.1-.08-.24-.45-.06-.39-.04-.49,0-.51.04,0,.11.08.24.45,0,0-.14-.37,0,0Z"/>
        <path class="cls-4" d="M83.59,65.48c.1.38.1.48.08.5-.03,0-.09-.08-.26-.44-.1-.38-.1-.48-.08-.5.04,0,.09.08.26.44,0,0-.16-.36,0,0Z"/>
        <path class="cls-4" d="M82.28,59.34c.44-.54.65-.45.54.24-.44.55-.65.45-.54-.24h0Z"/>
        <path class="cls-4" d="M78.39,59.22c.12.69-.11.82-.6.3-.12-.7.12-.81.6-.3h0Z"/>
        <path class="cls-4" d="M74.75,62.68c.48-.52.74-.41.66.3-.48.53-.74.41-.66-.3h0Z"/>
        <path class="cls-4" d="M87.11,60.18c.7.16.75.49.12.84-.71-.16-.75-.49-.12-.84h0Z"/>
        <path class="cls-4" d="M91.71,61.97c.39.03.48.06.5.09-.01.03-.1.06-.5.09-.4-.03-.49-.06-.5-.09.02-.03.11-.06.5-.09,0,0-.39.03,0,0Z"/>
        <path class="cls-4" d="M92.62,65.5c.37.73-.26,1.32-.97.89.05-.81.15-.9.97-.89h0Z"/>
        <path class="cls-4" d="M89.79,67.7c.17.2.32.23.43.16-.13.03-.21.16-.18.43-.17.36-.61.25-.74-.03-.12-.29.11-.67.48-.55h0Z"/>
        <path class="cls-4" d="M95.24,67.16c.39,0,.48.02.5.03-.01.01-.1.02-.5.03-.4,0-.49-.02-.5-.03.02,0,.11-.02.5-.03,0,0-.39,0,0,0Z"/>
        <path class="cls-4" d="M95.29,64.06c.35-.19.44-.21.47-.19,0,.04-.04.12-.35.37-.35.19-.44.21-.47.19,0-.04.05-.12.35-.37,0,0-.31.25,0,0Z"/>
        <path class="cls-4" d="M93.39,73.5c.39,0,.48.02.5.03-.01.01-.1.02-.5.03-.4-.01-.49-.02-.5-.03.02,0,.11-.02.5-.03,0,0-.39,0,0,0Z"/>
        <path class="cls-4" d="M97.51,72.97c.33.6.21.7-.3.24-.33-.61-.21-.69.3-.24h0Z"/>
        <path class="cls-4" d="M98.05,69.55c-.01.39-.02.48-.03.5-.01-.01-.02-.1-.03-.5,0-.4.02-.49.03-.5.01.02.02.11.03.5,0,0-.01-.39,0,0Z"/>
        <path class="cls-4" d="M84.37,76.73c.36.78-.33,1.42-1.08,1.01.11-.84.24-.96,1.08-1.01h0Z"/>
        <path class="cls-4" d="M81.5,82.04c.64.22.62.34-.06.3-.65-.22-.62-.34.06-.3h0Z"/>
        <path class="cls-4" d="M76.36,88.43c.39.02.48.04.5.06-.01.02-.1.04-.5.06-.4-.02-.49-.04-.5-.06.02-.02.11-.04.5-.06,0,0-.39.02,0,0Z"/>
        <path class="cls-4" d="M78.26,91.35c.37.14.45.2.45.24-.02.04-.12.05-.51,0-.37-.14-.45-.2-.45-.24.03-.04.12-.05.51,0,0,0-.39-.06,0,0Z"/>
        <path class="cls-4" d="M63.63,86.16c.34.2.41.26.42.29-.02.01-.11,0-.48-.17-.34-.2-.41-.26-.42-.29.03-.01.11,0,.48.17,0,0-.36-.16,0,0Z"/>
        <path class="cls-4" d="M69.49,94.64c.39,0,.48.02.5.03-.01.01-.1.02-.5.03-.4,0-.49-.02-.5-.03.02,0,.11-.02.5-.03,0,0-.39,0,0,0Z"/>
        <path class="cls-4" d="M52.88,81.21c.52-.45.64-.36.3.24-.52.45-.63.36-.3-.24h0Z"/>
        <path class="cls-4" d="M56.34,94.28c.54.44.45.65-.24.54-.55-.44-.45-.65.24-.54h0Z"/>
        <path class="cls-4" d="M68.11,77.2c.19.17.32.23.44.18-.14-.02-.24.08-.38.3-.72.45-.88-.71-.07-.48h0Z"/>
        <path class="cls-4" d="M72.72,78.1c.39.02.48.04.5.06-.01.02-.1.04-.5.06-.4-.02-.49-.04-.5-.06.02-.02.11-.04.5-.06,0,0-.39.02,0,0Z"/>
        <path class="cls-4" d="M87.29,79.59c.66-.41,1.08-.18,1.08.6-.66.41-1.07.18-1.08-.6h0Z"/>
        <path class="cls-4" d="M89.79,86.22c.39-.08.48-.08.51-.05,0,.03-.08.09-.45.23-.39.08-.48.08-.51.05,0-.04.08-.09.45-.23,0,0-.37.14,0,0Z"/>
        <path class="cls-4" d="M74.75,59.64c.17.69-.07.83-.6.36-.17-.69.07-.83.6-.36h0Z"/>
        <path class="cls-4" d="M70.27,61.55c.34.2.41.26.42.28-.02.01-.11,0-.48-.16-.34-.2-.41-.26-.42-.28.02-.01.11,0,.48.16,0,0-.36-.16,0,0Z"/>
      </g>
    </g>
    <g>
      <path class="cls-1" d="M78.88,117.61l-2.17-3.77c-.97-1.69-1.8-3.46-2.48-5.29l-.57-1.55c-.9-2.43-1.44-4.98-1.62-7.57h0c-6.86,2.37-14.42,14.71-17,19.23-.63,1.1-1.01,2.32-1.14,3.58-.65,6.7-1.93,28.49,9.5,25.73,0,0,3.9,6.17,8.61.24,4.71-5.93,9.99-20.34,6.87-30.6Z"/>
      <path class="cls-4" d="M70.63,102.03c-8.79,4.36-10.96,14.93-11.16,23.91,0,0-.18,4.02-.18,4.02-1.29-10.18.19-24,11.34-27.94h0Z"/>
      <path class="cls-4" d="M69.74,103.33c-3.28,5.69-5.4,11.69-6.42,18.18-.41-6.54,2-13.35,6.42-18.18h0Z"/>
      <path class="cls-4" d="M70.84,102.82c-.64,12.16-2.67,24.32-5.97,36.04,1.9-11.62,4.03-24.43,5.97-36.04h0Z"/>
      <path class="cls-4" d="M73.62,108.84c.64,6.9.2,13.9-1.32,20.67.15-6.94.59-13.76,1.32-20.67h0Z"/>
    </g>
    <g>
      <path class="cls-1" d="M126.98,84.61s-24.11-3.52-30.28-2.83l-6.86,7.89c13.67,17.12,29.44,19.58,35.25,19.58s6.72-9.04,6.72-9.04c7.75-1.16,8.52-5.81,8.52-5.81,1.74-6.97-13.35-9.79-13.35-9.79Z"/>
      <path class="cls-4" d="M92.91,85.64c11.42-1.2,23.16.14,34.01,3.89-1.41-.27-2.81-.58-4.22-.84-9.82-1.95-19.79-2.87-29.8-3.06h0Z"/>
      <path class="cls-4" d="M92.14,87.09c8.47,2.63,17.72,5.22,26.31,7.4-9.1-.9-18.08-3.42-26.31-7.4h0Z"/>
    </g>
  </g>
</svg>