<?xml version="1.0" encoding="UTF-8"?>
<svg id="_오른쪽_위" data-name="오른쪽_위" xmlns="http://www.w3.org/2000/svg" version="1.1" viewBox="0 0 97.07 159.85">
  <defs>
    <style>
      .cls-1 {
        fill: #ffec2d;
      }

      .cls-1, .cls-2 {
        stroke-width: 0px;
      }

      .cls-3 {
        stroke-width: 1.4px;
      }

      .cls-3, .cls-4, .cls-5 {
        stroke-linecap: round;
      }

      .cls-3, .cls-4, .cls-5, .cls-6, .cls-7 {
        stroke: #111114;
      }

      .cls-3, .cls-4, .cls-5, .cls-7 {
        stroke-linejoin: round;
      }

      .cls-3, .cls-5 {
        fill: none;
      }

      .cls-4 {
        fill: #00d675;
      }

      .cls-4, .cls-5, .cls-6, .cls-7 {
        stroke-width: 1.2px;
      }

      .cls-6 {
        stroke-miterlimit: 10;
      }

      .cls-6, .cls-7 {
        fill: #ff97b5;
      }

      .cls-2 {
        fill: #111114;
      }
    </style>
  </defs>
  <g>
    <g>
      <path class="cls-1" d="M87.9,31.18l-.06-.03h.12s-.1,0-.15-.01l-.64-.38c-2.3-2.4-2.93-14.85-2.93-14.85-4.37.6-8.04,3.57-11.1,6.58l-.41-.29-6.49-17.16-12.64,10.06-.06.02c-1.35-4.23-2.97-8.1-2.97-8.1,0,0-3.75,4.04-7.03,7.27l-.27-.96h0c-.06-.22-.13-.45-.2-.68v-.02s0,0,0,0c-1.73-5.44-7.72-13.34-8.02-11.71-.31,1.71-6.84,7.71-6.84,7.71l.06.02s-.02.01-.03.02c0-.01-.02-.02-.03-.03-6.06-6.79-7.22,2.12-7.22,2.12-4.8,16.14-14.5,33.04-14.5,33.04-11.67,28.68-3.55,47.5,5.39,58.28,6.52,7.87,13.48,11.45,13.48,11.45,0,0,6.5,5.93,26.39,4.13,19.89-1.8,25.22-12.51,32.25-30.22,7.03-17.7,6.79-41.47,8.1-48.06,1.31-6.59,4.26-9.44,4.26-9.44-2.53-.37-5.47.19-8.47,1.23Z"/>
      <path class="cls-4" d="M13.42,157.42c-.08-20.05,13.33-42.69,13.33-42.69l5.38,1.83s-13.41,22.64-13.33,42.69l-5.38-1.83Z"/>
      <g>
        <path class="cls-3" d="M31.97,18.2s3.28-10.54,9.59,5.22l4.35,7.37,14.8-9.59s4.12-1.63,8.49,20.79c0,0,16.98-13.52,27.16-12.04,0,0-2.95,2.85-4.26,9.44-1.31,6.59-1.07,30.36-8.1,48.06-7.03,17.7-12.37,28.42-32.25,30.22s-26.39-4.13-26.39-4.13c0,0-39.05-20.11-18.86-69.73,0,0,9.71-16.9,14.5-33.04,0,0,1.16-8.91,7.22-2.12,6.06,6.79,4.37,26.94,4.37,26.94"/>
        <path class="cls-3" d="M28.22,8.63s6.53-6,6.84-7.71,6.83,6.98,8.22,12.41"/>
        <path class="cls-3" d="M39.06,18.2c1.9-.84,11.52-11.18,11.52-11.18,0,0,5.76,13.73,4.59,17.78"/>
        <polyline class="cls-3" points="53.55 15.14 66.25 5.03 72.77 22.27"/>
        <path class="cls-3" d="M65.99,29.15c3.83-1.85,9.72-12.06,18.26-13.24,0,0,.76,15.23,3.72,15.25"/>
        <path class="cls-3" d="M11.88,102.08S-2.94,59.57,43.29,27.53"/>
        <path class="cls-3" d="M45.91,30.79s9.41,33.54,2.62,54.02c-6.12,18.46-15.36,24.3-23.18,28.71"/>
        <path class="cls-3" d="M69.21,41.99s12.65,57.45-24.17,74.58"/>
      </g>
      <path class="cls-5" d="M42,29.54c-3.48,7.19-8.62,13.44-12.66,20.33-10.88,18.57-13.2,41.94-6.19,62.29"/>
      <g>
        <path class="cls-2" d="M23.68,7.01C28.22,35.52-5.41,50.76,5.41,84.61c1.03,3.76,2.55,7.38,4.2,10.94-1.89-3.43-3.66-6.96-4.97-10.7C-6.04,51.27,25.77,36.64,23.68,7.01h0Z"/>
        <path class="cls-2" d="M26.24,7.33c3.34,8.18,4.38,17.93.24,26.03-2.98,6-7.38,11.03-9.66,17.33-.78,1.79-1.58,4.36-2.07,6.27.37-3.27,1.14-6.71,2.62-9.64,2.41-5,5.98-9.4,8.39-14.31,1.99-3.91,2.78-8.31,2.62-12.68-.11-1.92-.43-4.65-.86-6.51-.24-2.17-.88-4.36-1.28-6.5h0Z"/>
        <path class="cls-2" d="M39.23,32.8s-3.35,3.76-3.35,3.76c-1.58,1.96-4.63,5.94-6.11,7.97-10.58,15.09-15.39,33.99-13.68,52.31,0,0,.43,5.01.43,5.01l.72,4.99-1.13-4.92c-4.46-24.5,4.37-52.5,23.13-69.12h0Z"/>
        <path class="cls-2" d="M44.61,30.56c.67,6.46,1.47,15.31,1.75,21.7.4,7.24.66,14.56-.42,21.8-1.73,10.89-7.1,20.74-13.3,29.69-2.12,2.96-4.45,5.75-6.69,8.6,2.58-3.69,5.05-7.56,7.57-11.29,17.79-25.98,11.26-41.78,11.1-70.5h0Z"/>
        <path class="cls-2" d="M43.88,29.77c-1.83,6.09-4.57,14.32-6.49,20.26-4.28,13.51-7.89,27.24-10.55,41.17-.89,4.65-1.88,11.06-2.8,15.7,0,0-.89,5.25-.89,5.25,0,0,.49-5.3.49-5.3.4-4.78,1.51-11.1,2.41-15.8,4.15-20.87,9.75-41.57,17.83-61.28h0Z"/>
        <path class="cls-2" d="M42.7,31.98c-.09,13.66-1.99,27.42-4.65,40.8-2.46,11.62-5.69,23.49-10.7,34.31,0,0-2.27,4.61-2.27,4.61l1.89-4.77c.87-2.42,2.63-7.22,3.52-9.62,2.8-8.02,5.08-16.37,6.78-24.68,2.06-9.95,3.41-20.3,4.3-30.44.3-2.52.87-7.67,1.13-10.21h0Z"/>
        <path class="cls-2" d="M36.26,1.46c.51,2.12.83,4.02.84,6.21.06,2.09.04,4.18-.06,6.27l-.39.38c.18-.03.06,0,.04.02-.27.18-.75.57-1.01.78-.2.16-.7.56-.9.7-.23.13-.16.18-.54.27,0,0,.33-.6.33-.6,1.31,2.22,2.4,4.58,3.25,7.01.91,2.42,1.44,4.97,1.45,7.56-.34-1.24-.69-2.47-1.12-3.66-.91-3.68-2.35-7.23-4.27-10.5,0,0,.33-.6.33-.6-.18.03-.06,0-.04-.02.61-.43,1.3-1.04,1.91-1.48.23-.13.16-.18.54-.27,0,0-.39.38-.39.38.26-4.07-.15-8.35.02-12.43h0Z"/>
        <path class="cls-2" d="M94.96,30.59c-19.76,13.96,5.05,54.86-41.48,83.51-1.86,1.13-3.79,2.12-5.68,3.18,1.82-1.18,3.69-2.28,5.46-3.52,47.18-31.39,19.97-69.29,41.69-83.18h0Z"/>
        <path class="cls-2" d="M92.07,31.01c-13.8,10.01-8.4,29.65-16.71,42.84-1.35,1.85-2.99,3.48-4.88,4.71,1.69-1.48,3.13-3.21,4.2-5.14,8.3-12.58,2.54-34.34,17.38-42.41h0Z"/>
        <path class="cls-2" d="M87.97,31.15c-.8.89-1.94,2.2-2.68,3.15-5.6,6.07-9.32,13.63-12.03,21.37-.57,1.26-1.1,2.54-1.65,3.81.25-1.37.57-2.72.9-4.07,2.74-7.85,6.53-15.5,12.19-21.66.92-.79,2.28-1.93,3.28-2.6h0Z"/>
        <path class="cls-2" d="M49.87,50.88c3.37-9.74,6.55-19.59,11.13-28.86.16-.35.74-.25.76.14.69,8.38,1.1,16.79.98,25.21-.36,24.8-5.49,52.15-24.8,69.41,24.35-24.7,25.79-61.93,23.02-94.55,0,0,.76.14.76.14-1.13,2.3-2.17,4.65-3.17,7.02-2.87,6.93-5.91,14.56-8.67,21.49h0Z"/>
        <path class="cls-2" d="M65.27,27.86c4.01,27.18,2.67,60.69-16.66,82.07-2.88,2.96-6.09,5.58-9.51,7.84,3.28-2.47,6.28-5.28,8.92-8.38,19.83-21.96,19.34-53.75,17.25-81.53h0Z"/>
        <path class="cls-2" d="M60.3,23.31c.15,3.14.31,9.41.33,12.55-.08,3.14-.4,9.41-.64,12.54-1.81,22.69-7.46,46.67-23.34,63.79,0,0-4.51,4.37-4.51,4.37l4.21-4.64s3.8-4.96,3.8-4.96c13.83-18.56,18.32-42.2,19.45-64.87.19-5.57.58-13.21.71-18.78h0Z"/>
      </g>
    </g>
    <path class="cls-6" d="M15.78,112.47c-2.69,1.96-4.89,5.24-6.12,9.16,6.13-3.2,12.52-5.36,19-6.43-.8.13-2.38-1.94-2.92-2.65-.89-1.16-1.16-1.85-2.39-2.06-2.56-.45-5.28.32-7.57,1.98Z"/>
    <path class="cls-6" d="M39.39,124.19c.25,2.71-.25,5.47-1.4,7.93-.34.72-1.38.62-1.57-.15-1.37-5.73-3.28-11.33-5.68-16.7-.29-.65.34-1.34,1.02-1.11.59.2,1.15.35,1.48.44,1.33.36,1.97.33,2.87,1.42,1.87,2.29,3.02,5.24,3.28,8.17Z"/>
    <path class="cls-6" d="M17.7,123.84c1.69.51,3.51.57,5.23.18-.29,1.21-.36,2.47-.19,3.71,1.07-.6,2-1.43,2.7-2.43.58,1.43,1.21,2.86,2.2,4.04s2.39,2.1,3.93,2.19c-.71-5.2-.66-10.5.14-15.68,0-.12-3.7-1.74-4.06-1.73-.57.02-1.19.95-1.6,1.36l-1.62,1.63c-2.24,2.25-4.47,4.49-6.71,6.74Z"/>
  </g>
  <path class="cls-7" d="M48.95,118.73c-7.47,1.76-24.23,3.2-37.32-14.12-.49-.64.25-1.49.95-1.1,2.42,1.36,5.7,2.73,7.89,1.69,3.85-1.82,1.16-13.6,5.73-11.13,1.03.55-1.58,14.9,7.35,13.94,4.96-.53,7.72-4.89,9.93-7.55.59-.71,2.86-.54,2.38,1.99-.94,4.91-1.33,12.24,3.27,14.45.84.4.73,1.62-.17,1.83Z"/>
</svg>