<?xml version="1.0" encoding="UTF-8"?>
<svg id="_오른쪽_위" data-name="오른쪽_위" xmlns="http://www.w3.org/2000/svg" version="1.1" viewBox="0 0 173.83 259.4">
  <defs>
    <style>
      .cls-1 {
        fill: #ff97b5;
      }

      .cls-1, .cls-2, .cls-3, .cls-4, .cls-5 {
        stroke-linecap: round;
        stroke-linejoin: round;
      }

      .cls-1, .cls-4, .cls-5 {
        stroke: #111114;
        stroke-width: 1.2px;
      }

      .cls-2 {
        stroke-width: 1.5px;
      }

      .cls-2, .cls-3 {
        stroke: #000;
      }

      .cls-2, .cls-3, .cls-6 {
        fill: #00d675;
      }

      .cls-6, .cls-7, .cls-8 {
        stroke-width: 0px;
      }

      .cls-7 {
        fill: #000;
      }

      .cls-8 {
        fill: #111114;
      }

      .cls-4 {
        fill: #ff6a37;
      }

      .cls-5 {
        fill: #00b2ff;
      }
    </style>
  </defs>
  <path class="cls-2" d="M79.4,79.23s19.65,106.09,4.41,150.22c0,0-4.69,17.62-6.5,18.01,0,0,6.15,6.79,5.6,10.36-.55,3.57,7.14-5.45,7.14-5.45,0,0,2.53-14.02,7.12-54.72,4.58-40.7-9.69-120.76-9.69-120.76l-8.08,2.34Z"/>
  <g>
    <path class="cls-2" d="M101.7,168.52s-13.53-54.63,32.41-65.21c0,0,6.81-3.02,38.98-2.47,0,0-8.03,12.11-9.98,21.71-1.94,9.6-12.59,28.7-38.19,40.07,0,0-19.74,7.82-23.22,5.9Z"/>
    <path class="cls-3" d="M96.81,179.94s5.05-12.26,11.69-26.42c6.64-14.16,26.73-44.07,60.69-50.54,0,0-41.56,11.17-61.72,58.5l-10.06,25.7"/>
    <g>
      <g>
        <path class="cls-7" d="M107.4,155.88c-.68-5.6-.67-11.58-3.81-16.47,4.76,3.19,5.34,11.41,3.81,16.47h0Z"/>
        <path class="cls-7" d="M112.65,145.46c-.27-3.61-.39-7.15-.86-10.64-.48-3.47-1.08-6.98-3.35-9.79,5.82,3.96,5.71,14.26,4.21,20.43h0Z"/>
        <path class="cls-7" d="M119.04,136.35c-.62-5.91,2.11-16-4.95-18.71.9,0,1.83.23,2.66.7,5.54,3.83,3.72,12.5,2.29,18.02h0Z"/>
        <path class="cls-7" d="M126.5,127.53c-.18-1.43.47-3.5.66-4.94.82-4.61,1.56-9.95-2.24-13.47,5.19,2.25,4.95,9.21,3.37,13.75-.44,1.6-1.44,3.34-1.79,4.66h0Z"/>
        <path class="cls-7" d="M135.02,119.53c1.19-4.65,3.75-9.24,1.81-13.95,4.05,3.66,1.3,10.53-1.81,13.95h0Z"/>
        <path class="cls-7" d="M144.23,112.87c.58-3.34,2.49-6,2.16-9.39,2.53,2.57.21,7.44-2.16,9.39h0Z"/>
        <path class="cls-7" d="M152.84,108.23c.25-1.98,1.62-3.28,1.46-5.3,2.34,1.18.6,4.77-1.46,5.3h0Z"/>
        <path class="cls-7" d="M108.03,160.18c5.25-4.18,12.93-6.01,19.29-3.52-6.71-.35-12.99,1.21-19.29,3.52h0Z"/>
        <path class="cls-7" d="M113.02,150.2c8.03-3.51,17.7-3.56,25.77-.13-8.58-1.36-17.2-1.34-25.77.13h0Z"/>
        <path class="cls-7" d="M120.05,139.32c9.11-2.82,19.59-2.05,27.81,2.96-9.01-3.02-18.38-3.69-27.81-2.96h0Z"/>
        <path class="cls-7" d="M126.27,131.63c8.88-3.51,19.81-3.63,28.08,1.53-9.09-3.15-18.63-2.96-28.08-1.53h0Z"/>
        <path class="cls-7" d="M134.34,123.52c7.68-3.16,17.1-2.72,24.23,1.63-7.92-2.34-16.02-2.72-24.23-1.63h0Z"/>
        <path class="cls-7" d="M142.93,116.55c4.71-3.04,11.01-2.56,16.03-.55.72.32,1.43.67,2.11,1.06-.79-.08-1.55-.23-2.31-.35-5.25-.85-10.57-1.31-15.83-.15h0Z"/>
        <path class="cls-7" d="M154.35,109.35c1.98-1.32,4.66-1.13,6.75-.19.71.32,1.36.75,1.92,1.32-1.53-.03-2.9-.29-4.36-.49,0,0-4.31-.63-4.31-.63h0Z"/>
        <path class="cls-7" d="M110.43,149.69c-.71-4.36-.9-8.41-2.21-12.6,3.22,3.17,3.63,8.49,2.21,12.6h0Z"/>
        <path class="cls-7" d="M116.69,139.58c-.52-2.15-.69-4.29-.86-6.46-.19-1.88-.1-4.52-.75-6.32,2.89,2.7,2.61,9.22,1.61,12.78h0Z"/>
        <path class="cls-7" d="M123.45,130.9c-.18-3.44.33-6.66.37-10.02-.06-1.04.06-2.22-.89-2.91,3.82.86,1.99,10.46.51,12.93h0Z"/>
        <path class="cls-7" d="M132.06,122.09c-.09-3.65,1.37-7.1.7-10.71,2.72,2.54,1.21,8.04-.7,10.71h0Z"/>
        <path class="cls-7" d="M141.02,114.98c-.02-2.88,1.04-5.11,1.03-7.91,2.12,2.12.89,6.04-1.03,7.91h0Z"/>
        <path class="cls-7" d="M149.84,109.69c-.19-1.24.11-2.33.5-3.44.07-.32.25-.58.09-1.07.57-.03.96.53,1.08,1.04.29,1.4-.4,2.82-1.67,3.48h0Z"/>
        <path class="cls-7" d="M158.74,105.82c.05-.99.41-1.77.83-2.55.09-.18.18-.42.09-.9.45-.07.94.29,1.08.8.35,1.32-.7,2.56-2,2.65h0Z"/>
        <path class="cls-7" d="M104.83,161.5c-.67-2.58-.96-5.25-1.3-7.83-.14-.85-.24-1.68-.58-2.56.84.49,1.35,1.39,1.71,2.25.97,2.59,1.16,5.54.17,8.15h0Z"/>
        <path class="cls-7" d="M106.3,164.45c1.09-1.42,2.66-2.32,4.31-2.92,1.66-.57,3.47-.81,5.2-.34-.82.39-1.61.65-2.39.94-2.33.81-4.65,1.7-7.12,2.33h0Z"/>
        <path class="cls-7" d="M110.72,154.5c2.7-2.09,6.14-3.16,9.54-3.15,1.15.04,2.31.22,3.35.7-1.14.14-2.21.29-3.27.47-3.17.59-6.38,1.46-9.63,1.98h0Z"/>
        <path class="cls-7" d="M116.75,144.07c3.91-2.09,9.13-2.81,13.11-.55-4.41-.17-8.67.5-13.11.55h0Z"/>
        <path class="cls-7" d="M123.7,134.63c6.15-1.84,13.53-2.52,19.39.53-6.46-1.01-12.89-.31-19.39-.53h0Z"/>
        <path class="cls-7" d="M130.73,126.92c4.65-2.48,10.68-3.57,15.52-1.01-5.28-.48-10.29.55-15.52,1.01h0Z"/>
        <path class="cls-7" d="M139.43,119.21c2.81-1.81,7.78-2.72,10.41-.21-3.56-.48-6.79.44-10.41.21h0Z"/>
        <path class="cls-7" d="M160.91,106.11c.97-1.14,3.94-.85,3.83.92-.44-.14-.7-.05-1-.06-1.03.03-1.97-.18-2.83-.86h0Z"/>
      </g>
      <path class="cls-7" d="M150.25,111.7c2.32-1.13,5.97-1.32,7.6.99-2.6-.39-5.1-.01-7.6-.99h0Z"/>
    </g>
  </g>
  <g>
    <g>
      <path class="cls-2" d="M78.13,194.14s-12.81,8.62-30.59-1.98c-5.25-3.13-9.76-7.37-13.44-12.25-4.35-5.78-11.33-15.82-15.77-26.17-1.76-4.12-7.16-7.91-9.22-10.56-2.19-2.83.23-6.74,40.75-1.46,57.89,7.55,31.1,50.25,31.1,50.25"/>
      <g>
        <g>
          <path class="cls-6" d="M75.5,190.4s-12.37.31-21.41.82"/>
          <path class="cls-7" d="M75.5,190.4c-7.06,1.3-14.28,1.58-21.41.82,7.05-1.31,14.29-1.58,21.41-.82h0Z"/>
        </g>
        <g>
          <path class="cls-6" d="M73.43,186s-16.22-2.15-25.36,2.64"/>
          <path class="cls-7" d="M73.43,186c-8.41.24-17.29-.03-25.36,2.64,7.26-4.64,17.21-4.49,25.36-2.64h0Z"/>
        </g>
        <g>
          <path class="cls-6" d="M71.25,182.25c-1.31.18-10.31-3.28-18.61,1.05"/>
          <path class="cls-7" d="M71.25,182.25c-1.39.2-3.36-.15-4.77-.21-4.7-.43-9.29-.12-13.84,1.26,5.34-4.11,12.67-3.28,18.61-1.05h0Z"/>
        </g>
        <g>
          <path class="cls-6" d="M66.68,176.26c-2.4.79-13.77-2.24-22.91,4.94"/>
          <path class="cls-7" d="M66.68,176.26c-1.66.62-4.23.46-5.99.6-5.94.16-11.72,1.34-16.92,4.34,4.29-4.49,10.92-5.97,16.93-5.5,2.01.07,3.97.59,5.98.56h0Z"/>
        </g>
        <g>
          <path class="cls-6" d="M63.27,172.6s-13.72-2.44-24.16,4.03"/>
          <path class="cls-7" d="M63.27,172.6c-8.32-.07-16.49.69-24.16,4.03,6.65-5.25,16.14-6.22,24.16-4.03h0Z"/>
        </g>
        <g>
          <path class="cls-6" d="M58.36,168.05s-10.68-1.4-22.33,3.68"/>
          <path class="cls-7" d="M58.36,168.05c-7.61.36-14.99,1.69-22.33,3.68,6.57-3.95,14.84-5.41,22.33-3.68h0Z"/>
        </g>
        <g>
          <path class="cls-6" d="M53.44,164.03s-15.17,0-19.86,2.74"/>
          <path class="cls-7" d="M53.44,164.03c-6.64,1.32-13.34,1.04-19.86,2.74,2.76-2.09,6.38-2.54,9.71-2.97,3.39-.3,6.79-.34,10.15.23h0Z"/>
        </g>
        <g>
          <path class="cls-6" d="M49.75,161.27s-11.97-1.85-20.86,2.23"/>
          <path class="cls-7" d="M49.75,161.27c-7.1.21-13.98.4-20.86,2.23,6.1-3.81,14.05-4.11,20.86-2.23h0Z"/>
        </g>
        <g>
          <path class="cls-6" d="M44.51,157.66s-9.39-1.58-18.78,2.77"/>
          <path class="cls-7" d="M44.51,157.66c-6.46.24-12.57,1.12-18.78,2.77,5.39-3.61,12.58-4.63,18.78-2.77h0Z"/>
        </g>
        <g>
          <path class="cls-6" d="M37.57,153.28s-7.49.11-12.2,2.77"/>
          <path class="cls-7" d="M37.57,153.28c-3.97,1.2-8.22,1.79-12.2,2.77,3.21-2.91,8.06-3.64,12.2-2.77h0Z"/>
        </g>
        <g>
          <path class="cls-6" d="M21.38,152.22c3.02-5.39,10.66-1.89,10.66-1.89,0,0-4.05-7.13-1.06-8.78"/>
          <path class="cls-7" d="M21.38,152.22c1.61-4.4,7.36-4.24,10.96-2.55,0,0-.95,1.03-.95,1.03-.78-1.47-1.38-2.99-1.73-4.62-.29-1.49-.44-3.88,1.3-4.51-.65.52-.81,1.3-.75,2.03.25,2.27,1.4,4.39,2.46,6.38.36.59-.33,1.33-.95,1.03-3.35-1.37-7.84-2.03-10.35,1.22h0Z"/>
        </g>
        <g>
          <path class="cls-6" d="M79.08,187.37s.67-16.05,4.93-22.62"/>
          <path class="cls-7" d="M79.08,187.37c-.51-7.25.33-16.73,4.93-22.62-2.83,7.28-3.27,15.01-4.93,22.62h0Z"/>
        </g>
        <g>
          <path class="cls-6" d="M75.89,181.42c.44-1.71.27-14.43,4.01-24.86"/>
          <path class="cls-7" d="M75.89,181.42c-.32-8.4.15-17.23,4.01-24.86-1.87,8.24-2.27,16.62-4.01,24.86h0Z"/>
        </g>
        <g>
          <path class="cls-6" d="M71.23,174.72c.68-2.72.44-13.94,4.58-21.97"/>
          <path class="cls-7" d="M71.23,174.72c-.08-7.47.14-15.62,4.58-21.97-2.52,7.2-2.59,14.7-4.58,21.97h0Z"/>
        </g>
        <g>
          <path class="cls-6" d="M66.6,170.01s.45-8.7,3.5-20.07"/>
          <path class="cls-7" d="M66.6,170.01c-.54-6.83.77-13.79,3.5-20.07-.72,6.8-1.98,13.39-3.5,20.07h0Z"/>
        </g>
        <g>
          <path class="cls-6" d="M63.24,167.08s-1.68-11.31,2.56-18.64"/>
          <path class="cls-7" d="M63.24,167.08c-1.74-6.09-1.45-13.49,2.56-18.64-2.07,6.08-2.2,12.26-2.56,18.64h0Z"/>
        </g>
        <g>
          <path class="cls-6" d="M57.76,162.99s-.06-8.71,3.4-16.42"/>
          <path class="cls-7" d="M57.76,162.99c-.93-5.59.19-11.71,3.4-16.42-1.26,5.52-2.24,10.85-3.4,16.42h0Z"/>
        </g>
        <g>
          <path class="cls-6" d="M52.44,159.56s-.09-7.37,3.36-13.69"/>
          <path class="cls-7" d="M52.44,159.56c-.96-4.7.2-10.03,3.36-13.69-1.26,4.62-2.22,9.01-3.36,13.69h0Z"/>
        </g>
        <g>
          <path class="cls-6" d="M47.93,156.8s-1.22-3.34,1.67-12.82"/>
          <path class="cls-7" d="M47.93,156.8c-1.85-4.06-.46-9.12,1.67-12.82-.05,2.21-.45,4.32-.79,6.46-.29,1.89-.82,4.44-.88,6.36h0Z"/>
        </g>
        <g>
          <path class="cls-6" d="M43.69,154.66s-1.74-7.08-.24-11.48"/>
          <path class="cls-7" d="M43.69,154.66c-1.45-2.62-1.89-5.75-1.37-8.69.2-.98.53-1.97,1.13-2.79,0,1.02.01,1.95.04,2.89.1,2.82.39,5.7.2,8.59h0Z"/>
        </g>
        <g>
          <path class="cls-6" d="M39.83,152.71s-6.13-7.13-2.54-10.33"/>
          <path class="cls-7" d="M39.83,152.71c-2.96-1.88-6.51-7.85-2.54-10.33-.99,1.76-.48,3.4.19,5.13.71,1.76,1.61,3.4,2.35,5.2h0Z"/>
        </g>
        <g>
          <path class="cls-6" d="M24.8,146.11s-11.18-4.68-13.43-3.81"/>
          <path class="cls-7" d="M24.8,146.11c-4.72-.56-8.98-2.96-13.43-3.81,1.09-.58,2.44-.38,3.61-.23,3.53.6,6.91,1.96,9.82,4.05h0Z"/>
        </g>
      </g>
    </g>
    <path class="cls-2" d="M83.19,239.38s1.73-35.78-7.69-48.98c-1.63-2.29-4.48-20.08-50.7-44.28,0,0,28.91,10.77,43.1,25.16,0,0,13.61,10.4,20.53,45.59"/>
  </g>
  <g>
    <g>
      <path class="cls-1" d="M124.29,81.18s11.75,8.94,13.29,20.52c0,0-5.25,5.44-20.05,4.55,0,0-4.75,0-7.33-.95,0,0,7.21,4.67,5.77,22.63,0,0-12.47,6.42-29.68-10.04,0,0-2.79,19.88-11.08,24.63,0,0-15.23-7-15.05-24.87,0,0-8.75,13.32-19.79,13.17,0,0-8.07-7.18-2.21-24.52,0,0-15.66,9.85-24.92,3.64,0,0-4.22-8.88,7.87-21.44,0,0-13.92,2.22-20.49-7.06,0,0-.98-8.8,16.19-16.05,0,0-12.46-3.87-15.78-13.08,0,0,6.5-8.79,22.58-6.28,0,0-14.01-10.27-10.28-23.4,0,0,6.56-7.41,26.64,4.25,0,0-4.88-11.7,4.81-25.76,0,0,13.94,3.8,21.18,16.71,0,0,4.6-14.73,18.23-17.21,0,0,9.86,5.55,6.59,26.8,0,0,16.35-13.86,32.72-7.06,0,0,1.25,12.31-8.34,23.14,0,0,9.58-8.23,26.36,2.56,0,0-.49,13.22-12.75,16.89,0,0,10.51,1.74,13.65,7.73,0,0-4.9,11.19-18.12,10.53Z"/>
      <g>
        <path class="cls-5" d="M103.63,79.54s16.86-2.56,24.55,12.57l4.06,6.21s-5.12,4.2-18.89,3.09c-13.77-1.11-17.21-10.93-17.21-10.93"/>
        <path class="cls-5" d="M91.94,92.97s19.75,13.03,19.28,25.34l-1.4,6.35s-6.08.42-13.68-5.65c-7.6-6.07-11.69-20.03-11.69-20.03"/>
        <path class="cls-5" d="M77.89,101.35s7.51,11.69-.73,28.16l-2.67,5.57s-4.4-3.02-7.75-9.55-2.65-20.09,2-26.29"/>
        <path class="cls-5" d="M62.15,98.03s.63,19.03-17.73,26.01c0,0-9.84-7.78,8.58-29.43"/>
        <path class="cls-5" d="M48.25,90.46s-12.5,17.6-29.73,16.11c0,0-4.37-13.04,22.59-26.64"/>
        <path class="cls-5" d="M39.75,77.66s-15.8,11.56-32.41,3.28c0,0,.31-15.94,30.14-13.81"/>
        <path class="cls-5" d="M38.37,62.72s-20.68,5.77-31.34-8.97c0,0,14.67-9.47,32.77,1.61"/>
        <path class="cls-5" d="M49.76,42.21s-10.72-16.54-30.62-16.29c0,0-1.17,17,22.08,24.74"/>
        <path class="cls-5" d="M64.44,36.96s9.11-16.09-17.21-29.81c0,0-8.78,19.52,6.78,31.75"/>
        <path class="cls-5" d="M69.71,37.79s-4.97-23.74,13.62-32.2c0,0,11.36,14.44-2.43,31.69"/>
        <path class="cls-5" d="M88.86,40.6s13.14-22.45,30.94-17.83c0,0-2.98,19.98-19.99,27.32"/>
        <path class="cls-5" d="M101.9,53.54c.81.04,15.63-13.55,34.67-5.93,0,0-2.63,13.68-31.7,16.58"/>
        <path class="cls-5" d="M104.8,67.45c1.14.26,17.71-6.2,30.72,2.12,0,0-1.33,8.29-16.6,7.39-15.27-.89-14.31-2.37-14.31-2.37"/>
      </g>
      <path class="cls-4" d="M104.6,71.39s3.4.34-3.07,12.84c0,0-1.26,4.64-5.39,6.25-4.14,1.61-7.99,5.96-7.99,5.96,0,0-6.39,6.31-13.59,4.67s-3.49-1.78-9.85-2.74c-6.37-.96-8.06-.33-12.75-4.68s-11.16-8.37-10.86-13.76c0,0-5.91-7.88-2.74-17.21,3.18-9.33-1.68-9.68,9.65-19.08,11.34-9.4,9.86-7.44,21.69-5.85,11.83,1.59,10.64-4.12,20.26,3.68s12.4,10.19,12.24,14.52c-.15,4.09,6.86,9.5,2.12,13.67-.58.51.28,1.73.28,1.73Z"/>
    </g>
    <g>
      <path class="cls-8" d="M72.35,63.26c9.19-1.43,8.56,7.33,4.78,12.88-1.97,2.8-5.5,2.74-7.84.73-6.55-5.19-3.41-10.57,3.06-13.61h0ZM72.35,63.26c-2.27,1.48-4.98,3.28-5.83,5.96-1.09,3.64,2.63,7.62,6.05,8.25,3.47.4,5.14-3.41,5.99-6.18,1.78-5.33-.57-8.42-6.21-8.03h0Z"/>
      <path class="cls-8" d="M66.73,73.42c-5.33,10.47,12.96,12.39,16.52,4.7,2.2-3.53,3.85-8.17,2.01-12.15-1.97-4.17-6.62-5.71-10.36-2.74-.16.13-.4.11-.54-.04-1.55-1.69-3.79-3.29-6.17-3.07-2.45.25-4.09,2.51-5.15,4.57-2.43,4.1-2.48,10.79,2.69,12.71-5.36-1.75-5.58-8.71-3.16-12.94,1.09-2.26,2.82-4.69,5.54-5.03,2.71-.29,5.08,1.39,6.84,3.26,0,0-.54-.04-.54-.04,2.74-2.3,7.01-2.44,9.58.19,2.64,2.34,3.41,6.17,2.55,9.51-1.11,4.19-3.37,9.1-7.87,10.36-6.41,2.06-16.41-1.05-11.93-9.29h0Z"/>
      <path class="cls-8" d="M65.32,61.07c5.6-8.36,14.1-6.31,18.35,2.05-1.19-1.49-2.43-2.92-3.86-4.11-4.84-4.35-10.53-2.38-14.49,2.06h0Z"/>
      <path class="cls-8" d="M77.5,56.95c5.84-.43,13.21,1.88,14.41,8.41,1.18,5.98-.21,12.63-4.59,17.07-3.11,3.7-8.34,7.76-13.79,6.97-1.76-.26-3.42-1.17-4.96-2.01-7.02-3.68-12.09-8.83-7.32-16.82-2.89,5.31-1.81,10.1,3.19,13.53,2.76,1.8,5.98,3.92,9.2,4.56,1.66.24,3.37-.04,4.95-.65,3.18-1.24,5.89-3.59,8.13-6.15,2.08-2.01,3.5-4.77,4.24-7.62,2.58-10.97-2.08-17.23-13.46-17.3h0Z"/>
      <path class="cls-8" d="M59.5,76.27c-5.22-6.15-2.86-14.31,2.08-19.82,7.24-9.22,17.09-7.31,23.45,1.64-6.85-8.1-15.67-10.01-22.83-1.11-4.83,5.31-7.27,12.97-2.69,19.29h0Z"/>
      <path class="cls-8" d="M74.78,66.34c5.52,2.23-1.53,12.38-5.41,7.66-.81-1.06-1.74-2.15-1.61-3.62.03-.21.06-.29.17-.47.22-.44.73-.66,1.14-.79,1.46-.2,2.85-.31,4.26.07.2.11.47.18.41.6-.03.18-.26.26-.4.14-2.79-1.87-1.16-3.31,1.45-3.59h0ZM74.78,66.34c-2.05.57-3.81,1.58-1.17,3.11,0,0-.4.14-.4.14-.03.21.03.16,0,.16-.01,0-.06-.03-.1-.04-1.22-.23-2.65-.04-3.85.15-1.71.6.05,2.63.75,3.6,1.9,2.48,4.68-.22,5.75-2.17,1.09-1.66.87-3.94-.99-4.95h0Z"/>
      <path class="cls-8" d="M64.11,54.35c-5.25-.37-8.29,5.05-9.88,9.31-1.81,4.44-2.52,9.62-.21,14.02,2.2,4.29,6.29,7.7,10.94,9.02.92.2,2,.43,2.85-.11-3.07,1.67-8.46-1.73-10.79-3.8-5.86-5.17-6.55-12.47-3.48-19.39,1.69-4.31,5.23-9.89,10.57-9.05h0Z"/>
      <path class="cls-8" d="M55.01,60.95c2.77-11.05,11.44-16.04,21.68-9.88,2.66-.42,8.08,1.15,10.53,3.88,1.05,1,1.88,2.26,2.58,3.52,1.05,2.14,1.6,4.59,1.84,6.94-.29-1.35-.57-2.85-1.08-4.15-.2-.79-.81-1.84-1.15-2.59-2.64-4.81-7.82-7.05-13.12-6.9-10.01-5.95-17.81-1.2-21.27,9.17h0Z"/>
      <path class="cls-8" d="M80.73,87.45c-6.51,6.11-15.96,5.93-20.3-2.51,5.49,7.46,13.01,7.36,20.3,2.51h0Z"/>
      <path class="cls-8" d="M64.5,89.32c-9.41-1.67-15.69-8.76-12.78-18.49,0,0,.02.28.02.28-1.6-4.22-1.5-9.13.75-13.08,1.1-1.92,2.68-3.61,4.43-4.96,1.72-1.33,3.8-2.32,5.78-3.19,0,0-2.88,1.59-2.88,1.59-.78.6-1.94,1.26-2.64,1.93-5.56,4.48-6.97,11.07-4.65,17.65-2.93,9.33,3.2,16.06,11.97,18.27h0Z"/>
      <path class="cls-8" d="M61.24,50.57c5.29-7.28,15.06-4.57,20.9.52.82.75,1.65,1.48,2.45,2.25-.92-.62-1.8-1.28-2.7-1.91-6.13-4.37-14.74-7.08-20.65-.86h0Z"/>
      <path class="cls-8" d="M68.54,46.56c-8.95-1.49-14.34,4.61-15.94,12.83-2.66,3.32-5.1,7.2-5.44,11.53-.48,4.38,2.21,8.32,5.73,10.73-3.82-2.14-6.75-6.23-6.41-10.77.14-4.14,3.01-9.38,5.3-11.66,1.73-8.48,7.55-14.88,16.76-12.66h0Z"/>
      <path class="cls-8" d="M80.09,49.9c10.58-.93,15.46,7.08,11.73,16.61.38-2.03.65-4.08.56-6.1-.05-6.97-5.96-10.23-12.29-10.5h0Z"/>
      <path class="cls-8" d="M92.7,60.05c8.08,6.65.62,27-7.82,30.81-3.56,1.88-7.93,1.78-11.46.16,3.61,1.28,7.8,1.18,11.15-.74,7.86-3.97,15.27-23.36,8.13-30.23h0Z"/>
      <path class="cls-8" d="M78.89,92.06c-6.03,4.94-14.29,2.88-19-2.83-.6-.81-1.22-1.6-1.79-2.42.72.7,1.4,1.43,2.1,2.13,5.14,5.03,12.16,6.92,18.7,3.12h0Z"/>
      <path class="cls-8" d="M62.86,91.58c-7.82-.11-13.89-5.64-15.17-13.29-.14-1.03-.22-2.06-.29-3.08.34,1.45.64,3.04,1.17,4.44,2.07,6.5,7.6,10.84,14.29,11.93h0Z"/>
      <path class="cls-8" d="M48.11,79.17c-9.28-10.41-3.82-22.16,7.45-27.97-.56.42-1.13.84-1.7,1.25-.83.64-2.43,1.98-3.2,2.69-7.48,6.76-8.58,15.87-2.55,24.03h0Z"/>
      <path class="cls-8" d="M49.01,56.34c3.45-11.49,13.39-18.91,23.8-9.59-11.17-7.89-18.98-1.16-23.8,9.59h0Z"/>
      <path class="cls-8" d="M68.09,43.9c7.14-2.23,15.13.9,19.9,6.43.67.8,1.29,1.64,1.9,2.48-1.07-1.06-2.19-2.25-3.36-3.2-4.99-4.37-11.81-6.69-18.43-5.71h0Z"/>
      <path class="cls-8" d="M84.77,47.76c8.68,1.49,13.5,8.94,11.96,17.5-.25,1.09-.52,2.18-.82,3.25.11-1.11.29-2.2.4-3.3.71-8.55-3.35-14.78-11.54-17.45h0Z"/>
      <path class="cls-8" d="M96.7,62.37c4.27,6.11,2.7,14.33-2.74,19.18-.76.65-1.55,1.26-2.34,1.86.98-1.05,2.1-2.13,2.95-3.3,4.17-5.03,4.95-11.84,2.13-17.74h0Z"/>
      <path class="cls-8" d="M96.02,78.73c.41,6.85-3.77,13.65-11.23,13.27-.93-.05-1.84-.22-2.75-.36.93-.05,1.84.03,2.74-.06,7.2-.44,10.41-6.29,11.24-12.85h0Z"/>
      <path class="cls-8" d="M88.48,91.18c-3.84,4.44-11.26,7.46-16.31,3.26,5.53,2.96,11.69.13,16.31-3.26h0Z"/>
      <path class="cls-8" d="M76.43,96.03c-5.94,3.05-13.5,1.16-17.83-3.78-.6-.7-1.16-1.44-1.7-2.17.97.91,1.98,1.93,3.05,2.73,4.53,3.75,10.85,4.96,16.48,3.23h0Z"/>
      <path class="cls-8" d="M60.46,93.62c-8.85-.95-18.41-7.61-14.44-17.51-.19,1.07-.4,2.14-.39,3.21-.42,8.15,8.04,12.45,14.83,14.3h0Z"/>
      <path class="cls-8" d="M45.39,80.74c-5.11-4.32-7.3-12.04-2.27-17.28.61-.68,1.37-1.23,2.05-1.83-.56.73-1.22,1.35-1.73,2.1-4.25,5.53-2.11,12.04,1.95,17.02h0Z"/>
      <path class="cls-8" d="M55.58,46.08c-8.36,1.54-12.62,9.85-13.82,17.56-.17,1.14-.31,2.28-.51,3.43,0-1.16.06-2.31.09-3.48.49-7.94,5.44-17.07,14.24-17.51h0Z"/>
      <path class="cls-8" d="M50.79,47.61c4.41-8.37,13.85-10.95,21-4.16-7.94-5.5-15.43-3.28-21,4.16h0Z"/>
      <path class="cls-8" d="M69.15,41.03c6.8-2.22,15.42-.79,19.72,5.33.95,1.31,1.72,2.92,2.28,4.42-4.37-8.71-12.84-11.25-22-9.75h0Z"/>
      <path class="cls-8" d="M89.4,47.52c9.68.99,11.62,11.1,8.94,18.99.26-2.45.59-4.93.34-7.39-.24-5.56-3.74-10.32-9.29-11.6h0Z"/>
      <path class="cls-8" d="M99.17,62.09c5.88,6.46,3.83,15.6-2.1,21.24-.85.73-1.68,1.48-2.54,2.18,1.48-1.65,2.99-3.25,4.21-5.09,3.87-5.52,4.37-12.65.43-18.33h0Z"/>
      <path class="cls-8" d="M81.6,60.36c3.75.47,7.83,2.83,8.37,6.93.54,3.83-1.5,8.22-5.39,9.26,3.44-1.64,5.03-5.52,4.55-9.14-.5-3.79-4.14-5.95-7.53-7.05h0Z"/>
      <path class="cls-8" d="M87.4,74.64c-.53,10.31-16.7,16.47-21.98,7.52-2.69-1.32-4.68-4.46-3.01-7.32-.23.68-.44,1.38-.39,2.09.03,2.25,1.98,3.81,3.78,4.78,2.65,4.15,8.18,4.8,12.51,3.03,4.49-1.55,8.22-5.31,9.09-10.09h0Z"/>
      <path class="cls-8" d="M77.73,64.28c3.7-1.48,6.34,2.9,6.56,6.09.26,3.57-2,6.78-4.74,8.85-1.05.54-2.14.89-3.27,1.12-3.67.83-6.95-.96-7.82-4.7,1.81,4.94,6.56,5.03,10.66,2.88,2.26-1.77,4.69-4.89,4.44-8.11-.13-3.02-2.24-7.13-5.83-6.14h0Z"/>
      <path class="cls-8" d="M79.41,69.02c4.23-.34,2.52,4.89,1.14,6.99-1.12,1.37-2.83,2.43-4.64,2.28-.59-.04-1.13-.26-1.62-.52.55.11,1.09.23,1.63.15,1.53-.08,3.13-1.35,3.91-2.32,1.08-1.96,3.23-6.13-.41-6.58h0Z"/>
      <path class="cls-8" d="M71.09,63.98c-2.78-2.74-5.17.89-6.22,3.39-.39.96-2.73,5.5-.77,5.51.7-.02,1.42-.36,2.1-.7-.79.65-2.48,1.84-3.29.58-.65-1.97.5-3.99,1.19-5.75,1.08-2.72,4.4-6.62,6.99-3.03h0Z"/>
      <path class="cls-8" d="M78.84,61.27c-2.65-1.69-5.88-3.16-8.84-1.36,2.35-3.01,7-1.4,8.84,1.36h0Z"/>
      <path class="cls-8" d="M81.25,57.14c-3.29-2.63-8.38-5.57-12.24-2.56-2.64,2.31-5.29,4.93-7.31,7.78-1.31,3.17-2.34,7.24-1.64,10.86-1.1-3.67-.34-7.68.99-11.2,2.09-3.09,4.64-5.7,7.48-8.05,4.13-3.21,9.61-.03,12.72,3.18h0Z"/>
      <path class="cls-8" d="M61.71,82.01c-4.7-1.82-8.84-6.5-8.08-11.83.39-2.45.87-5.27,2.91-6.92.41-.31.92-.52,1.43-.49-1.02.15-1.69,1-2.14,1.83-1.09,2.16-1.38,4.71-1.45,7.11.23,4.5,3.64,8.03,7.33,10.3h0Z"/>
      <path class="cls-8" d="M51.09,66.35c-1.48,3.43-1.96,7.23.36,10.35-3.43-2.34-3.01-7.56-.36-10.35h0Z"/>
      <path class="cls-8" d="M92.33,64.3c5.57,7.43-1.45,18.2-6.87,23.78-1.87,2.04-6.02,4.56-7.15.46.46,1.41,1.91,2.32,3.32,1.68,1.32-.51,2.39-1.56,3.37-2.6,1.95-2.13,3.68-4.52,5.2-6.99,2.87-4.75,5.36-11.19,2.14-16.33h0Z"/>
      <path class="cls-8" d="M102.71,81.81c6.79-1.5,13.66,1.8,18.53,6.39.67.69,1.35,1.38,1.99,2.09-.78-.57-1.5-1.2-2.26-1.77-5.24-4.01-11.5-7.09-18.26-6.71h0Z"/>
      <path class="cls-8" d="M101.91,83.5c5.98.04,11.91,2.41,16.59,6.09-5.29-2.65-10.77-4.88-16.59-6.09h0Z"/>
      <path class="cls-8" d="M101.07,85.47c4.78,1.3,9.35,3.14,13.68,5.53-4.78-1.3-9.34-3.14-13.68-5.53h0Z"/>
      <path class="cls-8" d="M99.9,87.48c5.07,2.69,10.1,5.27,15.44,7.36-5.68-.95-11.04-3.69-15.44-7.36h0Z"/>
      <path class="cls-8" d="M98.18,89.31c4.51,4.98,10.99,7.56,17.45,8.85.94.19,1.88.31,2.83.51-.96,0-1.92-.04-2.89-.1-6.63-.63-13.67-3.5-17.39-9.27h0Z"/>
      <path class="cls-8" d="M90.57,94.09c6.11,4.43,12.15,9.63,15.73,16.39-4.49-6-10.42-11.12-15.73-16.39h0Z"/>
      <path class="cls-8" d="M89.29,95.27c4.48,3.81,8.54,8.03,12.18,12.65-4.48-3.81-8.54-8.03-12.18-12.65h0Z"/>
      <path class="cls-8" d="M87.67,96.88c3.45,2.97,6.48,6.33,9.05,10.08-3.45-2.96-6.47-6.33-9.05-10.08h0Z"/>
      <path class="cls-8" d="M86.03,98.16c3.92,5.93,6.95,12.46,11.7,17.78-2.95-2.08-4.93-5.23-6.85-8.22-1.86-3.06-3.53-6.23-4.85-9.56h0Z"/>
      <path class="cls-8" d="M76,101.34c2.16,4.84,3.32,10.47,2.1,15.7.03-5.34-1.06-10.48-2.1-15.7h0Z"/>
      <path class="cls-8" d="M74.56,101.11c.83,6.47,1.09,12.98.75,19.49-.84-6.47-1.09-12.98-.75-19.49h0Z"/>
      <path class="cls-8" d="M72.66,100.65c.17,5-.25,9.96-1.25,14.87-.17-5,.25-9.96,1.25-14.87h0Z"/>
      <path class="cls-8" d="M70.59,100.02c-1.54,6.43-2.74,12.99-2.17,19.63-1.77-6.48-.5-13.58,2.17-19.63h0Z"/>
      <path class="cls-8" d="M60.32,97.8c-1.08,6.02-2.98,12.57-7.58,16.86,3.61-4.95,5.39-11.19,7.58-16.86h0Z"/>
      <path class="cls-8" d="M57.93,97.36c-.87,4.08-2.3,7.96-4.27,11.64.87-4.08,2.3-7.96,4.27-11.64h0Z"/>
      <path class="cls-8" d="M56.02,96.66c-1.74,5.03-4.01,9.83-6.81,14.36,1.74-5.04,4.02-9.83,6.81-14.36h0Z"/>
      <path class="cls-8" d="M54.18,95.54c-2.42,5.4-5.59,10.65-8.66,15.7,2.06-5.65,5.19-10.82,8.66-15.7h0Z"/>
      <path class="cls-8" d="M46.84,89.25c-4.26,5.56-9.78,10.73-16.56,12.93,6.26-3.29,11.41-8.15,16.56-12.93h0Z"/>
      <path class="cls-8" d="M45.18,87.71c-3.96,3.98-8.3,7.51-13,10.57,3.96-3.98,8.3-7.5,13-10.57h0Z"/>
      <path class="cls-8" d="M43.48,85.88c-5.15,4.63-10.66,8.8-16.52,12.49,5.15-4.63,10.67-8.79,16.52-12.49h0Z"/>
      <path class="cls-8" d="M42.06,83.81c-5.07,2.15-9.61,5.24-14.36,7.99,4.05-3.69,8.91-6.96,14.36-7.99h0Z"/>
      <path class="cls-8" d="M38.91,75.79c-5.16,3.42-11.51,5.75-17.78,5.14,6.21-.59,12.06-2.77,17.78-5.14h0Z"/>
      <path class="cls-8" d="M38.19,73.69c-4.39,1.79-8.94,3.03-13.64,3.69,4.39-1.8,8.95-3.02,13.64-3.69h0Z"/>
      <path class="cls-8" d="M37.73,71.66c-6.29,1.75-12.69,2.92-19.18,3.51,6.29-1.75,12.69-2.92,19.18-3.51h0Z"/>
      <path class="cls-8" d="M37.48,69.71c-5.3.59-10.64.37-15.81,1.72,4.78-2.49,10.58-2.32,15.81-1.72h0Z"/>
      <path class="cls-8" d="M39.59,57.38c-5.87-2.18-11.64-4.27-17.8-5.48,6.28.02,12.47,2.25,17.8,5.48h0Z"/>
      <path class="cls-8" d="M39.38,58.82c-4.65-.65-9.15-1.87-13.49-3.66,4.65.65,9.15,1.88,13.49,3.66h0Z"/>
      <path class="cls-8" d="M39.03,60.49c-6.82-1-13.52-2.56-20.07-4.7,6.82.99,13.52,2.56,20.07,4.7h0Z"/>
      <path class="cls-8" d="M38.7,61.7c-4.94.69-10.05.41-14.83-1.02,4.99.26,9.86.54,14.83,1.02h0Z"/>
      <path class="cls-8" d="M48.02,43.64c-4.69-4.4-9.49-8.53-14.67-12.33,5.8,2.78,10.87,7.15,14.67,12.33h0Z"/>
      <path class="cls-8" d="M46.32,45.09c-6.57-4.31-12.79-9.09-18.64-14.33,6.57,4.31,12.79,9.09,18.64,14.33h0Z"/>
      <path class="cls-8" d="M44.22,47.04c-5.6-3.33-11.09-7.14-15.37-12.11,5.01,4.04,10.51,7.87,15.37,12.11h0Z"/>
      <path class="cls-8" d="M42.87,48.45c-4.6-.13-8.84-2.95-11.86-6.26,3.8,2.39,7.52,4.96,11.86,6.26h0Z"/>
      <path class="cls-8" d="M63.01,36.73c.38-7.14-2.03-14.15-6.34-19.81,5.29,4.9,7.94,12.73,6.34,19.81h0Z"/>
      <path class="cls-8" d="M60.58,36.46c-.39-3.87-.14-7.85-1.99-11.36,2.91,2.85,2.81,7.64,1.99,11.36h0Z"/>
      <path class="cls-8" d="M58.8,36.57c-2.34-5.46-4.13-11.11-5.35-16.92,2.35,5.46,4.13,11.11,5.35,16.92h0Z"/>
      <path class="cls-8" d="M55.83,37.72c-3.78-5.98-6.56-12.8-7.29-19.87,1.9,6.85,4.55,13.32,7.29,19.87h0Z"/>
      <path class="cls-8" d="M78.14,37.7c4.11-5.67,5.34-13.1,6.8-19.81-.3,6.94-1.68,14.74-6.8,19.81h0Z"/>
      <path class="cls-8" d="M76.03,37.98c2.08-4.77,3.66-9.68,4.52-14.81.33,5.24-1.41,10.62-4.52,14.81h0Z"/>
      <path class="cls-8" d="M74.42,38.08c-.34-4.21.27-8.44.9-12.61.78-4.13,1.78-8.36,3.95-12-2.89,7.87-3.93,16.32-4.85,24.61h0Z"/>
      <path class="cls-8" d="M71.8,38.01c-.87-5.79-.67-12,1.66-17.44-1.18,5.77-1.36,11.57-1.66,17.44h0Z"/>
      <path class="cls-8" d="M91.04,42.34c4.59-6.79,10.61-13.14,18.21-16.48-7,4.38-12.69,10.42-18.21,16.48h0Z"/>
      <path class="cls-8" d="M93.11,44.03c3.79-4.74,8-9.08,12.64-13-3.79,4.74-8.01,9.08-12.64,13h0Z"/>
      <path class="cls-8" d="M95.08,45.67c4.47-4.84,9.31-9.24,14.56-13.21-4.45,4.83-9.32,9.25-14.56,13.21h0Z"/>
      <path class="cls-8" d="M97.69,47.95c6.03-4.08,11.26-9.18,15.68-14.96-3.43,6.46-9.02,11.89-15.68,14.96h0Z"/>
      <path class="cls-8" d="M102.21,55.99c6.04-5.27,14.13-8.13,22.12-8.24,1.14-.02,2.29.09,3.42.17-9.06.31-17.97,3.05-25.54,8.06h0Z"/>
      <path class="cls-8" d="M102.74,58.66c6.1-4.74,13.72-7.93,21.51-8.06-7.64,1.32-14.74,4.31-21.51,8.06h0Z"/>
      <path class="cls-8" d="M103.61,60.77c5.05-2.6,10.31-4.66,15.79-6.17-5.04,2.6-10.31,4.66-15.79,6.17h0Z"/>
      <path class="cls-8" d="M104.42,62.72c3.81-.98,7.57-2.19,11.3-3.43,3.66-1.33,7.51-2.46,10.62-4.91-2.69,2.98-6.68,4.36-10.35,5.71-3.77,1.22-7.62,2.29-11.57,2.62h0Z"/>
      <path class="cls-8" d="M104.17,68.64c8.07-1.83,16.73-2.35,24.78-.13-8.25-1.05-16.51-.53-24.78.13h0Z"/>
      <path class="cls-8" d="M103.21,69.66c6.65-.44,13.28-.29,19.9.44-6.65.44-13.28.29-19.9-.44h0Z"/>
      <path class="cls-8" d="M103.73,72.29c5.32-.58,10.7-.58,16.03.02-5.35.58-10.67.57-16.03-.02h0Z"/>
      <path class="cls-8" d="M104.52,73.84c3.22-.02,7.87.31,11.14.45,2.77.12,5.54.29,8.3.1.89-.09,1.89-.12,2.61-.71-1.37,1.32-3.57,1.24-5.35,1.45-5.6.29-11.19-.34-16.7-1.3h0Z"/>
    </g>
  </g>
</svg>