<?xml version="1.0" encoding="UTF-8"?>
<svg id="_오른쪽_위" data-name="오른쪽_위" xmlns="http://www.w3.org/2000/svg" version="1.1" viewBox="0 0 77.04 73.99">
  <defs>
    <style>
      .cls-1 {
        fill: #ff97b5;
      }

      .cls-1, .cls-2 {
        stroke-width: 0px;
      }

      .cls-3 {
        fill: none;
      }

      .cls-3, .cls-4, .cls-5 {
        stroke: #111114;
        stroke-linecap: round;
        stroke-linejoin: round;
        stroke-width: 1.2px;
      }

      .cls-2 {
        fill: #111114;
      }

      .cls-4 {
        fill: #ff6a37;
      }

      .cls-5 {
        fill: #ffec2d;
      }
    </style>
  </defs>
  <path class="cls-1" d="M72.18,25.74c-2.09-4.14-10.82-.88-12.53-.87l-.07-.15c5.92-4.02,9.13-8.46,6.35-9.52-4.23-1.61-.6-2.82-5.45-6.38-4.84-3.55-8.89.93-8.89.93.28-1.78.42-3.22.42-4.03,0-3.23-2.62,0-3.63-1.61-1.01-1.61-7.46-1.61-8.67-1.21s-1.21-4.23-4.44-1.35c-3.23,2.88-2.82-.26-8.27,3.57-2,1.4-1.78,4.55-.7,7.97l-.06.03c-1.04-.92-11.68-9.86-17.01,2.48,0,0-5.01,7.65.84,9.98l.05-.04.02.06c-2.42.11-4.71.95-6.52,2.98-7.46,8.39,1.41,3.76,0,10.41-1.41,6.65-2.49,10.69,5.61,11.29l.86-.9c-.81,1.45-1.11,3.12-.63,5.01,2.62,10.21-2.42,7.01,5.24,10.42,7.66,3.41,9.31-2,9.33-1.43v-.08c-.03,2.72.85,5.05,3.37,6.34,9.48,4.84,2.04-2.02,10.4,2.42,8.36,4.44,10.8-3.63,10.8-3.63,0,0,4.98,2.8,7.41-5.17h.08c2.27,3.89,9.43-.49,10.03-2.9.6-2.42,5.89-9.09,2.04-11.91h0c3.33-.49,5.36-2.05,4.62-6.85-1.01-6.45,1.61-.6,3.23-7.26,1.61-6.65-1.61-4.23-3.83-8.62ZM51.59,9.76l-.15,1.03h-.02c.06-.35.12-.7.17-1.03Z"/>
  <g>
    <g>
      <path class="cls-3" d="M32.57,25.74s-11-16.79-5.55-20.62c5.44-3.83,5.04-.69,8.27-3.57,3.23-2.88,3.23,1.76,4.44,1.35s7.66-.4,8.67,1.21,3.63-1.61,3.63,1.61-2.26,16.62-6.77,21.62"/>
      <path class="cls-5" d="M29.23,27.5s5.85-4.53,12.5-1.76c6.65,2.77,7.26,3.98,7.66,7.21.4,3.23,2.02,10.69-5.04,12.3-7.06,1.61-8.27,3.23-12.9,0-4.64-3.23-8.87-8.87-2.22-17.74Z"/>
      <path class="cls-4" d="M35.08,29.52s5.44-3.02,8.27,1.81,4.59,5.24,3.2,7.86-11.27,6.86-12.68,2.42c-1.41-4.44-7.06-5.65,1.21-12.1Z"/>
      <path class="cls-3" d="M51.59,9.75s4.05-4.48,8.89-.93,1.21,4.76,5.45,6.38c4.23,1.61-5.38,11.06-17.31,14.9"/>
      <path class="cls-3" d="M59.41,24.84c.87.44,10.55-3.49,12.76.9,2.22,4.38,5.44,1.96,3.83,8.62s-4.23.81-3.23,7.26c1.01,6.45-3.02,7.06-8.47,7.06s-4.96-10.64-14.85-8.04"/>
      <path class="cls-3" d="M40.67,46.19s13.16,12.96,15.37,17c2.22,4.03,9.48-.4,10.08-2.82.6-2.42,5.89-9.09,2.04-11.91"/>
      <path class="cls-3" d="M31.45,45.24s-13.51,19.56-4.03,24.4c9.48,4.84,2.04-2.02,10.4,2.42,8.36,4.44,10.8-3.63,10.8-3.63,0,0,5.01,2.82,7.43-5.24"/>
      <path class="cls-3" d="M27.03,40.68s-20.18,3.51-17.56,13.72-2.42,7.01,5.24,10.42c7.66,3.41,9.31-2,9.33-1.43"/>
      <path class="cls-3" d="M26.61,32.05s-15.52-11.86-22.98-3.47,1.41,3.76,0,10.41-2.49,10.69,5.61,11.29"/>
      <path class="cls-3" d="M26.34,13.2S14.85,2.63,9.24,15.6c0,0-5.01,7.65.84,9.98"/>
    </g>
    <g>
      <path class="cls-2" d="M35.91,24.34c-2.53-4.05-4.01-8.79-4.22-13.55,1.31,4.6,2.68,9.02,4.22,13.55h0Z"/>
      <path class="cls-2" d="M38.27,24.73c-.68-4.46-.82-8.94-.4-13.43.69,4.46.82,8.94.4,13.43h0Z"/>
      <path class="cls-2" d="M41.41,25.75c.82-5.49,1.67-11.5,2.43-17,.31,5.75-.52,11.57-2.43,17h0Z"/>
      <path class="cls-2" d="M48,27.95c1.66-4.82,3.84-9.46,6.49-13.82-1.66,4.82-3.84,9.46-6.49,13.82h0Z"/>
      <path class="cls-2" d="M49.92,33.23c2.74-3.71,7.99-5.58,12.46-4.42-4.6.03-8.86,1.54-12.46,4.42h0Z"/>
      <path class="cls-2" d="M49.98,34.97c6.14-1.3,12.38-2.08,18.65-2.3-6.14,1.31-12.38,2.07-18.65,2.3h0Z"/>
      <path class="cls-2" d="M50.37,36.84c5.05.76,10.56,1.69,15.57,2.65-5.29.11-10.61-.8-15.57-2.65h0Z"/>
      <path class="cls-2" d="M49.51,28.89c3.34-2.84,5.96-6.12,7.99-10-.94,4.27-4.03,8.14-7.99,10h0Z"/>
      <path class="cls-2" d="M48.82,43c4.53-1.04,9.51,2.91,9.52,7.56-1.29-4.33-5.01-7.29-9.52-7.56h0Z"/>
      <path class="cls-2" d="M47.01,44.56c4.51,5.14,9.37,9.9,14.6,14.31-5.89-3.52-10.95-8.49-14.6-14.31h0Z"/>
      <path class="cls-2" d="M37.77,47.42c4.17,3.08,7.22,7.74,8.37,12.8-2.19-4.65-4.98-8.93-8.37-12.8h0Z"/>
      <path class="cls-2" d="M34.84,47.88c2.57,4.7,4.1,10.49,3.54,15.77-.04,0-.08-.04-.08-.08-.12-.93-.07-.93.18-.04,0,0-.18.02-.18.02-.62-5.37-1.79-10.53-3.46-15.68h0Z"/>
      <path class="cls-2" d="M32.72,46.84c-.26,5.22-.7,10.92-1.27,16.11-.51-5.39-.07-10.87,1.27-16.11h0Z"/>
      <path class="cls-2" d="M28.63,42.76c-4.48,1.98-9.26,4.29-13.61,6.55,3.89-3.26,8.64-5.54,13.61-6.55h0Z"/>
      <path class="cls-2" d="M29.8,44.57c-4.61,3.21-8.67,7.07-12.1,11.52,2.51-5.08,6.91-9.26,12.1-11.52h0Z"/>
      <path class="cls-2" d="M25.98,33.99c-4.31-1.56-8.62-2.41-13.2-2.64,4.48-.91,9.42.08,13.2,2.64h0Z"/>
      <path class="cls-2" d="M25.19,36.7c-4.18-.56-8.2-.66-12.41-.31,3.95-1.45,8.54-1.33,12.41.31h0Z"/>
      <path class="cls-2" d="M27.3,29.25c-3.34-2.69-6.52-5.34-9.76-8.15,3.84,1.88,7.22,4.71,9.76,8.15h0Z"/>
      <path class="cls-2" d="M28.74,27.55c-3.3-3.86-6.83-8.14-9.98-12.13,4.05,3.36,7.46,7.51,9.98,12.13h0Z"/>
      <path class="cls-2" d="M25.69,38.77c-5.32-.14-10.47.93-15.26,3.25,0,0-.04-.17-.04-.17.91.11.9.16,0,.18-.08,0-.12-.11-.05-.16,4.34-3.12,10.16-4.33,15.37-3.1h0Z"/>
    </g>
  </g>
</svg>