<?xml version="1.0" encoding="UTF-8"?>
<svg id="_오른쪽_위" data-name="오른쪽_위" xmlns="http://www.w3.org/2000/svg" version="1.1" viewBox="0 0 196.59 37.97">
  <defs>
    <style>
      .cls-1 {
        fill: none;
        stroke: #111114;
        stroke-linecap: round;
        stroke-linejoin: round;
        stroke-width: 1.2px;
      }

      .cls-2 {
        fill: #ff6a37;
      }

      .cls-2, .cls-3 {
        stroke-width: 0px;
      }

      .cls-3 {
        fill: #111114;
      }
    </style>
  </defs>
  <path class="cls-2" d="M85.72,27.04c-6.51,6.95-45.6,3.47-45.6,3.47L.6,29.65l47.34,6.95s26.93,1.74,38.22,0c11.29-1.74,42.13-18.24,67.32-22.15,25.19-3.91,42.51-9.04,42.51-9.04l-18.39-4.81s-85.35,19.49-91.87,26.44Z"/>
  <path class="cls-3" d="M44.71,33.82c1.64-.42,3.2-.12,4.75.32,1.58.17,3.2-.17,4.78.06,1.05.14,2.09.35,3.12.77.05.02.04.09,0,.1-2.7.65-5.27-.22-7.92-.61-1.61.15-3.19.16-4.73-.54-.04-.02-.04-.09,0-.1h0Z"/>
  <path class="cls-3" d="M68.08,35.34c1.53-.61,3.05-.5,4.6-.26,2.54-.18,5.25-1.03,7.71-.06-2.48,1.04-5.12.43-7.7.39-1.53.34-3.04.55-4.6.03-.05-.01-.05-.08,0-.1h0Z"/>
  <path class="cls-3" d="M87.58,32.25c1.56-1.67,3.6-2.61,5.73-3.3,2.01-.93,3.87-2.2,6.02-2.82,1.42-.43,2.88-.71,4.39-.75.05,0,.07.08.02.1-3.3,1.71-6.91,2.32-10.29,3.77-1.86,1.21-3.66,2.39-5.81,3.1-.05.02-.09-.05-.05-.08h0Z"/>
  <path class="cls-3" d="M110.6,23.45c.99-1.04,2.24-1.41,3.56-1.66,1.21-.5,2.22-1.46,3.46-1.89.82-.3,1.67-.54,2.59-.59.05,0,.08.06.04.09-1.64,1.67-3.88,1.95-5.96,2.69-1.09.79-2.21,1.45-3.65,1.45-.05,0-.07-.06-.04-.09h0Z"/>
  <path class="cls-3" d="M127.46,16.11c1.28-.98,2.75-1.26,4.27-1.42,2.35-.83,4.69-2.34,7.26-2.03-2.07,1.64-4.72,1.73-7.16,2.34-1.35.72-2.73,1.31-4.34,1.21-.05,0-.07-.07-.03-.1h0Z"/>
  <path class="cls-3" d="M147.42,11.59c1.92-.75,3.89-.78,5.88-.69,3.26-.42,6.62-1.52,9.88-.79-3.13,1.29-6.55.91-9.84,1.11-1.94.48-3.88.83-5.9.46-.05,0-.06-.08,0-.1h0Z"/>
  <path class="cls-3" d="M170.41,7.78c.76-.91,1.76-1.14,2.83-1.25.97-.36,1.74-1.19,2.74-1.49.66-.21,1.34-.36,2.1-.32.04,0,.07.06.04.09-1.37,1.52-3,1.47-4.75,2.01-.85.66-1.74,1.18-2.92,1.04-.04,0-.07-.06-.04-.09h0Z"/>
  <path class="cls-1" d="M177.59.6s-85.35,19.49-91.87,26.44c-6.51,6.95-45.6,3.47-45.6,3.47L.6,29.65l47.34,6.95s26.93,1.74,38.22,0c11.29-1.74,42.13-18.24,67.32-22.15,25.19-3.91,42.51-9.04,42.51-9.04"/>
</svg>