<?xml version="1.0" encoding="UTF-8"?>
<svg id="_오른쪽_위" data-name="오른쪽_위" xmlns="http://www.w3.org/2000/svg" version="1.1" viewBox="0 0 90.82 118.31">
  <defs>
    <style>
      .cls-1 {
        stroke-width: 1.4px;
      }

      .cls-1, .cls-2, .cls-3, .cls-4, .cls-5, .cls-6 {
        stroke: #111114;
      }

      .cls-1, .cls-2, .cls-3, .cls-4, .cls-6 {
        stroke-linecap: round;
        stroke-linejoin: round;
      }

      .cls-1, .cls-3 {
        fill: #00d675;
      }

      .cls-7 {
        fill: #00b2ff;
      }

      .cls-7, .cls-8 {
        stroke-width: 0px;
      }

      .cls-2, .cls-4, .cls-6 {
        fill: none;
      }

      .cls-3 {
        stroke-width: 1.28px;
      }

      .cls-4, .cls-5 {
        stroke-width: 1.2px;
      }

      .cls-5 {
        fill: #ffec2d;
        stroke-miterlimit: 10;
      }

      .cls-6 {
        stroke-width: 1.07px;
      }

      .cls-8 {
        fill: #111114;
      }
    </style>
  </defs>
  <g>
    <path class="cls-3" d="M46.18,114.37s2.72-14.93-9.64-21.15c0,0-23.2-1.88-29.29-12.35-6.1-10.47-3.05-17.58-6.6-18.76,0,0,19.47-6.35,34.88,11.81,15.41,18.16,12.82,36.07,12.82,36.07l-2.16,4.38Z"/>
    <path class="cls-6" d="M6.74,65.5s26.44,9.09,37.08,29.6c0,0,4.78,10.8,3.82,16.42"/>
  </g>
  <g>
    <path class="cls-3" d="M50.44,98.73s-2.37-13.03,8.41-18.45c0,0,20.24-1.64,25.56-10.77,5.32-9.13,2.66-15.34,5.76-16.37,0,0-16.99-5.54-30.44,10.3-13.45,15.85-11.19,31.47-11.19,31.47l1.89,3.82Z"/>
    <path class="cls-2" d="M84.86,56.09s-23.08,7.93-32.36,25.83c0,0-4.17,9.42-3.34,14.32"/>
  </g>
  <path class="cls-1" d="M44.59,117.61c2.52-2.02,5.78-10.8,5.97-14.03,1.05-17.64-.32-35.55-7.86-51.53-.63-1.33-1.35-2.68-2.52-3.57-.95-.72-4.03-1.59-4.21.26-.09.95,2.51,4.18,2.97,5.15,2.07,4.41,3.78,8.98,5.12,13.66,2.7,9.43,3.9,19.29,3.52,29.1-.21,5.5-1.79,15.58-3,20.95Z"/>
  <g>
    <path class="cls-7" d="M70.86,36.68c-3.13-6.25.33-2.63-1.65-9.71-1.69-6.06-10.19-4.72-12.6-4.2l-.14-.25c2.05-1.65,3.77-3.36,4.85-4.93,3.29-4.77-.49-9.87-12.18-13.16-4.01-1.13-6.52,1.03-8.1,4.39l.08-.17s-5.32-11.95-14.29-6.7c-1.6.94-2.71,2.53-3.02,4.36-.21,1.22-.7,2.48-1.82,2.35-2.14-.26-13.49-.28-9.38,8.45.81,1.72,1.3,3.05,1.71,4.11.44,1.17-.37,2.45-1.62,2.52-2.84.16-6.86,1.2-7.43,5.71-.11.84-.34,1.66-.78,2.38-1.27,2.12-3.42,6.99.71,10.62,3.14,2.76,8.4,3.81,13.69,2.26h0s-.31.09-.31.09c0,0-6.12,5.71-3.29,12.52.24.57.57,1.09.98,1.54.63.71,1.66,1.61,3.02,1.9,1.85.39,3.45,1.49,4.22,3.21,1.04,2.33,3.56,4.2,9.65.7,0,0,1.85-.87,3.44-4.44l.06.02c.35,1,4.21,11.36,14.25,4.69.58-.38,1.22-.64,1.89-.81,3.42-.83,13.6-4.58,5.45-18.56v-.1c.72.38,1.41.7,2.06.93,5.6,1.97,13.66-3.46,10.53-9.71ZM40.74,9.46h-.02s.3-.63.3-.63c-.1.2-.19.41-.28.63Z"/>
    <g>
      <path class="cls-5" d="M34.98,25.81s-2.63,1.48-1.97,3.78c.66,2.3-2.63-.99-2.63,1.15s-2.63,6.09,2.3,7.9,7.57.66,8.23,0,3.78-4.61,2.3-6.91-1.81-5.76-8.23-5.92Z"/>
      <path class="cls-4" d="M38.47,26.38c-.04-.56-1.02-25.25,10.66-21.96,11.68,3.29,15.47,8.39,12.18,13.16s-12.52,10.95-19.01,12.47"/>
      <path class="cls-4" d="M55.96,22.91s11.27-3.02,13.25,4.05-1.48,3.46,1.65,9.71c3.13,6.25-4.94,11.68-10.53,9.71-5.6-1.97-14.31-10.44-17.69-10.16"/>
      <path class="cls-4" d="M41.12,8.64s-5.25-11.81-14.13-6.8c-1.72.97-2.84,2.7-3.22,4.64-.23,1.16-.72,2.29-1.79,2.16-2.14-.26-13.49-.28-9.38,8.45,4.11,8.73,0,7.25,17.77,13.66"/>
      <path class="cls-4" d="M15.52,23.82s-10.49-1.63-10.32,6.93c0,0-5.43,6.91,0,11.68,5.43,4.77,17.19,4.44,24.48-5.6"/>
      <path class="cls-4" d="M18.59,44.79s-6.48,6.04-3.02,13.12c0,0,2.8,4.77,7.24,2.14,0,0-.49,10.86,10.37,4.61,0,0,7.41-3.49,5.27-25.03"/>
      <path class="cls-4" d="M36.64,60.14s3.94,12.41,15.13,4.18c0,0,16.26-2.17,6.42-18.9"/>
    </g>
    <g>
      <path class="cls-8" d="M39.66,27.68c-.39-2.58.17-5.16,1.07-7.56,1-4.15,2.39-8.37,5.57-11.39.03-.03.09,0,.07.05-1.84,3.8-4.14,7.36-5.37,11.41-.48,2.43-.55,5.31-1.34,7.49h0Z"/>
      <path class="cls-8" d="M40.68,28.2c1.04-2.65,2.53-5,4.07-7.36,2.08-4.19,3.54-8.64,6-12.66-.69,4.42-3.56,8.76-5.75,12.79-1.11,2.49-2.41,5.48-4.32,7.22h0Z"/>
      <path class="cls-8" d="M41.68,29.84c1.83-2.09,3.88-3.84,5.9-5.7,2.97-3.48,5.08-7.52,7.79-11.21.03-.04.1,0,.08.04-1.38,4.48-4.49,8.03-7.66,11.36-.52.61-1.21,1.53-1.74,2.15-1.26,1.35-2.7,2.52-4.32,3.43-.04.02-.09-.03-.05-.07h0Z"/>
      <path class="cls-8" d="M42.92,32.19c3.17-.72,6.38-.69,9.48-1.59,3.87-1.49,7.44-3.43,11.13-5.31.04-.02.09.04.05.07-3.35,3.36-7.92,4.86-12.44,5.88-2.62.92-5.44,1.47-8.22,1.03-.05,0-.05-.08,0-.09h0Z"/>
      <path class="cls-8" d="M43.15,34.31c2.85-.1,5.61.44,8.36,1.08,4.64.57,9.5.57,13.93,2.11-4.71.21-9.34-1.09-13.96-1.83-2.72-.2-5.96-.3-8.32-1.36h0Z"/>
      <path class="cls-8" d="M41.71,36.9c2.71,1.72,4.79,4.25,6.44,6.97,3.18,4.23,6,8.96,6.54,14.34,0,.05-.07.07-.08.02-1.99-4.85-3.73-9.84-6.68-14.19-1.94-2.41-4.55-4.75-6.21-7.13h0Z"/>
      <path class="cls-8" d="M39.8,38.78c2.44,2.07,4.04,4.94,5.08,7.93,2.21,4.77,3.72,10.12,2.51,15.38,0,.05-.09.04-.09,0-.34-5.17-.73-10.42-2.69-15.26-1.39-2.74-3.52-5.47-4.82-8.04h0Z"/>
      <path class="cls-8" d="M32.73,38.76c-1.04,3.5-3.89,5.78-6.26,8.35-2.34,2.63-5.36,4.7-8.73,5.75,0,0-.11-.27-.11-.27.22-.01.58-.2.76-.11-.15.18-.46.25-.67.38-.16.08-.3-.16-.14-.25,3.62-2.35,7.49-4.45,10.46-7.62,1.57-2,3.01-4.55,4.69-6.23h0Z"/>
      <path class="cls-8" d="M34.79,39.71c.31,2.76-.52,5.49-1.77,7.92-1.6,4.25-4.01,8.45-8.12,10.69-.04.02-.09-.03-.05-.07,3.47-3.97,7.63-7.95,8.59-13.33,0,0,1.27-5.22,1.27-5.22,0-.05.09-.04.09,0h0Z"/>
      <path class="cls-8" d="M32.7,29.27c-2.44-1.27-4.32-3.33-5.84-5.58-2.95-3.41-5.7-7.22-6.39-11.79,0-.05.06-.07.08-.03,1.85,3.59,3.53,7.18,5.7,10.58,1.8,2.5,4.78,4.43,6.45,6.81h0Z"/>
      <path class="cls-8" d="M34.89,26.45c-1.07-2.48-1.66-5.04-2.27-7.64-1.51-4.17-3.96-8.01-5.26-12.22,2.91,3.45,4.18,7.9,5.53,12.13,1.01,2.37,2.2,5.28,2.01,7.73h0Z"/>
      <path class="cls-8" d="M30.48,32.17c-2.4,1.12-5.13,1.11-7.68.59-4.3-.35-8.8-1.57-11.71-4.97-.03-.03.01-.09.06-.07,3.69,2.05,7.47,4.15,11.69,4.76,2.5.1,5.32-.44,7.65-.31h0Z"/>
      <path class="cls-8" d="M30.2,34.57c-2.67,1.16-5.55,1.5-8.42,1.54-4.73.61-9.58,1.12-14.25-.22-.05-.01-.04-.09.01-.09,3.31-.08,8.02.07,11.37.16,3.77.2,7.72-1.55,11.29-1.39h0Z"/>
      <path class="cls-8" d="M29.99,35.96c-2.23,1.94-5.04,3.02-7.88,3.67-4.59,1.57-9.53,2.69-14.36,1.47-.05,0-.04-.09,0-.09,4.79-.33,9.62-.34,14.26-1.66,2.64-1.01,5.42-2.67,7.97-3.4h0Z"/>
    </g>
  </g>
</svg>