<?xml version="1.0" encoding="UTF-8"?>
<svg id="_오른쪽_위" data-name="오른쪽_위" xmlns="http://www.w3.org/2000/svg" version="1.1" viewBox="0 0 159.63 266.51">
  <defs>
    <style>
      .cls-1 {
        fill: #ff97b5;
      }

      .cls-1, .cls-2, .cls-3 {
        stroke-width: 1.2px;
      }

      .cls-1, .cls-2, .cls-3, .cls-4, .cls-5 {
        stroke: #111114;
        stroke-linecap: round;
        stroke-linejoin: round;
      }

      .cls-2, .cls-4 {
        fill: #00d675;
      }

      .cls-3, .cls-5 {
        fill: none;
      }

      .cls-6 {
        fill: #ff6a37;
      }

      .cls-6, .cls-7 {
        stroke-width: 0px;
      }

      .cls-7 {
        fill: #111114;
      }

      .cls-4 {
        stroke-width: 1.33px;
      }

      .cls-5 {
        stroke-width: .8px;
      }
    </style>
  </defs>
  <g>
    <path class="cls-4" d="M96.18,120.22s-.04,131.21-3.67,145.63l-4.73-.81c6.92-25.18-1.94-153.69-1.94-153.69l10.35,8.87Z"/>
    <g>
      <path class="cls-2" d="M94.49,238.67s-5.15-63.74,50.41-103.21c0,0-44.64,80.48-50.54,116.67l.13-13.45Z"/>
      <path class="cls-7" d="M96.47,238.48c2.37-31.27,14.66-61.65,34.4-85.99,2.84-3.46,5.83-6.79,8.95-9.99-24.18,26.31-39.54,60.46-43.35,95.98h0Z"/>
      <path class="cls-7" d="M97.12,214.14c1.16,1.86,2.05,3.84,2.86,5.84l-.52-.2c1.57-.7,3.33-1.01,5.01-.78-1.66.32-3.22.79-4.68,1.49-.19.09-.42.01-.51-.18-.86-2-1.64-4.02-2.15-6.16h0Z"/>
      <path class="cls-7" d="M98.93,203.05c1.8,1.98,3.09,4.42,3.9,6.98l-.53-.24c2.08-.88,4.39-1.26,6.6-.98-10.21,1.55-4.29,4.65-9.96-5.76h0Z"/>
      <path class="cls-7" d="M101.71,192.68c1.54,2.68,2.5,5.68,2.97,8.73,0,0-.45-.32-.45-.32,2.21-.33,4.42-.59,6.65-.7-2.15.61-4.33,1.07-6.53,1.46-.21.04-.41-.1-.44-.31-.54-3.01-1.32-5.93-2.21-8.86h0Z"/>
      <path class="cls-7" d="M104.46,182.24c2,2.56,3.59,5.43,4.88,8.41,0,0-.44-.23-.44-.23,2.67-.51,5.47-.51,8.12.09,0,0-.13.09-.13.09.14-.43.28-.85.43-1.27-.06.45-.13.89-.21,1.33,0,.05-.06.09-.11.09-2.67-.19-5.33-.06-7.95.46-.19.04-.37-.06-.44-.23-1.26-2.97-2.69-5.84-4.14-8.72h0Z"/>
      <path class="cls-7" d="M110.66,173.38c1.71,1.88,2.88,4.24,3.5,6.72l-.34-.3c2.43.32,4.86.7,7.25,1.32-2.47,0-4.92-.23-7.35-.53-.17-.02-.3-.14-.34-.3-.6-2.4-1.55-4.68-2.73-6.91,0,0,1.18,2.24,0,0Z"/>
      <path class="cls-7" d="M117.06,162.09c.72,2.78,1.21,5.61,1.64,8.44.14,2,1.27,1.51,2.72,1.61,1.43.04,2.87.1,4.3.24-1.79.23-3.57.34-5.36.44-.8.12-1.87-.14-2.16-1.03-.78-3.17-.92-6.44-1.14-9.7h0Z"/>
      <path class="cls-7" d="M96.72,232.63c.56-1.77,2.35-3.98,4.43-3.32-1.95.56-2.84,2.16-4.43,3.32h0Z"/>
    </g>
    <g>
      <path class="cls-2" d="M95.13,198.79c16.65-27.61,25.01-56.84,36.35-81.83l-4.69,2.78c-20.57,13.08-38.94,49.55-31.66,79.05"/>
      <path class="cls-7" d="M100.81,151.44c.86,5.3,1.44,10.91,1.87,16.27,0,0-.59-.25-.59-.25,1.3-1.05,2.74-1.9,4.27-2.55,1.52-.66,3.13-1.1,4.75-1.3-1.58.43-3.1,1.03-4.54,1.76-1.43.75-2.78,1.64-4.02,2.65-.16.13-.38.1-.51-.05-.3-1.38-.32-2.86-.48-4.27-.33-3.96-.67-8.31-.74-12.26h0Z"/>
      <path class="cls-7" d="M106.39,141.29c1.49,3.76,2.64,7.64,3.65,11.55,0,0-.38-.25-.38-.25.94-.09,1.88-.12,2.82-.18.94-.05,1.89-.08,2.83-.08-1.85.41-3.71.7-5.58.97-.17.02-.32-.08-.37-.24-1.2-3.86-2.26-7.77-2.97-11.76h0Z"/>
      <path class="cls-7" d="M96.73,183.13c2.06-3.45,5.19-6.3,8.82-8.02-3.03,2.66-5.89,5.26-8.82,8.02h0Z"/>
      <path class="cls-7" d="M95.58,196.55c.18-21.26,12.99-45.11,23.76-63.08,1.71-2.76,3.49-5.47,5.29-8.16-1.69,2.76-3.36,5.54-4.95,8.36-10.21,18.1-22.99,41.99-24.09,62.88h0Z"/>
    </g>
    <g>
      <path class="cls-2" d="M90.4,208.84s.6-77.73-89.8-87.68c0,0,49.01,29.42,58.05,46.22,9.04,16.8,30.89,55.99,31.18,81.53l.56-40.07Z"/>
      <path class="cls-7" d="M78.29,183.78c-1.09-6.14-1.65-12.37-1.66-18.61,1.1,6.14,1.65,12.37,1.66,18.61h0Z"/>
      <path class="cls-7" d="M73.35,176.17c-1.09-6.14-1.65-12.37-1.66-18.61,1.1,6.14,1.65,12.37,1.66,18.61h0Z"/>
      <path class="cls-7" d="M68.07,167.18c-1.09-6.14-1.65-12.37-1.66-18.61,1.1,6.14,1.65,12.37,1.66,18.61h0Z"/>
      <path class="cls-7" d="M83.48,197.02c.06-4.83.67-9.61,1.75-14.31,0,0,.03.05.03.05-.05-.07-.24.08-.15.2-.19-.19.21-.42.23-.23-.12,4.83-.72,9.6-1.86,14.3h0Z"/>
      <path class="cls-7" d="M86.12,205.64c.06-4.83.67-9.61,1.75-14.31,0,0,.03.05.03.05-.05-.07-.24.08-.15.2-.19-.19.21-.42.23-.23-.12,4.83-.72,9.6-1.86,14.3h0Z"/>
      <path class="cls-7" d="M81,190.29c.06-4.83.67-9.61,1.75-14.31,0,0,.03.05.03.05-.05-.07-.24.08-.15.2-.19-.19.21-.42.23-.23-.12,4.83-.72,9.6-1.86,14.3h0Z"/>
      <path class="cls-7" d="M87.85,216.67c.2-3.36.93-6.62,2.19-9.74-.19,3.36-.93,6.62-2.19,9.74h0Z"/>
      <path class="cls-7" d="M88.63,215.54c-2.91.06-5.75-.42-8.48-1.45,2.91-.06,5.75.43,8.48,1.45h0Z"/>
      <path class="cls-7" d="M87.02,209.31c-2.91.06-5.75-.42-8.48-1.45,2.91-.06,5.75.43,8.48,1.45h0Z"/>
      <path class="cls-7" d="M84.41,203.25c-2.91.06-5.75-.42-8.48-1.45,2.91-.06,5.75.43,8.48,1.45h0Z"/>
      <path class="cls-7" d="M82.78,197.13c-2.91.06-5.75-.42-8.48-1.45,2.91-.06,5.75.43,8.48,1.45h0Z"/>
      <path class="cls-7" d="M80.17,189.84c-2.91.06-5.75-.42-8.48-1.45,2.91-.06,5.75.43,8.48,1.45h0Z"/>
      <path class="cls-7" d="M77.68,182.54c-2.91.06-5.75-.42-8.48-1.45,2.91-.06,5.75.43,8.48,1.45h0Z"/>
      <path class="cls-7" d="M73.44,175.2c-2.91.06-5.75-.42-8.48-1.45,2.91-.06,5.75.43,8.48,1.45h0Z"/>
      <path class="cls-7" d="M69.2,168.47c-2.91.06-5.75-.42-8.48-1.45,2.91-.06,5.75.43,8.48,1.45h0Z"/>
      <path class="cls-7" d="M64.96,161.66c-2.91.06-5.75-.42-8.48-1.45,2.91-.06,5.75.43,8.48,1.45h0Z"/>
      <path class="cls-5" d="M88.63,234.89c1.8-20.36-4.93-37.79-13.33-56.42-9.28-20.59-34.65-40.36-53.24-48.86"/>
    </g>
  </g>
  <g>
    <path class="cls-6" d="M155.14,53.35c-1.43-2.89,5.22,3.97,0-10.39-3.32-9.13-21.79-.78-34.82,6.52l-.06-.77c10.46-7.5,17.03-16.89,19.37-19.91,3.24-4.19,2.16-4.28,1.93-6.32-.24-2.04-2.83-.3-17.79-11.08-7.26-5.23-13.2,3-17.43,13.23l-.09-.04c1.62-4.53,4.36-12.31,5.06-14.81,1.01-3.6-14.21-12.48-16.74-7.88-2.52,4.6-2.82,1.25-2.82,1.25-21.18-4.55-20.12,10-19.6,13.38l-.19.19c-1.1-1.77-2.03-3.07-2.63-3.69-3.06-3.19-12.62-.05-15.86,1.21-3.24,1.26,1.44,4.87-2.34,3.26-3.79-1.6-9.19,5.93-9.19,5.93-9.82,7.82,4.49,20.07,6.74,21.9-.02.03-.03.07-.05.1-6.27-2.5-11.79-4.43-14.08-4.88-6.49-1.26-7.57,11.18-7.57,11.18-5.05,5.95.98,9.01.98,9.01,0,0-5.48,1.44,0,13.7,3.86,8.64,25.82,4.73,38.44,1.67l.07.57c-20.97,8.5-26.8,22.26-27.6,23.53-.9,1.44,2.52,13.52,10.27,11.17,7.75-2.34,3.97,1.53,3.97,1.53,7.39,6.76,11.54,5.68,11.54,5.68,3.97-.57,7.49-4.53,10.46-9.65l.11.05c-1.18,3.31-5.81,18.08,4.75,19.52,11.9,1.62,9.33-5.9,11.78-5.29s1.92,8.54,16.15-1.92h0c2.93.16,6.4-1.39,8.29-3.05,3.06-2.69.54,1.61,4.32-1.64s-5.78-19.04-5.78-19.04l-.29-.23.06-.13c4.9,7.23,9.78,12.09,12.34,14.54,4.33,4.15,12.44-3.79,13.16-7.21.72-3.42,1.93-2.52,1.93-2.52,7.34-1.8,8.17-9.56,8.17-9.56,0,0,1.08-4.14-4.33-9.91-3.16-3.37-15.02-7.34-24.32-10.06,14.99,3.04,32.66,3.1,35.94-6,4.23-11.74-.8-10.26-2.24-13.14Z"/>
    <g>
      <path class="cls-1" d="M93.12,50.65s9.19-2.7,13.34,5.41c4.15,8.11,3.06,13.21,3.06,13.21,0,0-1.8,14.5-15.68,13.44-13.88-1.06-17.12-2-19.65-13.07-2.52-11.06,9.01-21.7,18.93-18.99Z"/>
      <path class="cls-3" d="M99.11,50.22c.33-3.17,9.7-49.6,24.66-38.82,14.96,10.78,17.55,9.04,17.79,11.08.24,2.04,1.32,2.13-1.93,6.32s-14.6,20.59-33.17,27.26"/>
      <path class="cls-3" d="M107.17,57.51s42.75-28.92,47.97-14.55c5.22,14.36-1.43,7.51,0,10.39s6.47,1.41,2.24,13.14c-4.23,11.74-32.35,8.24-47.85,2.78,0,0,30.82,7.52,36.23,13.28,5.41,5.77,4.33,9.91,4.33,9.91,0,0-.83,7.75-8.17,9.56,0,0-1.21-.9-1.93,2.52-.72,3.42-8.83,11.36-13.16,7.21-4.33-4.15-15.29-15.11-21.79-32.97"/>
      <path class="cls-3" d="M114.73,97.58s9.56,15.8,5.78,19.04-1.25-1.05-4.32,1.64c-3.06,2.69-10.27,5.09-12.62.41,0,0-7.38-9.62-7.38-35.9"/>
      <path class="cls-3" d="M85.24,81.77s-8.16,35.03-20.59,36.83c0,0-4.15,1.08-11.54-5.68,0,0,3.79-3.87-3.97-1.53-7.75,2.34-11.18-9.73-10.27-11.17s8.2-18.79,36.45-26.52c0,0-41.89,13-47.37.74-5.48-12.26,0-13.7,0-13.7,0,0-6.02-3.06-.98-9.01,0,0,1.08-12.44,7.57-11.18,6.49,1.26,38.61,14.37,41.21,18.72"/>
      <path class="cls-3" d="M75.46,108.33s-7.39,18.56,4.5,20.19c11.9,1.62,9.33-5.9,11.78-5.29s1.91,8.54,16.15-1.92"/>
      <path class="cls-3" d="M48.97,45.57s-17.68-13.67-7.04-22.14c0,0,5.41-7.53,9.19-5.93,3.79,1.6-.9-2,2.34-3.26s12.8-4.4,15.86-1.21c3.06,3.19,14.51,23.65,15.91,38.03"/>
      <path class="cls-3" d="M72.27,17.23s-4.43-19.22,19.48-14.08c0,0,.29,3.34,2.82-1.25,2.52-4.6,17.74,4.28,16.74,7.88s-6.26,18.18-6.26,18.18"/>
    </g>
    <g>
      <g>
        <path class="cls-7" d="M101.17,51.05c.94-5.27,2.85-10.33,4.63-15.38,1.98-4.97,3.94-10.04,7.06-14.43-.66,1.17-1.25,2.36-1.79,3.58-3.72,8.53-7.01,17.38-9.89,26.22h0Z"/>
        <path class="cls-7" d="M102.84,51.93c1.75-3.9,3.26-8.13,5.04-12.01,1.63-3.43,3.15-6.98,5.41-10.07.34-.41.68-.92,1.23-1.05-.5.22-.76.74-1.06,1.18-.82,1.4-1.5,2.87-2.18,4.34-2.82,5.87-5.07,12.04-8.44,17.62h0Z"/>
        <path class="cls-7" d="M104.44,53.23c3.13-6.32,6.62-12.45,10.63-18.25-3.06,6.35-6.57,12.49-10.63,18.25h0Z"/>
        <path class="cls-7" d="M105.51,54.5c2.68-3.36,6.8-8.05,9.65-11.35,3.23-3.76,6.73-7.31,9.63-11.34-2.38,4.39-5.85,8.05-9.03,11.86-3.31,3.71-6.66,7.38-10.25,10.82h0Z"/>
        <path class="cls-7" d="M106.05,55.3c3.06-2.71,6.24-5.28,9.42-7.84,0,0,4.79-3.81,4.79-3.81,1.54-1.31,3.3-2.45,4.54-4.06-.96,1.81-2.7,3.1-4.14,4.52-4.58,4.09-9.47,7.82-14.61,11.18h0Z"/>
        <path class="cls-7" d="M108.15,59.92c3.94-2.66,8.09-4.98,12.31-7.16,4.27-1.95,8.62-4.42,13.41-4.66-4.65.86-8.81,3.36-13.05,5.37-4.25,2.09-8.42,4.34-12.67,6.44h0Z"/>
        <path class="cls-7" d="M108.8,61.92c5.98-3.13,12.18-5.78,18.59-7.91-5.96,3.13-12.2,5.78-18.59,7.91h0Z"/>
        <path class="cls-7" d="M109.32,64.14c9.34-3,18.84-5.49,28.45-7.44-9.34,3-18.84,5.48-28.45,7.44h0Z"/>
        <path class="cls-7" d="M109.57,65.93c6.27-1.53,12.67-2.54,19.11-2.99-6.27,1.54-12.67,2.53-19.11,2.99h0Z"/>
        <path class="cls-7" d="M109.65,67.64c9.56.18,19.54,1.54,29.08,1.46-4.81.81-9.73.33-14.58.12-4.85-.37-9.69-.81-14.5-1.58h0Z"/>
        <path class="cls-7" d="M87.62,50.43c-1.38-5.28-2.6-10.58-4-15.85-.65-2.64-1.38-5.26-2.16-7.87-.84-2.56-1.49-5.28-3.11-7.48,1.9,2,2.72,4.76,3.69,7.29.91,2.58,1.63,5.22,2.35,7.86,1.32,5.3,2.48,10.64,3.23,16.05h0Z"/>
        <path class="cls-7" d="M89.38,50.22c-2.05-9.36-3.57-18.83-4.55-28.36,2.05,9.36,3.57,18.83,4.55,28.36h0Z"/>
        <path class="cls-7" d="M91.65,50.22c-1.3-8.08-2.06-16.24-2.27-24.42,1.3,8.08,2.05,16.24,2.27,24.42h0Z"/>
        <path class="cls-7" d="M93.12,50.65c-.3-10.48-.06-20.96.72-31.41.3,10.48.05,20.96-.72,31.41h0Z"/>
        <path class="cls-7" d="M95.25,50.22c.29-8.17,1.56-16.29,2.28-24.42.38,8.17-.9,16.37-2.28,24.42h0Z"/>
        <path class="cls-7" d="M97.18,50.22c1.57-11.06,3.67-22.05,6.3-32.91-1.57,11.06-3.68,22.05-6.3,32.91h0Z"/>
        <path class="cls-7" d="M136.51,81.69c-1.48-.9-3.25-1.65-4.87-2.3-7.31-2.74-14.87-4.75-22.32-7.06,4.76.8,9.43,2.03,14.04,3.42,4.53,1.55,9.3,2.98,13.15,5.95h0Z"/>
        <path class="cls-7" d="M108.26,73.72c5.9,1.51,11.68,3.45,17.29,5.83,1.62.73,3.28,1.42,4.76,2.43.18.16.45.31.48.58-.07-.25-.34-.35-.55-.48-1.58-.79-3.27-1.34-4.92-1.96-5.54-1.99-11.66-4.13-17.06-6.4h0Z"/>
        <path class="cls-7" d="M123.54,82.42c-5.56-1.84-10.94-4.2-16.06-7.05,5.56,1.84,10.94,4.21,16.06,7.05h0Z"/>
        <path class="cls-7" d="M130.79,94.35c-1.31-2.11-3.63-3.4-5.57-4.89-6.14-4.31-12.53-8.23-18.74-12.45,6.68,3.46,13.11,7.4,19.1,11.96,1.86,1.61,4.17,3.08,5.2,5.38h0Z"/>
        <path class="cls-7" d="M105.62,78.14c4.36,4.92,8.66,10.37,13.63,14.67.35.27.71.54,1.05.83-6.26-3.55-10.82-9.56-14.68-15.5h0Z"/>
        <path class="cls-7" d="M98.6,82.42c.67,5.18,1.49,12.4,2.33,17.47.42,2.9.95,5.79,1.6,8.64.7,2.81,1.33,5.77,3.08,8.14-5.46-6.36-6.74-25.67-7.02-34.26h0Z"/>
        <path class="cls-7" d="M100.54,81.83c.79,3.78,1.7,9.3,2.37,13.16.81,4.35,1.23,8.85,2.71,13.04-2.08-3.98-2.61-8.56-3.5-12.9-.7-4.41-1.32-8.83-1.58-13.29h0Z"/>
        <path class="cls-7" d="M102.11,81.08c2.74,7.8,5.57,15.91,6.15,24.2-.57-3.56-2.18-8.55-3.09-12.08-1.08-4.02-2.16-8.04-3.06-12.12h0Z"/>
        <path class="cls-7" d="M103.75,79.97c2.6,5.06,4.92,10.24,7.19,15.45,2.04,5.27,4.68,10.48,5.62,16.07-1.27-4.72-4.52-11.15-6.35-15.76-1.93-4.62-4.72-11.13-6.45-15.76h0Z"/>
        <path class="cls-7" d="M86.72,82.01c-1.46,6.14-3.59,14.65-4.91,20.73-1.28,6.04-2.84,12.12-2.95,18.32.04.87.08,1.79.55,2.55-.55-.72-.68-1.66-.76-2.54-.35-6.24,1.16-12.43,2.38-18.5,1.6-6.93,3.43-13.81,5.69-20.55h0Z"/>
        <path class="cls-7" d="M88.64,82.25c-.85,4.84-2.29,11.85-3.26,16.75-1.02,5.22-2.25,10.43-2.71,15.73,0,0,.05,1.06.05,1.06l-.17-1.06c-.06-5.35,1.09-10.64,2.05-15.89,1.17-5.58,2.43-11.13,4.04-16.6h0Z"/>
        <path class="cls-7" d="M90.32,82.42c-.49,7.86-1.52,15.68-3.09,23.4.48-7.86,1.52-15.68,3.09-23.4h0Z"/>
        <path class="cls-7" d="M92.3,82.59c0,5.56-.34,11.11-.69,16.66-.53,5.53-.7,11.14-2.06,16.54.43-2.35.5-5.87.7-8.29,0,0,.55-8.31.55-8.31.39-4.89.9-11.8,1.49-16.6h0Z"/>
        <path class="cls-7" d="M93.85,82.71c.68,8.68.84,17.4.44,26.1-.69-8.68-.83-17.4-.44-26.1h0Z"/>
        <path class="cls-7" d="M75.98,75.37c-9.92,5.69-20.43,11.1-28.28,19.59,0,0-1.37,1.85-1.37,1.85,5.29-9.35,19.97-17.13,29.65-21.44h0Z"/>
        <path class="cls-7" d="M77.11,77.4c-7.01,5.84-14.36,11.26-22.01,16.23,7.01-5.84,14.36-11.26,22.01-16.23h0Z"/>
        <path class="cls-7" d="M78.72,79.18c-5.3,4.49-10.57,9.09-16.32,13.01,5.06-4.77,10.37-9.39,16.32-13.01h0Z"/>
        <path class="cls-7" d="M80.47,80.32c-2.82,4.83-5.97,9.44-9.27,13.96-3.45,4.33-6.68,9.18-11.43,12.19.82-.59,1.63-1.34,2.34-2.07,6.71-7.55,12.26-16.04,18.35-24.09h0Z"/>
        <path class="cls-7" d="M82.6,81.15c-1.22,4.08-2.82,8.03-4.52,11.93-1.87,3.79-3.55,7.89-6.64,10.87,2.58-3.37,4.12-7.38,5.92-11.2,1.78-3.85,3.43-7.76,5.25-11.6h0Z"/>
        <path class="cls-7" d="M75.18,60.42c-6.52-2.36-12.86-5.16-19.35-7.6-3.21-1.28-6.46-2.48-9.73-3.59-2.86-.9-5.75-2.01-8.77-2.08-.42.01-.87.07-1.23.31.72-.52,1.68-.48,2.54-.45,6.07.61,11.8,3,17.49,5.06,6.36,2.48,12.87,5.45,19.06,8.35h0Z"/>
        <path class="cls-7" d="M74.42,62.49c-10.27-2.47-20.36-5.65-30.29-9.26,10.21,2.56,20.35,5.77,30.29,9.26h0Z"/>
        <path class="cls-7" d="M73.85,64.43c-7.03-.02-14.05-.39-21.06-.85-6.55-.6-13.21-.9-19.6-2.55-.4-.15-.88-.26-1.15-.61.3.32.78.38,1.19.5,6.47,1.13,13.08,1.33,19.63,1.87,6.16.47,14.93,1.07,21.01,1.65h0Z"/>
        <path class="cls-7" d="M73.85,66.49c-5.79.66-11.6.92-17.42,1.03-5.78-.1-11.77.17-17.35-1.6,5.7,1.13,11.56.77,17.34.8,5.81-.02,11.62-.21,17.43-.23h0Z"/>
        <path class="cls-7" d="M74.2,69.64c-8.09,1.36-16.51,2.5-24.66,1.1,8.1.3,16.56-.83,24.66-1.1h0Z"/>
        <path class="cls-7" d="M74.67,71.56c-6.79,1.65-13.68,2.8-20.61,3.7-6.05.59-12.27,1.42-18.31.25-.84-.22-1.72-.47-2.41-1.02,3.14,1.54,6.84,1.02,10.24.97,3.47-.21,6.93-.54,10.38-.99,6.03-.68,14.62-2.02,20.7-2.9h0Z"/>
        <path class="cls-7" d="M77.11,57.13c-8.61-4.29-30.23-15.86-34.07-24.22,1.7,3.09,4.71,5.16,7.43,7.28,2.81,2.08,5.72,4.05,8.68,5.93,5.11,3.36,12.66,7.8,17.96,11.01h0Z"/>
        <path class="cls-7" d="M78.68,55.3c-9.84-6.38-19.39-13.21-28.6-20.47,9.84,6.38,19.38,13.22,28.6,20.47h0Z"/>
        <path class="cls-7" d="M80.42,53.74c-9.51-7.61-18.68-15.64-27.48-24.07,9.51,7.61,18.68,15.65,27.48,24.07h0Z"/>
        <path class="cls-7" d="M81.91,52.69c-7.19-7.38-14.26-15.02-20.75-23.01,7.32,7.29,14.35,14.91,20.75,23.01h0Z"/>
        <path class="cls-7" d="M83.6,51.74c-5.83-7.03-11.26-14.4-16.23-22.07,5.84,7.03,11.26,14.4,16.23,22.07h0Z"/>
        <path class="cls-7" d="M84.37,51.39c-5.19-9.48-9.81-20.01-15.52-29.18-.43-.59-.85-1.21-1.48-1.6.68.31,1.17.91,1.65,1.47,6.49,8.91,11.02,19.22,15.36,29.31h0Z"/>
      </g>
      <path class="cls-7" d="M80.63,53.41c-1.95,8.58-2.35,17.92-1.92,26.39,0,0,.84-.3.84-.3l-.79.41c-1.82-8.6-.97-18.1,1.88-26.5h0Z"/>
      <path class="cls-7" d="M84.74,51.67c-.72,9.93-.62,19.87.28,29.78-1.98-9.77-2.07-19.97-.28-29.78h0Z"/>
      <path class="cls-7" d="M89.81,51.68c-.49,9.81-.49,19.6-.01,29.42-1.55-9.71-1.54-19.71.01-29.42h0Z"/>
      <path class="cls-7" d="M93.63,51.16c1.74,10.24,1.58,20.84-.47,31.02.98-10.32,1.14-20.67.47-31.02h0Z"/>
      <path class="cls-7" d="M100.36,51.69c1.38,10.09.26,20.57-3.22,30.13,2.43-9.86,3.52-19.98,3.22-30.13h0Z"/>
      <path class="cls-7" d="M106.83,57.87c-.01,7.63-1.48,15.29-4.3,22.38,1.72-7.19,3.24-15.06,4.3-22.38h0Z"/>
      <path class="cls-7" d="M80.44,54.77c8.25.5,16.49.12,24.66-1.12-7.96,2.33-16.52,2.72-24.66,1.12h0Z"/>
      <path class="cls-7" d="M75.65,59.95c10.41,1.15,20.92.71,31.2-1.29-10.04,3.07-20.94,3.52-31.2,1.29h0Z"/>
      <path class="cls-7" d="M74.04,65.35c11.63,1.66,23.49,1.1,34.91-1.63-11.15,3.8-23.45,4.37-34.91,1.63h0Z"/>
      <path class="cls-7" d="M74.76,71.81c10.73.32,21.44-.08,32.12-1.2-10.52,2.19-21.46,2.59-32.12,1.2h0Z"/>
      <path class="cls-7" d="M78.12,78.59c9.21-.21,19.17-.76,28.35-1.56-9.3,1.89-18.9,2.41-28.35,1.56h0Z"/>
    </g>
  </g>
</svg>