<?xml version="1.0" encoding="UTF-8"?>
<svg id="_오른쪽_위" data-name="오른쪽_위" xmlns="http://www.w3.org/2000/svg" version="1.1" viewBox="0 0 83.67 135.68">
  <defs>
    <style>
      .cls-1 {
        fill: #00d675;
        stroke-width: 1.2px;
      }

      .cls-1, .cls-2, .cls-3 {
        stroke: #111114;
        stroke-linecap: round;
        stroke-linejoin: round;
      }

      .cls-2 {
        fill: none;
      }

      .cls-2, .cls-3 {
        stroke-width: 1.2px;
      }

      .cls-4 {
        fill: #ff6a37;
      }

      .cls-4, .cls-5 {
        stroke-width: 0px;
      }

      .cls-5 {
        fill: #111114;
      }

      .cls-3 {
        fill: #00b2ff;
      }
    </style>
  </defs>
  <path class="cls-1" d="M45.56,132.3c3.57,2.15,7.5,3.1,11.06,2.68-2.63-29.19-1.62-57.9,2.99-84.98-5.62-.37-14.29-13.03-16.75-7.36-2.27,5.23,1.38,15.85,3.07,21.56,2.97,10.01,3.86,31.05,3.89,40.92,0,2.27-2.52,28.22-4.26,27.17Z"/>
  <g>
    <path class="cls-4" d="M82.52,33.97c-1.5-5.24-6.65-4.35-8.08-3.99,1.89-1.56,3.01-3.46,2.55-5.74-1.76-8.65-6.26-7.03-6.26-7.03h0c.45-1.1.51-2.17.01-3.14-3.14-6.02-8.44-5.13-8.44-5.13v.04c.16-1.87-.24-3.51-1.57-4.68-6.46-5.72-10.21,0-10.21,0v.02c-.97-1.88-2.96-3.2-6.63-3.65-5.45-.67-7.3,3.13-7.57,7.9h-.03c-.26-1.78-3.64-8.3-8.04-5.74-4.59,2.68-6.2,2.52-6.2,2.52-9.47,1.85-7.94,8.65-7.53,10.03l-.12.21c-1.8-.41-2.68.19-2.68.19,0,0-5.51,1.75-5.93,10.06-.35,6.78,12.94,9.9,17.85,10.81l-.92,1.56c-4.89-1.34-17.47-4.05-20.43.27-3.66,5.36-.59,14.92,1.93,14.84,0,0,1.51,1.54,7.03.27l.06-.07.02.03c-2.64,1.43-4.63,3.1-4.83,4.97-.62,5.9,3.88,9.32,5.98,8.86,2.1-.47.08.62,1.4,1.55s5.75,5.13,8.78,2.33c0,0,.82-.88,1.85-2.9l.02.02c-.79,2.63-.6,5,1.53,6.44,7.3,4.93,7.69.97,7.69.97,0,0,.08,2.64,2.64,2.1,1.25-.27,3.36.32,4.83-1.83l1.12-.09-1.07.21s1.04,2.46,6.09.99c4.81-1.41,4.92-1.36,4.71-2.89l.12-.08c1.01,1.05,2.05,1.45,3.04.76,4.8-3.34,4.02-.23,5.5-3.03,1.48-2.8,1.79,1.17,3.96-.85,2.16-2.01,6.99-2.82,2.38-8.64l.04-.05c2.11,1.16,3.97,1.66,5.12.84,4.27-3.03,3.11-6.06,4.27-8.31,1.17-2.25,2.04-4.2-.54-7l-.2.03v-.06c.06,0,.13.02.2.03,2.97.34,5.72-1.57,6.43-4.47.62-2.5,1.09-6.08.12-9.48Z"/>
    <g>
      <g>
        <path class="cls-2" d="M39,24.93S30.34-.98,43.88.68c13.54,1.66,4.45,15.13,3.87,25.17"/>
        <path class="cls-2" d="M50.51,4.31s3.74-5.72,10.21,0c6.46,5.72-8.71,22.54-8.71,22.54"/>
        <path class="cls-2" d="M62.28,8.95s5.3-.89,8.44,5.13c3.14,6.02-15.49,16.01-15.49,16.01"/>
        <path class="cls-2" d="M70.72,17.22s4.51-1.62,6.26,7.03c1.76,8.65-19.22,11.87-19.22,11.87"/>
        <path class="cls-2" d="M74.05,30.09s6.72-2.23,8.47,3.88c.98,3.4.5,6.98-.12,9.48-.71,2.9-3.47,4.81-6.43,4.47-1.85-.21-4.25-.89-7.31-2.4,0,0-8.64-2.6-10.88-2.27"/>
        <path class="cls-2" d="M53.74,51.15s14.21,15.11,18.49,12.08c4.27-3.03,3.11-6.06,4.27-8.31,1.17-2.25,2.04-4.2-.54-7"/>
        <path class="cls-2" d="M44.67,56.39s5.76,21.91,10.56,18.57c4.8-3.34,4.02-.23,5.5-3.03s1.79,1.17,3.96-.85,7.07-2.82,2.29-8.75"/>
        <path class="cls-2" d="M34.12,54.12s-15.37,15.78-8.06,20.71c7.3,4.93,7.69.97,7.69.97,0,0,.08,2.64,2.64,2.1s8.67,2.48,5.69-21.56"/>
        <path class="cls-2" d="M41.28,76.19s1.04,2.46,6.09.99c5.05-1.48,4.92-1.35,4.68-3.12"/>
        <path class="cls-2" d="M25.82,48.56s-18.7,4.06-19.32,9.97c-.62,5.9,3.88,9.32,5.98,8.86s.08.62,1.4,1.55,5.75,5.13,8.78,2.33c0,0,1.04-1.11,2.26-3.75"/>
        <path class="cls-2" d="M24.67,38.83c-.33-.26-18.73-5.69-22.38-.33-3.65,5.36-.59,14.92,1.93,14.84,0,0,1.51,1.54,7.03.27"/>
        <path class="cls-2" d="M25.43,36.96s-20.07-2.8-19.64-11.11,5.93-10.06,5.93-10.06c0,0,4.1-2.9,12.95,8.11l4.61,5.8"/>
        <path class="cls-2" d="M14.6,15.63s-3.11-8.22,7.45-10.28c0,0,1.61.16,6.2-2.52,4.59-2.68,8.08,4.58,8.05,5.96"/>
        <path class="cls-3" d="M42.89,24.25s3.51.33,4.86,1.6c0,0,5.16.03,7.03,3.53,0,0,3.2,4.87,2.98,6.74s1.35,5.52.01,7.13-.73,4.72-2.92,6.71c-2.19,2-4.19,6.66-10.18,6.43-1.92-.07-3.34.04-4.5.11-2.45.14-3.7.09-5.95-2.33-3.31-3.55-5.85,1.23-8.79-6.6-1.14-3.02-1.35-5.33-1.1-7.18.39-2.94,1.95-4.74,2.78-6.47.24-.49.48-1.03.75-1.59.66-1.39,1.45-2.91,2.52-4.15,1-1.15,2.24-2.05,3.84-2.34.44-.08.89-.16,1.34-.24,3.64-.67,7.34-1.35,7.34-1.35Z"/>
      </g>
      <path class="cls-2" d="M28.54,52.12s-9.31,6.38-10.52,9.1"/>
    </g>
    <g>
      <path class="cls-5" d="M41.02,24.61c-.74-1.9-.81-3.91-.68-5.9-.23-3.21-.84-6.97.38-9.88.39,3.31-.18,6.57-.12,9.87.27,1.89.82,4.16.42,5.92h0Z"/>
      <path class="cls-5" d="M44.81,24.15c-.41-1.42-.23-2.81.04-4.21,0-2.33-.54-4.82.36-7.03.71,2.32.07,4.69-.1,7.04.19,1.41.27,2.81-.22,4.2-.01.04-.07.04-.08,0h0Z"/>
      <path class="cls-5" d="M49.71,25.56c.59-2.02,1.63-3.77,2.74-5.53,1.41-3.12,2.22-6.6,4.16-9.44-.45,3.47-2.36,6.49-3.92,9.55-.7,1.86-1.54,4.18-2.97,5.42h0Z"/>
      <path class="cls-5" d="M54.5,27.29c.88-1.13,1.99-1.83,3.16-2.56,1.62-1.6,2.73-3.58,4.59-4.98.03-.03.08,0,.07.05-.32.89-.81,1.68-1.38,2.4-.85,1.1-2.08,1.8-3.1,2.73-.87,1.08-1.89,2.04-3.29,2.43-.04.01-.07-.04-.04-.07h0Z"/>
      <path class="cls-5" d="M57.16,32.14c2.09-1.22,4.56-1.27,6.51-2.67,1.7-1.22,4.02-2.91,5.8-3.99.03-.02.08.02.06.06-.68,1-1.55,1.85-2.5,2.58-1.43,1.12-3.16,1.69-4.78,2.45-1.53.95-3.22,1.68-5.07,1.65-.04,0-.06-.06-.02-.08h0Z"/>
      <path class="cls-5" d="M58.65,38.15c1.77-.4,3.49-.36,5.27-.34,2.91-.43,5.68-1.76,8.6-2-2.47,1.8-5.62,2-8.56,2.26-1.74.44-3.54.67-5.3.17-.04,0-.04-.07,0-.08h0Z"/>
      <path class="cls-5" d="M58.76,40.46c1.7-.57,3.46-.44,5.18-.09,2.79.12,6.21.07,8.43,1.73-2.9-.15-5.59-1.15-8.45-1.47-1.73.12-3.41.24-5.15-.09-.04,0-.05-.07,0-.08h0Z"/>
      <path class="cls-5" d="M57.55,45.33c1.89.33,3.53,1.19,5.14,2.15,2.86,1.17,6.06,1.89,8.48,3.85-3.12-.5-5.78-2.29-8.58-3.62-1.7-.56-3.86-1.16-5.04-2.38h0Z"/>
      <path class="cls-5" d="M56.53,48.8c1.3.6,2.24,1.54,3.2,2.54,1.91,1.26,4.08,1.97,5.79,3.56.03.02,0,.08-.03.07-.93-.16-1.8-.5-2.62-.93-1.24-.63-2.18-1.7-3.3-2.5-1.24-.63-2.4-1.42-3.1-2.69-.02-.03.02-.08.05-.06h0Z"/>
      <path class="cls-5" d="M51.99,53.69c1.82,1.02,3.23,2.5,4.53,4.08,2.42,2.26,5.56,4.5,6.95,7.42-2.79-2.02-4.77-4.79-7.13-7.23-1.52-1.24-3.49-2.63-4.35-4.27h0Z"/>
      <path class="cls-5" d="M50.53,55.45c.88,1.23,1.27,2.6,1.63,4.02,1.07,2.17,2.63,4.04,3.29,6.43.01.04-.04.07-.07.04-.73-.68-1.31-1.47-1.81-2.31-.77-1.25-1.06-2.72-1.66-4.05-.79-1.24-1.44-2.57-1.47-4.1,0-.04.05-.06.08-.02h0Z"/>
      <path class="cls-5" d="M47.47,56.74c.71.92.89,1.94,1.04,3.02.73,1.64,1.92,3,2.17,4.86,0,.04-.04.07-.07.04-.57-.49-1-1.09-1.35-1.72-.54-.95-.61-2.08-1-3.09-.59-.93-1.04-1.93-.88-3.09,0-.04.06-.05.08-.02h0Z"/>
      <path class="cls-5" d="M36.23,55.7c-.56,1.16-1.4,1.95-2.3,2.8-1.08,1.72-1.5,3.7-2.75,5.35-.02.03-.08.02-.08-.02,0-.85.2-1.67.52-2.43.46-1.17,1.4-2.04,2.1-3.05.52-1.13,1.25-2.18,2.45-2.71.03-.02.07.02.06.06h0Z"/>
      <path class="cls-5" d="M38.64,56.97c.4,1.47.22,2.93-.07,4.38,0,2.42.52,5.02-.4,7.32-.69-2.43-.04-4.88.14-7.32-.18-1.47-.26-2.91.25-4.37,0-.04.07-.04.08,0h0Z"/>
      <path class="cls-5" d="M36.97,56.75c-.01,1.58-.56,2.95-1.23,4.32-.65,2.41-.83,5.08-2.33,7.14-.04-2.57,1.26-4.86,2.08-7.22.22-1.5.53-2.97,1.4-4.27.02-.03.08-.02.08.03h0Z"/>
      <path class="cls-5" d="M31.69,53.22c-.73,1.11-1.77,1.77-2.87,2.39-1.52,1.44-2.68,3.21-4.61,4.18-.03.02-.08-.02-.06-.06.4-.77.92-1.44,1.51-2.04.87-.92,2.05-1.47,3-2.29.81-.99,1.71-1.87,2.99-2.26.04-.01.07.03.05.06h0Z"/>
      <path class="cls-5" d="M26.96,50.2c-.82.98-1.89,1.46-3.03,1.87-1.65,1.09-3.09,2.74-5.1,3.09,1.18-1.73,3.2-2.37,4.96-3.31.9-.82,1.86-1.53,3.12-1.72.04,0,.07.04.04.07h0Z"/>
      <path class="cls-5" d="M24.11,41.1c-1.47.24-2.84-.05-4.24-.4-2.38-.08-4.73.36-7.08-.29-.04,0-.04-.07,0-.08.94-.28,1.9-.38,2.85-.4,1.44-.04,2.84.41,4.26.51,1.44-.11,2.88-.08,4.23.58.04.02.03.08-.01.08h0Z"/>
      <path class="cls-5" d="M24.11,43.63c-1.49.37-2.92.19-4.37-.08-2.43.03-4.96.67-7.32-.07,2.37-.87,4.88-.33,7.32-.19,1.47-.2,2.93-.28,4.37.25.04.01.04.07,0,.08h0Z"/>
      <path class="cls-5" d="M25.03,46.73c-2.06.39-4.09.27-6.14.09-3.41.17-6.86,1.05-10.25.63,3.27-1.2,6.82-.88,10.24-.89,1.96-.23,4.41-.54,6.15.17h0Z"/>
      <path class="cls-5" d="M26.61,35.07c-2.04-.46-3.8-1.51-5.47-2.7-2.92-1.56-6.52-3-8.51-5.55,3.15,1.36,5.73,3.58,8.64,5.32,1.79.8,4.05,1.6,5.35,2.93h0Z"/>
      <path class="cls-5" d="M27.15,32.88c-1.87-1.48-2.78-3.73-4.76-5.02-1.72-1.13-4.09-2.65-5.72-3.9,2.82.28,5.26,2.79,7.24,4.82,1.42,1.06,2.69,2.35,3.31,4.06.02.04-.04.07-.07.05h0Z"/>
      <path class="cls-5" d="M30.78,27.17c-1.13-1.06-1.77-2.37-2.36-3.74-1.42-2.02-3.22-3.75-4.1-6.12-.02-.04.03-.08.06-.05.79.64,1.45,1.38,2.04,2.17.91,1.18,1.41,2.62,2.21,3.86.99,1.13,1.87,2.33,2.21,3.84.01.04-.04.07-.07.04h0Z"/>
      <path class="cls-5" d="M33.2,25.09c-.88-.82-1.25-1.85-1.57-2.95-.94-1.6-2.46-3-2.7-4.9,1.64,1.13,2.14,3.07,2.93,4.78.73.88,1.34,1.83,1.41,3.04,0,.04-.05.06-.07.03h0Z"/>
      <path class="cls-5" d="M36,24.72c-1.3-1.69-2.04-3.65-2.63-5.66-1.36-3.1-3.39-6.48-3.53-9.78,1.78,3.04,2.53,6.44,3.77,9.68.93,1.78,2.22,3.87,2.39,5.76h0Z"/>
      <path class="cls-5" d="M40.42,40.38c-.48-.73.5-1.56,1.19-1.12.68.32.88,1.34.54,1.94-.57-.03-1.01-.63-.86-1.18l.08.05c-.53.37-1.01,1.21-1.23,1.59.54.74,1.72.93,2.43.32,1.64-1.27.29-3.99-1.63-3.93-.91-.03-1.78.87-1.53,1.78.12.45.19.96.07,1.42-1.02,3.33,3.09,2.58,4.6,1.15.73-.79-.08-1.72-.12-2.62,0-.89.55-1.93-.34-2.55-1.22-.9-2.69-.09-3.94.32-.81.28-2.02.18-2.31,1.15-.12.42-.04.89.04,1.35.24.93.5,3.25.89,4.1.96,1.85,3.46.82,4.84.02.37-.25.68-.61.68-1.04,0-.07.06-.12.12-.12.62.49,1.62.48,2.05-.26.45-.67.05-1.49-.34-2.19-.19-.37-.39-.75-.45-1.2-.13-.83.69-1.58.09-2.31-.23-.3-.58-.52-.94-.69-1.06-.41-2.37-.94-3.44-.38-.66.43-1.18,1.3-2.07,1.39-1.1.2-2.67-.26-3.17,1.04-.58,1.66.95,3.01,1.17,4.62.12.87-.08,1.7-.06,2.49-.04,1.97,1.62,2.56,3.24,1.8,1.42-.74,2.92-1.88,4.65-1.61.74.06,1.56-.64,1.12-1.21-.18-.15.04-.43.23-.3,1.82.39,1.19-2.38,1.21-3.47,0,0-.12-2.38-.12-2.38.02-1.82-.64-2.86-2.52-3.06,0,0-2.35-.39-2.35-.39-1.12-.07-3.69-1.1-3.91.53,0,.41-.09.97-.48,1.23-1.06.59-2.33.54-3.12,1.55-1.14,1.23-.36,2.9.04,4.31.47,1.51.87,3.08,1.4,4.54.49,1.43,1.93,2.54,3.41,1.74,1.42-.65,2.63-2.13,4.39-1.97,1.09.14,2.43.87,2.85-.4.14-.52.11-1.4.71-1.77.49-.34,1.28-.21,1.67-.52.49-.38.37-1.26.15-1.96-.41-1.39-1.17-3.19-1.27-4.65-.04-.85.22-1.65,0-2.3-.2-.65-.93-.99-1.65-1.25-3.85-1.67-7.74-1.92-10.37,1.86-2.12,2.41-4.11.76-3.25,5.15.46,2.25.23,4.84,1.67,6.7,1.56,1.55,3.96,2.72,6.08,3.05,1.22.16,2.09-.72,3.17-1.18,1.01-.42,2.56-.03,3.21-.87.58-.77.46-2.81,1.89-3.06.71-.22,1.6.02,2.09-.49.6-1.04-.55-1.81-.94-2.94-.3-.91-.02-1.78.13-2.52.37-1.48-.15-2.98-.71-4.45-.51-1.44-1.18-2.85-2.77-3.22-2.17-.28-4.64-1.64-6.79-1.06-2.3.75-3.55,2.87-5.53,4.27-1.21.94-3.02,1.12-3.59,2.64-.69,2.82-.99,6.36.98,8.76.98,1.2,1.98,2.49,3.16,3.42,1.19.93,2.69,1.39,4.22,1.79,1.52.41,3.06.84,4.52.58,2.92-.73,5.22-3.42,7.39-5.44,1.09-1.1,2.05-2.39,1.77-3.85-.1-.74-.37-1.51-.4-2.39-.03-.89.25-1.69.38-2.44.46-1.69-.66-2.67-1.55-4-.93-1.28-.39-3.27-1.88-3.99-4.27-1.22-9.48-2.11-13.52.31-2.56,1.64-5.22,3.64-6.83,6.27-1.6,2.64-1.3,6.07-.32,8.93.53,1.44,1.64,2.55,2.92,3.44,3.79,2.5,8.08,5.58,12.87,4.74,3.15-.58,5.32-3.22,7.83-5.03,1.26-.94,2.42-2.05,2.74-3.58.35-1.5.32-3.12.34-4.69.03-4.6-1.43-9.86-5.83-12.03-6.75-2.7-17.86-1.79-20.18,6.39.35-2.92,3.37-5.68,6.21-6.8,2.99-1.21,6.29-1.31,9.45-1.04,7.54.26,10.87,6.62,10.79,13.48.09,3.4-.03,6.63-3.22,8.67-4.03,3.32-7.16,6.64-12.88,4.91-3.13-.89-5.8-2.74-8.49-4.49-2.92-1.73-4.05-5.26-4.05-8.51-.21-5.18,4.29-8.77,8.25-11.33,2.8-1.77,6.32-1.89,9.5-1.39,2.24.49,5.81.26,6.29,3.19.17,1.79,1.13,2.66,2.04,4.13.93,1.53-.09,3.32-.08,4.84.02.72.27,1.47.39,2.31.33,1.75-.83,3.36-1.99,4.51-2.37,2.19-4.53,4.83-7.82,5.67-1.72.3-3.35-.2-4.87-.6-1.53-.41-3.15-.89-4.49-1.93-2.36-2.15-4.96-4.81-4.91-8.22.09-2.33-.19-5.59,2.36-6.73.75-.38,1.45-.65,2.06-1.1,2.38-1.81,4.74-5.37,8.28-4.42,1.62.44,3.01.78,4.66,1.15,1.72.37,2.72,2.11,3.21,3.65.58,1.5,1.14,3.2.72,4.83-.17.79-.38,1.54-.16,2.18.2.65.86,1.23,1.08,2.15.3,1.06-.49,1.97-1.55,1.98-.84.06-1.55.07-1.83.7-.33.6-.29,1.49-.86,2.27-.85,1.1-2.37.66-3.49,1.07-1.06.5-2.12,1.4-3.43,1.21-2.38-.38-4.79-1.58-6.5-3.28-1.56-1.98-1.32-4.68-1.79-7-.31-1.7-.5-3.65,1.57-4.31.75-.29,1.32-.66,1.83-1.28,2.79-3.95,6.95-3.76,10.98-1.98.78.29,1.69.7,1.97,1.59.27.9-.04,1.71.02,2.44.03.75.27,1.5.52,2.25.47,1.71,2.22,4.99-.84,5.17-.92.11-.78.9-.98,1.64-.09.44-.48.89-.94,1-.92.28-1.74-.18-2.44-.25-2.36-.18-4.15,3.34-6.64,1.88-2.1-1.47-2.07-4.37-2.93-6.55-1.01-2.73-1.08-5.07,2.22-5.96.39-.09.77-.17,1.03-.37.27-.19.29-.49.32-.92.31-2.09,3.04-1.05,4.41-.9,2.71.54,5.26.21,5.2,3.85,0,0,.11,2.38.11,2.38-.05,1.16.47,2.64-.47,3.6-.33.29-.87.48-1.32.21l.23-.3c.41.39.23,1.02-.1,1.38-.66.72-1.68.38-2.48.49-1.24.17-2.15,1.04-3.31,1.54-1.12.54-2.92.53-3.46-.84-.54-1.19-.03-2.55-.19-3.73-.1-.78-.54-1.5-.88-2.26-.56-1.07-.7-2.91.67-3.48,1.14-.46,2.61.16,3.5-.78.3-.27.57-.6.96-.83,1.19-.63,2.57-.08,3.71.37.79.32,1.61,1.16,1.24,2.07-.14.41-.3.76-.24,1.14.11.81.73,1.46.92,2.27.27.87-.35,1.9-1.28,2.01-.45.06-.91-.07-1.26-.37l.21-.09c-.06,1.1-1.24,1.52-2.09,1.86-2.1.92-4.05.42-4.26-2.13,0,0-.52-2.77-.52-2.77-.49-2.16.65-2.37,2.42-2.73,1.3-.43,2.82-1.24,4.12-.28.41.29.64.81.59,1.31-.03.49-.2.94-.18,1.39.02.45.23.88.35,1.34.37,1.04-.6,1.87-1.5,2.17-1.19.54-3.25,1.01-3.78-.63-.17-.97.43-1.83.06-2.79-.27-1,.68-1.99,1.66-1.94.98,0,1.88.66,2.28,1.53,1.03,2.06-1.59,4.19-3.16,2.28.18-.59.78-1.47,1.33-1.72-.1.49.23,1.08.78,1.1,0,0-.05.03-.05.03.11-.33.15-.68.07-1.02-.11-.65-.99-1.2-1.53-.69-.24.22-.35.63-.15.9.03.04-.04.09-.06.05h0Z"/>
    </g>
  </g>
</svg>