<?xml version="1.0" encoding="UTF-8"?>
<svg id="_오른쪽_위" data-name="오른쪽_위" xmlns="http://www.w3.org/2000/svg" version="1.1" viewBox="0 0 99.51 160.29">
  <defs>
    <style>
      .cls-1 {
        fill: #d793ff;
      }

      .cls-1, .cls-2 {
        stroke-width: 0px;
      }

      .cls-3 {
        fill: #00d675;
        stroke-width: 1.07px;
      }

      .cls-3, .cls-4, .cls-5 {
        stroke: #111114;
        stroke-linecap: round;
        stroke-linejoin: round;
      }

      .cls-4 {
        fill: none;
      }

      .cls-4, .cls-5 {
        stroke-width: 1.2px;
      }

      .cls-2 {
        fill: #111114;
      }

      .cls-5 {
        fill: #ffec2d;
      }
    </style>
  </defs>
  <g>
    <path class="cls-3" d="M13.07,112.54c6.33,20.79,20.5,18.52,20.5,18.52,5.72,5.19,3.37,25.33,3.37,25.33h2.07c2.24-5.41-1.6-25.33-1.6-25.33,7.05-32.34-14.77-40.68-14.77-40.68-16.35-7.58-16.07-4.66-21.28-8.29,7.11,8.54,8.46,19.82,11.69,30.45Z"/>
    <path class="cls-2" d="M33.98,123.76c-.54-2.81,2.04-5.25,4.45-6.18-1.78,1.96-3.79,3.51-4.45,6.18h0Z"/>
    <path class="cls-2" d="M22.65,128.53c-.19-4.99,5-9.02,9.85-7.9,0,0-.48.42-.48.42-.13-2.32-.63-4.72.22-7,1.11-2.09,3.5-3.4,5.79-3.67-1.67.43-3.17,1.31-4.33,2.57-2.02,2.14-1.02,5.37-.89,8.04.03.26-.22.49-.48.42-4.56-1.06-9.2,2.46-9.69,7.11h0Z"/>
    <path class="cls-2" d="M29.58,114.63c-5-.66-9.95,2.24-11.84,6.92.78-5.26,6.88-8.82,11.84-6.92h0Z"/>
    <path class="cls-2" d="M27.54,111.36c-.06-2.19.26-4.62,2.04-6.17,1.77-1.42,4.21-1.96,6.31-1.33-1.09,0-2.13.18-3.12.5-3.47.99-4.51,3.74-5.23,7h0Z"/>
    <path class="cls-2" d="M23.26,105.6c-.45-4.73,4.25-8.52,8.82-7.4-1.09.04-2.12.28-3.12.61-3.11.91-5.1,3.69-5.71,6.79h0Z"/>
    <path class="cls-2" d="M25.24,108.51c-2.61.12-5.38.45-7.5,2.11,1.29-2.54,5.05-3.17,7.5-2.11h0Z"/>
    <path class="cls-2" d="M21.09,101.66c-2.61.12-5.38.45-7.5,2.11,1.29-2.54,5.05-3.17,7.5-2.11h0Z"/>
    <path class="cls-2" d="M17.35,96.06c-2.61.12-5.38.45-7.5,2.11,1.29-2.54,5.05-3.17,7.5-2.11h0Z"/>
    <path class="cls-2" d="M23.54,91.99c-1.81,1.89-3.58,4.04-3.96,6.71-.82-2.72,1.46-5.77,3.96-6.71h0Z"/>
    <path class="cls-2" d="M36.15,132.07c-2-6.1-4.63-11.93-7.38-17.71-5.3-9.27-11.71-17.87-18.48-26.12-.04-.04.03-.11.07-.07,8.08,7.07,13.68,16.66,18.69,26.04,3.17,5.43,6.57,11.75,7.1,17.86h0Z"/>
  </g>
  <g>
    <path class="cls-3" d="M37.22,146.85s4.07-44.16,19.9-58.79c15.83-14.63,41.86-27.25,41.86-27.25,0,0-5.04,7.14-6.33,16.66-1.29,9.51-13.9,41.97-45.54,49.14,0,0-6.31,1.84-6.7,15.26-.39,13.42-3.19,4.99-3.19,4.99Z"/>
    <path class="cls-2" d="M44.61,125.18c.07-3.26-.12-6.27-.6-9.5,1.55,2.85,1.78,6.47.6,9.5h0Z"/>
    <path class="cls-2" d="M48.85,117.88c4.69-2,10.44-1.87,14.71,1.06-4.71-1.87-9.77-1.96-14.71-1.06h0Z"/>
    <path class="cls-2" d="M51.36,111.92c-.88-2.9-2.17-5.28-3.67-7.9,2.35,1.84,3.93,4.88,3.67,7.9h0Z"/>
    <path class="cls-2" d="M54.36,108c6.08-1.64,13.06.25,17.47,4.75-5.08-3.55-11.29-5.24-17.47-4.75h0Z"/>
    <path class="cls-2" d="M56.31,103.55c-.68-3.46-2.06-6.37-3.7-9.47,2.54,2.37,4.16,5.97,3.7,9.47h0Z"/>
    <path class="cls-2" d="M57.85,101.85c7.24-2.23,15.43-1.5,22.16,1.99-7.12-2.43-14.72-3.11-22.16-1.99h0Z"/>
    <path class="cls-2" d="M61.13,97.32c.5-3.82.23-7.45-.82-11.15,2.11,3.22,2.43,7.66.82,11.15h0Z"/>
    <path class="cls-2" d="M65.83,92.11c6.65-1.78,14.03-.92,20.02,2.49-6.41-2.36-13.23-3.17-20.02-2.49h0Z"/>
    <path class="cls-2" d="M68.61,87.37c-.57-2.41-1.11-4.08-2.33-6.25,2.04,1.29,2.95,3.95,2.33,6.25h0Z"/>
    <path class="cls-2" d="M72.8,84.2c5.14-1.42,10.99-.38,15.32,2.75-4.83-2.11-10.05-3.06-15.32-2.75h0Z"/>
    <path class="cls-2" d="M76.58,80.2c-.3-2.06-.89-3.81-2.03-5.53-.07-.08-.09-.2,0-.26.27-.05.55.15.82.23-.24.05-.48.06-.73.08l.14-.28c1.73,1.24,2.58,3.76,1.79,5.76h0Z"/>
    <path class="cls-2" d="M79.23,78.04c4.3-.65,9.2.45,12.39,3.51-3.86-2.12-8.04-3.01-12.39-3.51h0Z"/>
    <path class="cls-2" d="M82.67,75.06c-.61-1.35-.68-2.74-.19-4.13.61,1.35.67,2.74.19,4.13h0Z"/>
    <path class="cls-2" d="M86.27,73.18c2.18-.55,4.69.19,6.2,1.86-2.15-.71-4.02-1.27-6.2-1.86h0Z"/>
    <path class="cls-2" d="M40.42,132.6c4.1-9.37,8.98-18.4,14.74-26.85,8.88-14.43,20.07-28.49,35.92-35.52.06-.03.12.07.06.11-14.56,8.74-26.47,21.42-35.64,35.62-5.2,8.65-9.71,18.46-15.07,26.65h0Z"/>
  </g>
  <path class="cls-3" d="M38.42,158.67l11.16-81.47-5.54,3.65-7.79,76.87c.5.84,1.41,1.7,2.33,2.03-.02-.28-.14-.8-.16-1.08Z"/>
  <g>
    <path class="cls-1" d="M79.11,43.65c3.8-2.9,1.02-7.61,1.02-7.61,1.86-9.47-4.86-10.2-4.86-10.2h0c4.96-7.02-2.46-8.43-2.46-8.43-.02-5.88-6.18-4.84-6.18-4.84.24-2.05-1.08-3.99-5.05-4.67-3.94-.67-6.92,5.19-6.98,5.3h-.06c.12-1.02.21-2.07.2-3.18-.09-11.04-10.98-7.02-10.98-7.02-4.38-5.55-9.89.27-9.89.27-7.98-2.18-9.27,4.13-9.27,4.13-6.43-1.04-4.93,7.51-4.93,7.51l.32.15s-.08.1-.12.15c-.13-.18-.2-.29-.2-.29-6.92-6.03-9.91,3.16-9.91,3.16-2.21.68-2.81,3.42-2.81,3.42-3.65,2.13-2.29,5.01-2.29,5.01-2.7,4.93.98,7.37,1.86,7.87l.02.11c-9.37.43-4.53,11.85-4.53,11.85-3.56,5.44.83,9.23.83,9.23-.4,10.7,9.47,7.82,9.47,7.82l.11-.17.04.03c-.73.71-1.12,1.14-1.12,1.14-1.81,5.45,4.26,5.75,4.26,5.75.7,6.54,7.2,5.01,7.2,5.01,4.94,4.87,8.98-.32,8.98-.32.03.57.1,1.09.22,1.55,1.58,5.67,9.29,2.99,9.29,2.99,3.01,2.88,4.86-.4,4.86-.4,3.44,3.93,9.84.65,9.84.65,3.33-2.4,4.09-5.6,3.54-8.93h.03c.29.87,1.74,3.9,7.23.87,6.35-3.5,3.11-8.46,3.11-8.46,4.96,1.46,6.02-3.73,6.02-3.73,3.89-2.63,1.51-5.67,1.51-5.67l-.16.15-.03-.58c.81-.23,1.48-.62,1.95-1.22,4.17-5.29-.06-8.42-.06-8.42ZM31.74,74.14c0,.11,0,.23,0,.34v-.34s0,0,0,0Z"/>
    <g>
      <path class="cls-5" d="M44.59,55.61s-9.6,2.04-15.02-6.35c-5.41-8.39,2.49-18.98,2.49-18.98,0,0,11.66-8.28,19.14.03,7.48,8.32,6.88,23.51-6.62,25.29Z"/>
      <path class="cls-4" d="M49.37,54.19s17.84,17.32,6.6,25.43c0,0-6.39,3.28-9.84-.65,0,0-1.86,3.28-4.86.4,0,0-7.71,2.69-9.29-2.99-1.58-5.67,5.14-21.29,5.14-21.29"/>
      <path class="cls-4" d="M31.75,74.83s-4.04,5.18-8.98.32c0,0-6.5,1.53-7.2-5.01,0,0-6.07-.3-4.26-5.75,0,0,7.06-7.83,19.39-13.59"/>
      <path class="cls-4" d="M12.29,63.39s-9.86,2.88-9.47-7.82c0,0-4.39-3.8-.83-9.23,0,0-4.91-11.57,4.7-11.86,0,0,13.12,5.26,21.46,4.29"/>
      <path class="cls-4" d="M6.7,34.48s-5.1-2.4-2.05-7.97c0,0-1.36-2.87,2.29-5.01,0,0,.59-2.75,2.81-3.42,0,0,2.98-9.19,9.9-3.16,0,0,10.03,14.49,12.42,15.37"/>
      <path class="cls-4" d="M19.65,14.91s-1.5-8.56,4.93-7.51c0,0,1.3-6.31,9.27-4.13,0,0,5.52-5.82,9.89-.27,0,0,10.89-4.02,10.98,7.02.09,11.04-7.18,17.57-7.18,17.57"/>
      <path class="cls-4" d="M54.59,13.21s3.01-5.99,6.99-5.31,5.29,2.62,5.05,4.67c0,0,6.15-1.04,6.18,4.84,0,0,8.35,1.58,1.41,9.79-6.94,8.2-19.32,9.35-19.32,9.35"/>
      <path class="cls-4" d="M75.27,25.84s6.73.73,4.86,10.2c0,0,2.78,4.71-1.02,7.61,0,0,4.23,3.12.06,8.42-4.17,5.29-23.41-5.26-23.41-5.26"/>
      <path class="cls-4" d="M77.42,53.71s2.38,3.04-1.51,5.67c0,0-1.07,5.19-6.02,3.73,0,0,3.24,4.96-3.11,8.46-6.35,3.5-7.3-1.1-7.3-1.1"/>
    </g>
    <g>
      <path class="cls-2" d="M50.49,30.07c4.3-4.45,8.02-9.12,11.41-14.3-2.13,5.79-6.24,10.94-11.41,14.3h0Z"/>
      <path class="cls-2" d="M53.29,31.09c2.72-2.16,5.08-4.23,7.57-6.65-1.3,3.2-4.23,5.76-7.57,6.65h0Z"/>
      <path class="cls-2" d="M54,34.33c4.78-1.92,8.88-4.61,12.55-8.23-2.51,4.49-7.44,7.71-12.55,8.23h0Z"/>
      <path class="cls-2" d="M56.18,38.85c5.26-.02,10.22-.66,15.31-1.96-4.54,2.61-10.26,3.34-15.31,1.96h0Z"/>
      <path class="cls-2" d="M56.36,42.5c5.05-.08,9.9-.13,14.94-.14-4.84,1.39-10.08,1.44-14.94.14h0Z"/>
      <path class="cls-2" d="M56.34,44.94c5.22.79,10.26,1.46,15.5,2.08-5.21.78-10.68.04-15.5-2.08h0Z"/>
      <path class="cls-2" d="M55.56,49.5c4.01,3.02,8.31,5.05,13.19,6.23-5,.27-10.22-2.2-13.19-6.23h0Z"/>
      <path class="cls-2" d="M53.46,51.43c4.1,2.3,7.32,6.29,8.7,10.79-2.66-3.9-5.44-7.37-8.7-10.79h0Z"/>
      <path class="cls-2" d="M46.77,55.55c3.27,4.1,5.12,9.42,5.06,14.66-1.35-5.09-2.98-9.83-5.06-14.66h0Z"/>
      <path class="cls-2" d="M43.77,56.31c1.39,2.95,2.12,6.08,2.17,9.34-1.39-2.95-2.11-6.08-2.17-9.34h0Z"/>
      <path class="cls-2" d="M40.5,56.53c.67,4.18.86,8.31.56,12.54-1.07-4.09-1.26-8.36-.56-12.54h0Z"/>
      <path class="cls-2" d="M38.46,56.65c-.51,5.49-.96,10.8-1.4,16.29-.96-5.42-.46-11.12,1.4-16.29h0Z"/>
      <path class="cls-2" d="M31.17,52.79c-1.78,2.98-4.45,5.39-7.6,6.84,2.34-2.58,4.8-4.78,7.6-6.84h0Z"/>
      <path class="cls-2" d="M33.5,54.65c-3.25,3.76-6.62,7.22-10.31,10.55,2.62-4.21,6.16-7.83,10.31-10.55h0Z"/>
      <path class="cls-2" d="M43.79,31.35c.93-.3.92,1.33,0,1.01-.09-.3-.2-.34-.28-.51.08-.16.2-.21.29-.5h0Z"/>
      <path class="cls-2" d="M46.65,34.54c.36.61.41,1.24.31,1.89-.11.51-.73.42-1.13.39-.25-.03-.51-.09-.78-.23.38-.41.83-.62,1.34-.74,0,0-.4.44-.4.44.03-.65.2-1.23.65-1.75h0Z"/>
      <path class="cls-2" d="M40.76,36.46c.62.96.74,1.24.9,2.37-1.17,0-1.77-1.59-.9-2.37h0Z"/>
      <path class="cls-2" d="M41.69,48.8c.62.96.74,1.24.9,2.37-1.17,0-1.77-1.59-.9-2.37h0Z"/>
      <path class="cls-2" d="M44.05,40.47c.49.58.32.98-.44,1.03-.49-.58-.31-.98.44-1.03h0Z"/>
      <path class="cls-2" d="M43.83,43.65c.49.58.32.98-.44,1.03-.49-.58-.31-.98.44-1.03h0Z"/>
      <path class="cls-2" d="M31.39,39.57c.49.58.32.98-.44,1.03-.49-.58-.31-.98.44-1.03h0Z"/>
      <path class="cls-2" d="M41.4,33.96c.43.55.26.9-.44.89-.43-.55-.26-.9.44-.89h0Z"/>
      <path class="cls-2" d="M43.57,34.62c.43.55.26.9-.44.89-.43-.55-.26-.9.44-.89h0Z"/>
      <path class="cls-2" d="M38.18,34.4c.43.55.26.9-.44.89-.43-.55-.26-.9.44-.89h0Z"/>
      <path class="cls-2" d="M48.69,50.99c.43.55.26.9-.44.89-.43-.55-.26-.9.44-.89h0Z"/>
      <path class="cls-2" d="M40.15,31.92c-.44.69-.39.68-1.14.34-.12-.82.79-1.09,1.14-.34h0Z"/>
      <path class="cls-2" d="M37.13,31.18c-.44.69-.39.68-1.14.34-.12-.82.79-1.09,1.14-.34h0Z"/>
      <path class="cls-2" d="M44.14,28.78c-.44.69-.39.68-1.14.34-.12-.82.79-1.09,1.14-.34h0Z"/>
      <path class="cls-2" d="M37.08,36.13c.31.81.26.99-.46,1.48-.7-.52-.41-1.44.46-1.48h0Z"/>
      <path class="cls-2" d="M33.2,41.6c.92.4,1.21.81,1.25,1.82-1.01,0-1.61-.89-1.25-1.82h0Z"/>
      <path class="cls-2" d="M36.95,43.27c.76-1.14,1.2-1.66,2.24-2.55.38,1.33-.88,2.75-2.24,2.55h0Z"/>
      <path class="cls-2" d="M40.72,46.5c.44.87-.53,1.78-1.36,1.26.37-.89.45-.96,1.36-1.26h0Z"/>
      <path class="cls-2" d="M43.46,46.39c.49.41.58.84.22,1.31,0,0-.1-.27-.1-.27.02.12.03.26,0,.44-.18.05-.32.05-.44.04-.3-.63-.4-1.1.33-1.52h0Z"/>
      <path class="cls-2" d="M34.89,38.36c.49.41.58.84.22,1.31,0,0-.11-.27-.11-.27.02.12.03.26,0,.44-.18.05-.32.05-.44.04-.3-.63-.4-1.09.33-1.52h0Z"/>
      <path class="cls-2" d="M40.95,42.85c.71.32.76.81.11,1.25-.71-.32-.75-.81-.11-1.25h0Z"/>
      <path class="cls-2" d="M37.85,38.78c.71.32.76.81.11,1.25-.71-.32-.75-.81-.11-1.25h0Z"/>
      <path class="cls-2" d="M46.76,41.83c.64.42.6.86-.11,1.14-.64-.42-.59-.86.11-1.14h0Z"/>
      <path class="cls-2" d="M48.47,38.75c.75-.08.97.27.57.91-.75.08-.97-.28-.57-.91h0Z"/>
      <path class="cls-2" d="M45.95,38.95c.75-.08.97.27.57.91-.75.08-.97-.28-.57-.91h0Z"/>
      <path class="cls-2" d="M49.63,33.04c.72-.19.99.12.68.8-.72.2-.99-.12-.68-.8h0Z"/>
      <path class="cls-2" d="M46.08,30.21c.68.11.68.24,0,.34-.68-.11-.68-.24,0-.34h0Z"/>
      <path class="cls-2" d="M46.65,32.36c.68.11.68.24,0,.34-.68-.11-.68-.24,0-.34h0Z"/>
      <path class="cls-2" d="M41.18,29.52c-.76.85-1.7,1.06-2.73.57.75-.86,1.7-1.05,2.73-.57h0Z"/>
      <path class="cls-2" d="M33.66,31.46c.63.32.59.59-.11.68-.63-.32-.59-.59.11-.68h0Z"/>
      <path class="cls-2" d="M32.97,36.82c.38.63.16.95-.57.8-.38-.64-.15-.95.57-.8h0Z"/>
      <path class="cls-2" d="M30.58,43.77c.68.35.68.79,0,1.14-.68-.35-.68-.79,0-1.14h0Z"/>
      <path class="cls-2" d="M33.88,48.1c.31.74,0,1.18-.8,1.14-.31-.74,0-1.18.8-1.14h0Z"/>
      <path class="cls-2" d="M36.62,51.17c.64.45.6.93-.11,1.25-.64-.45-.59-.93.11-1.25h0Z"/>
      <path class="cls-2" d="M33.26,44.67c.64.45.6.93-.11,1.25-.64-.45-.59-.93.11-1.25h0Z"/>
      <path class="cls-2" d="M36.62,46.39c.44.54.3.73-.34.46-.44-.54-.3-.72.34-.46h0Z"/>
      <path class="cls-2" d="M35.88,41.76c.44.54.3.72-.34.46-.44-.54-.3-.72.34-.46h0Z"/>
      <path class="cls-2" d="M38.24,49.27c.44.54.3.73-.34.46-.44-.54-.3-.72.34-.46h0Z"/>
      <path class="cls-2" d="M38.61,44.71c.44.54.3.73-.34.46-.44-.54-.3-.72.34-.46h0Z"/>
      <path class="cls-2" d="M40.15,52.31c.75-.13,1.02.23.68.91-.75.13-1.01-.23-.68-.91h0Z"/>
      <path class="cls-2" d="M44.94,51.86c.51-.5.78-.37.68.34-.51.5-.78.36-.68-.34h0Z"/>
      <path class="cls-2" d="M48.81,47.53c.52.51.39.82-.34.8-.52-.51-.38-.82.34-.8h0Z"/>
      <path class="cls-2" d="M46.41,45.69c.44.54.31.72-.34.46-.44-.54-.3-.72.34-.46h0Z"/>
      <path class="cls-2" d="M50.07,43.88l.03.65c.02.33-.47.4-.54.09,0,0-.16-.62-.16-.62l.58-.28-.54.09.65.09h0Z"/>
      <path class="cls-2" d="M35.71,33.4c.45.58.27.89-.46.8-.45-.58-.27-.89.46-.8h0Z"/>
      <path class="cls-2" d="M32.92,33.8c.45.58.27.89-.46.8-.45-.58-.27-.89.46-.8h0Z"/>
      <path class="cls-2" d="M51.09,37.95c.75-.08.97.27.57.91-.75.08-.97-.28-.57-.91h0Z"/>
      <path class="cls-2" d="M52.23,42.06c.7.04.74.26.11.57-.7-.04-.74-.27-.11-.57h0Z"/>
      <path class="cls-2" d="M53.03,39.41c.7.04.74.26.11.57-.7-.04-.74-.26-.11-.57h0Z"/>
      <path class="cls-2" d="M45.65,48.95c.7.04.74.26.11.57-.7-.04-.74-.27-.11-.57h0Z"/>
      <path class="cls-2" d="M43.95,38.13c.7.04.74.26.11.57-.7-.04-.74-.27-.11-.57h0Z"/>
      <path class="cls-2" d="M48.76,30.89c.7.04.74.26.11.57-.7-.04-.74-.27-.11-.57h0Z"/>
      <path class="cls-2" d="M41.14,40.32c.7.04.74.26.11.57-.7-.04-.74-.27-.11-.57h0Z"/>
      <path class="cls-2" d="M50.01,35.28c.7.04.74.26.11.57-.7-.04-.74-.27-.11-.57h0Z"/>
      <path class="cls-2" d="M52.46,36.13c.7.04.74.26.11.57-.7-.04-.74-.27-.11-.57h0Z"/>
      <path class="cls-2" d="M49.67,41.22c.7.04.74.26.11.57-.7-.04-.74-.27-.11-.57h0Z"/>
      <path class="cls-2" d="M53.03,46.62c-.07.98-.19,1.19-1.03,1.71-.58-.79.06-1.85,1.03-1.71h0Z"/>
      <path class="cls-2" d="M44.64,26.07c1.81-4.83,3.41-9.5,4.95-14.42-.16,5.14-1.93,10.26-4.95,14.42h0Z"/>
      <path class="cls-2" d="M41.56,26.67c-.75-3.36-.83-6.75-.2-10.14.76,3.36.82,6.75.2,10.14h0Z"/>
      <path class="cls-2" d="M37.9,27.12c-1.27-2.97-1.87-6.1-1.79-9.33,1.27,2.97,1.87,6.1,1.79,9.33h0Z"/>
      <path class="cls-2" d="M34.81,28.83c-2.43-2.58-3.73-6.25-3.46-9.79,1.13,3.38,2.21,6.45,3.46,9.79h0Z"/>
      <path class="cls-2" d="M30.46,32.15c-3.45-1.35-6.51-3.55-8.88-6.4,3.25,1.79,6.15,3.88,8.88,6.4h0Z"/>
      <path class="cls-2" d="M29.23,34.62c-3.87-1.16-7.46-2.94-10.72-5.34,3.88,1.16,7.46,2.95,10.72,5.34h0Z"/>
      <path class="cls-2" d="M27.97,36.68c-5.16-1.04-10.12-2.72-14.84-5.06,5.16,1.03,10.12,2.73,14.84,5.06h0Z"/>
      <path class="cls-2" d="M27.39,40.83c-5.31,1-10.87.75-16.06-.74,5.42.12,10.66.37,16.06.74h0Z"/>
      <path class="cls-2" d="M27.06,44.08c-4.68,1.2-9.57,1.47-14.36.94,0,0,.07-.33.07-.33,1.33.71,1.29.75-.13.32-.17-.04-.15-.32.03-.33,4.8-.43,9.56-.67,14.4-.59h0Z"/>
      <path class="cls-2" d="M27.5,46.6c-1.92,1.09-3.59,1.83-5.69,2.53,1.24-1.81,3.52-2.82,5.69-2.53h0Z"/>
    </g>
  </g>
</svg>