<?xml version="1.0" encoding="UTF-8"?>
<svg id="_오른쪽_위" data-name="오른쪽_위" xmlns="http://www.w3.org/2000/svg" version="1.1" viewBox="0 0 53.36 51.67">
  <defs>
    <style>
      .cls-1 {
        fill: none;
      }

      .cls-1, .cls-2 {
        stroke: #111114;
        stroke-linecap: round;
        stroke-linejoin: round;
        stroke-width: 1.2px;
      }

      .cls-3 {
        fill: #ff6a37;
      }

      .cls-3, .cls-4 {
        stroke-width: 0px;
      }

      .cls-4 {
        fill: #111114;
      }

      .cls-2 {
        fill: #00b2ff;
      }
    </style>
  </defs>
  <path class="cls-3" d="M52.23,27.96c-2.37-4.74.25-2-1.25-7.36-1.5-5.37-10.05-3.08-10.05-3.08l-.08.08h0c1.76-1.37,3.24-2.81,4.14-4.12,2.5-3.62-.37-7.49-9.24-9.99-3.04-.86-4.95.79-6.14,3.33l.06-.13s-4.9-11.02-13.02-3.42c0,0,.12,3.63-1.5,3.42s-10.23-.21-7.11,6.41c1.25,2.65,1.5,4.06,2.21,5.11,0,0-7.95-1.23-7.83,5.26,0,0-4.12,5.24,0,8.86,2.34,2.05,6.22,2.86,10.16,1.78h0s-4.91,4.59-2.29,9.95c0,0,2.12,3.62,5.49,1.62,0,0-.37,8.24,7.86,3.49,0,0,1.42-.67,2.63-3.42,0,0,2.99,9.41,11.47,3.17,0,0,12.34-1.65,4.87-14.34l-.08.05v-.1c.6.32,1.17.59,1.7.77,4.24,1.5,10.36-2.62,7.99-7.36ZM29.49,7.12h-.02s.13-.27.13-.27c-.04.09-.07.18-.11.27Z"/>
  <g>
    <path class="cls-2" d="M25.02,19.72s-2,1.12-1.5,2.87c.5,1.75-2-.75-2,.87s-2,4.62,1.75,5.99c3.74,1.37,5.74.5,6.24,0s2.87-3.49,1.75-5.24-1.37-4.37-6.24-4.49Z"/>
    <path class="cls-1" d="M27.67,20.15c-.03-.43-.78-19.15,8.09-16.65,8.86,2.5,11.73,6.37,9.24,9.99s-9.49,8.3-14.42,9.46"/>
    <path class="cls-1" d="M40.94,17.52s8.55-2.29,10.05,3.08c1.5,5.37-1.12,2.62,1.25,7.36s-3.74,8.86-7.99,7.36-10.85-7.92-13.41-7.7"/>
    <path class="cls-1" d="M29.68,6.69s-4.9-11.02-13.02-3.43c0,0,.12,3.63-1.5,3.43s-10.23-.21-7.11,6.41c3.12,6.62,0,5.5,13.48,10.36"/>
    <path class="cls-1" d="M10.26,18.21s-7.95-1.23-7.83,5.26c0,0-4.12,5.24,0,8.86,4.12,3.62,13.04,3.37,18.57-4.24"/>
    <path class="cls-1" d="M12.59,34.11s-4.91,4.58-2.29,9.95c0,0,2.12,3.62,5.49,1.62,0,0-.37,8.24,7.86,3.49,0,0,5.62-2.65,3.99-18.98"/>
    <path class="cls-1" d="M26.28,45.76s2.99,9.41,11.47,3.17c0,0,12.34-1.65,4.87-14.34"/>
  </g>
  <g>
    <path class="cls-4" d="M23.79,20.42c-1.85-2.63-3.57-5.11-5.38-7.77,2.6,1.87,4.54,4.68,5.38,7.77h0Z"/>
    <path class="cls-4" d="M24.84,19.23c-.24-3.57-.4-6.98-.47-10.56,1.17,3.37,1.33,7.1.47,10.56h0Z"/>
    <path class="cls-4" d="M20.6,25.19c-4.36.92-9.07.44-13.15-1.36,4.41.73,8.68,1.17,13.15,1.36h0Z"/>
    <path class="cls-4" d="M21.23,27.06c-4.29,2.59-9.58,3.49-14.5,2.67-.1,0-.18-.09-.16-.19.01-.09.09-.14.18-.14.57.06,1.14.11,1.71.19-.57.07-1.14.09-1.71.14l.02-.33c4.95.13,9.8-.73,14.47-2.34h0Z"/>
    <path class="cls-4" d="M24.57,30.96c-1.37,1.88-2.58,3.53-3.96,5.4.33-2.29,1.88-4.4,3.96-5.4h0Z"/>
    <path class="cls-4" d="M25.85,30.79c.48,4.37-.86,9-3.6,12.44,1.77-4.03,2.95-8.08,3.6-12.44h0Z"/>
    <path class="cls-4" d="M30.93,29.31c4.62,2.21,8.52,6,10.86,10.55-3.24-3.91-6.85-7.43-10.86-10.55h0Z"/>
    <path class="cls-4" d="M29.58,21.03c1.43-4.19,2.64-8.27,3.75-12.56.01,4.41-1.32,8.87-3.75,12.56h0Z"/>
    <path class="cls-4" d="M30.82,21.87c2.34-3.45,5.34-6.42,8.81-8.72-2.75,3.14-5.65,6-8.81,8.72h0Z"/>
    <path class="cls-4" d="M32.16,24.38c4.53-.27,8.73-1.44,12.75-3.55-3.35,3.05-8.31,4.43-12.75,3.55h0Z"/>
    <path class="cls-4" d="M31.97,25.9c4.42-1.41,9.75-.13,13.03,3.15-4.01-2.34-8.4-3.4-13.03-3.15h0Z"/>
    <path class="cls-4" d="M23.17,22.03c-3.23-2.77-6.39-5.37-9.73-8,3.9,1.67,7.34,4.5,9.73,8h0Z"/>
    <path class="cls-4" d="M29.13,30c2.38,4.15,3.35,9.19,2.66,13.93-.44-4.78-1.3-9.32-2.66-13.93h0Z"/>
    <path class="cls-4" d="M30.33,29.83c4.7,2.66,7.6,8.33,7.01,13.7-.57-5.26-3.07-10.17-7.01-13.7h0Z"/>
    <path class="cls-4" d="M22.78,29.58c-1.36,3.17-3.48,6-6.15,8.18,1.85-2.92,3.86-5.59,6.15-8.18h0Z"/>
  </g>
</svg>