<?xml version="1.0" encoding="UTF-8"?>
<svg id="_오른쪽_위" data-name="오른쪽_위" xmlns="http://www.w3.org/2000/svg" version="1.1" viewBox="0 0 198.2 39.39">
  <defs>
    <style>
      .cls-1 {
        fill: none;
        stroke: #111114;
        stroke-linecap: round;
        stroke-linejoin: round;
        stroke-width: 1.2px;
      }

      .cls-2 {
        fill: #ff6a37;
      }

      .cls-2, .cls-3 {
        stroke-width: 0px;
      }

      .cls-3 {
        fill: #111114;
      }
    </style>
  </defs>
  <path class="cls-2" d="M79.94,36.21c26.49-3.79,65.23-11.98,87.29-20.73,22.06-8.75,30.37-6.81,30.37-6.81L161.52.6s-18.17,14.88-28.16,16.61c-9.99,1.74-66.45,21.28-117.26,21.28s37.35,1.51,63.84-2.29Z"/>
  <path class="cls-3" d="M165.16,4.94c-.93,1.33-2.26,2.06-3.67,2.68-1.26.84-2.23,2.1-3.53,2.89-.86.54-1.75,1.02-2.77,1.33-.05.02-.09-.04-.06-.08,1.56-2.16,3.99-3.07,6.16-4.4,1.08-1.11,2.23-2.09,3.8-2.5.05-.01.09.04.06.08h0Z"/>
  <path class="cls-3" d="M173.32,8.54c-.76,1.02-1.82,1.38-2.95,1.63-1.01.49-1.79,1.43-2.84,1.86-.69.3-1.41.54-2.22.59-.05,0-.08-.05-.05-.09,1.29-1.66,3.17-1.9,4.95-2.65.87-.77,1.79-1.42,3.05-1.43.05,0,.08.05.05.09h0Z"/>
  <path class="cls-3" d="M153.55,16.78c-1.38,1.01-2.94,1.31-4.56,1.5-2.51.87-5.01,2.43-7.74,2.16,2.23-1.69,5.04-1.81,7.65-2.47,1.45-.75,2.92-1.36,4.63-1.28.05,0,.07.07.03.1h0Z"/>
  <path class="cls-3" d="M131.38,21.27c-.94.78-2,.85-3.11.79-1.05.21-1.99.9-3.05,1.04-.71.11-1.43.15-2.19-.02-.04,0-.06-.07-.02-.1,1.63-1.28,3.34-.99,5.2-1.25.99-.51,1.98-.9,3.16-.57.04,0,.06.07.02.1h0Z"/>
  <path class="cls-3" d="M110.76,27.82c-1.6.88-3.31,1.05-5.07,1.08-2.8.64-5.65,1.97-8.55,1.46,2.6-1.49,5.62-1.35,8.49-1.77,1.64-.61,3.3-1.09,5.11-.86.05,0,.07.08.02.1h0Z"/>
  <path class="cls-1" d="M161.52.6s-18.17,14.88-28.16,16.61c-9.99,1.74-66.45,21.28-117.26,21.28s37.35,1.51,63.84-2.29c26.49-3.79,65.23-11.98,87.29-20.73s30.37-6.81,30.37-6.81"/>
</svg>