<?xml version="1.0" encoding="UTF-8"?>
<svg id="_오른쪽_위" data-name="오른쪽_위" xmlns="http://www.w3.org/2000/svg" version="1.1" viewBox="0 0 113.34 209.2">
  <defs>
    <style>
      .cls-1, .cls-2, .cls-3, .cls-4, .cls-5, .cls-6 {
        stroke: #111114;
        stroke-linecap: round;
        stroke-linejoin: round;
      }

      .cls-1, .cls-2, .cls-3, .cls-4, .cls-6 {
        stroke-width: 1.2px;
      }

      .cls-1, .cls-7 {
        fill: #111114;
      }

      .cls-2 {
        fill: #ff97b5;
      }

      .cls-8 {
        fill: #ffec2d;
      }

      .cls-8, .cls-7 {
        stroke-width: 0px;
      }

      .cls-3, .cls-5 {
        fill: #00d675;
      }

      .cls-4 {
        fill: none;
      }

      .cls-5 {
        stroke-width: 1.17px;
      }

      .cls-6 {
        fill: #00b2ff;
      }
    </style>
  </defs>
  <g>
    <g>
      <path class="cls-3" d="M60.29,196.23c1.14-7.88-.05-23.91-.23-23.86.24-6.76-.74-29.47-23.28-40.9-26.67-13.53-36.18-2.91-36.18-2.91,10.89,38.8,53.46,47.44,56.4,47.99.09,1.1.54,2.23.74,3.28.79,4.2,1.01,8.51.66,12.77-.16,1.91-.43,3.9.25,5.69.68,1.79,2.71,3.25,4.49,2.54-.56-1.74-1.54-3.34-2.85-4.61Z"/>
      <g>
        <path class="cls-7" d="M57.89,175.86c-8.81-23.31-36.54-28.12-52.42-44.91,17.54,14.46,46.12,20.19,52.42,44.91h0Z"/>
        <path class="cls-7" d="M53.85,166.71c-.68-3.97-.83-7.97-.41-11.97.69,3.97.82,7.97.41,11.97h0Z"/>
        <path class="cls-7" d="M46.58,158.4c-1.52-4.82-1.91-10-1.2-15.01.34,4.27.82,10.69,1.2,15.01h0Z"/>
        <path class="cls-7" d="M39.75,153.5c-.87-4.57-1.19-9.19-.96-13.84.87,4.57,1.19,9.19.96,13.84h0Z"/>
        <path class="cls-7" d="M33.62,148.88c-.74-4.84-.93-9.7-.57-14.58.74,4.84.93,9.7.57,14.58h0Z"/>
        <path class="cls-7" d="M25.9,144.21c-.55-4.06-.55-8.12,0-12.18.55,4.06.55,8.12,0,12.18h0Z"/>
        <path class="cls-7" d="M19.08,140.17c-.25-3.44-.24-6.76.05-10.2.82,3.34.8,6.87-.05,10.2h0Z"/>
        <path class="cls-7" d="M12.9,136.49c-.55-2.93-.55-5.87,0-8.79.55,2.93.55,5.87,0,8.79h0Z"/>
        <path class="cls-7" d="M11.56,136.18c-1.03,1.19-2.49,1.86-4.06,1.85,1.2-1.03,2.5-1.62,4.06-1.85h0Z"/>
        <path class="cls-7" d="M15.57,138.75c-1.56,1.07-3.31,1.62-5.2,1.64,1.56-1.07,3.31-1.62,5.2-1.64h0Z"/>
        <path class="cls-7" d="M20.42,141.99c-3.14,1.08-6.39,1.63-9.71,1.62,3.14-1.08,6.39-1.62,9.71-1.62h0Z"/>
        <path class="cls-7" d="M25.22,145.09c-3.39,1.4-6.84,2.41-10.46,3.03,3.27-1.67,6.81-2.69,10.46-3.03h0Z"/>
        <path class="cls-7" d="M30.06,147.99c-3.58,2.12-7.5,3.6-11.59,4.34,3.76-1.79,7.58-3.22,11.59-4.34h0Z"/>
        <path class="cls-7" d="M37.34,152.04c-4.03,2.2-8.39,3.75-12.91,4.57,4.2-1.88,8.47-3.39,12.91-4.57h0Z"/>
        <path class="cls-7" d="M43.33,156.79c-4.15,1.99-8.59,3.3-13.14,3.95,0,0-.02-.14-.02-.14l.54.05-.54.09s-.07-.02-.08-.06c4.22-1.7,8.75-2.87,13.23-3.9h0Z"/>
        <path class="cls-7" d="M48.66,162c-4.63,1.47-9.41,2.42-14.25,2.82,4.65-1.48,9.39-2.41,14.25-2.82h0Z"/>
        <path class="cls-7" d="M53.86,168.71c-3.27.62-6.56.7-9.85.22,3.27-.63,6.56-.7,9.85-.22h0Z"/>
      </g>
    </g>
    <path class="cls-5" d="M67.38,203.88c3.01-24.16-1.85-120.47-1.67-121.68l-5.79,2.05s3.81,114.25,2.01,124.37l5.44-4.74Z"/>
    <g>
      <path class="cls-5" d="M62.16,144.3s-3.4-14.69-16.01-20.33c-12.61-5.64-20.15-1.1-24.98-33.05-.62-4.13,1.94-13.59-1.54-16.52-3.48-2.92,17.39,3.95,25.04,12.34,7.65,8.39,12.65,17.61,12.52,32.09,0,0-1.1,4.69-.56,8.35.54,3.65,5.33,9.68,5.33,9.68l.2,7.44Z"/>
      <g>
        <path class="cls-7" d="M53.46,125.89c-2.35-6.42-5.94-12.27-10.59-17.24-3.1-3.33-6.51-6.57-8.58-10.71-3.15-6.04-3.97-13.27-8.81-18.33,1.73,1.49,3.07,3.41,4.17,5.42,2.1,4.04,3.36,8.48,5.45,12.49,3.23,6.05,9,10.12,12.69,15.94,2.54,3.83,4.49,8.03,5.68,12.43h0Z"/>
        <path class="cls-7" d="M23.47,85.17c2.37.14,4.67.63,6.95,1.22,0,0-.61.44-.61.44.16-1.67.34-3.97.57-5.62.45,1.87.53,3.79.41,5.7-.02.27-.25.47-.52.45-2.33-.53-4.61-1.2-6.8-2.18h0Z"/>
        <path class="cls-7" d="M24.45,91.42c2.21.18,4.38.52,6.56.93.73.15,1.32.21,1.65-.15.38-.36.59-1.06.83-1.76.72-2.02,1.57-4.2,2.48-6.14,0,0,.1.04.1.04l-.23.35.13-.4c.02-.07.13-.03.1.04-.42,2.09-1.05,4.36-1.67,6.4-.26,1.01-.9,2.78-2.38,2.7-2.61-.34-5.06-1.21-7.56-2.02h0Z"/>
        <path class="cls-7" d="M25.37,99.3c3.76-.12,7.51.07,11.25.32l-.49.3c1.51-3.42,2.8-6.91,4.11-10.45-.54,3.74-1.69,7.38-3.19,10.85-.09.2-.29.31-.49.3-3.74-.29-7.46-.65-11.17-1.32,0,0,3.71.67,0,0Z"/>
        <path class="cls-7" d="M26.48,106.22c5.27-.62,10.64-.33,15.85.65,0,0-.55.31-.55.31.77-2.02,1.46-4.05,2.16-6.1.67-2.05,1.29-4.12,1.92-6.21-.27,2.16-.69,4.3-1.23,6.41-.51,2.12-1.18,4.2-1.92,6.24-.08.23-.31.35-.54.31-5.18-.93-10.41-1.4-15.68-1.62h0Z"/>
        <path class="cls-7" d="M30.7,112.85c5.49-.57,11.04-.37,16.51.36,0,0-.52.34-.52.34.85-2.69,1.83-5.64,2.79-8.27.34-.91.67-1.82,1.04-2.72-.19.95-.43,1.9-.64,2.84-.66,2.72-1.48,5.73-2.26,8.43-.07.23-.29.37-.52.34-5.45-.64-10.9-1.01-16.39-1.32h0Z"/>
        <path class="cls-7" d="M40.88,118.1c3.27-.58,6.69-.22,9.87.79l-.54.18c1.62-2.15,3.1-4.39,4.61-6.68-.87,2.6-2.21,5.03-3.82,7.26-.12.17-.34.24-.53.18-3.09-.95-6.29-1.45-9.59-1.73h0Z"/>
      </g>
    </g>
    <g>
      <path class="cls-5" d="M68.43,153.76s3.4-14.69,16.01-20.33c12.61-5.64,20.15-1.1,24.98-33.05.62-4.13-1.94-13.59,1.54-16.52,3.48-2.92-17.39,3.95-25.04,12.34-7.65,8.39-12.65,17.61-12.52,32.09,0,0,1.1,4.69.56,8.35s-5.33,9.68-5.33,9.68l-.2,7.44Z"/>
      <g>
        <path class="cls-7" d="M77.13,135.35c1.19-4.4,3.14-8.61,5.68-12.43,3.69-5.82,9.46-9.88,12.69-15.94,2.1-4.01,3.35-8.45,5.45-12.49,1.1-2.01,2.44-3.93,4.17-5.42-4.85,5.06-5.67,12.29-8.81,18.33-2.07,4.15-5.48,7.38-8.58,10.71-4.65,4.97-8.24,10.82-10.59,17.24h0Z"/>
        <path class="cls-7" d="M107.12,94.63c-2.16.98-4.43,1.63-6.73,2.17-.29.07-.57-.15-.59-.44-.13-1.91-.04-3.84.41-5.7.23,1.64.41,3.96.57,5.62,0,0-.61-.44-.61-.44,2.28-.59,4.58-1.08,6.95-1.22h0Z"/>
        <path class="cls-7" d="M106.13,100.88c-2.5.81-4.95,1.69-7.56,2.02-1.48.08-2.12-1.68-2.38-2.7-.62-2.05-1.25-4.31-1.67-6.4-.03-.07.08-.12.1-.04,0,0,.13.4.13.4l-.23-.35.1-.04c.91,1.93,1.76,4.12,2.48,6.14.24.7.45,1.4.83,1.76.33.37.92.3,1.65.15,2.17-.41,4.35-.75,6.56-.93h0Z"/>
        <path class="cls-7" d="M105.21,108.75c-3.71.67-7.44,1.03-11.17,1.32-.22.02-.41-.11-.49-.3-1.5-3.47-2.65-7.11-3.19-10.85,1.31,3.54,2.6,7.04,4.11,10.45l-.49-.3c3.74-.26,7.48-.44,11.25-.32,0,0-3.76-.12,0,0Z"/>
        <path class="cls-7" d="M104.11,115.68c-5.27.22-10.49.69-15.68,1.62-.24.04-.46-.09-.54-.31-1.5-4.09-2.6-8.33-3.16-12.65.63,2.08,1.25,4.15,1.92,6.21.69,2.05,1.39,4.08,2.16,6.1l-.55-.31c5.21-.98,10.58-1.27,15.85-.65h0Z"/>
        <path class="cls-7" d="M99.89,122.3c-5.49.31-10.94.68-16.39,1.32-.24.03-.46-.12-.52-.34-.78-2.71-1.6-5.7-2.26-8.43-.22-.95-.45-1.89-.64-2.84.37.9.7,1.82,1.04,2.72.96,2.63,1.94,5.58,2.79,8.27,0,0-.52-.34-.52-.34,5.46-.73,11.02-.93,16.51-.36h0Z"/>
        <path class="cls-7" d="M89.71,127.56c-3.3.28-6.49.79-9.59,1.73-.2.06-.42-.02-.53-.18-1.61-2.23-2.95-4.66-3.82-7.26,1.51,2.29,2.99,4.53,4.61,6.68l-.54-.18c3.18-1.02,6.6-1.37,9.87-.79h0Z"/>
      </g>
    </g>
  </g>
  <g>
    <path class="cls-8" d="M99.02,41.52l-.25.21-.04-.02c7.45-4.99,8.39-10.8,4.27-16.34-6.33-8.51-20.07,2.41-21.62,3.69l-.05-.08c4.91-9.73,6.2-21.27-3.35-23.05-5.45-1.02-9.11,3.04-11.56,8.59h-.07c.02-1.66-.12-15.87-10.58-13.91-6.71,1.26-9.82,7.14-8.94,16.34l-.14.12h0s-8.75-15.07-17.08-6.27c-4.6,4.86-2.39,11.81,2.15,18.51-.01.01-.03.02-.04.03-1.46-1.39-11.85-10.44-19.51,5.42-5.22,10.8,7.2,14.51,17.05,15.78-3.37-.38-22.24-2.02-21.23,10.69,1.04,13.17,22.47,8.72,31.81,2.68l.41.54c-5.96,2.8-31.01,15.49-21.48,26.42,14.35,16.46,28.43-14,30.42-18.56.24.11.49.22.75.32-1.42,2.73-13.43,26.84,2.78,33.67,14.66,6.18,12.58-21.79,11.65-30.16l.16.08c1.65,8.05,8.07,33.02,22.46,20,0,0,8.21-7.71-1.74-17.99l.02-.03c14,10.85,21.61,1.88,22.37-4.02.88-6.83-10.94-12.35-12.19-12.91l.03-.05c13.61.1,15.4-4.12,15.4-4.12,7.87-16.21-11.86-15.57-11.86-15.57ZM29.78,50.59s.04,0,.06,0l.29.39-.35-.4Z"/>
    <path class="cls-6" d="M58.42,37.6s13.44.36,17.1,9.29c3.67,8.93,3.53,17.15-2.3,22.87-5.83,5.72-20.84,6.07-26.2,0-5.36-6.07-10.36-8.22-7.15-18.58,3.22-10.36,18.54-13.58,18.54-13.58Z"/>
    <path class="cls-2" d="M58.43,43.26s9.27.25,11.8,6.41c2.53,6.17,2.44,11.84-1.58,15.78s-14.38,4.19-18.08,0-7.15-5.67-4.93-12.82c2.22-7.15,12.79-9.37,12.79-9.37Z"/>
    <path class="cls-1" d="M58.43,48.46s5.46.15,6.95,3.77c1.49,3.63,1.43,6.97-.93,9.29s-8.46,2.47-10.64,0-4.21-3.34-2.9-7.55c1.31-4.21,7.53-5.52,7.53-5.52Z"/>
    <g>
      <path class="cls-4" d="M61.6,37.94s1.57-34.8,16.4-32.02c14.83,2.78,3.54,29.05-6.91,35.59"/>
      <path class="cls-4" d="M81.24,29.19s15.06-12.84,21.77-3.81,0,18.75-26.39,24.54"/>
      <path class="cls-4" d="M99.02,41.52s19.73-.64,11.86,15.57c0,0-3.14,7.45-32.94,2.34"/>
      <path class="cls-4" d="M95.34,61.22s13.23,5.75,12.3,12.97c-.93,7.21-12.1,19.04-32.67-6.44"/>
      <path class="cls-4" d="M64.84,18.83c.41-2.49,5.27-18.23-9.05-18.23-11.31,0-12.37,16.82-1.95,38.4"/>
      <path class="cls-4" d="M46.71,17.04s-8.75-15.05-17.08-6.26c-8.33,8.8,5.66,24.49,15.45,33.08"/>
      <path class="cls-4" d="M31.91,29.51s-11.43-11.86-19.69,5.24c-8.26,17.1,27.66,16.42,27.66,16.42"/>
      <path class="cls-4" d="M29.78,50.59c-.77-.09-22.82-3.08-21.74,10.63,1.09,13.71,24.27,8.33,32.9,1.92"/>
      <path class="cls-4" d="M50.08,72.35s-14.55,26.69,2.64,33.93c17.19,7.25,11.37-32.46,11.37-32.46,0,0,5.87,37.8,22.91,22.39,0,0,8.28-7.78-1.87-18.12"/>
      <path class="cls-4" d="M41.51,63.87s-33.5,14.62-22.72,26.99c15.49,17.76,30.66-19.13,30.66-19.13"/>
    </g>
    <g>
      <path class="cls-7" d="M64.27,38.44c-.43-6.57,1.43-13.33,5.16-18.76-2.74,5.94-4.48,12.25-5.16,18.76h0Z"/>
      <path class="cls-7" d="M66.49,38.86c-.06-3.24.79-6.48,2.43-9.27-.61,3.19-1.4,6.19-2.43,9.27h0Z"/>
      <path class="cls-7" d="M68.92,39.73c1.63-4.67,3.16-9.8,4.36-14.6-.15,5.12-1.68,10.23-4.36,14.6h0Z"/>
      <path class="cls-7" d="M70.26,40.83c4.79-8.11,7.24-17.46,7.03-26.87,1.32,9.38-1.29,19.34-7.03,26.87h0Z"/>
      <path class="cls-7" d="M73.87,43.26c3.66-3.69,6.9-7.69,9.75-12.03-1.88,4.88-5.37,9.18-9.75,12.03h0Z"/>
      <path class="cls-7" d="M74.96,45.37c4.06-5.07,9.31-9.24,15.17-12.04-5.29,3.74-10.33,7.73-15.17,12.04h0Z"/>
      <path class="cls-7" d="M75.88,47.06c1.68-2.23,3.95-3.97,6.55-5-2,1.96-4.13,3.58-6.55,5h0Z"/>
      <path class="cls-7" d="M75.75,48.46c8.3-3.47,15.92-8.32,22.59-14.36-5.9,6.83-13.91,11.91-22.59,14.36h0Z"/>
      <path class="cls-7" d="M77.68,51.64c5.84,0,11.59-1.03,17.07-3.04-5.04,3.04-11.29,4.15-17.07,3.04h0Z"/>
      <path class="cls-7" d="M78.07,54.41c3.51-.76,7.07-.97,10.65-.64-3.51.76-7.07.97-10.65.64h0Z"/>
      <path class="cls-7" d="M78.45,56.29c6.88,0,14.32-.32,21.17-.89-6.9,1.68-14.16,1.98-21.17.89h0Z"/>
      <path class="cls-7" d="M77.47,65.37c3.85,3.45,7.97,6.5,12.38,9.19-4.92-1.7-9.33-4.98-12.38-9.19h0Z"/>
      <path class="cls-7" d="M77.94,61.43c3.14,2.13,5.92,4.67,8.31,7.61-3.14-2.13-5.91-4.67-8.31-7.61h0Z"/>
      <path class="cls-7" d="M79.2,60.59c6.46,2.22,12.11,6.93,15.44,12.9-4.24-5.3-9.47-9.68-15.44-12.9h0Z"/>
      <path class="cls-7" d="M83.95,60.85c6.17,1.39,11.76,5.53,14.86,11.05-4-4.82-9.09-8.61-14.86-11.05h0Z"/>
      <path class="cls-7" d="M66.56,74c2.39,4.96,5.2,9.65,8.47,14.08-4.11-3.72-7.1-8.72-8.47-14.08h0Z"/>
      <path class="cls-7" d="M69,73.01c1.29,2.05,2.46,3.85,3.81,5.87-2.11-1.18-3.59-3.47-3.81-5.87h0Z"/>
      <path class="cls-7" d="M70.74,71.97c2.5,2.85,4.36,6.23,5.42,9.87-2.07-3.18-3.84-6.42-5.42-9.87h0Z"/>
      <path class="cls-7" d="M73.47,70.4c4.25,5.19,7.18,11.52,8.38,18.13-2.26-6.29-5.04-12.34-8.38-18.13h0Z"/>
      <path class="cls-7" d="M56.37,37.7c-4.64-5.62-6.8-13.32-5.76-20.54.1,7.23,2.08,14.32,5.76,20.54h0Z"/>
      <path class="cls-7" d="M53.49,20.5c.82,5.61,2.22,11.13,4.28,16.41,0,0-.72.12-.72.12.06-4.1.45-8.18.65-12.25.25-4.07.35-8.15.05-12.23.68,4.04.74,8.17.63,12.26l-.58,12.25h0c0,.4-.6.49-.72.12-2.02-5.34-3.27-10.97-3.59-16.67h0Z"/>
      <path class="cls-7" d="M59.31,37.57c-.31-6.89-.08-13.81.71-20.66.31,6.89.07,13.81-.71,20.66h0Z"/>
      <path class="cls-7" d="M50.72,39.62c-2.43-6.8-5.44-14.85-8.06-21.57,3.79,6.71,6.51,14.03,8.06,21.57h0Z"/>
      <path class="cls-7" d="M49.74,41.28c-2.12-4.59-4.5-9.56-6.73-14.09,3.25,4.11,5.57,8.98,6.73,14.09h0Z"/>
      <path class="cls-7" d="M47.3,41.14c-1.87-3.01-3.44-6.07-4.79-9.35,2.29,2.7,3.93,5.92,4.79,9.35h0Z"/>
      <path class="cls-7" d="M46.87,42.7c-5.45-6.11-9.13-13.86-10.38-21.95,2.33,7.81,5.82,15.2,10.38,21.95h0Z"/>
      <path class="cls-7" d="M42.88,45c-4.33-2.59-8.37-5.64-12.04-9.1,4.33,2.59,8.37,5.64,12.04,9.1h0Z"/>
      <path class="cls-7" d="M41.59,46.71c-3.17-1.51-6.05-3.48-8.6-5.9,3.18,1.51,6.05,3.48,8.6,5.9h0Z"/>
      <path class="cls-7" d="M40.72,48.73c-6.13-1.84-11.74-5.55-15.82-10.48,4.85,4.13,10.13,7.63,15.82,10.48h0Z"/>
      <path class="cls-7" d="M39.84,49.95c-7.15-1.96-13.97-5.24-19.97-9.61,6.37,3.33,13.39,6.71,19.97,9.61h0Z"/>
      <path class="cls-7" d="M38.54,53c-4.83.58-9.67.62-14.5.1,4.83-.59,9.67-.62,14.5-.1h0Z"/>
      <path class="cls-7" d="M38.15,55.27c-4.05.34-8.01.4-12.06.15,3.96-.86,8.08-.9,12.06-.15h0Z"/>
      <path class="cls-7" d="M38.28,57.47c-6.67.51-13.98.92-20.66,1.16,6.79-1.34,13.77-1.72,20.66-1.16h0Z"/>
      <path class="cls-7" d="M38.66,59.1c-4.16,1.43-8.55,2.14-12.96,2.07,4.29-1.03,8.56-1.71,12.96-2.07h0Z"/>
      <path class="cls-7" d="M39.69,61.31c-4.08,1.57-8.46,2.32-12.83,2.17,4.27-.96,8.49-1.67,12.83-2.17h0Z"/>
      <path class="cls-7" d="M42.66,66.34c-4.67,2.45-9.12,5.18-13.43,8.23,3.6-3.9,8.33-6.79,13.43-8.23h0Z"/>
      <path class="cls-7" d="M52.25,73.1c-2.04,5.1-3.45,10.36-4.23,15.8-.32-5.52,1.2-11.18,4.23-15.8h0Z"/>
      <path class="cls-7" d="M43.52,67.18c-2.54,2.4-5.27,4.46-8.29,6.22,2.32-2.62,5.14-4.73,8.29-6.22h0Z"/>
      <path class="cls-7" d="M53.93,74.26c-.69,2.33-1.41,4.41-2.3,6.68-.22-2.41.65-4.91,2.3-6.68h0Z"/>
      <path class="cls-7" d="M44.54,68.72c-3.66,4.51-7.95,8.5-12.72,11.81,4.05-4.14,8.29-8.07,12.72-11.81h0Z"/>
      <path class="cls-7" d="M56.02,74.41c-1.21,5.54-2.42,11.61-3.42,17.18-.06-5.88,1.12-11.78,3.42-17.18h0Z"/>
      <path class="cls-7" d="M46.57,69.87c-1.87,3.22-4.51,5.99-7.64,8.01,2.41-2.86,4.9-5.47,7.64-8.01h0Z"/>
      <path class="cls-7" d="M58.14,75.15c0,3.95-.32,7.81-.9,11.71,0,0-.14-.06-.14-.06.45-.38.47-.35.11.11-.03.03-.07.04-.11.01-.4-3.93,0-7.95,1.03-11.77h0Z"/>
      <path class="cls-7" d="M60.33,74.53c.64,7.98-.53,16.15-3.4,23.63,1.8-7.78,2.94-15.66,3.4-23.63h0Z"/>
      <path class="cls-7" d="M47.32,71.35c-2.27,5.21-6.24,9.72-11.12,12.63,4.19-3.78,7.9-7.99,11.12-12.63h0Z"/>
      <path class="cls-7" d="M64.1,50.38c-.56-1.66.78-3.72,2.52-3.87-1.17,1.25-1.86,2.29-2.52,3.87h0Z"/>
      <path class="cls-7" d="M65.62,52.72c1.1-1.5,3.62-1.76,5-.51-1.83-.12-3.23.02-5,.51h0Z"/>
      <path class="cls-7" d="M66.35,56.1c1.58-.86,4.3-.84,5.05,1.11-1.63-1.07-3.2-.79-5.05-1.11h0Z"/>
      <path class="cls-7" d="M66.11,58.8c1.89.08,3.67,1.67,3.94,3.55-1.32-1.36-2.44-2.38-3.94-3.55h0Z"/>
      <path class="cls-7" d="M64.41,61.84c1.38,1.19,2.09,3.07,1.85,4.88-.86-1.62-1.42-3.09-1.85-4.88h0Z"/>
      <path class="cls-7" d="M60.92,63.15c.53,1.57.51,3.15-.06,4.7-.53-1.57-.51-3.15.06-4.7h0Z"/>
      <path class="cls-7" d="M56.09,62.93c.02,1.69-.25,3.14-.89,4.71-.47-1.62-.14-3.37.89-4.71h0Z"/>
      <path class="cls-7" d="M51.25,60.05c-.42,1.37-1.14,2.4-2.29,3.25.2-1.41,1.03-2.58,2.29-3.25h0Z"/>
      <path class="cls-7" d="M50.49,57.47c-1.73.2-3.11.32-4.86.38,1.31-1.13,3.38-1.29,4.86-.38h0Z"/>
      <path class="cls-7" d="M51.54,51.99c-1.37-.73-2.51-1.24-3.99-1.65,0,0,.02-.31.02-.31.53.2.52.23-.04.31-.18.04-.24-.25-.06-.29,1.56-.42,3.45.42,4.07,1.94h0Z"/>
      <path class="cls-7" d="M53.85,49.95c-.7-1.32-1.16-2.31-1.69-3.71,1.37.6,2.13,2.29,1.69,3.71h0Z"/>
      <path class="cls-7" d="M58.14,48.13c-.28-1.36-.36-2.34-.29-3.72.99.95,1.12,2.63.29,3.72h0Z"/>
    </g>
  </g>
</svg>