<?xml version="1.0" encoding="UTF-8"?>
<svg id="_오른쪽_위" data-name="오른쪽_위" xmlns="http://www.w3.org/2000/svg" version="1.1" viewBox="0 0 85.08 142.52">
  <defs>
    <style>
      .cls-1 {
        fill: #d793ff;
      }

      .cls-1, .cls-2 {
        stroke-width: 0px;
      }

      .cls-3, .cls-4, .cls-5, .cls-6 {
        stroke: #111114;
        stroke-linecap: round;
        stroke-linejoin: round;
      }

      .cls-3, .cls-5 {
        fill: none;
      }

      .cls-4 {
        fill: #00d675;
      }

      .cls-4, .cls-5, .cls-6 {
        stroke-width: 1.2px;
      }

      .cls-2 {
        fill: #111114;
      }

      .cls-6 {
        fill: #ffec2d;
      }
    </style>
  </defs>
  <g>
    <g>
      <path class="cls-4" d="M44.07,138.21s2.54-13.95-9.01-19.76c0,0-21.67-1.76-27.37-11.53-5.7-9.78-2.85-16.42-6.17-17.53,0,0,18.19-5.94,32.59,11.03s11.98,33.7,11.98,33.7l-2.02,4.09Z"/>
      <path class="cls-3" d="M7.21,92.55s24.71,8.49,34.65,27.66c0,0,4.46,10.09,3.57,15.34"/>
    </g>
    <path class="cls-4" d="M43.1,70s13.95,46.41-1.24,71.92h9.33s3.33-56.33-1.58-70.86l-6.52-1.06Z"/>
  </g>
  <g>
    <path class="cls-1" d="M79.82,46.29l-.14-.3c4.86-1.48,5.76-8.95,3.91-9.94-2.07-1.12-1.52-3.19-1.18-4.47.33-1.28,0-2.37,0-2.37-3.47-8.51-13.47-3.58-14.81-2.87l-.08-.03c4.99-5.46,6.82-10.7,5.42-13.84-2.37-5.33-6.43-1.18-6.76-2.71-.34-1.52-3.29-3.38-3.29-3.38-7.63-3.7-12.72,4.68-15.72,12.7l-.08-.02c.25-2.3,3.52-18.43-6.88-18.23,0,0-5.5-1.49-6.26,3.09-.77,4.58-1.4-4.15-5.45-1.7s-16.51,5.54-5.01,21.41c0,0,3.26,4.64,6.07,7.7l-.47.73c-4.56-4.82-14.7-14.4-20.1-10.62-7.1,4.97-6,8.89-6,8.89,0,0,1.59,2.08,1.22,2.57s-3.8-.24-3.55,6c.23,5.9-3.4,12.56,22.91,9.97,0,.07,0,.15-.01.22l-.38-.18s-18.35,2.96-16.15,17.17c0,0,.37,8.2,6.49,5.39,0,0,1.84.12.73,3.55-1.1,3.43,5.27,6.98,10.04,3.55,3.5-2.51,8.28-8.3,11.3-15.06l1.03-.23-1.13.45s-11.91,27.7,12.25,22.8c0,0,1.39-2.08,1.51-3.31.12-1.22.73-.86,2.33,1.1,1.59,1.96,8.94-1.35,10.04-3.67.99-2.09,4.48-5.2-6.8-21.71l.29-.09c3.86,4.63,9.43,10.59,14.34,13.02,8.54,4.23,9.42-8.22,9.42-8.22,0,0-1.84-2.31.63-3.43s3.2-3.91,3.2-3.91c2.62-5.44-1.66-9.12-2.89-10.03Z"/>
    <path class="cls-6" d="M43.78,31.24s.99.6,4.18,2.19c3.18,1.59,4.38,2.19,4.57,3.98s1.79,3.18.99,7.36-1.99,6.96-3.18,7.95-5.37,3.78-6.56,3.98-10.94-1.99-10.94-1.99c0,0-2.78-.6-3.78-3.98s0-9.74,0-9.74c0,0-1.99-2.59,1.39-5.57,3.38-2.98,7.16-4.18,7.16-4.18h6.16Z"/>
    <g>
      <path class="cls-5" d="M43.78,31.24S49.35-.18,62.87,6.38c0,0,2.96,1.86,3.29,3.38.34,1.52,4.4-2.62,6.76,2.71s-4.44,16.64-20.4,24.93"/>
      <path class="cls-5" d="M67.43,26.42s11.25-6.34,14.97,2.79c0,0,.33,1.09,0,2.37s-.89,3.35,1.18,4.47c2.07,1.12.72,10.37-5.83,10.22-6.54-.16-22.61.59-24.23-1.5"/>
      <path class="cls-5" d="M47.06,19.32c-.15-.7,4.11-18.7-6.86-18.49,0,0-5.5-1.49-6.26,3.09-.77,4.58-1.4-4.15-5.45-1.7s-16.51,5.54-5.01,21.41c0,0,6.42,9.14,9.01,10.22"/>
      <path class="cls-5" d="M31.4,34.63s-15.32-18.16-22.42-13.19-6,8.89-6,8.89c0,0,1.59,2.08,1.22,2.57s-3.8-.24-3.55,6c.24,6.24-3.86,13.35,27.82,9.43"/>
      <path class="cls-5" d="M23.17,48.92s-18.35,2.96-16.15,17.17c0,0,.37,8.2,6.49,5.39,0,0,1.84.12.73,3.55-1.1,3.43,5.27,6.98,10.04,3.55s11.97-12.95,13.76-22.76"/>
      <path class="cls-5" d="M35.5,63.74s-11.91,27.7,12.25,22.8c0,0,1.39-2.08,1.51-3.31.12-1.22.73-.86,2.33,1.1,1.59,1.96,8.94-1.35,10.04-3.67s5.33-5.92-11.29-27.94c0,0,10.58,14.93,19.11,19.16s9.42-8.22,9.42-8.22c0,0-1.84-2.31.63-3.43,2.46-1.12,3.2-3.91,3.2-3.91,3.03-6.3-3.2-10.26-3.2-10.26"/>
    </g>
    <g>
      <path class="cls-2" d="M39.46,31.06c1.73-5.92,2.48-12.04,2.25-18.2,1.34,6.06.52,12.64-2.25,18.2h0Z"/>
      <path class="cls-2" d="M37.59,30.65c-1.66-5.73-2.79-11.6-3.37-17.53,1.66,5.72,2.79,11.6,3.37,17.53h0Z"/>
      <path class="cls-2" d="M35.1,32c-3.62-5.08-6-11.08-6.85-17.25,1.92,5.91,4.19,11.64,6.85,17.25h0Z"/>
      <path class="cls-2" d="M46.81,31.77c1.2-7.5,4.37-14.72,9.09-20.67-3.78,6.55-6.82,13.46-9.09,20.67h0Z"/>
      <path class="cls-2" d="M48.67,33.11c1.17-4.26,2.85-8.32,5.04-12.16-1.17,4.26-2.85,8.32-5.04,12.16h0Z"/>
      <path class="cls-2" d="M55.96,25.59c-1.02,3.23-2.76,6.22-4.96,8.79,0,0-.37-.55-.37-.55,7.05-2.66,14.04-7.62,16.16-15.21-1.32,7.99-8.71,13.36-15.93,15.85-.32.13-.62-.3-.37-.55,2.28-2.45,4.1-5.28,5.47-8.34h0Z"/>
      <path class="cls-2" d="M32.87,32.37c-4.49-5.05-7.13-11.79-7.27-18.55,1.24,6.59,3.69,12.87,7.27,18.55h0Z"/>
      <path class="cls-2" d="M53.52,39.11c4.56-1.93,8.86-4.05,13.26-6.31-3.77,3.18-8.4,5.45-13.26,6.31h0Z"/>
      <path class="cls-2" d="M54.48,41.34c4.32-1.33,8.89-1.82,13.4-1.43-4.47.71-8.87,1.18-13.4,1.43h0Z"/>
      <path class="cls-2" d="M54.23,43.19c7.99.3,15.95-.39,23.77-2.04-7.55,2.73-15.87,3.44-23.77,2.04h0Z"/>
      <path class="cls-2" d="M53.74,47.69c6.07,1.04,12.16,1.57,18.31,1.63-6.09,1.05-12.5.48-18.31-1.63h0Z"/>
      <path class="cls-2" d="M52.49,49.53c7.59,3.11,15.46,5.36,23.54,6.75-8.22-.29-16.41-2.64-23.54-6.75h0Z"/>
      <path class="cls-2" d="M52.02,51.51c7.31,2.5,13.94,7.14,18.79,13.16-5.64-5.23-11.94-9.65-18.79-13.16h0Z"/>
      <path class="cls-2" d="M40.58,56.77c-.13,4.15-.79,8.21-2.01,12.18.12-4.15.8-8.21,2.01-12.18h0Z"/>
      <path class="cls-2" d="M43.04,56.91c.51,7.26.48,14.56-.1,21.82-.52-7.26-.48-14.56.1-21.82h0Z"/>
      <path class="cls-2" d="M45.63,56.38c1.46,3.73,2.08,7.78,1.78,11.77-.81-3.93-1.39-7.78-1.78-11.77h0Z"/>
      <path class="cls-2" d="M47.89,55.19c3.74,4.88,5.8,11.09,5.69,17.24-1-6.02-2.91-11.81-5.69-17.24h0Z"/>
      <path class="cls-2" d="M28.77,36.05c-4.12-3.23-8.79-6.45-13.26-9.18,5.11,1.84,9.74,5.04,13.26,9.18h0Z"/>
      <path class="cls-2" d="M27.93,39.07c-4.07-.73-7.98-1.97-11.72-3.75,4.07.72,7.98,1.98,11.72,3.75h0Z"/>
      <path class="cls-2" d="M28.25,41.53c-4.53.28-9.04,0-13.51-.81,4.53-.28,9.04,0,13.51.81h0Z"/>
      <path class="cls-2" d="M28.26,45.78c-5-.57-15.07-1.62-20.08-2.1,6.74-.45,13.57.27,20.08,2.1h0Z"/>
      <path class="cls-2" d="M28.77,50.5c-4.02,1.32-7.54,3.32-10.75,6.08,2.33-3.53,6.52-5.89,10.75-6.08h0Z"/>
      <path class="cls-2" d="M29.2,52.64c-4.76,3.54-10.08,7.69-14.69,11.43,4.08-4.72,9.12-8.63,14.69-11.43h0Z"/>
      <path class="cls-2" d="M31.67,54.21c-3.82,4.45-8.05,8.55-12.63,12.22,3.82-4.46,8.05-8.55,12.63-12.22h0Z"/>
      <path class="cls-2" d="M34.69,55.1c-2.55,5.91-7.06,11.02-12.62,14.27,4.88-4.14,9.11-8.92,12.62-14.27h0Z"/>
      <path class="cls-2" d="M38.76,43c-.5-.78-.91-2.18.13-2.73,1.78-.41,2.4,2.55,2.34,3.85-.21.23-.59.08-.77-.1-.59-.54-.25-1.65-.99-2.04-.57-.29-.79.47-.81.91,0,0-.18,1.56-.18,1.56l-.18,1.56c-.01.51-.21,1.33-.9,1.01-.95-.55-1.21-1.85-.99-2.85.18-1.08,1.66-1.79,2.54-.98.8.83.27,2.07.71,3.02.18.48.68.76,1.17.55,1.48-.68,1.65-2.56,1.84-4,.11-1,.15-2.16-.59-2.89-1.49-1.1-4.13-1.75-5.77-.67-1.29.75-1.5,3.11.08,3.62,1.01.29,2.08-.23,3.12.07,1.16.33,1.36,1.67,1.57,2.66.49,2.13-1.79,2.82-3.39,2.13-.8-1.6-.42-3.72.99-4.86.64-.61,1.61-.7,2.32-1.12.73-.43.53-1.51-.16-1.88-1.51-.76-3.36.53-3.87,2-.34.75-.11,1.65-.53,2.53-.2.4-.65.83-1.21.71-.52-.13-.83-.59-.96-1.02-.26-1.27-.58-2.82.37-3.89.35-.35.85-.47,1.29-.5,1.76.06,3.46.05,5.19.43,2.91.7,2.97,5.19.38,6.36-1.41.75-4.25.61-4.62-1.28-.01-1.03,1.01-1.7,1.9-1.68,3.03.13,3.81,3.75,3.3,6.19-.19,2.56-2,2.5-3.96,1.79-1.15-.49-2.67-1.03-3.02-2.37-.28-1.07.79-1.9,1.75-1.33,1.36.85,1.65,4.3-.48,4.24-1.95-.16-5.13-2.07-3.34-4.26,1.14-1.28,3.4-1.97,4.89-1.17-.28,1.9-1.05,4.53-3.37,4.67-3.66-.03-3.29-8.52.73-6.83-.23,1.52-1.25,3.3-2.53,4.13-.37-1.57-1.57-11.11,1.96-8.85.81.8.5,2.46-.63,2.78-.39.1-.8-.14-.99-.45-1-1.97.08-4.54,1.78-5.78,1.11-.86,3.17-1.05,3.88.42.48,1.06-.01,2.19-.46,3.15-.15.34-.56.83-.96.48-.29-.34-.27-.71-.37-1.06-.16-1.06-.37-2.31-.04-3.32,2.99-.86,12.36-1.73,11.87,3.18-.17,1.97-2.87,2.99-4.06,1.25-.88-1.06.39-3.1,1.66-2.08,1.19,1.4.73,3.5.28,5.11-.61.33-1.98.14-2.71,0-2.71-.45-4.54-4.2-1.97-6.01.78-.48,1.7-.55,2.55-.54.43.01.92.05,1.31.36.78.6.3,1.7,1.03,2.27,1.3.79,1.72,2.26.62,3.46-.07.08-.2.07-.27-.02-.47-.61-1.04-1.32-1.02-2.22-.04-.92.93-1.78,1.83-1.36,1.93.71,1.21,3.75-.8,3.65-1.44.01-2.32-1.72-1.37-2.86.91-1.15,2.73-.43,3.2.77.94,2.03-1.4,6.44-3.76,4.38-.77-.72-.3-1.9.66-2.14,1.7-.53,3.58,1.13,3.23,2.88-.14.86-.88,1.64-1.79,1.63-2.27-.18-1.82-2.88-.34-3.88.09-.07.23-.05.28.05.72,1.18,1.45,2.93.3,4.11-.99,1.04-2.9,1.73-4.02.48-.57-.61-.41-1.62.18-2.16,1.24-1.24,3.28.01,3.43,1.56.26,1.41-.58,3.63-2.34,2.98-1.43-.48-2.42-2.02-2.18-3.52.26-1.51,1.87-2.68,3.39-2.24.77.22,1.49,1.25.78,1.93-1.68,1.3-3.44-1.27-1.68-2.41.88,0,1.16,1.34.72,1.94-.43.64-1.26.85-1.95.67-.8-.15-2.62-1.76-1.4-2.37,1.29-.34,1.87,1.4,1.41,2.34-1,2.15-3.9,1.47-5.4.37-.12-.07-.12-.24,0-.31.58-.39,1.38-.6,2.08-.23.69.34,1.07,1.36.46,1.95-1.26,1.17-2.44-.82-1.1-1.63,2.54-1.11,4.28,4.24,1.67,4.99-.74.19-1.61-.41-1.53-1.24.31-.48,1.43-.19,1.77.14.46.35.79.95.67,1.57-.01.07-.07.11-.13.12l-1.41.1v-.28c2.61.52,5.56-1.34,6.56-3.33-.15-.54-.12-1.13.09-1.65.04-.11.21-.09.23.02.3,1.05.32,2.72-1.05,3-.66.09-1.21-.44-1.39-1-.31-1.19.58-2.4,1.64-2.84,1.62-.62,2.11,1.43.77,2.13-.53.29-1.13.33-1.69.37v-.18c2.46-.02,4.11-2.59,3.95-4.9,0-2.45-1.51-4.58-2.58-6.6,3.43,3.57,1.67,9.79-.86,13.44-.48.49-1.16.84-1.86.74-.03,0-.02-.05,0-.04,0,0,.95,0,.95,0,.03,0,.03.04,0,.04,0,0-.95,0-.95,0,.74-.08,1.21-.15,1.82-.78,2.51-3.71,4.14-9.57.88-13.32,0,0,.09-.07.09-.07.63,1.01,1.27,2.02,1.77,3.11,1,2.12,1.39,4.89-.11,6.88-.73.96-1.87,1.67-3.11,1.67-.05,0-.09-.04-.09-.09s.04-.09.08-.09c.56-.04,1.13-.09,1.61-.35.7-.32,1.02-1.54.16-1.84-1.3-.24-2.61,1.42-2.27,2.65.43,1.28,1.91,1.02,2.13-.24.1-.53-.01-1.09-.13-1.64l.23.02c-.23.5-.16,1.07-.08,1.58-1.21,2.48-4.09,4-6.82,3.59-.16-.02-.15-.27.01-.28,0,0,1.41-.11,1.41-.11,0,0-.13.12-.13.12.19-.98-1.06-1.93-1.94-1.49l.08-.12c-.08.55.61,1.06,1.16.9,1.88-.59.96-3.99-.58-4.46-.58-.19-1.24.14-1.25.75-.02.28.12.55.36.62.23.09.53-.02.72-.22.42-.39.14-1.13-.38-1.38-.51-.28-1.19-.12-1.69.22v-.31c1.42.99,3.9,1.65,4.83-.2.33-.69,0-1.99-.91-1.81-.19.06-.19.26-.01.52.56,1,2.12,1.66,2.9.59.3-.43.12-1.19-.36-1.37h.17c-.51.28-.71,1.07-.35,1.54.34.49,1.14.64,1.56.23.45-.4-.05-1.1-.63-1.27-1.24-.38-2.68.67-2.87,1.93-.22,1.29.68,2.68,1.91,3.09.63.23,1.25.02,1.52-.62.58-1.14.49-2.82-.74-3.46-1.16-.76-2.81.69-1.88,1.82.92,1.04,2.62.38,3.45-.49,1-1.07.29-2.57-.35-3.67,0,0,.28.05.28.05-.58.47-1.09,1.11-1.11,1.83-.05.72.47,1.43,1.2,1.38,1.63-.05,1.89-2.4.7-3.28-.72-.71-2.29-.9-2.77.12-.24.65.54,1.32,1.17,1.32,2.46-.2,3.63-5.39.55-5.54-.72,0-1.25.72-1.21,1.43.14,1.68,2.61,1.71,2.93.06.36-1-.86-2.29-1.8-1.6-.89.85-.16,2.09.53,2.9,0,0-.27-.02-.27-.02.54-.54.7-1.49.3-2.12-.51-.64-1.49-1.03-1.49-2.05-.05-.43-.13-.81-.42-1.03-.28-.23-.69-.28-1.1-.29-1.64-.15-3.47.64-3.44,2.5-.07,2.75,3.08,3.93,5.42,3.52,0,0-.13.1-.13.1.37-1.06.51-2.21.41-3.33-.01-1.04-.96-2.41-1.86-1.22-.68.95.31,2.21,1.36,2.24,2.7.06,2.97-3.54.75-4.63-.98-.56-2.15-.64-3.28-.74-2.28-.18-4.6-.13-6.79.52l.08-.09c-.12,1.32-.14,2.91.41,4.1.21.21.5-.13.63-.42.43-.9.91-2.02.47-2.98-.28-.63-.97-.97-1.66-.98-2.81-.02-4.88,3.73-3.69,6.17,1.18,1.43,2.45-1.24,1.38-2.13-1.46-1.13-2.2.97-2.15,2.32-.12,2.13,0,4.27.4,6.37,0,0-.1-.04-.1-.04,1.24-.91,2.08-2.77,2.45-3.93-.56-.36-1.31-.24-1.85.13-1.63,1.23-1.41,3.92-.46,5.51.77,1.25,2.49,1.09,3.39.07.94-.98,1.21-2.38,1.44-3.7,0,0,.06.11.06.11-1.85-.61-4.72.2-5.08,2.33-.03,1.36,1.33,2.05,2.45,2.5,2.2,1,2.93-.64,2.28-2.57-.34-1.36-2.37-1.55-2.1.13.34,1.23,1.79,1.72,2.87,2.18.79.26,1.66.52,2.45.34.89-.2,1.05-1.15,1.16-1.94.24-1.62.22-3.5-.9-4.79-.76-.91-2.22-1.48-3.23-.68-1.26,1.06.08,2.17,1.27,2.33,1.61.35,3.47-.52,3.95-2.15.51-1.54-.16-3.55-1.87-3.94-1.62-.36-3.41-.35-5.07-.41-.41.03-.8.14-1.07.4-1.11.89-.33,6.04,1.25,3.79.36-.69.16-1.64.52-2.49.32-.84.93-1.57,1.72-2,1.09-.69,3.17-.6,3.39,1,.15,1.68-2.01,1.47-2.9,2.34-1.31,1.05-1.67,3.03-.94,4.52l-.09-.07c1.48.47,3.42.04,2.99-1.89-.2-.92-.35-2.18-1.39-2.48-1-.28-2.08.23-3.11-.08-1.14-.32-1.5-1.73-1.13-2.74,1.16-2.74,5.1-2,7.02-.55.8.79.75,2.01.63,3.04-.13,1.03-.25,2.11-.78,3.05-.47.95-1.99,1.78-2.53.44-.45-1,.07-2.21-.67-2.98-.36-.35-.94-.39-1.4-.2-1.47.61-1.24,3.1-.02,3.83.22.12.49.04.6-.18.18-.46.25-1.79.34-2.3,0,0,.19-1.56.19-1.56,0-.49.31-1.31.94-.98.8.44.43,1.5,1.01,2.06.18.17.46.28.66.13v.03c.05-1.27-.54-4.17-2.26-3.8-1,.53-.6,1.88-.11,2.66.01.02-.02.04-.03.02h0Z"/>
    </g>
  </g>
</svg>