<?xml version="1.0" encoding="UTF-8"?>
<svg id="_오른쪽_위" data-name="오른쪽_위" xmlns="http://www.w3.org/2000/svg" version="1.1" viewBox="0 0 140.72 111.14">
  <defs>
    <style>
      .cls-1 {
        fill: #d793ff;
      }

      .cls-1, .cls-2 {
        stroke-width: 0px;
      }

      .cls-3 {
        fill: none;
      }

      .cls-3, .cls-4, .cls-5 {
        stroke: #111114;
        stroke-width: 1.2px;
      }

      .cls-3, .cls-5 {
        stroke-linecap: round;
        stroke-linejoin: round;
      }

      .cls-4 {
        fill: #ffec2d;
        stroke-miterlimit: 10;
      }

      .cls-2 {
        fill: #111114;
      }

      .cls-5 {
        fill: #00b2ff;
      }
    </style>
  </defs>
  <path class="cls-1" d="M140.12,55.33c.17-6.59-9.68-9.92-9.68-9.92,9.01-8.51-2-16.02-2-16.02-1.48-.8-2.99-1.31-4.5-1.58h0c3.01-4.59.99-15.1-17.03-12.93,1.33-10.51-11.51-11.18-11.51-11.18-3.09-.51-5.68.29-7.85,1.94l-.53-.03c-10.35-8.87-20.48-3.24-20.48-3.24-7.17-3.67-15.51,9.18-16.35,10.1l.34-.06-.19.16c-2.27-1.58-4.85-2.58-7.75-2.64-15.63-.31-7.02,8.31-7.02,8.31,0,0-13.92-2.15-2.41,7.96l-.03.02c-1.47-.39-27.16-6.94-19.09,17.86l.07-.07-.19.71c-1.98.39-4,.98-6.04,1.85-18.77,7.97,4.59,13.89,4.59,13.89l2.22-.54c-2.33,1.11-4.21,2.84-5.27,5.42-5.54,13.5,7.08,12.22,7.08,12.22l1.32-.81c-1.34,1.47-2.34,3.18-2.83,5.19,0,0-2.17,6.84,2.84,8.34,5,1.5-2.56,6.51,7.48,4.84,3.15-.52,5.72-2.55,8.15-5.17l.29.06-.6.27s-4.14,15.86,5.2,16.69c9.34.83.54,3,8.19,2.67,7.51-.33,14.7-9.96,14.97-14.89h.12c.72,2.27,5.85,16.96,17.09,15.72,7.84-.86,11.26-7.33,12.34-13.51,0,0,5.68,14.35,18.86,1.67,0,0-3.17-7.01,3.5-5,6.67,2,6.84-6.84,6.84-6.84,0,0-.87-3.41-3.35-7.4,0,0,10.69,3.2,13.86-1.79,2.65-4.17,3.42-9.75-2.58-13.03,0,0,11.76-2.64,11.92-9.23Z"/>
  <g>
    <path class="cls-4" d="M51.78,73.66c-9.89-4.56-12.17-17.45-4.99-25.64,4.96-5.66,13.47-11.75,26.63-10.5,23.69,2.25,26.76,15.3,26.76,15.3,0,0,3.69,15.88-15.69,20.18-11.73,2.61-24.13,4.62-32.71.67Z"/>
    <g>
      <path class="cls-5" d="M51.63,55.58c-.09-2.25,2.9-10.71,19.36-12.04,5.43-.44,10.93.9,15.42,4.25,4.92,3.68,8.53,9.38-1.47,16.01-17.49,11.6-32.89,2.14-33.31-8.22Z"/>
      <path class="cls-2" d="M60.47,46.07l-1.57,4.93c-.64,1.61-1.06,3.32-.9,5.07.24,3.48.84,6.76,1.68,10.16.02.05-.06.09-.09.04-2.64-3.75-2.57-8.52-1.78-12.84.11-2.65.79-5.36,2.57-7.41.03-.04.11,0,.09.05h0Z"/>
      <path class="cls-2" d="M65.28,44.82c-1.12,2.9-2.15,5.75-2.81,8.75-.4,5.12,1.2,10.13,3.24,14.78.03.05-.05.1-.08.06-3.7-3.99-4.2-9.72-3.48-14.88.07-.91.17-2.22.31-3.13.44-2.06,1.36-4.04,2.73-5.63.03-.04.11,0,.09.05h0Z"/>
      <path class="cls-2" d="M68.14,44.39c-.48,3.13-1.04,6.12-1.27,9.24.3,5.2,2.39,10.04,4.63,14.7.03.05-.04.1-.08.06-3.85-3.88-4.87-9.48-4.87-14.75-.05-.92-.16-2.24-.15-3.18.11-2.12.65-4.24,1.66-6.11.02-.05.11-.02.09.03h0Z"/>
      <path class="cls-2" d="M70.57,44.2c1.38,2.91,1.9,6.08,2.12,9.26.93,5.18,2.1,10.62.96,15.82-.9-5.19-.55-10.54-1.28-15.77-.6-2.58-1.94-6.9-1.8-9.31h0Z"/>
      <path class="cls-2" d="M74.78,44.06c1.8,2.31,2.58,5.18,2.88,8.04,1.09,4.65,1.71,9.64-.22,14.17-.02.05-.1.03-.1-.02.16-4.72.8-9.41,0-14.08-.54-2.03-2.44-6.39-2.57-8.11h0Z"/>
      <path class="cls-2" d="M80.29,45.74c1.54,2.13,2.14,4.72,2.33,7.29.92,4.18,1.58,8.61-.07,12.71-.02.05-.1.04-.1-.02-.12-4.24.48-8.43-.15-12.63-.76-2.44-1.61-4.76-2.1-7.31-.01-.05.06-.09.09-.04h0Z"/>
      <path class="cls-2" d="M85.28,48.62c1.09,1.55,1.32,3.41,1.23,5.23.18,1.8.69,3.59.45,5.42-.14,1.21-.44,2.4-1.01,3.5-.02.05-.1.03-.1-.02-.25-3.01.51-5.88.33-8.86-.5-1.73-1-3.37-1-5.24,0-.05.07-.07.1-.03h0Z"/>
      <path class="cls-2" d="M54.84,50.98c4.26-1.3,8.78-1.52,13.2-1.27,7.38-.19,14.91.11,21.86,2.87.05.02.03.11-.03.1-7.28-1.02-14.48-2.55-21.84-2.64-4.32.23-9.09,1.07-13.2.95h0Z"/>
      <path class="cls-2" d="M52.2,54.85c4.8-.59,9.62-.32,14.4.22,7.98.33,16.2.41,23.89,2.66-7.98-.23-15.92-1.8-23.9-2.34-4.7-.05-9.96.24-14.38-.55h0Z"/>
      <path class="cls-2" d="M52.54,58.99c5.84.49,11.44,2.27,17.28,2.48,5.06.08,12.32.04,17.45.05.12-.01.23.07.23.2,0,.1-.07.18-.17.19-.52.08-1.04.17-1.56.23-.03,0-.05-.02-.06-.04.42-.28,1.04-.37,1.52-.58,0,0,.06.39.06.39-5.79.9-11.71.83-17.51.01-5.68-.77-12.16-.59-17.25-2.94h0Z"/>
      <path class="cls-2" d="M55.79,63.64c3.21-.33,6.35.07,9.49.6,5.27.3,10.74-.06,15.84,1.36-5.29.6-10.6-.53-15.86-1.04-3.19.05-6.35-.02-9.48-.82-.05-.01-.05-.1,0-.1h0Z"/>
    </g>
    <g>
      <path class="cls-3" d="M64.48,37.82s-6.25-27.58-21.88-27.89-7.02,8.31-7.02,8.31c0,0-13.96-2.15-2.37,8,11.6,10.15,13.79,7.58,19.36,16.55"/>
      <path class="cls-3" d="M33.22,26.23s-27.47-7.69-19.17,17.84"/>
      <path class="cls-3" d="M43.83,52.81s-17.17-14.22-35.94-6.25c-18.77,7.97,4.59,13.89,4.59,13.89"/>
      <path class="cls-3" d="M42.6,61.61s-27.63-9.77-33.17,3.73c-5.54,13.5,7.08,12.22,7.08,12.22"/>
      <path class="cls-3" d="M45.14,67.89s-26.8.37-30.14,14.05c0,0-2.17,6.84,2.84,8.34,5,1.5-2.56,6.51,7.48,4.84,10.04-1.67,14.2-18.57,26.47-21.46"/>
      <path class="cls-3" d="M33.16,90.27s-4.14,15.86,5.2,16.69c9.34.83.54,3,8.19,2.67,7.66-.33,15-10.34,15-15.18s-1.33-17.2,4.17-18.61"/>
      <path class="cls-3" d="M61.54,94.45s5,17.35,17.18,16.02c12.18-1.33,13.68-16.18,12.35-22.52-1.33-6.34-4.2-12.97-10.69-14.08"/>
      <path class="cls-3" d="M91.06,96.95s5.68,14.35,18.86,1.67c0,0-3.17-7.01,3.5-5,6.67,2,6.84-6.84,6.84-6.84,0,0-4.84-18.99-24.19-19.67"/>
      <path class="cls-3" d="M116.92,79.38s10.69,3.2,13.86-1.79c3.17-4.99,3.66-12-6.93-14.67s-14.03-3.93-23.99-2.47"/>
      <path class="cls-3" d="M99.04,50.2s10.22-11.14,31.41-4.8c0,0,9.84,3.33,9.68,9.92s-11.92,9.23-11.92,9.23"/>
      <path class="cls-3" d="M94.58,45.03s18.18-24.15,33.86-15.64c0,0,11.01,7.51,2,16.02"/>
      <path class="cls-3" d="M87.3,40.74s1.6-23.69,19.62-25.86c18.02-2.17,20.04,8.34,17.03,12.93"/>
      <path class="cls-3" d="M76.51,37.88S78.39.86,95.41,3.7c0,0,12.85.67,11.51,11.18"/>
      <path class="cls-3" d="M50.2,12.46c.84-.92,9.18-13.77,16.35-10.1,0,0,10.31-5.73,20.75,3.47"/>
    </g>
    <g>
      <path class="cls-2" d="M68.03,37.41c.25-9.13-2.58-18.2-7.99-25.56,6.32,6.69,9.36,16.46,7.99,25.56h0Z"/>
      <path class="cls-2" d="M70.47,37.1c-.21-8.94-.45-17.86-.72-26.8,1.35,8.85,1.59,17.89.72,26.8h0Z"/>
      <path class="cls-2" d="M72.92,37.27c-.72-8.81.19-17.79,2.66-26.28-1.41,8.71-2.3,17.46-2.66,26.28h0Z"/>
      <path class="cls-2" d="M79.12,37.9c.14-9.21,3.89-18.41,10.25-25.07-5.47,7.35-9.01,16-10.25,25.07h0Z"/>
      <path class="cls-2" d="M81.95,38.37c-.34-4.12.87-8.42,3.32-11.75-1.46,3.88-2.54,7.68-3.32,11.75h0Z"/>
      <path class="cls-2" d="M84.15,39.23c.82-5.99,3.14-11.82,6.68-16.72-2.58,5.44-4.8,11-6.68,16.72h0Z"/>
      <path class="cls-2" d="M90.29,41.16c.26-6.39,3.28-12.7,8.1-16.9-3.97,4.94-6.74,10.71-8.1,16.9h0Z"/>
      <path class="cls-2" d="M97.14,31.95c-2.59,3.11-4.31,6.88-4.92,10.85,0,0-.69-.18-.69-.18,1.24-3.58,3.58-6.67,6.34-9.22,2.75-2.53,5.9-4.57,9.18-6.33-3.04,2.09-6.05,4.27-8.7,6.84-2.63,2.54-4.86,5.54-6.15,8.95-.07.19-.27.28-.46.21-.16-.06-.26-.23-.23-.39.68-4.05,2.68-7.89,5.63-10.74h0Z"/>
      <path class="cls-2" d="M96.21,46.52c3.65-6.86,11.1-11.64,18.85-12.09-7.51,1.58-14.29,5.92-18.85,12.09h0Z"/>
      <path class="cls-2" d="M98.08,47.98c2.19-3.94,6.31-6.9,10.75-7.72-4.1,1.91-7.63,4.44-10.75,7.72h0Z"/>
      <path class="cls-2" d="M100.58,52.75c6.27-4.89,15.23-6.25,22.67-3.41-7.67-1.7-15.84-.48-22.67,3.41h0Z"/>
      <path class="cls-2" d="M100.88,55.5c3.42-3.38,9.13-4.43,13.53-2.49-4.73-.78-9.39.07-13.53,2.49h0Z"/>
      <path class="cls-2" d="M100.64,58.1c5.64-2.39,12.22-2.67,18.04-.74-6.02-.83-12.11-.58-18.04.74h0Z"/>
      <path class="cls-2" d="M98.97,63.4c6.83-1.83,14.51-.55,20.36,3.42-6.35-2.95-13.39-4.14-20.36-3.42h0Z"/>
      <path class="cls-2" d="M98.62,65.52c5.32-1.5,11.46-.04,15.53,3.71-4.68-2.78-10.1-4.07-15.53-3.71h0Z"/>
      <path class="cls-2" d="M93.94,69.06c8,2.01,15.09,7.66,18.82,15.01-4.67-6.71-11.24-11.95-18.82-15.01h0Z"/>
      <path class="cls-2" d="M91.95,70.68c4.55,1.54,8.34,5.53,9.62,10.16-2.37-4.18-5.57-7.57-9.62-10.16h0Z"/>
      <path class="cls-2" d="M88.69,71.62c5.23,4.83,8.47,11.86,8.73,18.98-1.38-6.92-4.36-13.43-8.73-18.98h0Z"/>
      <path class="cls-2" d="M69.82,75.6c-2.57,6.57-2.97,13.85-1.15,20.67-2.92-6.51-2.47-14.52,1.15-20.67h0Z"/>
      <path class="cls-2" d="M72.47,75.37c.22,5.6.58,11.7.99,17.29-1.52-5.61-1.85-11.55-.99-17.29h0Z"/>
      <path class="cls-2" d="M75.55,75.12c2.15,4.32,2.95,9.38,2.23,14.15-.41-4.82-1.13-9.44-2.23-14.15h0Z"/>
      <path class="cls-2" d="M78,75.3c6.22,6.05,9,15.57,7,24.01.86-8.55-1.68-17.27-7-24.01h0Z"/>
      <path class="cls-2" d="M53.63,74.81c-6.97,4.99-11.98,12.43-13.99,20.76.91-8.6,6.37-16.69,13.99-20.76h0Z"/>
      <path class="cls-2" d="M55.65,75.68c-4.59,4.41-8.1,9.78-10.29,15.75,1.12-6.32,4.96-12.18,10.29-15.75h0Z"/>
      <path class="cls-2" d="M58.07,76.17c-3.51,4.74-6.44,9.83-8.79,15.24,1.3-5.79,4.43-11.21,8.79-15.24h0Z"/>
      <path class="cls-2" d="M59.55,76.04c-1.16,8.6-5.19,16.87-11.26,23.09,5.21-6.9,9.03-14.73,11.26-23.09h0Z"/>
      <path class="cls-2" d="M46.01,70.47c-7.39-.24-14.73,2.15-20.57,6.68,5.14-5.45,13.21-8.07,20.57-6.68h0Z"/>
      <path class="cls-2" d="M29.96,77.93c4.72-4.42,11.28-6.86,17.75-6.79.21,0,.39.17.39.39,0,.17-.12.32-.28.36-4.85,1.39-8.65,4.89-12.44,8.08,3.45-3.65,7.27-7.34,12.21-8.81,0,0,.11.75.11.75-6.38,0-12.64,2.19-17.75,6.03h0Z"/>
      <path class="cls-2" d="M43.12,64.23c-8.1-1.6-16.34-2.09-24.57-1.47,8.1-1.72,16.73-1.2,24.57,1.47h0Z"/>
      <path class="cls-2" d="M43.84,66.66c-8.22-1.73-16.71-1.71-24.93.05,7.95-2.84,16.96-2.85,24.93-.05h0Z"/>
      <path class="cls-2" d="M42.93,59.66c-8.6-6.06-19.47-5.91-29.56-6.15,10.04-.87,21.55-.86,29.56,6.15h0Z"/>
      <path class="cls-2" d="M42.21,56.34c-5.73-4.13-12.69-6.34-19.76-6.27,7.04-1.21,14.7,1.22,19.76,6.27h0Z"/>
      <path class="cls-2" d="M45.04,49.51c-6.79-4.56-14.44-7.69-22.48-9.21,8.22.42,16.33,3.75,22.48,9.21h0Z"/>
      <path class="cls-2" d="M46.63,47.55c-7.14-2.99-13.93-6.81-20.19-11.36,6.61,3.5,13.77,7.53,20.19,11.36h0Z"/>
      <path class="cls-2" d="M48.21,45.73c-7.19-4.65-14.08-9.74-20.62-15.26,7.19,4.64,14.08,9.75,20.62,15.26h0Z"/>
      <path class="cls-2" d="M49.98,44.08c-3.34-2.58-6.62-4.96-10.1-7.34,3.98,1.37,7.56,3.98,10.1,7.34h0Z"/>
      <path class="cls-2" d="M54.75,41.14c-3.38-7-8.43-13.09-14.69-17.71,6.91,3.7,12.33,10.24,14.69,17.71h0Z"/>
      <path class="cls-2" d="M56.63,39.35c-2.4-4.39-4.93-8.52-7.76-12.65,3.66,3.39,6.4,7.85,7.76,12.65h0Z"/>
      <path class="cls-2" d="M58.98,39.11c-2.1-8.19-6.57-15.64-12.8-21.35,6.98,4.88,11.78,12.9,12.8,21.35h0Z"/>
      <path class="cls-2" d="M61.43,38.49c-1.23-6.11-4.02-11.78-8.09-16.5,4.91,3.95,7.97,10.21,8.09,16.5h0Z"/>
    </g>
  </g>
</svg>