<?xml version="1.0" encoding="UTF-8"?>
<svg id="_오른쪽_위" data-name="오른쪽_위" xmlns="http://www.w3.org/2000/svg" version="1.1" viewBox="0 0 59.99 81.31">
  <defs>
    <style>
      .cls-1 {
        fill: #ff97b5;
      }

      .cls-1, .cls-2 {
        stroke-width: 0px;
      }

      .cls-3 {
        fill: #00d675;
      }

      .cls-3, .cls-4, .cls-5, .cls-6 {
        stroke: #111114;
        stroke-linecap: round;
        stroke-linejoin: round;
      }

      .cls-4, .cls-5 {
        fill: none;
      }

      .cls-5, .cls-6 {
        stroke-width: 1.25px;
      }

      .cls-2 {
        fill: #111114;
      }

      .cls-6 {
        fill: #ff6a37;
      }
    </style>
  </defs>
  <path class="cls-3" d="M37.2,43.98c4.54,9.89,5.44,21.4,2.52,31.87,1.63-3.89,4.65-7.41,7.92-10.07,3.28-2.66,7.84-4.01,11.83-2.64.17,3.85-1.11,7.74-3.55,10.73s-5.99,5.03-9.79,5.64c-2.68.43-5.99-.21-7.03-2.71"/>
  <path class="cls-2" d="M38.76,76.99c2.59-.76,5.05-1.63,7.54-2.61,3.84-2.26,7.01-5.43,10.26-8.47.04-.04.11,0,.08.06-1.96,4.27-6.17,6.67-10.19,8.69-2.24,1.52-4.88,2.78-7.69,2.42-.05,0-.06-.09,0-.1h0Z"/>
  <path class="cls-3" d="M19.54,64.8c-3.08.63-6.46.87-9.2-.68-1.54,4.42,1.15,9.42,5.03,12.03,5.32,3.59,21.2,8.74,23.3-.76.76-3.44-.68-7.14-3.33-9.37-4.7-3.97-10.42-2.32-15.81-1.22Z"/>
  <path class="cls-2" d="M12.76,67.91c4.15,1.01,7.55,3.64,11.6,4.85,3.51,1.02,8.39,2.8,11.87,4.06.05.01.04.1-.02.1-2.13-.08-4.21-.6-6.22-1.22-3.03-.93-5.79-2.53-8.71-3.73-3.02-.95-5.97-2.09-8.57-3.97-.05-.03,0-.11.04-.09h0Z"/>
  <path class="cls-3" d="M35.62,48.87c1.66,6.96,2.57,14.1,2.72,21.25"/>
  <path class="cls-4" d="M42.26,75.94c.19-1.59.37-3.17.56-4.76"/>
  <path class="cls-2" d="M45.69,74.55c-.44-.9-.29-1.77-.05-2.66.03-.88-.34-1.77-.25-2.66.04-.59.15-1.18.42-1.76.01-.03.07-.03.08,0,.68,1.47.16,2.93.02,4.43.22.89.33,1.77-.13,2.65-.01.03-.07.03-.08,0h0Z"/>
  <path class="cls-2" d="M49.47,73.27c-.45-1.04-.32-2.06-.09-3.09-.12-1.73-.62-3.44.09-5.15.01-.04.07-.04.08,0,.71,1.7.21,3.41.09,5.15.23,1.03.36,2.05-.09,3.09-.01.03-.07.04-.08,0h0Z"/>
  <path class="cls-2" d="M52.63,71.59c-.45-1.04-.32-2.06-.09-3.09-.12-1.73-.62-3.44.09-5.15.01-.04.07-.04.08,0,.71,1.7.21,3.41.09,5.15.23,1.03.36,2.05-.09,3.09-.01.03-.07.04-.08,0h0Z"/>
  <path class="cls-2" d="M47.95,74.17c.73.15,1.02.59,1.35,1.13.14.14.33.21.53.26.84.19,1.46.48,2.04,1.16.02.02.01.05,0,.07-.45.14-.9.07-1.3-.08-.61-.21-.92-.85-1.42-1.2-.63-.18-1.19-.52-1.26-1.29,0-.03.03-.06.06-.05h0Z"/>
  <path class="cls-2" d="M50.73,72.25c.73.15,1.02.59,1.35,1.13.14.14.33.21.53.26.84.19,1.46.48,2.04,1.16.02.02.01.05,0,.07-.45.14-.9.07-1.3-.08-.61-.21-.92-.85-1.42-1.2-.63-.18-1.19-.52-1.26-1.29,0-.03.03-.06.06-.05h0Z"/>
  <path class="cls-2" d="M52.39,70.21c.74-.08,1.15.25,1.64.67.18.09.38.1.58.09.86-.08,1.53.01,2.29.48.02.01.03.04.02.07-.39.27-.84.34-1.26.32-.64-.02-1.14-.53-1.72-.71-.65.02-1.29-.13-1.59-.84-.01-.03,0-.07.04-.07h0Z"/>
  <path class="cls-2" d="M44.11,76.25c.48-.01.85.14,1.14.41.23.35.46.68.91.75.79.2,1.65.69,1.83,1.52-.47,0-.86-.14-1.21-.33-.53-.27-.8-.91-1.3-1.23-.62-.14-1.17-.34-1.42-1.05-.01-.03.01-.07.04-.07h0Z"/>
  <path class="cls-2" d="M36.31,76.82c.34-.53.67-.44,1.11-.28.37-.04.65-.47,1.08-.48.14-.02.81.09.83.33-.21.29-.44.43-.69.51-.41.13-.81-.19-1.18-.1-.36.3-.65.49-1.14.1-.02-.02-.03-.05-.01-.08h0Z"/>
  <path class="cls-2" d="M34.39,75.82c-.38-1.35-.23-2.64-.01-3.96-.15-2.21-.81-4.34-.4-6.59,0-.04.06-.05.08-.01.37.84.56,1.72.67,2.6.18,1.33-.13,2.67-.1,4,.25,1.33.36,2.66-.17,3.97-.01.04-.07.04-.08,0h0Z"/>
  <path class="cls-2" d="M30.92,75.36c-.4-1.37-.26-2.69-.06-4.05-.17-2.26-.83-4.44-.39-6.74,0-.04.07-.05.08,0,.36.87.55,1.76.65,2.66.18,1.36-.13,2.72-.09,4.08.26,1.35.38,2.71-.12,4.06-.01.04-.07.04-.08,0h0Z"/>
  <path class="cls-2" d="M26.81,74.14c-.4-1.37-.26-2.69-.06-4.05-.17-2.26-.83-4.44-.39-6.74,0-.04.07-.05.08,0,.36.87.55,1.76.65,2.66.18,1.36-.13,2.72-.09,4.08.26,1.35.38,2.71-.12,4.06-.01.04-.07.04-.08,0h0Z"/>
  <path class="cls-2" d="M22.7,72.92c-.35-1.07-.23-2.08-.05-3.14-.15-1.75-.76-3.4-.4-5.21,0-.03.06-.04.07-.01.9,1.66.6,3.45.55,5.22.23,1.05.34,2.11-.11,3.15-.01.03-.06.03-.07,0h0Z"/>
  <path class="cls-2" d="M19.29,71.75c-.49-.83-.55-1.68-.58-2.59-.43-1.43-1.27-2.65-1.28-4.23,0-.03.04-.05.06-.02,1.1,1.18,1.16,2.73,1.42,4.2.39.82.67,1.69.44,2.63,0,.03-.05.04-.06,0h0Z"/>
  <path class="cls-2" d="M32.85,76.32c-.45.84-1.17,1.19-1.98,1.5-.86.65-1.73,2.29-3.3,2.53.5-1.48,1.95-1.99,3.14-2.74.53-.69,1.14-1.27,2.09-1.36.04,0,.06.04.04.07h0Z"/>
  <path class="cls-2" d="M29.26,75.04c-.45.84-1.17,1.19-1.98,1.5-.86.65-1.73,2.29-3.3,2.53.5-1.48,1.95-1.99,3.14-2.74.53-.69,1.14-1.27,2.09-1.36.04,0,.06.04.04.07h0Z"/>
  <path class="cls-2" d="M25.16,73.48c-.45.84-1.17,1.19-1.98,1.5-.86.65-1.73,2.29-3.3,2.53.5-1.48,1.95-1.99,3.14-2.74.53-.69,1.14-1.27,2.09-1.36.03,0,.06.04.04.07h0Z"/>
  <path class="cls-2" d="M21.02,71.66c-.45.84-1.17,1.19-1.98,1.5-.86.65-1.73,2.29-3.3,2.53.5-1.48,1.95-1.99,3.14-2.74.53-.69,1.14-1.27,2.09-1.36.04,0,.06.04.04.07h0Z"/>
  <g>
    <path class="cls-1" d="M41.66,48.92c2.23-5.05,1.77-1.13,5.08-5.89,3.21-4.62-3.73-9.76-4.16-10.07v-.02c2.21.48,4.29.7,5.89.56,4.56-.4,5.76-5.27,1.88-14.03-1.33-3.01-3.92-3.45-6.75-2.72l.15-.04s5.58-11.25-5.89-12.71c0,0-2.82,2.51-3.74,1.07s-6.63-8.35-9.86-1.45c-1.3,2.76-2.26,3.9-2.63,5.16h0s-4.29-7.2-9.41-2.79c0,0-6.94.17-7.11,5.88-.1,3.25,1.86,6.92,5.36,9.36,0,0,0,0,0,0l-.05-.04s-6.94-.9-9.5,4.77c0,0-1.49,4.1,2.34,5.48,0,0-6.85,5.17,2.42,8.62,0,0,1.51.71,4.57-.19l.03.06-.11-.03s-5.56,8.64,5.07,11.31c0,0,9.51,8.8,14.73-5.61h0s0,0,0,0c.13.66.29,1.26.49,1.79,1.62,4.4,8.98,6.57,11.21,1.52ZM42.41,17.13l-.06-.06,1.22-.3c-.38.1-.77.22-1.16.36Z"/>
    <g>
      <path class="cls-6" d="M30.2,21.64s-2.23-.86-3.3.7-.73-2.1-2.03-1.02-5.03,1.46-3.64,5.38c1.38,3.91,3.41,4.93,4.14,5s4.71-.02,5.36-2.08c.66-2.06,2.59-4-.54-7.99Z"/>
      <path class="cls-5" d="M31.62,24.05c.32-.3,14.84-13.33,18.72-4.57,3.88,8.76,2.68,13.63-1.88,14.03s-12.96-2.1-17.15-5.29"/>
      <path class="cls-5" d="M42.53,32.94s7.51,5.33,4.2,10.1c-3.31,4.76-2.85.84-5.08,5.89-2.23,5.05-9.59,2.88-11.21-1.52-1.62-4.4-.85-13.96-2.73-15.87"/>
      <path class="cls-5" d="M43.74,16.72s5.58-11.25-5.89-12.71c0,0-2.82,2.51-3.74,1.07s-6.63-8.35-9.86-1.45c-3.24,6.9-4.41,3.65.64,17.69"/>
      <path class="cls-5" d="M21.62,8.8s-4.29-7.2-9.41-2.79c0,0-6.94.17-7.11,5.88-.17,5.71,5.95,12.69,15.73,12.07"/>
      <path class="cls-5" d="M10.41,21.22s-6.94-.9-9.5,4.77c0,0-1.49,4.1,2.34,5.48,0,0-6.85,5.17,2.42,8.62,0,0,5.85,2.75,17.87-9.4"/>
      <path class="cls-5" d="M10.16,39.93s-5.56,8.64,5.07,11.31c0,0,9.51,8.8,14.73-5.61"/>
    </g>
    <g>
      <path class="cls-2" d="M32.28,24.85c1.24-1.31,3.02-1.52,4.7-1.55,1.08-.17,2.01-.87,2.98-1.31,1.38-.75,2.77-1.4,4.14-2.31.05-.03.12.02.1.07-.34,1.14-1.23,2.05-2.21,2.66-1.48.97-3.28.85-4.91,1.27-1.5.75-3.02,1.3-4.74,1.28-.06,0-.09-.07-.05-.11h0Z"/>
      <path class="cls-2" d="M31.93,27.11c1.31-1.38,3.29-1.59,5.04-1.19,1.69,0,3.46.07,5.12.27,1,.06,2,.01,2.97-.66.05-.04.12.01.1.07-.35,1.28-1.86,1.93-3.11,1.92-1.83.05-3.3-1.24-5.08-1.2-1.68.35-3.22.87-4.98.9-.06,0-.09-.07-.05-.11h0Z"/>
      <path class="cls-2" d="M41.33,38.15c-2.31-.35-4.5-1.47-6.25-3.02-1.74-1.27-2.35-4.4-4.82-4.32,0,0,.15-.37.15-.37.98,1.05,1.91,2.19,2.59,3.48,1.36,2.57,2.14,5.5,1.92,8.43-.15,1.45-.13,2.77.92,3.8-1.55-.32-1.92-2.47-1.97-3.8-.22-2.73-.81-5.43-1.86-7.96-.53-1.27-1.12-2.55-1.97-3.67-.11-.13,0-.35.17-.35,1.32-.03,2.28.89,3.08,1.69.8.84,1.65,1.54,2.5,2.24,1.68,1.44,3.53,2.64,5.56,3.74.06.03.03.13-.04.12h0Z"/>
      <path class="cls-2" d="M25.95,32.32c.58,1.48.15,2.88-.56,4.19-.37,1.37-.24,2.89-.91,4.19-.43.86-.98,1.66-1.79,2.29-.04.04-.12,0-.11-.06.17-1.49.59-2.72,1.25-3.99.35-.84,1.05-1.6,1.18-2.53.06-.93-.12-1.87.25-2.77.14-.44.29-.89.57-1.33.03-.05.11-.04.12.01h0Z"/>
      <path class="cls-2" d="M24.4,31.67c-.6.92-.73,1.77-1.2,2.74-.95,1.31-1.53,3.02-2.82,4.07-1.17,1.08-2.47,1.59-3.47,2.89-.03.05-.12.03-.12-.03-.12-2.4,2.47-3.56,4.21-4.59,1.59-.89.78-2.94,1.9-4.21.34-.46.84-.89,1.43-.98.06,0,.1.06.07.11h0Z"/>
      <path class="cls-2" d="M20.66,26.26c-.65.83-1.8,1.05-2.74.97-.94-.12-1.75-.77-2.71-.73-1.89-.11-4.07,1.86-5.65,0-.21-.22-.25-.58.02-.77.7-.4,1.12.87,1.46,1.34.02.03,0,.07-.03.09-.5-.11-.97-.4-1.41-.63,0,0,.65-.68.65-.68.65.33,1.32.07,2.11-.04,1.45-.44,2.85.48,4.29.4,1.39-.2,2.51.06,3.96-.06.06,0,.1.06.06.11h0Z"/>
      <path class="cls-2" d="M21.59,29.1c-.98-.18-1.65,0-2.49.11-.41.03-.9.03-1.31.24-1.25.73-1.92,2.26-3.44,2.65-.98.3-2.31.18-2.95-.71-.02-.03-.01-.07.02-.09.98.08,1.73-.13,2.5-.45,2.15-.89,3-1.23,4.9-2.63.93-.42,2.35-.18,2.85.79.03.05-.02.11-.08.1h0Z"/>
      <path class="cls-2" d="M18.55,13.05c.19.92.48,1.74.94,2.46.93,1.55,2.76,2.36,3.51,4.15.38.87.61,1.97-.03,2.9-.05.07-.13.11-.22.09-1.58-.21-3.36.24-4.9-.72-2.24-1.68-2.09-5-4.72-6.14,2.31-.33,3.65,2.54,4.63,4.09,1,1.93,3.2,1.52,5.06,2.22,0,0-.28.09-.28.09.61-.54.51-1.62.03-2.31-1.15-1.4-3.27-2.01-3.94-3.94-.39-.93-.49-1.97-.22-2.89.02-.06.11-.06.12,0h0Z"/>
      <path class="cls-2" d="M27.56,21.39c.15-1.05-.24-1.78-.46-2.73-.13-1.06-.49-2.03-.82-3.08-.28-1.11.22-2.26.69-3.2.54-.84,1.12-1.96,2.01-2.47,0,2.09-1.44,3.84-2.02,5.65-.27,1.07.52,1.89,1.1,2.72.53.93.59,2.51-.4,3.18-.05.03-.11-.01-.1-.07h0Z"/>
      <path class="cls-2" d="M29.92,21.14c.39-.88.58-1.55.96-2.39.51-.78.85-1.63.83-2.6.17-1.98,1.7-3.62,3.32-4.48-.15,1.48-1.1,2.56-1.93,3.63-.49.69-1.12,1.42-1.2,2.31-.06.45.04.94-.03,1.43-.15.95-.87,1.93-1.87,2.19-.05.01-.1-.04-.08-.1h0Z"/>
    </g>
  </g>
</svg>