<?xml version="1.0" encoding="UTF-8"?>
<svg id="_오른쪽_위" data-name="오른쪽_위" xmlns="http://www.w3.org/2000/svg" version="1.1" viewBox="0 0 52.72 94.8">
  <defs>
    <style>
      .cls-1 {
        fill: #ff97b5;
      }

      .cls-1, .cls-2, .cls-3, .cls-4, .cls-5 {
        stroke: #111114;
        stroke-linecap: round;
        stroke-linejoin: round;
      }

      .cls-1, .cls-3 {
        stroke-width: 1.2px;
      }

      .cls-2, .cls-4 {
        fill: #00d675;
      }

      .cls-6 {
        fill: #00b2ff;
      }

      .cls-6, .cls-7 {
        stroke-width: 0px;
      }

      .cls-3, .cls-5 {
        fill: none;
      }

      .cls-4 {
        stroke-width: .92px;
      }

      .cls-7 {
        fill: #111114;
      }

      .cls-5 {
        stroke-width: .76px;
      }
    </style>
  </defs>
  <g>
    <path class="cls-4" d="M41.4,91.99s1.94-10.66-6.88-15.1c0,0-16.56-1.34-20.91-8.81-4.35-7.47-2.18-12.55-4.71-13.39,0,0,13.9-4.53,24.9,8.43,11,12.96,9.15,25.75,9.15,25.75l-1.55,3.13Z"/>
    <path class="cls-5" d="M13.24,57.1s18.88,6.49,26.47,21.13c0,0,3.41,7.71,2.73,11.72"/>
  </g>
  <path class="cls-2" d="M40.26,94.3c1.8-1.44,4.13-7.71,4.26-10.01.75-12.59-.23-25.38-5.61-36.79-.45-.95-.96-1.91-1.8-2.55-.68-.51-2.88-1.14-3,.19-.06.68,1.79,2.99,2.12,3.68,1.48,3.15,2.7,6.41,3.65,9.75,1.93,6.73,2.78,13.77,2.52,20.77-.15,3.93-1.28,11.12-2.14,14.96Z"/>
  <g>
    <path class="cls-6" d="M50.84,28.15c2.43-1.86.65-4.87.65-4.87,1.19-6.06-3.11-6.53-3.11-6.53h0c3.17-4.5-1.57-5.4-1.57-5.4-.01-3.76-3.95-3.1-3.95-3.1.15-1.31-.69-2.55-3.23-2.99-2.34-.4-4.15,2.8-4.43,3.32h-.07c.07-.63.12-1.28.12-1.96-.06-7.07-7.03-4.49-7.03-4.49-2.8-3.55-6.33.17-6.33.17-5.1-1.39-5.93,2.64-5.93,2.64-4.11-.67-3.16,4.81-3.16,4.81l.04.02s-.01,0-.02,0c0,0-.02-.03-.02-.03-4.43-3.86-6.34,2.02-6.34,2.02-1.41.43-1.79,2.19-1.79,2.19-2.33,1.36-1.47,3.2-1.47,3.2-1.95,3.57,1.31,5.1,1.31,5.1h.02s0,0,0,0c0,0-.02,0-.02,0-6.15.19-3.01,7.59-3.01,7.59-2.28,3.48.53,5.91.53,5.91-.26,6.85,6.06,5,6.06,5l.07-.11.03.02c-.47.46-.72.74-.72.74-1.16,3.49,2.73,3.68,2.73,3.68.45,4.19,4.61,3.21,4.61,3.21,3.16,3.11,5.75-.2,5.75-.2h0c.02.36.06.7.14.99,1.01,3.63,5.95,1.91,5.95,1.91,1.92,1.84,3.11-.25,3.11-.25,2.2,2.52,6.29.42,6.29.42,2.16-1.56,2.64-3.65,2.25-5.82h0c.09.33.87,2.75,4.66.66,4.06-2.24,1.99-5.41,1.99-5.41,3.17.94,3.85-2.38,3.85-2.38,2.31-1.56,1.16-3.35.99-3.6l-.03-.34c.47-.15.86-.39,1.14-.74,2.67-3.39-.04-5.39-.04-5.39ZM20.52,47.81h0s0,.05,0,.07v-.07Z"/>
    <g>
      <path class="cls-1" d="M28.75,35.8s-6.15,1.31-9.61-4.06,1.59-12.14,1.59-12.14c0,0,7.46-5.3,12.25.02,4.78,5.32,4.4,15.04-4.23,16.18Z"/>
      <path class="cls-3" d="M31.81,34.89s11.42,11.09,4.22,16.27c0,0-4.09,2.1-6.29-.42,0,0-1.19,2.1-3.11.25,0,0-4.93,1.72-5.95-1.91-1.01-3.63,3.29-13.62,3.29-13.62"/>
      <path class="cls-3" d="M20.53,48.1s-2.59,3.32-5.75.2c0,0-4.16.98-4.61-3.21,0,0-3.88-.19-2.73-3.68,0,0,4.52-5.01,12.4-8.7"/>
      <path class="cls-3" d="M8.08,40.78s-6.31,1.85-6.06-5c0,0-2.81-2.43-.53-5.91,0,0-3.14-7.4,3.01-7.59,0,0,8.4,3.37,13.73,2.74"/>
      <path class="cls-3" d="M4.5,22.28s-3.26-1.54-1.31-5.1c0,0-.87-1.84,1.47-3.2,0,0,.38-1.76,1.8-2.19,0,0,1.91-5.88,6.34-2.02,0,0,6.42,9.27,7.95,9.84"/>
      <path class="cls-3" d="M12.79,9.76s-.96-5.48,3.16-4.81c0,0,.83-4.04,5.93-2.64,0,0,3.53-3.73,6.33-.17,0,0,6.97-2.57,7.03,4.49.06,7.07-4.6,11.24-4.6,11.24"/>
      <path class="cls-3" d="M35.15,8.67s1.93-3.83,4.47-3.4,3.39,1.68,3.23,2.99c0,0,3.94-.66,3.95,3.1,0,0,5.35,1.01.91,6.26s-12.36,5.98-12.36,5.98"/>
      <path class="cls-3" d="M48.38,16.75s4.3.47,3.11,6.53c0,0,1.78,3.01-.65,4.87,0,0,2.71,2,.04,5.39-2.67,3.39-14.98-3.37-14.98-3.37"/>
      <path class="cls-3" d="M49.76,34.59s1.52,1.95-.97,3.63c0,0-.68,3.32-3.85,2.38,0,0,2.08,3.17-1.99,5.41s-4.67-.7-4.67-.7"/>
    </g>
    <g>
      <path class="cls-7" d="M23.72,17.1c-1.16-.69-1.71-1.92-1.95-3.18-.85-1.88-1.72-4.24-.58-6.16.47,2.02.17,4.09.82,6.06.67,1.05,1.35,1.99,1.77,3.22.01.04-.03.07-.06.05h0Z"/>
      <path class="cls-7" d="M26,17.1c-.46-1.01-.34-2-.12-3.01-.13-1.69-.65-3.35.05-5.02.01-.04.07-.04.08,0,.72,1.66.23,3.33.13,5.02.24,1.01.38,2-.06,3.01-.01.03-.07.04-.08,0h0Z"/>
      <path class="cls-7" d="M28.24,16.28c.26-1.4.89-2.54,1.54-3.74.63-2.17.4-4.55,1.24-6.65.77,2.29-.18,4.6-.99,6.73-.21,1.37-.65,2.72-1.72,3.7-.03.03-.08,0-.07-.04h0Z"/>
      <path class="cls-7" d="M33.33,19.45c.25-1.1.99-1.82,1.84-2.45.68-.76,1.1-1.77,1.88-2.45.51-.46,1.08-.86,1.76-1.12.03-.01.07.03.05.06-.76,1.63-2.29,2.47-3.49,3.68-.49.92-1,1.77-1.97,2.32-.03.02-.08-.01-.06-.05h0Z"/>
      <path class="cls-7" d="M34.07,21.57c.54-.86,1.37-1.21,2.27-1.48.78-.45,1.35-1.24,2.16-1.65.53-.28,1.1-.51,1.74-.6.04,0,.06.04.04.07-.91,1.38-2.45,1.72-3.81,2.41-.65.67-1.35,1.24-2.36,1.32-.04,0-.06-.04-.04-.07h0Z"/>
      <path class="cls-7" d="M35.56,25.21c1.47-.19,2.8.06,4.21.31,2.36-.09,4.57-.89,6.97-.82.04,0,.06.06.02.08-.84.5-1.76.8-2.7.98-1.42.3-2.86.02-4.29.02-1.43.22-2.89.21-4.22-.49-.04-.02-.03-.08.01-.08h0Z"/>
      <path class="cls-7" d="M36.33,28.44c.97-.41,1.9-.24,2.84.03.94.06,1.9-.29,2.85-.18.63.06,1.25.19,1.87.46.03.01.03.07,0,.08-1.59.64-3.14.08-4.73-.11-.96.19-1.9.28-2.83-.21-.03-.01-.03-.07,0-.08h0Z"/>
      <path class="cls-7" d="M35.54,32.38c1.3.31,2.28,1.04,3.28,1.83,1.91.87,4,1.21,5.72,2.53.03.02.02.08-.03.08-.87-.02-1.71-.22-2.5-.51-1.21-.42-2.19-1.29-3.31-1.86-1.23-.38-2.39-.92-3.2-1.99-.02-.03,0-.08.04-.07h0Z"/>
      <path class="cls-7" d="M33.81,34.11c1.34.14,2.37.95,3.22,1.9.98.79,2.15,1.38,2.93,2.41.52.67.95,1.42,1.18,2.26.01.04-.04.07-.07.04-1.66-1.31-2.64-3.13-4.2-4.5-1.12-.57-2.18-1.09-3.09-2.04-.03-.03,0-.08.03-.07h0Z"/>
      <path class="cls-7" d="M26.15,36.19c-.1,1.15-.6,2.02-1.13,2.96-.4,1.73-.14,3.49-.79,5.2-.01.04-.07.04-.08,0-.27-.7-.35-1.44-.31-2.17.05-1.11.63-2.08.93-3.11.09-1.1.4-2.18,1.31-2.92.03-.02.08,0,.07.04h0Z"/>
      <path class="cls-7" d="M28.11,36.62c.45,1.25.32,2.48.09,3.72.08,2.06.69,4.27-.14,6.23-.77-2.03-.22-4.15-.12-6.23-.23-1.24-.36-2.48.09-3.72.01-.04.07-.04.08,0h0Z"/>
      <path class="cls-7" d="M30.54,35.99c.67.93.76,1.97.75,3.05.49,1.7,1.35,3.29,1.02,5.13,0,.04-.06.05-.08.02-1.06-1.54-.94-3.35-1.2-5.09-.45-.98-.8-1.96-.58-3.09,0-.04.06-.05.08-.02h0Z"/>
      <path class="cls-7" d="M19.1,21.87c-1.18-.71-1.95-1.72-2.73-2.79-1.66-1.43-3.64-2.36-5.03-4.12-.03-.03,0-.08.04-.07.87.27,1.65.7,2.37,1.21,1.1.75,1.84,1.9,2.8,2.79,1.11.74,2.11,1.63,2.61,2.93.02.04-.03.07-.06.05h0Z"/>
      <path class="cls-7" d="M17.9,23.55c-1.15-.1-2-.7-2.82-1.4-.92-.51-2.02-.67-2.91-1.22-.6-.36-1.17-.78-1.67-1.33-.03-.03,0-.08.04-.07,1.86.19,3.16,1.46,4.66,2.39,1.04.29,2.01.66,2.73,1.56.02.03,0,.08-.04.07h0Z"/>
      <path class="cls-7" d="M17.29,27.24c-1.49.82-3.16.95-4.81.85-1.63.12-3.26.51-4.91.33-.65-.06-3-.44-3.19-.84,2.73-.25,5.37.36,8.09.25,1.6-.37,3.13-.74,4.82-.67.04,0,.06.06.02.08h0Z"/>
      <path class="cls-7" d="M17.89,29.49c-1.48,1.06-3.28,1.09-4.76,2.04-1.2.95-2.83,2.29-4.11,3.12,0,0-.21-.39-.21-.39.29,0,.69-.1.94.02-.23.19-.56.3-.83.43-.11.05-.24,0-.29-.12-.04-.1,0-.2.07-.27,1.05-1.46,2.61-2.45,4.27-3.06,1.6-.75,2.99-2.02,4.9-1.84.04,0,.06.06.02.08h0Z"/>
      <path class="cls-7" d="M20.67,34.36c-.63,1.2-1.64,1.96-2.73,2.65-.94.85-1.61,1.99-2.59,2.8-.64.55-1.33,1.05-2.12,1.44-.03.02-.08-.02-.05-.06,1.06-1.95,2.95-3.01,4.58-4.37.77-1.03,1.61-1.98,2.85-2.52.03-.02.08.02.05.06h0Z"/>
      <path class="cls-7" d="M20.56,21.85c.4.99.21,1.91-.08,2.86-.07.95.25,1.92.13,2.87-.07.63-.21,1.26-.5,1.88-.01.03-.07.03-.08,0-.62-1.61-.02-3.16.19-4.76-.18-.97-.25-1.91.26-2.84.02-.03.07-.03.08,0h0Z"/>
      <path class="cls-7" d="M23.01,18.36c.41,1.02.23,1.98-.05,2.96.04,1.67.47,3.33-.32,4.93-.01.03-.07.03-.08,0-.63-1.66-.05-3.28.14-4.93-.19-1-.27-1.98.23-2.95.01-.03.07-.03.08,0h0Z"/>
      <path class="cls-7" d="M21.57,32.72c-.24-.38-.29-.74-.2-1.08.19-.33.37-.66.2-1.05-.24-.76-.17-1.46.36-2.1.02-.02.05-.02.07,0,.23.37.3.75.31,1.11.02.54-.4,1.03-.43,1.56.19.56.28,1.08-.22,1.58-.02.02-.06.02-.08,0h0Z"/>
      <path class="cls-7" d="M24.63,23.6c.28.37.35.75.29,1.12-.16.37-.31.73-.11,1.12.28.73.34,1.69-.25,2.25-.26-.37-.36-.76-.4-1.13-.07-.56.31-1.12.3-1.68-.23-.57-.37-1.11.09-1.68.02-.03.06-.03.08,0h0Z"/>
      <path class="cls-7" d="M23.79,30.6c.28.32.35.65.29.97-.16.32-.31.62-.11.97.29.6.32,1.53-.25,1.95-.26-.32-.36-.65-.4-.98-.07-.49.31-.97.3-1.45-.23-.49-.37-.95.09-1.45.02-.02.06-.02.08,0h0Z"/>
      <path class="cls-7" d="M26.08,17.11c.19.39.2.73.06,1.04-.23.28-.45.56-.34.95.13.68-.03,1.58-.7,1.9-.18-.38-.2-.74-.16-1.07.05-.5.53-.9.63-1.39-.11-.54-.13-1.04.42-1.44.03-.02.06-.01.08.02h0Z"/>
      <path class="cls-7" d="M28.11,17.88c.4.49.22.79-.06,1.18-.07.38.26.79.14,1.2-.02.15-.32.76-.56.72-.22-.29-.28-.57-.28-.83,0-.43.42-.74.45-1.13-.18-.44-.27-.79.24-1.15.03-.02.06-.01.08.01h0Z"/>
      <path class="cls-7" d="M26.15,22.3c.27.28.34.56.28.83-.16.27-.32.52-.13.83.29.59.26,1.14-.21,1.65-.24.03-.46-.7-.45-.84-.05-.44.33-.83.32-1.24-.22-.44-.35-.81.12-1.24.02-.02.06-.02.08,0h0Z"/>
      <path class="cls-7" d="M27.91,23.53c.21.36.22.69.1.99-.22.27-.42.54-.3.91.17.71.03,1.33-.55,1.83-.24,0-.3-.87-.27-1.02.03-.48.49-.87.57-1.34-.13-.52-.18-.99.37-1.38.03-.02.06-.01.08.02h0Z"/>
      <path class="cls-7" d="M26.08,28.48c.48.3.34.49.12.79-.03.25.36.44.32.79-.01.12-.19.54-.45.55-.26-.17-.36-.34-.4-.52-.06-.35.32-.55.27-.8-.03-.09-.15-.17-.21-.26-.1-.13.11-.56.36-.54h0Z"/>
      <path class="cls-7" d="M28.31,28.64c.26.33.32.65.24.96-.18.3-.34.59-.16.94.27.67.22,1.3-.28,1.88-.24.03-.43-.82-.42-.97-.04-.48.36-.93.37-1.4-.21-.49-.32-.95.17-1.41.02-.02.06-.02.08,0h0Z"/>
      <path class="cls-7" d="M26.15,32.42c.47.31.3.46.06.72-.05.22.32.41.27.73-.02.12-.22.47-.48.46-.25-.17-.34-.33-.37-.49-.03-.33.36-.48.32-.71-.03-.08-.14-.17-.19-.25-.09-.13.15-.49.39-.47h0Z"/>
      <path class="cls-7" d="M30.05,20.99c.23.39.26.75.15,1.09-.2.32-.4.64-.25,1.04.2.77.11,1.47-.45,2.08-.02.02-.05.02-.07,0-.22-.38-.27-.76-.26-1.12,0-.54.45-1.01.5-1.54-.16-.56-.23-1.09.29-1.57.02-.02.06-.02.08.01h0Z"/>
      <path class="cls-7" d="M29.78,17.88c.46.31.3.45.05.71-.05.22.32.4.26.72-.03.12-.23.45-.49.44-.24-.17-.34-.33-.36-.49-.02-.32.36-.46.33-.68-.03-.08-.14-.16-.19-.24-.09-.13.15-.48.4-.45h0Z"/>
      <path class="cls-7" d="M31.53,19.43c.28.41.35.82.29,1.24-.16.41-.31.81-.11,1.24.27.81.35,1.83-.24,2.49-.27-.4-.36-.84-.4-1.25-.07-.62.31-1.24.3-1.85-.23-.62-.36-1.22.09-1.85.02-.03.06-.03.08,0h0Z"/>
      <path class="cls-7" d="M29.68,26.59c.46.41.32.71.09,1.11-.03.36.36.69.3,1.11,0,.14-.22.75-.47.74-.25-.25-.35-.49-.39-.74-.06-.42.32-.75.3-1.11-.03-.12-.15-.25-.2-.37-.1-.15.13-.78.37-.74h0Z"/>
      <path class="cls-7" d="M29.5,32.42c.38.46.19.66-.11.95-.1.29.22.63.09.99-.03.12-.35.59-.59.52-.2-.26-.26-.49-.24-.7.03-.39.46-.56.49-.87,0-.11-.1-.24-.13-.35-.06-.16.27-.62.5-.54h0Z"/>
      <path class="cls-7" d="M31.53,26.59c.45.42.3.7.05,1.07-.04.34.33.67.26,1.08,0,.14-.25.72-.49.7-.24-.25-.34-.49-.36-.73-.04-.41.35-.71.34-1.06-.03-.12-.14-.24-.19-.36-.09-.15.16-.75.4-.7h0Z"/>
      <path class="cls-7" d="M31.48,31.97c.4.46.21.68-.07,1-.08.31.25.65.13,1.04-.02.13-.33.64-.57.58-.21-.26-.28-.5-.27-.72.01-.4.43-.62.46-.94-.01-.11-.11-.24-.15-.36-.07-.18.26-.68.48-.6h0Z"/>
      <path class="cls-7" d="M34.13,21.61c.25.48.3.95.22,1.41-.19.45-.36.9-.19,1.39.22.93.25,2.06-.39,2.8-.25-.47-.31-.97-.33-1.44-.03-.71.39-1.38.41-2.08-.19-.72-.29-1.41.2-2.09.02-.03.06-.03.08,0h0Z"/>
      <path class="cls-7" d="M33.4,28.48c.28.41.35.82.29,1.22-.16.4-.31.8-.11,1.22.28.8.35,1.82-.24,2.46-.27-.4-.36-.83-.4-1.24-.07-.61.31-1.22.3-1.83-.23-.62-.36-1.21.09-1.83.02-.03.06-.03.08,0h0Z"/>
    </g>
  </g>
</svg>