<?xml version="1.0" encoding="UTF-8"?>
<svg id="_오른쪽_위" data-name="오른쪽_위" xmlns="http://www.w3.org/2000/svg" xmlns:xlink="http://www.w3.org/1999/xlink" version="1.1" viewBox="0 0 128.23 176.73">
  <defs>
    <style>
      .cls-1 {
        clip-path: url(#clippath);
      }

      .cls-2 {
        fill: #d793ff;
      }

      .cls-2, .cls-3, .cls-4, .cls-5, .cls-6, .cls-7 {
        stroke-linecap: round;
        stroke-linejoin: round;
      }

      .cls-2, .cls-3, .cls-4, .cls-5, .cls-7 {
        stroke: #111114;
      }

      .cls-2, .cls-3, .cls-4, .cls-7 {
        stroke-width: 1.2px;
      }

      .cls-8 {
        fill: #00b2ff;
      }

      .cls-8, .cls-9 {
        stroke-width: 0px;
      }

      .cls-3, .cls-5 {
        fill: #00d675;
      }

      .cls-4, .cls-6 {
        fill: none;
      }

      .cls-5 {
        stroke-width: 1.17px;
      }

      .cls-6 {
        stroke: #ff6a37;
        stroke-width: 2px;
      }

      .cls-10, .cls-7 {
        fill: #ff6a37;
      }

      .cls-9 {
        fill: #111114;
      }
    </style>
    <clipPath id="clippath">
      <path class="cls-7" d="M52.71,34.73s10.15-.59,13.51,4.71,4.53,4.12,4.73,7.84,2.35,8.24,0,10.59-3.03,6.08-8.57,8.04-5.35,5.3-11.04,2.94c-5.69-2.35-11.96-1.37-12.55-4.51-.59-3.14-4.71-8.23-3.53-12.16,1.18-3.93-.98-8.44,2.75-11.57,3.73-3.14,5.69-2.35,10.2-4.12l4.51-1.77Z"/>
    </clipPath>
  </defs>
  <g>
    <path class="cls-3" d="M68.34,172.72c3.01-17.43-1.85-86.93-1.67-87.81l-5.79,1.48s3.81,82.44,2.01,89.74"/>
    <g>
      <path class="cls-5" d="M68.94,153.26s5.85-11.09,21.12-13.21c15.27-2.12,23.37,2.94,33.12-21.67,1.26-3.18-.45-11.23,3.95-12.9,4.4-1.67-20.56-.14-30.48,5.12-9.92,5.25-16.89,11.67-18.64,23.26,0,0,.65,3.96-.45,6.77-1.1,2.82-7.42,6.72-7.42,6.72"/>
      <g>
        <path class="cls-9" d="M81.39,140.21c2.19-3.59,5.22-6.66,8.63-9.16,5.04-3.85,11.28-5.64,16.03-9.77,3.1-2.78,5.28-6.48,8.34-9.36,1.57-1.42,3.35-2.63,5.32-3.38-5.93,2.78-8.46,9.11-13.07,13.39-4.72,4.3-11.11,6.08-16.2,9.72-3.43,2.34-6.54,5.19-9.06,8.55h0Z"/>
        <path class="cls-9" d="M121.29,113.37c-2.69.5-5.4.57-8.12.51-.25,0-.45-.22-.43-.47.13-1.55.47-3.09,1.1-4.52-.08,1.55-.18,3.05-.2,4.56l-.46-.47c2.71-.09,5.41-.06,8.1.39h0Z"/>
        <path class="cls-9" d="M119.33,118.17c-2.22.25-4.43.33-6.65.36-1.12-.04-2.49.19-3.51-.58-1.01-.8-1.04-2.19-1.37-3.27-.36-1.44-.65-2.89-.91-4.36,0-.05.07-.08.09-.02,0,0,.12.35.12.35l-.2-.31c.93,1.39,1.67,4.46,2.35,6.17.55,1.37,2.2.99,3.45,1.11,2.22.09,4.43.24,6.64.55h0Z"/>
        <path class="cls-9" d="M117.24,124.28c-4.38-.06-8.74-.47-13.09-1-.17-.02-.31-.14-.37-.28-1.23-3-2.09-6.16-2.37-9.38.92,3.09,1.97,6.1,3.24,9.01l-.38-.29c4.35.45,8.69,1.02,12.97,1.94h0Z"/>
        <path class="cls-9" d="M115.06,129.61c-6.02-.69-12.29-1.33-18.33-1.62-.2,0-.36-.13-.42-.31-1.13-3.49-1.89-7.13-2.1-10.8.38,1.79.82,3.56,1.3,5.32.5,1.75,1.06,3.48,1.67,5.18l-.42-.31c6.17.16,12.33.93,18.29,2.53h0Z"/>
        <path class="cls-9" d="M109.33,134.1c-5.65-.61-13.54-1.48-19.11-2-.19-.02-.34-.16-.38-.33-.74-3.2-1.44-6.4-1.99-9.64.52,1.56,1.03,3.12,1.49,4.7.46,1.57.94,3.14,1.36,4.73l-.39-.33c6.41.38,12.81,1.27,19.03,2.88h0Z"/>
        <path class="cls-9" d="M96.9,136.37c-3.83-.29-7.58-.51-11.36-.37-.15,0-.29-.07-.38-.18-1.5-2.03-2.76-4.26-3.58-6.65,1.36,2.12,2.78,4.14,4.32,6.08l-.39-.18c3.84-.24,7.74.12,11.4,1.3h0Z"/>
      </g>
    </g>
    <g>
      <path class="cls-5" d="M64.28,169.33s-6.03-10.99-21.34-12.86c-15.31-1.86-23.32,3.33-33.47-21.12-1.31-3.16.27-11.23-4.16-12.83-4.43-1.6,20.55-.48,30.56,4.61,10.01,5.09,17.08,11.39,19.02,22.95,0,0-.59,3.97.56,6.76,1.15,2.8,7.53,6.6,7.53,6.6"/>
      <g>
        <path class="cls-9" d="M51.63,156.48c-2.57-3.32-5.72-6.12-9.2-8.4-5.15-3.56-11.56-5.23-16.35-9.45-4.68-4.21-7.31-10.49-13.29-13.17,1.98.71,3.78,1.89,5.38,3.29,3.11,2.82,5.35,6.49,8.5,9.22,4.82,4.05,11.09,5.74,16.19,9.5,3.45,2.45,6.53,5.46,8.78,9.02h0Z"/>
        <path class="cls-9" d="M11.29,130.3c2.68-.5,5.38-.57,8.09-.53,0,0-.45.48-.45.48-.04-1.5-.16-3-.27-4.56.66,1.41,1.02,2.95,1.18,4.5.03.25-.17.47-.42.48-2.72.1-5.43.07-8.13-.38h0Z"/>
        <path class="cls-9" d="M13.32,135.07c2.2-.35,4.41-.54,6.63-.66,1.25-.14,2.9.22,3.43-1.17.66-1.73,1.35-4.81,2.25-6.21,0,0-.2.31-.2.31l.11-.35c.01-.05.1-.04.09.02-.23,1.47-.5,2.93-.83,4.38-.32,1.09-.32,2.48-1.32,3.29-1.01.79-2.38.58-3.5.64-2.22.01-4.43-.03-6.65-.25h0Z"/>
        <path class="cls-9" d="M15.52,141.15c4.26-.98,8.6-1.63,12.94-2.15,0,0-.38.29-.38.29,1.22-2.94,2.23-5.96,3.1-9.07-.23,3.22-1.04,6.4-2.22,9.42-.06.16-.21.27-.37.29-4.34.6-8.69,1.08-13.07,1.21h0Z"/>
        <path class="cls-9" d="M17.78,146.44c5.93-1.7,12.09-2.58,18.25-2.84,0,0-.41.32-.41.32.58-1.72,1.11-3.45,1.58-5.21.45-1.76.86-3.54,1.21-5.34-.14,3.67-.84,7.32-1.92,10.83-.06.19-.23.31-.41.32-6.03.38-12.29,1.13-18.3,1.92h0Z"/>
        <path class="cls-9" d="M23.59,150.83c6.19-1.71,12.58-2.7,18.98-3.19,0,0-.39.34-.39.34.39-1.59.85-3.17,1.28-4.75.43-1.58.91-3.15,1.41-4.72-.5,3.25-1.14,6.46-1.83,9.67-.04.19-.2.32-.37.34-5.53.61-13.47,1.62-19.07,2.32h0Z"/>
        <path class="cls-9" d="M36.05,152.9c3.64-1.24,7.53-1.66,11.37-1.49l-.39.19c1.51-1.96,2.89-4.01,4.22-6.15-.78,2.4-2,4.65-3.47,6.71-.09.13-.23.19-.38.19-3.78-.08-7.54.2-11.36.55h0Z"/>
      </g>
    </g>
  </g>
  <g>
    <path class="cls-8" d="M98.6,46.1c-1.2-.66-2.42-1.15-3.64-1.51l.51.09s16.08-11.52.98-18.78c-2.51-1.21-5.02-1.62-7.46-1.51-.07-.09-.13-.19-.21-.28l.21.07c2.16-11.32-3.48-12.6-3.48-12.6-9.67-7.84-15.97,2.1-17.46,4.84-.08,0-.17,0-.25.01,1.02-8.25-1.21-15.93-11.56-15.83-6.18.06-9.34,3.39-10.76,7.99-.01-.01-.02-.02-.04-.03-1.09-7.47-8.81-5.34-8.81-5.34-7.16.29-4.54,8.41-4.54,8.41l.21-.05s-.04.08-.06.12c-.33-.15-.67-.28-1.01-.37-9.06-2.44-14.11,4.01-14.11,4.01,0,0-2.06,3.87-.87,8.14-.01,0-.02.01-.03.02l.02-.06s-11.43-2.22-10.46,12.1c0,0-.39,7.95,3.92,8.23l.07-.21c0,.06,0,.13.01.19-1.82.5-3.43,1.27-4.66,2.42C-2.5,53.26.03,63.95,8.94,64.78c-1.09,1.4-1.89,3.01-2.26,4.88-2.79,13.95,10.62,13.25,10.62,13.25,0,0,1.51.12,2.78-1.03h0c-.46,1.26-.66,2.58-.51,3.94,1.22,11.06,11.63,10.14,11.63,10.14,0,0,9.48-.53,10.67-9.14v-.03s0,0,0,0c-.43,10.75,4.32,13.19,4.32,13.19,0,0,10.1,10.45,16.89-3.35.73-1.48,1.24-2.97,1.59-4.46,2.11,3.63,8.51,4.44,8.51,4.44,0,0,12.54.93,11.1-11.78-.1-.93-.3-1.83-.55-2.7h0s4.41.79,4.41.79c0,0,14.9-4.92,7.34-15.04h0c4.37-1.45,6.04-3.53,6.04-3.53,0,0,9.61-11.38-2.95-18.24Z"/>
    <g>
      <g>
        <path class="cls-10" d="M52.71,34.73s10.15-.59,13.51,4.71,4.53,4.12,4.73,7.84,2.35,8.24,0,10.59-3.03,6.08-8.57,8.04-5.35,5.3-11.04,2.94c-5.69-2.35-11.96-1.37-12.55-4.51-.59-3.14-4.71-8.23-3.53-12.16,1.18-3.93-.98-8.44,2.75-11.57,3.73-3.14,5.69-2.35,10.2-4.12l4.51-1.77Z"/>
        <g class="cls-1">
          <path class="cls-9" d="M38.62,40.28c4.67-.13,9.33.03,13.98.23,7.77.1,15.55.02,23.31.51.02,0,.02.04,0,.04-7.77.18-15.54-.2-23.31-.41-4.62-.02-9.49.06-13.98-.37h0Z"/>
          <path class="cls-9" d="M61.85,35.94c-2.22,3.95-4.61,7.78-6.95,11.65-1.57,2.62-9.02,17.01-10.61,19.97-.01.02-.05,0-.04-.02,2.99-6.94,6.72-13.51,10.52-20.02,2.1-3.8,4.55-8.21,7.07-11.58h0Z"/>
          <path class="cls-9" d="M39.91,67.1c-.18-4.96.36-9.9.4-14.85.11-4.84,0-10.25.62-14.81,0,0-.57.58-.57.58,0,0-.02,0-.03,0,0,0,0-.02,0-.03l.51-.62c.33,4.71-.13,10-.33,14.89-.32,4.9.01,10.07-.6,14.84h0Z"/>
          <path class="cls-9" d="M34.82,47.75c5.41,3.86,12.71,9.52,18.23,13.03,6.09,3.9,12.84,8.04,19.05,11.79,0,0-.03.05-.03.05l-.32-.21s0-.05.02-.03c-4.73-2.17-13.23-7.56-18.84-11.43-5.38-3.72-13.39-8.95-18.11-13.21h0Z"/>
          <path class="cls-9" d="M59.33,68.55c2.43-4,5.47-7.56,8.07-11.44,2.61-3.87,5.31-7.74,8.24-11.34-2.47,3.94-5.25,7.74-8.06,11.47-2.84,3.65-5.25,7.91-8.25,11.31h0Z"/>
          <path class="cls-9" d="M72.03,45.79c-2.8,3.43-7.03,7.94-9.49,11.55-2.07,2.95-4.25,6.29-6.23,9.31,0,0-2.01,3.15-2.01,3.15,2.1-4.36,5.04-8.68,8.07-12.6,3.08-3.86,6.02-8.2,9.67-11.42h0Z"/>
          <path class="cls-9" d="M50.75,70.49c-1.81-5.25-3.1-10.67-5.12-15.85-1.52-3.86-4.61-11.63-6.16-15.47,0-.01,0-.02.01-.03,2.53,4.93,4.59,10.16,6.35,15.43,1.69,5.24,3.93,10.59,4.91,15.92h0Z"/>
          <path class="cls-9" d="M41.66,36.08c2.75,4.05,5.25,8.25,7.72,12.48,4.31,6.92,8.78,13.74,12.75,20.86.01.02-.02.04-.03.02-4.55-6.77-8.62-13.83-12.84-20.81-2.6-4.1-5.41-8.34-7.6-12.55h0Z"/>
          <path class="cls-9" d="M47.5,69.25c4.89-3.09,8.09-8.16,10.6-13.25,2.49-5.12,5.15-10.62,10.07-13.85,0,0,.03.17.03.17-.01-.02-2.15-.7-2.12-.75.01-.05,2.16.58,2.18.56.08.02.1.13.03.17-4.67,3.45-7.3,8.78-10.01,13.78-2.66,4.93-5.48,10.78-10.77,13.17h0Z"/>
          <path class="cls-9" d="M48.34,34.18c3.42,5.34,6.35,10.96,9.85,16.25,2.63,3.93,7.88,11.89,10.46,15.86,0,0,0,.02,0,.03-4.86-6.24-9-13.06-13.12-19.82-2.45-3.84-5.29-8.3-7.18-12.31h0Z"/>
          <path class="cls-9" d="M53.43,32.34c.91,3.87,2.85,12.56,3.73,16.29,1.81,7.09,4.19,14.34,6.33,21.36,0,0,1.68,5.31,1.68,5.31-3.44-8.4-5.91-17.72-8.15-26.63-1.38-5.17-2.92-11.15-3.59-16.32h0Z"/>
          <path class="cls-9" d="M67.02,37.66c-3.48,4.86-7.33,9.43-10.58,14.45-2.83,4.36-6.75,10.69-9.54,15.16-.01.02-.05,0-.03-.02,3.4-6.67,7.61-12.86,11.98-18.92,2.43-3.54,5.3-7.64,8.18-10.67h0Z"/>
          <path class="cls-9" d="M35,66.74c.31-4.7,1.36-9.29,1.87-13.96.53-4.66,1.13-9.37,2.07-13.95-.37,4.67-1.08,9.35-1.85,13.98-.83,4.58-1,9.5-2.08,13.93h0Z"/>
          <path class="cls-9" d="M35.04,43.91c8.97,2.48,17.64,5.87,26.34,9.13,8.62,3.27,17.61,6.86,25.59,11.09,0,0-.9-.13-.9-.13-.01,0-.02-.01-.02-.02,0-.01.01-.02.02-.02l.9.08c-8.38-3.42-17.09-7.41-25.68-10.81-7.45-3.09-18.71-6.56-26.26-9.33h0Z"/>
          <path class="cls-9" d="M33.96,62.63c8.13-4.12,14.97-10.24,22.02-15.93,7.06-5.68,15.09-10.46,22.99-14.61,0,0-5.83,3.53-5.83,3.53-5.63,3.46-11.81,7.25-17.03,11.25-7.19,5.41-13.75,12.41-22.15,15.75h0Z"/>
          <path class="cls-9" d="M53.36,30.04c-.05,5.16-.38,10.31-.76,15.45-.39,8.59-.61,17.18-1.4,25.75,0,.02-.04.02-.04,0,.11-8.6.79-17.17,1.3-25.75.2-5.11.3-10.47.9-15.45h0Z"/>
          <path class="cls-9" d="M41.35,68.33c1.08-7.13,2.79-14.13,3.91-21.24,1.09-7,2.3-14.33,3.58-21.3,0-.02.04-.02.04,0-1.02,8.95-2.73,17.8-4.4,26.64-.85,5.12-1.81,11.02-3.13,15.9h0Z"/>
          <path class="cls-9" d="M34.58,43.33c5.38-.25,10.76-.21,16.15-.14,8.97-.11,17.94-.39,26.91-.1.02,0,.03.04,0,.04-8.97.39-17.94.2-26.91.19-5.34.1-10.92.31-16.15,0h0Z"/>
          <path class="cls-9" d="M69.44,65.91c-1.8-5.93-3.1-11.98-5.1-17.84-1.52-4.37-4.6-13.15-6.15-17.51,0-.02.03-.04.04-.01,3.16,7.08,5.49,14.47,7.65,21.9,1.34,4.24,2.87,9.19,3.56,13.46h0Z"/>
          <path class="cls-9" d="M54.71,71.38c-.84-4.57-1.44-9.7-1.87-14.35-1-7.98-2.06-15.95-2.43-23.99,0-.02.04-.03.04,0,1.05,7.97,1.65,15.99,2.53,23.98.63,4.74,1.44,9.7,1.73,14.36h0Z"/>
          <path class="cls-9" d="M77.63,50.58c-5.31.82-11.27,1.31-16.67,1.6-9.27.75-18.57,1.39-27.88,1.19-.02,0-.03-.04,0-.04,4.27-.21,24.02-.93,27.87-1.29,5.52-.48,11.25-1.2,16.68-1.46h0Z"/>
          <path class="cls-9" d="M71.29,47.23c-6.41.13-12.82-.03-19.22-.23-10.68-.1-21.36-.02-32.04-.52-.02,0-.02-.04,0-.04,10.68-.18,21.36.21,32.04.42,6.37.03,12.98-.06,19.22.37h0Z"/>
        </g>
        <path class="cls-4" d="M52.71,34.73s10.15-.59,13.51,4.71,4.53,4.12,4.73,7.84,2.35,8.24,0,10.59-3.03,6.08-8.57,8.04-5.35,5.3-11.04,2.94c-5.69-2.35-11.96-1.37-12.55-4.51-.59-3.14-4.71-8.23-3.53-12.16,1.18-3.93-.98-8.44,2.75-11.57,3.73-3.14,5.69-2.35,10.2-4.12l4.51-1.77Z"/>
      </g>
      <path class="cls-4" d="M48.2,36.49S35.85.8,56.24.6s9.28,29.82,3.86,34.91"/>
      <path class="cls-4" d="M67.72,17.09s6.68-14.53,17.8-5.51c0,0,5.63,1.28,3.48,12.6"/>
      <path class="cls-4" d="M66.22,39.43s15.12-20.79,30.23-13.53c15.1,7.26-.98,18.78-.98,18.78"/>
      <path class="cls-4" d="M71.27,49.68s14.77-10.44,27.33-3.58c12.56,6.86,2.95,18.24,2.95,18.24,0,0-1.66,2.09-6.04,3.54"/>
      <path class="cls-4" d="M70.95,57.87s11.48-3.52,22.8,7.98c11.32,11.49-5.58,17.07-5.58,17.07l-4.41-.78"/>
      <path class="cls-4" d="M66.22,63.76s16.64,8.35,18.08,21.07-11.1,11.78-11.1,11.78c0,0-6.44-.81-8.53-4.47"/>
      <path class="cls-4" d="M58.59,67.88s11.3,14.95,4.51,28.75c-6.79,13.8-16.89,3.35-16.89,3.35,0,0-7.14-3.66-3.13-21.77,0,0,1.05-7.95,5.23-10.33"/>
      <path class="cls-4" d="M46.54,37.07c-.16-.48-6.26-23.29-15.31-25.73-9.06-2.44-14.11,4.01-14.11,4.01,0,0-5.4,10.1,6.27,15.67,11.67,5.57,14.61,9.59,14.61,9.59"/>
      <path class="cls-4" d="M35.67,46.17c-.96,0-22.9-7.14-30.56,0-7.66,7.14-5.05,17.93,4.01,18.63"/>
      <path class="cls-4" d="M35.36,55.82s-25.9-.11-28.68,13.84c-2.79,13.95,10.62,13.25,10.62,13.25,0,0,1.51.12,2.78-1.03"/>
      <path class="cls-4" d="M40.18,66.03s-21.83,8.73-20.61,19.79c1.22,11.06,11.63,10.14,11.63,10.14,0,0,9.48-.53,10.67-9.14"/>
      <path class="cls-4" d="M32.09,11.63s-2.61-8.12,4.54-8.41c0,0,7.77-2.15,8.82,5.41"/>
      <path class="cls-4" d="M16.24,23.44s-11.43-2.22-10.46,12.1c0,0-.39,7.95,3.92,8.23"/>
    </g>
    <path class="cls-2" d="M53.01,41.02s6.49-.38,8.64,3.01c2.15,3.39,2.9,2.63,3.03,5.02.13,2.38,1.51,5.27,0,6.77s-1.94,3.89-5.48,5.14-3.42,3.39-7.06,1.88c-3.64-1.51-7.65-.88-8.03-2.89-.38-2.01-3.01-5.27-2.26-7.78s-.63-5.4,1.76-7.4,3.64-1.51,6.52-2.63l2.89-1.13Z"/>
    <g>
      <path class="cls-9" d="M53.16,44.08s4.71-.27,6.27,2.18,2.1,1.91,2.2,3.64,1.09,3.82,0,4.92-1.41,2.82-3.98,3.73-2.48,2.46-5.12,1.37c-2.64-1.09-5.55-.64-5.83-2.09s-2.18-3.82-1.64-5.64c.55-1.82-.46-3.92,1.27-5.37s2.64-1.09,4.73-1.91l2.09-.82Z"/>
      <path class="cls-9" d="M53.15,44.04c2.18-.16,4.81.03,6.33,1.83.68,1.01,1.27,1.67,2.09,2.6.39.57.35,1.25.4,1.74.11,1.1.48,2.18.41,3.32,0,.58-.33,1.25-.76,1.6-.72.77-1.23,1.83-2.13,2.54-.85.74-2,.98-2.95,1.54-.47.27-.89.62-1.37.93-1.59.96-3.28-.45-4.91-.55-1.04-.22-2.37-.21-3.34-.82-.29-.19-.52-.55-.58-.89-.19-.77-.61-1.46-.95-2.2-.46-1-.99-2.13-.73-3.42.33-1.02.15-2.06.26-3.24.41-4.04,5.41-3.63,8.24-4.96h0ZM53.17,44.12c-1.03.44-1.98.95-3.06,1.3-1.98.5-4.41,1.3-4.48,3.65-.05,1.02.11,2.23-.23,3.35-.2.92.25,1.95.69,2.93.34.77.77,1.53.95,2.38.05.2.12.33.29.47.66.46,2.22.61,3.04.81,1.57.13,3.1,1.64,4.64.85,1.46-1.13,3.02-1.35,4.31-2.39.85-.69,1.27-1.72,1.99-2.62,1.2-1.19.1-3.08.02-4.57.02-1.38-.54-1.73-1.35-2.7-.35-.43-.65-.96-.95-1.36-1.32-1.68-3.83-1.98-5.87-2.1h0Z"/>
    </g>
    <path class="cls-6" d="M53.78,57.09s-2.85.17-3.8-1.32-1.27-1.16-1.33-2.21-.66-2.32,0-2.98.85-1.71,2.41-2.26,1.5-1.49,3.1-.83,3.36.39,3.53,1.27,1.32,2.31.99,3.42.28,2.37-.77,3.25-1.6.66-2.87,1.16l-1.27.5Z"/>
    <g>
      <path class="cls-9" d="M51.38,35.24c-.65-2.83-.71-5.68-.68-8.55-.4-4.75-1.35-9.57-.85-14.31,1.12,4.66.86,9.53,1.11,14.29.35,2.76.91,5.97.42,8.57h0Z"/>
      <path class="cls-9" d="M55.5,34.3c-.19-2.69.21-5.32.7-7.95.36-4.41.2-9,1.46-13.25.36,4.45-.67,8.87-1.2,13.28-.09,2.58-.07,5.64-.96,7.92h0Z"/>
      <path class="cls-9" d="M63.92,36.47c1.24-2.4,2.94-4.45,4.73-6.43,2.6-3.59,4.84-7.59,8.12-10.58-2,3.99-5.18,7.24-7.92,10.73-1.42,2.16-2.98,4.79-4.93,6.28h0Z"/>
      <path class="cls-9" d="M68.01,41.82c1.3-1.55,2.94-2.62,4.65-3.62,2.57-2.03,4.91-4.56,7.95-5.82-2.11,2.58-5.12,4.13-7.8,6.03-1.4,1.27-3.08,2.93-4.81,3.41h0Z"/>
      <path class="cls-9" d="M70.83,45.34c1.57-1.63,3.58-2.64,5.66-3.4,3.19-1.64,6.89-3.66,10.42-3.47-2.37.98-5.82,2.08-8.28,2.87-2.8.8-5.14,3.29-7.8,4.01h0Z"/>
      <path class="cls-9" d="M72.45,53.01c1.79-1.26,3.84-1.91,5.94-2.38,3.27-1.17,6.95-2.87,10.33-2.59-3.31,1.38-6.85,1.8-10.25,2.84-1.89.82-4.08,2-6.02,2.13h0Z"/>
      <path class="cls-9" d="M72.11,55.8c2.16-.95,4.48-1.19,6.8-1.21,3.8-.48,7.83-1.14,11.54,0-3.81.47-7.68-.07-11.51.25-2.2.4-4.74,1.15-6.83.95h0Z"/>
      <path class="cls-9" d="M87.29,65.51c-5.02-3.46-11.24-6.14-17.43-5.06,0,0,0-.42,0-.42,3.23.27,6.27,1.83,8.75,3.87,2.45,2.09,4.64,4.57,6.38,7.17-2.3-2.15-4.45-4.59-6.92-6.51-2.41-1.97-5.18-3.53-8.27-4.11-.12-.01-.21-.13-.19-.25.02-.1.1-.16.19-.17,1.58-.14,3.15-.12,4.73-.03,4.62.18,9.86,2.06,12.76,5.51h0Z"/>
      <path class="cls-9" d="M62.64,65.82c2.64.6,4.94,2.14,6.9,3.96,3.57,2.65,6.92,5.9,8.3,10.25.02.04-.05.07-.07.04-3.11-4.17-5.89-9-10.65-11.45,0,0-4.51-2.72-4.51-2.72-.04-.02-.01-.09.03-.07h0Z"/>
      <path class="cls-9" d="M60.03,66.91c2.13.86,3.8,2.5,5.14,4.33,2.59,2.72,5.01,5.85,5.5,9.7,0,.04-.06.06-.08.02-1.79-3.25-3.22-6.7-5.61-9.55-1.57-1.51-3.69-2.9-4.95-4.5h0Z"/>
      <path class="cls-9" d="M55.25,69.42c1.47,1.4,2.25,3.3,2.68,5.24,1.15,3.05,2.21,6.54,1.09,9.72-.02,0-.03-.02-.03-.04-.24-2.29-.51-5.46-.83-7.72-.27-2.6-2.4-4.84-2.91-7.21h0Z"/>
      <path class="cls-9" d="M52.93,69.89c.67,2.26.72,4.58.63,6.9.29,3.76,1.15,7.98.27,11.54-.76-3.82-.4-7.67-.53-11.53-.31-2.22-.84-4.85-.37-6.92h0Z"/>
      <path class="cls-9" d="M49.74,69.43c.3,2.83.11,5.61-.09,8.42.13,4.68,1.08,9.39.82,14.05-1.37-4.53-1.11-9.36-1.08-14.04-.2-2.73-.46-5.95.35-8.43h0Z"/>
      <path class="cls-9" d="M43.23,67.69c-2.02,1.28-4.46,1.54-6.22,3.16-1.5,1.39-3.52,3.44-4.99,4.87-.02.02-.04.02-.06,0,1-2.93,3.74-4.71,6.33-6.13,1.42-1.1,3.07-1.96,4.91-1.99.04,0,.06.06.02.08h0Z"/>
      <path class="cls-9" d="M44.99,68.37c-2.08,2.38-4.88,3.97-6.58,6.64-1.47,2.29-3.39,5.65-4.8,8.02-.01.02-.04.03-.06.01.71-3.97,3.41-7.19,6.1-10.06.44-.53,1.04-1.32,1.49-1.85.98-.98,2.65-2.48,3.85-2.76h0Z"/>
      <path class="cls-9" d="M35.4,58.57c-2.82.34-5.61.05-8.36.65-3.45,1.09-6.63,2.67-9.87,4.28-.04.02-.08-.04-.05-.07,2.94-2.96,7.05-4.11,11.05-4.71,2.35-.65,4.86-.91,7.24-.23.04,0,.04.08,0,.08h0Z"/>
      <path class="cls-9" d="M37.09,61.13c-2.08.45-4.11.59-6.19.88-3.35.99-6.23,2.95-9.34,4.5-.04.02-.08-.03-.05-.06,2.36-2.77,5.89-3.93,9.32-4.69,1.99-.74,4.14-1.17,6.25-.71.04,0,.04.07,0,.08h0Z"/>
      <path class="cls-9" d="M37.7,63.41c-.95.71-1.99.92-3.09,1.11-1.66.8-3,2.08-4.86,2.5-.04.01-.07-.04-.05-.07.46-.62,1.05-1.1,1.68-1.5.95-.61,2.11-.75,3.13-1.17.94-.63,1.98-1.11,3.17-.94.04,0,.05.06.02.08h0Z"/>
      <path class="cls-9" d="M35.24,50.23c-2.97-.34-5.6-1.85-8.57-1.96-2.6-.09-6.21-.2-8.78-.44,3.34-1.21,7.49-.29,11.02.45,2.12.23,4.77.64,6.34,1.94h0Z"/>
      <path class="cls-9" d="M35.25,53.59c-1.6.16-3.07-.14-4.6-.46-2.58-.01-5.07.64-7.68.39-.04,0-.05-.06-.01-.08.97-.43,2-.66,3.03-.79,1.56-.2,3.12.16,4.68.22,1.57-.15,3.15-.1,4.6.64.04.02.03.08-.01.08h0Z"/>
      <path class="cls-9" d="M40.3,38.9l-2.18-3.9c-1.92-4.13-6.25-6.27-9.93-8.65-.04-.02-.01-.09.03-.07,3.86.73,6.77,3.57,9,6.62,1.57,1.65,2.85,3.67,3.16,5.97,0,.04-.05.07-.08.03h0Z"/>
      <path class="cls-9" d="M43.77,37.82c-1.37-1.49-2.28-3.22-3.18-4.99-1.91-2.69-4.27-5-5.81-7.96,2.64,1.72,4.3,5.11,6.03,7.82,1.29,1.52,2.44,3.15,3.03,5.1.01.04-.04.07-.07.04h0Z"/>
    </g>
  </g>
</svg>