<?xml version="1.0" encoding="UTF-8"?>
<svg id="_오른쪽_위" data-name="오른쪽_위" xmlns="http://www.w3.org/2000/svg" version="1.1" viewBox="0 0 208.13 462.79">
  <defs>
    <style>
      .cls-1, .cls-2, .cls-3, .cls-4, .cls-5, .cls-6, .cls-7, .cls-8, .cls-9, .cls-10, .cls-11 {
        stroke: #111114;
        stroke-linecap: round;
        stroke-linejoin: round;
      }

      .cls-1, .cls-5, .cls-6, .cls-10 {
        stroke-width: 1.2px;
      }

      .cls-1, .cls-12 {
        fill: #111114;
      }

      .cls-2 {
        stroke-width: 1.43px;
      }

      .cls-2, .cls-4, .cls-6, .cls-8, .cls-9 {
        fill: none;
      }

      .cls-13 {
        fill: #ffec2d;
      }

      .cls-13, .cls-12 {
        stroke-width: 0px;
      }

      .cls-3 {
        stroke-width: 1.25px;
      }

      .cls-3, .cls-7 {
        fill: #ff97b5;
      }

      .cls-4 {
        stroke-width: 2px;
      }

      .cls-5 {
        fill: #00d675;
      }

      .cls-7 {
        stroke-width: 1.13px;
      }

      .cls-8 {
        stroke-width: .95px;
      }

      .cls-9 {
        stroke-width: 3px;
      }

      .cls-10, .cls-11 {
        fill: #ff6a37;
      }

      .cls-11 {
        stroke-width: 1.2px;
      }
    </style>
  </defs>
  <path class="cls-5" d="M91.44,186.24s.65,107.68,1.31,136c.66,28.32-.66,96.82-.66,96.82,0,0-5.93-44.46-27.33-54.99-21.41-10.54-19.76-5.27-19.76-5.27,0,0,12.51,3.29,19.43,11.53,6.92,8.23,12.51,8.56,22.72,43.47,10.21,34.91,3.95,48.41,3.95,48.41h14.82s-3.95-63.89-2.96-77.06c.99-13.17.99-141.6.99-141.6l-.7-53.93"/>
  <path class="cls-5" d="M102.84,395.54s8-32.25,10.19-42.58c0,0-11.9-21.61,3.13-41.02,15.03-19.41,80.07-13.78,80.07-13.78,0,0-7.43,5.01-11.19,12.21s-25.99,49.16-40.71,51.35c-14.72,2.19-22.23,5.01-28.49-1.57,0,0-9.57,34.99-12.84,42.81"/>
  <path class="cls-5" d="M91.82,261.6c-4-11.35-15.46-25.17-27.12-28.15-4.04-1.03-8.22-1.37-12.28-2.32-4.06-.95-12.12-5.37-14.86-8.51,0,0-9.85-10.96-6.57-20.41.11,6.28,5.89,11.19,11.93,12.93s12.47,1.2,18.73,1.69c11.43.89,22.74,5.63,29.94,14.54"/>
  <path class="cls-12" d="M115.54,356.09c8.04-21.24,24.55-39.97,45.83-48.54,7.08-2.86,14.62-4.51,22.18-5-3.74.63-7.48,1.23-11.09,2.33-25.73,6.84-45.93,27.49-56.92,51.22h0Z"/>
  <path class="cls-12" d="M117.69,351.25c-3.92-8.56-6.49-18.6-4.05-27.91-.16,1.48-.26,2.96-.28,4.44.11,8,2.07,15.84,4.33,23.48h0Z"/>
  <path class="cls-12" d="M120.35,346.21c-2.74-9.97-5.27-21.3-1.87-31.39-.11.66-.23,1.31-.37,1.95-1.25,9.86.87,19.7,2.24,29.44h0Z"/>
  <path class="cls-12" d="M123.99,340.28c-2.28-9.82-3.65-20.63,0-30.28-.24,1.26-.56,2.48-.69,3.75-1.28,8.82-.11,17.72.69,26.53h0Z"/>
  <path class="cls-12" d="M128.13,334.49c-2.49-8.77-3.18-19.06,1.55-27.2-.37,1.11-.85,2.15-1.1,3.28-2.11,7.78-1.44,16.01-.46,23.92h0Z"/>
  <path class="cls-12" d="M132.41,329.32c-1.31-8.12-1.78-17.98,2.49-25.31-.18.51-.36,1.01-.56,1.51-2.28,7.67-1.9,15.88-1.93,23.81h0Z"/>
  <path class="cls-12" d="M137.31,324.22c-2.02-6.59-1.4-14.19,2.04-20.21-2.12,6.53-2.68,13.39-2.04,20.21h0Z"/>
  <path class="cls-12" d="M141.7,320.27c-1.62-5.37-.5-11.39,2.1-16.27-1.25,5.28-2.34,10.83-2.1,16.27h0Z"/>
  <path class="cls-12" d="M146.33,316.66c-.5-4.74-.08-9.82,2.1-14.12-.86,4.74-1.21,9.38-2.1,14.12h0Z"/>
  <path class="cls-12" d="M150.84,313.63c-.55-4.38.24-9.16,2.81-12.81-1.29,4.24-1.96,8.45-2.81,12.81h0Z"/>
  <path class="cls-12" d="M154.86,311.29c-.35-3.92.54-8.49,3.64-11.17-1.94,3.55-2.57,7.3-3.64,11.17h0Z"/>
  <path class="cls-12" d="M159.3,309.07c-.4-3.34.44-7.2,3-9.52-1.37,3.11-2,6.26-3,9.52h0Z"/>
  <path class="cls-12" d="M163.69,307.22c-.36-2.78.59-6.07,3-7.68-1.31,2.51-1.95,5.03-3,7.68h0Z"/>
  <path class="cls-12" d="M169.31,305.32c-.28-2.1.32-4.35,1.96-5.77-.41,2.1-.87,3.91-1.96,5.77h0Z"/>
  <path class="cls-12" d="M173.16,304c-.3-1.97,1.25-3.94,3.12-4.46-.4.76-1.06,1.58-1.54,2.26,0,0-1.58,2.2-1.58,2.2h0Z"/>
  <path class="cls-12" d="M178.52,303.21c.04-1.8,1.59-3.86,3.53-3.67-1.38,1.17-2.14,2.44-3.53,3.67h0Z"/>
  <path class="cls-12" d="M180.28,303.21c2.94.45,5.82.67,8.11-1.44-1.17,3.24-5.72,3.37-8.11,1.44h0Z"/>
  <path class="cls-12" d="M176.27,303.62c2.68,1.46,4.89,3.54,8.06,3.61-3,1.46-6.47-1.12-8.06-3.61h0Z"/>
  <path class="cls-12" d="M171.27,304.77c2.81,2.94,5.99,5.33,10.09,5.86-4.19.98-8.5-2.07-10.09-5.86h0Z"/>
  <path class="cls-12" d="M166.69,306.14c3.14,3.79,6.62,8.06,11.83,8.69-5.42.86-9.92-4.1-11.83-8.69h0Z"/>
  <path class="cls-12" d="M161.84,307.96c3.53,4.5,7.11,9.69,12.87,11.32-6.19-.22-10.59-6.1-12.87-11.32h0Z"/>
  <path class="cls-12" d="M158.16,309.6c2.78,6.03,6.59,12.21,13.1,14.61-7.08-1.03-11.69-8.06-13.1-14.61h0Z"/>
  <path class="cls-12" d="M153.33,312.14c3.08,7.26,7.92,14.3,15.55,17.18-8.22-1.51-13.84-9.4-15.55-17.18h0Z"/>
  <path class="cls-12" d="M148.43,315.19c2.99,7.75,7.59,16.35,16.28,18.52-1.07-.15-2.19-.24-3.22-.64-7.43-2.61-11.59-10.57-13.06-17.88h0Z"/>
  <path class="cls-12" d="M144.6,317.95c2.77,7.56,7.01,15.46,14.44,19.24,1.01.64,2.17.89,3.27,1.37-9.87-1.54-15.98-11.45-17.71-20.61h0Z"/>
  <path class="cls-12" d="M140.46,321.33c2.77,8.66,8.21,16.79,16.28,21.25.83.41,1.74.85,2.56,1.29-10.07-2.82-17.18-12.47-18.84-22.54h0Z"/>
  <path class="cls-12" d="M135.87,325.63c4.18,8.83,10.1,20.53,20.7,22.28-1.34.02-2.68-.23-3.98-.62-8.97-3.3-14.06-13.02-16.72-21.66h0Z"/>
  <path class="cls-12" d="M131.36,330.52c3.64,8.91,8.87,19.92,19.48,21.43-1.29.04-2.58-.14-3.85-.47-8.88-2.91-13.56-12.46-15.63-20.96h0Z"/>
  <path class="cls-12" d="M127.06,335.9c2.2,8.32,6.79,16.86,14.88,20.64,1.09.62,2.36.93,3.51,1.41-10.58-1.49-17.37-12.02-18.39-22.05h0Z"/>
  <path class="cls-12" d="M122.82,342.09c2.35,7.23,6.11,14.55,13.05,18.28-7.68-2.46-12.1-10.67-13.05-18.28h0Z"/>
  <path class="cls-12" d="M119.41,347.91c.79,5.46,1.76,11.19,7.65,13.27-6.53-.59-8.42-7.73-7.65-13.27h0Z"/>
  <path class="cls-12" d="M47.34,220.72c6.22.42,12.24,2.49,17.82,5.18,9.61,3.83,18.96,8.64,26.54,15.8.05.04-.01.14-.07.09-8.77-5.39-17.17-11.41-26.62-15.54-5.82-2.01-11.76-3.69-17.69-5.42-.07-.02-.05-.13.02-.12h0Z"/>
  <g>
    <path class="cls-12" d="M18.63,57.01c4.23-.36,8.33-.6,12.57-.72-4.06,1.22-8.41,1.46-12.57.72h0Z"/>
    <path class="cls-12" d="M21.56,67.64c3.48-.59,6.85-.95,10.38-1.1-3.3,1.24-6.9,1.61-10.38,1.1h0Z"/>
    <path class="cls-12" d="M9.11,72.17c4.27-.82,8.7-.75,12.94.2-4.35.15-8.6.08-12.94-.2h0Z"/>
    <path class="cls-12" d="M8.99,74.07c4.12-.42,8.24-.29,12.33.39-4.12.42-8.24.29-12.33-.39h0Z"/>
    <path class="cls-12" d="M22.66,80.19c1.45-.17,7.62-.62,7.35,1.62-.22-.66-.86-.79-1.47-.82-1.98-.04-3.94-.18-5.88-.8h0Z"/>
    <path class="cls-12" d="M8.5,80.74c5.21-.67,10.76,1.07,14.66,4.59-4.51-2.58-9.48-4.14-14.66-4.59h0Z"/>
    <path class="cls-12" d="M17.65,88.54c3.48.86,6.71,2.74,9.17,5.34-3.15-1.73-6.11-3.46-9.17-5.34h0Z"/>
    <path class="cls-12" d="M14.21,98.56c3.68,2.32,6.9,5.34,9.44,8.87-3.36-2.77-6.46-5.69-9.44-8.87h0Z"/>
    <path class="cls-12" d="M7.54,107.32c4.19,2.92,7.94,6.49,11.05,10.54-3.9-3.29-7.58-6.81-11.05-10.54h0Z"/>
    <path class="cls-13" d="M207.16,96.72c.13-.24.15-.53.05-.79-1.19-3.32-6.19-5.73-8.92-6.83,2.9-2.39,4.36-4.21,4.55-4.45.2-.25.26-.58.17-.89s-.32-.55-.62-.66c-2.88-1.02-5.71-1.79-8.44-2.38,6.77-5.07,6.92-9.99,6.92-10.22,0-.28-.12-.55-.33-.74-3.8-3.41-11.41-3.49-15.28-3.28,3.37-4.12,5.21-7.22,5.26-7.32.17-.3.18-.67,0-.97-.17-.3-.48-.5-.83-.51l-13.08-.44c-.11,0-.21,0-.32,0,10.16-9.42,9.5-17.15,9.46-17.5-.03-.32-.22-.6-.5-.76-5.24-2.98-17.79,1.33-22.88,3.29,3.41-9.76,2.23-16.36,2.13-16.87-.05-.27-.22-.51-.46-.65-.24-.14-.53-.18-.79-.11-.72.21-1.42.44-2.11.68,1.08-3.48.49-8.75.31-10.1-.05-.41-.36-.74-.76-.83-3.91-.9-9.4,2.67-12.08,4.66-.13-2.17-.28-3.64-.3-3.8-.03-.31-.21-.59-.48-.75-.27-.16-.6-.18-.89-.06-1.1.46-2.15.98-3.17,1.52.84-6.12-1.79-12.67-1.92-12.98-.1-.25-.3-.44-.54-.54-.24-.1-.52-.1-.77,0-5.42,2.32-10.7,7.85-12.91,10.36-.49-1.17-.84-1.89-.9-2.01-.13-.27-.37-.46-.66-.52-.29-.07-.59,0-.83.18-1.05.8-2.03,1.63-2.95,2.47-.82-5.28-6.1-11.66-6.36-11.97-.33-.4-.91-.47-1.33-.17-4.04,2.84-7.64,7.49-9.18,9.62-2-2.3-3.68-3.23-3.9-3.34-.38-.2-.86-.13-1.16.18-.52.53-1.02,1.09-1.49,1.68-1.74-3.98-7.83-7.7-8.65-8.18-.38-.22-.86-.17-1.18.13-3.18,2.95-4.91,8.33-5.67,11.29-1.36-1.7-2.34-2.82-2.47-2.96-.22-.25-.56-.37-.9-.32-.33.05-.62.28-.75.59-.43,1-.82,1.98-1.2,2.95-3.25-6.08-12.65-8.49-13.1-8.6-.27-.07-.56-.02-.79.14-4.37,2.95-4.11,10.05-3.73,13.3-2.54-.82-4.42-1.23-4.64-1.28-.38-.08-.77.07-1,.38-.95,1.28-1.57,2.87-1.96,4.59-5.35-4.98-12.29-2.43-12.37-2.4-.28.11-.5.34-.59.63-1.1,3.48-.28,7.62.34,9.87-1.68-.34-3.43-.6-5.27-.76-.29-.02-.56.08-.77.27-.21.2-.32.47-.3.76,0,.12.25,4.57,2.09,10.81-4.92-2.08-13.23-1.86-13.65-1.84-.48.01-.88.37-.95.84-.95,6.35,2,12.52,3.53,15.2-1.68.21-3.41.55-5.19,1.07-.4.12-.69.47-.71.89-.02.36-.16,4.01,2.18,8.94-3.46-.63-9.99-1.12-13.13,3.23-.13.18-.19.39-.19.61.01.36.29,7.78,5.09,11.54-2.51.41-5.07,1.01-7.68,1.87-.46.15-.74.61-.67,1.09.04.26.46,2.57,2.72,5.5-2.2.33-5.5,1.4-6.89,4.83-.09.22-.09.46-.02.69.07.2,1.57,4.45,6.51,6.28-1.33.95-2.49,2.08-3.28,3.44-.27.46-.13,1.04.32,1.33.08.05,3.25,2.05,8.43,4.2-3.89.77-9.66,2.64-11.92,7.09-.18.35-.13.77.11,1.07.15.18,1.76,2.1,5.31,4.15-1.59,1.38-4.25,4.08-4.86,7.13-.06.31.03.63.24.86.2.22,4.34,4.68,8.57,5.53-.68,1.08-1.32,2.25-1.89,3.54-.19.43-.05.94.34,1.21.18.12,2.29,1.54,6.17,2.67-1.41,1.98-3.9,6.08-3.83,10.3,0,.4.26.76.63.91.28.11,5.41,2.06,9.81,2.06.54,0,1.07-.04,1.58-.11-.91,2.53-1.59,5.38-1.83,8.54-.02.29.09.58.29.78.19.18.44.28.69.28.03,0,.06,0,.1,0,.13-.01,1.42-.15,3.48-.52-.97,1.98-2.18,5.33-2.07,9.51.01.45.32.83.76.93,1.5.36,5.38,1.2,8.4,1.2.56,0,1.07-.04,1.55-.11-.51,3.34-.65,7.02-.13,10.96.04.31.22.57.49.73.15.09.32.13.5.13.13,0,.26-.03.38-.08.27-.11,2.73-1.14,5.91-2.72-.53,2.32-1.08,6.2-.33,10.67.08.48.5.83.98.83.02,0,.05,0,.07,0,.34-.02,7.33-.55,11.35-4.61.03.34.05.68.08,1.03.03.26.16.51.37.67.18.14.39.22.62.22.04,0,.08,0,.12,0,.18-.02,2.12-.28,5.17-1.38.72,2.76,2.8,9.83,5.78,12.53.19.17.43.26.66.26.22,0,.44-.07.63-.22l10.01-8.16c1.12,3.5,2.53,7.24,4.33,11.26.13.29.39.5.71.57.07.01.13.02.2.02.25,0,.49-.09.67-.26.4-.37,8.86-8.23,12.49-15.34,3.59,9.06,8.45,15.12,8.56,15.24.19.23.47.36.77.36,0,0,.02,0,.03,0,.31,0,.59-.16.77-.4.86-1.17,1.62-2.35,2.34-3.53,1.17,2.66,3.76,7.07,8.36,7.8.05,0,.1.01.15.01.27,0,.53-.11.72-.31.22-.23,4.72-4.98,6.01-9.42.87.76,1.76,1.5,2.69,2.18.17.13.38.2.59.2.07,0,.13,0,.2-.02.28-.06.52-.23.66-.47.14-.23,1.51-2.61,2.87-6.48,2.34,1.91,7.92,5.87,14.16,6h.02c.47,0,.88-.33.97-.79.09-.45,1.95-9.78,1.61-15.28,1.16.62,1.89.93,1.93.95.13.05.26.08.39.08.17,0,.34-.04.5-.13.27-.16.45-.43.49-.74.32-2.76.43-5.34.38-7.78,5.81,3.85,14.96,4.81,15.39,4.86.03,0,.07,0,.1,0,.42,0,.8-.27.94-.68,1.92-5.74-1.88-12.19-4.35-15.57,4.54,1.09,8.53,1.32,11.03,1.32,1.68,0,2.69-.1,2.74-.11.29-.03.55-.19.71-.43.16-.24.21-.54.14-.82-.41-1.49-.88-2.91-1.38-4.27,2.4.75,4.71,1.03,6.8,1.03,5.23,0,9.04-1.71,9.28-1.82.25-.12.45-.34.53-.6,1.74-5.53-4.59-12.91-7.6-16.02,5.99-.65,9.85-2.03,9.95-2.06.29-.11.52-.35.61-.65s.03-.63-.17-.88c-1.36-1.77-2.78-3.38-4.23-4.88,6.04-.77,11.67-4.48,11.93-4.66.3-.2.46-.54.44-.9-.4-4.95-6.59-9.73-9.51-11.72,2.54-1.27,3.96-2.34,4.01-2.38.22-.17.35-.42.38-.7.02-.27-.07-.55-.26-.75-.55-.59-1.13-1.16-1.72-1.71,5.67-2.63,8.29-6.82,8.4-7.01.19-.3.19-.68.02-.99-.88-1.59-2.68-3.29-4.85-4.93,4.97-2.29,7.52-7.11,7.64-7.34Z"/>
    <path class="cls-12" d="M91.93,23.95c-.32-1.79,0-3.52.46-5.22.32-2.82.25-6.21,1.75-8.56.03,2.97-.99,5.72-1.49,8.59-.06,1.68.04,3.79-.72,5.19h0Z"/>
    <path class="cls-12" d="M86.57,60.24c-1.21-1.75-1.75-3.8-2.02-5.87-.88-3.25-2.03-7.08-1.08-10.26.44,2.37.74,5.75.97,8.17.15,2.73,2.04,5.37,2.13,7.96h0Z"/>
    <path class="cls-12" d="M88.02,60.43c-.76-2.68-.94-5.42-1.02-8.18-.59-4.53-1.73-9.12-1.42-13.69,1.31,4.42,1.24,9.1,1.68,13.66.46,2.63,1.14,5.7.76,8.2h0Z"/>
    <path class="cls-12" d="M90.19,59.29c.25-4.74.96-9.44.62-14.18-.74-6.06-2.29-11.92-4.08-17.76-.02-.04.05-.07.07-.03,3.28,6.07,4.24,13,4.39,19.81.07,1.19.19,2.88.21,4.09-.08,2.64-.31,5.79-1.22,8.08h0Z"/>
    <path class="cls-12" d="M151.47,61.17c3.14-2.76,6.94-4.59,9.83-7.62,2.5-2.62,6-6.41,8.52-9.06.02-.02.04-.02.06,0-2.49,4.64-6.64,8.11-10.7,11.36-2.23,2.07-4.94,4.41-7.7,5.32h0Z"/>
    <path class="cls-12" d="M142.58,76.99c1.18-3.15,3.56-5.71,6.28-7.64,4.23-3.57,9.57-6.25,15.25-5.76.05,0,.05.07,0,.08-5.36.9-10.74,2.54-15.09,5.88-2.37,2.26-4.43,4.81-6.37,7.47-.02.04-.09,0-.07-.04h0Z"/>
    <path class="cls-12" d="M144.21,79.4c.94-1.48,2.35-2.45,3.86-3.23,1.39-.96,2.62-2.16,4.15-2.89,1.01-.5,2.08-.89,3.21-1.09.04,0,.07.05.03.07-2.25,1.72-4.89,2.61-7.24,4.13-1.23,1.16-2.42,2.28-3.95,3.07-.03.02-.08-.02-.05-.06h0Z"/>
    <path class="cls-12" d="M145.76,82.01c3.22-1.61,6.83-2.2,9.82-4.21,2.59-1.73,6.16-4.35,8.73-6.17.02-.01.04,0,.06,0-2.72,3.67-6.93,5.84-11,7.7-2.33,1.37-4.86,2.48-7.58,2.74-.04,0-.06-.06-.02-.08h0Z"/>
    <path class="cls-12" d="M147.98,84.62c4.82-1.05,9.6-2.42,14.13-4.36,7.36-3.71,13.43-9.55,18.52-15.98.03-.04.09,0,.07.04-4.03,7.39-10.98,12.62-18.47,16.18-1.3.64-3.16,1.55-4.51,2.12-3.04,1.1-6.7,2.11-9.74,1.99h0Z"/>
    <path class="cls-12" d="M150.84,61.7c3.08-1.37,6.2-2.48,9.3-3.76,4.94-2.6,9.23-6.18,13.73-9.46.03-.03.09.02.05.06-3.62,4.38-8.61,7.23-13.67,9.63-2.9,1.7-6.04,3.09-9.39,3.6-.04,0-.07-.06-.02-.08h0Z"/>
    <path class="cls-12" d="M172.34,79.63c2.58-1.82,5.7-2.51,8.18-4.44,2.18-1.68,5.2-4.03,7.48-5.53-2.03,3.15-5.96,5.19-9.3,7.04-1.86,1.28-4.22,2.78-6.36,2.93h0Z"/>
    <path class="cls-12" d="M148.9,89.75c4.06-.57,8.08-.89,12.13-1.4,6.66-1.37,12.96-3.91,19.34-6.21.04-.02.08.05.03.07-5.86,3.61-12.61,5.25-19.33,6.39-1.17.24-2.82.62-4.01.85-2.62.35-5.75.72-8.17.3h0Z"/>
    <path class="cls-12" d="M150.82,94.62c1.37-1.62,3.6-1.82,5.57-1.78,3.24-.41,6.55-1.37,9.8-.87-3.13,1.11-6.51.88-9.78,1.12-1.88.34-3.92,1-5.59,1.52h0Z"/>
    <path class="cls-12" d="M152.12,97.69c4.08-1.05,8.22-1.61,12.38-2.15,4.12-.76,8.15-1.97,12.24-2.84,2.7-.56,5.56-1.11,7.41-3.27-1.25,2.64-4.62,3.46-7.22,4.1-2.73.62-5.48,1.16-8.25,1.56-5.47.72-11.19,2.76-16.56,2.61h0Z"/>
    <path class="cls-12" d="M174.94,79.54c2.06-1.05,4.3-1.46,6.56-1.68,3.6-.78,7.67-2.02,11.2-1.32-3.67.96-7.44.95-11.15,1.58-2.11.59-4.55,1.52-6.62,1.42h0Z"/>
    <path class="cls-12" d="M186.75,95.7c1.55-.29,3-.14,4.52,0,2.51-.28,4.83-1.26,7.39-1.41.04,0,.06.05.03.08-.87.57-1.83.96-2.82,1.22-1.49.42-3.05.26-4.57.37-1.51.33-3.07.43-4.55-.18-.04-.01-.03-.07,0-.08h0Z"/>
    <path class="cls-12" d="M184.5,101.26c-10.13,3.49-20.98,3.95-31.58,3.07-.17,0-.18-.28,0-.29,12.94-1.63,25.95.88,38.55,3.65-6.15-.59-12.88-1.96-19.22-2.65-6.4-.76-12.86-1.24-19.3-.71v-.29c2.64.27,5.29.37,7.94.31,7.89-.19,16.1-1.56,23.61-3.08h0Z"/>
    <path class="cls-12" d="M186.61,96.67c1.27-.31,2.46-.05,3.65.32,2.05.12,4.13-.16,6.06.78.04.01.03.07,0,.08-2.09.48-4.06-.25-6.08-.6-1.24.09-2.46.09-3.63-.5-.03-.02-.03-.07,0-.08h0Z"/>
    <path class="cls-12" d="M152,112.97c2.68-.89,5.49-1.07,8.29-1.02,4.62-.37,9.45-.91,13.94.36-4.62.35-9.28-.31-13.92-.1-2.69.33-5.76,1.01-8.31.76h0Z"/>
    <path class="cls-12" d="M151.83,114.66c1.7-.45,3.39-.32,5.09-.09,2.82-.08,5.77-.69,8.51.14-2.79.79-5.67.21-8.51.12-1.7.23-3.39.36-5.09-.09-.04,0-.04-.07,0-.08h0Z"/>
    <path class="cls-12" d="M151.21,116.56c3.95.04,7.73,1.29,11.67,1.09,3.45-.18,8.29-.45,11.71-.5.04,0,.06.07.01.08-4.79,1.4-9.78,1.07-14.67.63-2.86-.02-6.25-.13-8.72-1.3h0Z"/>
    <path class="cls-12" d="M150.71,118.34c2.91.54,9.42,1.96,12.24,2.42,6.91.67,13.84-.04,20.75-.59.05,0,.06.07.01.08-6.77,1.96-13.88,1.66-20.79.76-1.21-.12-2.94-.25-4.17-.4-2.66-.46-5.82-1.1-8.04-2.28h0Z"/>
    <path class="cls-12" d="M169.92,126.59c3.31.21,6.42,1.49,9.73,1.25,2.85-.2,6.89-.65,9.77-.93.02,0,.04.01.04.04-3.82,1.78-8.19,1.54-12.29,1.12-.72-.03-1.76-.03-2.49-.08-1.55-.22-3.6-.56-4.76-1.4h0Z"/>
    <path class="cls-12" d="M171.25,127.7c2.22-.21,4.37.28,6.46.95,3.48.68,7.59,1.18,10.37,3.27-3.6-.64-6.9-2.15-10.42-3.02-2.09-.28-4.61-.35-6.41-1.21h0Z"/>
    <path class="cls-12" d="M148.6,126.96c3.32-.67,6.77-.33,10.03.47,5.54.86,11.13,2.46,15.51,6.1.04.03,0,.09-.04.07-6-2.75-12.11-6.06-18.84-6.16,0,0-6.66-.4-6.66-.4-.04,0-.05-.07,0-.08h0Z"/>
    <path class="cls-12" d="M147.94,128.93c2.01-.47,4.04-.19,6,.32,3.31.39,6.91.74,9.64,2.77-3.3-.51-6.38-1.95-9.68-2.51-1.93-.11-4.26.05-5.97-.58h0Z"/>
    <path class="cls-12" d="M146.95,130.43c1.51-.2,2.92.22,4.28.77,1.41.34,2.91.33,4.3.79.92.3,1.83.68,2.67,1.21.03.02.02.08-.02.08-2.49-.06-4.66-1.18-7-1.83-1.46-.09-2.89-.25-4.24-.94-.04-.02-.03-.08.01-.08h0Z"/>
    <path class="cls-12" d="M146.03,132.2c4.14,2,8.21,4.01,12.48,5.67,7.28,2.3,14.95,2.85,22.55,3.14.05,0,.05.08,0,.08-7.67,1.14-15.39-.47-22.64-2.96-1.27-.42-3.1-.97-4.38-1.43-2.75-1.15-5.93-2.64-8.02-4.5h0Z"/>
    <path class="cls-12" d="M168.75,147.15c2.77.39,5.32,1.66,7.62,3.2,4.07,2.17,8.08,4.76,10.58,8.75.03.04-.03.08-.06.05-3.48-2.96-6.71-6.22-10.64-8.58-2.41-1.18-5.35-2.08-7.49-3.43h0Z"/>
    <path class="cls-12" d="M163.96,146.62c2.16.45,4.05,1.53,5.83,2.78,3.1,1.64,6.85,3.27,8.9,6.03-3.24-1.6-5.94-3.97-9.02-5.8-1.89-.86-4.27-1.67-5.7-3.01h0Z"/>
    <path class="cls-12" d="M164.28,149.21c2.56.67,4.82,2.01,6.93,3.54,3.74,2.15,7.75,4.32,10.4,7.79-3.7-2.22-6.86-5.26-10.53-7.56-2.24-1.16-4.98-2.22-6.79-3.77h0Z"/>
    <path class="cls-12" d="M140.48,141.41c3.46.57,6.7,2.06,9.68,3.87,5.19,2.6,10.28,5.72,13.86,10.39.03.03-.02.09-.06.06-4.51-3.6-8.86-7.43-13.92-10.22-3.09-1.44-6.72-2.56-9.56-4.1h0Z"/>
    <path class="cls-12" d="M139.76,142.93c1.78.37,3.26,1.32,4.66,2.41,2.47,1.39,5.62,2.7,7.12,5.05-2.7-1.21-4.8-3.25-7.25-4.83-1.52-.7-3.5-1.41-4.52-2.63h0Z"/>
    <path class="cls-12" d="M137.83,143.7c2.73,2.85,5.33,5.74,8.17,8.46,5.09,4.13,11.01,6.98,16.9,9.79.04.02.02.09-.03.08-6.49-1.53-12.08-5.35-17.04-9.67-.89-.73-2.18-1.74-3.06-2.5-1.83-1.77-3.94-4.01-4.94-6.15h0Z"/>
    <path class="cls-12" d="M127.1,153.4c.3,2.56.5,5.03.99,7.54,1.34,4.03,4.02,7.39,6.72,10.62.03.03-.01.09-.05.06-3.79-2.31-5.8-6.46-6.92-10.6-.95-2.4-1.43-5.07-.82-7.62,0-.04.08-.04.08,0h0Z"/>
    <path class="cls-12" d="M128.38,152.8c.75,1.1.98,2.31,1.17,3.57.79,1.95,2.04,3.66,2.3,5.81,0,.04-.05.07-.07.03-.59-.64-1.04-1.37-1.4-2.13-.56-1.14-.65-2.45-1.08-3.63-.63-1.12-1.12-2.29-1-3.63,0-.04.06-.05.08-.02h0Z"/>
    <path class="cls-12" d="M129.16,151.75c2.78,2.51,4.62,5.86,5.92,9.34,2.63,5.56,4.56,11.56,5.28,17.67,0,.04-.06.06-.08.02-2.09-5.79-3.02-11.92-5.43-17.59-1.62-3.25-3.95-6.48-5.68-9.44h0Z"/>
    <path class="cls-12" d="M130.8,151.49c2.48,1.14,4.45,3.1,6.05,5.26,3.03,3.29,5.79,7.09,6.48,11.62,0,.04-.06.07-.08.02-1.99-3.96-3.76-8.05-6.6-11.48-1.83-1.85-4.27-3.57-5.86-5.44h0Z"/>
    <path class="cls-12" d="M143.45,159.54c2.84,1.31,5.22,3.42,7.27,5.74,3.76,3.54,7.31,7.52,9.01,12.49.02.04-.05.08-.07.04-2.58-3.85-5.08-7.68-8.04-11.24-2.4-2.62-5.86-4.58-8.17-7.03h0Z"/>
    <path class="cls-12" d="M145.49,163.14c1.7.88,2.95,2.27,4.05,3.78,2.1,2.14,4.85,4.45,5.65,7.29-2.3-2.11-3.81-4.79-5.84-7.11-1.34-1.17-3.12-2.45-3.87-3.96h0Z"/>
    <path class="cls-12" d="M147.39,168.15c1.16,1.13,1.91,2.43,2.72,3.78,1.71,1.95,4.09,3.28,5.67,5.34-2.61-.81-4.28-3.09-5.87-5.17-1.18-1.07-2.2-2.31-2.59-3.91-.01-.04.04-.07.07-.04h0Z"/>
    <path class="cls-12" d="M131.66,176.87c1.66,2.02,2.77,4.34,3.75,6.73,1.98,3.7,4.66,7.61,5.45,11.62-2.4-3.59-3.8-7.65-5.68-11.5-1.29-2.13-2.98-4.55-3.52-6.85h0Z"/>
    <path class="cls-12" d="M137.44,182.67c1.02.82,1.52,1.94,1.91,3.13,1.09,1.74,2.48,3.33,2.71,5.47,0,.04-.05.07-.07.03-1.5-1.51-1.98-3.53-2.86-5.38-.8-.96-1.51-1.93-1.75-3.21,0-.04.04-.07.07-.04h0Z"/>
    <path class="cls-12" d="M132.33,183.33c1.31,2.78,1.43,5.89,2.92,8.56,1.29,2.34,3.11,5.59,4.24,7.99-2.79-2.35-4.17-6.47-5.41-9.96-.93-1.99-1.99-4.51-1.74-6.59h0Z"/>
    <path class="cls-12" d="M132.01,188.89c.29,1.12.13,2.11-.01,3.19.28,1.77,1.23,3.28,1.4,5.11,0,.04-.04.07-.07.04-.56-.52-.94-1.17-1.21-1.85-.42-1.04-.27-2.18-.38-3.27-.33-1.06-.43-2.21.19-3.23.02-.03.07-.03.08.01h0Z"/>
    <path class="cls-12" d="M117.1,156.34c2.77,2.6,4.72,5.97,6.12,9.48,2.76,5.65,4.76,11.88,4.13,18.25,0,.05-.08.05-.08,0-.78-6.18-1.75-12.41-4.29-18.14-1.71-3.28-4.17-6.53-5.88-9.59h0Z"/>
    <path class="cls-12" d="M99.29,158.2c-.45,2.55-1.68,8.26-2.03,10.74-.41,6.07.59,12.1,1.5,18.09,0,.04-.06.07-.08.02-2.31-5.76-2.33-12.06-1.68-18.14.07-1.07.14-2.59.25-3.67.37-2.33.93-5.16,2.04-7.05h0Z"/>
    <path class="cls-12" d="M114.78,157.48c1.74,1.73,2.84,3.92,3.66,6.19,1.81,3.58,3.54,7.32,3.54,11.42,0,.04-.07.06-.08.01-.9-2.63-2.01-6.42-2.82-9.11-.84-3.06-3.43-5.65-4.3-8.52h0Z"/>
    <path class="cls-12" d="M112.32,158.24c2.03,3.15,3.22,6.79,3.95,10.45,1.68,5.99,2.82,12.27,1.71,18.48,0,.04-.08.04-.08,0-.31-6.17-.43-12.38-1.88-18.41-.78-2.4-2.93-8.02-3.77-10.48-.02-.04.05-.08.07-.03h0Z"/>
    <path class="cls-12" d="M101.42,158.83c-.2,3.01-1.61,5.73-1.62,8.73-.02,2.63-.03,6.27-.22,8.88-1.26-3.35-.46-7.55.17-11.13.15-2.15.46-4.82,1.68-6.48h0Z"/>
    <path class="cls-12" d="M103.61,158.05c.11,2.48-.26,4.86-.67,7.27-.21,4.05.36,8.21-.3,12.2-.97-4-.33-8.17.04-12.22,0-2.36-.03-5.23.92-7.26h0Z"/>
    <path class="cls-12" d="M104.86,158.31c1.12,3.18,1.52,6.88,1.57,10.25.6,5.74,1.01,11.59-.36,17.26,0,.04-.08.04-.08,0-.04-5.76.54-11.48.18-17.23-.44-3.35-1.32-7.06-1.31-10.27h0Z"/>
    <path class="cls-12" d="M112.83,192.08c.33,1.89.15,3.72-.08,5.59.14,3.11.85,6.15.55,9.29-1.29-2.68-.84-6.26-.81-9.29-.25-1.87-.32-3.75.26-5.59.01-.04.08-.04.08,0h0Z"/>
    <path class="cls-12" d="M113.66,192.9c.96,1.35,1.27,2.92,1.39,4.52.33,1.55.96,3.04,1.06,4.64.08,1.06.04,2.13-.19,3.18,0,.04-.07.04-.08,0-.77-2.56-.58-5.18-1.04-7.77-.57-1.48-1.12-2.92-1.21-4.55,0-.04.05-.06.08-.03h0Z"/>
    <path class="cls-12" d="M85.76,157.44c-8.69,8.91-6.74,16.36-6.95,27.58,0,.05-.07.05-.08,0-1.17-6.12-1.14-12.52.88-18.46.88-3.51,2.97-7.53,6.15-9.12h0Z"/>
    <path class="cls-12" d="M87.01,157.58c-1.29,3.32-3.54,6.14-4.37,9.61-.73,2.99-1.55,7.28-2.18,10.33,0,.02-.03.04-.05.03-.52-4.49,1.08-8.89,2.81-12.97.27-.73.6-1.79.88-2.53.72-1.53,1.7-3.5,2.91-4.47h0Z"/>
    <path class="cls-12" d="M88.94,157.7c-.86,3.07-3.04,9.9-3.8,12.88-1.48,7.32-1.55,14.81-1.81,22.26,0,.05-.08.05-.08,0-1.17-7.48-.04-15.02,1.62-22.33.27-1.28.59-3.12.88-4.42.77-2.81,1.74-6.1,3.19-8.41h0Z"/>
    <path class="cls-12" d="M90.73,158.04c-.62,4.14-2.45,7.92-2.94,12.06-.45,3.64-1.06,8.73-1.72,12.3,0,.04-.08.04-.08,0-.39-5.24.85-10.36,2.1-15.41.5-2.99,1.13-6.49,2.65-8.95h0Z"/>
    <path class="cls-12" d="M92.53,158.44c-1.31,6.32-2.78,12.67-2.67,19.15.1,5.72.43,13.79-.12,19.43,0,.05-.08.05-.08,0-.63-8.1-.61-16.2.08-24.3.19-4.76.72-10.15,2.79-14.28h0Z"/>
    <path class="cls-12" d="M74.46,151.95c-4.45,2.85-7.27,7.67-9.12,12.5-1.83,4.98-3.48,9.98-5.47,14.91-.02.04-.09.02-.08-.02,1.23-6.57,3.88-12.71,6.88-18.65,1.46-3.54,3.98-7.82,7.78-8.74h0Z"/>
    <path class="cls-12" d="M75.77,153.51c-1.09,1.43-2.4,2.52-3.72,3.69-1.85,2.27-2.88,5.12-4.69,7.39.38-3.03,2.51-5.39,4.5-7.55.98-1.49,2.19-2.84,3.87-3.58.04-.02.08.03.05.06h0Z"/>
    <path class="cls-12" d="M78.38,154.17c-1.79,2.54-4.45,4.2-6.06,6.84-1.42,2.3-3.37,5.51-4.92,7.7.7-3.62,3.62-6.88,6.07-9.71,1.28-1.81,2.96-3.99,4.91-4.82h0Z"/>
    <path class="cls-12" d="M80.3,155.04c-1.8,2.82-3.76,5.46-5.61,8.22-2.64,4.87-4.18,10.2-6.05,15.4-.01.04-.09.03-.08-.02.52-5.62,3.05-10.74,5.9-15.51.46-.86,1.08-2.1,1.57-2.96,1.17-1.8,2.67-3.98,4.27-5.13h0Z"/>
    <path class="cls-12" d="M73.1,186.07c-1.19,2.27-3.32,3.77-4.3,6.13-.85,2.05-2,4.88-2.98,6.87-.02.04-.08.02-.08-.02.08-1.28.39-2.53.84-3.72.66-1.81,1.88-3.31,2.89-4.92.82-1.61,2.04-3.64,3.63-4.33h0Z"/>
    <path class="cls-12" d="M74.33,185.58c-.27,1.82-1.07,3.41-1.97,4.96-1.06,2.76-1.68,5.85-3.56,8.19.4-3,2.09-5.58,3.32-8.29.47-1.73,1.03-3.42,2.13-4.89.02-.03.08-.01.07.03h0Z"/>
    <path class="cls-12" d="M46.26,189.32c1.47-4.73,4.86-8.43,7.91-12.2.07-.09.2-.1.28-.03.07.05.09.14.07.22-.97,4.91-2.29,10.06-5.59,13.98,2.13-4.3,3.72-9.32,5.19-14.08,0,0,.35.19.35.19-.86.85-1.66,1.76-2.38,2.74-1.21,1.72-2.7,4.34-3.86,6.12,0,0-1.9,3.1-1.9,3.1-.02.04-.09.01-.07-.03h0Z"/>
    <path class="cls-12" d="M64.74,145.35c-2.52,2.23-4.35,5.02-6.52,7.57,0,0-2.05,2.68-2.05,2.68-2.77,3.55-6.56,6.4-10.84,7.86-.04.02-.07-.05-.03-.07,4.69-2.98,9.33-6.17,12.71-10.62,1.75-2.71,3.72-6.25,6.73-7.41h0Z"/>
    <path class="cls-12" d="M67.16,147.51c-3.81,2.66-6.72,6.3-9.3,10.11-3.84,6.53-6.91,14.7-14.53,17.68-.04.02-.08-.05-.03-.07,6.68-4.1,10.29-11.3,14.33-17.76,2.18-3.95,5.31-8.43,9.53-9.96h0Z"/>
    <path class="cls-12" d="M56.76,133.62c-1.51,3.23-4.07,5.85-6.93,7.93-4.47,3.83-9.84,6.94-15.84,7.27-.04,0-.06-.07-.01-.08,5.55-1.68,11.09-3.78,15.69-7.4,2.52-2.41,4.79-5.07,7.03-7.77.03-.04.09,0,.07.04h0Z"/>
    <path class="cls-12" d="M58,136.1c-1.11,3.24-3.4,5.94-6.05,8.04-4.11,3.86-9.31,6.92-15.09,6.95-.05,0-.06-.07,0-.08,5.36-1.38,10.69-3.42,14.93-7.06.7-.68,1.58-1.75,2.19-2.52,1.44-1.61,2.75-3.8,4.03-5.33h0Z"/>
    <path class="cls-12" d="M60.8,138.29c-2.1,3.82-4.79,7.29-7.96,10.28-4.84,5.3-11.3,10.06-18.8,9.84-.05,0-.05-.07,0-.08,7.08-1.15,13.62-4.84,18.62-9.94,2.83-3.19,5.32-7.17,8.15-10.1h0Z"/>
    <path class="cls-12" d="M39.86,160.76c-.71,1.46-2.01,2.41-3.41,3.1-1.29.87-2.47,1.94-3.96,2.46-.98.35-2.02.57-3.07.56-.04,0-.06-.06-.02-.08,1.6-.82,3.9-1.73,5.57-2.41,1.94-.79,2.97-2.68,4.83-3.68.03-.02.08.02.06.05h0Z"/>
    <path class="cls-12" d="M41.2,160.7c-1.19,1.14-2.46,1.97-3.72,2.97-1.72,2.03-2.51,4.58-3.71,6.94-.02.04-.08.03-.08-.02-.15-2.86,1.66-5.21,3.59-7.1.94-1.34,2.22-2.51,3.87-2.86.04-.01.07.04.04.07h0Z"/>
    <path class="cls-12" d="M76.98,65.39c-1.68-5.65-3.01-11.4-5.4-16.8-3.36-6.8-7.55-13.09-12.06-19.18-.03-.04.03-.09.06-.05,6.11,5.95,10.14,13.59,13.25,21.45.56,1.36,1.41,3.29,1.94,4.69,1.04,3.13,2.12,6.79,2.21,9.89h0Z"/>
    <path class="cls-12" d="M66.31,26.3c.77,2.94.28,5.98,1.19,8.86.78,2.53,1.87,6.04,2.44,8.61-2.19-2.86-2.67-7.12-3.19-10.75-.52-2.11-1.07-4.75-.44-6.72h0Z"/>
    <path class="cls-12" d="M66.49,10.28c1.71,1.19,2.8,3,3.54,4.89,1.67,2.93,3.13,6.2,2.62,9.66,0,.04-.07.05-.08,0-.89-3.21-1.32-6.53-2.77-9.55-1.04-1.64-2.63-3.32-3.31-5.01h0Z"/>
    <path class="cls-12" d="M44.43,22.13c1.71.52,3,1.8,3.99,3.23,1.97,2.05,4.05,4.55,4,7.53-.02,0-.03,0-.04-.02-.94-1.77-2.17-4.24-3.15-5.97-1.05-2.03-3.64-3-4.8-4.77h0Z"/>
    <path class="cls-12" d="M73.33,12.22c.27,1.59,0,3.1-.31,4.64-.03,2.6.46,5.16-.13,7.74,0,.04-.07.04-.08,0-.83-2.56-.3-5.17-.04-7.76-.14-1.57-.14-3.13.49-4.63.01-.04.08-.03.08,0h0Z"/>
    <path class="cls-12" d="M51.3,31.89c-1.01-.73-1.61-1.65-2.26-2.64-1.47-1.28-3.3-1.94-4.71-3.34-.03-.02,0-.08.03-.07.82.09,1.57.38,2.27.78,1.06.59,1.74,1.63,2.59,2.45,1,.67,1.88,1.53,2.15,2.78,0,.04-.04.07-.07.04h0Z"/>
    <path class="cls-12" d="M43.38,45.5c4.99,11.18,13.8,21.22,25.7,25.06,0,0-.34.61-.34.61-3.41-2.53-6.47-5.51-9.23-8.73-2.69-3.26-5.3-6.72-7.43-10.32,3.93,4.88,7.79,9.99,12.37,14.34,1.5,1.47,3.07,2.86,4.72,4.15.15.12.18.34.06.5-.1.12-.26.17-.4.11-5.82-2.28-10.97-5.92-15.57-10.1-4.45-4.17-8.33-9.91-9.88-15.62h0Z"/>
    <path class="cls-12" d="M69.76,70.3c-1.54-3.17-2.83-6.38-4.28-9.57-2.89-5.07-6.74-9.46-10.3-14.06-.03-.03.02-.09.06-.06,4.64,3.69,7.78,8.8,10.47,14,1.87,2.97,3.43,6.2,4.13,9.67.01.04-.06.07-.08.03h0Z"/>
    <path class="cls-12" d="M72.28,69.14c-1.02-4.37-2.36-8.68-4.26-12.73-3.65-6.55-9.35-11.71-15.57-15.8-.04-.02,0-.09.04-.07,7.1,2.96,12.27,9.06,15.77,15.74.63,1.16,1.53,2.81,2.09,4.03,1.08,2.72,2.08,6.09,1.93,8.83h0Z"/>
    <path class="cls-12" d="M44.81,59.63c-2.25-2.3-3.48-5.31-5.83-7.48-2.05-1.91-4.92-4.56-6.82-6.6,3.5,1.53,6.21,5.13,8.63,8.18,1.59,1.66,3.49,3.78,4.02,5.91h0Z"/>
    <path class="cls-12" d="M39.44,56.74c-2.01-.68-3.64-2.03-5.06-3.56-2.58-2.13-5.7-4.66-6.65-7.83,1.66,1.74,3.81,4.34,5.36,6.19,1.69,2.15,4.75,3.18,6.35,5.2h0Z"/>
    <path class="cls-12" d="M30.19,69.77c7.03,7.4,16.31,13.4,26.74,13.91,0,0-.13.65-.13.65-3.72-1.02-7.23-2.72-10.48-4.77-3.12-2.07-6.58-4.52-9.1-6.99,4.57,3.1,9.54,6.66,14.51,9.01,1.7.83,3.47,1.52,5.27,2.11.17.06.27.24.21.42-.05.15-.2.24-.35.23-5.18-.66-10.14-2.38-14.85-4.59-4.56-2.26-9.15-5.89-11.82-9.99h0Z"/>
    <path class="cls-12" d="M58.38,82.36c-2.76-1.51-5.17-3.48-7.51-5.53-4.19-3.05-8.79-5.73-12.38-9.47,4.59,2.45,8.44,6.08,12.54,9.26,2.52,1.69,5.51,3.52,7.36,5.74h0Z"/>
    <path class="cls-12" d="M60.02,81.49c-2.29-3.45-4.77-6.76-7.62-9.74-5.17-4.57-11.64-7.38-18.22-9.28-.05,0-.03-.09.01-.08,7.06.56,13.35,4.38,18.38,9.17.91.81,2.2,1.97,3.06,2.86,1.78,2.03,3.7,4.67,4.39,7.08h0Z"/>
    <path class="cls-12" d="M54.83,89.25c-5.22-.9-10.54-3.53-15.27-5.86-8.24-3.79-16.9-7.1-24.02-12.88-.04-.03,0-.09.05-.06,5.34,3.29,13.58,7.27,19.18,10.31,3.16,1.7,6.6,3.14,9.97,4.4,3.28,1.4,6.99,2.81,10.1,4.08h0Z"/>
    <path class="cls-12" d="M34.75,81.1c-2.63-.22-5.12-.89-7.63-1.57-4.28-.68-8.73-.54-12.93-1.55,4.35-.62,8.71.45,12.97,1.29,2.51.27,5.52.6,7.59,1.82h0Z"/>
    <path class="cls-12" d="M51.48,100.03c-3.91.33-7.86-.18-11.68-.99-6.44-.91-13.1-1.98-18.9-5,0-.02.03-.03.05-.02,4.47,1.18,10.65,2.89,15.07,4.01,4.99,1.35,10.63.94,15.47,2.01h0Z"/>
    <path class="cls-12" d="M51.62,97.84c-4.09.34-8-.84-12.01-1.37-4.03-.4-8.03-1.18-11.85-2.54-.11-.04-.16-.15-.13-.26.04-.11.15-.16.26-.13.53.17,1.06.35,1.58.55.05.02.02.08-.02.08-.56-.06-1.11-.14-1.66-.22l.1-.4c3.45.58,8.34,1.76,11.78,2.59,3.87.88,8.32.54,11.95,1.7h0Z"/>
    <path class="cls-12" d="M52.02,96.03c-2.18.19-4.28-.24-6.34-.82-3.43-.52-7.46-.64-10.4-2.33,3.6.16,6.95,1.38,10.44,2.07,2.05.18,4.56.21,6.3,1.08h0Z"/>
    <path class="cls-12" d="M52.81,94.31c-4.52-1.24-8.68-3.49-13.31-4.27-4.01-.69-9.75-1.47-13.82-2.07-.02,0-.04-.02-.03-.05,5.87-.57,11.73.98,17.33,2.65.99.26,2.42.57,3.42.84,2.14.71,4.75,1.62,6.41,2.89h0Z"/>
    <path class="cls-12" d="M50.26,104.94c-3.54.5-7.1.31-10.64-.1-5.9-.22-11.99-.26-17.64-2.02,5.9.15,11.75,1.38,17.65,1.77,3.47.02,7.38-.25,10.62.36h0Z"/>
    <path class="cls-12" d="M50.13,107.28c-2.37.56-4.76.47-7.15.22-3.89.03-8.31.52-11.89-.73,4-.36,7.92.34,11.89.47,2.31-.15,5.04-.53,7.15.03h0Z"/>
    <path class="cls-12" d="M49.72,109.77c-2.88.88-5.89.95-8.86.72-4.95.1-10.01,0-14.67-1.91-.04-.01-.03-.08.02-.08,4.91.5,9.72,1.6,14.65,1.73,2.89-.15,6.14-.72,8.86-.46h0Z"/>
    <path class="cls-12" d="M50.58,115.18c-2.91,1.64-6.26,2.36-9.57,2.59-5.46.85-11.2,1.03-16.41-1.11-.04-.01-.03-.09.02-.08,6.46.79,13.19,2.11,19.55.16,0,0,6.37-1.63,6.37-1.63.04-.01.07.05.03.07h0Z"/>
    <path class="cls-12" d="M51.17,117.42c-3.87,2.51-8.43,3.82-12.98,4.42-7.53,1.38-15.53,1.38-22.64-1.79-.04-.02-.02-.09.03-.08,7.36,1.76,15.04,2.78,22.56,1.59,4.4-.91,8.97-2.77,13.03-4.15h0Z"/>
    <path class="cls-12" d="M52.15,124.23c-1.78,1.66-4.06,2.59-6.38,3.18-3.72,1.43-7.7,2.6-11.71,1.79-.04,0-.04-.08,0-.08,3.9-.61,7.85-.75,11.62-1.95,2.12-.92,4.38-2.38,6.47-2.94h0Z"/>
    <path class="cls-12" d="M52.81,125.97c-2.94,2.26-6.44,3.7-9.99,4.69-5.78,2.11-11.89,3.68-18.09,3-.05,0-.05-.08,0-.08,6.06-.72,12.18-1.28,18-3.16,2.31-.94,7.67-3.49,10.03-4.51.04-.02.08.04.04.07h0Z"/>
    <path class="cls-12" d="M53.38,127.78c-1.27,1.45-2.97,2.33-4.74,2.98-2.72,1.49-5.62,3.23-8.8,3.13,2.75-1.48,5.87-2.03,8.68-3.36,1.52-.96,3.21-2.36,4.86-2.75h0Z"/>
    <path class="cls-12" d="M54.1,129.72c-2.15,2.24-4.9,3.8-7.74,4.97-4.53,2.4-9.39,4.48-14.61,4.51-.04,0-.06-.07-.01-.08,4.89-1.42,9.89-2.48,14.5-4.67,2.6-1.48,5.28-3.57,7.85-4.74h0Z"/>
    <path class="cls-12" d="M29.99,144.09c-1.73,1.34-3.79,2.03-5.89,2.48-3.34,1.18-6.89,2.56-10.47,2.06,3.38-1.11,6.98-1.28,10.39-2.31,1.9-.8,4.05-2.02,5.97-2.24h0Z"/>
    <path class="cls-12" d="M31.64,144.18c-1.48.59-2.9.9-4.37,1.38-2.22,1.29-3.69,3.4-5.41,5.28-.02.03-.08,0-.07-.04.58-2.73,2.99-4.38,5.37-5.47,1.29-.92,2.87-1.54,4.48-1.23.04,0,.05.07,0,.08h0Z"/>
    <path class="cls-12" d="M20.4,126.78c-1.2.79-2.58.92-3.95.85-1.35.15-2.68.6-4.05.51-.91-.05-1.82-.21-2.68-.56-.04-.01-.03-.07,0-.08,2.25-.46,4.45.03,6.69-.13,1.3-.4,2.55-.76,3.97-.67.04,0,.06.06.02.08h0Z"/>
    <path class="cls-12" d="M100.81,57.55c-1.29-4.28-1.7-8.79-1.76-13.23-.52-7.41-.69-14.94,1.21-22.19,0-.05.08-.03.08.01-.47,7.39-1.36,14.76-1.02,22.16.39,4.36,1.34,9.07,1.48,13.25h0Z"/>
    <path class="cls-12" d="M105.24,58.12c.2-3.96.62-7.85.87-11.8-.13-6.58-1.49-13.03-2.57-19.51-.01-.04.06-.07.08-.02,2.46,6.21,2.85,12.93,2.75,19.53.02,1.15.1,2.8.1,3.97-.13,2.55-.36,5.61-1.22,7.83h0Z"/>
    <path class="cls-12" d="M113.4,58.51c.25-4.35,1.14-8.6,2.2-12.8,1.31-7.09,2.31-14.39,4.86-21.13-.97,7.14-3.14,14.12-4.61,21.18-.66,4.2-1.15,8.89-2.45,12.75h0Z"/>
    <path class="cls-12" d="M131.91,66.78c1.05-4.49,3.24-8.66,5.83-12.45,3.99-6.54,8.9-12.71,15.53-16.73.04-.03.08.03.05.06-5.66,5.07-11.21,10.39-15.34,16.81-2.27,3.9-4.07,8.48-6.07,12.3h0Z"/>
    <path class="cls-12" d="M116.69,58.98c.18-2.56.87-4.97,1.61-7.4.78-4.13.88-8.47,2.24-12.45.25,4.25-1.05,8.39-1.99,12.5-.33,2.43-.67,5.35-1.86,7.34h0Z"/>
    <path class="cls-12" d="M133.48,68.12c.72-1.85,1.82-3.4,2.95-4.98,1.47-2.86,2.23-6.13,4.01-8.8-.28,3.3-2.15,6.14-3.78,8.93-.73,1.71-1.7,3.87-3.18,4.85h0Z"/>
    <path class="cls-12" d="M136.44,70.71l3.97-5.02c4.31-4.83,5.99-11.25,8.27-17.18.01-.04.09-.03.08.02-.5,5.45-3.12,10.34-6.13,14.8-.49.8-1.16,1.97-1.68,2.77-1.23,1.66-2.86,3.67-4.5,4.62h0Z"/>
    <path class="cls-12" d="M118.44,60.13c1.97-3.43,3.88-6.88,5.45-10.49,2.11-6.24,2.42-12.9,2.31-19.45,0-.05.07-.06.08,0,1.53,6.56.2,13.35-2.15,19.55-.37,1.1-.9,2.67-1.34,3.76-1.08,2.33-2.58,5.05-4.36,6.64h0Z"/>
    <path class="cls-12" d="M125.15,62.2c2.12-3.99,4.3-7.9,6.19-11.99,2.72-7,3.86-14.46,4.94-21.87,0-.05.08-.04.08,0,.34,7.61-1.86,15.01-4.76,21.97-.49,1.22-1.13,2.99-1.65,4.22-1.28,2.64-2.89,5.69-4.79,7.67h0Z"/>
    <path class="cls-12" d="M133.27,45.19c.49-2.26,1.69-4.23,3.09-6.02,1.9-3.15,4.05-6.89,7.22-8.63-1.56,2.11-3.97,4.93-5.69,6.94-2,2.21-2.72,5.62-4.62,7.71h0Z"/>
    <path class="cls-12" d="M148.33,32c.81-1.65,1.94-2.98,3.11-4.35,1.54-2.55,2.34-5.55,4.08-7.95-.27,3.07-2.17,5.62-3.86,8.09-.78,1.64-1.75,3.18-3.26,4.26-.03.03-.08-.01-.06-.05h0Z"/>
    <path class="cls-12" d="M131.05,24.45c1.09-2.66,3.24-4.62,4.19-7.31.85-2.35,2.01-5.6,3.06-7.85.09,3.4-2.01,6.89-3.7,9.89-.81,1.88-1.92,4.2-3.54,5.27h0Z"/>
    <path class="cls-12" d="M113,26.33c-.43-2.28-.29-4.54-.04-6.81-.05-3.78-.63-7.68.23-11.38.76,3.75.15,7.59.03,11.38.15,2.19.45,4.84-.22,6.81h0Z"/>
    <path class="cls-12" d="M150.06,30.85c.16-1.29.99-2.26,1.98-3.01,1.25-1.55,2.77-3.4,4.91-3.44-1.4,1.47-3.3,2.19-4.71,3.61-.61,1.04-1.15,2.03-2.1,2.88-.03.03-.08,0-.07-.04h0Z"/>
    <path class="cls-12" d="M113.33,23.21c-.04-1.56.55-2.95,1.28-4.27.53-1.39.75-2.91,1.45-4.24.27-.51,1.36-2.44,1.75-2.45-.53,2.48-1.99,4.5-2.95,6.78-.29,1.47-.62,2.89-1.45,4.2-.02.03-.08.02-.08-.02h0Z"/>
    <path class="cls-12" d="M92.09,25.78c-.29-2.24-.21-4.42-.21-6.65-.47-3.68-1.99-7.17-2.62-10.79,2.18,3.13,2.58,7.06,2.88,10.76.4,2.11.76,4.79-.05,6.68h0Z"/>
    <path class="cls-12" d="M85.29,61.64c-2.6-3.02-4.19-6.79-5.11-10.64-1.98-6.29-2.82-13.16-.69-19.53.01-.04.09-.03.08.02-.71,6.47-.87,13.12.86,19.44,1.25,3.65,3.36,7.38,4.86,10.71h0Z"/>
    <g>
      <path class="cls-10" d="M72.42,69.79s19.49-19.49,48.05-8.61c28.56,10.88,32.64,38.08,31.73,48.05-.91,9.97-7.59,44.42-39.83,48.5-32.24,4.08-47.2-5.89-58.53-30.37-11.33-24.48,7.25-55.3,18.58-57.57Z"/>
      <path class="cls-6" d="M96.95,58.32s-11.64-35.11,4.36-51.3c0,0,17.85,9.29,8.16,51.3"/>
      <path class="cls-6" d="M112.15,30.55s2.82-11.52,14.17-20.19c0,0,7.01,14.19,4.84,27.21s-9.3,24.16-9.3,24.16"/>
      <path class="cls-6" d="M128.91,65.24s7.26-32.18,35.47-40.36c0,0,4.51,23.03-25.95,47.82"/>
      <path class="cls-6" d="M131.18,26.69s6.99-7.99,16.84-12.16c0,0,1.17,11.29,0,19.16"/>
      <path class="cls-6" d="M139.86,74.22s6.32-16.9,37.7-16.35l13.19.44s-16.19,28.05-42.81,28.43"/>
      <path class="cls-6" d="M168.09,80.92s16.81-3.46,35.17,3.04c0,0-15.26,19.5-51.28,17.51"/>
      <path class="cls-6" d="M152.2,109.22s29.87-6.9,45.89,10.46c0,0-19.1,15.02-47.77,0"/>
      <path class="cls-6" d="M149.22,123.54s27.67-1.51,46.03,22.36c0,0-27.43,10.17-50.69-11.19"/>
      <path class="cls-6" d="M141.89,139.19s27.16,3.03,35.01,31.91c0,0-30.05,3.33-40.48-25.12"/>
      <path class="cls-6" d="M132.33,149.62s20.69,10.13,17.19,40.51c0,0-26.13-11.21-24.91-35.81"/>
      <path class="cls-6" d="M107.29,158.26s15.02,27.52-2.67,51.56c0,0-21.2-25.89-7.84-51.25"/>
      <path class="cls-6" d="M112.58,191.14s6.06,9.33,13.9,15.17c0,0,8.1-13.84,4.88-30.62"/>
      <path class="cls-6" d="M119.93,156.09s4.35,2.33,5.16,5.67"/>
      <path class="cls-6" d="M82.8,156.4s-18.74,13.35-.88,53.41c0,0,10.63-9.83,13.33-17.35"/>
      <path class="cls-6" d="M71.04,150.54s-20.17,13.37-17,44.25c0,0,9.47-1.15,20.43-10.76"/>
      <path class="cls-6" d="M60.09,193.05s2.3,10.1,5.81,13.27l11.26-9.19"/>
      <path class="cls-6" d="M83.36,62.48s-20.06-14.01-3.16-53.53c0,0,10.73,12.16,12.66,20.46,1.93,8.31,2.08,27.62.73,29.51"/>
      <path class="cls-6" d="M75.23,67.43s-6.94-36.05-40.79-38.86c0,0,1.35,31.32,31.22,45.17"/>
      <path class="cls-6" d="M61.5,78.3s-15.21-30.19-42.08-22.37c0,0-1.24,21.12,36.4,31.7"/>
      <path class="cls-6" d="M53.94,91.97s-22.06-17.59-49.06-8.67c0,0,2.87,18.38,46.21,18.84"/>
      <path class="cls-6" d="M20.4,97.26s-12.83,1.18-16.62,7.65c0,0,22.39,14.42,46.56,7.46"/>
      <path class="cls-6" d="M15.65,110.47s-11.75.68-15.05,7.15c0,0,8.31,10.26,31.28,8.92,0,0,15.43-1.51,19.63-5.82"/>
      <path class="cls-6" d="M23.08,126.48s-10.02,2.5-14.91,13.62c0,0,8.8,6.11,24.68,3.05,15.88-3.05,22.87-11.93,22.87-11.93"/>
      <path class="cls-6" d="M32.85,143.16s-10.51,8.06-11.61,22.48c0,0,31.18-3.1,40.39-24.7"/>
      <path class="cls-6" d="M42.17,159.58s-9.93,12.28-7.73,29.14c0,0,17.55-7.28,20.87-13.66"/>
      <path class="cls-6" d="M127.81,13.86s6.87-8.52,13.75-11.47c0,0,3.37,8.24,1.44,14.69"/>
      <path class="cls-6" d="M148.42,20.24s8.12-6.81,12.88-5.71c0,0,1.4,10.56-1.87,12.11"/>
      <path class="cls-6" d="M161.39,43.55s18.2-7.8,24.42-4.26c0,0,.88,8.51-11.21,18.59"/>
      <path class="cls-6" d="M184.05,67.41s12.13-1.52,17.01,2.87c0,0-.05,5.53-8.51,10.88"/>
      <path class="cls-6" d="M185.23,96.32s16.32,7.62,19.49,13.35c0,0-2.95,4.84-9.47,7.3"/>
      <path class="cls-6" d="M197.4,89.39s8.66,2.85,10.12,6.94c0,0-3.03,5.88-8.89,7.6"/>
      <path class="cls-6" d="M192.66,122.77s10.13,6.06,10.61,12.04c0,0-7.08,4.74-13.73,4.69"/>
      <path class="cls-6" d="M183.37,148.16s10.98,10.07,8.91,16.65c0,0-8.49,3.9-17.54,0"/>
      <path class="cls-6" d="M160.45,169.17s8.65,9.43,6.09,17.12c0,0-11.34-1.14-16.71-6"/>
      <path class="cls-6" d="M53.94,35.04s-2.86-13.16,1.43-18.93c0,0,15.66,3.34,19.11,10.94"/>
      <path class="cls-6" d="M26.05,54.72s-5.46-7.99-4.25-16.05c0,0,11.8-.36,15.44,3.05"/>
      <path class="cls-6" d="M22.61,66.39s-10.47-3.14-14.44,2.36c0,0,.27,9.8,7.22,12.29"/>
      <path class="cls-6" d="M8.73,89.86s-6.23-.3-8.13,4.4c0,0,1.77,5.23,8.13,6.31"/>
      <path class="cls-6" d="M6.99,122.27s-4.93,3.55-5.74,7.58c0,0,5.33,5.83,9.71,5.4"/>
      <path class="cls-6" d="M15.55,143.03s-4.67,5.49-4.58,10.99c0,0,8.59,3.32,12.8,1.46"/>
      <path class="cls-6" d="M26.81,164.7s-3.23,4.47-3.05,11c0,0,9.11,2.16,11.09.65"/>
      <path class="cls-6" d="M42.37,184.96s-2.11,5.59-.93,12.57c0,0,9.12-.62,12.26-6.28"/>
      <path class="cls-6" d="M107.98,204.52s2.38,8.26,8.41,9.21c0,0,5.91-6.18,6.13-10.79"/>
      <path class="cls-6" d="M129.76,198.52s6.97,6.65,14.81,6.81c0,0,2.5-12.4,1.36-17.07"/>
      <path class="cls-6" d="M105.74,11.2s4.6-6.93,9.81-10.6c0,0,7.23,8.65,6.22,13.81"/>
      <path class="cls-6" d="M83.95,13.57s1.61-8.99,5.89-12.97c0,0,9.17,5.44,8.72,9.76"/>
      <path class="cls-6" d="M61.5,17.91s-2.1-10.58,3.1-14.1c0,0,12.03,2.99,13.43,10.6"/>
      <path class="cls-6" d="M41.31,29.66s-2.36-6.26-.86-11c0,0,7.66-2.92,12.76,3.67"/>
    </g>
    <path class="cls-9" d="M75.56,73.97s17.37-17.37,42.82-7.68c25.45,9.69,29.08,33.93,28.28,42.82-.81,8.89-6.77,39.59-35.5,43.22-28.73,3.64-42.06-5.25-52.16-27.06s6.46-49.28,16.56-51.3Z"/>
    <path class="cls-3" d="M78.33,77.65s15.51-15.51,38.22-6.85c22.72,8.65,25.96,30.29,25.24,38.22-.72,7.93-6.04,35.34-31.69,38.58-25.65,3.25-37.55-4.69-46.56-24.16-9.02-19.47,5.77-43.99,14.78-45.8Z"/>
    <path class="cls-4" d="M81.51,81.89s13.36-13.36,32.93-5.9c19.57,7.46,22.37,26.09,21.74,32.93s-5.2,30.44-27.3,33.24c-22.09,2.8-32.34-4.04-40.11-20.81-7.77-16.77,4.97-37.9,12.74-39.45Z"/>
    <path class="cls-11" d="M84.22,85.5s11.53-11.53,28.41-5.09c16.89,6.43,19.3,22.52,18.76,28.41-.54,5.9-4.49,26.27-23.56,28.68-19.07,2.41-27.91-3.48-34.61-17.96-6.7-14.48,4.29-32.7,10.99-34.04Z"/>
    <path class="cls-7" d="M90.13,93.36s7.54-7.54,18.6-3.33c11.05,4.21,12.63,14.74,12.28,18.6-.35,3.86-2.94,17.19-15.42,18.77s-18.27-2.28-22.65-11.75c-4.39-9.47,2.81-21.4,7.19-22.28Z"/>
    <path class="cls-1" d="M94.56,99.26s4.55-4.55,11.22-2.01,7.62,8.9,7.41,11.22c-.21,2.33-1.77,10.38-9.31,11.33-7.53.95-11.03-1.38-13.67-7.09-2.65-5.72,1.69-12.92,4.34-13.45Z"/>
    <path class="cls-2" d="M87.41,89.75s9.37-9.37,23.11-4.14c13.73,5.23,15.7,18.31,15.26,23.11-.44,4.8-3.65,21.37-19.16,23.33-15.51,1.96-22.7-2.83-28.15-14.61s3.49-26.6,8.94-27.69Z"/>
    <path class="cls-8" d="M92.53,96.56s5.92-5.92,14.6-2.62c8.68,3.31,9.92,11.57,9.64,14.6s-2.31,13.5-12.1,14.74c-9.8,1.24-14.34-1.79-17.79-9.23-3.44-7.44,2.2-16.8,5.65-17.49Z"/>
  </g>
</svg>