<?xml version="1.0" encoding="UTF-8"?>
<svg id="_오른쪽_위" data-name="오른쪽_위" xmlns="http://www.w3.org/2000/svg" version="1.1" viewBox="0 0 95.41 215.96">
  <defs>
    <style>
      .cls-1 {
        stroke-miterlimit: 10;
        stroke-width: 1.39px;
      }

      .cls-1, .cls-2, .cls-3, .cls-4, .cls-5, .cls-6 {
        stroke: #111114;
      }

      .cls-1, .cls-5 {
        fill: #ffec2d;
      }

      .cls-2 {
        fill: #00d675;
      }

      .cls-2, .cls-3, .cls-4, .cls-5, .cls-6 {
        stroke-linecap: round;
        stroke-linejoin: round;
        stroke-width: 1.2px;
      }

      .cls-3 {
        fill: none;
      }

      .cls-7 {
        fill: #111114;
        stroke-width: 0px;
      }

      .cls-4 {
        fill: #ff6a37;
      }

      .cls-6 {
        fill: #00b2ff;
      }
    </style>
  </defs>
  <path class="cls-2" d="M9.68,214.38c-.56-1.56,2.22-6.57,4.64-9.43,4.93-6.4,9.39-13.38,12-21.07,9.46-27.19-9.68-39.12-19.97-61.07-6.97-14.69-8.43-32.95.29-47.22,3.84-7.08,13.23-15,20.8-12.76,4.82,1.55-.39,4.35-2.55,5.4-9.93,4.42-17.64,16.73-18.29,27.18-1.13,15.45,9.85,34.67,17.83,47.5,3.14,5.2,5.12,9.91,7.05,14.97,3.64,9.51,3.03,21.56-.84,30.68-2.46,6.4-5.42,11.53-9.17,17.34-1.84,2.94-4.53,6.09-6.89,7.76-2.62,1.95-4.57,2.24-4.88.81l-.02-.09Z"/>
  <g>
    <g>
      <path class="cls-5" d="M26.44,86.54c-.65-5.31-1.31-10.61-1.96-15.92-3.45,1.22-6.91,2.45-10.36,3.67,1.14-3.57,3.1-6.94,5.68-9.75-3.73-3.78-7.96-7.07-12.56-9.76,4.93-1.79,10.48-1.32,14.72,1.25,9.66,5.85,11,20.98,4.48,30.5Z"/>
      <path class="cls-1" d="M53.56,2.85c4.07-3.68,4.37,2.95,7.28,3.54,2.9.59,5.22,7.04,6.27,5.02,1.05-2.02,6.39,1.61,12.04,6.15,5.65,4.54,2.59,12.16,2.59,12.16,0,0,6.91,1.79,11.7,6.96,4.79,5.17-5.3,10.31-5.3,10.31-.01,1.28,2.61,7.17-12.7,20.97-15.32,13.8-15.95,6.09-29.77,8.88-13.81,2.79-20.84-14.56-21.97-15.6-17.25-15.81,1.84-27.09,7.87-39.11,6.03-12.02,14.61-17.5,18.23-20.38,3.62-2.88,3.78,1.11,3.78,1.11"/>
      <path class="cls-5" d="M88.12,46.98s10.09-5.14,5.3-10.31c-4.79-5.17-11.7-6.96-11.7-6.96,0,0,3.06-7.62-2.59-12.16s-10.99-8.17-12.04-6.15-3.37-4.43-6.27-5.02-3.21-7.22-7.28-3.54"/>
      <path class="cls-4" d="M65.22,36.6s12.73-6.53,11.91-14.88-10.52,1.46-10.52,1.46l-7.06,10.87"/>
      <path class="cls-4" d="M66.13,38.52s12.02-8.51,18.52-3.68c6.49,4.83,2.76,5.54,2.76,5.54,0,0-13.76.68-19.82,3.58"/>
      <path class="cls-4" d="M58.04,33.87s10.89-13.84,6.79-19.34c-4.1-5.5-4.88-5.23-5.16-4.88s-1.59,2.44-1.41,3.14,1.31,2.75-.6,7.68c-1.91,4.93-2.99,9.67-2.99,9.67"/>
      <path class="cls-6" d="M23.68,61.23c1.14,1.04,8.16,18.4,21.97,15.6s14.45,4.92,29.77-8.88c15.32-13.8,12.69-19.69,12.7-20.97s-3.68-5.72-6.83-2.63c-3.15,3.09-7.06,4.8-8.67,4.65-.58-.05-1.68-1.05-2.86-2.37-2.08-2.32-4.4-5.63-4.58-6.52-.28-1.39,2.85-1.75.03-3.51-2.82-1.76-4.2-1.74-5.67-2.55s-2.57,1.03-3.88-1.56-1.28-3.56-1.59-4.81c-.3-1.25-3.16.46-1.28-2.84,1.89-3.29,2.22-6.77,2.22-6.77l-.36-7.23s-1.88-.47-1.68-2.6.57-5.39.57-5.39c0,0-.16-3.99-3.78-1.11-3.62,2.88-12.2,8.36-18.23,20.38-6.03,12.02-25.12,23.3-7.87,39.11Z"/>
      <path class="cls-3" d="M72.4,48.62c-3.12,4.46-8.26,7.11-13.48,8.63s-10.68,2.07-15.97,3.32c-5.3,1.24-10.61,3.29-14.39,7.21"/>
      <path class="cls-3" d="M51.57,27.27c-10.7,9.83-20.01,21.18-27.57,33.59"/>
      <path class="cls-7" d="M28.1,68.51c.39,1.12.15,2.12-.19,3.15-.07,1.38.73,3.59-.18,5.29-.97-1.69-.35-3.53-.12-5.31-.21-1.08-.26-2.15.39-3.15.02-.04.08-.03.09.01h0Z"/>
      <path class="cls-7" d="M25.66,65.48c-.5,1.05-1.37,1.53-2.35,1.94-.81.6-1.34,1.57-2.2,2.12-.56.38-1.16.7-1.88.88-.04.01-.08-.03-.06-.07.82-1.67,2.52-2.24,3.96-3.17.64-.83,1.35-1.57,2.47-1.77.04,0,.08.04.05.07h0Z"/>
      <path class="cls-7" d="M22.62,60.89c-1.36-.22-2.36-.97-3.35-1.81-1.9-.92-4.24-1.26-5.66-2.91,2.28,0,3.98,1.53,5.81,2.65,1.25.37,2.43.88,3.25,1.99.03.03,0,.09-.05.08h0Z"/>
    </g>
    <g>
      <path class="cls-7" d="M63.1,34.98c.74-1.8,2.03-3.13,3.44-4.38,1.19-1.42,1.99-3.16,3.24-4.54.82-.93,1.69-1.81,2.72-2.57.04-.03.1.02.08.06-1.26,2.95-3.71,4.93-5.79,7.25-.95,1.62-1.99,3.15-3.61,4.24-.04.03-.1-.02-.08-.06h0Z"/>
      <path class="cls-7" d="M56.36,32.67c.14-2.03,1.02-3.77,2.07-5.44.8-1.77,1.2-3.73,2.17-5.43.63-1.14,1.36-2.22,2.27-3.19.03-.04.1,0,.09.05-.8,3.22-2.79,5.79-4.23,8.7-.51,1.89-1.07,3.72-2.27,5.34-.03.04-.1.02-.09-.03h0Z"/>
      <path class="cls-7" d="M67.06,42.19c1.01-1.53,2.67-2.31,4.38-2.7,2.58-1.2,5.71-2.46,8.46-1.18-1.13.31-2.29.39-3.39.58,0,0-3.32.43-3.32.43-2.28.31-3.77,2.24-6.07,2.94-.04.02-.09-.04-.06-.08h0Z"/>
      <path class="cls-7" d="M22.54,60.61c-.53-9.27,7.2-15.67,11.96-22.7,5.04-7.09,10.34-13.97,16.14-20.45.04-.05.11.01.08.06-4.84,7.24-10.18,14.08-15.79,20.73-5.44,6.51-11.08,14.04-12.4,22.36h0Z"/>
      <path class="cls-7" d="M21.1,58.78c-.88-4.49.22-9.23,2.26-13.27,1.83-3.5,5.28-7.99,7.51-11.3,5.11-7.44,10.47-14.68,16.35-21.53.04-.05.12.01.08.06-4.9,7.58-10.31,14.79-15.99,21.8-5.73,6.75-10.17,15.48-10.21,24.24h0Z"/>
      <path class="cls-7" d="M25.4,64.25c2.55-4.27,5.79-8.01,9.24-11.55,5.28-6.31,10.55-12.71,17.17-17.69.04-.04.11.03.07.07-5.37,6.24-11.5,11.71-16.99,17.83-3.01,3.78-6.08,8.23-9.49,11.34h0Z"/>
      <path class="cls-7" d="M26.46,66.87c2.02-4.22,5.25-7.77,8.85-10.71,5.6-5.36,12.16-10.03,19.87-11.68.05-.01.09.07.03.09-6.95,3.25-13.91,6.71-19.68,11.82-3.16,3.35-6.05,6.95-8.98,10.53-.03.05-.11,0-.08-.05h0Z"/>
      <path class="cls-7" d="M27.08,67.06c3.31-4.52,7.95-7.87,12.87-10.46,7.85-4.84,16.5-8.61,25.44-10.87.06-.02.09.07.03.09-8.35,3.92-17.3,6.45-25.31,11.05-4.59,2.94-9,6.89-13.04,10.18h0Z"/>
      <path class="cls-7" d="M28.77,69.07c4.43-1.89,9.37-.14,13.74,1,14.03,4.14,26.75-5.98,37.07-14.26.04-.04.11.03.07.07-9.76,10.59-22.57,17.67-37.33,14.99-2.3-.47-4.48-1.26-6.72-1.68-2.23-.45-4.54-.62-6.79-.04-.06.02-.09-.07-.03-.09h0Z"/>
      <path class="cls-7" d="M29.55,69.53c1.89-2.62,5.37-3.69,8.48-3.72,3.13.07,6.22.69,9.34.3,6.17-.68,11.98-2.81,17.27-6.06.05-.03.11.04.06.08-4.6,4.3-11.03,6.6-17.31,6.53-6-.2-12.97-.86-17.85,2.87h0Z"/>
    </g>
  </g>
</svg>