<?xml version="1.0" encoding="UTF-8"?>
<svg id="_오른쪽_위" data-name="오른쪽_위" xmlns="http://www.w3.org/2000/svg" version="1.1" viewBox="0 0 39.28 39.84">
  <defs>
    <style>
      .cls-1 {
        fill: #ffec2d;
      }

      .cls-1, .cls-2 {
        stroke-width: 0px;
      }

      .cls-3 {
        fill: #00b2ff;
      }

      .cls-3, .cls-4 {
        stroke: #111114;
        stroke-linecap: round;
        stroke-linejoin: round;
        stroke-width: .9px;
      }

      .cls-2 {
        fill: #111114;
      }

      .cls-4 {
        fill: none;
      }
    </style>
  </defs>
  <path class="cls-1" d="M38.47,25.7c-.93-3.88.52-1.42.34-5.61-.18-4.06-6.42-3.97-6.8-3.96v-.02c1.47-.69,2.76-1.47,3.62-2.26,2.44-2.23,1-5.55-5.07-8.89-2.08-1.14-3.76-.26-5.07,1.4l.07-.09s-1.72-8.91-8.96-4.72c0,0-.52,2.68-1.68,2.26s-7.46-1.89-6.3,3.49c.47,2.15.41,3.23.76,4.12h0s-5.62-2.25-6.63,2.52c0,0-3.91,3.14-1.51,6.49,1.37,1.91,4.1,3.16,7.18,3.02,0,0,0,0,0,0h-.04s-4.38,2.53-3.37,6.9c0,0,.94,3.01,3.75,2.12,0,0-1.67,5.97,5.17,3.9,0,0,1.18-.26,2.54-2.11l.04.02-.08.03s.59,7.4,7.87,4.27c0,0,9.32.89,6-9.68h0s0,0,0,0c.37.32.72.6,1.07.82,2.86,1.82,8.04-.16,7.1-4.04ZM24.97,7.1h-.06s.57-.71.57-.71c-.18.22-.34.47-.51.71Z"/>
  <g>
    <path class="cls-3" d="M19.93,15.05s-1.65.48-1.58,1.85-1.34-.89-1.61.3c-.28,1.19-2.25,3.05.26,4.69s4.12,1.34,4.57,1.06,2.7-2.07,2.17-3.55-.26-3.43-3.81-4.35Z"/>
    <path class="cls-4" d="M21.8,15.81c.05-.32,2.68-14.16,8.75-10.83s7.52,6.66,5.07,8.89c-2.44,2.23-8.37,4.47-12.17,4.48"/>
    <path class="cls-4" d="M31.97,16.14s6.65-.23,6.84,3.96-1.27,1.73-.34,5.61c.93,3.88-4.25,5.86-7.1,4.04s-6.61-7.64-8.52-7.92"/>
    <path class="cls-4" d="M25.55,6.29s-1.72-8.91-8.96-4.72c0,0-.52,2.68-1.68,2.26s-7.46-1.89-6.3,3.49c1.16,5.38-.93,4.03,8.12,9.88"/>
    <path class="cls-4" d="M9.37,11.43s-5.62-2.25-6.63,2.52c0,0-3.91,3.14-1.51,6.49s8.99,4.68,14.33.04"/>
    <path class="cls-4" d="M8.37,23.48s-4.38,2.52-3.37,6.9c0,0,.94,3.01,3.75,2.12,0,0-1.67,5.97,5.17,3.9,0,0,4.57-.98,6.15-13.23"/>
    <path class="cls-4" d="M16.43,34.34s.59,7.4,7.87,4.27c0,0,9.32.89,6-9.68"/>
  </g>
  <g>
    <path class="cls-2" d="M22.53,15.98c.15-1.32,1.06-2.19,2.02-2.95,1.13-1.62,1.73-3.37,2.5-5.2.01-.04.08-.04.09,0,.31.8.2,1.72-.1,2.5-.44,1.21-1.51,1.92-2.26,2.88-.54,1.09-1.15,2.04-2.17,2.81-.03.03-.09,0-.08-.04h0Z"/>
    <path class="cls-2" d="M23.32,17.44c.15-1.38,1.19-2.35,2.37-2.89.95-.73,2.11-1.52,3.06-2.09.6-.4,1.15-.87,1.42-1.68,0-.04.07-.05.09,0,.36.89-.23,1.92-.94,2.47-1.1.85-2.42.73-3.45,1.54-.82.94-1.44,1.87-2.47,2.7-.03.03-.09,0-.08-.04h0Z"/>
    <path class="cls-2" d="M33.56,19.65c-2.21,1.22-5.03,1.34-7.37.41-.74-.27-1.66-.32-2.2.22l-.07-.28c3.11.45,6.06,2.23,7.81,4.86.53.88,1.16,1.66,2.2,1.78-1.03.49-2.19-.58-2.8-1.32-2-2.19-4.45-4.09-7.3-5.01-.08-.02-.13-.11-.11-.19.66-.7,1.75-.56,2.56-.46,2.45.32,4.78.3,7.25-.1.05,0,.07.06.03.09h0Z"/>
    <path class="cls-2" d="M22.17,23.05c.99.6,1.35,1.6,1.52,2.65.39.95,1.13,1.77,1.31,2.81.13.68.16,1.39-.03,2.1,0,.04-.07.05-.09.01-1.02-1.48-.91-3.19-1.46-4.81-.64-.82-1.21-1.59-1.32-2.72,0-.04.04-.07.08-.05h0Z"/>
    <path class="cls-2" d="M20.99,23.36c.06.79.35,1.34.51,2.1.06.79.16,1.57.26,2.37.08,1.65-.75,2.88-.86,4.44-.64-.58-.61-1.65-.44-2.4.24-1.14,1.14-2.02.86-3.17-.29-.72-.84-1.32-.8-2.18,0-.42.09-.88.39-1.19.03-.03.08-.01.08.03h0Z"/>
    <path class="cls-2" d="M16.47,21.88c0,.76-.57,1.39-1.15,1.76-.59.34-1.34.33-1.88.77-1.13.77-1.53,2.85-3.25,2.47-.22-.03-.4-.22-.33-.45.25-.54,1.01.01,1.43.13.02.01.03.04.02.06-.34.16-.73.2-1.09.26,0,0,.08-.68.08-.68.72-.11,1.27-1.27,2.01-1.65,1.06-.43,1.76-.8,2.56-1.59.52-.36.99-.65,1.51-1.12.03-.03.08,0,.08.04h0Z"/>
    <path class="cls-2" d="M18.25,23.11c-.67.36-1.61,1.28-2.03,1.87-.39.97-.12,2.14-.82,3.03-.39.57-1.39,1.23-2.04.82.6-.39.94-.83,1.24-1.35.83-1.42,1.18-2.02,1.66-3.66.35-.64,1.25-1.13,1.98-.79.04.02.04.07,0,.09h0Z"/>
    <path class="cls-2" d="M9.47,15.22c.5.45,1.05.78,1.62,1,1.22.48,2.62.15,3.83.84.6.33,1.21.86,1.25,1.68,0,.06-.03.12-.08.15-1,.57-1.83,1.61-3.13,1.74-2.01.06-3.34-2-5.34-1.43-.04.02-.08-.05-.05-.08,1.65-1.34,3.71.38,5.37.6,1.02-.09,1.9-.84,2.96-1.16,0,0-.12.17-.12.17.11-.58-.41-1.16-1-1.34-1.27-.3-2.76.28-3.99-.54-.63-.36-1.14-.92-1.4-1.56-.02-.04.04-.09.07-.05h0Z"/>
    <path class="cls-2" d="M18.3,16.06c-.38-.67-.91-.92-1.46-1.37-.54-.55-1.17-.95-1.82-1.41-.65-.51-.86-1.39-1-2.14-.06-.72-.22-1.61.07-2.3.92,1.2.85,2.83,1.32,4.13.32.73,1.13.86,1.82,1.08.71.31,1.44,1.18,1.16,2-.01.04-.07.04-.09,0h0Z"/>
    <path class="cls-2" d="M19.54,14.88c-.29-1.03-.5-1.78-.67-2.77-.49-.97-1.11-1.76-1.01-2.91.08-.66.14-1.43.47-2,.41.61.44,1.37.49,2,.03.94-.16,1.93.31,2.79.69.78,1.25,1.93.49,2.91-.02.03-.08.02-.09-.02h0Z"/>
  </g>
</svg>