<?xml version="1.0" encoding="UTF-8"?>
<svg id="_오른쪽_위" data-name="오른쪽_위" xmlns="http://www.w3.org/2000/svg" version="1.1" viewBox="0 0 161.75 276.76">
  <defs>
    <style>
      .cls-1 {
        fill: #d793ff;
      }

      .cls-1, .cls-2, .cls-3, .cls-4 {
        stroke-width: 0px;
      }

      .cls-5 {
        stroke-width: 1.5px;
      }

      .cls-5, .cls-6 {
        stroke: #000;
      }

      .cls-5, .cls-6, .cls-2 {
        fill: #00d675;
      }

      .cls-5, .cls-6, .cls-7, .cls-8 {
        stroke-linecap: round;
        stroke-linejoin: round;
      }

      .cls-7 {
        fill: none;
      }

      .cls-7, .cls-8 {
        stroke: #111114;
        stroke-width: 1.2px;
      }

      .cls-3 {
        fill: #000;
      }

      .cls-4 {
        fill: #111114;
      }

      .cls-8 {
        fill: #ffec2d;
      }
    </style>
  </defs>
  <g>
    <path class="cls-5" d="M69.28,98.58s33.17,102.67,23.75,148.39c0,0-2.38,18.08-4.12,18.69,0,0,6.97,5.94,6.89,9.56-.09,3.61,6.37-6.32,6.37-6.32,0,0,.7-14.23,0-55.18-.7-40.95-25.18-118.5-25.18-118.5l-7.71,3.36Z"/>
    <g>
      <path class="cls-5" d="M98.94,153.75s-20.47-52.43,23.73-68.85c0,0,6.36-3.87,38.33-7.48,0,0-6.4,13.05-7.09,22.82-.69,9.77-8.78,30.08-32.7,44.66,0,0-18.57,10.3-22.27,8.85Z"/>
      <path class="cls-6" d="M95.56,165.71s3.43-12.81,8.19-27.71c4.76-14.9,20.82-47.15,53.66-57.94,0,0-39.77,16.43-53.66,65.97l-6.66,26.78"/>
      <g>
        <g>
          <path class="cls-3" d="M102.96,140.48c-1.39-5.47-2.16-11.4-5.9-15.85,5.13,2.55,6.77,10.62,5.9,15.85h0Z"/>
          <path class="cls-3" d="M106.83,129.47c-.73-3.55-1.31-7.04-2.22-10.44-.92-3.37-1.98-6.78-4.58-9.28,6.28,3.18,7.5,13.41,6.81,19.72h0Z"/>
          <path class="cls-3" d="M111.99,119.62c-1.38-5.78.03-16.14-7.32-17.92.89-.12,1.84,0,2.73.35,5.99,3.08,5.3,11.92,4.59,17.57h0Z"/>
          <path class="cls-3" d="M118.24,109.91c-.36-1.4.01-3.53.01-4.98.22-4.67.27-10.07-3.96-13.07,5.44,1.56,6.1,8.5,5.11,13.21-.23,1.64-1,3.5-1.17,4.85h0Z"/>
          <path class="cls-3" d="M125.66,100.88c.58-4.76,2.52-9.64,0-14.07,4.49,3.11,2.64,10.27,0,14.07h0Z"/>
          <path class="cls-3" d="M133.94,93.08c.15-3.38,1.7-6.28.93-9.59,2.84,2.22,1.17,7.35-.93,9.59h0Z"/>
          <path class="cls-3" d="M141.88,87.37c-.01-1.99,1.18-3.47.76-5.45,2.47.87,1.21,4.65-.76,5.45h0Z"/>
          <path class="cls-3" d="M104.14,144.66c4.67-4.82,12.04-7.63,18.68-5.98-6.7.52-12.73,2.88-18.68,5.98h0Z"/>
          <path class="cls-3" d="M107.81,134.13c7.51-4.52,17.09-5.81,25.53-3.45-8.68-.25-17.23.89-25.53,3.45h0Z"/>
          <path class="cls-3" d="M113.37,122.43c8.67-3.97,19.16-4.56,27.96-.65-9.32-1.84-18.7-1.28-27.96.65h0Z"/>
          <path class="cls-3" d="M118.55,114c8.35-4.62,19.18-6.15,28.04-2.1-9.42-1.95-18.86-.54-28.04,2.1h0Z"/>
          <path class="cls-3" d="M125.5,104.91c7.21-4.13,16.6-4.9,24.24-1.5-8.16-1.3-16.24-.63-24.24,1.5h0Z"/>
          <path class="cls-3" d="M133.13,96.9c4.92-4.07,12.33-4.13,18.05-1.84-6.09-.18-12.24-.29-18.05,1.84h0Z"/>
          <path class="cls-3" d="M143.52,88.29c1.79-1.57,4.47-1.72,6.67-1.06.74.22,1.45.56,2.08,1.06-1.52.17-2.91.09-4.39.07,0,0-4.36-.07-4.36-.07h0Z"/>
          <path class="cls-3" d="M105.17,133.95c-1.27-4.23-1.98-8.22-3.82-12.21,3.6,2.73,4.69,7.95,3.82,12.21h0Z"/>
          <path class="cls-3" d="M110.07,123.12c-.8-2.06-1.24-4.17-1.69-6.3-.43-1.84-.69-4.47-1.56-6.17,3.22,2.3,3.78,8.81,3.24,12.47h0Z"/>
          <path class="cls-3" d="M115.66,113.64c-.62-3.39-.54-6.65-.92-9.99-.19-1.02-.22-2.21-1.25-2.77,3.9.36,3.32,10.11,2.17,12.76h0Z"/>
          <path class="cls-3" d="M123.06,103.8c-.56-3.6.44-7.22-.69-10.71,3.02,2.17,2.23,7.82.69,10.71h0Z"/>
          <path class="cls-3" d="M131.03,95.59c-.39-2.85.37-5.2,0-7.98,2.38,1.83,1.66,5.88,0,7.98h0Z"/>
          <path class="cls-3" d="M139.09,89.2c-.35-1.2-.19-2.33.05-3.48.03-.33.18-.6-.05-1.08.56-.11,1.02.4,1.21.89.47,1.35-.04,2.85-1.21,3.66h0Z"/>
          <path class="cls-3" d="M147.42,84.23c-.08-.99.17-1.81.5-2.64.07-.19.13-.44-.03-.9,1.05-.26,1.57,1.23,1.22,2-.28.79-.84,1.37-1.7,1.54h0Z"/>
          <path class="cls-3" d="M101.14,146.38c-1-2.48-1.62-5.08-2.29-7.6-.25-.83-.46-1.64-.91-2.47.89.38,1.52,1.21,1.98,2.01,1.3,2.44,1.86,5.34,1.22,8.06h0Z"/>
          <path class="cls-3" d="M102.98,149.13c.89-1.55,2.34-2.65,3.9-3.45,1.57-.78,3.34-1.25,5.11-1.01-.76.49-1.51.85-2.25,1.24-2.21,1.11-4.39,2.28-6.76,3.22h0Z"/>
          <path class="cls-3" d="M106.08,138.69c2.41-2.42,5.68-3.93,9.06-4.35,1.14-.11,2.32-.08,3.42.26-1.12.29-2.15.57-3.18.89-3.07.99-6.14,2.27-9.29,3.2h0Z"/>
          <path class="cls-3" d="M110.71,127.56c3.61-2.57,8.7-3.96,12.93-2.24-4.4.4-8.53,1.61-12.93,2.24h0Z"/>
          <path class="cls-3" d="M116.39,117.3c5.86-2.62,13.09-4.24,19.29-1.97-6.53-.17-12.82,1.36-19.29,1.97h0Z"/>
          <path class="cls-3" d="M122.37,108.76c4.29-3.06,10.13-4.92,15.26-3-5.3.21-10.13,1.87-15.26,3h0Z"/>
          <path class="cls-3" d="M129.99,99.99c2.55-2.15,7.36-3.7,10.3-1.55-3.59-.01-6.67,1.31-10.3,1.55h0Z"/>
          <path class="cls-3" d="M149.61,84.23c.81-1.26,3.8-1.35,3.92.42-.45-.08-.7.04-1,.07-1.02.17-1.97.08-2.92-.49h0Z"/>
        </g>
        <path class="cls-3" d="M139.76,91.15c2.15-1.42,5.75-2.07,7.66,0-2.63-.05-5.06.65-7.66,0h0Z"/>
      </g>
    </g>
    <g>
      <g>
        <path class="cls-5" d="M82.83,212.69s-11.59,10.2-30.59,1.98c-5.61-2.43-10.63-6.05-14.91-10.42-5.06-5.17-13.27-14.23-19.01-23.92-2.28-3.85-8.12-6.92-10.51-9.28-2.54-2.52-.64-6.72,40.22-6.7,58.38.02,37.32,45.82,37.32,45.82"/>
        <g>
          <g>
            <path class="cls-2" d="M79.75,209.32s-12.22,1.9-21.13,3.58"/>
            <path class="cls-3" d="M79.75,209.32c-6.83,2.2-13.95,3.41-21.13,3.58,6.82-2.21,13.97-3.41,21.13-3.58h0Z"/>
          </g>
          <g>
            <path class="cls-2" d="M77.13,205.23s-16.36-.04-24.81,5.88"/>
            <path class="cls-3" d="M77.13,205.23c-8.31,1.32-17.15,2.2-24.81,5.88,6.6-5.53,16.49-6.67,24.81-5.88h0Z"/>
          </g>
          <g>
            <path class="cls-2" d="M74.48,201.79c-1.28.35-10.64-1.92-18.32,3.44"/>
            <path class="cls-3" d="M74.48,201.79c-1.36.38-3.36.29-4.76.41-4.71.18-9.23,1.07-13.56,3.03,4.77-4.76,12.14-4.89,18.32-3.44h0Z"/>
          </g>
          <g>
            <path class="cls-2" d="M69.18,196.44c-2.27,1.09-13.94-.44-22.08,7.85"/>
            <path class="cls-3" d="M69.18,196.44c-1.57.83-4.13,1-5.86,1.37-5.87.92-11.45,2.84-16.22,6.48,3.67-5,10.06-7.32,16.08-7.64,2-.19,4.02.08,6-.21h0Z"/>
          </g>
          <g>
            <path class="cls-2" d="M65.32,193.25s-13.92-.65-23.44,7.11"/>
            <path class="cls-3" d="M65.32,193.25c-8.26,1-16.27,2.81-23.44,7.11,5.92-6.06,15.21-8.25,23.44-7.11h0Z"/>
          </g>
          <g>
            <path class="cls-2" d="M59.87,189.37s-10.77-.02-21.67,6.53"/>
            <path class="cls-3" d="M59.87,189.37c-7.5,1.34-14.65,3.61-21.67,6.53,6-4.77,14.02-7.28,21.67-6.53h0Z"/>
          </g>
          <g>
            <path class="cls-2" d="M54.47,186.02s-15.05,1.96-19.35,5.28"/>
            <path class="cls-3" d="M54.47,186.02c-6.41,2.16-13.09,2.75-19.35,5.28,2.47-2.43,6-3.35,9.25-4.2,3.32-.73,6.69-1.21,10.1-1.08h0Z"/>
          </g>
          <g>
            <path class="cls-2" d="M50.45,183.76s-12.1-.3-20.4,4.9"/>
            <path class="cls-3" d="M50.45,183.76c-7.02,1.12-13.81,2.2-20.4,4.9,5.56-4.57,13.4-5.88,20.4-4.9h0Z"/>
          </g>
          <g>
            <path class="cls-2" d="M44.8,180.85s-9.52-.36-18.27,5.17"/>
            <path class="cls-3" d="M44.8,180.85c-6.38,1.07-12.32,2.73-18.27,5.17,4.88-4.27,11.88-6.21,18.27-5.17h0Z"/>
          </g>
          <g>
            <path class="cls-2" d="M37.35,177.4s-7.41,1.08-11.74,4.32"/>
            <path class="cls-3" d="M37.35,177.4c-3.78,1.7-7.92,2.83-11.74,4.32,2.8-3.3,7.53-4.65,11.74-4.32h0Z"/>
          </g>
          <g>
            <path class="cls-2" d="M21.15,178.44c2.3-5.74,10.32-3.24,10.32-3.24,0,0-4.94-6.55-2.19-8.57"/>
            <path class="cls-3" d="M21.15,178.44c1.03-4.57,6.75-5.16,10.54-3.95,0,0-.81,1.14-.81,1.14-.97-1.36-1.76-2.78-2.31-4.36-.48-1.44-.94-3.79.71-4.64-.58.6-.64,1.39-.48,2.11.54,2.22,1.96,4.17,3.26,6.01.43.54-.16,1.36-.81,1.14-3.5-.92-8.03-1-10.11,2.54h0Z"/>
          </g>
          <g>
            <path class="cls-2" d="M82.9,205.86s-1.41-16,1.97-23.07"/>
            <path class="cls-3" d="M82.9,205.86c-1.44-7.12-1.83-16.64,1.97-23.07-1.87,7.58-1.31,15.3-1.97,23.07h0Z"/>
          </g>
          <g>
            <path class="cls-2" d="M78.97,200.36c.22-1.76-1.59-14.35.77-25.17"/>
            <path class="cls-3" d="M78.97,200.37c-1.4-8.29-2.07-17.1.77-25.17-.79,8.41-.11,16.77-.77,25.17h0Z"/>
          </g>
          <g>
            <path class="cls-2" d="M73.49,194.33c.33-2.78-1.36-13.88,1.71-22.38"/>
            <path class="cls-3" d="M73.49,194.33c-1.04-7.4-1.88-15.51,1.71-22.38-1.57,7.46-.67,14.91-1.71,22.38h0Z"/>
          </g>
          <g>
            <path class="cls-2" d="M68.29,190.25s-.68-8.69.89-20.36"/>
            <path class="cls-3" d="M68.29,190.25c-1.42-6.7-1.01-13.78.89-20.36.16,6.84-.24,13.53-.89,20.36h0Z"/>
          </g>
          <g>
            <path class="cls-2" d="M64.59,187.78s-3.12-11,.14-18.82"/>
            <path class="cls-3" d="M64.59,187.78c-2.51-5.81-3.18-13.19.14-18.82-1.27,6.29-.6,12.44-.14,18.82h0Z"/>
          </g>
          <g>
            <path class="cls-2" d="M58.62,184.43s-1.18-8.63,1.25-16.73"/>
            <path class="cls-3" d="M58.62,184.43c-1.64-5.42-1.32-11.64,1.25-16.73-.54,5.64-.82,11.05-1.25,16.73h0Z"/>
          </g>
          <g>
            <path class="cls-2" d="M52.9,181.72s-1.04-7.3,1.57-14.01"/>
            <path class="cls-3" d="M52.9,181.72c-1.56-4.54-1.09-9.97,1.57-14.01-.66,4.74-1.04,9.22-1.57,14.01h0Z"/>
          </g>
          <g>
            <path class="cls-2" d="M48.07,179.56s-1.64-3.15,0-12.93"/>
            <path class="cls-3" d="M48.07,179.56c-2.35-3.79-1.63-8.99,0-12.93.24,2.2.11,4.34.05,6.51-.05,1.92-.24,4.51-.05,6.42h0Z"/>
          </g>
          <g>
            <path class="cls-2" d="M43.6,177.98s-2.64-6.79-1.72-11.36"/>
            <path class="cls-3" d="M43.6,177.98c-1.77-2.42-2.61-5.46-2.48-8.44.07-1,.27-2.02.76-2.92.13,1.01.27,1.93.41,2.86.47,2.78,1.13,5.6,1.31,8.49h0Z"/>
          </g>
          <g>
            <path class="cls-2" d="M39.51,176.55s-7-6.28-3.85-9.92"/>
            <path class="cls-3" d="M39.51,176.55c-3.18-1.48-7.46-6.94-3.85-9.92-.76,1.88-.03,3.44.85,5.06.93,1.65,2.04,3.17,3,4.86h0Z"/>
          </g>
          <g>
            <path class="cls-2" d="M23.76,171.95s-11.69-3.2-13.81-2.05"/>
            <path class="cls-3" d="M23.76,171.95c-4.75.06-9.29-1.78-13.81-2.05,1.01-.71,2.37-.7,3.55-.7,3.58.14,7.1,1.05,10.26,2.74h0Z"/>
          </g>
        </g>
      </g>
      <path class="cls-5" d="M93.69,256.9s-2.9-35.7-13.94-47.58c-1.91-2.06-7.03-19.33-55.99-37.38,0,0,30.05,6.96,45.98,19.39,0,0,14.84,8.56,26.24,42.56"/>
    </g>
  </g>
  <g>
    <path class="cls-1" d="M117.01,54.65c-1.42-.78-2.87-1.37-4.33-1.8l.6.11s19.1-13.68,1.16-22.3c-2.81-1.35-5.61-1.88-8.35-1.82-.12-.34-.24-.68-.36-1,2.15-12.72-4.27-14.18-4.27-14.18-13.21-10.72-21.15,6.54-21.15,6.54l.07.02s-.05.02-.08.04c1.46-10.12-.98-19.77-13.62-19.64-7.39.07-11.16,4.07-12.83,9.59,0-.01-.02-.03-.03-.04h.04c-1.24-8.98-10.48-6.43-10.48-6.43-8.5.34-5.4,9.99-5.4,9.99l.63-.14c-.06.12-.12.24-.18.36-.49-.23-.98-.44-1.48-.57-10.76-2.9-16.76,4.76-16.76,4.76,0,0-2.35,4.41-1.12,9.36-.11.06-.23.13-.34.2-2.23-.28-13.06-.83-12.03,14.43,0,0-.46,9.41,4.63,9.77,0,0,0,0,0,.01-2.12.59-3.98,1.51-5.42,2.85C-3.09,63.15-.08,75.86,10.5,76.84c-1.29,1.66-2.24,3.58-2.69,5.8-3.31,16.57,12.62,15.74,12.62,15.74,0,0,1.8.15,3.31-1.22h0c-.55,1.5-.79,3.07-.61,4.68,1.45,13.13,13.82,12.05,13.82,12.05,0,0,11.26-.63,12.67-10.86l-.02-.29s.03,0,.04,0c-.6,12.98,5.12,15.92,5.12,15.92,0,0,12,12.41,20.07-3.98.86-1.76,1.47-3.53,1.88-5.29,2.5,4.31,10.11,5.28,10.11,5.28,0,0,14.89,1.1,13.19-14-.12-1.1-.35-2.17-.66-3.21h0s5.24.94,5.24.94c0,0,17.7-5.84,8.72-17.86h0c5.2-1.72,7.17-4.2,7.17-4.2,0,0,11.42-13.51-3.5-21.67Z"/>
    <g>
      <path class="cls-4" d="M60.85,41.9c-3.96-10.34-3.71-22.45.7-32.61-2.78,10.74-3.02,21.77-.7,32.61h0Z"/>
      <path class="cls-4" d="M63.91,40.97c-.97-6.41-.62-13.01,1.02-19.28,0,6.5-.34,12.82-1.02,19.28h0Z"/>
      <path class="cls-4" d="M68.28,41.19c3.05-9.74,3.9-19.8,2.54-29.91,3.04,9.72,2.09,20.84-2.54,29.91h0Z"/>
      <path class="cls-4" d="M74.88,42.91c4.47-6.01,7.78-12.45,10.08-19.57-.62,7.44-4.38,14.74-10.08,19.57h0Z"/>
      <path class="cls-4" d="M77.09,44.23c4.26-9.31,10.68-19.64,21.38-22.08-10.03,4.1-15.55,13.51-21.38,22.08h0Z"/>
      <path class="cls-4" d="M80.73,50.16c2.36-3.05,5.34-5.6,8.59-7.7,3.06-2.26,7.24-2.87,9.55-6.03-.3.92-.91,1.75-1.63,2.42-2.19,1.9-4.92,3-7.27,4.63-3.23,2.03-6.22,4.33-9.23,6.68h0Z"/>
      <path class="cls-4" d="M82.98,51.71c6.69-3.26,12.95-6.82,19.18-10.89-5.15,5.35-11.95,9.21-19.18,10.89h0Z"/>
      <path class="cls-4" d="M84.3,55.86c4.14-3.12,8.87-5.45,13.8-7.1,2.47-.8,5.01-1.45,7.56-1.87,2.46-.42,5.16-1.01,6.43-3.4-.35,1.27-1.38,2.28-2.51,2.97-3.51,1.73-7.47,2.04-11.1,3.44-4.86,1.59-9.55,3.65-14.18,5.96h0Z"/>
      <path class="cls-4" d="M85.13,62c3.92-3.92,9.77-6.04,15.29-5.53-5.43,1.21-10.35,2.98-15.29,5.53h0Z"/>
      <path class="cls-4" d="M85.95,65.02c8.27-4.67,19.3-4.6,27.5.19-8.95-3.17-18.51-3.24-27.5-.19h0Z"/>
      <path class="cls-4" d="M82.92,71.14c4.79-1.52,10.56-.19,14.19,3.3-4.61-2.04-9.15-3.1-14.19-3.3h0Z"/>
      <path class="cls-4" d="M81.46,73.22c9.07.52,17.98,5.88,22.68,13.66-6.12-6.73-13.87-11.4-22.68-13.66h0Z"/>
      <path class="cls-4" d="M73.04,79.26c3.85,3.64,6.37,8.79,6.85,14.07-2.12-4.88-4.31-9.39-6.85-14.07h0Z"/>
      <path class="cls-4" d="M75.83,78.24c8.85,5,14.32,15.89,13.01,25.97-.52-10.12-5.21-19.5-13.01-25.97h0Z"/>
      <path class="cls-4" d="M59.8,81.57c-1.66,3.4-2.67,6.53-3.34,10.25-1.08-3.62.34-7.97,3.34-10.25h0Z"/>
      <path class="cls-4" d="M62.16,82.83c-2.36,9.09-4.09,18.12-5.26,27.45-.5-9.36,1.34-18.93,5.26-27.45h0Z"/>
      <path class="cls-4" d="M64.88,83.07c.73,5.26.64,10.51-.28,15.74-.73-5.25-.63-10.51.28-15.74h0Z"/>
      <path class="cls-4" d="M66.71,82.98c4.33,8.54,5.59,18.8,3.44,28.13.45-9.59-.68-18.94-3.44-28.13h0Z"/>
      <path class="cls-4" d="M50.05,79.76c-4.18,2.56-7.64,5.47-10.88,9.14,1.76-4.56,6.09-8.19,10.88-9.14h0Z"/>
      <path class="cls-4" d="M52.93,80.05c-7.01,5.14-12.24,11.99-15.38,20.09,1.44-8.57,7.49-16.46,15.38-20.09h0Z"/>
      <path class="cls-4" d="M42.38,70.23c-6-.01-11.58,1.01-17.2,3.12,4.76-3.62,11.47-4.84,17.2-3.12h0Z"/>
      <path class="cls-4" d="M44.63,72.16c-8.34,1.18-16.09,3.89-23.35,8.15,6.23-5.64,14.97-8.68,23.35-8.15h0Z"/>
      <path class="cls-4" d="M44.98,75.08c-4.1,2.07-8,3.91-12.21,5.75,3.26-3.22,7.66-5.28,12.21-5.75h0Z"/>
      <path class="cls-4" d="M41.52,57.99c-8.84-1.32-17.56-1.31-26.39,0,8.4-2.97,17.99-2.97,26.39,0h0Z"/>
      <path class="cls-4" d="M41.65,61.6c-6.54-.15-12.85-.29-19.39-.43,6.34-1.52,13.12-1.36,19.39.43h0Z"/>
      <path class="cls-4" d="M42.31,53.01c-7.79-4.5-18.06-3.24-24.98-9.43,7.71,4.69,17.94,3.43,24.98,9.43h0Z"/>
      <path class="cls-4" d="M43.5,49.94c-5.76-1.78-11.23-3.95-16.63-6.63,5.92,1.1,11.57,3.36,16.63,6.63h0Z"/>
      <path class="cls-4" d="M47.13,46.95c-2.68-9.51-16.85-10.32-18.12-20.62,2.81,9.42,16.98,10.26,18.12,20.62h0Z"/>
      <path class="cls-4" d="M49.77,44.88c-2.69-4.76-5.58-9-9.02-13.25,4.56,2.97,7.92,7.92,9.02,13.25h0Z"/>
      <path class="cls-4" d="M51.98,44.96c-2.64-8.53-6.95-16.17-12.88-22.85,7.09,5.41,11.92,13.99,12.88,22.85h0Z"/>
      <path class="cls-4" d="M44.47,8.88c4.26,7.11,6.75,15.36,7.13,23.63-2.04-8.05-4.37-15.8-7.13-23.63h0Z"/>
      <path class="cls-8" d="M62.5,41.14s12.06-.7,16.05,5.59c3.99,6.29,5.39,4.89,5.62,9.32s2.8,9.78,0,12.58c-2.8,2.8-3.6,7.22-10.19,9.55-6.59,2.33-6.36,6.29-13.11,3.49-6.76-2.8-14.21-1.63-14.91-5.36s-5.59-9.78-4.19-14.44c1.4-4.66-1.16-10.02,3.26-13.75,4.43-3.73,6.76-2.8,12.11-4.89l5.36-2.1Z"/>
      <path class="cls-7" d="M57.15,43.24S42.47.83,66.7.6c24.23-.23,11.03,35.42,4.58,41.47"/>
      <path class="cls-7" d="M80.33,20.19s7.93-17.26,21.15-6.54c0,0,6.69,1.52,4.13,14.97"/>
      <path class="cls-7" d="M78.55,46.73s17.97-24.7,35.91-16.08c17.94,8.62-1.16,22.3-1.16,22.3"/>
      <path class="cls-7" d="M84.55,58.9s17.55-12.41,32.46-4.25c14.91,8.15,3.5,21.67,3.5,21.67,0,0-1.98,2.48-7.17,4.2"/>
      <path class="cls-7" d="M84.17,68.63s13.63-4.18,27.08,9.47c13.45,13.65-6.63,20.27-6.63,20.27l-5.24-.93"/>
      <path class="cls-7" d="M78.55,75.63s19.77,9.92,21.48,25.03c1.71,15.1-13.19,14-13.19,14,0,0-7.65-.96-10.14-5.31"/>
      <path class="cls-7" d="M69.49,80.52s13.42,17.75,5.35,34.15c-8.07,16.39-20.07,3.98-20.07,3.98,0,0-8.48-4.34-3.72-25.86,0,0,1.24-9.44,6.21-12.27"/>
      <path class="cls-7" d="M55.18,43.92c-.19-.57-7.43-27.67-18.19-30.57s-16.76,4.76-16.76,4.76c0,0-6.41,12,7.45,18.62s17.35,11.4,17.35,11.4"/>
      <path class="cls-7" d="M42.26,54.73c-1.14,0-27.21-8.48-36.31,0S-.04,76.03,10.71,76.86"/>
      <path class="cls-7" d="M41.89,66.2s-30.76-.12-34.07,16.44c-3.31,16.57,12.62,15.74,12.62,15.74,0,0,1.8.15,3.31-1.22"/>
      <path class="cls-7" d="M47.62,78.33s-25.93,10.38-24.48,23.51c1.45,13.13,13.82,12.05,13.82,12.05,0,0,11.26-.63,12.67-10.86"/>
      <path class="cls-7" d="M38.01,13.71s-3.11-9.64,5.4-9.99c0,0,9.24-2.55,10.48,6.42"/>
      <path class="cls-7" d="M19.18,27.73s-13.58-2.64-12.43,14.37c0,0-.46,9.44,4.65,9.78"/>
      <g>
        <path class="cls-4" d="M62.54,61.07c-.2-.46.18-1.07.72-1.08.54.01.94.65.71,1.17l-.06-.12.8.11c.54.55.09,1.65-.68,1.81-.77.15-1.55-.55-1.44-1.37.01-.11.11-.18.22-.17.11.01.19.12.17.23-.02.51-.33,1.34-1.03,1.3-.86-.02-.67-1.09-.54-1.55,0,0,.21-1,.21-1,.16-1.37,1.17-2.52,2.42-1.28.26.25.48.5.72.64.28.27.81-.08,1.23.18.35.2.34.71.34.98.17,3.02-1.68,4.15-4.39,2.94,0,0,.48-.24.48-.24-.11.43-.54.65-.86.66-1.11.13-1.52-1.25-1.3-2.04.09-.52.23-.93.2-1.34,0-.23-.06-.52.11-.89.2-.39.65-.66,1.1-.43,0,0-.52.46-.52.46-.64-1.58,1.15-3.14,2.62-2.28.1.05.16.15.18.25.23.84,1.42.76,2.11,1.31.47.35.71.86.89,1.31.27.62.64,1.72,0,2.34-.67.6-.22.86-.31,1.84-.11.64-.78.96-1.36.97-.57.01-1.03-.22-1.46-.35-.83-.36-1.71.09-2.76,0-1.07-.1-1.92-1.1-1.87-2.14.06-1.02.57-1.85.37-2.8-.24-1.12.65-1.78,1.63-2.03-.89.29-1.76.96-1.46,2.01.26.97-.24,1.94-.23,2.82,0,.88.76,1.66,1.6,1.72.91.04,1.94-.43,2.87-.07.69.24,1.85.59,2.1-.24.08-.32-.22-.79-.06-1.45.16-.54.62-.66.66-1.15-.03-.67-.46-1.8-1.01-2.24-.76-.5-2.16-.5-2.4-1.75,0,0,.18.25.18.25-.88-.51-1.99.46-1.59,1.39,0,0-.52.46-.52.46.08,0-.04.01-.08.11-.04.07-.04.28-.02.53.09.9-.58,1.86-.06,2.56.13.21.6.12.58,0-.04-.2.17-.37.35-.29.65.26,1.34.52,1.97.5,1.57,0,1.71-1.92,1.6-3.13-.03-.09-.36.04-.61,0-.62-.03-1.06-.61-1.42-.97-.78-.89-1.33-.06-1.5.96,0,0-.24,1-.24,1-.15.5-.32,1.32.4.89.18-.16.26-.48.31-.81l.39.06c-.1.5.45,1.1,1,1,.55-.08.92-.84.63-1.35l.07.05-.8-.15c-.06,0-.09-.07-.06-.12.21-.38-.1-.96-.56-1-.46-.04-.89.51-.72.98h0Z"/>
        <path class="cls-4" d="M61.14,57.38c1.01-1.94,3.86-1.9,4.95-.05.3.42.81.5,1.28.68.48.21.79.66.97,1.13.32.95.53,1.94.53,2.95.06,1.02-.81,1.85-.83,2.82,0,.69.67,1.53.15,2.22-.56.63-1.5.36-2.22.35,0,0-1.49-.1-1.49-.1,0,0-2.98-.2-2.98-.2-2.04-.12-4.68.01-4.54-2.82.15-2.03.33-3.95.66-5.97.12-.5.3-1.01.68-1.42.72-.93,2.09-.15,2.68-.96,1.56-3.06,4.94.26,6.87-.74.11-.06.24-.01.29.09-.28,1.61.61,3.07,1.53,4.38,1.63,2.02,1.47,4.8.3,7.01-.57,1-.94,2.7-2.36,2.8-.46.02-.87-.11-1.26-.22-3.09-.85-6.35-.51-9.5-1.19-1.19-.2-2.72-1.21-2.4-2.67.26-1.21,1.1-2.16,1.24-3.37.37-2.21.08-5.36,2.42-6.74.79-.44,1.65-.44,2.29-.75.65-.29,1.17-.94,1.95-1.36,2.27-1,5.33.45,6.74,2.37,1,1.49.57,3.41,1.64,4.34.6.51,1.53.77,1.92,1.59.26.43.21,1.11-.14,1.48-.32.37-.64.56-.74.82-.25.54.09,1.32.18,2.19.11.94-.38,1.8-.88,2.43-.97,1.31-2.38,2.7-4.14,2.61-4.03-.24-8.27.31-11.88-1.88-1.52-.68-3.28-2.02-2.74-3.97.34-1.66,1.71-2.8,2.41-4.21.88-1.69-.44-4.72,2.03-5.51.74-.26,1.57-.2,2.15-.67.81-.92,1.36-2.05,2.68-2.46,3.17-1.14,7.37-1.85,8.46,2.31.47,1.53.93,2.99,2.06,4.13,4.42,3.97,1.1,4.42.98,8.84-.04,6.23-7.53,5.32-11.87,5.3-3.19-.12-6.51-.61-9.34-2.31-.09-.05-.13-.15-.12-.25.19-2.15-2.44-3.63-2.02-5.9.42-3.02,3.77-4.31,4.62-7.06.38-1.34.25-3,1.38-4.07.86-.95,2.12-.36,3.16-.39,1-.24,1.66-1.29,2.71-1.56,2.81-1.04,5.77,0,8.47-.78,1.55,1.57,2.45,4.14,3.11,6.27.28,1.17,1.18,1.86,1.97,2.7,1.98,2.04-1.01,4.28-.72,6.48.08.56.3,1.1.32,1.69.02.59-.24,1.15-.56,1.62-1.31,1.71-3.04,3.98-5.48,3.5,2.44.45,4.13-1.82,5.41-3.54.32-.47.56-1.01.53-1.57-.02-.56-.25-1.1-.33-1.68-.27-1.81,1.35-3.16,1.35-4.89-.03-1.2-1.14-1.87-1.87-2.69-.4-.43-.66-.99-.83-1.54-.63-2.2-1.62-4.27-2.97-6.1l.17.06c-3.46.99-7.37-.69-10.16,1.94-.29.22-.64.44-1.04.5-.73.1-1.42-.25-2.11-.14-1,.21-1.5,1.26-1.69,2.21-.19,1.39-.45,2.95-1.44,4.05-2.78,3.16-5.17,4.68-2.04,8.8.37.62.66,1.39.55,2.18l-.12-.25c2.72,1.62,5.95,2.1,9.1,2.2,4.03-.05,11.25.99,11.27-4.82-.04-4.28,3.39-4.66-.85-8.37-2.38-1.96-1.56-6.86-5.28-7.08-1.5-.06-3.14.35-4.54.85-.71.29-1.28.7-1.68,1.36-.38.71-1.2,1.46-2.04,1.55-3.55.28-1.59,3.24-2.73,5.42-1.68,2.88-4.44,5.19.03,7.2,3.4,2.11,7.67,1.59,11.51,1.84,1.66.06,2.67-1.13,3.62-2.32.85-.96.87-1.95.54-3.1-.07-.41-.12-.9.09-1.38.23-.49.65-.72.84-.96.61-1.09-.87-1.44-1.7-2.15-.72-.63-.91-1.56-1.05-2.33-.16-2.48-2.18-3.97-4.48-4.48-.74-.17-1.51-.17-2.13.16-.64.32-1.17.98-1.98,1.36-.82.36-1.64.36-2.26.72-2.11,1.33-1.74,4.07-2.16,6.32-.07,1.49-1.78,2.92-1.09,4.33.34.59,1.09.9,1.83,1.08,2.34.46,4.72.51,7.12.75.8.09,1.61.24,2.39.48.76.25,1.51.36,1.94-.25,1.13-1.88,2.4-4.26,1.87-6.53-.61-2.28-3.14-4.05-2.57-6.65,0,0,.31.24.31.24-2.19,1.16-5.28-2.25-6.74.6-.6.97-2.05.2-2.71.99-.31.32-.48.78-.59,1.24-.31,1.9-.53,3.96-.7,5.88-.18,2.61,2.35,2.39,4.23,2.55.99.06,3.51.29,4.46.35.81.07,2.32.33,2.2-.89-.05-.47-.3-.93-.32-1.46,0-.54.26-1,.48-1.44.73-1.33.29-2.93-.1-4.3-.17-.45-.46-.89-.91-1.09-.44-.18-1-.27-1.3-.72-1.04-1.85-3.9-1.9-4.9,0h0Z"/>
        <path class="cls-4" d="M55.81,50.89c-.94-.41-2.01.04-2.66.74-1.71,1.94-.78,4.87-2.12,7.01-.8,1.24-2.16,2.03-2.65,3.46-.98,2.76.04,5.83,1.41,8.28,1.92,3.77,6.2,4.25,10,4.52,3.85.22,7.91.28,11.65-.64,6.11-1.66,5.17-6.69,5.78-11.78.12-1.83.7-3.98-.99-5.23-.71-.61-1.63-1.1-2.28-1.97-.97-1.32-.73-2.93-1.04-4.37-.21-.87-1.04-1.51-1.94-1.28-1.4.51-3.06.55-4.46-.02-.93-.3-1.66-1.14-2.59-1.36-.45-.1-.88.14-1.33.35-.93.51-1.99.04-2.96.08-1.57.11-2.28,1.77-2.76,3.07.44-1.33,1.13-3.06,2.75-3.21.97-.08,1.98.37,2.87-.15.42-.21.91-.51,1.47-.42,1.03.19,1.7,1,2.67,1.29,1.39.51,2.84.44,4.23-.08,1.11-.33,2.28.49,2.53,1.58.35,1.39.14,3.03,1.02,4.16.55.72,1.43,1.18,2.23,1.84,1.86,1.32,1.42,3.85,1.25,5.78-.56,5.39.26,10.61-6.25,12.45-3.93.94-7.92.85-11.91.6-3.97-.28-8.51-.92-10.44-4.91-1.6-2.98-2.78-7.1-.53-10.05.96-1.11,2.25-1.96,2.58-3.46.54-1.84.31-4.1,1.74-5.59.69-.7,1.8-1.11,2.72-.67h0Z"/>
        <path class="cls-4" d="M57.96,47.29l-6.08,2.93c-.99.49-2.05,1.04-2.63,2-.93,1.51.53,3.41-.43,4.94-1.08,1.34-2.67,1.99-3.04,3.88-.61,2.17.06,4.41.74,6.52.68,2.11,1.4,4.33,3.05,5.78,1.65,1.41,3.94,1.9,6.07,2.55,1.91.5,4.55,1.46,6.46,1.81,2.18.5,4.35.31,6.43-.5,2.08-.79,4.24-1.5,6.07-2.7,1.83-1.19,3.18-3,4.34-4.9,2.78-3.79,1.93-8.52.89-12.78-.6-2.15-2.1-3.89-3.64-5.51-1.54-1.61-3.07-3.36-5.18-4.17-2.14-.65-4.43-.75-6.59-1.35-2.26-.34-4.46.54-6.47,1.5h0ZM57.96,47.29c2-.97,4.19-1.87,6.47-1.55,2.19.59,4.45.66,6.62,1.3,2.15.8,3.75,2.53,5.32,4.11,1.57,1.58,3.16,3.34,3.83,5.56.8,3.27,1.73,6.79.78,10.13-1.22,3.2-3.14,6.22-5.99,8.25-1.95,1.29-4.1,2.01-6.21,2.82-3.26,1.37-6.88.7-10.1-.41-6.64-2.14-10.66-2.07-12.52-9.82-1.02-3.03-1.73-7.32,1.35-9.45.93-.62,1.73-1.52,1.53-2.71-.61-2.93.09-4.11,2.81-5.34,0,0,6.1-2.88,6.1-2.88h0Z"/>
        <path class="cls-4" d="M68.88,44.92c-2.7-1.26-5.8-1.03-8.57-.17-4.13,1.4-8.22,3.31-12.04,5.44-1.23.74-2.36,1.71-2.76,3.04-.41,1.34-.05,2.85-.25,4.36-.08.77-.48,1.45-.52,2.15-.1.67.66,1.53,1.33,1.09-.68.54-1.6-.35-1.54-1.09,0-.79.34-1.48.35-2.19-.08-3.67-.66-5.72,3.01-7.95,5.66-3.04,14.76-8.33,20.97-4.69h0Z"/>
        <path class="cls-4" d="M70.1,45c5.21,2.37,10.99,6.09,12.01,12.17-2.03-5.66-7.33-8.87-12.01-12.17h0Z"/>
      </g>
    </g>
  </g>
</svg>