<?xml version="1.0" encoding="UTF-8"?>
<svg id="_오른쪽_위" data-name="오른쪽_위" xmlns="http://www.w3.org/2000/svg" version="1.1" viewBox="0 0 157.42 283.86">
  <defs>
    <style>
      .cls-1 {
        fill: #ff97b5;
      }

      .cls-1, .cls-2 {
        stroke-width: 0px;
      }

      .cls-3 {
        fill: #00d675;
      }

      .cls-3, .cls-4 {
        stroke-linecap: round;
        stroke-linejoin: round;
      }

      .cls-3, .cls-4, .cls-5 {
        stroke: #111114;
        stroke-width: 1.2px;
      }

      .cls-4 {
        fill: none;
      }

      .cls-5 {
        fill: #ffec2d;
        stroke-miterlimit: 10;
      }

      .cls-2 {
        fill: #111114;
      }
    </style>
  </defs>
  <g>
    <g>
      <path class="cls-3" d="M71.71,109.29s-4.07,30.65-2.88,53.24,9.54,119.34,11.77,120.72l6.04-.61c-3.71-3.78-10.88-110.43-10.88-110.43-2.85-20.95,3.64-61.62,3.64-61.62"/>
      <path class="cls-3" d="M67.91,152.65s-14.56-15.67-16.25-21.32c0,0-5-10.04-17.23-7.96-12.23,2.08-14.49,1.43-14.49,1.43l-2.77.28s-.8,3.09,2.01,3.41,3.17-.92,4.91-.5,6-1.49,6.22-.63,4.01,1.57,4.01,1.57l4.74,1.59,5.96,3.15,5.11,2.21,18.12,23.06"/>
      <path class="cls-3" d="M77.29,210.97s9.22-7.71,10.9-13.36c0,0,5-10.04,17.23-7.96,12.23,2.08,14.49,1.43,14.49,1.43l2.77.28s.8,3.09-2.01,3.41-3.17-.92-4.91-.5-6-1.49-6.22-.63-4.01,1.57-4.01,1.57l-4.74,1.59-5.96,3.15-5.11,2.21-12.78,15.1"/>
    </g>
    <g>
      <path class="cls-3" d="M75.13,219.05c-.43-.48-6.96-10.2-7.51-12.22-.55-2.02,1.79-21.97-16.78-25.63-18.57-3.66-47.59,1.23-49.86-.2-2.27-1.43,5.77,12.88,21.32,24.51,15.55,11.63,36.74,18.79,44.61,6.21l8.66,13.57"/>
      <g>
        <path class="cls-2" d="M65.13,208.77c-6.55-9.24-18.79-9.12-28.94-10.75-10.56-1.86-20.68-6.52-28.73-13.6,8.45,6.46,18.39,10.95,28.88,12.72,10.05,1.67,22.83,1.88,28.79,11.64h0Z"/>
        <path class="cls-2" d="M62,204.88c-.69-6.11-.82-12.52-4.93-17.48,5.12,4.08,5.55,11.46,4.93,17.48h0Z"/>
        <path class="cls-2" d="M63.69,207.5c-4.98,4.83-12.06,7.65-19,7.54,6.85-1.18,13.2-3.7,19-7.54h0Z"/>
        <path class="cls-2" d="M51.93,185.51c4.65,4.08,6.98,10.9,5.78,16.97-.13-6.18-2.11-11.99-5.78-16.97h0Z"/>
        <path class="cls-2" d="M61.01,204.47c-5.16,4.76-12.68,7.11-19.64,6.12,7.02-.33,13.67-2.4,19.64-6.12h0Z"/>
        <path class="cls-2" d="M56.11,201.85c-2.9,3.18-7.57,3.59-11.52,4.58-4.1.81-8.26,1.34-12.44,1.39,4.11-.76,8.2-1.45,12.26-2.28,3.95-.98,8.37-1.11,11.7-3.7h0Z"/>
        <path class="cls-2" d="M53.62,200.16c-.33-6.18-6.81-9.73-7.65-15.73,2,5.44,8.59,9.34,7.65,15.73h0Z"/>
        <path class="cls-2" d="M49.57,199.34c-1.55-6.37-9.29-9.34-9.97-16.07,1.86,6.21,9.61,9.23,9.97,16.07h0Z"/>
        <path class="cls-2" d="M45.3,198.66c-.42-1.58-1.55-2.74-2.75-3.72-4.99-3.26-6.88-5.93-7.05-12.04.81,3,1.54,6.25,3.85,8.44,2.16,2.08,5.79,3.88,5.96,7.32h0Z"/>
        <path class="cls-2" d="M40.58,197.98c-3.55-4.36-11.87-7.98-9.46-14.85-1.02,6.82,6.86,9.55,9.46,14.85h0Z"/>
        <path class="cls-2" d="M34.35,197.07c-.64-2.33-3.05-3.14-4.91-4.33-3.43-2.15-4.6-6.68-3.78-10.45.09,4.81,1.77,8.68,6.15,11.01,1.24.85,2.52,2.17,2.54,3.77h0Z"/>
        <path class="cls-2" d="M27.64,195.39c-.24-1.86-1.95-2.66-3.24-3.75-2.28-1.96-3.43-5.32-2.51-8.21,0,2.34.69,4.54,2,6.33,1.15,1.79,4.19,3.07,3.75,5.63h0Z"/>
        <path class="cls-2" d="M22.2,193.36c-1.52-3.16-6.55-6.05-4.36-10.05-.82,4.09,3.99,6.24,4.36,10.05h0Z"/>
        <path class="cls-2" d="M16.61,190.76c.22-2.47-3.18-3.26-3.14-5.8-.07-.82.06-1.59.26-2.34.02-.07.12-.06.12.01,0,0,.02.29.02.29l-.14-.25.13-.02c.22,1.43.26,2.89,1.26,3.99.9.98,2.5,2.67,1.5,4.13h0Z"/>
        <path class="cls-2" d="M11.85,187.58c-.36-1.43-2.4-2.95-1.07-4.41,0,1.56,2.02,2.83,1.07,4.41h0Z"/>
        <path class="cls-2" d="M50.96,200.33c-6.31,4.99-15.84.47-21.88,6.04,5.35-6.7,15.13-2.27,21.88-6.04h0Z"/>
        <path class="cls-2" d="M42.71,198.85c-5.23,3.37-12.87.71-17.24,5.77,3.5-6.07,11.68-3.66,17.24-5.77h0Z"/>
        <path class="cls-2" d="M35.16,197.59c-3.71,2.33-9.97-.01-11.98,4.88,0-1.19.78-2.32,1.75-3.03,3.01-2.18,6.91-.95,10.23-1.85h0Z"/>
        <path class="cls-2" d="M28.74,195.87c-1.42,1.33-3.62,1.19-5.38,1.47-1.75.21-3.3,1.14-4.46,2.64.5-1.91,2.4-3.31,4.33-3.53,1.95-.28,3.73.1,5.51-.58h0Z"/>
        <path class="cls-2" d="M21.96,193.44c-.1,3.09-4.71,1.58-5.68,3.9-.14-.66.31-1.36.86-1.75,1.51-1.15,3.79-.37,4.83-2.15h0Z"/>
        <path class="cls-2" d="M17.7,191.6c-.73,2.08-4.14.27-4.58,2.51-.36-.44-.14-1.17.27-1.56,1.26-1.2,2.94-.15,4.3-.96h0Z"/>
        <path class="cls-2" d="M13.16,188.92c-.67.29-1.37.34-1.93.72-.6.36-.68.92-.86,1.62-1.35-1.88,1.15-3.43,2.79-2.34h0Z"/>
        <path class="cls-2" d="M9.67,186.47c-1.06.44-1.42.56-2.54.8.09-1.19,1.79-1.72,2.54-.8h0Z"/>
      </g>
    </g>
    <g>
      <path class="cls-3" d="M77.47,194.94s5.61-21.45,15.98-28.39c0,0-1.71-27.01,23.91-30.48,0,0,32.27-2.76,39.47-.03,0,0-3.19,6.11-7.67,13.11-4.48,7-18.24,30.06-50.82,22.89,0,0-1.96-2.39-3.33-.35s-4.56-1.01-8.35,10.22c-3.79,11.23-8.56,12.56-8.79,18.26"/>
      <g>
        <path class="cls-2" d="M150.61,139.87c-10.26-.23-19.92,3.94-28.52,9.18-8.64,5.32-17.18,10.9-24.97,17.44,5.46-5.35,11.73-9.83,18.07-14.07,10.4-7.04,22.45-13.73,35.42-12.55h0Z"/>
        <path class="cls-2" d="M98.88,164.86c6.53,2.74,13.67,3.85,20.7,4.22-3.54.64-7.19.26-10.71-.37-3.49-.73-7.08-1.71-9.99-3.84h0Z"/>
        <path class="cls-2" d="M102.23,162.9c7.85,3.23,17.67-1.91,24.64,4.01-7.46-4.73-17.1.46-24.64-4.01h0Z"/>
        <path class="cls-2" d="M105.81,159.9c7.89,2.9,18.29-.41,24.94,5.01,0,0-.54-.4-.54-.4l.6.31s-.06.09-.06.09c-1.88-1.03-3.93-1.64-6.01-1.97-6.26-1.1-13.13.04-18.93-3.04h0Z"/>
        <path class="cls-2" d="M109.49,157.16c7.88,1.97,17.92-2.25,24.45,4-7.23-5.13-16.65-.76-24.45-4h0Z"/>
        <path class="cls-2" d="M113.03,154.53c5.2-1.62,10.94-1.41,16.08.35,2.9,1.01,6.13,2.59,9.27,2.03-1.02.36-2.14.46-3.24.38-3.24-.31-6.25-1.81-9.38-2.41-4.18-.9-8.48-.96-12.73-.36h0Z"/>
        <path class="cls-2" d="M118.8,150.54c7.75-3.07,15.03,5.21,22.82,2.61-7.63,3.91-15.03-4.37-22.82-2.61h0Z"/>
        <path class="cls-2" d="M124.17,147.32c1.15-.76,2.68-.75,3.99-.48,2.19.62,3.81,2.3,5.96,2.97,3.24,1.19,6.88,1.18,10.25.02-3.13,1.86-7.14,2.08-10.56.83-3.24-1.11-5.9-4.75-9.65-3.33h0Z"/>
        <path class="cls-2" d="M129.91,144.36c3.06-1.25,6.26.18,8.79,1.76,2.57,1.41,5.66,1.72,8.62.94-2.75,1.49-6.3,1.36-9.04-.14-2.51-1.58-5.31-3.06-8.37-2.55h0Z"/>
        <path class="cls-2" d="M135.42,142.15c2.48-.96,5.34-.68,7.78.32,2.38,1.03,4.22,3.19,6.99,2.71-2.53,1.27-5.17-.91-7.35-1.88-2.32-.97-4.89-1.39-7.42-1.15h0Z"/>
        <path class="cls-2" d="M144.44,140.26c2.02-.12,4.03.75,5.33,2.31-1.98-.5-3.61-1.21-5.33-2.31h0Z"/>
        <path class="cls-2" d="M146.76,139.82c.09-1.3,1.18-2.34,2.48-2.37-.67,1.13-1.33,1.75-2.48,2.37h0Z"/>
        <path class="cls-2" d="M97.58,165.72c-1.36-2.3-1.6-5.26-.61-7.74.27,2.67.45,5.06.61,7.74h0Z"/>
        <path class="cls-2" d="M100.59,163.5c-1.78-4.86-1.55-10.54.65-15.23-.98,5.1-1.19,10.07-.65,15.23h0Z"/>
        <path class="cls-2" d="M103.48,161c-1.21-5.9-.23-12.33,2.67-17.61-1.73,5.78-2.62,11.57-2.67,17.61h0Z"/>
        <path class="cls-2" d="M107.52,158.07c-1.91-6.23.35-13.73,5.4-17.85-4.06,5.07-5.98,11.38-5.4,17.85h0Z"/>
        <path class="cls-2" d="M111.63,155.15c-.19-5.61,2.07-11.39,6.03-15.37-2.95,4.79-4.94,9.85-6.03,15.37h0Z"/>
        <path class="cls-2" d="M116.4,151.77c.21-4.82,2.37-9.64,5.85-12.98-2.49,4.16-4.39,8.37-5.85,12.98h0Z"/>
        <path class="cls-2" d="M121.08,148.93c.89-4.03,2.8-7.83,5.51-10.94-1.66,3.79-3.46,7.35-5.51,10.94h0Z"/>
        <path class="cls-2" d="M125.2,147.02c1.21-3.38,2.75-6.5,4.71-9.52-.8,3.5-2.42,6.75-4.71,9.52h0Z"/>
        <path class="cls-2" d="M129.11,144.7c.73-2.75,2.36-5.23,4.6-6.98-1.28,2.56-2.76,4.79-4.6,6.98h0Z"/>
        <path class="cls-2" d="M134.49,142.46c.8-2.12,1.74-3.91,3.05-5.76-.12,2.25-1.26,4.4-3.05,5.76h0Z"/>
        <path class="cls-2" d="M138.96,141.04c.6-1.69,1.33-2.99,2.46-4.38.06,1.78-.91,3.51-2.46,4.38h0Z"/>
        <path class="cls-2" d="M143,140.08c.02-1.28.42-2.22,1.34-3.11.27,1.25-.25,2.45-1.34,3.11h0Z"/>
      </g>
    </g>
  </g>
  <g>
    <path class="cls-1" d="M130.59,61.01c1.94-1.35,3.13-3.1,3.22-5.02,0,0,.02,0,.02,0,7.61-12.77-7.86-18.44-7.86-18.44-1.75-.49-3.42-.83-5.03-1.07,0-.02,0-.05,0-.07,3.62-2.15,1.34-9.05,1.34-9.05-5.71-12.24-20.04-6.29-22.02-5.4-.08,0-.15.02-.23.03.3-1.7.53-3.48.63-5.36,1.23-22.16-12.77-13.14-12.77-13.14-7.21,5.02-11.97,10.1-15.06,14.9-.18.04-.35.09-.52.13.95-10.01-12.13-21.54-22.31-16.85-9.71,4.47-3.28,17.25-2.27,19.12-.02.04-.03.08-.05.12-2.25-1.56-4.79-2.72-7.66-3.27-17.48-3.33-10.98,3.33-10.98,3.33,0,0-13.15-.17-3,12.65,2.78,3.51,5.57,5.73,8.33,7.32,0,.06-.01.11-.02.17l-.25-.33s-18.71-5.66-20.54,5.99c-1.83,11.65,1.17,13.15,9.49,14.15,3.94.47,9.39.42,14.53.49,0,.08,0,.15,0,.23-4.63,1.11-24.84,6.57-24.53,17.06.35,11.84,9.15,13.45,9.15,13.45,0,0,2.59-.2,5.87-1.22.04.11.09.23.13.34-.17,1.28-.35,5.29,3.84,5.43.63.02,1.06.1,1.35.22.09.4.21.79.34,1.16-.57,1.36-2.63,3.52-.53,5.61,3.29,3.29,7.71,5.92,13.61.18.08,0,.16,0,.25-.02.51,2.49,1.45,5.11,2.98,7.83,0,0,3.42,4.64,6.85-2.32.07-.14.13-.29.2-.43.01.02.03.03.04.05l-.24.38s-.99,10.05,6.96,5.52c0,0,2.44-1.63,3.07-3.17-.36,1.42-.98,5.58,4.44,4.94,3.4-.4,6.43-3.14,8.41-7.3.02.02.04.04.06.06l-.09.03s1.86,6.22,9.58,3.76c7.72-2.47,10.89-2.38,10.89-2.38,0,0,5.11-1.27.7-8.11.01-.04.02-.09.04-.13,5.62,2.55,10.78,3.01,13.73,3.26,5.65.49,0,0,6.63-5.89,6.42-5.7-8.76-20.28-9.74-21.21,0-.01,0-.02,0-.03,1,.29,16.99,4.95,21.04,2.57,4.18-2.46,2.21-10.07,2.21-10.07,0,0,.56-5.63-4.22-10.21Z"/>
    <path class="cls-5" d="M54.99,51.81s4.89-5.55,14.96-6.04c3.66-.18,8,.32,13.04,1.98,0,0,14.25,7.98,9.33,20.26-4.91,12.28-21.61,10.56-21.61,10.56,0,0-20.39,2.7-19.65-17.93,0,0,1.68-6.94,3.93-8.84Z"/>
    <g>
      <g>
        <path class="cls-4" d="M69.95,45.78s-11.77-21.58,17.95-42.28c0,0,14-9.03,12.77,13.14s-17.68,31.13-17.68,31.13"/>
        <path class="cls-4" d="M88.02,51.69c3.31-2.82,14.12-20.79,37.95-14.14,0,0,18.35,7.47,4.62,23.46,0,0-1.95-8.35-37.27,1.22,0,0,27.49-7.83,34.86-3.1,7.37,4.73,6.63,12.1,6.63,12.1,0,0,1.96,7.61-2.21,10.07s-21.09-2.59-21.09-2.59c0,0-11-9.14-20.87-7.57"/>
        <path class="cls-4" d="M100.03,22.07s16.12-7.87,22.26,5.29c0,0,2.33,7.01-1.42,9.1"/>
        <path class="cls-4" d="M77.53,78.31c2.62-.28,8.16,10.59,8.16,10.59,9.58,15.23,23.33,16.46,28.98,16.95,5.65.49,0,0,6.63-5.89,6.63-5.89-9.79-21.26-9.79-21.26"/>
        <path class="cls-4" d="M59.36,76.82s-20.8,14.45-9.32,34.87c0,0,3.42,4.64,6.85-2.32,3.42-6.96,4.64-17,5.74-21.64s3.52-9.14,3.52-9.14"/>
        <path class="cls-4" d="M56.88,109.37s-.99,10.05,6.96,5.52c0,0,2.98-1.99,3.2-3.64,0,0-2.21,6.18,4.31,5.41s11.7-10.06,10.71-21.65c0,0-.61-14.65-5.65-16.55"/>
        <path class="cls-4" d="M79.73,109.45s1.86,6.22,9.58,3.76,10.89-2.38,10.89-2.38c0,0,5.22-1.29.57-8.32"/>
        <path class="cls-4" d="M63.02,47.04s-5.52-26.06-23-29.39c-17.48-3.33-10.98,3.33-10.98,3.33,0,0-13.15-.17-3,12.65,10.15,12.82,20.43,8.58,28.94,18.19"/>
        <path class="cls-4" d="M47.87,21.04s-8.34-14.53,2.14-19.36c10.49-4.83,24.06,7.56,22.18,17.76"/>
        <path class="cls-4" d="M34.1,40.79s-18.71-5.66-20.54,5.99c-1.83,11.65,1.17,13.15,9.49,14.15s23.35-.33,27.99,2"/>
        <path class="cls-4" d="M38.53,61.42s-25.83,5.44-25.48,17.28c.35,11.84,9.15,13.45,9.15,13.45,0,0,6.01-.44,11.34-3.6,5.33-3.16,10.54-11.57,22-14.35"/>
        <path class="cls-4" d="M28.26,90.87s-1.21,5.66,3.78,5.83-2.17,3.66,1.16,6.99c3.33,3.33,7.81,5.99,13.81,0"/>
      </g>
      <g>
        <path class="cls-2" d="M72.8,44.42c-3.97-8.55-1.45-19.4,5.69-25.51,1.01-.86,2.07-1.65,3.22-2.29-1.02.83-2.01,1.69-2.89,2.65-6.41,6.53-8.66,16.43-6.02,25.16h0Z"/>
        <path class="cls-2" d="M75.45,45.59c-1.24-5.62-.43-11.77,2.23-16.87-1.34,5.61-2.07,11.1-2.23,16.87h0Z"/>
        <path class="cls-2" d="M78.28,45.6c2.43-6.1,4.04-12.25,4.95-18.76.51,6.53-1.29,13.32-4.95,18.76h0Z"/>
        <path class="cls-2" d="M81.03,46.29c5.04-7.27,8.33-15.69,9.37-24.48.14-1.1.27-2.69.36-3.79.05.63.09,1.27.12,1.91.24,9.58-3.31,19.33-9.84,26.36h0Z"/>
        <path class="cls-2" d="M86.11,48.93c7.08-6.41,13.42-13.59,18.8-21.48.35-.53.71-1.06,1.08-1.58-4.47,9.22-11.42,17.29-19.88,23.06h0Z"/>
        <path class="cls-2" d="M90.43,53.91c4.54-7.41,13.04-12.05,21.67-12.31,1.07,0,2.63.06,3.67.21-.61.04-1.22.07-1.83.09-9.05.65-17.69,5.04-23.52,12.01h0Z"/>
        <path class="cls-2" d="M91.86,56.46c2.28-3.99,6.7-6.84,11.28-7.27-4.23,1.83-7.87,4.17-11.28,7.27h0Z"/>
        <path class="cls-2" d="M93.42,58.54c8.13-5.63,18.08-8.7,27.96-8.65-1.04.17-2.59.4-3.64.59-8.47,1.44-16.63,4.24-24.32,8.06h0Z"/>
        <path class="cls-2" d="M93.23,66.05c7.57-4.69,17.35-5.77,25.78-2.89-.94-.13-2.32-.34-3.28-.43-7.64-.82-15.4.39-22.5,3.32h0Z"/>
        <path class="cls-2" d="M93,69.28c7-3.79,15.86-3.87,23.03-.46.47.24.94.49,1.4.74-.86-.28-2.11-.69-3-.93-7.01-1.94-14.52-1.66-21.42.64h0Z"/>
        <path class="cls-2" d="M89.01,73.74c7.94-.96,16.15,2.6,21.19,8.76.59.78,1.43,1.95,1.9,2.8-.38-.42-.75-.84-1.1-1.27-5.6-6.18-13.64-9.96-21.99-10.29h0Z"/>
        <path class="cls-2" d="M86.29,75.9c5.67-.65,11.8,2.01,15.18,6.61-4.45-3.59-9.52-5.8-15.18-6.61h0Z"/>
        <path class="cls-2" d="M82.6,77.17c9.33,3.33,17.73,9.41,23.83,17.21-.46-.42-.91-.84-1.35-1.27-6.73-6.32-14.31-11.65-22.48-15.95h0Z"/>
        <path class="cls-2" d="M81.48,77.5c4.8,5.66,10.01,10.69,15.83,15.29-6.57-3.41-12.19-8.84-15.83-15.29h0Z"/>
        <path class="cls-2" d="M80.7,83.34c4.9,7.64,6.43,17.46,4.12,26.24.07-.97.19-2.39.22-3.37.36-7.84-1.2-15.67-4.34-22.86h0Z"/>
        <path class="cls-2" d="M85,88.56c2.12,5.57,4.79,10.65,8.16,15.56-4.43-3.97-7.41-9.67-8.16-15.56h0Z"/>
        <path class="cls-2" d="M62.22,78.43c-3.97,4.29-7.23,8.86-10.03,13.99,1.47-5.64,5.17-10.78,10.03-13.99h0Z"/>
        <path class="cls-2" d="M64.35,78.52c-4.07,6.95-7.35,14.12-9.98,21.73,1.26-7.94,4.78-15.6,9.98-21.73h0Z"/>
        <path class="cls-2" d="M68.64,78.95c-2.65,7.81-4.02,15.79-4.15,24.03-1.28-8.13.22-16.8,4.15-24.03h0Z"/>
        <path class="cls-2" d="M71.31,78.95c-.34,6.16-1.03,12.18-2.1,18.25-.31-6.15.41-12.33,2.1-18.25h0Z"/>
        <path class="cls-2" d="M74.45,78.93c4.29,8.35,3.97,18.88-.55,27.08-.31.54-.64,1.07-.97,1.59.42-.98,1.02-2.41,1.38-3.44,2.88-8.1,2.9-17.09.14-25.24h0Z"/>
        <path class="cls-2" d="M55.45,75.03c-5.01,6.23-11.2,11.56-18.11,15.58,6.13-5.16,12.1-10.29,18.11-15.58h0Z"/>
        <path class="cls-2" d="M53.64,80.74c-4.97,5.82-9.68,11.66-14.33,17.74,3.47-6.81,8.41-12.91,14.33-17.74h0Z"/>
        <path class="cls-2" d="M50.87,65.63c-9.2-1.02-18.67,1.24-26.37,6.37-.97.64-2.31,1.64-3.22,2.35.46-.48.93-.96,1.41-1.42,7.42-6.82,18.38-9.78,28.18-7.3h0Z"/>
        <path class="cls-2" d="M51.83,68.53c-6.18.36-12.06,1.36-18.01,3.06,5.39-2.99,11.93-4.1,18.01-3.06h0Z"/>
        <path class="cls-2" d="M52.68,70.54c-7.54,5.01-15.72,9.18-24.2,12.34,7.9-4.4,16-8.52,24.2-12.34h0Z"/>
        <path class="cls-2" d="M52.89,53.8c-6.52-3.93-13.48-6.62-20.94-8.12,7.6.08,15.27,3.06,20.94,8.12h0Z"/>
        <path class="cls-2" d="M51.57,56.76c-4.1-2.64-8.4-4.27-13.21-5.04,4.81-.69,10.08,1.32,13.21,5.04h0Z"/>
        <path class="cls-2" d="M50.85,60.06c-7.5-3.69-15.51-5.69-23.86-5.98,8.27-1.14,17.11,1.08,23.86,5.98h0Z"/>
        <path class="cls-2" d="M56.12,50.31c-3.65-7.53-14.02-6.58-18.87-12.92-.67-.92-1.22-1.94-1.48-3.03.47,1.02,1.08,1.94,1.85,2.71,5.23,5.56,15.96,4.96,18.5,13.24h0Z"/>
        <path class="cls-2" d="M57.51,49.48c-1.34-8.44-13.87-9.09-14.63-17.83.48,1.96,1.71,3.54,3.11,4.87,4.13,3.79,11.64,6.28,11.52,12.96h0Z"/>
        <path class="cls-2" d="M59.6,48.35c-.35-8.29-9.96-11.38-12.56-18.67-.36-1.06-.59-2.18-.53-3.28.17,1.09.49,2.13.99,3.09,3.22,6.7,13.08,10.32,12.11,18.86h0Z"/>
        <path class="cls-2" d="M64.74,46.09c-2.5-8.97-5.57-17.75-9.47-26.2,0,0-1.67-3.63-1.67-3.63,5.81,8.97,9.66,19.25,11.14,29.83h0Z"/>
        <path class="cls-2" d="M66.93,46.23c-4.19-9.53-5.61-20.31-4.08-30.61,0,.65.01,1.3,0,1.95,0,9.7,1.41,19.34,4.08,28.66h0Z"/>
        <path class="cls-2" d="M68.98,48.91c-.59.66-.78,1.18-.74,2.07-.69-.03-1.01-.85-.79-1.45.21-.6.98-1.03,1.53-.62h0Z"/>
        <path class="cls-2" d="M68.83,57.63c.02.44.14.6.23.93.08.34.05.53.25.93-1.21.59-1.83-1.77-.48-1.86h0Z"/>
        <path class="cls-2" d="M74.42,59.41c1.29-.45,2.31,1.64,1.16,2.38-.42-.98-.61-1.38-1.16-2.38h0Z"/>
        <path class="cls-2" d="M69.11,64.01c.02,1.05.26,1.79.85,2.66-1.5.52-2.37-2.2-.85-2.66h0Z"/>
        <path class="cls-2" d="M71.53,68.87c1-.54,1.27-.63,2.4-.69-.09,1.16-1.71,1.62-2.4.69h0Z"/>
        <path class="cls-2" d="M61.12,62.1c-.05.9-.07,1.06-.32,1.93-1.18-.14-.83-2.18.32-1.93h0Z"/>
        <path class="cls-2" d="M72.51,63.23c.83.34.75.24.96,1.12-.75.55-1.61-.46-.96-1.12h0Z"/>
        <path class="cls-2" d="M74.76,54.23c.67-.33.98-.08.8.64-.67.33-.98.08-.8-.64h0Z"/>
        <path class="cls-2" d="M79.72,56.5c.86.54,1.09,1.33.64,2.24-.87-.54-1.09-1.33-.64-2.24h0Z"/>
        <path class="cls-2" d="M63.87,54.63c-.26.23-.25.37-.41.54-.21.1-.34.05-.64.23-.86-.67.66-1.79,1.05-.77h0Z"/>
        <path class="cls-2" d="M65.14,60.28c.61.47.54.93-.2,1.17-.61-.47-.53-.92.2-1.17h0Z"/>
        <path class="cls-2" d="M63.89,67.7c.49.76.47.59.19,1.45-.94.08-1.12-1.29-.19-1.45h0Z"/>
        <path class="cls-2" d="M67.77,72.57c.03.72-.42,1.34-1,1.71l-.23-.92c.69.03,1.33.16,1.92.58-.33.2-.66.3-.99.35-.49.05-1.45.27-1.46-.47,0-.17.11-.32.25-.4.46-.26.88-.53,1.51-.86h0Z"/>
        <path class="cls-2" d="M77.74,72.97c-.03.57-.27.9-.76,1.05,0,0-.33-.78-.33-.78.67.16.73.44.17.85-.31.24-.73-.17-.52-.49,0,0,.18-.29.18-.29.31-.41.7-.51,1.25-.34h0Z"/>
        <path class="cls-2" d="M80.2,67.11c.68.45.68,1.01,0,1.46-.68-.45-.68-1.01,0-1.46h0Z"/>
        <path class="cls-2" d="M78.55,63.72c.2.27.23.43.21.56l-.51-.73c.28-.12.43.04.66.34-.09.58-.28.63-.75.58-.7-.13-.39-1.01.39-.77h0Z"/>
        <path class="cls-2" d="M83.01,62.43c.74.15.86.57.29,1.07-.74-.15-.85-.57-.29-1.07h0Z"/>
        <path class="cls-2" d="M85.73,67.59c.54.43.47.58-.2.39-.54-.43-.46-.58.2-.39h0Z"/>
        <path class="cls-2" d="M87.03,63.01c.7.11.74.38.1.68-.7-.11-.74-.38-.1-.68h0Z"/>
        <path class="cls-2" d="M84.09,57.95c-.14-.24.2-.35.35-.22.26.18.26.35,0,.52-.15.12-.49.01-.34-.23.16-.22-.13-.34-.28-.24-.6.29.54.72.28.16h0Z"/>
        <path class="cls-2" d="M83.79,54.03c.45.52.34.68-.29.39-.45-.53-.33-.68.29-.39h0Z"/>
        <path class="cls-2" d="M80.18,51.99c.12.67,0,.71-.29.1-.12-.67,0-.71.29-.1h0Z"/>
        <path class="cls-2" d="M74.32,50.32c0,.72-.31.84-.78.29,0-.72.31-.84.78-.29h0Z"/>
        <path class="cls-2" d="M70.61,53.54c.26.3.31.37.3.4-.03,0-.11-.04-.4-.3-.26-.3-.31-.38-.3-.4.03,0,.11.04.4.3,0,0-.3-.26,0,0Z"/>
        <path class="cls-2" d="M64.56,50.81c-.03.39-.06.48-.1.5-.03-.01-.06-.1-.1-.5.03-.4.07-.49.1-.5.03.02.07.11.1.5,0,0-.03-.39,0,0Z"/>
        <path class="cls-2" d="M58.28,55.19c.58.38.51.58-.18.49-.58-.38-.51-.58.18-.49h0Z"/>
        <path class="cls-2" d="M58.89,59.58c.29.63.14.75-.39.29-.29-.63-.13-.74.39-.29h0Z"/>
        <path class="cls-2" d="M55.97,64.67c.67.24.68.55,0,.78-.68-.24-.67-.54,0-.78h0Z"/>
        <path class="cls-2" d="M58.37,70.44c.71.02.79.29.2.68-.71-.02-.79-.29-.2-.68h0Z"/>
        <path class="cls-2" d="M62.12,74.73c.72.39.51-.11.29.68-.66.53-1.13-.56-.29-.68h0Z"/>
        <path class="cls-2" d="M84.87,72.2c-.11.94-.72,1.41-1.66,1.27.11-.94.72-1.41,1.66-1.27h0Z"/>
        <path class="cls-2" d="M72.37,74.43c.54.42.47.58-.2.39-.55-.42-.47-.57.2-.39h0Z"/>
        <path class="cls-2" d="M87.98,59.09c.2.68-.03.84-.58.39-.2-.68.03-.83.58-.39h0Z"/>
        <path class="cls-2" d="M90.13,64.67c.18.92-.24,1.53-1.17,1.66-.19-.92.25-1.53,1.17-1.66h0Z"/>
      </g>
    </g>
  </g>
</svg>