<?xml version="1.0" encoding="UTF-8"?>
<svg id="_오른쪽_위" data-name="오른쪽_위" xmlns="http://www.w3.org/2000/svg" version="1.1" viewBox="0 0 61.13 164.52">
  <defs>
    <style>
      .cls-1 {
        fill: #ff97b5;
      }

      .cls-1, .cls-2, .cls-3, .cls-4, .cls-5, .cls-6 {
        stroke: #111114;
      }

      .cls-1, .cls-2, .cls-4, .cls-5, .cls-6 {
        stroke-linecap: round;
        stroke-linejoin: round;
      }

      .cls-1, .cls-3, .cls-4, .cls-5, .cls-6 {
        stroke-width: 1.2px;
      }

      .cls-2 {
        fill: #00d675;
      }

      .cls-3 {
        stroke-miterlimit: 10;
      }

      .cls-3, .cls-6 {
        fill: #00b2ff;
      }

      .cls-4 {
        fill: none;
      }

      .cls-7 {
        fill: #111114;
        stroke-width: 0px;
      }

      .cls-5 {
        fill: #ffec2d;
      }
    </style>
  </defs>
  <path class="cls-2" d="M27.08,68.49c1.37,31.21.77,62.62-1.79,93.64,1.14.63,2.27,1.26,3.41,1.89-.23-.13,2.95-51.04,3.01-55.93.12-9.48.03-18.97-.25-28.44-.17-5.73.93-21.39-2.61-24.66-2.43,2.89-1.96,9.17-1.77,13.49Z"/>
  <g>
    <g>
      <path class="cls-6" d="M12.49,72.83c4.06-2.2,8.13-4.4,12.19-6.6.87,3.05,1.74,6.09,2.61,9.14,1.95-2.59,3.33-5.66,4.01-8.89,4.53.73,8.97,2.06,13.18,3.95-1.21-4.37-4.33-8.04-8.26-9.74-8.96-3.87-20.29,2.78-23.73,12.14Z"/>
      <path class="cls-3" d="M57.83,11.76c.55-4.71-4.27-1.6-6.14-3.35-1.87-1.75-7.58-.15-6.68-1.9.9-1.75-4.34-3.69-10.37-5.39-6.03-1.7-9.86,4.27-9.86,4.27,0,0-4.73-3.97-10.77-4.75-6.04-.78-4.6,8.9-4.6,8.9-.89.65-6.36,1.75-8.4,19.46-2.04,17.71,3.71,14.29,8.67,25.42,4.96,11.13,20.7,7.37,22.01,7.65,19.78,4.22,18.15-14.88,23.6-25.15,5.44-10.27,5-19.07,5.21-23.06.21-3.99-2.68-2.1-2.68-2.1"/>
      <path class="cls-6" d="M9.42,9.55S7.98-.13,14.02.64c6.04.78,10.77,4.75,10.77,4.75,0,0,3.83-5.97,9.86-4.27s11.27,3.64,10.37,5.39c-.9,1.75,4.81.15,6.68,1.9,1.87,1.75,6.69-1.36,6.14,3.35"/>
      <path class="cls-1" d="M28.22,20.47s-1.79-12.24,4.51-15.85c6.29-3.61,4.25,8.14,4.25,8.14l-4.12,10.43"/>
      <path class="cls-1" d="M26.41,20.79s-.04-12.73-6.69-14.88-5.29.83-5.29.83c0,0,6.42,10.03,7.42,15.75"/>
      <path class="cls-1" d="M33.74,24.16s4.28-14.61,10.22-14.48c5.93.13,6.13.82,6.02,1.19s-.93,2.34-1.51,2.57-2.6.46-5.11,4.27c-2.51,3.81-5.31,6.96-5.31,6.96"/>
      <path class="cls-5" d="M31.7,62.08c-1.31-.28-17.05,3.48-22.01-7.65C4.73,43.3-1.02,46.72,1.02,29.01S8.53,10.2,9.42,9.55s5.88-.27,5.28,3.49c-.6,3.77.16,7.38,1.07,8.44.33.38,1.58.66,3.1.82,2.68.3,6.18.28,6.89-.04,1.12-.5-.2-2.88,2.46-1.78s3.33,2.08,4.64,2.72.57,2.33,3.04,1.95,3.15-.88,4.18-1.29c1.03-.41,1.27,2.46,2.64-.52s3.66-4.96,3.66-4.96l5.27-3.37s1.27,1.09,2.67-.12c1.39-1.21,3.51-3.11,3.51-3.11,0,0,2.89-1.89,2.68,2.1-.21,3.99.23,12.79-5.21,23.06-5.44,10.27-3.81,29.38-23.6,25.15Z"/>
      <path class="cls-4" d="M16.15,21.44c-1.58,4.43-.87,9.38.68,13.82s3.89,8.56,5.67,12.91,3,9.13,2.14,13.75"/>
      <path class="cls-4" d="M41.63,25.4c-1.56,12.47-4.88,24.71-9.83,36.26"/>
      <path class="cls-7" d="M24.41,62.68c-.37.96-1.16,1.46-2.02,1.86-.72.56-1.23,1.41-2.03,1.89-.52.32-1.09.58-1.74.69-.04,0-.07-.04-.04-.07.88-1.39,2.38-1.85,3.65-2.72.56-.75,1.15-1.42,2.13-1.71.03-.01.07.03.05.06h0Z"/>
      <path class="cls-7" d="M27.8,62.82c.42.89.26,1.76,0,2.63.06,1.48.51,2.97-.25,4.38-.02.03-.07.03-.08,0-.65-1.48-.1-2.9.07-4.38-.2-.89-.3-1.75.19-2.62.01-.03.07-.03.08,0h0Z"/>
      <path class="cls-7" d="M32.5,62.59c1.2.02,2.15.6,3.03,1.29.98.5,2.13.67,3.06,1.28.63.39,1.21.85,1.7,1.45.02.03,0,.08-.04.07-1.9-.33-3.24-1.64-4.84-2.56-1.09-.27-2.11-.6-2.95-1.45-.03-.03,0-.08.03-.07h0Z"/>
    </g>
    <g>
      <path class="cls-7" d="M30.32,21.13c-.23-1.74.38-3.22,1.14-4.68.45-1.54.3-3.23.84-4.76.34-1.02.75-2.01,1.4-2.94.03-.05.11-.03.12.03.33,2.87-1.1,5.2-1.98,7.77-.08,1.64-.31,3.23-1.4,4.61-.03.05-.11.03-.12-.03h0Z"/>
      <path class="cls-7" d="M35.34,24.69c.39-1.77,1.43-3.04,2.59-4.3,1.29-2.5,1.91-5.28,4.04-7.32.04-.04.12,0,.11.05-.12,1.18-.5,2.25-.97,3.27-.69,1.57-2.01,2.73-2.85,4.19-.56,1.62-1.31,3.15-2.82,4.17-.04.03-.12-.01-.1-.07h0Z"/>
      <path class="cls-7" d="M23.25,21.97c-.6-1.5-.54-2.85-.52-4.36-.65-2.18-2.42-4.07-3.1-6.57-.02-.05.04-.11.09-.08.93.52,1.63,1.3,2.18,2.17.85,1.32.84,2.93,1.21,4.39.68,1.39,1.03,2.97.26,4.45-.02.05-.1.05-.12,0h0Z"/>
      <path class="cls-7" d="M32.65,62.49c2.77-2.57,4.48-5.85,5.93-9.25,1.59-3.38,2.75-6.98,3.58-10.63,1.76-7.32,3.89-14.52,6.75-21.49.02-.06.13-.03.11.03-1.69,9.29-5.12,18.05-7.99,27-.94,3.66-1.84,7.44-4.15,10.55-1.12,1.56-2.52,2.94-4.16,3.9-.06.04-.12-.05-.07-.1h0Z"/>
      <path class="cls-7" d="M34.67,62.58c6.25-4.6,10.06-11.89,11.92-19.28,1.97-7.55,4.32-14.98,7.4-22.17.02-.06.13-.03.11.04-1.68,7.64-4.1,15.04-6.89,22.33-1.47,3.64-2.48,7.42-4.16,10.99-1.8,3.5-4.66,6.67-8.33,8.19-.06.03-.12-.07-.06-.11h0Z"/>
      <path class="cls-7" d="M28.62,62.35c.62-4.27,1.93-8.29,3.28-12.35,1.52-6.95,2.08-14.03,4.07-20.9.01-.06.12-.05.12.02,0,2.87-.3,5.71-.75,8.53-.65,4.23-2.09,8.29-3.07,12.45-.67,4.23-1.63,8.41-3.54,12.3-.03.06-.13.03-.11-.04h0Z"/>
      <path class="cls-7" d="M26.24,62.91c.87-3.95,2.01-7.69,2.87-11.61.66-6.64-.61-13.2-1.51-19.78-.01-.06.09-.1.11-.03,3.01,6.2,2.79,13.22,1.78,19.86-.11,1.17-.22,2.85-.38,4.03-.47,2.66-1.39,5.25-2.77,7.57-.03.06-.13.02-.11-.04h0Z"/>
      <path class="cls-7" d="M25.79,62.59c.37-4.79.72-9.48.68-14.26-.82-7.94-3.74-15.45-4.87-23.37-.01-.07.09-.1.12-.03,3.2,7.41,4.65,15.35,5.15,23.37.75,4.76.77,9.74-.95,14.32-.02.06-.13.04-.12-.03h0Z"/>
      <path class="cls-7" d="M23.53,62.45c-1.58-3.81-5.14-5.85-8.06-8.56C6.3,44.54,4.46,32.37,7.39,19.98c.01-.07.12-.06.12.01-.28,11.35-1.49,25.51,8.62,33.15,3.01,2.47,6.74,5.18,7.52,9.27.01.07-.09.1-.11.03h0Z"/>
      <path class="cls-7" d="M22.81,62.08c.07-5.43-3.76-9.86-6.9-13.94-3.31-4.33-4.96-10.11-4.02-15.51,0-.07.12-.06.12,0,.29,2.69.77,5.29,1.52,7.81,1.11,3.77,2.62,7.6,5.2,10.65,1.82,2.01,3.84,4.08,4.4,6.88.32,1.36.31,2.85-.2,4.13-.02.06-.12.04-.12-.03h0Z"/>
    </g>
  </g>
</svg>