<?xml version="1.0" encoding="UTF-8"?>
<svg id="_오른쪽_위" data-name="오른쪽_위" xmlns="http://www.w3.org/2000/svg" version="1.1" viewBox="0 0 90.11 206.22">
  <defs>
    <style>
      .cls-1 {
        fill: #ffec2d;
      }

      .cls-1, .cls-2 {
        stroke-width: 0px;
      }

      .cls-3 {
        fill: #00d675;
      }

      .cls-3, .cls-4, .cls-5 {
        stroke: #111114;
        stroke-linecap: round;
        stroke-linejoin: round;
      }

      .cls-4 {
        fill: none;
      }

      .cls-4, .cls-5 {
        stroke-width: 1.2px;
      }

      .cls-2 {
        fill: #111114;
      }

      .cls-5 {
        fill: #ff6a37;
      }
    </style>
  </defs>
  <g>
    <path class="cls-3" d="M44.68,114.26c-15.94-10.93-36.08-9.56-36.08-9.56,6.53-.98,30.29,7.66,34.62,10.72s8.52,10.34,8.52,10.34l.14-2.83s-2.43-5.53-7.2-8.67c0,0,5.05-11.98-13.04-14.79s-24.12.99-24.12.99c0,0-5.62,2.23-7.02,4.13,0,0,3.63,0,7.44,5.7,3.8,5.7,10.33,10,20.16,11.57,9.83,1.57,17.15-2.89,17.29-3.72l.16-.6"/>
    <g>
      <path class="cls-2" d="M42.69,112.96c-1.17-3.42-1.8-7.12-3.84-10.14,2.49,2.69,3.22,6.63,3.84,10.14h0Z"/>
      <path class="cls-2" d="M37.74,110.32c-.67-2.54-1.04-5.15-2.26-7.5,1.7,2.05,2.15,4.91,2.26,7.5h0Z"/>
      <path class="cls-2" d="M34.01,108.76c-.32-2.74-1.16-5.54-3.26-7.44,2.5,1.46,3.52,4.68,3.26,7.44h0Z"/>
      <path class="cls-2" d="M30.18,107.46c-.25-2.61-1.59-4.88-3.41-6.74,2.2,1.41,3.73,4.1,3.41,6.74h0Z"/>
      <path class="cls-2" d="M26.77,106.55c-.8-2.26-1.67-4.48-3.2-6.35,1.94,1.48,2.95,3.98,3.2,6.35h0Z"/>
      <path class="cls-2" d="M44.15,116.13c-1.72,1.1-3.55,2-5.42,2.84-1.87.72-3.84,1.69-5.9,1.49,4.01-.56,7.56-2.87,11.32-4.33h0Z"/>
      <path class="cls-2" d="M40.77,114.04c-3.12,2.53-6.72,4.58-10.59,5.67,3.69-1.61,7.15-3.59,10.59-5.67h0Z"/>
      <path class="cls-2" d="M37.42,112.53c-3.37,3-7.35,5.57-11.75,6.73,4.23-1.69,8.02-4.15,11.75-6.73h0Z"/>
      <path class="cls-2" d="M34.57,111.37c-3.66,3.06-7.87,5.73-12.53,6.93,4.49-1.73,8.52-4.31,12.53-6.93h0Z"/>
      <path class="cls-2" d="M31.55,110.22c-3.81,2.68-7.71,5.46-12.1,7.09,4.1-2.09,8.05-4.9,12.1-7.09h0Z"/>
      <path class="cls-2" d="M28.02,108.98c-1.68,1.35-3.49,2.53-5.32,3.67-1.87,1.02-3.75,2.32-5.91,2.55,4.06-1.36,7.47-4.2,11.24-6.21h0Z"/>
      <path class="cls-2" d="M24.73,107.89c-2.84,2.69-6.29,4.93-10.11,5.87,3.64-1.47,6.92-3.61,10.11-5.87h0Z"/>
      <path class="cls-2" d="M21.55,106.93c-2.24,1.92-4.78,3.95-7.76,4.44,2.82-1.03,5.17-2.95,7.76-4.44h0Z"/>
      <path class="cls-2" d="M23.57,105.86c-.83-2.33-1.87-4.76-4.12-6.04,2.53.76,3.87,3.59,4.12,6.04h0Z"/>
      <path class="cls-2" d="M20.87,105.41c-.84-2.31-2.11-4.53-4.41-5.59,2.55.51,4.16,3.14,4.41,5.59h0Z"/>
      <path class="cls-2" d="M17.67,105c-.59-2-2-3.49-3.57-4.81,1.88.82,3.55,2.68,3.57,4.81h0Z"/>
      <path class="cls-2" d="M14.9,104.78c-.41-1.82-2.33-2.75-3.53-4.06,1.27.6,2.46,1.48,3.23,2.68.23.4.46.91.3,1.38h0Z"/>
      <path class="cls-2" d="M18.66,106.14c-1.94,2.35-4.95,3.68-7.91,4.18,2.82-1.04,5.59-2.24,7.91-4.18h0Z"/>
      <path class="cls-2" d="M15.59,105.41c-1.08,1.6-3.15,2.35-5.03,2.29,1.81-.5,3.55-1.1,5.03-2.29h0Z"/>
    </g>
  </g>
  <path class="cls-3" d="M58.45,52.64s-2.04,70.84,0,84.56c0,0-1.55,57.16.97,68.52l-6.52-3.26c2.4-7.74-1.44-89.49-1.44-89.49.56-22.69,0-44.32,0-44.32"/>
  <g>
    <path class="cls-1" d="M84.69,31.75l-.4.1v-.03c5.59-.9,4.38-2.77,4.38-2.77,2.39-8.6-8.5-7.04-8.5-7.03,3.12-1.89,5.25-4.08,4.29-6.31-2.6-6.07-10.39-1.76-10.78-1.54h0c1.63-2.28,2.5-4.44,1.66-6-2.76-5.1-8.33.49-8.54.69l-.24-.04c.32-1.85.21-2.9.21-2.9-3.23-8.29-6.96-.47-6.99-.59-.15-.72-.39-1.4-.74-2.01-3.51-6.11-7.48,0-7.48,0h0c-.78-2-2.07-3.13-4.18-2.46-2.01.65-2.9,2.28-3.12,4.35h0s-3.34-5.76-5.86-3.79c-2.04,1.59-5,3.18-3.73,6.33h-.03c-.6-.11-9.84-1.86-7.77,6.41,0,.03,0,.06-.01.09-.39-.04-.77-.06-1.16-.05-7.53.28-5.7,5.25-5.7,5.25h.05c-.75.06-1.39.26-1.87.69-4.07,3.6-5.06,12.38-1.4,12.14-3.09,5.79-2.03,9.67,3.2,11.52-1.02,1.48-1.5,3.37-1.09,5.78,2.1,12.33,12.81,2.25,12.86,2.2h0c-3.03,3.85-4.34,8.26.47,11.84,0,0,5.95,3.36,8.85-2.08h.08c-.48,4.27.46,7.71,4.71,7.8,0,0,5.93.6,6.76-3.96h0c.94,2.3,2.38,3.93,4.58,4.18,0,0,6.08,1.17,5.56-6.86l.19.11c.97,1.25,2.07,1.97,3.28,1.8l4.84-2.17,4.84-4,1.27-4.78h5.98l3.06-2.23,2.65-3.84c-1.75-6.48-3.03-6.95-3.47-7.24l.44-.62c2.99.18,2.5.09,3.19-1.13,2.31-4.12-4.32-6.84-4.32-6.84ZM79.84,22.25l-.02-.03c.12-.07.24-.14.36-.21l-.34.24ZM26.15,21.18v.04c-.07-.03-.14-.07-.2-.1l.2.06Z"/>
    <path class="cls-5" d="M39.99,26.48s6.7-8.66,15.08-4.47c8.38,4.19,12.07,4.75,10.78,12.01-1.29,7.26-3.6,9.77-6.08,10.05s-10.29,3.35-15.04,0c-4.75-3.35-8.94-5.18-8.38-10.83s3.63-6.77,3.63-6.77Z"/>
    <g>
      <path class="cls-4" d="M48.65,21.03c.06-.01-9.12-17.64-1.26-20.17s4.49,20.01,4.49,20.01"/>
      <path class="cls-4" d="M51.57,3.32s3.97-6.11,7.48,0c3.51,6.11-3.97,18.7-3.97,18.7"/>
      <path class="cls-4" d="M59.78,5.32c.02.12,3.76-7.7,6.99.59,0,0,.82,7.47-8.08,17.85"/>
      <path class="cls-4" d="M66.79,8.86s5.74-5.9,8.55-.7c2.81,5.2-13.45,17.22-13.45,17.22"/>
      <path class="cls-4" d="M73.66,14.17s8.13-4.69,10.8,1.53c2.67,6.22-18.6,12.12-18.6,12.12"/>
      <path class="cls-4" d="M80.17,22.01s10.89-1.57,8.5,7.03c0,0,3.02,4.68-22.57,2.78"/>
      <path class="cls-4" d="M84.69,31.75s6.63,2.72,4.32,6.84c-2.31,4.12-23.65-2.23-23.65-2.23"/>
      <path class="cls-4" d="M64.72,38.59s8.9,5.14,12.71,5.66,4.49,0,4.49,0"/>
      <path class="cls-4" d="M63.85,40.65c1.23,1.35,14.85,8.33,12.75,15.38-1.38,4.61-6,7.55-10.69,8.6"/>
      <path class="cls-4" d="M61.88,43.19s8.37,12.2,8.45,14.56"/>
      <path class="cls-4" d="M57.18,44.64s3.01,20.82,9.04,19.98"/>
      <path class="cls-4" d="M51.57,45.59s-3.14,22.99,5.61,23.97c0,0,6.16,1.19,5.56-7"/>
      <path class="cls-4" d="M46.7,45.06s-12.18,24.06-.85,24.28c0,0,5.93.6,6.76-3.96"/>
      <path class="cls-4" d="M42.65,42.65s-21.56,12.7-10.45,20.98c0,0,6.1,3.46,8.96-2.27"/>
      <path class="cls-4" d="M37.76,38.59s-20.98-1.36-18.87,11c2.11,12.36,12.86,2.2,12.86,2.2"/>
      <path class="cls-4" d="M36.36,33.25s-16.5-6.76-19.59-.97c-3.09,5.79-2.03,9.67,3.2,11.52"/>
      <path class="cls-4" d="M37.76,28.63c-.9-.53-15.5-12.08-19.57-8.48s-5.06,12.38-1.4,12.14"/>
      <path class="cls-4" d="M41.02,25.35c-.65-.9-7.79-11.43-15.31-11.15-7.53.28-5.7,5.25-5.7,5.25"/>
      <path class="cls-4" d="M44.27,5.21s-3.34-5.75-5.86-3.79-6.46,3.93-2.04,8.85c4.43,4.92,8.8,11.98,8.8,11.98"/>
      <path class="cls-4" d="M34.68,7.77s-9.97-2.16-7.79,6.43"/>
      <path class="cls-4" d="M77.17,53.66c2.34,1.23,4.56.75,6.96-.38s4.18-3.51,4.48-6.14-.97-5.4-3.22-6.8"/>
    </g>
    <g>
      <path class="cls-2" d="M50.28,20.46c-1.75-3.88-2.45-8.25-1.99-12.47.66,4.21,1.3,8.27,1.99,12.47h0Z"/>
      <path class="cls-2" d="M53.91,21.03c.56-4.9,1.1-9.68,1.66-14.58.55,4.9-.03,9.94-1.66,14.58h0Z"/>
      <path class="cls-2" d="M57.41,22.57c1.56-3.36,3.22-7.06,4.47-10.52.46-1.19.87-2.4,1.3-3.61.02-.07.14-.05.14.03,0,0-.03.64-.03.64l-.12-.63h.14c-.17,1.29-.47,2.54-.81,3.78-1.08,3.7-2.75,7.26-5.1,10.31h0Z"/>
      <path class="cls-2" d="M60.73,24.2c3.6-3.59,6.69-7.58,9.28-11.95-1.59,4.87-4.95,9.2-9.28,11.95h0Z"/>
      <path class="cls-2" d="M64.57,26.38c5.37-1.97,10.25-4.97,14.46-8.84-3.4,4.66-8.76,7.94-14.46,8.84h0Z"/>
      <path class="cls-2" d="M66.67,29.73c4.85-1.42,9.94-2.04,14.99-1.81-4.97.87-9.96,1.47-14.99,1.81h0Z"/>
      <path class="cls-2" d="M66.39,34.42c5.73-.14,11.46.27,17.11,1.22-5.73.14-11.46-.27-17.11-1.22h0Z"/>
      <path class="cls-2" d="M65.87,37.46c3.97,1.03,7.75,2.57,11.31,4.62-3.97-1.03-7.75-2.57-11.31-4.62h0Z"/>
      <path class="cls-2" d="M63.67,42.84c3.71,1.84,6.86,4.92,8.79,8.59-2.85-3.03-5.69-5.81-8.79-8.59h0Z"/>
      <path class="cls-2" d="M59.28,44.14c2.72,4.05,4.96,8.36,6.7,12.92-2.72-4.05-4.95-8.36-6.7-12.92h0Z"/>
      <path class="cls-2" d="M54.06,45.98c1.46,5.7,2.39,11.52,2.77,17.39-1.46-5.7-2.39-11.53-2.77-17.39h0Z"/>
      <path class="cls-2" d="M48.58,45.85c-.24,5.43-1.03,10.84-2.35,16.11.24-5.43,1.03-10.84,2.35-16.11h0Z"/>
      <path class="cls-2" d="M44.02,44.37c-3.19,3.83-5.91,7.79-8.35,12.13,1.4-4.76,4.4-9.12,8.35-12.13h0Z"/>
      <path class="cls-2" d="M39.14,41.2c-5.39-.94-10.96,1.11-14.47,5.3,2.62-5.01,9.24-7.43,14.47-5.3h0Z"/>
      <path class="cls-2" d="M36.38,35.59c-5.47-.49-10.92-.62-16.41-.39,5.36-1.32,11.12-1.18,16.41.39h0Z"/>
      <path class="cls-2" d="M36.66,30.56c-5.05-2.91-10.45-5.04-16.12-6.38,5.86.23,11.68,2.54,16.12,6.38h0Z"/>
      <path class="cls-2" d="M38.49,26.49c-3.9-2.88-7.67-5.73-11.5-8.7,4.4,2.02,8.36,5.02,11.5,8.7h0Z"/>
      <path class="cls-2" d="M41.85,23.27c-2.72-4.05-5.91-8.25-9.07-11.97,4.03,3.06,7.21,7.27,9.07,11.97h0Z"/>
      <path class="cls-2" d="M46.83,21.25c-3.9-4.17-6.74-9.39-8.12-14.93,2.41,5.15,5.1,10.11,8.12,14.93h0Z"/>
      <path class="cls-2" d="M37.24,31.38c5.31-4.98,12.72-7.79,20-7.56-7.17.9-14.03,3.49-20,7.56h0Z"/>
      <path class="cls-2" d="M36.63,34.72c7.02-5.78,15.99-9.28,25.07-9.76-8.92,1.57-17.44,4.88-25.07,9.76h0Z"/>
      <path class="cls-2" d="M36.89,37.12c8.2-5.51,17.93-8.85,27.78-9.52-9.69,1.76-19.05,4.96-27.78,9.52h0Z"/>
      <path class="cls-2" d="M38.37,38.78c8.62-3.6,17.79-5.96,27.09-6.96-8.85,2-18.37,4.45-27.09,6.96h0Z"/>
      <path class="cls-2" d="M40.52,40.53c5.65-2.89,11.93-4.45,18.24-4.92,2.11-.12,4.23-.14,6.34.03.06,0,.08.1.01.12,0,0-.82.26-.82.26l.77-.38.02.12c-2.1.1-4.19.25-6.27.51-6.25.67-12.36,2.21-18.3,4.27h0Z"/>
      <path class="cls-2" d="M42.67,42.69c6.72-2.84,14.21-3.99,21.47-3.28-7.26.4-14.43,1.49-21.47,3.28h0Z"/>
      <path class="cls-2" d="M45.58,44.43c4.97-2.82,11.07-3.73,16.65-2.49-5.67-.13-11.27.71-16.65,2.49h0Z"/>
      <path class="cls-2" d="M38.3,27.96c1.24,5.4,3.28,10.54,6.06,15.33-3.72-4.17-5.92-9.74-6.06-15.33h0Z"/>
      <path class="cls-2" d="M40.21,26.12c1.88,6.82,3.6,14.5,9.07,19.42-6.34-4.21-8.25-12.3-9.07-19.42h0Z"/>
      <path class="cls-2" d="M42.94,24.03c1.5,7.65,4.59,14.89,9.08,21.26-5.39-5.7-8.68-13.43-9.08-21.26h0Z"/>
      <path class="cls-2" d="M45.58,22.28c1.47,8.12,4.28,15.91,8.32,23.1-5-6.61-7.95-14.82-8.32-23.1h0Z"/>
      <path class="cls-2" d="M49,21.27c2,8.17,4.49,16.17,7.46,24.03-3.96-7.43-6.51-15.66-7.46-24.03h0Z"/>
      <path class="cls-2" d="M52.47,21.37c2.37,7.33,4.71,15.45,6.59,22.92-2.98-7.38-5.19-15.08-6.59-22.92h0Z"/>
      <path class="cls-2" d="M55.8,23.14c3.31,6.31,5.05,13.5,4.97,20.63-1.03-7.03-2.68-13.91-4.97-20.63h0Z"/>
      <path class="cls-2" d="M59.18,24.83c2.82,4.99,4.19,10.84,3.85,16.56-.77-5.65-2.04-11.16-3.85-16.56h0Z"/>
      <path class="cls-2" d="M61.59,25.99c1.98,2.97,3.61,6.71,2.78,10.33-.31-3.67-1.79-6.83-2.78-10.33h0Z"/>
    </g>
  </g>
</svg>