<?xml version="1.0" encoding="UTF-8"?>
<svg id="_오른쪽_위" data-name="오른쪽_위" xmlns="http://www.w3.org/2000/svg" version="1.1" viewBox="0 0 110.36 141.39">
  <defs>
    <style>
      .cls-1 {
        fill: #00d675;
      }

      .cls-1, .cls-2, .cls-3 {
        stroke: #111114;
        stroke-linecap: round;
        stroke-linejoin: round;
        stroke-width: 1.2px;
      }

      .cls-2 {
        fill: none;
      }

      .cls-4 {
        fill: #111114;
        stroke-width: 0px;
      }

      .cls-3 {
        fill: #ff6a37;
      }
    </style>
  </defs>
  <g>
    <g>
      <path class="cls-3" d="M55.91,74.84s-21.24,8.83-30.18-4.78c0,0-15.36-20.31-16.76-37.62,0,0-4.75-6.05-8.38-4.56,0,0,6.98-2.82,10.61-1.08,0,0-6.51-13.38-4.37-21.46,0,0,4.93,2.53,15.26,5.6,0,0-1.12-6.7,4.47-10.33,0,0-3.07,7.26,5.03,9.22,8.1,1.95,51.75,25.83,35.09,51.6"/>
      <path class="cls-2" d="M11.08,26.57c16.95,11.07,31.64,25.59,42.9,42.42"/>
      <path class="cls-2" d="M21.8,9.96c2.69,7.28,6.46,14.1,10.21,20.89,3.61,6.53,7.24,13.09,11.71,19.06,4.48,5.97,9.86,11.39,16.36,15.05"/>
    </g>
    <path class="cls-1" d="M104.79,140.79s-29.9-57.25-42.47-65.35c0,0-8.1.94-12.57-4.42,0,0,4.38-4.58,11.92-2.27,0,0-2.14-7.65-.75-13.33,0,0,6.7-1.39,6.98,15.6,0,0,37.11,47.52,41.86,67.35"/>
  </g>
  <g>
    <path class="cls-4" d="M50.49,71.51c-18.72-7.27-22.85-31.62-41.21-39.42,2.31.73,4.48,1.86,6.5,3.2,14.1,9.58,18.92,28.69,34.71,36.22h0Z"/>
    <path class="cls-4" d="M9.92,34.26c7.43,8.08,10.97,18.86,17.16,27.75,5.09,7.79,13.44,14.41,23.15,13.9,1.35-.1,2.69-.34,4-.72-1.28.49-2.61.82-3.98.99-9.95,1.11-18.75-5.7-24-13.6-6.18-9.07-9.51-19.69-16.33-28.33h0Z"/>
    <path class="cls-4" d="M24.89,3.66c.7,11.12,7.49,20.74,15.54,28.02,5.9,5.78,13.48,9.9,18.24,16.8,1.52,2.32,2.68,4.94,3.01,7.69-.55-2.71-1.79-5.22-3.42-7.41-5.01-6.63-12.59-10.62-18.52-16.34-8.04-7.4-14.97-17.44-14.85-28.76h0Z"/>
    <path class="cls-4" d="M31.15,9.6c5.23,8.6,13.7,14.22,21,20.92,7.2,6.55,13.87,15.98,12.03,26.22.11-1.24.12-2.48.04-3.71-1.98-19.97-24.78-26.95-33.08-43.43h0Z"/>
    <path class="cls-4" d="M7.49,6.39c6.53,15.69,20.7,26.03,30.36,39.59,1.36,1.97,2.67,3.99,3.78,6.11-1.31-2-2.69-3.95-4.18-5.81C27.27,33.21,12.85,22.64,7.49,6.39h0Z"/>
  </g>
</svg>