<?xml version="1.0" encoding="UTF-8"?>
<svg id="_오른쪽_위" data-name="오른쪽_위" xmlns="http://www.w3.org/2000/svg" xmlns:xlink="http://www.w3.org/1999/xlink" version="1.1" viewBox="0 0 97.84 93.84">
  <defs>
    <style>
      .cls-1, .cls-2 {
        fill: #00b2ff;
      }

      .cls-3 {
        fill: #ff97b5;
      }

      .cls-3, .cls-4 {
        stroke-width: 0px;
      }

      .cls-5 {
        clip-path: url(#clippath);
      }

      .cls-6 {
        fill: none;
      }

      .cls-6, .cls-2 {
        stroke: #111114;
        stroke-linecap: round;
        stroke-linejoin: round;
        stroke-width: 1.2px;
      }

      .cls-4 {
        fill: #111114;
      }
    </style>
    <clipPath id="clippath">
      <path class="cls-2" d="M48.58,27.83s.42-3.19,5.26,0c1.94,1.28,4.02,2.09,6.01,3.13,2.97,1.56,5.72,3.63,7.47,8.55,2.91,8.21,1.23,20.54-10.7,25.8-11.93,5.26-23.62.1-27.96-14.14-4.35-14.24,8.87-20.34,8.87-20.34,0,0,3.67-4.22,11.06-2.99Z"/>
    </clipPath>
  </defs>
  <path class="cls-3" d="M93.37,44.27c-2.59-1.22-7.36-1.12-12.03-.59,3.11-.52,5.91-1.01,7.22-1.23,3.63-.6,6.35-3.33,3.83-10.58-2.2-6.34-11.49-1.22-13.8.17l-.06-.06c6.08-5.14,11.01-12.03,3.77-17.67-6.73-5.24-12.36-1.04-16.29,4.45,1.03-1.64,2.64-4.6,3.3-8.05,1-5.25-4.74-5.54-4.74-5.54,0,0-2.82.6-3.28-.71-.46-1.31-3.06-2.22-3.06-2.22-3.67-.28-5.85,2.51-7.12,6.29l-.05-.02.44-1.04s-1.53-10.92-13.32-5.25c0,0-4.96-.06-3.88,3.73l-.05.03-.11-.8s-6.75-4.56-12.59,6.73c0,0-.41,1.16.92,3.1,0,0,0,0,0,.01-.57-.58-6.49-6.16-12.9,3.77-3.48,5.39-1.72,8.27.84,9.87l-.04.11c-1.66-.57-4.92-1.06-6.75,2.89-2.52,5.44-4.23,8.26-1.61,9.57,2.58,1.29,2.05,2.77,6.63,3.01l.05.05c-1.41.34-11.49,3-6.89,7.32,4.94,4.64,5.28,5.04,5.81,7.15.54,2.12,3.06,7.05,9.71,3.73,2.95-1.47,5.94-2.82,8.36-3.87l-.08.38c-7.16,3.58-19,10.08-18.15,13.47,1.21,4.84,5.74,6.15,7.26,7.66,1.51,1.51,3.83,5.14,7.76,1.81.76-.65,1.75-1.75,2.84-3.11h.04s-.09.07-.09.07c0,0-3.7,9.2,8.09,9.6,0,0,4.74.81,7.15-2.22.39-.49.76-1.33,1.09-2.38l.1.04c-.23,2.13-.49,9.04,5.56,9.29,0,0,3.33-1.81,7.15-1.31s5.74-.6,6.05-2.12c.08-.41.26-1.68.3-3.48h.04s-.07.97-.07.97c0,0,2.26,3.53,7.4,0,4.98-3.42,7.11-1.84,7.88-5.58l.15.44c1.88-3.93,8.09-5.34,8.09-5.34,0,0,6.55-1.71,5.14-8.87-.3-1.51-1.47-2.96-3.13-4.31l.02-.07.54.53c8.99,2.67,7.96-9.18,7.96-9.18,2.84-2.6,4.27-8-1.38-10.65Z"/>
  <g>
    <g>
      <g>
        <path class="cls-1" d="M48.58,27.83s.42-3.19,5.26,0c1.94,1.28,4.02,2.09,6.01,3.13,2.97,1.56,5.72,3.63,7.47,8.55,2.91,8.21,1.23,20.54-10.7,25.8-11.93,5.26-23.62.1-27.96-14.14-4.35-14.24,8.87-20.34,8.87-20.34,0,0,3.67-4.22,11.06-2.99Z"/>
        <g class="cls-5">
          <path class="cls-4" d="M33.99,32.41c8.86-.43,21.34-1.64,30.06-1.39-8.55,1-21.49,1.17-30.06,1.39h0Z"/>
          <path class="cls-4" d="M31.62,35.81c10.05-.42,24.13-1.48,34.05-1.28.04,0,.04.06,0,.06-9.76.88-24.31,1.07-34.06,1.22h0Z"/>
          <path class="cls-4" d="M28.26,40.08c11.58-.73,27.81-2.22,39.26-2.33.04,0,.04.06,0,.06-11.25,1.18-27.98,1.82-39.26,2.27h0Z"/>
          <path class="cls-4" d="M27.85,43.28c12-.57,28.81-1.84,40.66-1.78.04,0,.04.06,0,.06-11.67,1.03-28.97,1.43-40.66,1.72h0Z"/>
          <path class="cls-4" d="M27.04,46.89c12.67-.55,30.43-1.79,42.93-1.72.04,0,.04.06,0,.06-12.33,1.01-30.58,1.38-42.93,1.66h0Z"/>
          <path class="cls-4" d="M28.65,51.13c12.03-.6,28.89-1.91,40.77-1.88.04,0,.04.06,0,.06-11.7,1.05-29.05,1.49-40.77,1.82h0Z"/>
          <path class="cls-4" d="M29.5,54.7c11.59-.49,27.85-1.64,39.29-1.51.04,0,.04.06,0,.06-11.27.95-28.01,1.23-39.29,1.45h0Z"/>
          <path class="cls-4" d="M30.58,57.86c11.04-.44,26.51-1.52,37.4-1.34.04,0,.04.06,0,.06-10.73.9-26.68,1.11-37.41,1.28h0Z"/>
          <path class="cls-4" d="M29.68,61.38c10.58-.44,25.4-1.52,35.84-1.34.04,0,.04.06,0,.06-10.28.9-25.57,1.11-35.85,1.28h0Z"/>
          <path class="cls-4" d="M32.54,64.37c9.25-.29,22.23-1.18,31.36-.86.03,0,.04.06,0,.06-8.98.76-22.4.76-31.36.8h0Z"/>
          <path class="cls-4" d="M30.3,32.68c.72,9.63,2.21,23.1,2.3,32.62,0,.04-.06.04-.06,0-1.17-9.33-1.8-23.29-2.24-32.62h0Z"/>
          <path class="cls-4" d="M34.02,32.44c.75,9.99,2.29,23.96,2.41,33.84,0,.04-.06.04-.06,0-1.21-9.68-1.87-24.15-2.35-33.84h0Z"/>
          <path class="cls-4" d="M37.33,28.4c.9,11.37,2.63,27.28,2.9,38.52,0,.04-.06.04-.06,0-1.34-11.03-2.22-27.46-2.84-38.53h0Z"/>
          <path class="cls-4" d="M41.38,27.36c.92,12.62,2.68,30.29,2.98,42.76,0,.04-.06.04-.06,0-1.37-12.26-2.28-30.45-2.92-42.76h0Z"/>
          <path class="cls-4" d="M44.71,25c.98,13.31,2.84,31.97,3.2,45.12,0,.04-.06.04-.06,0-1.43-12.95-2.43-32.13-3.14-45.13h0Z"/>
          <path class="cls-4" d="M47.64,24.97c1.09,13.32,3.09,31.98,3.56,45.16,0,.04-.06.04-.06,0-1.53-12.95-2.69-32.15-3.5-45.16h0Z"/>
          <path class="cls-4" d="M51.16,25c.98,12.58,2.83,30.19,3.18,42.62,0,.04-.06.04-.06,0-1.43-12.22-2.42-30.36-3.13-42.63h0Z"/>
          <path class="cls-4" d="M36.68,29.68c6.4-.29,15.44-1.3,21.73-.9-3.57.55-7.25.63-10.87.7,0-.06-11.05.37-10.86.2h0Z"/>
          <path class="cls-4" d="M53.88,24.97c1.15,12.41,3.23,29.77,3.75,42.05,0,.04-.06.04-.06,0-1.59-12.05-2.82-29.95-3.69-42.05h0Z"/>
          <path class="cls-4" d="M56.96,27.36c1.15,11.67,3.24,28,3.77,39.56,0,.04-.06.04-.06,0-1.59-11.32-2.84-28.19-3.71-39.56h0Z"/>
          <path class="cls-4" d="M60.01,29.06c.99,10.49,2.84,25.16,3.2,35.54,0,.04-.06.04-.06,0-1.43-10.16-2.44-25.35-3.14-35.55h0Z"/>
          <path class="cls-4" d="M63.2,30.82c.9,9.71,2.64,23.3,2.91,32.92,0,.04-.06.04-.06,0-1.35-9.4-2.23-23.5-2.85-32.92h0Z"/>
        </g>
        <path class="cls-6" d="M48.58,27.83s.42-3.19,5.26,0c1.94,1.28,4.02,2.09,6.01,3.13,2.97,1.56,5.72,3.63,7.47,8.55,2.91,8.21,1.23,20.54-10.7,25.8-11.93,5.26-23.62.1-27.96-14.14-4.35-14.24,8.87-20.34,8.87-20.34,0,0,3.67-4.22,11.06-2.99Z"/>
      </g>
      <path class="cls-6" d="M59.85,30.96s9.03-27.09,22.45-16.64c13.42,10.45-14.98,25.19-14.98,25.19"/>
      <path class="cls-6" d="M78.07,32.37s11.8-7.75,14.32-.5c2.52,7.26-.2,9.98-3.83,10.58-3.63.6-18.63,3.28-20.05,2.9"/>
      <path class="cls-6" d="M49.53,26.56s-1.99-25.12,8.69-24.32c0,0,2.6.91,3.06,2.22.46,1.31,3.28.71,3.28.71,0,0,5.74.29,4.74,5.54-1,5.25-4.22,9.41-4.22,9.41"/>
      <path class="cls-6" d="M51.5,7.48s-1.53-10.92-13.32-5.25c0,0-6.25-.09-3.22,5.25,3.02,5.35,8.57,17.78,7.86,20.48"/>
      <path class="cls-6" d="M34.14,5.19s-6.75-4.56-12.59,6.73c0,0-.91,2.52,4.23,6.35,0,0,7.47,12.2,11.75,12.55"/>
      <path class="cls-6" d="M22.51,15.08s-6.2-6.73-12.95,3.72c-6.75,10.45,6.2,11.47,6.48,12.02s12.57,4.38,13.47,7.86"/>
      <path class="cls-6" d="M11.38,29.22s-5.26-2.99-7.77,2.46c-2.52,5.44-4.23,8.26-1.61,9.57,2.62,1.31,2.02,2.82,6.85,3.02,4.84.2,18.93.5,18.93.5"/>
      <path class="cls-6" d="M8.85,44.27s-11.99,2.72-7.05,7.36c4.94,4.64,5.28,5.04,5.81,7.15s3.06,7.05,9.71,3.73c6.65-3.33,13.53-6.02,13.53-6.02,0,0-24.61,11.16-23.4,16,1.21,4.84,5.74,6.15,7.26,7.66,1.51,1.51,3.83,5.14,7.76,1.81s13.71-18.77,13.71-18.77"/>
      <path class="cls-6" d="M41.76,83.32s-1.68,9.62,5.48,9.93c0,0,3.33-1.81,7.15-1.31s5.74-.6,6.05-2.12c.3-1.51,1.84-14.52-6.43-23.53"/>
      <path class="cls-6" d="M60.7,87.3s2.26,3.53,7.4,0c5.14-3.53,7.26-1.72,7.96-5.95s-3.9-13.39-13.44-20"/>
      <path class="cls-6" d="M67.01,54.92s20.94,5.88,22.35,13.03-5.14,8.87-5.14,8.87c0,0-6.21,1.41-8.09,5.34"/>
      <path class="cls-6" d="M68.54,45.98s18.62-4.62,24.82-1.71c5.65,2.65,4.22,8.05,1.38,10.65,0,0,1.03,11.85-7.96,9.18"/>
    </g>
    <path class="cls-6" d="M25.24,78.91s-3.7,9.2,8.09,9.6c0,0,4.74.81,7.15-2.22,2.42-3.02,3.83-19.27,3.83-19.27"/>
  </g>
  <g>
    <path class="cls-4" d="M33.11,27.96c1.38.9,2.04,2.59,2.17,4.2-1.17-1.2-1.68-2.66-2.17-4.2h0Z"/>
    <path class="cls-4" d="M53.85,27.83c.25-6,1.54-17.64,6.9-21.14-2.84,2.53-3.6,6.54-4.61,10.05-.92,3.66-1.6,7.37-2.29,11.09h0Z"/>
    <path class="cls-4" d="M55.45,28.77c.48-1.17.65-3.06.95-4.3.94-4.26,2.19-8.95,5.58-11.94-3.7,4.73-4.02,10.98-6.53,16.25h0Z"/>
    <path class="cls-4" d="M51.5,26.41c-.18-5.45.22-11.12,2.35-16.19-1.03,5.19-1.46,10.98-2.35,16.19h0Z"/>
    <path class="cls-4" d="M57.3,29.71c.76-4.43,2.1-9.2,5.36-12.45-2.34,3.91-3.52,8.29-5.36,12.45h0Z"/>
    <path class="cls-4" d="M61.35,31.81c2.73-5.68,6.82-12.31,13.01-14.56-5.72,3.33-9.21,9.31-13.01,14.56h0Z"/>
    <path class="cls-4" d="M63.17,33.15c2.4-4.59,5.81-8.97,10.43-11.45-3.9,3.32-7.17,7.52-10.43,11.45h0Z"/>
    <path class="cls-4" d="M64.98,35.06c2.18-1.91,5.41-4.56,7.66-6.45,2.48-2.19,5.22-4.17,7.12-6.92-1.38,3.09-4.13,5.32-6.6,7.53-2.58,2.14-5.28,4.13-8.17,5.84h0Z"/>
    <path class="cls-4" d="M65.99,36.59c3.65-2.71,7.76-4.69,11.06-7.81-2.47,3.87-6.93,6.1-11.06,7.81h0Z"/>
    <path class="cls-4" d="M67.98,41.8c4.84-3.98,10.35-7.47,16.44-9.12-5.6,2.63-11.06,6.09-16.44,9.12h0Z"/>
    <path class="cls-4" d="M68.28,43.31c3.08-1.69,6.35-2.99,9.72-3.97,2.94-.81,6.08-1.46,9.14-1,.43.09.86.23,1.27.35-3.47-.49-6.88.55-10.2,1.43-2.91.81-7.03,2.22-9.94,3.2h0Z"/>
    <path class="cls-4" d="M68.56,47.86c3.66-.77,7.37-1.18,11.1-1.41,3.7-.1,7.6-.35,11.13.96-3.66-.7-7.39-.29-11.09-.16-3.28.18-7.9.48-11.14.61h0Z"/>
    <path class="cls-4" d="M68.39,49.62c2.92-.42,5.86-.55,8.8-.54,2.9.13,6.02,0,8.71,1.26-2.45-.65-6.17-.34-8.72-.46-2.93-.04-5.86-.06-8.79-.26h0Z"/>
    <path class="cls-4" d="M67.98,51.9c3.07-.25,6.14-.12,9.2.22,2.99.46,6.29.85,8.72,2.8-2.72-1.39-5.84-1.57-8.82-2.01-2.68-.32-6.45-.69-9.1-1.01h0Z"/>
    <path class="cls-4" d="M67.57,53.41c4.6.02,9.51.78,13.37,3.45-4.34-1.66-8.87-2.32-13.37-3.45h0Z"/>
    <path class="cls-4" d="M66.09,56.86c6.02,1.41,12.29,3.61,16.8,7.99-5.1-3.44-11.18-5.57-16.8-7.99h0Z"/>
    <path class="cls-4" d="M65.34,58.09c4.68,1.23,9.8,2.96,13,6.76-3.94-2.95-8.66-4.46-13-6.76h0Z"/>
    <path class="cls-4" d="M78.29,69.91c-1.6-2.46-4.22-3.97-6.53-5.68-2.14-1.47-5.17-3.47-7.27-4.93,2.72,1.15,5.28,2.62,7.72,4.28,2.31,1.73,5.01,3.53,6.08,6.34h0Z"/>
    <path class="cls-4" d="M61.35,62.47c4.13,2.46,7.61,6.98,8.62,11.72-2.12-4.42-5.14-8.32-8.62-11.72h0Z"/>
    <path class="cls-4" d="M59.85,63.55c4.11,4.21,8.12,9.1,9.57,14.91-2.48-5.4-6.3-9.99-9.57-14.91h0Z"/>
    <path class="cls-4" d="M58.05,64.6c2.85,3.19,5.59,6.82,6.59,11.04-1.99-3.75-4.65-7.25-6.59-11.04h0Z"/>
    <path class="cls-4" d="M56.62,65.3c1.81,2.51,3.34,5.21,4.69,7.99,1.23,2.79,2.72,5.74,2.58,8.87-.48-3.04-2.06-5.75-3.3-8.53-1.17-2.45-2.87-5.88-3.97-8.33h0Z"/>
    <path class="cls-4" d="M46.23,67.26c.31,4.07.17,8.18-.55,12.21-.29,1.32-.51,2.74-1.35,3.85.87-2.17.79-5.65,1.08-7.97.23-2.7.44-5.4.82-8.09h0Z"/>
    <path class="cls-4" d="M48.17,67.31c.54,6.18.55,12.4,0,18.57-.55-6.18-.54-12.4,0-18.57h0Z"/>
    <path class="cls-4" d="M50.06,67.16c.91,5.14,1.29,10.36,1.11,15.58-.92-5.14-1.28-10.36-1.11-15.58h0Z"/>
    <path class="cls-4" d="M51.5,66.92c1.16,2.93,2.03,5.95,2.73,9.02.57,3.05,1.42,6.29.66,9.38.15-3.12-.86-6.16-1.44-9.21-.59-2.71-1.47-6.5-1.95-9.2h0Z"/>
    <path class="cls-4" d="M52.67,66.66c3.12,3.2,4.67,7.82,4.63,12.25-1.07-4.27-2.43-8.42-4.63-12.25h0Z"/>
    <path class="cls-4" d="M42.76,66.66c0,4.67-.55,9.59-2.82,13.74,1.23-4.54,1.72-9.16,2.82-13.74h0Z"/>
    <path class="cls-4" d="M41.35,66.2c-1.2,5.61-2.94,11.1-5.18,16.38,1.2-5.61,2.94-11.1,5.18-16.38h0Z"/>
    <path class="cls-4" d="M39.33,65.3c-.83,4.34-2.17,8.51-4.05,12.51.82-4.34,2.18-8.51,4.05-12.51h0Z"/>
    <path class="cls-4" d="M37.3,64.06c-1.86,6.11-4.48,12.24-7.04,18.1,1.55-6.3,4.13-12.31,7.04-18.1h0Z"/>
    <path class="cls-4" d="M31.62,57.87c-5.07,3.24-11.02,6.13-16.04,9.45,4.53-4.3,10.32-7.08,16.04-9.45h0Z"/>
    <path class="cls-4" d="M32.57,59.3c-3.78,3.44-7.92,6.47-12.35,9.03,3.78-3.44,7.93-6.47,12.35-9.03h0Z"/>
    <path class="cls-4" d="M33.79,60.85c-4.71,4.91-9.81,9.44-15.24,13.54,4.71-4.91,9.81-9.44,15.24-13.54h0Z"/>
    <path class="cls-4" d="M34.91,62.05c-3.07,4.24-6.57,8.17-10.45,11.68,3.06-4.25,6.57-8.16,10.45-11.68h0Z"/>
    <path class="cls-4" d="M44.68,27.66c-.6-2.76-1.37-6.77-1.96-9.57-.74-3.14-1.22-6.42-2.83-9.25,2.16,2.52,2.85,5.95,3.61,9.09.65,3.21,1.1,6.46,1.18,9.74h0Z"/>
    <path class="cls-4" d="M46.34,27.61c-.42-2.83-.67-5.66-.93-8.5-.28-2.48-.35-6.05-1.05-8.43,1.34,2.56,1.51,5.55,1.85,8.36.23,2.85.33,5.71.13,8.57h0Z"/>
    <path class="cls-4" d="M47.87,27.66c-.03-3.19-.13-6.53-.12-9.71-.03-2.85.12-6.89-.14-9.69,1.41,6.32,1.12,13.02.26,19.4h0Z"/>
    <path class="cls-4" d="M38.84,29.71c-2.19-2.42-4.23-4.95-6.29-7.48-1.84-2.19-4.21-5.51-6.31-7.4,2.78,1.75,4.83,4.42,6.94,6.9,2.04,2.55,3.97,5.19,5.67,7.98h0Z"/>
    <path class="cls-4" d="M39.89,29.06c-3.55-4.43-6.68-9.2-9.31-14.24,3.56,4.43,6.67,9.21,9.31,14.24h0Z"/>
    <path class="cls-4" d="M41.42,28.38c-1.51-2.9-2.84-5.88-4.17-8.86-1.22-2.59-2.62-6.44-4.14-8.83,2.22,2.43,3.48,5.57,4.87,8.51,1.31,3,2.5,6.05,3.44,9.19h0Z"/>
    <path class="cls-4" d="M30.58,36.79c-5.38-4.17-10.76-9.33-17.73-10.39,7.11-.1,13.19,5.45,17.73,10.39h0Z"/>
    <path class="cls-4" d="M31.71,35.36c-1.98-1.55-4.68-3.95-6.6-5.62-1.95-1.6-4.47-4.23-6.73-5.34,2.82.79,5.05,2.93,7.26,4.74,2.16,1.93,4.22,3.97,6.07,6.22h0Z"/>
    <path class="cls-4" d="M32.93,34.09c-2.46-2.09-4.83-4.71-7.01-7.09-.67-.69-1.52-1.81-2.32-2.35,2.07.9,3.57,2.69,5.14,4.24,1.51,1.63,2.95,3.32,4.18,5.19h0Z"/>
    <path class="cls-4" d="M33.99,33.15c-1.72-2.22-4.11-5.33-5.83-7.5-2-2.41-3.83-5.06-6.45-6.85,2.96,1.27,5.05,3.95,7.07,6.35,1.95,2.51,3.77,5.14,5.2,7.99h0Z"/>
    <path class="cls-4" d="M29.05,39.5c-4.55-2.25-9.26-5.08-14.04-6.8-.62-.21-1.51-.44-2.16-.54,3.04-.12,5.92,1.25,8.61,2.52,2.67,1.37,5.24,2.94,7.59,4.82h0Z"/>
    <path class="cls-4" d="M28.56,40.75c-3.98-1.49-7.58-3.69-11.63-4.92,4.28.13,8.24,2.47,11.63,4.92h0Z"/>
    <path class="cls-4" d="M28.2,42c-2.81-.55-6.82-1.5-9.65-2.13-2.4-.52-4.8-1.1-7.24-1.35-.81-.07-1.64-.15-2.41.15,1.47-.84,3.31-.51,4.92-.42,4.94.58,9.76,1.94,14.39,3.74h0Z"/>
    <path class="cls-4" d="M27.9,43.65c-5.56-.37-11.27-1.79-16.84-2.03,5.62-.85,11.41.58,16.84,2.03h0Z"/>
    <path class="cls-4" d="M27.83,46.86c-2.89.02-7.06-.01-9.99,0-3.28.13-6.71-.05-9.81,1.16,2.89-1.8,6.5-1.8,9.8-1.95,3.35-.01,6.7.2,10,.79h0Z"/>
    <path class="cls-4" d="M28.02,48.46c-2.33.19-5.7.25-8.07.33-2.35.12-5.72.02-7.98.65,2.43-1.25,5.29-1.3,7.96-1.45,2.71-.05,5.41.05,8.09.47h0Z"/>
    <path class="cls-4" d="M28.36,50.1c-4.21,1.23-8.55,2.04-12.93,2.35-1.44.02-3.02.28-4.37-.32,1.42.25,2.89-.14,4.31-.3,4.19-.63,8.78-1.39,12.99-1.74h0Z"/>
    <path class="cls-4" d="M28.65,51.16c-3.37,1.16-7.16,2.04-10.61,2.93-1.14.36-2.43.48-3.4,1.2.76-.98,2.11-1.33,3.22-1.8,3.49-1.22,7.11-2.01,10.79-2.33h0Z"/>
    <path class="cls-4" d="M29.05,52.35c-3.18,1.5-6.52,2.49-10.01,2.94,3.18-1.51,6.52-2.48,10.01-2.94h0Z"/>
    <path class="cls-4" d="M29.5,53.98c-2.27,1.12-4.61,2.05-6.96,2.97-2.04.85-5.08,1.74-6.97,2.83,1.87-1.74,4.37-2.6,6.68-3.58,2.37-.9,4.77-1.69,7.25-2.23h0Z"/>
  </g>
</svg>