<?xml version="1.0" encoding="UTF-8"?>
<svg id="_왼쪽_위" data-name="왼쪽_위" xmlns="http://www.w3.org/2000/svg" version="1.1" viewBox="0 0 18.37 48.11">
  <defs>
    <style>
      .cls-1 {
        fill: #d793ff;
        stroke: #111114;
        stroke-linecap: round;
        stroke-linejoin: round;
        stroke-width: 1.2px;
      }

      .cls-2 {
        fill: #111114;
        stroke-width: 0px;
      }
    </style>
  </defs>
  <path class="cls-1" d="M15.71,12.95c.51-2.09,1.13-4.18,1.31-6.27.18-2.09-.15-4.24-1.3-5.34-1.68-1.6-4.42-.4-6.51,1.46C2.07,9.13-.97,22.14,1.38,31.3c2.35,9.16,9.02,14.6,16.39,16.21-.62-1.24-1.27-2.45-1.79-3.77.27-.07.53-.19.79-.38-1.16-4.89-2.48-9.39-2.67-14.87-.04-1.05.98-15.74,1.61-15.54Z"/>
  <path class="cls-2" d="M15.76,43.68c-1.8-2.13-2.68-4.82-3.14-7.53-1.32-4.33-2.51-9.14-1.02-13.54.02,0,.04.02.04.05.23,3.19.47,7.61.78,10.75.36,3.65,2.53,6.68,3.44,10.22.02.05-.06.09-.09.05h0Z"/>
  <path class="cls-2" d="M16.72,46.27c-2.63-1.48-4.42-4.05-5.57-6.78-2.44-4.27-4.13-9.35-2.63-14.24.01-.05.1-.04.1.01.29,4.8.68,9.71,2.82,14.08,1.64,2.42,3.5,4.55,5.35,6.86.04.04-.02.11-.06.08h0Z"/>
  <path class="cls-2" d="M15.49,46.62c-2.68-1.28-4.65-3.6-6.1-6.13-2.91-3.87-5.36-8.43-4.98-13.42,0-.05.09-.06.1-.01,1,3.73,2.14,7.25,3.7,10.77.75,1.78,2,3.27,3.4,4.56,0,0,3.93,4.15,3.93,4.15.04.04-.01.11-.06.08h0Z"/>
</svg>