<?xml version="1.0" encoding="UTF-8"?>
<svg id="_왼쪽_위" data-name="왼쪽_위" xmlns="http://www.w3.org/2000/svg" version="1.1" viewBox="0 0 124.02 158.92">
  <defs>
    <style>
      .cls-1 {
        fill: none;
      }

      .cls-1, .cls-2, .cls-3, .cls-4, .cls-5, .cls-6, .cls-7 {
        stroke: #111114;
      }

      .cls-1, .cls-2, .cls-3, .cls-4, .cls-7 {
        stroke-width: 1.43px;
      }

      .cls-1, .cls-2, .cls-3, .cls-5, .cls-6, .cls-7 {
        stroke-linecap: round;
        stroke-linejoin: round;
      }

      .cls-2, .cls-4 {
        fill: #00b2ff;
      }

      .cls-3 {
        fill: #ff97b5;
      }

      .cls-4 {
        stroke-miterlimit: 10;
      }

      .cls-5 {
        stroke-width: 1.2px;
      }

      .cls-5, .cls-6 {
        fill: #00d675;
      }

      .cls-6 {
        stroke-width: 1.17px;
      }

      .cls-7 {
        fill: #ffec2d;
      }

      .cls-8 {
        fill: #111114;
        stroke-width: 0px;
      }
    </style>
  </defs>
  <path class="cls-5" d="M64.13,154.9c3.01-17.43-1.85-86.93-1.67-87.81l-5.79,1.48s3.81,82.44,2.01,89.74"/>
  <g>
    <path class="cls-6" d="M64.73,135.45s5.85-11.09,21.12-13.21c15.27-2.12,23.37,2.94,33.12-21.67,1.26-3.18-.45-11.23,3.95-12.9,4.4-1.67-20.56-.14-30.48,5.12-9.92,5.25-16.89,11.67-18.64,23.26,0,0,.65,3.96-.45,6.77-1.1,2.82-7.42,6.72-7.42,6.72"/>
    <g>
      <path class="cls-8" d="M77.18,122.39c2.19-3.59,5.22-6.66,8.63-9.16,5.04-3.85,11.28-5.64,16.03-9.77,3.1-2.78,5.28-6.48,8.34-9.36,1.57-1.42,3.35-2.63,5.32-3.38-5.93,2.78-8.46,9.11-13.07,13.39-4.72,4.3-11.11,6.08-16.2,9.72-3.43,2.34-6.54,5.19-9.06,8.55h0Z"/>
      <path class="cls-8" d="M117.08,95.55c-2.69.5-5.4.57-8.12.51-.25,0-.45-.22-.43-.47.13-1.55.47-3.09,1.1-4.52-.08,1.55-.18,3.05-.2,4.56l-.46-.47c2.71-.09,5.41-.06,8.1.39h0Z"/>
      <path class="cls-8" d="M115.12,100.35c-2.22.25-4.43.33-6.65.36-1.12-.04-2.49.19-3.51-.58-1.01-.8-1.04-2.19-1.37-3.27-.36-1.44-.65-2.89-.91-4.36,0-.05.07-.08.09-.02,0,0,.12.35.12.35l-.2-.31c.93,1.39,1.67,4.46,2.35,6.17.55,1.37,2.2.99,3.45,1.11,2.22.09,4.43.24,6.64.55h0Z"/>
      <path class="cls-8" d="M113.03,106.47c-4.38-.06-8.74-.47-13.09-1-.17-.02-.31-.14-.37-.28-1.23-3-2.09-6.16-2.37-9.38.92,3.09,1.97,6.1,3.24,9.01l-.38-.29c4.35.45,8.69,1.02,12.97,1.94h0Z"/>
      <path class="cls-8" d="M110.85,111.79c-6.02-.69-12.29-1.33-18.33-1.62-.19,0-.36-.13-.42-.31-1.13-3.49-1.89-7.13-2.1-10.8.38,1.79.82,3.56,1.3,5.32.5,1.75,1.06,3.48,1.67,5.18l-.42-.31c6.17.16,12.33.93,18.29,2.53h0Z"/>
      <path class="cls-8" d="M105.12,116.28c-5.65-.61-13.54-1.48-19.11-2-.19-.02-.34-.16-.38-.33-.74-3.2-1.44-6.4-1.99-9.64.52,1.56,1.03,3.12,1.49,4.7.46,1.57.94,3.14,1.36,4.73l-.39-.33c6.41.38,12.81,1.27,19.03,2.88h0Z"/>
      <path class="cls-8" d="M92.69,118.55c-3.83-.29-7.58-.51-11.36-.37-.15,0-.29-.07-.38-.18-1.5-2.03-2.76-4.26-3.58-6.65,1.36,2.12,2.78,4.14,4.32,6.08l-.39-.18c3.84-.24,7.74.12,11.4,1.3h0Z"/>
    </g>
  </g>
  <g>
    <path class="cls-6" d="M60.07,151.51s-6.03-10.99-21.34-12.86c-15.31-1.86-23.32,3.33-33.47-21.12-1.31-3.16.27-11.23-4.16-12.83-4.43-1.6,20.55-.48,30.56,4.61,10.01,5.09,17.08,11.39,19.02,22.95,0,0-.59,3.97.56,6.76,1.15,2.8,7.53,6.6,7.53,6.6"/>
    <g>
      <path class="cls-8" d="M47.41,138.66c-2.57-3.32-5.72-6.12-9.2-8.4-5.15-3.56-11.56-5.23-16.35-9.45-4.68-4.21-7.31-10.49-13.29-13.17,1.98.71,3.78,1.89,5.38,3.29,3.11,2.82,5.35,6.49,8.5,9.22,4.82,4.05,11.09,5.74,16.19,9.5,3.45,2.45,6.53,5.46,8.78,9.02h0Z"/>
      <path class="cls-8" d="M7.08,112.49c2.68-.5,5.38-.57,8.09-.53,0,0-.45.48-.45.48-.04-1.5-.16-3-.27-4.56.66,1.41,1.02,2.95,1.18,4.5.03.25-.17.47-.42.48-2.72.1-5.43.08-8.13-.38h0Z"/>
      <path class="cls-8" d="M9.11,117.25c2.2-.35,4.41-.54,6.63-.66,1.25-.14,2.9.22,3.43-1.17.66-1.73,1.35-4.81,2.25-6.21,0,0-.2.31-.2.31,0,0,.11-.35.11-.35.01-.05.1-.04.09.02-.23,1.47-.5,2.93-.83,4.38-.32,1.09-.32,2.48-1.32,3.29-1.01.79-2.38.58-3.5.64-2.22.01-4.43-.03-6.65-.25h0Z"/>
      <path class="cls-8" d="M11.31,123.34c4.26-.98,8.6-1.63,12.94-2.15,0,0-.38.29-.38.29,1.22-2.94,2.23-5.96,3.1-9.07-.23,3.22-1.04,6.4-2.22,9.42-.06.16-.21.27-.37.29-4.34.6-8.69,1.08-13.07,1.21h0Z"/>
      <path class="cls-8" d="M13.57,128.62c5.93-1.7,12.09-2.58,18.25-2.84,0,0-.41.32-.41.32.58-1.72,1.11-3.45,1.58-5.21.45-1.76.86-3.54,1.21-5.34-.14,3.67-.84,7.32-1.92,10.83-.06.19-.23.31-.41.32-6.03.38-12.29,1.13-18.3,1.92h0Z"/>
      <path class="cls-8" d="M19.38,133.02c6.19-1.71,12.58-2.7,18.98-3.19,0,0-.39.34-.39.34.39-1.59.85-3.17,1.28-4.75.43-1.58.91-3.15,1.41-4.72-.5,3.25-1.14,6.46-1.83,9.67-.04.19-.2.32-.37.34-5.53.61-13.47,1.62-19.07,2.32h0Z"/>
      <path class="cls-8" d="M31.84,135.08c3.64-1.24,7.53-1.66,11.37-1.49l-.39.19c1.51-1.96,2.89-4.01,4.22-6.15-.78,2.4-2,4.65-3.46,6.71-.09.13-.23.19-.38.19-3.78-.08-7.54.2-11.36.55h0Z"/>
    </g>
  </g>
  <g>
    <g>
      <path class="cls-2" d="M36.56,79.79c5.47-.54,10.94-1.07,16.4-1.61-.45,3.74-.91,7.48-1.36,11.21,3.33-1.94,6.26-4.66,8.5-7.88,4.63,2.89,8.87,6.4,12.61,10.41.69-5.34-1.03-10.81-4.56-14.48-8.03-8.38-23.51-6.33-31.59,2.35Z"/>
      <path class="cls-4" d="M114.4,33.84c2.78-4.91-3.94-3.72-5.18-6.5-1.24-2.78-8.23-3.66-6.44-5.16,1.79-1.5-3.05-6.05-8.87-10.69-5.82-4.64-12.77.13-12.77.13,0,0-3.34-6.53-9.6-10.17-6.25-3.64-9.15,7.63-9.15,7.63-1.28.3-7.77-1.01-18.18,17.44-10.41,18.45-2.53,17.36-2.23,31.84.3,14.48,19.27,17.63,20.57,18.54,19.72,13.76,26.75-7.92,37.45-16.66,10.7-8.74,14.28-18.57,16.35-22.85,2.07-4.27-1.97-3.54-1.97-3.54"/>
      <path class="cls-2" d="M62.4,9.07s2.89-11.27,9.15-7.63,9.6,10.17,9.6,10.17c0,0,6.95-4.77,12.77-.13,5.82,4.64,10.66,9.19,8.87,10.69-1.79,1.5,5.2,2.39,6.44,5.16,1.24,2.78,7.96,1.6,5.18,6.5"/>
      <path class="cls-3" d="M77.95,29.71s3.69-14.23,12.25-15.28c8.56-1.05.9,10.88.9,10.88l-9.32,9.52"/>
      <path class="cls-3" d="M75.82,29.22s5.83-13.96-.46-19.39-6.17-1.53-6.17-1.53c0,0,2.4,13.95.86,20.68"/>
      <path class="cls-3" d="M82.29,36.3s11.43-14.02,17.87-11.14,6.34,3.72,6.05,4.08-2.09,2.14-2.84,2.11-3.06-.7-7.57,2.32c-4.51,3.02-9.02,5.17-9.02,5.17"/>
      <path class="cls-7" d="M62.56,76.88c-1.3-.91-20.28-4.06-20.57-18.54-.3-14.48-8.17-13.39,2.23-31.84,10.41-18.45,16.9-17.14,18.18-17.44,1.28-.3,6.56,2.41,4.17,6.26-2.39,3.85-3.23,8.16-2.72,9.73.18.57,1.43,1.45,3.01,2.33,2.79,1.56,6.64,3.15,7.57,3.13,1.46-.03,1.12-3.25,3.51-.82,2.4,2.43,2.69,3.82,3.83,5.12s-.45,2.81,2.43,3.54,3.86.49,5.18.52c1.32.03.25,3.28,3.13.64,2.88-2.63,6.29-3.74,6.29-3.74l7.33-1.26s.89,1.78,2.98,1.1,5.28-1.79,5.28-1.79c0,0,4.04-.73,1.97,3.54s-5.65,14.11-16.35,22.85c-10.7,8.74-17.73,30.41-37.45,16.66Z"/>
      <path class="cls-1" d="M64.29,25.19c-3.77,4.12-5.28,9.87-5.63,15.45-.35,5.58.31,11.17.25,16.76s-.92,11.38-4,16.05"/>
      <path class="cls-1" d="M90.36,41.3c-7.46,12.93-16.75,24.81-27.5,35.18"/>
      <path class="cls-8" d="M54.3,74.17c-.85.88-1.94,1.07-3.07,1.1-1.05.28-1.99.99-3.09,1.13-.72.11-1.46.14-2.23-.04-.04,0-.05-.07-.02-.09,1.6-1.12,3.45-.93,5.25-1.29.96-.57,1.91-1.03,3.12-.89.04,0,.06.06.03.09h0Z"/>
      <path class="cls-8" d="M57.94,75.89c.05,1.17-.53,2.05-1.22,2.88-.46.94-.48,2.08-1,2.99-.33.61-.73,1.2-1.29,1.69-.03.03-.09,0-.09-.04-.02-1.95,1.22-3.21,2.1-4.76.19-1.07.48-2.05,1.42-2.79.03-.03.09,0,.09.04h0Z"/>
      <path class="cls-8" d="M63.21,77.81c1.3.57,2.08,1.64,2.73,2.81.84,1,2.03,1.72,2.77,2.81.5.72.94,1.49,1.2,2.37.01.04-.04.08-.08.06-1.93-1.24-2.79-3.29-4.12-5.04-1.07-.8-2.04-1.64-2.56-2.95-.02-.04.03-.09.07-.07h0Z"/>
    </g>
    <g>
      <path class="cls-8" d="M79.95,31.39c.52-1.97,1.9-3.36,3.4-4.6,1.21-1.48,1.82-3.39,3.11-4.83.84-.96,1.75-1.86,2.9-2.57.06-.04.14.02.11.09-.65,1.9-1.7,3.47-3.06,4.87-.82.97-2,1.65-2.7,2.73-.84,1.75-1.87,3.43-3.66,4.4-.06.03-.13-.02-.11-.09h0Z"/>
      <path class="cls-8" d="M83.8,37.61c1.2-1.73,2.98-2.68,4.82-3.51,1.62-1.15,2.74-2.91,4.35-4.08,1.07-.72,2.26-1.74,3.55-2.04-.94,1.86-2.49,3.27-4.18,4.4-1.07.79-2.44,1.2-3.44,2.08-1.36,1.51-2.93,2.87-5.02,3.26-.06.01-.12-.07-.08-.12h0Z"/>
      <path class="cls-8" d="M71.82,29.06c.01-1.86.72-3.37,1.44-5.01.31-1.13-.11-2.33-.17-3.45-.24-1.75-.32-3.33-.19-5.18,0-.07.1-.1.14-.04.78.99,1.19,2.18,1.38,3.38.32,1.84-.43,3.59-.7,5.37-.01,1.19.06,2.47-.62,3.54-.3.53-.65,1.04-1.15,1.45-.05.04-.13,0-.13-.06h0Z"/>
      <path class="cls-8" d="M63.41,77.77c4.21-1.54,7.59-4.33,10.76-7.4,3.31-2.97,6.23-6.38,8.83-9.99,5.3-7.2,10.96-14.11,17.31-20.42.06-.06.16.02.11.09-6.14,9.39-13.94,17.41-21.22,25.88-2.71,3.57-5.45,7.3-9.41,9.63-1.93,1.21-4.12,2.05-6.36,2.35-.08.01-.11-.11-.03-.14h0Z"/>
      <path class="cls-8" d="M65.58,78.8c4.55-.97,8.54-3.21,12.18-5.92,3.8-2.61,7.03-5.99,9.77-9.7,5.65-7.36,11.65-14.42,18.34-20.87.06-.06.16.03.11.09-5.36,7.59-11.43,14.58-17.85,21.28-3.29,3.31-6.14,6.99-9.63,10.12-3.58,2.99-8.18,5.16-12.9,5.13-.08,0-.1-.13-.01-.14h0Z"/>
      <path class="cls-8" d="M59.06,75.76c2.63-4.37,5.94-8.2,9.29-12.02,4.83-6.74,8.77-14.68,14.2-21.02-3.04,7.96-8.69,14.59-13.84,21.29-1.83,2.79-3.65,5.79-5.95,8.22-1.13,1.27-2.31,2.48-3.59,3.61-.06.05-.15-.02-.11-.09h0Z"/>
      <path class="cls-8" d="M56.2,75.27c1.85-2.57,3.73-5.09,5.66-7.6,1.49-1.83,2.97-3.71,3.98-5.87,2.77-6.48,4.62-13.44,6.34-20.28.01-.08.14-.07.14.01.3,7.27-2.25,14.38-6.05,20.49-1.19,1.98-2.27,4.31-3.44,6.33-1.75,2.69-3.96,5.1-6.53,7.02-.06.05-.15-.03-.1-.1h0Z"/>
      <path class="cls-8" d="M55.85,74.71c2.6-5.05,5.16-10.06,7.32-15.3,2.77-9.08,3.03-18.65,5.45-27.84.01-.08.15-.07.14.02.09,9.59-1.99,18.96-5.15,27.97-1.38,5.56-3.65,11.03-7.64,15.24-.05.06-.16-.01-.12-.08h0Z"/>
      <path class="cls-8" d="M53.44,73.52c.01-4.9-2.92-8.78-4.87-13.1-5.72-14.67-2.17-28.48,6.8-40.87.04-.07.16,0,.12.07-5.54,12.3-13.4,27.25-5.86,40.29,2.15,4.09,5,8.77,3.95,13.63-.01.08-.14.07-.14-.02h0Z"/>
      <path class="cls-8" d="M52.82,72.78c1.42-2.9,1.33-6.02.92-9.09-.25-3.19-1.19-6.27-2.05-9.36-1.63-6.28-.76-13.36,2.76-18.84.04-.07.16-.02.13.06-.92,3.09-1.6,6.15-1.94,9.26-.52,4.67-.64,9.52.78,14.06,1.06,3.04,2.33,6.25,1.65,9.57-.27,1.64-.97,3.26-2.13,4.43-.05.06-.15-.01-.12-.08h0Z"/>
    </g>
  </g>
</svg>