<?xml version="1.0" encoding="UTF-8"?>
<svg id="_왼쪽_위" data-name="왼쪽_위" xmlns="http://www.w3.org/2000/svg" version="1.1" viewBox="0 0 28 43.83">
  <defs>
    <style>
      .cls-1 {
        fill: #111114;
        stroke-width: 0px;
      }

      .cls-2 {
        fill: #ffec2d;
        stroke: #111114;
        stroke-linecap: round;
        stroke-linejoin: round;
        stroke-width: 1.2px;
      }
    </style>
  </defs>
  <path class="cls-2" d="M15.29,32.25c.3,2.12.5,4.3,1.1,6.31s1.71,3.89,3.18,4.48c2.15.87,4.25-1.26,5.51-3.76,4.3-8.52,2.31-21.73-3.26-29.37S8.04-.34.6.89c1.04.93,2.08,1.8,3.06,2.84-.23.16-.42.38-.59.64,2.88,4.11,5.78,7.81,7.98,12.83.42.96,4.9,14.99,4.24,15.03Z"/>
  <path class="cls-1" d="M3.89,3.71c2.46,1.32,4.27,3.49,5.7,5.83,2.82,3.53,5.72,7.57,5.95,12.2-.02,0-.04,0-.05-.03-1.39-2.88-3.24-6.9-4.7-9.71-1.68-3.26-4.82-5.27-6.97-8.22-.04-.04.02-.11.06-.08h0Z"/>
  <path class="cls-1" d="M2.04,1.65c3,.4,5.6,2.13,7.68,4.24,3.85,3.07,7.29,7.16,7.71,12.26,0,.05-.08.08-.1.03-2.04-4.36-4.22-8.78-7.82-12.04-2.42-1.64-4.93-2.94-7.51-4.4-.05-.02-.02-.11.03-.09h0Z"/>
  <path class="cls-1" d="M18.16,42.15c-.52-1.37-.37-2.68-.14-4.05-.24-2.26-1.11-4.39-.6-6.72,0-.05.08-.06.1-.02.47.84.71,1.72.86,2.62.25,1.35-.12,2.74-.04,4.1.35,1.35.52,2.71-.09,4.06-.02.04-.09.04-.1,0h0Z"/>
  <path class="cls-1" d="M21.13,42.74c-.56-1.58-.52-3.14-.28-4.74-.18-2.67-1.08-5.25-.53-7.96.01-.08.09-.14.17-.13.24.07.08.38.08.56-.12.16-.2-.26-.26-.35,0,0,.31-.04.31-.04.36,1.03.56,2.07.65,3.13.19,1.58-.23,3.19-.07,4.77.39,1.57.53,3.15.03,4.75-.01.05-.09.05-.1,0h0Z"/>
  <path class="cls-1" d="M23.37,41.1c-.48-2.02-.3-3.97-.06-5.97-.23-3.32-1.14-6.54-.73-9.91,0-.05.08-.06.1-.01.5,1.27.78,2.59.95,3.91.28,1.99-.08,4.01,0,6.01.34,1.99.49,4-.16,5.98-.01.05-.09.05-.1,0h0Z"/>
  <path class="cls-1" d="M3.05.88c2.96.2,5.65,1.63,7.94,3.44,4.14,2.52,8.09,5.85,9.58,10.64.02.05-.06.09-.09.05-2.31-3.09-4.66-5.95-7.42-8.64-1.35-1.37-3.06-2.3-4.85-2.98,0,0-5.19-2.4-5.19-2.4-.05-.02-.03-.1.03-.1h0Z"/>
  <path class="cls-1" d="M17.32,31.82c-.3-2.05-.21-4.14-.69-6.16-.46-2.02-1.04-4.02-1.51-6.02.89,1.87,1.39,3.94,1.67,5.99.23,2.02.83,4.21.52,6.19h0Z"/>
  <path class="cls-1" d="M20.39,30.51c-.51-2.5-.67-5.06-1.39-7.51-.71-2.45-1.56-4.88-2.32-7.3,1.17,2.26,1.95,4.76,2.48,7.26.49,2.47,1.33,5.09,1.23,7.55h0Z"/>
  <path class="cls-1" d="M22.73,26.68c-.37-2.24-.37-4.53-.97-6.72-.57-2.2-1.3-4.36-1.94-6.53,1.05,2.01,1.7,4.26,2.1,6.49.35,2.21,1.05,4.58.81,6.76h0Z"/>
</svg>