<?xml version="1.0" encoding="UTF-8"?>
<svg id="_왼쪽_위" data-name="왼쪽_위" xmlns="http://www.w3.org/2000/svg" version="1.1" viewBox="0 0 47.25 41.59">
  <defs>
    <style>
      .cls-1 {
        fill: #ff97b5;
        stroke: #111114;
        stroke-linecap: round;
        stroke-linejoin: round;
        stroke-width: 1.3px;
      }

      .cls-2 {
        fill: #111114;
        stroke-width: 0px;
      }
    </style>
  </defs>
  <path class="cls-1" d="M35.19,26.87c2.4.97,4.88,1.82,7.06,3.11s4.05,3.12,4.32,5.01c.39,2.77-2.7,4.61-5.98,5.36-11.2,2.57-26.08-3.57-33.41-12.28C-.16,19.35-.82,9,2.76.65c.78,1.48,1.51,2.96,2.44,4.4.25-.22.56-.39.92-.51,3.98,4.56,7.47,9.01,12.71,13.03,1,.77,16.11,10.06,16.36,9.3Z"/>
  <path class="cls-2" d="M5.21,5.26c2.39,3.02,3.92,6.51,6.42,9.41,3.53,3.42,7.38,6.29,11.19,9.41.05.03,0,.12-.06.1-5.3-1.92-9.13-6.16-12.46-10.52-2.3-2.36-4.3-5.11-5.18-8.34-.02-.06.06-.1.1-.05h0Z"/>
  <path class="cls-2" d="M3.35,2.54c.9,3.42,1.73,6.78,2.97,10.05,2.76,5.17,7.27,9.04,11.84,12.62.05.03,0,.12-.05.1-5.79-2.04-9.61-7.18-12.1-12.56-.49-.91-1.21-2.22-1.64-3.18-.88-2.22-1.29-4.64-1.11-7.03,0-.06.1-.07.11,0h0Z"/>
  <path class="cls-2" d="M45.92,33.2c-1.74.26-3.29-.32-4.77-1.08-1.56-.48-3.28-.5-4.79-1.17-1.01-.43-1.98-.96-2.83-1.72-.04-.03-.01-.11.04-.1,2.83.16,5.1,1.73,7.68,2.65,1.65.15,3.23.37,4.7,1.32.05.03.03.1-.02.11h0Z"/>
  <path class="cls-2" d="M45.75,36.84c-2.73.26-4.84-1.46-7.4-1.89-2.56-.36-5.01-1.11-7.22-2.48,0,0,.12-.32.12-.32.08.08.56.31.35.38-.2-.06-.61.03-.61-.26.02-.12.15-.16.26-.13,2.57.31,4.95,1.15,7.27,2.29,2.36,1.07,5.05.73,7.26,2.31.05.03.03.11-.03.11h0Z"/>
  <path class="cls-2" d="M43.19,39c-2.49.13-4.8-.6-7.04-1.55-2.31-.66-4.76-.87-7.01-1.77-1.5-.58-2.96-1.27-4.31-2.2-.05-.03-.02-.11.04-.1,4.03.58,7.56,2.5,11.38,3.72,2.4.32,4.73.7,6.96,1.78.05.02.04.11-.02.11h0Z"/>
  <path class="cls-2" d="M2.15,3.51l1.28,6.77c.31,2.28.91,4.54,2.1,6.53,2.31,4.02,4.99,7.61,7.99,11.16.04.04-.02.12-.07.08-5.1-3.19-7.89-8.72-9.66-14.28-1.43-3.2-2.3-6.75-1.74-10.27,0-.06.1-.06.11,0h0Z"/>
  <path class="cls-2" d="M34.1,29.16c-2.15-.38-5.03-1.62-7.06-2.47-2.3-.96-4.54-2.17-6.54-3.64,3.24,1.83,6.48,3.78,10.06,4.91,0,.02,3.61,1.16,3.54,1.2h0Z"/>
  <path class="cls-2" d="M31.68,32.36c-5.79-2-11.4-4.88-16.23-8.64,5.03,3.51,10.54,6.47,16.23,8.64h0Z"/>
  <path class="cls-2" d="M26.53,33.99c-5.23-1.5-10.34-3.92-14.64-7.25,4.51,3.08,9.49,5.58,14.64,7.25h0Z"/>
</svg>