<?xml version="1.0" encoding="UTF-8"?>
<svg id="_왼쪽_위" data-name="왼쪽_위" xmlns="http://www.w3.org/2000/svg" version="1.1" viewBox="0 0 124.02 161.34">
  <defs>
    <style>
      .cls-1 {
        fill: #00b2ff;
      }

      .cls-1, .cls-2 {
        stroke-width: 0px;
      }

      .cls-3, .cls-4, .cls-5 {
        stroke-linecap: round;
        stroke-linejoin: round;
      }

      .cls-3, .cls-4, .cls-5, .cls-6 {
        stroke: #111114;
      }

      .cls-3, .cls-4, .cls-6 {
        stroke-width: 1.2px;
      }

      .cls-3, .cls-5 {
        fill: #00d675;
      }

      .cls-4 {
        fill: none;
      }

      .cls-5 {
        stroke-width: 1.17px;
      }

      .cls-6 {
        fill: #ffec2d;
        stroke-miterlimit: 10;
      }

      .cls-2 {
        fill: #111114;
      }
    </style>
  </defs>
  <path class="cls-3" d="M64.13,157.32c3.01-17.43-1.85-86.93-1.67-87.81l-5.79,1.48s3.81,82.44,2.01,89.74"/>
  <g>
    <path class="cls-5" d="M64.73,137.86s5.85-11.09,21.12-13.21c15.27-2.12,23.37,2.94,33.12-21.67,1.26-3.18-.45-11.23,3.95-12.9,4.4-1.67-20.56-.14-30.48,5.12-9.92,5.25-16.89,11.67-18.64,23.26,0,0,.65,3.96-.45,6.77-1.1,2.82-7.42,6.72-7.42,6.72"/>
    <g>
      <path class="cls-2" d="M77.18,124.81c2.19-3.59,5.22-6.66,8.63-9.16,5.04-3.85,11.28-5.64,16.03-9.77,3.1-2.78,5.28-6.48,8.34-9.36,1.57-1.42,3.35-2.63,5.32-3.38-5.93,2.78-8.46,9.11-13.07,13.39-4.72,4.3-11.11,6.08-16.2,9.72-3.43,2.34-6.54,5.19-9.06,8.55h0Z"/>
      <path class="cls-2" d="M117.08,97.97c-2.69.5-5.4.57-8.12.51-.25,0-.45-.22-.43-.47.13-1.55.47-3.09,1.1-4.52-.08,1.55-.18,3.05-.2,4.56l-.46-.47c2.71-.09,5.41-.06,8.1.39h0Z"/>
      <path class="cls-2" d="M115.12,102.77c-2.22.25-4.43.33-6.65.36-1.12-.04-2.49.19-3.51-.58-1.01-.8-1.04-2.19-1.37-3.27-.36-1.44-.65-2.89-.91-4.36,0-.05.07-.08.09-.02,0,0,.12.35.12.35l-.2-.31c.93,1.4,1.67,4.45,2.35,6.17.55,1.37,2.2.99,3.45,1.11,2.22.09,4.43.24,6.64.55h0Z"/>
      <path class="cls-2" d="M113.03,108.89c-4.38-.06-8.74-.47-13.09-1-.17-.02-.31-.14-.37-.28-1.23-3-2.09-6.16-2.37-9.38.92,3.09,1.97,6.1,3.24,9.01l-.38-.29c4.35.45,8.69,1.02,12.97,1.94h0Z"/>
      <path class="cls-2" d="M110.85,114.21c-6.02-.69-12.29-1.33-18.33-1.62-.19,0-.36-.13-.42-.31-1.13-3.49-1.89-7.13-2.1-10.8.38,1.79.82,3.56,1.3,5.32.5,1.75,1.06,3.48,1.67,5.18l-.42-.31c6.17.16,12.33.93,18.29,2.53h0Z"/>
      <path class="cls-2" d="M105.12,118.7c-5.65-.61-13.54-1.48-19.11-2-.19-.02-.34-.16-.38-.33-.74-3.2-1.44-6.4-1.99-9.64.52,1.56,1.03,3.12,1.49,4.7.46,1.57.94,3.14,1.36,4.73l-.39-.33c6.41.38,12.81,1.27,19.03,2.88h0Z"/>
      <path class="cls-2" d="M92.69,120.97c-3.83-.29-7.58-.51-11.36-.37-.15,0-.29-.07-.38-.18-1.5-2.03-2.76-4.26-3.58-6.65,1.36,2.12,2.78,4.14,4.32,6.08l-.39-.18c3.84-.24,7.74.12,11.4,1.3h0Z"/>
    </g>
  </g>
  <g>
    <path class="cls-5" d="M60.07,153.93s-6.03-10.99-21.34-12.86c-15.31-1.86-23.32,3.33-33.47-21.12-1.31-3.16.27-11.23-4.16-12.83-4.43-1.6,20.55-.48,30.56,4.61,10.01,5.09,17.08,11.39,19.02,22.95,0,0-.59,3.97.56,6.76,1.15,2.8,7.53,6.6,7.53,6.6"/>
    <g>
      <path class="cls-2" d="M47.41,141.08c-2.57-3.32-5.72-6.12-9.2-8.4-5.15-3.56-11.56-5.23-16.35-9.45-4.68-4.21-7.31-10.49-13.29-13.17,1.98.71,3.78,1.89,5.38,3.29,3.11,2.82,5.35,6.49,8.5,9.22,4.82,4.05,11.09,5.74,16.19,9.5,3.45,2.45,6.53,5.46,8.78,9.02h0Z"/>
      <path class="cls-2" d="M7.08,114.91c2.68-.5,5.38-.57,8.09-.53,0,0-.45.48-.45.48-.04-1.5-.16-3-.27-4.56.66,1.41,1.02,2.95,1.18,4.5.03.25-.17.47-.42.48-2.72.1-5.43.08-8.13-.38h0Z"/>
      <path class="cls-2" d="M9.11,119.67c2.2-.35,4.41-.54,6.63-.66,1.25-.14,2.9.22,3.43-1.17.66-1.74,1.34-4.79,2.25-6.21,0,0-.2.31-.2.31l.11-.35c.01-.05.1-.04.09.02-.23,1.47-.5,2.93-.83,4.38-.32,1.09-.32,2.48-1.32,3.29-1.01.79-2.38.58-3.5.64-2.22.01-4.43-.03-6.65-.25h0Z"/>
      <path class="cls-2" d="M11.31,125.75c4.26-.98,8.6-1.63,12.94-2.15,0,0-.38.29-.38.29,1.22-2.94,2.23-5.96,3.1-9.07-.23,3.22-1.04,6.4-2.22,9.42-.06.16-.21.27-.36.29-4.34.6-8.69,1.08-13.07,1.21h0Z"/>
      <path class="cls-2" d="M13.57,131.04c5.93-1.7,12.09-2.58,18.25-2.84,0,0-.41.32-.41.32.58-1.72,1.11-3.45,1.58-5.21.45-1.76.86-3.54,1.21-5.34-.14,3.67-.84,7.32-1.92,10.83-.06.19-.23.31-.41.32-6.03.38-12.29,1.13-18.3,1.92h0Z"/>
      <path class="cls-2" d="M19.38,135.44c6.19-1.71,12.58-2.7,18.98-3.19,0,0-.39.34-.39.34.39-1.59.85-3.17,1.28-4.75.43-1.58.91-3.15,1.41-4.72-.5,3.25-1.14,6.46-1.83,9.67-.04.19-.2.32-.37.34-5.53.61-13.47,1.62-19.07,2.32h0Z"/>
      <path class="cls-2" d="M31.84,137.5c3.64-1.24,7.53-1.66,11.37-1.49l-.39.19c1.51-1.96,2.89-4.01,4.22-6.15-.78,2.4-2,4.65-3.47,6.71-.09.13-.23.19-.38.19-3.78-.08-7.54.2-11.36.55h0Z"/>
    </g>
  </g>
  <g>
    <path class="cls-1" d="M105.91,50.35c-4.31-8.62.45-3.63-2.27-13.39-2.33-8.35-14.05-6.5-17.38-5.8l-.2-.34c2.82-2.28,5.2-4.64,6.68-6.79,4.54-6.58-.68-13.62-16.79-18.15-5.53-1.56-9,1.43-11.17,6.05l.12-.24s-7.33-16.48-19.7-9.24c-2.21,1.29-3.74,3.49-4.17,6.01-.29,1.69-.96,3.43-2.51,3.23-2.95-.36-18.61-.38-12.93,11.65,1.12,2.37,1.8,4.2,2.35,5.67.61,1.62-.51,3.38-2.23,3.48-3.91.22-9.46,1.65-10.24,7.88-.15,1.16-.47,2.28-1.07,3.29-1.75,2.93-4.72,9.64.98,14.64,4.33,3.81,11.59,5.25,18.88,3.12h0s-.42.12-.42.12c0,0-8.44,7.87-4.54,17.27.32.78.79,1.5,1.36,2.13.87.98,2.3,2.22,4.17,2.61,2.55.53,4.76,2.05,5.82,4.43,1.43,3.21,4.91,5.8,13.31.96,0,0,2.55-1.2,4.74-6.12l.08.02c.48,1.38,5.81,15.66,19.65,6.47.79-.53,1.68-.88,2.61-1.11,4.71-1.15,18.75-6.31,7.52-25.6v-.13c.99.53,1.95.97,2.84,1.29,7.72,2.72,18.83-4.77,14.52-13.39ZM64.39,12.82h-.03s.41-.86.41-.86c-.13.28-.26.57-.38.86Z"/>
    <g>
      <path class="cls-6" d="M56.44,35.37s-3.63,2.04-2.72,5.22c.91,3.18-3.63-1.36-3.63,1.59s-3.63,8.4,3.18,10.89,10.44.91,11.35,0c.91-.91,5.22-6.35,3.18-9.53-2.04-3.18-2.5-7.94-11.35-8.17Z"/>
      <path class="cls-4" d="M61.26,36.15c-.05-.78-1.41-34.81,14.7-30.28,16.11,4.54,21.33,11.57,16.79,18.15s-17.26,15.1-26.22,17.19"/>
      <path class="cls-4" d="M85.37,31.37s15.55-4.17,18.27,5.59c2.72,9.76-2.04,4.77,2.27,13.39,4.31,8.62-6.81,16.11-14.52,13.39s-19.73-14.4-24.39-14.01"/>
      <path class="cls-4" d="M64.91,11.68s-7.25-16.28-19.48-9.37c-2.37,1.34-3.92,3.73-4.44,6.4-.31,1.6-.99,3.16-2.47,2.98-2.95-.36-18.61-.38-12.93,11.65s0,9.99,24.51,18.84"/>
      <path class="cls-4" d="M29.61,32.62s-14.46-2.24-14.23,9.56c0,0-7.49,9.53,0,16.11,7.49,6.58,23.71,6.13,33.75-7.72"/>
      <path class="cls-4" d="M33.84,61.53s-8.93,8.33-4.17,18.09c0,0,3.86,6.58,9.98,2.95,0,0-.68,14.98,14.3,6.35,0,0,10.21-4.81,7.26-34.51"/>
      <path class="cls-4" d="M58.73,82.71s5.43,17.11,20.86,5.76c0,0,22.43-3,8.86-26.07"/>
    </g>
    <g>
      <path class="cls-2" d="M62.89,37.94c-.54-3.55.23-7.11,1.48-10.42.71-2.24,1.09-4.6,1.99-6.79,1.3-3.26,3.16-6.62,5.78-8.92.02.02.02.05.01.07-1.85,3.6-4.58,8.82-6.24,12.44-1.97,4.29-1.65,9.08-2.89,13.62-.01.06-.11.06-.12,0h0Z"/>
      <path class="cls-2" d="M64.3,38.66c1.43-3.65,3.49-6.89,5.61-10.14,2.86-5.78,4.88-11.91,8.28-17.45.03-.06.13-.02.11.05-.62,2.53-1.5,4.97-2.52,7.35-1.51,3.59-3.73,6.8-5.52,10.24-1.5,3.59-3.25,7.07-5.85,10.02-.04.05-.13,0-.1-.06h0Z"/>
      <path class="cls-2" d="M65.68,40.93c2.86-3.43,6.49-5.93,9.38-9.28,3.28-4.55,6.24-9.45,9.5-14.04.03-.06.13,0,.11.05-1.19,3.63-3.12,7-5.49,9.99-1.53,2.03-3.45,3.73-5.07,5.68-2.29,3.04-4.97,5.86-8.36,7.69-.06.03-.12-.05-.08-.09h0Z"/>
      <path class="cls-2" d="M67.38,44.16c4.37-.99,8.8-.95,13.07-2.19,5.27-2.03,10.32-4.76,15.35-7.32.06-.03.12.05.07.1-2.75,2.68-6.17,4.69-9.77,6.03-2.39.95-4.94,1.35-7.39,2.08-3.62,1.26-7.5,2.03-11.34,1.42-.06,0-.07-.11,0-.12h0Z"/>
      <path class="cls-2" d="M67.7,47.08c3.94-.13,7.74.6,11.53,1.49,6.4.79,13.09.79,19.2,2.91-6.5.3-12.88-1.49-19.26-2.53-3.89-.19-7.74-.54-11.49-1.76-.06-.02-.05-.12.02-.12h0Z"/>
      <path class="cls-2" d="M65.71,50.65c2.46,1.61,4.62,3.65,6.43,5.96,1.24,1.74,2.43,3.75,3.7,5.45,3.99,5.23,7.04,11.37,7.77,17.97,0,.07-.09.1-.12.03-2.37-6.01-4.83-12.15-7.99-17.78-2.83-4.23-6.67-7.56-9.87-11.54-.05-.05.02-.13.08-.09h0Z"/>
      <path class="cls-2" d="M63.08,53.25c2.2,1.92,4,4.29,5.34,6.89.88,1.93,1.64,4.13,2.49,6.05,2.72,5.94,4.06,12.74,2.64,19.2-.01.07-.12.06-.12,0-.15-2.9-.36-5.74-.75-8.56-.48-3.48-1.1-7.13-2.14-10.49-.66-1.99-1.84-3.96-2.99-5.71-1.47-2.45-2.99-4.84-4.55-7.29-.04-.05.04-.13.09-.08h0Z"/>
      <path class="cls-2" d="M53.34,53.22c-.78,2.31-2.04,4.43-3.58,6.31-1.64,1.78-3.49,3.35-5.06,5.2-3.23,3.62-7.39,6.49-12.03,7.93l-.15-.37c.28-.02.86-.28,1.05-.15-.21.25-.63.35-.92.53-.22.11-.41-.22-.2-.35,4.99-3.25,10.32-6.13,14.42-10.5,2.12-2.91,4.1-5.8,6.36-8.65.04-.05.13,0,.11.06h0Z"/>
      <path class="cls-2" d="M56.18,54.53c.23,2.52-.11,5.07-.91,7.47-.68,1.71-1.61,3.48-2.27,5.18-1.99,5.29-5.46,10.23-10.46,13.02-.06.03-.12-.05-.07-.09,1.72-1.83,3.35-3.65,4.87-5.57,2.58-3.37,5.57-6.79,6.57-11.02.24-1.21,1.84-7.67,2.16-9,.01-.06.12-.06.12,0h0Z"/>
      <path class="cls-2" d="M53.3,40.13c-3.36-1.75-5.95-4.6-8.05-7.69-1.5-1.99-3.27-3.77-4.6-5.89-2.06-3.12-3.59-6.67-4.21-10.37-.01-.06.09-.1.11-.04,2.55,4.96,4.89,9.9,7.86,14.59,2.64,3.44,6.14,5.96,8.96,9.3.05.05-.02.13-.07.09h0Z"/>
      <path class="cls-2" d="M56.31,36.24c-1.48-3.42-2.29-6.95-3.14-10.53-2.15-5.72-5.3-10.96-7.29-16.78-.03-.06.07-.11.11-.06,3.92,4.87,5.73,10.85,7.56,16.71,1.51,3.36,2.74,6.9,2.88,10.63,0,.06-.09.09-.12.03h0Z"/>
      <path class="cls-2" d="M50.24,44.14c-2.2.98-4.63,1.39-7.03,1.31-1.74-.16-3.6-.56-5.33-.73-5.35-.45-10.79-2.51-14.39-6.62-.04-.05.02-.13.08-.09,3.06,1.81,6.14,3.32,9.39,4.66,2.19.79,4.38,1.72,6.73,1.9,3.52.01,6.96-.35,10.52-.54.06,0,.09.09.03.12h0Z"/>
      <path class="cls-2" d="M49.85,47.44c-3.66,1.59-7.67,2.06-11.61,2.13-2.63.17-5.22.75-7.86.83-3.95.21-7.96-.1-11.79-1.14-.06-.01-.05-.12.01-.12,4.56-.11,11.06.1,15.68.22,5.28.14,10.25-1.85,15.54-2.04.06,0,.09.09.03.12h0Z"/>
      <path class="cls-2" d="M49.56,49.35c-3.07,2.67-6.95,4.17-10.87,5.06-2.58.71-5.1,1.72-7.75,2.17-3.96.75-8.12.79-12.04-.14-.06-.01-.06-.12.01-.12,5.91-.32,11.94-.63,17.76-1.73,4.5-1.25,8.44-3.72,12.84-5.34.06-.03.12.06.06.1h0Z"/>
    </g>
  </g>
</svg>