<?xml version="1.0" encoding="UTF-8"?>
<svg id="_왼쪽_위" data-name="왼쪽_위" xmlns="http://www.w3.org/2000/svg" version="1.1" viewBox="0 0 121.38 136.28">
  <defs>
    <style>
      .cls-1 {
        fill: #ff97b5;
      }

      .cls-1, .cls-2 {
        stroke-width: 0px;
      }

      .cls-3 {
        fill: #00b2ff;
      }

      .cls-3, .cls-4, .cls-5 {
        stroke: #111114;
        stroke-linecap: round;
        stroke-linejoin: round;
        stroke-width: 1.32px;
      }

      .cls-2 {
        fill: #111114;
      }

      .cls-4 {
        fill: #00d675;
      }

      .cls-5 {
        fill: none;
      }
    </style>
  </defs>
  <path class="cls-4" d="M38.97,135.62c-.71-7.85,2.5-17.76,8.67-22.67l-2.85-3.49c-6.16,4.91-9.63,13.02-8.91,20.87l3.1,5.29Z"/>
  <g>
    <path class="cls-1" d="M93.9,105.04c6.91,1.58,9.64-6.06,9.64-6.06,12.56-6.86,7.02-15.23,7.02-15.23h-.01c12.72-1.02,7.29-10.81,7.29-10.81,6.68-5.61-.34-11.64-.34-11.64,2.56-1.67,3.53-5.01.52-10.19-2.76-4.76-11.15-3.24-12.49-2.97l-.09-.13c1.23-.8,2.45-1.67,3.66-2.69,12.5-10.59-2.42-19.18-2.42-19.18,2.17-10.26-9.7-11.02-9.7-11.02-5.09-11.16-13.51-6.65-13.51-6.65-4.91-8.32-13.24,1.51-13.24,1.51l.03.1s-.03-.02-.05-.02c0-.01.02-.08.02-.08.3-13.61-13-8.29-13-8.29-2.87-1.88-6.57.05-6.57.05-5.89-2.14-7.88,2.14-7.88,2.14-9.25,1.81-7.15,9.9-7.15,9.9l.03.03-.02.02s-.02-.05-.02-.05c-9.45-10.68-17.98,5.89-17.98,5.89-9.57,1.1-9.74,9.71-9.74,9.71-12.58,9.7.07,18.21.07,18.21l.31-.04v.07c-1.5-.16-2.37-.2-2.37-.2-7.93,3.11-2.51,10.31-2.51,10.31-6.8,7.01,1.11,12.96,1.11,12.96-.86,10.25,8.88,9.93,8.88,9.93h0c-.62.57-1.16,1.15-1.56,1.72-4.97,7.19,5.41,13.43,5.41,13.43-.43,6.16,5.07,5.17,5.07,5.17-1.22,7.66,8.59,11.83,8.59,11.83,5.98,1.54,10.42-.72,13.7-4.62h.01c-.46.64-3.63,5.64,5.73,9.3,10.01,3.92,12.59-4.49,12.59-4.49,3.04,7.04,9.96,3.33,9.96,3.33,6.22,1.8,7.7-2.9,7.88-3.57l.55-.56c.96.6,1.96.95,3.01.92,9.99-.27,9.54-8.06,9.54-8.06ZM13.92,80.17h0s-.09.08-.13.12l.13-.12Z"/>
    <g>
      <path class="cls-3" d="M47.51,77.03s-11.44-9.01-7.02-23.14,24-15.17,24-15.17c0,0,20.51,5.43,18.13,21.85-2.39,16.42-20.27,30.16-35.11,16.46Z"/>
      <path class="cls-5" d="M53.66,81.13s-2.82,36.78-22.73,31.66c0,0-9.81-4.17-8.59-11.83,0,0-5.5,1-5.07-5.17,0,0-10.38-6.24-5.41-13.43,4.97-7.19,29.15-14.34,29.15-14.34"/>
      <path class="cls-5" d="M13.41,80.64s-9.74.31-8.88-9.93c0,0-7.91-5.95-1.11-12.96,0,0-5.42-7.2,2.51-10.31,0,0,15.63.62,33.89,9.2"/>
      <path class="cls-5" d="M7.99,47.59s-12.65-8.51-.07-18.21c0,0,.16-8.61,9.74-9.71,0,0,8.53-16.57,17.98-5.89,0,0,6.46,19.95,15.48,28.53"/>
      <path class="cls-5" d="M35.63,13.78s-2.1-8.09,7.15-9.91c0,0,1.99-4.27,7.88-2.14,0,0,3.69-1.93,6.57-.05,0,0,13.3-5.32,13,8.29,0,0-7.01,25.18-5.74,28.74"/>
      <path class="cls-5" d="M70.23,9.98s8.33-9.83,13.24-1.51c0,0,8.42-4.51,13.51,6.65,0,0,11.87.76,9.7,11.02,0,0,14.92,8.6,2.42,19.18-12.5,10.59-26.84,8.48-26.84,8.48"/>
      <path class="cls-5" d="M105.33,48.19s9.68-2.25,12.69,2.92c3,5.18,2.04,8.52-.52,10.19,0,0,7.02,6.03.34,11.64,0,0,6.12,11.03-9.82,10.9-15.94-.12-28.99-13.16-28.99-13.16"/>
      <path class="cls-5" d="M110.56,83.75s5.55,8.37-7.02,15.23c0,0-2.73,7.64-9.64,6.06,0,0,.45,7.78-9.54,8.06-9.99.27-16.22-31.69-16.22-31.69"/>
      <path class="cls-5" d="M80.82,112.65s-1.21,5.59-7.9,3.66c0,0-6.93,3.71-9.96-3.33,0,0-2.58,8.4-12.59,4.49-10.01-3.92-5.68-9.36-5.68-9.36"/>
    </g>
    <g>
      <path class="cls-2" d="M73.4,40.35c-.01-2.95,1.21-5.73,2.84-8.13,2.21-4.29,5.24-8.45,9.89-10.26.05-.02.09.05.05.08-4.05,3.75-9.1,7.51-10.68,12.99,0,0-2.01,5.33-2.01,5.33-.02.05-.1.04-.1-.02h0Z"/>
      <path class="cls-2" d="M76.78,44.43c1.42-1.93,3.29-3.31,5.26-4.6,2.89-2.58,5.48-5.76,9.02-7.42-2.29,3.22-5.77,5.23-8.81,7.66-1.59,1.73-3.26,3.35-5.4,4.43-.04.03-.1-.03-.06-.08h0Z"/>
      <path class="cls-2" d="M81.54,47.21c3.89-1.62,8.17-1.94,11.83-4.06,3.16-1.81,7.55-4.56,10.7-6.47.02-.01.05,0,.07.02-3.44,4.11-8.56,6.27-13.48,8.09-.84.36-2.03.94-2.89,1.3-1.99.72-4.08,1.16-6.2,1.21-.05,0-.07-.08-.02-.1h0Z"/>
      <path class="cls-2" d="M83.42,60.98c2.34-.7,4.72-.58,7.08-.25,2.37.06,4.75-.27,7.11.04,1.57.19,3.13.51,4.64,1.04.05.02.04.1-.01.1-3.98.3-7.81-.64-11.75-.86-2.36.25-4.68.45-7.07.03-.05,0-.06-.09,0-.1h0Z"/>
      <path class="cls-2" d="M80.73,65.45c2.16.16,4.08.99,5.96,1.94,3.32,1.04,7,1.51,9.86,3.58-3.56-.2-6.7-2.03-9.96-3.28-2.07-.41-4.09-.94-5.89-2.15-.04-.03-.02-.1.03-.09h0Z"/>
      <path class="cls-2" d="M76.44,73.46c2.88,3.33,4.6,7.43,7.83,10.43,2.78,2.58,6.83,6.16,9.67,8.75.02.02.02.05,0,.07-5.07-2.3-8.76-6.71-12.13-11.02-.63-.72-1.57-1.72-2.21-2.46-1.35-1.73-2.47-3.65-3.25-5.72-.02-.05.05-.09.09-.05h0Z"/>
      <path class="cls-2" d="M71.83,79.64c1.78,1.41,2.98,3.24,4.08,5.16,2.29,2.84,5.21,5.4,6.55,8.84-2.96-2.27-4.66-5.67-6.8-8.65-1.56-1.57-3.01-3.21-3.91-5.29-.02-.05.04-.1.08-.06h0Z"/>
      <path class="cls-2" d="M63.63,84.06c.88,2.82,1.18,5.68,1.51,8.58,1.1,4.72,3.26,9.22,4.04,13.98-2.69-4.14-3.45-9.14-4.35-13.91-.89-2.79-1.52-5.67-1.29-8.64,0-.05.09-.06.1-.01h0Z"/>
      <path class="cls-2" d="M57.99,83.54c1.24,2.68,1.47,5.66,1.28,8.55.26,4.79.29,10-2.19,14.23-.02-.01-.03-.03-.03-.05.53-3.35,1.35-7.98,1.78-11.31.61-3.78-1.1-7.85-.84-11.43h0Z"/>
      <path class="cls-2" d="M42.95,72.92c-2.29,1.03-4.62,1.6-7,2.28-3.72,1.72-6.83,4.39-10.42,6.4-.04.03-.1-.03-.07-.07,2.55-3.42,6.5-5.15,10.36-6.62,2.17-1.21,4.56-2.14,7.1-2.08.05,0,.07.08.02.1h0Z"/>
      <path class="cls-2" d="M45.07,77.08c-1.86,2.27-4.16,3.99-6.56,5.61-3.62,3.14-6.92,6.88-11.19,9.1,3.02-3.79,7.23-6.36,10.99-9.35,2.03-2.06,4.13-4.02,6.7-5.44.04-.03.1.04.06.08h0Z"/>
      <path class="cls-2" d="M49.78,80.47c-1.06,2.26-2.67,4.07-4.39,5.8-2.41,3.24-4.39,7.01-7.62,9.49,1.69-3.75,4.79-6.56,7.37-9.69,1.27-2.09,2.63-4.1,4.56-5.67.04-.03.1.01.08.06h0Z"/>
      <path class="cls-2" d="M58.05,39.19c0-3.07.52-6.01,1.03-9,.21-5.04-.52-10.02-.22-15.08,0-.05.09-.07.1-.01,1.45,4.95.93,10.08.44,15.12.07,3.05-.15,6.11-1.25,9-.02.05-.1.04-.1-.02h0Z"/>
      <path class="cls-2" d="M53.28,39.53c-1.04-2.27-1.37-4.68-1.58-7.12-.91-3.94-2.5-7.9-2.29-11.97,1.76,3.72,1.9,7.91,2.61,11.91.77,2.32,1.42,4.66,1.36,7.16,0,.05-.08.07-.1.02h0Z"/>
      <path class="cls-2" d="M45.78,43.88c-3.36-1.81-6.14-4.49-8.58-7.37-4.47-4.41-9.06-9.17-11.31-15.1.02,0,.05,0,.06.02,3.15,4.15,6.91,9.51,10.18,13.49,2.89,3.22,7.05,5.77,9.65,8.96h0Z"/>
      <path class="cls-2" d="M42.67,48.28c-2.71-1.37-5.31-2.85-7.88-4.41-4.53-2.19-9.6-2.78-14.45-3.96,0,0,.2-.51.2-.51.51.45,1.01.91,1.5,1.4.04.04-.01.11-.06.08-.61-.32-1.2-.66-1.78-1.02-.13-.08-.17-.25-.09-.38.06-.1.18-.14.29-.13,4.08.07,8.1,1.2,11.75,2.98,3.72,1.6,7.71,2.82,10.57,5.88.04.04,0,.11-.06.08h0Z"/>
      <path class="cls-2" d="M38.09,60.45c-2.99.17-5.87-.36-8.75-1.03-4.86-.54-9.95-.43-14.58-2.07,4.93-.35,9.77,1.01,14.62,1.75,2.95.09,5.88.31,8.72,1.25.05.01.04.1-.01.1h0Z"/>
      <path class="cls-2" d="M60.19,41.72c-1.45,1.76-3.31,2.94-5.26,4.02-2.9,2.26-5.52,5.14-9.01,6.43,2.34-2.94,5.78-4.59,8.82-6.69,1.61-1.54,3.28-2.98,5.39-3.84.05-.02.09.04.06.08h0Z"/>
      <path class="cls-2" d="M70.04,40.91c-1.49,1.83-3.41,3.08-5.41,4.23-2.98,2.37-5.68,5.37-9.26,6.79,2.41-3.05,5.95-4.83,9.06-7.05,1.65-1.61,3.37-3.11,5.54-4.05.05-.02.1.04.06.08h0Z"/>
      <path class="cls-2" d="M42.39,59.71c.7-1.17,1.79-1.74,2.97-2.21,1.02-.69,1.76-1.78,2.82-2.42.7-.43,1.44-.81,2.29-1.02.04-.01.08.04.06.08-1.17,1.89-3.21,2.55-4.99,3.62-.85.94-1.76,1.77-3.1,2.03-.04.01-.08-.04-.06-.08h0Z"/>
      <path class="cls-2" d="M63.11,51.57c-.65,1.27-1.74,1.96-2.92,2.57-1.01.81-1.7,2.01-2.76,2.77-.69.52-1.43.98-2.3,1.29-.04.02-.09-.04-.06-.08,1.09-2.05,3.14-2.95,4.91-4.23.81-1.05,1.7-2,3.06-2.4.04-.02.09.04.06.08h0Z"/>
      <path class="cls-2" d="M49.39,60.45c-.52,1.16-1.47,1.74-2.52,2.24-.88.7-1.43,1.78-2.35,2.44-.6.44-1.25.84-2.03,1.07-.04.01-.09-.04-.06-.08.88-1.88,2.68-2.56,4.24-3.68.68-.94,1.43-1.77,2.66-2.07.04-.01.08.04.06.08h0Z"/>
      <path class="cls-2" d="M76.84,44.51c-.79,1.02-1.88,1.39-3.05,1.66-1.04.5-1.86,1.45-2.93,1.89-.71.31-1.45.55-2.28.61-.05,0-.08-.05-.04-.09,1.31-1.64,3.3-1.95,5.11-2.7.91-.78,1.85-1.43,3.15-1.46.04,0,.07.05.04.09h0Z"/>
      <path class="cls-2" d="M78.47,49.28c-.33.61-.79,1.02-1.34,1.28-.61.15-1.21.31-1.61.85-.85.97-1.87,1.63-3.19,1.75-.04,0-.08-.05-.05-.08.34-.59.79-1.01,1.28-1.37.72-.56,1.74-.64,2.5-1.15.62-.73,1.28-1.34,2.36-1.36.04,0,.07.05.05.08h0Z"/>
      <path class="cls-2" d="M67.67,52.35c-.41,1.04-1.25,1.51-2.18,1.88-.76.58-1.22,1.55-2.02,2.08-.53.36-1.1.67-1.8.82-.04.01-.08-.04-.06-.08.61-1.25,1.62-2.04,2.87-2.57.3-.13.59-.28.82-.51.57-.83,1.21-1.54,2.32-1.71.04,0,.08.04.06.08h0Z"/>
      <path class="cls-2" d="M68.11,57.29c-.71,1.02-1.74,1.4-2.85,1.67-.98.5-1.72,1.45-2.73,1.89-.67.31-1.37.56-2.16.63-.04,0-.08-.05-.05-.09,1.23-1.67,3.05-1.94,4.78-2.72.83-.78,1.71-1.44,2.95-1.47.04,0,.08.05.05.09h0Z"/>
      <path class="cls-2" d="M56.57,61.39c-.08.53-.32.87-.68,1.09-.43.12-.85.24-1.01.71-.39.85-1.01,1.38-1.98,1.47-.03,0-.06-.02-.07-.06.09-.51.33-.88.6-1.19.4-.48,1.18-.53,1.62-.95.29-.64.58-1.13,1.45-1.14.04,0,.07.03.07.07h0Z"/>
      <path class="cls-2" d="M59.59,65.6c-.55,1.11-1.51,1.63-2.57,2.05-.89.64-1.48,1.67-2.42,2.26-.61.4-1.27.75-2.04.93-.04.01-.08-.04-.06-.08.97-1.82,2.73-2.35,4.33-3.36.71-.89,1.48-1.66,2.7-1.88.04-.01.08.04.06.08h0Z"/>
      <path class="cls-2" d="M49.66,67.35c-.14.83-.6.97-1.25,1.11-.45.31-.58,1.02-1.1,1.31-.17.12-1.03.47-1.23.23.09-.48.32-.8.59-1.07.42-.43,1.12-.37,1.54-.73.29-.59.55-1.01,1.39-.93.04,0,.07.04.06.08h0Z"/>
      <path class="cls-2" d="M75.81,57.34c-.75,1.14-1.86,1.65-3.06,2.07-1.05.64-1.83,1.7-2.92,2.28-.72.4-1.47.74-2.33.91-.04.01-.08-.05-.05-.08,1.25-1.83,3.31-2.4,5.14-3.39.89-.9,1.83-1.69,3.18-1.88.04,0,.08.05.05.08h0Z"/>
      <path class="cls-2" d="M80.94,52.24c-.14.82-.6.94-1.24,1.06-.44.3-.57.98-1.08,1.27-.16.11-1.03.44-1.21.2.1-.47.32-.79.58-1.04.42-.42,1.11-.34,1.52-.68.29-.58.54-.98,1.37-.88.04,0,.07.04.06.08h0Z"/>
      <path class="cls-2" d="M80.77,57.66c-.75,1.35-1.94,2.14-3.23,2.83-1.11.9-1.91,2.18-3.07,3.03-.76.58-1.57,1.1-2.51,1.47-.04.02-.09-.04-.06-.08,1.26-2.19,3.49-3.24,5.43-4.67.92-1.14,1.91-2.17,3.37-2.66.04-.02.09.04.06.08h0Z"/>
      <path class="cls-2" d="M65.26,65c-.22.63-.6,1.07-1.08,1.37-.56.21-1.1.42-1.4.98-.66,1.03-1.53,1.76-2.77,2.02-.04,0-.08-.04-.06-.08.23-.61.6-1.06,1.01-1.46.6-.62,1.56-.8,2.2-1.36.48-.77,1.01-1.43,2.04-1.55.04,0,.08.04.06.08h0Z"/>
      <path class="cls-2" d="M54.62,73.33c-.28.53-.67.84-1.14,1-.52.05-1.02.1-1.37.56-.72.79-1.59,1.25-2.71,1.16-.03,0-.06-.03-.05-.06.27-.52.68-.86,1.09-1.13.61-.42,1.48-.34,2.12-.7.52-.6,1.08-1.07,2.01-.92.04,0,.07.05.05.09h0Z"/>
      <path class="cls-2" d="M68,68.29c-.23.61-.61,1.02-1.09,1.3-.55.18-1.09.36-1.4.9-.67.98-1.54,1.66-2.76,1.85-.04,0-.08-.04-.06-.08.24-.59.61-1.02,1.02-1.39.6-.58,1.55-.71,2.19-1.23.48-.74,1.02-1.36,2.03-1.43.04,0,.08.04.06.08h0Z"/>
      <path class="cls-2" d="M58.36,76.17c-.27.55-.67.9-1.15,1.1-.54.09-1.06.18-1.4.66-.72.85-1.61,1.38-2.78,1.38-.03,0-.06-.03-.06-.06.26-.55.68-.92,1.1-1.22.63-.47,1.53-.45,2.19-.86.52-.64,1.09-1.16,2.06-1.08.04,0,.07.05.05.09h0Z"/>
      <path class="cls-2" d="M80.74,65.54c-.97,1.42-2.36,2.26-3.84,3-2.1,1.69-3.95,4.02-6.64,4.73,1.56-2.36,4.19-3.46,6.44-4.99,1.13-1.2,2.33-2.29,3.97-2.82.04-.02.09.04.06.08h0Z"/>
      <path class="cls-2" d="M67.41,74.42c-.74,1.34-1.92,2.12-3.2,2.81-1.1.89-1.89,2.16-3.03,3-.76.57-1.55,1.09-2.48,1.45-.04.02-.09-.04-.06-.08,1.24-2.18,3.45-3.2,5.38-4.62.91-1.13,1.89-2.15,3.34-2.64.04-.02.09.04.06.08h0Z"/>
    </g>
  </g>
</svg>