<?xml version="1.0" encoding="UTF-8"?>
<svg id="_왼쪽_위" data-name="왼쪽_위" xmlns="http://www.w3.org/2000/svg" version="1.1" viewBox="0 0 108.06 104.83">
  <defs>
    <style>
      .cls-1 {
        fill: #ffec2d;
      }

      .cls-1, .cls-2, .cls-3, .cls-4 {
        stroke: #111114;
        stroke-linecap: round;
        stroke-linejoin: round;
      }

      .cls-5, .cls-6 {
        stroke-width: 0px;
      }

      .cls-5, .cls-4 {
        fill: #00b2ff;
      }

      .cls-2 {
        fill: #ff6a37;
      }

      .cls-3 {
        fill: none;
      }

      .cls-3, .cls-4 {
        stroke-width: 1.2px;
      }

      .cls-6 {
        fill: #111114;
      }
    </style>
  </defs>
  <path class="cls-5" d="M48.25,5.23c1.32.52,2.46,1.25,3.45,2.06,0,0-22-4.17-18.76-.3,3.23,3.87.56,11.82.56,11.82-2.38,3.46-15.65-1.72-15.42-1.38s2.44,15.87,2.44,15.87c0,0-17.79-4.3-14.99-.88,2.8,3.41,3.02,17.86,2.89,18.93l-3.52-2.63c-14.04,14.43,9.72,41.58,9.72,41.58,18.89,18.64,38.82,15.28,52.15,9.24h0s0,0,0,0c9.53-4.32,15.7-10.01,15.7-10.01l4.05-2.88c9.01-7.53,14.16-14.17,16.49-20.62h0c13.14-32.16-6.46-48.4-23.45-59.46-16.99-11.06-37.27-3.67-31.35-1.33ZM51.76,7.34l-.14.04.09-.09s.04.03.05.05ZM8.52,51.26l-.02.13-.06-.04.08-.08Z"/>
  <g>
    <path class="cls-3" d="M82.27,89.66c-7.8,7.94-41.44,28.2-67.89.31-2.38-2.7-20.73-25.97-10.9-39.53.63-.83,1.05-1.57,1.95-1.52,2.61,1.44,9.07,6.77,11.56,8.48.77.62.87.57,1.03.92,4.2,15.76,23.93,54.1,64.18,31.39l.08-.04Z"/>
    <path class="cls-3" d="M70.69,43.95c-5.58-6.55-16.2-19.86-14.04-29.45.23-.87.34-.74.78-.95,5.71-1.53,13.77,2.54,19.3,5.38,9.77,5.12,18.75,9.92,22.83,19.92,8.86,17.58,6.83,31.68-12.89,47.72"/>
    <path class="cls-3" d="M56.82,13.9c-.8-1.87-2.8-4.79-4.93-6.46-1.44-1.2-2.81-1.83-4.14-2.67-2.56-2.04,8.19-6.07,20.49-3.12,4.21.97,7.84,2.54,11.46,4.86,17.39,10.53,36.49,29.29,23.45,59.46"/>
    <path class="cls-3" d="M8.54,51.28c.03-2.39-.15-10.69-1.7-15.99-.54-2.19-2.06-3.55-.91-4,4.02-.67,8.21.7,12.17,1.38,1.62.32,2.37.65,2.4.29-.43-3.86-1.53-10.32-2.19-14.38-.08-.64-.43-1.34.33-1.1,1.81.5,10.22,3.37,13.6,2.01.76-.27,1.28-.64,1.49-1.38.38-1.38,1.37-5.68.23-8.98-.26-.9-.89-1.87-1.09-2.69-.04-1.49,3.37-1.08,5.65-1.03,4,.23,9.84,1.22,13.27,1.84"/>
    <path class="cls-1" d="M17.12,52.96l-5.28-3.11s.47-11.92-1.23-13.8c0,0,9.77,2.17,10.62,1.67,0,0,2.68,9.55,5.87,11.27"/>
    <path class="cls-1" d="M32.98,39.27s-6.87-3.87-9.62-4.39c0,0,.77-9.47-1.12-12.37,0,0,10.75,3.58,12.25.47,0,0,2.95,10.2,5.92,11.13"/>
    <path class="cls-1" d="M45.08,23.86s-4.59-4.47-7.64-4.88c0,0,1.76-7.31-.16-9.79,0,0,9.46,3.14,11.4.87,0,0,2.12,8.71,7.63,12.38"/>
    <path class="cls-2" d="M17.98,50.85c-2.65-1.25-4.47-4.09-4.5-7.02,0-.99.2-2.03.86-2.77,1-1.13,2.83-1.22,4.16-.5s2.21,2.05,2.78,3.45.88,2.88,1.38,4.3"/>
    <path class="cls-2" d="M32.97,37.05c-3.2-.96-5.77-3.46-6.34-6.17-.19-.91-.16-1.89.44-2.62.91-1.11,2.94-1.32,4.56-.76s2.86,1.74,3.75,2.99,1.52,2.6,2.35,3.88"/>
    <path class="cls-4" d="M40.8,60.37c-2.82-5.16-11.48-20.2-6.14-25.42,6.34-3.73,31.3,5.16,40.6,11.9,5.37,4.77,20.52,21.87,12.92,37.35-1.01,2.26-3.36,4.4-5.57,4.96-1.31.18-2.38-.22-3.84-.56-25.33-7.07-31.99-20.43-39.76-30.63-5.07-5.7-11.57-9.96-17.67-9.87-4.61.57-3.87,7.7-3.39,10.19"/>
    <path class="cls-2" d="M46.02,22.21c-2.03-1.33-3.82-3.03-5.24-5-.46-.63-.89-1.37-.78-2.14.13-.89.96-1.51,1.78-1.88.76-.34,1.6-.57,2.42-.4,1.01.21,1.79.99,2.46,1.78,1.79,2.11,3.2,4.54,4.14,7.14"/>
    <path class="cls-4" d="M45.37,34.8c-.2-2.81-1.62-11.21,1.69-12.69,2.88-1.21,7.93-.53,10.27.82"/>
  </g>
  <g>
    <path class="cls-6" d="M85.11,89.15c-21.05-9.94-38.34-27.64-48.15-48.72,0,0-1.83-4.27-1.83-4.27l2.07,4.15c10.7,20.55,27.55,37.77,47.91,48.84h0Z"/>
    <path class="cls-6" d="M36.25,35.61c20.61,4.98,36.91,11.87,44.72,33.16,2.3,6.07,3.73,12.43,4.57,18.82-1.25-6.31-2.84-12.58-5.28-18.54-8.28-21.15-23.77-27.24-44-33.44h0Z"/>
    <path class="cls-6" d="M36.38,36.91c14.9,14.08,29.06,29.14,42.49,44.63,1.9,2.24,3.81,4.47,5.67,6.74l-48.16-51.37h0Z"/>
    <path class="cls-6" d="M37.32,37.89c20.98,4.36,34.65,23.14,44.07,41.05,1.37,2.62,2.74,5.23,4.05,7.88,0,0-4.48-7.64-4.48-7.64-10.05-17.51-23.19-35.73-43.65-41.29h0Z"/>
    <path class="cls-6" d="M46.88,23.6c2.37,6.03,6.03,11.19,10.94,15.43-5.72-3.03-9.97-9.03-10.94-15.43h0Z"/>
    <path class="cls-6" d="M47.36,24.47c7.43,4.13,13.93,10.01,18.78,16.99,0,0-2.25-2.25-2.25-2.25-5.18-5.29-10.75-10.12-16.53-14.74h0Z"/>
    <path class="cls-6" d="M49.31,5.31c13.39-.35,26.71,4.46,37.29,12.6,9.95,7.91,21.74,22.69,19.28,36.15.49-3.41.02-6.87-1.04-10.1C96.62,21.34,73.06,6.04,49.31,5.31h0Z"/>
    <path class="cls-6" d="M52.16,6.79c6.43,1.89,12.55,4.78,18.21,8.36,1.75,1.25,4.2,2.3,4.77,4.57-.98-2.07-3.32-2.79-5.16-3.9-1.96-1.05-3.9-2.11-5.88-3.11-3.42-1.79-8.42-4.2-11.94-5.91h0Z"/>
    <path class="cls-6" d="M19.77,51.89c4.25,18.15,17.73,33.75,35.34,40.02,5.81,2.16,11.97,3.34,18.17,3.54-6.24.22-12.51-.81-18.43-2.82-17.91-5.94-31.91-22.13-35.08-40.75h0Z"/>
    <path class="cls-6" d="M21.73,49.16c12.44,15.3,28.04,27.96,45.59,36.94,0,0,3.53,1.77,3.53,1.77l-3.65-1.53c-18.05-8.09-34.04-21.03-45.48-37.18h0Z"/>
    <path class="cls-6" d="M20.61,50.02c4.44,12.45,15.15,20.86,25.25,28.7,7.58,5.94,15.69,11.79,25.34,13.51,3.16.59,6.44.67,9.64.13-3.16.76-6.48.79-9.72.35-9.83-1.39-18.23-7.29-25.87-13.2-10.04-7.9-20.96-16.7-24.64-29.49h0Z"/>
    <path class="cls-6" d="M58.92,14.34c6.93,2.43,13.79,5.19,20.05,9.1,12.78,7.57,21.27,22.12,20.46,37.1-.32,7.4-2.71,14.68-6.84,20.75,3.77-6.27,5.92-13.48,6.07-20.78.29-10.9-4.03-21.79-11.66-29.57-7.73-7.88-18-12.43-28.09-16.61h0Z"/>
    <path class="cls-6" d="M57.55,15.4c19.91,12.83,39.41,33.34,35.89,58.88-.53,3.43-1.5,6.8-3.03,9.9,2.66-6.39,3.32-13.44,2.42-20.21-2.62-21.06-19.04-36.56-35.28-48.57h0Z"/>
    <path class="cls-6" d="M57.04,19.04c11.08,10.58,20.28,23.19,27,36.96-.51-.81-1.01-1.62-1.51-2.44-7.49-12.22-16.06-23.73-25.49-34.51h0Z"/>
    <path class="cls-6" d="M5.3,51.5c-.29,29.44,24.83,52.42,54.17,48.83,3.92-.43,7.79-1.39,11.51-2.79-7.29,3.22-15.46,4.32-23.39,3.52-24.79-2.12-43.9-24.84-42.29-49.56h0Z"/>
    <path class="cls-6" d="M7.44,51.35c3.77,12.89,11.32,24.61,21.6,33.26,1.28,1.09,3.2,2.57,4.54,3.56-1.44-.82-3.47-2.2-4.84-3.18-10.81-8.15-18.74-20.31-21.3-33.64h0Z"/>
  </g>
</svg>