<?xml version="1.0" encoding="UTF-8"?>
<svg id="_왼쪽_위" data-name="왼쪽_위" xmlns="http://www.w3.org/2000/svg" version="1.1" viewBox="0 0 112.24 150.28">
  <defs>
    <style>
      .cls-1, .cls-2, .cls-3 {
        stroke: #111114;
        stroke-linecap: round;
        stroke-linejoin: round;
      }

      .cls-1, .cls-3 {
        fill: none;
      }

      .cls-2 {
        fill: #00d675;
      }

      .cls-2, .cls-3 {
        stroke-width: 1.2px;
      }

      .cls-4 {
        fill: #ff6a37;
        stroke-width: 0px;
      }
    </style>
  </defs>
  <path class="cls-2" d="M49.45,102.65s9.84,21.51-5.35,47.02h9.33s7.44-31.43,2.53-45.96l-6.52-1.06Z"/>
  <g>
    <path class="cls-2" d="M55.09,142.15s10.35-16.37,8.7-22.07c0,0-.54-16.77,23.82-18.83s23.9-4.11,23.9-4.11c0,0-.64,17.4-13.46,25.15-12.81,7.75-20.76-.02-29.9,6.49-9.14,6.51-14.11,18.34-14.11,18.34l1.04-4.98Z"/>
    <path class="cls-1" d="M63.79,129.26c.72-.95,7.68-18.19,27.3-20.25,19.62-2.06,17.96-8.7,17.96-8.7"/>
  </g>
  <g>
    <path class="cls-2" d="M46.31,145.96s2.54-13.95-9.01-19.76c0,0-21.67-1.76-27.37-11.53-5.7-9.78-2.85-16.42-6.17-17.53,0,0,18.19-5.94,32.59,11.03s11.98,33.7,11.98,33.7l-2.02,4.09Z"/>
    <path class="cls-1" d="M9.46,100.31s24.71,8.49,34.65,27.66c0,0,4.46,10.09,3.57,15.34"/>
  </g>
  <g>
    <path class="cls-4" d="M108.14,33.85l-.06.16h0c.17-.42.36-.88.57-1.46,2.04-5.66-3.87-9.25-11.29-12.04-7.42-2.8-7.74-5.38-7.74-5.38-1.29-9.46-11.4-10.11-13.55-12.9-2.15-2.8-18.17-1.51-21.94.22-3.76,1.72-2.69-.43-9.79-.75-2.19-.1-4.2.85-6.05,2.29,0,0-8.87-8.38-19.56,6.94-2.07,2.97-3.09,5.95-3.45,8.91l-.02.02v-.03s-.19.29-.52.81l-.02.02h0C11.87,25.02-1.14,45.91.91,60.3l.06-.18v.14s-.06.04-.06.04c-4.28,29.77,37.38,44.13,37.38,44.13-.02-.05-.04-.1-.06-.14.07.03.14.05.2.07l-.14.07s44.23,12.89,51-27.03l-.69.36.02-.08c2.62-1.07,3.82-2.3,4.17-3.51,0,0,.02-.01.02-.02l-.06.17s7.53-7.52,15.39-20.97c7.86-13.45,0-19.49,0-19.49ZM30.55,53.24c.04.08.07.16.11.24l-.18-.21.07-.03Z"/>
    <g>
      <path class="cls-3" d="M65.89,30.34s-2.73,3.35,1.25,6.16,3.74-1.79,3.74-1.79c0,0-.55-4.91-4.99-4.37Z"/>
      <path class="cls-3" d="M67.15,30.34s-.95-3.27,2.33-1.87c3.28,1.4,7.49,1.33,7.49,1.33,0,0,4.52,2.5,4.13,5.3-.39,2.81-1.87,11.07-6.24,12.01s-4.91-3.82-4.91-3.82c0,0,3.25-7.09.88-7.72"/>
      <path class="cls-3" d="M65.89,30.34s1.45.08-.91-2.22-7.66-3.7-9.07,2.22c-1.4,5.93-.55,8.08,2.03,8.72s5.93,7.73,12.01,4.22"/>
      <path class="cls-3" d="M55.26,34.39s-4.05,3.39-4.96-2.82c-.92-6.2,2.48-12.83,2.48-12.83,0,0,5.34-8.04,16.76,5.64,0,0,8.11-4.79,15.58,4.3,7.47,9.09,0,21.43,0,21.43,0,0-9.81,13.67-15.83,11.56s-.81-7.05-.81-7.05l5.59-7.4"/>
      <path class="cls-3" d="M66.47,57.86s-2.86,3.11-10.54-2.88c-7.68-5.99-15.08-11.84-15.65-16.71-.56-4.86-6.63-18.72-.78-21.87,0,0,8.98,4.94,10.66,13.9"/>
      <path class="cls-3" d="M39.51,16.4s2.83-7.44,12.22-7.73,22.34,0,22.34,0c0,0,2.96-2.11,16.76,13.94,0,0,13.34,5.22,15.07,11.24,1.73,6.02.76,6.34-7.23,15.99s-7.01,17.75-11.11,19.04c-4.1,1.29-16.74-4.74-16.68-7.01"/>
      <path class="cls-3" d="M89.01,67.97s12.97,8.39-8.32,11.7c-21.29,3.31-29.89-12.49-29.89-12.49,0,0-3.76-2.2-9.14-1.26s-14.41-16.64-13.87-23.23c.54-6.58-4.35-24.65-.02-27.66S37.24,1.37,44.34,1.69s6.02,2.47,9.79.75,19.79-3.01,21.94-.22,12.26,3.44,13.55,12.9c0,0,.32,2.58,7.74,5.38,7.42,2.8,13.33,6.38,11.29,12.04-2.04,5.66-2.39,2.64-2.39,2.64"/>
      <path class="cls-3" d="M108.14,33.85s7.86,6.05,0,19.49-15.39,20.97-15.39,20.97"/>
      <path class="cls-3" d="M38.29,3.99s-8.87-8.38-19.56,6.94c-10.69,15.32,6.41,30.85,0,42.42"/>
      <path class="cls-3" d="M41.65,65.92s-12.13,20.48-3.37,38.51c0,0-41.66-14.35-37.38-44.13,0,0,17.46-9.39,28.15-8.63"/>
      <path class="cls-3" d="M38.29,104.43s44.23,12.89,51-27.03"/>
      <path class="cls-3" d="M15.27,19.82S-1.39,44.16.91,60.3"/>
    </g>
  </g>
</svg>