<?xml version="1.0" encoding="UTF-8"?>
<svg id="_왼쪽_위" data-name="왼쪽_위" xmlns="http://www.w3.org/2000/svg" version="1.1" viewBox="0 0 57.67 54.61">
  <defs>
    <style>
      .cls-1 {
        fill: #d793ff;
      }

      .cls-1, .cls-2 {
        stroke-width: 0px;
      }

      .cls-3 {
        fill: none;
      }

      .cls-3, .cls-4 {
        stroke: #111114;
        stroke-linecap: round;
        stroke-linejoin: round;
        stroke-width: 1.2px;
      }

      .cls-2 {
        fill: #111114;
      }

      .cls-4 {
        fill: #00b2ff;
      }
    </style>
  </defs>
  <path class="cls-1" d="M54.02,27.45c1.14-.61,1.84-1.5,1.83-2.77-.03-7.2-3.42-14.94-11.9-20.3-1.73-1.09-3.38-.86-4.92.19l-.39-.12h.56c.09-4.95-13.3-3.7-13.3-3.7-6.09-.37-8.53.7-9.47,1.78h0c-.83.95-.5,1.92-.5,1.92h.01l-.05.19c-2.41-.69-4.17.78-4.17.78C-5.81,18.91,2.64,26.41,2.64,26.41c-2.59,2.33-2.05,7.01.49,13.43,5.19,13.15,12.8,10.33,12.8,10.33,0,4.8,12.8,4.2,19.72,2.99,6.92-1.21,4.91-5.97,4.91-5.97h0c1.58,1.51,3.22,2.32,4.78,1.82,6.4-2.08,10.73-10.38,11.59-14.88.86-4.5-2.91-6.68-2.91-6.68Z"/>
  <g>
    <g>
      <path class="cls-4" d="M22.5,27.55s2.25-4.5,6.23-2.25,5.16,1.56,4.74,3.63-7.51,5.19-10.97-1.38Z"/>
      <path class="cls-3" d="M28.72,25.31S35.47-.99,43.95,4.37c8.48,5.36,11.87,13.1,11.9,20.3s-22.33,3.32-22.33,3.32"/>
      <path class="cls-3" d="M54.7,27.45s3.09,2.19,2.23,6.68c-.86,4.5-5.19,12.8-11.59,14.88s-14.14-18.05-14.14-18.05"/>
      <path class="cls-3" d="M40.56,47.19s2.01,4.76-4.91,5.97c-6.92,1.21-19.72,1.81-19.72-2.99s8.95-19.79,8.95-19.79"/>
      <path class="cls-3" d="M15.92,50.17s-7.61,2.81-12.8-10.33-2.08-19.03,19.37-12.28"/>
      <path class="cls-3" d="M2.64,26.41S-5.81,18.91,11.71,5.41c0,0,8.94-7.53,14.19,19.33"/>
      <path class="cls-3" d="M15.92,4.44S14.43.05,25.9.74c0,0,13.39-1.25,13.3,3.7"/>
    </g>
    <g>
      <path class="cls-2" d="M27.68,23.62c-.62-5.73-1.25-12-1.77-17.74,1.62,5.74,2.22,11.78,1.77,17.74h0Z"/>
      <path class="cls-2" d="M30.02,24.97c3.08-4.04,6.58-7.74,10.45-11.03-3.07,4.04-6.58,7.74-10.45,11.03h0Z"/>
      <path class="cls-2" d="M24.25,24.31c-3.38-3.45-6.75-6.68-10.34-9.91,4.22,2.32,7.84,5.8,10.34,9.91h0Z"/>
      <path class="cls-2" d="M22.48,28.84c-5.05.39-10.52,1.77-15.07,3.03,0,0,.2.63.2.63l-.34-.56c4.4-2.64,10.05-3.63,15.2-3.1h0Z"/>
      <path class="cls-2" d="M26.02,32.16c-2.4,4.2-3.07,8.99-1.92,13.69-2.3-4.29-1.46-10.2,1.92-13.69h0Z"/>
      <path class="cls-2" d="M32.97,30.27c3.94,3.35,7.53,7.1,10.68,11.2-3.95-3.34-7.53-7.1-10.68-11.2h0Z"/>
      <path class="cls-2" d="M33.01,25.67c2.95-1.47,5.82-2.72,8.91-3.86-2.52,2.1-5.65,3.45-8.91,3.86h0Z"/>
      <path class="cls-2" d="M22.62,25.59c-3.77-1.87-7.43-3.59-11.27-5.3,4.15.64,8.13,2.52,11.27,5.3h0Z"/>
      <path class="cls-2" d="M23.32,30.68c-3.75,1.39-6.85,3.62-9.36,6.73,1.49-3.72,5.36-6.5,9.36-6.73h0Z"/>
      <path class="cls-2" d="M28.74,32.72c-.4,3.58-.37,6.95.07,10.53-1.54-3.25-1.56-7.26-.07-10.53h0Z"/>
      <path class="cls-2" d="M33.63,29.61c5.21.6,10.26,2.97,14.04,6.59-4.44-2.72-9.11-4.92-14.04-6.59h0Z"/>
      <path class="cls-2" d="M40.68,9.54c.56-1.83,2.61-3.12,4.5-2.82-1.7.87-2.98,1.66-4.5,2.82h0Z"/>
      <path class="cls-2" d="M46.07,11.45c1.37-.83,2.88-1.13,4.46-.88-1.37.83-2.88,1.12-4.46.88h0Z"/>
      <path class="cls-2" d="M46.74,15.49c1.26-1.47,3.88-1.58,5.25-.21-1.89-.27-3.38-.22-5.25.21h0Z"/>
      <path class="cls-2" d="M47.86,19.06c2.28-.52,4.57-.5,6.84.08-2.28.53-4.57.49-6.84-.08h0Z"/>
      <path class="cls-2" d="M48.75,23.21c1.99-.5,3.98-.46,5.94.14-1.99.5-3.98.45-5.94-.14h0Z"/>
      <path class="cls-2" d="M52.19,30.63c2.54.86,4.44,3.58,4.35,6.27-1.07-2.46-2.42-4.41-4.35-6.27h0Z"/>
      <path class="cls-2" d="M49.05,35.73c2.51.37,4.61,2.93,4.46,5.47-1.05-2.29-2.43-3.99-4.46-5.47h0Z"/>
      <path class="cls-2" d="M47.24,39.77c1.81.78,3.09,2.73,3.07,4.7-1.08-1.66-1.98-3.05-3.07-4.7h0Z"/>
      <path class="cls-2" d="M43.68,44.06c1.44.76,2.5,1.91,3.13,3.41-1.44-.76-2.49-1.91-3.13-3.41h0Z"/>
      <path class="cls-2" d="M33.73,46.43c1.22,1.51,1.54,3.71.79,5.5-.38-1.92-.61-3.55-.79-5.5h0Z"/>
      <path class="cls-2" d="M28.99,48.5c.6,1.76.65,3.56.15,5.35-.6-1.76-.65-3.56-.15-5.35h0Z"/>
      <path class="cls-2" d="M23.79,48.5c.55,1.83.55,3.67,0,5.5-.55-1.83-.55-3.67,0-5.5h0Z"/>
      <path class="cls-2" d="M20.09,47.32c-.52,2.09-1.06,4-1.49,6.1,0,0-.23-.21-.23-.21.32.02.63,0,.96.04-.29.14-.59.23-.89.35-.1.04-.22-.03-.23-.14-.2-2.18.43-4.49,1.88-6.15h0Z"/>
      <path class="cls-2" d="M1.49,32.6c.13-2.43,2.47-4.63,4.9-4.61-2.11,1.16-3.62,2.57-4.9,4.61h0Z"/>
      <path class="cls-2" d="M2.56,37.38c.4-1.76,2.12-3.15,3.92-3.17-1.43,1.11-2.54,2-3.92,3.17h0Z"/>
      <path class="cls-2" d="M4.31,40.32c1.03-1.41,2.72-2.25,4.47-2.21-1.43,1.03-2.79,1.69-4.47,2.21h0Z"/>
      <path class="cls-2" d="M6.12,45.4c.75-1.8,1.92-3.29,3.43-4.51.04-.05.12-.07.16,0,.15.34.12.37-.16.11,0,0,.16,0,.16,0-.83,1.75-2.01,3.24-3.58,4.39h0Z"/>
      <path class="cls-2" d="M8.64,48.51c.92-1.76,1.86-3.21,3.11-4.77-.2,1.97-1.39,3.79-3.11,4.77h0Z"/>
      <path class="cls-2" d="M1.63,23.36c1.14-1.16,3.05-1.42,4.53-.77l-.18.42c-.22-.2-.43-.42-.62-.66.3.12,1.08.13,1,.55-.03.09-.13.15-.22.14-1.54-.09-2.9.05-4.51.32h0Z"/>
      <path class="cls-2" d="M1.2,18.65c1.94-.68,4.11-.56,5.96.34-2.06.19-3.93.07-5.96-.34h0Z"/>
      <path class="cls-2" d="M5.36,14.63c1.92-.13,3.89.87,4.92,2.5-1.78-.78-3.24-1.53-4.92-2.5h0Z"/>
      <path class="cls-2" d="M6.4,10.32c1.93.86,3.52,2.15,4.76,3.86-1.93-.86-3.52-2.15-4.76-3.86h0Z"/>
      <path class="cls-2" d="M9.97,7.03c1.93.63,3.58,1.72,4.9,3.27-1.93-.63-3.58-1.73-4.9-3.27h0Z"/>
      <path class="cls-2" d="M20.81,1.25c.66,1.33.9,2.74.95,4.19,0,0-.48-.18-.48-.18.36-.23.75-.43,1.17-.59-.23.38-.5.73-.79,1.05-.13.16-.41.09-.46-.1-.41-1.43-.62-2.87-.38-4.36h0Z"/>
      <path class="cls-2" d="M25.69.95c.58,1.21.63,2.47.11,3.72-.59-1.21-.62-2.47-.11-3.72h0Z"/>
      <path class="cls-2" d="M30.04,1.7c.09,1.97-.05,3.72-.48,5.65-.69-1.84-.51-3.95.48-5.65h0Z"/>
      <path class="cls-2" d="M35.94,1.97c-.46,1.43-1.36,2.54-2.67,3.27.46-1.43,1.36-2.53,2.67-3.27h0Z"/>
    </g>
  </g>
</svg>