<?xml version="1.0" encoding="UTF-8"?>
<svg id="_왼쪽_위" data-name="왼쪽_위" xmlns="http://www.w3.org/2000/svg" version="1.1" viewBox="0 0 178.29 281.69">
  <defs>
    <style>
      .cls-1 {
        fill: #ff97b5;
      }

      .cls-1, .cls-2, .cls-3 {
        stroke: #111114;
        stroke-linecap: round;
        stroke-linejoin: round;
        stroke-width: 1.2px;
      }

      .cls-2 {
        fill: #00d675;
      }

      .cls-4 {
        fill: #111114;
        stroke-width: 0px;
      }

      .cls-3 {
        fill: #ffec2d;
      }
    </style>
  </defs>
  <g>
    <path class="cls-2" d="M80.08,108.24s-10.1,29.23-13.43,51.6c-3.33,22.37-14.43,118.85-12.51,120.64l6.04.6c-2.89-4.45,11.34-110.39,11.34-110.39,1.38-21.1,15.84-59.66,15.84-59.66l-7.28-2.8Z"/>
    <path class="cls-2" d="M73.37,127.12s-11.15-18.26-11.67-24.13c0,0-2.9-10.83-15.3-11.23-12.4-.4-14.48-1.49-14.48-1.49l-2.77-.28s-1.4,2.87,1.29,3.74,3.29-.27,4.91.49,6.18-.26,6.22.62,3.62,2.34,3.62,2.34l4.32,2.5,5.21,4.28,4.56,3.18,13.17,26.21"/>
  </g>
  <g>
    <path class="cls-2" d="M66.08,163.88c-.33-.55-4.79-11.38-4.92-13.47s6.13-21.17-11.34-28.46c-17.47-7.29-46.88-8.27-48.82-10.13s3.09,13.77,16.01,28.26c12.92,14.49,32.26,25.74,42.47,14.97l5.78,15.03"/>
    <g>
      <path class="cls-4" d="M58.33,151.81c-4.62-10.33-16.61-12.63-26.24-16.26-7.5-2.96-14.41-7.39-20.15-13.06-1.89-1.9-3.68-3.9-5.28-6.04,1.77,2,3.62,3.92,5.61,5.68,5.89,5.34,12.76,9.63,20.17,12.49,9.51,3.64,22.02,6.42,25.88,17.19h0Z"/>
      <path class="cls-4" d="M56.05,147.38c.48-6.15,1.62-12.4-1.35-18.11,4.27,4.98,3.23,12.35,1.35,18.11h0Z"/>
      <path class="cls-4" d="M57.17,150.28c-5.81,3.81-13.35,5.16-20.12,3.6,6.96.14,13.64-1.06,20.12-3.6h0Z"/>
      <path class="cls-4" d="M50.04,126.39c3.81,4.89,4.74,12.09,2.28,17.78,1.03-6.1.26-12.13-2.28-17.78h0Z"/>
      <path class="cls-4" d="M55.16,146.78c-5.98,3.7-13.86,4.51-20.46,2.09,6.97,1.01,13.85.31,20.46-2.09h0Z"/>
      <path class="cls-4" d="M50.88,143.23c-3.45,2.57-8.13,2.05-12.21,2.24-4.18-.03-8.36-.34-12.47-1.16,4.18.04,8.32.16,12.47.16,4.07-.17,8.41.59,12.2-1.24h0Z"/>
      <path class="cls-4" d="M48.77,141.09c.84-6.12-4.8-10.88-4.36-16.94.94,5.71,6.63,10.87,4.36,16.94h0Z"/>
      <path class="cls-4" d="M44.97,139.48c-.32-6.53-7.32-10.99-6.57-17.73.65,6.43,7.65,10.96,6.57,17.73h0Z"/>
      <path class="cls-4" d="M40.92,137.95c-.11-1.63-1-2.98-1.99-4.17-4.26-4.17-5.6-7.21-4.48-13.23.23,3.1.31,6.41,2.13,9.01,1.7,2.46,4.9,4.98,4.34,8.39h0Z"/>
      <path class="cls-4" d="M36.43,136.35c-2.67-4.94-10.11-10.2-6.31-16.43-2.29,6.49,4.88,10.69,6.31,16.43h0Z"/>
      <path class="cls-4" d="M30.5,134.22c-.2-2.41-2.4-3.65-3.98-5.19-2.95-2.79-3.19-7.5-1.59-11.03-.45,2.92-.44,6.04,1,8.64,1.26,2.5,5.14,4.27,4.58,7.58h0Z"/>
      <path class="cls-4" d="M24.27,131.23c.1-1.87-1.41-2.97-2.46-4.3-1.86-2.38-2.32-5.93-.79-8.57-.42,2.31-.18,4.58.74,6.58.77,1.97,3.49,3.87,2.51,6.28h0Z"/>
      <path class="cls-4" d="M19.34,128.16c-.93-3.36-5.28-7.26-2.27-10.72-1.54,3.86,2.73,6.9,2.27,10.72h0Z"/>
      <path class="cls-4" d="M14.38,124.49c.46-1.6-.75-2.57-1.48-3.89-.88-1.42-.5-3.27.25-4.65.02-.04.06-.09.11-.06.08.02-.02.3-.01.36,0,0-.1-.27-.1-.27h.14c-.04,1.46-.28,2.88.48,4.14.68,1.13,1.91,3.16.61,4.37h0Z"/>
      <path class="cls-4" d="M10.35,120.43c-.15-1.46-1.82-3.4-.17-4.54-.23,1.53,1.47,3.19.17,4.54h0Z"/>
      <path class="cls-4" d="M46.13,140.72c-7.17,3.7-15.59-2.63-22.64,1.56,6.55-5.56,15.27.72,22.64-1.56h0Z"/>
      <path class="cls-4" d="M38.34,137.62c-5.79,2.32-12.72-1.8-18.04,2.22,4.6-5.31,12.17-1.33,18.04-2.22h0Z"/>
      <path class="cls-4" d="M31.19,134.89c-4.09,1.62-9.72-1.94-12.72,2.39.23-1.17,1.21-2.14,2.31-2.66,3.39-1.56,6.98.42,10.41.26h0Z"/>
      <path class="cls-4" d="M25.24,131.92c-1.64,1.05-3.79.49-5.56.42-1.74-.14-3.43.43-4.9,1.65.84-1.8,3.01-2.81,4.95-2.65,1.98.11,3.63.85,5.51.58h0Z"/>
      <path class="cls-4" d="M19.08,128.19c-.02.68-.65,1.25-1.28,1.49-1.72.74-3.76-.41-5.07,1.2-.03-.68.55-1.3,1.17-1.58,1.72-.85,3.75.38,5.17-1.11h0Z"/>
      <path class="cls-4" d="M15.28,125.54c-1.11,1.95-4.06-.49-4.99,1.55-.29-.5.07-1.2.56-1.51,1.49-.95,2.9.41,4.43-.05h0Z"/>
      <path class="cls-4" d="M11.37,122.01c-.71.18-1.4.1-2.02.37-.65.23-.84.73-1.18,1.37-1.05-2.12,1.83-3.23,3.2-1.74h0Z"/>
      <path class="cls-4" d="M8.43,118.91c-1.15.29-1.46.33-2.65.28.28-1.21,2.13-1.4,2.65-.28h0Z"/>
    </g>
  </g>
  <g>
    <path class="cls-2" d="M68.66,193.32s9.77-19.9,21.32-24.63c0,0,3.71-26.81,29.5-25.1,0,0,32.17,3.72,38.68,7.83,0,0-4.34,5.35-10.13,11.32-5.79,5.96-23.86,25.83-54.36,12.31,0,0-1.44-2.73-3.19-1.01s-4.27-1.9-10.22,8.35c-5.95,10.25-10.89,10.6-12.25,16.14"/>
    <g>
      <path class="cls-4" d="M151.31,153.93c-9.99-2.23-20.3-.07-29.76,3.36-7.15,2.58-14.25,5.44-21.15,8.63-2.31,1.06-4.57,2.23-6.81,3.43,2.13-1.4,4.35-2.66,6.59-3.87,15.14-7.3,34.13-16.63,51.14-11.55h0Z"/>
      <path class="cls-4" d="M95.64,168.1c5.89,3.93,12.64,6.42,19.45,8.26-3.6-.04-7.12-1.13-10.44-2.46-3.27-1.41-6.6-3.1-9.01-5.8h0Z"/>
      <path class="cls-4" d="M99.31,166.85c7.07,4.67,17.74,1.6,23.34,8.84-6.41-6.06-16.88-2.9-23.34-8.84h0Z"/>
      <path class="cls-4" d="M103.41,164.63c7.16,4.35,18.1,3.2,23.44,9.89,0,0-.44-.5-.44-.5l.53.42-.09.09c-1.65-1.37-3.53-2.36-5.51-3.1-5.91-2.3-12.89-2.57-17.93-6.79h0Z"/>
      <path class="cls-4" d="M107.57,162.67c7.35,3.43,18.05,1.31,23.16,8.79-6.11-6.41-16.19-4-23.16-8.79h0Z"/>
      <path class="cls-4" d="M111.56,160.8c5.42-.6,11.02.75,15.71,3.51,1.6.96,3.84,2.51,5.56,3.17.97.43,2.01.65,3.1.72-1.07.16-2.19.04-3.25-.25-3.12-.93-5.78-3-8.73-4.21-3.91-1.71-8.13-2.64-12.39-2.93h0Z"/>
      <path class="cls-4" d="M118.01,158.04c8.21-1.53,13.7,8.03,21.84,7.1-8.26,2.38-13.87-7.21-21.84-7.1h0Z"/>
      <path class="cls-4" d="M123.92,155.96c1.27-.53,2.78-.23,4.03.3,2.03,1.03,3.29,3,5.26,4.08,2.93,1.8,6.47,2.53,10.02,2.1-3.44,1.24-7.43.66-10.54-1.25-2.96-1.74-4.81-5.83-8.76-5.23h0Z"/>
      <path class="cls-4" d="M130.13,154.2c1.52-.37,3.14.11,4.56.68,1.54.64,2.58,1.85,3.74,2.76,2.23,1.89,5.17,2.81,8.22,2.68-2.99.96-6.47.12-8.86-1.91-2.14-2.05-4.57-4.06-7.66-4.21h0Z"/>
      <path class="cls-4" d="M135.97,153.14c2.63-.48,5.39.35,7.59,1.82,2.14,1.49,3.48,3.96,6.28,4.08-2.73.78-4.92-1.89-6.85-3.26-2.08-1.41-4.49-2.33-7.02-2.64h0Z"/>
      <path class="cls-4" d="M145.18,153.08c2.03.23,3.85,1.49,4.76,3.32-1.88-.83-3.32-1.85-4.76-3.32h0Z"/>
      <path class="cls-4" d="M147.55,153.11c.3-1.3,1.6-2.13,2.91-1.83-.86,1.04-1.6,1.5-2.91,1.83h0Z"/>
      <path class="cls-4" d="M94.2,168.69c-.94-2.51-.58-5.5.95-7.71-.21,2.7-.5,5.04-.95,7.71h0Z"/>
      <path class="cls-4" d="M97.59,167.11c-.85-5.11.53-10.68,3.67-14.79-1.91,4.83-3.11,9.63-3.67,14.79h0Z"/>
      <path class="cls-4" d="M100.91,165.24c-.08-6.03,2.17-12.17,6.13-16.72-2.79,5.36-4.8,10.82-6.13,16.72h0Z"/>
      <path class="cls-4" d="M105.46,163.17c-.71-6.49,3.04-13.44,8.85-16.41-4.95,4.21-8.05,9.96-8.85,16.41h0Z"/>
      <path class="cls-4" d="M110.06,161.13c.86-5.55,4.25-10.81,8.97-13.86-3.8,4.16-6.74,8.69-8.97,13.86h0Z"/>
      <path class="cls-4" d="M115.42,158.77c1.1-4.71,4.2-9.03,8.32-11.56-3.22,3.63-5.91,7.35-8.32,11.56h0Z"/>
      <path class="cls-4" d="M120.56,156.92c1.62-3.81,4.26-7.16,7.58-9.63-2.34,3.43-4.8,6.55-7.58,9.63h0Z"/>
      <path class="cls-4" d="M124.99,155.87c1.81-3.12,3.94-5.86,6.51-8.39-1.43,3.3-3.67,6.18-6.51,8.39h0Z"/>
      <path class="cls-4" d="M129.28,154.37c1.21-2.59,3.31-4.71,5.9-5.93-1.72,2.3-3.61,4.19-5.9,5.93h0Z"/>
      <path class="cls-4" d="M134.99,153.25c1.16-1.97,2.43-3.52,4.14-5.04-.5,2.22-2.06,4.11-4.14,5.04h0Z"/>
      <path class="cls-4" d="M139.66,152.75c.89-1.59,1.84-2.7,3.29-3.8-.23,1.79-1.55,3.31-3.29,3.8h0Z"/>
      <path class="cls-4" d="M143.81,152.62c.22-1.3.79-2.12,1.93-2.78.08,1.31-.69,2.39-1.93,2.78h0Z"/>
    </g>
  </g>
  <g>
    <g>
      <path class="cls-1" d="M95.33,7.4s10.56,7.05,7.83,26.77c0,0-1.09,14.24-1.03,16.92,0,0,6.76-.64,9.52,1.01,0,0,6.28-30.96,15.35-36.06.62-.35-2.27-14.12-14.48-14.31,0,0-12.88-4.9-17.19,5.67Z"/>
      <path class="cls-4" d="M105.18,51.08c4.21-13.11,5.12-27.1,2.61-40.68,4.19,13.19,3.18,28.1-2.61,40.68h0Z"/>
      <path class="cls-4" d="M109.26,51.02c-.9-11.25,2.27-22.97,8.73-32.23-4.99,10.14-7.93,20.95-8.73,32.23h0Z"/>
    </g>
    <g>
      <path class="cls-1" d="M102.13,51.09s13.83-39.2-13.38-48.68c0,0-11.43-.36-11.64,4.32-.2,4.67,7.93,17.21,7.93,17.21,0,0,9.6,16.42,10.29,28.96"/>
      <g>
        <path class="cls-4" d="M99.19,50.78c2.26-11.37,1.88-22.92-1.11-34.12,4.61,10.62,5.01,23.22,1.11,34.12h0Z"/>
        <path class="cls-4" d="M96.9,51.41c.49-13.14-2.94-26.22-9.86-37.45,8.36,10.26,12.03,24.38,9.86,37.45h0Z"/>
      </g>
    </g>
    <g>
      <path class="cls-1" d="M90.43,56.62c-.63-1.25-1.36-2.41-2.15-3.52l-2.12-2.64c-10.16-11.34-27.75-15.3-28.91-21.91-1.34-7.69,4.66-6.21,4.66-6.21-1.36-.49-1.11-2.95-1.11-2.95,8.57-10.25,22.83,2.27,22.83,2.27,0,0,12.85,22.07,11.71,31.23,0,0-2.98,1.53-4.46,3.11l-.45.62Z"/>
      <path class="cls-4" d="M93.5,53.56c-2.53-12.33-10.11-23.31-20.83-30,11.63,5.16,19.99,17.29,20.83,30h0Z"/>
      <path class="cls-4" d="M92.15,54.23c-3.66-8.1-9.3-14.84-16.6-19.9,8.15,3.52,14.6,11.25,16.6,19.9h0Z"/>
    </g>
    <g>
      <path class="cls-1" d="M88.27,65.56c-.62-2.94,2.16-8.94,2.16-8.94-5.08-10.86-24.12-20.02-24.12-20.02,0,0-10.76-3.3-16.83,2.95-6.07,6.25-1.91,8.59-1.91,8.59,0,0-3.39,2.29.11,4.23s21.93-1.29,40.6,13.2Z"/>
      <path class="cls-4" d="M89.13,59.34c-5.65-8.41-14.42-14.1-24.39-15.85,10.16-.06,20.31,6.55,24.39,15.85h0Z"/>
      <path class="cls-4" d="M88.24,62.27c-4.67-5.69-10.68-9.69-17.72-11.83,7.36.39,14.54,5.19,17.72,11.83h0Z"/>
    </g>
    <g>
      <path class="cls-1" d="M90.16,72.56c-1.07-1.34-1.89-7-1.89-7l-3.76-2.5c-2.51-1.67-5.28-2.91-8.2-3.64-6.52-1.64-18.09-3.79-23.37-.03,0,0-8.4,4.96-8.08,10.61.32,5.65,25.2.17,45.29,2.55Z"/>
      <path class="cls-4" d="M88.89,68.5c-9.41-4.4-19.54-6.4-29.92-5.93,10.14-2.2,21.38.04,29.92,5.93h0Z"/>
      <path class="cls-4" d="M89.63,70.88c-7.36-1.93-14.64-2.99-22.25-3.25,7.45-1.43,15.51-.24,22.25,3.25h0Z"/>
    </g>
    <g>
      <g>
        <path class="cls-1" d="M95.55,80.76s-20.63,7.7-21.4,22.71c0,0-2.45,4.48,5.06,7.6,0,0-1.53,4.39,7.84,5.33,9.36.93,23.37-17.04,23.68-25.79,0,0,17.25,13.76,16.09,33.4,0,0-1.65,6.76,7.01,5.71,0,0,7.9,5.06,10.88-7.17,2.99-12.23-6.05-29.76-18.76-33.03,0,0-6.85-3.17-15.23,1.09,0,0-3.65-7.36-15.18-9.85Z"/>
        <path class="cls-4" d="M101.5,83.33c-8.14,3.54-15.16,8.7-20.98,15.39,4.4-7.69,12.33-13.5,20.98-15.39h0Z"/>
        <path class="cls-4" d="M104.98,84.89c-5.66,4.62-10.74,9.51-15.6,14.97,3.47-6.41,9.06-11.77,15.6-14.97h0Z"/>
        <path class="cls-4" d="M107.14,87.3c-1.53,5.2-5.14,9.87-9.8,12.66,3.59-4.1,6.73-8.15,9.8-12.66h0Z"/>
        <path class="cls-4" d="M109.85,89.42c-2.72,9.23-9.76,15.39-18.32,19.18-1.11.62-2.11,1.42-2.86,2.48.52-1.21,1.5-2.17,2.54-2.97,3.2-2.15,6.65-3.88,9.45-6.56,3.83-3.4,6.87-7.55,9.2-12.14h0Z"/>
      </g>
      <g>
        <path class="cls-4" d="M119.83,88.94c12.47,1.49,22.1,14.33,20.05,26.66-.01-3.04-.52-6.03-1.43-8.87-2.7-8.62-9.98-15.33-18.63-17.8h0Z"/>
        <path class="cls-4" d="M114.63,88.45c8.82,3.34,15.65,11.2,18.29,20.2.9,3,1.3,6.15,1.15,9.25-1.22-12.32-8.66-23.5-19.44-29.45h0Z"/>
      </g>
    </g>
    <g>
      <path class="cls-1" d="M125.96,89.53s3.98-2.29,4.25-5.31c0,0,33.2,6.01,33.6,21.23,0,0,1.95,11.54-2.2,13.19,0,0,.02,4.28-5.09,2.29-5.11-1.98-11.28-7.04-11.95-9.52l-7.96-15.09c-1.4-1.53-3.03-2.98-4.91-4.25l-5.73-2.55Z"/>
      <path class="cls-4" d="M129.19,86.67c9.03.19,18.04,5.42,22.67,13.18-6.05-6.7-13.85-11.24-22.67-13.18h0Z"/>
      <path class="cls-4" d="M127.95,87.99c10.08,1.21,19.11,9.61,21.03,19.61-3.65-9.4-11.39-16.63-21.03-19.61h0Z"/>
    </g>
    <g>
      <path class="cls-1" d="M131.27,76.98s35.63-8.48,40.94,7.73c0,0,3.94,6.34-.85,8.52,0,0,1.92,7.12-4.02,6.38,0,0-4.4.06-10.19-4.89,0,0-11.67-8.22-24.56-10l-2.38-.5s1.47-4.89,1.06-7.24"/>
      <path class="cls-4" d="M131.31,79.73c9.61-2.27,19.98-1.76,29.32,1.44-9.77-1.57-19.45-2.06-29.32-1.44h0Z"/>
      <path class="cls-4" d="M130.34,82.84c6.9-1.6,14.19-1.6,21.17-.35,4.09.52,9.46,3.48,7.97,8.35.63-6.56-7.52-7.3-12.32-7.76-5.57-.6-11.17-.59-16.82-.24h0Z"/>
    </g>
    <g>
      <path class="cls-1" d="M128.21,66.54s24.02-22.67,44.28-12.66c1.12.55,2,1.54,2.22,2.77s-.12,2.64-2.29,3.72c0,0,10.78,7.2,1.5,14.53,0,0,1.09,2.58-11.97,1.23,0,0-12.66-2.93-24.56-.3l-6.12,1.15s-.98-8.36-3.06-10.43"/>
      <path class="cls-4" d="M129.32,69.38c8.25-7.3,18.94-12.07,29.89-13.31-10.65,2.91-20.6,7.34-29.89,13.31h0Z"/>
      <path class="cls-4" d="M130.67,72.62c7.94-8.4,20.88-12.11,32.07-9.17-11.48-1.16-22.93,2.11-32.07,9.17h0Z"/>
      <path class="cls-4" d="M130.76,75.17c8.17-7.41,20.84-9.88,31.2-6.07-10.81-2.07-21.95.09-31.2,6.07h0Z"/>
    </g>
    <g>
      <path class="cls-1" d="M171.41,53.39l-9.21-.62c-16.05-1.06-34,13.77-34,13.77l-4.16-6.02s16.15-28.77,40.41-20.76c0,0,3.58,2.55.84,6.34,0,0,9.81,3.48,6.12,7.28Z"/>
      <path class="cls-4" d="M126.73,64.66c6.85-9.42,18.23-15.7,29.85-16.47-11.38,2.5-21.66,8.17-29.85,16.47h0Z"/>
      <path class="cls-4" d="M125.81,62.4c3.92-8.51,12.41-15.03,21.64-16.62-8.77,3.29-16.2,8.99-21.64,16.62h0Z"/>
    </g>
    <g>
      <path class="cls-1" d="M111.65,52.1s8.23,2.41,12.39,8.42c0,0,12.21-21.35,30.24-22.11,2.15-.09,2.09-5.2,2.09-5.2,2.36-5.22-6.5-9.9-6.5-9.9-2.92-4.68-7.8-1.55-7.8-1.55.71-8.62-1.57-10.92-8.21-12.02s-12.88,10.69-12.88,10.69c-5.06,4.98-9.33,31.66-9.33,31.66"/>
      <path class="cls-4" d="M121.26,57.91c3.76-9.5,11.56-17.57,20.95-21.62-8.58,5.58-15.64,12.86-20.95,21.62h0Z"/>
      <path class="cls-4" d="M118.93,55.38c6.61-9.31,13.03-18.58,19.44-28.03-4.96,10.27-11.57,19.78-19.44,28.03h0Z"/>
      <path class="cls-4" d="M116.32,53.74c5.78-8.84,10.63-18.01,14.69-27.75-2.46,10.25-7.61,19.95-14.69,27.75h0Z"/>
      <path class="cls-4" d="M114.41,53.75c1.15-9.69,5.23-19.15,11.49-26.63-4.89,8.47-8.69,17.26-11.49,26.63h0Z"/>
    </g>
    <g>
      <path class="cls-3" d="M121.53,58.07s-12.27-12.95-28.8-3.91c0,0-10.63,7.28.71,24.31l2.12,2.3s11.25,2.16,15.18,9.85c0,0,6.42-4.31,15.23-1.09,0,0,8.51-4.37,4.04-19.67,0,0-4.04-8.37-8.47-11.79Z"/>
      <g>
        <path class="cls-4" d="M109.16,55.76c.79.33.77.74-.06.98-.79-.33-.76-.74.06-.98h0Z"/>
        <path class="cls-4" d="M122.02,65.54c.91.73-.67,1.85-1.06.75.23-.31.2-.46.33-.65.23-.06.36.02.73-.1h0Z"/>
        <path class="cls-4" d="M118.29,63.32c-.27.97-.36,1.04-1.37,1-.38-.96.59-1.65,1.37-1h0Z"/>
        <path class="cls-4" d="M111.73,63.8c.77.37.74.77-.1.98-.78-.37-.73-.77.1-.98h0Z"/>
        <path class="cls-4" d="M115.15,67.69c.65-.18.9.73.33.94-.15.06-.36.06-.55-.13-.05-.26-.14-.37-.2-.43-.07-.07-.1-.08-.1-.08.17-.02.3-.05.52-.3h0Z"/>
        <path class="cls-4" d="M117.94,69.53c1.04,0,1.06,1.4.02,1.42-.58-.83-.57-.57-.02-1.42h0Z"/>
        <path class="cls-4" d="M122.09,70.88c.66-.53,1-.33.8.5-.67.54-.99.32-.8-.5h0Z"/>
        <path class="cls-4" d="M108.3,62.33c.72.47.63.87-.23.97-.72-.47-.62-.87.23-.97h0Z"/>
        <path class="cls-4" d="M111.41,60.22c.85.29.91.81.15,1.29-.85-.29-.91-.81-.15-1.29h0Z"/>
        <path class="cls-4" d="M114.2,58.81c.95-.31,1.51.73.72,1.35-.92-.38-.91-.37-.72-1.35h0Z"/>
        <path class="cls-4" d="M114.66,62.82c.39.18,1.05.47,1.05.87-.21,1.03-.66,1.93-1.66,2.47-.2-1.04.12-1.89.72-2.67,0,0,.03.47.03.47-.1-.34-.18-.7-.13-1.14h0Z"/>
        <path class="cls-4" d="M108.29,58.51c.37.8.05,1.18-.8.91-.37-.8-.04-1.17.8-.91h0Z"/>
        <path class="cls-4" d="M106.23,56.46c-.02.97.17.77-.8.91-.75-.64.06-1.57.8-.91h0Z"/>
        <path class="cls-4" d="M103.31,61.55c.81.31.83.78.03,1.14-.82-.31-.83-.78-.03-1.14h0Z"/>
        <path class="cls-4" d="M106.02,62.95c.69.96.74,1.18.45,2.32-1.18-.18-1.47-1.72-.45-2.32h0Z"/>
        <path class="cls-4" d="M109.57,66.99c.82.2.85.55.06.86-.82-.2-.84-.55-.06-.86h0Z"/>
        <path class="cls-4" d="M113.1,68.47c.76.45.72.97-.13,1.26-.77-.45-.71-.97.13-1.26h0Z"/>
        <path class="cls-4" d="M113.76,73.21c.89-.19,1.25.25.88,1.08-.89.19-1.25-.25-.88-1.08h0Z"/>
        <path class="cls-4" d="M118.26,66.57c.75-.39,1.02-.13.65.63-.75.39-1.02.13-.65-.63h0Z"/>
        <path class="cls-4" d="M121.36,62.35c.97.4.85,1.63-.18,1.82-.53-.89-.51-1.05.18-1.82h0Z"/>
        <path class="cls-4" d="M118.85,60.55c.71.5.61.96-.25,1.11-.72-.5-.61-.96.25-1.11h0Z"/>
        <path class="cls-4" d="M123.17,64.09c.95-.06,1.36.48,1,1.37-.96.07-1.35-.49-1-1.37h0Z"/>
        <path class="cls-4" d="M125.64,67.89c.09.69.22,1.27.45,1.74.46.64.94,1.34.97,2.21-.85-.36-1.5-.85-1.98-1.59-.41-.78-.21-1.9.55-2.37h0Z"/>
        <path class="cls-4" d="M125.93,74.7c.5.67.3.95-.49.66-.51-.68-.3-.95.49-.66h0Z"/>
        <path class="cls-4" d="M119.99,74.68c.84.46.89,1.14.11,1.71-.85-.46-.89-1.14-.11-1.71h0Z"/>
        <path class="cls-4" d="M98.99,58c.89.14,1.08.67.44,1.32-.9-.14-1.07-.67-.44-1.32h0Z"/>
        <path class="cls-4" d="M96.22,63.11c1.04-.08,1.58.49,1.44,1.53-1.04.08-1.58-.49-1.44-1.53h0Z"/>
        <path class="cls-4" d="M100.02,67.3c.37.89-.02,1.48-.99,1.46-.38-.9.02-1.47.99-1.46h0Z"/>
        <path class="cls-4" d="M103.6,70.07c.85.22.92.69.17,1.15-.85-.22-.92-.69-.17-1.15h0Z"/>
        <path class="cls-4" d="M109.04,71.43c.78.27.76.54-.06.64-.79-.27-.76-.53.06-.64h0Z"/>
        <path class="cls-4" d="M110.36,78.33c.95.3.03,1.32-.36.4,0-.31-.04-.47-.19-.54.08.15.25.17.56.14h0Z"/>
        <path class="cls-4" d="M107.69,77.42c.81.19.83.51.03.76-.82-.19-.83-.51-.03-.76h0Z"/>
        <path class="cls-4" d="M103.07,77.5c.32.02.47.07.57.14-.22-.28-.51-.43-.19-.4.22.13.21.28.22.7-.19.29-.33.38-.44.43-.2.1-.33-.21-.62-.49.07-.11.17-.22.45-.38h0Z"/>
        <path class="cls-4" d="M117.48,77.04c.47.08.57.13.59.17-.02.03-.13.06-.61.05-.47-.08-.57-.13-.59-.17.02-.03.13-.06.61-.05,0,0-.47-.01,0,0Z"/>
        <path class="cls-4" d="M117.22,81.83c.72.53.29,1.26-.52.87-.35-.81-.36-.79.52-.87h0Z"/>
        <path class="cls-4" d="M121.22,83.48c-1.49-.2.4,0,.6.03-.02,0-.01,0-.03,0-.33,0-.81-.05-1.13-.11-.02,0-.02,0-.03-.01.2.02,2.09.19.59.09h0Z"/>
        <path class="cls-4" d="M122.63,80.21c.91-.2.28-.7.31.24-.24.92-1.14.22-.31-.24h0Z"/>
        <path class="cls-4" d="M125.82,81.98c.47.08.57.13.59.17-.02.03-.13.06-.61.05-.47-.08-.57-.13-.59-.17.02-.03.13-.06.61-.05,0,0-.47-.01,0,0Z"/>
        <path class="cls-4" d="M125.2,85.5c.47.06.57.08.59.09-.02,0-.13,0-.6-.03-.47-.06-.58-.08-.59-.09.02,0,.13,0,.6.03,0,0-.47-.04,0,0Z"/>
        <path class="cls-4" d="M112.83,81.77c.48,0,.59.03.61.08-.01.05-.11.1-.58.2-.48,0-.59-.03-.61-.08.02-.05.12-.1.58-.2,0,0-.47.09,0,0Z"/>
        <path class="cls-4" d="M111.79,86.28c.81-.05.82.04.03.22-.81.05-.82-.04-.03-.22h0Z"/>
        <path class="cls-4" d="M108.42,82.59c.14.8.03.84-.28.08-.14-.81-.03-.83.28-.08h0Z"/>
        <path class="cls-4" d="M101.96,79.95c-.33.74-.42.71-.21-.07.33-.74.41-.71.21.07h0Z"/>
        <path class="cls-4" d="M106.53,73.78c.47.07.57.11.59.14-.02.03-.13.04-.6.02-.47-.07-.57-.11-.59-.14.02-.02.13-.04.6-.02,0,0-.47-.02,0,0Z"/>
        <path class="cls-4" d="M99.9,73.4c.74-.35.81-.24.19.29-.74.35-.81.24-.19-.29h0Z"/>
        <path class="cls-4" d="M101.5,73.22c.66-.46.73-.39.14.18-.67.46-.72.38-.14-.18h0Z"/>
        <path class="cls-4" d="M95.8,72.22c.81-.05.82.04.03.22-.81.05-.82-.04-.03-.22h0Z"/>
        <path class="cls-4" d="M98.25,75.29c.81.14.81.34,0,.49-.81-.14-.81-.34,0-.49h0Z"/>
        <path class="cls-4" d="M101.54,76.21c.38.28.46.35.47.38-.03,0-.13-.03-.53-.28-.39-.28-.46-.35-.47-.38.03,0,.13.04.53.28,0,0-.41-.24,0,0Z"/>
        <path class="cls-4" d="M98.28,78.86c-.47.86-1.46.63-1.48-.36.83-.5.97-.46,1.48.36h0Z"/>
        <path class="cls-4" d="M94.44,75.5c.37-.29.46-.35.49-.35,0,.02-.08.1-.44.41-.38.29-.47.35-.49.35,0-.02.08-.1.44-.41,0,0-.36.31,0,0Z"/>
        <path class="cls-4" d="M102.42,65.03c.27-.07.44-.07.57-.03.3.06.29.53-.01.58-.26.03-.84.28-1.03,0-.09-.13-.15-.32-.11-.7.3-.24.49-.3.65-.29.15.02.27.11.34.28l-.62.7c0-.13.06-.3.21-.53h0Z"/>
        <path class="cls-4" d="M100.43,61.63l.7.04-1.07.03.7-.09s.39.59.39.6c.19.3.11.69-.19.88-.54.38-1.25-.32-.89-.86,0,0,.36-.6.36-.6h0Z"/>
        <path class="cls-4" d="M102.91,56.69c.39-.03.69-.08.65.16-.17.26-.27.71-.46.59-.1-.04-.22-.12-.43-.35-.1-.32-.24-.65.01-.68,0,0-.24.67-.24.67.04-.09.15-.21.47-.39h0Z"/>
        <path class="cls-4" d="M104.83,66.89c.83-.26.78-.31.65.55-.6.64-1.18.14-.65-.55h0Z"/>
        <path class="cls-4" d="M106.82,68.28c.75.57.69.13.12.88-.92.26-1.07-.89-.12-.88h0Z"/>
        <path class="cls-4" d="M109.02,74.35c.45-.15.55-.17.58-.16,0,.03-.1.08-.54.27-.45.15-.56.17-.58.16.01-.03.1-.08.54-.27,0,0-.43.19,0,0Z"/>
        <path class="cls-4" d="M105.41,79.63c.47.06.57.09.59.11-.02.02-.13.02-.6,0-.47-.07-.58-.09-.59-.11.02-.02.13-.02.6,0,0,0-.47-.03,0,0Z"/>
        <path class="cls-4" d="M113.61,56.99c.81-.05.82.04.03.22-.81.05-.82-.04-.03-.22h0Z"/>
        <path class="cls-4" d="M117.64,58.58c.47.06.57.09.59.11-.02.02-.13.02-.6,0-.47-.06-.58-.09-.59-.11.02-.02.13-.02.6,0,0,0-.47-.03,0,0Z"/>
        <path class="cls-4" d="M117.7,73.6c.77-.29.89-.1.28.46-.77.29-.88.1-.28-.46h0Z"/>
        <path class="cls-4" d="M122.91,74.76c.46-.13.57-.13.6-.1,0,.04-.09.12-.52.33-.46.13-.57.13-.6.1,0-.04.09-.12.52-.33,0,0-.43.21,0,0Z"/>
        <path class="cls-4" d="M126.24,78.83c.48.08.53.76.05.57-.31-.12-.15-.72-.32-.88-.13-.15-.26-.03-.14.12.06.07.17.16.42.19h0Z"/>
        <path class="cls-4" d="M128.49,78.95c.47-.08.58-.07.6-.05-.01.03-.11.08-.57.22-.47.08-.58.07-.6.05.01-.03.11-.08.57-.22,0,0-.45.13,0,0Z"/>
        <path class="cls-4" d="M128.24,83.85c.7.62-.19,1.24-.53.37.04-.49-.05-.59-.03-.61.03,0,.09.11.56.24h0Z"/>
        <path class="cls-4" d="M122.75,85.71c-.23,1.01-1.37,1.15-1.82.21.72-.74.96-.76,1.82-.21h0Z"/>
        <path class="cls-4" d="M117.87,85.04c.59-.02.95.22.68.63-.15.13-.32.43-.57.35-.13-.04-.28-.1-.5-.32-.04-.42-.05-.69.28-.79,0,0-.28.72-.28.72,0-.15.08-.33.4-.6h0Z"/>
        <path class="cls-4" d="M115.42,85.12c.31.02.48-.02.63.13.11.21.03.47-.18.58-.07.05-.39.09-.47.11-.19-.06-.16-.31-.2-.62.11-.3.14-.54.34-.56,0,0-.65.69-.65.69.08-.19.26-.22.54-.34h0Z"/>
        <path class="cls-4" d="M114.9,78.46c1.58-.36,1.02,1.79-.15.78-.3-.23-.23-.5-.05-.91.3-.11.47-.11.62-.09.14.03.23.11.28.22l-.9.72c-.04-.16-.03-.37.2-.72h0Z"/>
        <path class="cls-4" d="M112.9,75.77c.73.33.71.42-.08.21-.74-.34-.7-.42.08-.21h0Z"/>
        <path class="cls-4" d="M111.23,82.64c.55.7-.08,1.27-.71.63-.1-.88-.15-.83.71-.63h0Z"/>
        <path class="cls-4" d="M109.63,85.25c.81.05.83.18.02.33-.82-.05-.82-.18-.02-.33h0Z"/>
        <path class="cls-4" d="M95.51,67.48c.27-.13.42-.24.61-.18.19.14.23.4.09.58-.03.06-.36.31-.41.36-.19.04-.28-.23-.42-.51,0-.31-.04-.59.15-.64,0,0-.32.94-.32.94-.01-.2.12-.32.31-.56h0Z"/>
        <path class="cls-4" d="M92.74,71.43c.37.01.61,0,.71.28.08.35-.03.75-.44.79-.37.03-.46-.27-.53-.66.1-.22.18-.33.26-.42.08-.09.15-.12.22-.12l-.64.77c-.08-.28.12-.41.41-.64h0Z"/>
        <path class="cls-4" d="M91.31,67.23c.71-.41.83-.26.29.35-.71.41-.83.26-.29-.35h0Z"/>
        <path class="cls-4" d="M92.62,63.29c.33-.73.42-.71.21.07-.34.74-.42.7-.21-.07h0Z"/>
        <path class="cls-4" d="M103.39,59.1c.23-.42.3-.5.33-.51.02.03,0,.14-.18.58-.23.42-.3.5-.33.51-.02-.03,0-.14.18-.58,0,0-.18.44,0,0Z"/>
        <path class="cls-4" d="M105.12,53.7c.1.81-.1.89-.5.17-.11-.82.1-.88.5-.17h0Z"/>
        <path class="cls-4" d="M108.62,53.94c.58-.59.79-.46.51.32-.58.59-.79.45-.51-.32h0Z"/>
        <path class="cls-4" d="M111.58,57.38c.08.82-.18.91-.62.21-.08-.83.18-.91.62-.21h0Z"/>
        <path class="cls-4" d="M100.7,54.02c.73.41.66.72-.18.74-.73-.41-.65-.72.18-.74h0Z"/>
        <path class="cls-4" d="M96.41,55.22c.47.07.57.11.59.14-.02.03-.13.04-.6.02-.47-.07-.57-.11-.59-.14.02-.02.13-.04.6-.02,0,0-.47-.02,0,0Z"/>
        <path class="cls-4" d="M95.28,58.31c.9-.04.93-.01.79.88-.77.51-1.38-.18-.79-.88h0Z"/>
        <path class="cls-4" d="M97.62,60.53c.66-.18.76.82.15.83-.16,0-.36-.08-.43-.33.04-.26-.05-.38-.11-.44-.15-.12-.22.01-.04.07.08.02.24.03.43-.14h0Z"/>
        <path class="cls-4" d="M92.78,59.57c.47.06.57.08.59.09-.02,0-.13,0-.6-.03-.47-.06-.58-.08-.59-.09.02,0,.13,0,.6.03,0,0-.47-.04,0,0Z"/>
        <path class="cls-4" d="M93.01,56.78c.34.33.4.42.4.46-.03.01-.14-.03-.52-.31-.34-.33-.4-.42-.4-.46.04-.01.14.03.52.31,0,0-.38-.28,0,0Z"/>
        <path class="cls-4" d="M93.87,65.42c.47.06.57.08.59.09-.02,0-.13,0-.6-.03-.47-.06-.58-.08-.59-.09.02,0,.13,0,.6.03,0,0-.47-.04,0,0Z"/>
        <path class="cls-4" d="M90.21,64.58c.64-.51.74-.42.25.24-.64.51-.74.42-.25-.24h0Z"/>
        <path class="cls-4" d="M90.04,61.47c.06-.47.08-.57.09-.59,0,.02,0,.13-.03.6-.06.47-.08.58-.09.59,0-.02,0-.13.03-.6,0,0-.04.47,0,0Z"/>
        <path class="cls-4" d="M101.68,69.13c.94.03.98.07.88,1-.82.48-1.46-.25-.88-1h0Z"/>
        <path class="cls-4" d="M103.79,74.16c.48,0,.59.03.61.08-.01.05-.11.1-.58.2-.48,0-.59-.03-.61-.08.02-.05.12-.1.58-.2,0,0-.47.09,0,0Z"/>
        <path class="cls-4" d="M107.83,80.36c.47.06.57.09.59.11-.02.02-.13.02-.6,0-.47-.06-.58-.09-.59-.11.02-.02.13-.02.6,0,0,0-.47-.03,0,0Z"/>
        <path class="cls-4" d="M105.86,82.81c.81-.05.82.03.03.22-.81.05-.82-.04-.03-.22h0Z"/>
        <path class="cls-4" d="M119.46,79.45c.45-.15.55-.17.58-.16,0,.03-.1.08-.54.27-.45.15-.56.17-.58.16.01-.03.1-.08.54-.27,0,0-.43.19,0,0Z"/>
        <path class="cls-4" d="M113.44,86.55c.47.06.57.08.59.09-.02,0-.12,0-.6-.03-.47-.06-.58-.08-.59-.09.02,0,.13,0,.6.03,0,0-.47-.04,0,0Z"/>
        <path class="cls-4" d="M129.56,75.97c.36.73.25.81-.29.19-.36-.74-.25-.81.29-.19h0Z"/>
        <path class="cls-4" d="M125.29,87.4c.81-.11.89.1.17.5-.82.11-.88-.1-.17-.5h0Z"/>
        <path class="cls-4" d="M116.24,71c.5-.21.87.42.37.59-.12.03-.29,0-.47-.17-.14-.26-.3-.42-.45-.34.1.14.31.08.56-.09h0Z"/>
        <path class="cls-4" d="M112.02,71.4c.47.06.57.09.59.11-.02.02-.13.02-.6,0-.47-.07-.58-.09-.59-.11.02-.02.13-.02.6,0,0,0-.47-.03,0,0Z"/>
        <path class="cls-4" d="M98.8,71.44c.02.87-.4,1.06-1.02.44-.02-.87.4-1.05,1.02-.44h0Z"/>
        <path class="cls-4" d="M95.97,77.17c.43.21.51.27.52.31-.03.02-.14,0-.59-.15-.43-.21-.52-.27-.52-.31.03-.02.14,0,.59.15,0,0-.45-.15,0,0Z"/>
        <path class="cls-4" d="M111.85,54.64c.63-.54.84-.38.5.38-.63.54-.84.38-.5-.38h0Z"/>
        <path class="cls-4" d="M115.7,56.76c.45-.15.56-.17.58-.16,0,.03-.1.08-.54.27-.45.15-.56.17-.58.16.01-.03.1-.08.54-.27,0,0-.43.19,0,0Z"/>
      </g>
    </g>
    <g>
      <path class="cls-1" d="M102.96,106.33l2.29-3.19c1.03-1.43,1.93-2.95,2.7-4.53l.65-1.34c1.02-2.1,1.74-4.34,2.13-6.65h0c5.95,2.74,11.63,14.5,13.55,18.79.47,1.05.7,2.17.7,3.32-.01,6.07-.81,25.76-10.83,22.26,0,0-4.05,5.19-7.76-.55-3.7-5.74-7.16-19.16-3.43-28.1Z"/>
      <path class="cls-4" d="M111.76,93.09c9.8,4.34,9.99,17.12,7.68,26.1.48-9.25.91-20.36-7.68-26.1h0Z"/>
      <path class="cls-4" d="M112.44,94.32c3.72,4.62,5.31,11.08,4.14,16.9-.55-5.92-1.89-11.39-4.14-16.9h0Z"/>
      <path class="cls-4" d="M111.5,93.77c.94,10.99,1.65,21.89,2.14,32.9-2.13-10.81-2.85-21.91-2.14-32.9h0Z"/>
      <path class="cls-4" d="M108.46,98.93c.24,6.28.03,12.43-.66,18.68-.96-6.2-.73-12.56.66-18.68h0Z"/>
    </g>
    <g>
      <path class="cls-1" d="M62.71,72.4s21.97-1,27.45.16l5.45,7.7c-13.81,14.15-28.19,14.95-33.4,14.43s-5.23-8.72-5.23-8.72c-6.85-1.74-7.13-5.98-7.13-5.98-.94-6.42,12.86-7.6,12.86-7.6Z"/>
      <path class="cls-4" d="M93.22,76.37c-10.36-.66-20.55-.51-30.89.45,10.03-2.61,20.79-2.76,30.89-.45h0Z"/>
      <path class="cls-4" d="M93.78,77.74c-7.69,3.03-16.03,4.51-24.29,4.29,8.16-1.44,16.14-2.84,24.29-4.29h0Z"/>
    </g>
  </g>
</svg>