<?xml version="1.0" encoding="UTF-8"?>
<svg id="_왼쪽_위" data-name="왼쪽_위" xmlns="http://www.w3.org/2000/svg" version="1.1" viewBox="0 0 145.5 250.56">
  <defs>
    <style>
      .cls-1, .cls-2, .cls-3, .cls-4, .cls-5, .cls-6 {
        stroke: #111114;
        stroke-linecap: round;
        stroke-linejoin: round;
      }

      .cls-1, .cls-3, .cls-6 {
        fill: none;
      }

      .cls-2, .cls-3, .cls-4 {
        stroke-width: 1.2px;
      }

      .cls-2, .cls-5 {
        fill: #00d675;
      }

      .cls-7 {
        fill: #ff6a37;
      }

      .cls-7, .cls-8 {
        stroke-width: 0px;
      }

      .cls-8 {
        fill: #111114;
      }

      .cls-4 {
        fill: #ffec2d;
      }

      .cls-5 {
        stroke-width: 1.33px;
      }

      .cls-6 {
        stroke-width: .8px;
      }
    </style>
  </defs>
  <path class="cls-5" d="M96.18,104.27s-.04,131.21-3.67,145.63l-4.73-.81c6.92-25.18-1.94-153.69-1.94-153.69l10.35,8.87Z"/>
  <g>
    <path class="cls-2" d="M94.49,222.72s-5.15-63.74,50.41-103.21c0,0-44.64,80.48-50.54,116.67l.13-13.45Z"/>
    <path class="cls-8" d="M96.47,222.52c2.37-31.27,14.66-61.65,34.4-85.99,2.84-3.46,5.83-6.79,8.95-9.99-24.18,26.31-39.54,60.46-43.35,95.98h0Z"/>
    <path class="cls-8" d="M97.12,198.18c1.16,1.86,2.05,3.84,2.86,5.84l-.52-.2c1.57-.7,3.33-1.01,5.01-.78-1.66.32-3.22.79-4.68,1.49-.19.09-.42.01-.51-.18-.86-2-1.64-4.02-2.15-6.16h0Z"/>
    <path class="cls-8" d="M98.93,187.09c1.8,1.98,3.09,4.42,3.9,6.98l-.53-.24c2.08-.88,4.39-1.26,6.6-.98-10.21,1.55-4.29,4.65-9.96-5.76h0Z"/>
    <path class="cls-8" d="M101.71,176.73c1.54,2.68,2.5,5.68,2.97,8.73,0,0-.45-.32-.45-.32,2.21-.33,4.42-.59,6.65-.7-2.15.61-4.33,1.07-6.53,1.46-.21.04-.41-.1-.44-.31-.54-3.01-1.32-5.93-2.21-8.86h0Z"/>
    <path class="cls-8" d="M104.46,166.29c2,2.56,3.59,5.43,4.88,8.41,0,0-.44-.23-.44-.23,2.67-.51,5.47-.51,8.12.09,0,0-.13.09-.13.09.14-.43.28-.85.43-1.27-.06.45-.13.89-.21,1.33,0,.05-.06.09-.11.09-2.67-.19-5.33-.06-7.95.46-.19.04-.37-.06-.44-.23-1.26-2.97-2.69-5.84-4.14-8.72h0Z"/>
    <path class="cls-8" d="M110.66,157.43c1.71,1.88,2.88,4.24,3.5,6.72l-.34-.3c2.43.32,4.86.7,7.25,1.32-2.47,0-4.92-.23-7.35-.53-.17-.02-.3-.14-.34-.3-.6-2.4-1.55-4.68-2.73-6.91,0,0,1.18,2.24,0,0Z"/>
    <path class="cls-8" d="M117.06,146.13c.72,2.78,1.21,5.61,1.64,8.44.14,2,1.27,1.51,2.72,1.61,1.43.04,2.87.1,4.3.24-1.79.23-3.57.34-5.36.44-.8.12-1.87-.14-2.16-1.03-.78-3.17-.92-6.44-1.14-9.7h0Z"/>
    <path class="cls-8" d="M96.72,216.68c.56-1.77,2.35-3.98,4.43-3.32-1.95.56-2.84,2.16-4.43,3.32h0Z"/>
  </g>
  <g>
    <path class="cls-2" d="M95.13,182.83c16.65-27.61,25.01-56.84,36.35-81.83l-4.69,2.78c-20.57,13.08-38.94,49.55-31.66,79.05"/>
    <path class="cls-8" d="M100.81,135.49c.86,5.3,1.44,10.91,1.87,16.27,0,0-.59-.25-.59-.25,1.3-1.05,2.74-1.9,4.27-2.55,1.52-.66,3.13-1.1,4.75-1.3-1.58.43-3.1,1.03-4.54,1.76-1.43.75-2.78,1.64-4.02,2.65-.16.13-.38.1-.51-.05-.3-1.38-.32-2.86-.48-4.27-.33-3.96-.67-8.31-.74-12.26h0Z"/>
    <path class="cls-8" d="M106.39,125.33c1.49,3.76,2.64,7.64,3.65,11.55,0,0-.38-.25-.38-.25.94-.09,1.88-.12,2.82-.18.94-.05,1.89-.08,2.83-.08-1.85.41-3.71.7-5.58.97-.17.02-.32-.08-.37-.24-1.2-3.86-2.26-7.77-2.97-11.76h0Z"/>
    <path class="cls-8" d="M96.73,167.18c2.06-3.45,5.19-6.3,8.82-8.02-3.03,2.66-5.89,5.26-8.82,8.02h0Z"/>
    <path class="cls-8" d="M95.58,180.6c.18-21.26,12.99-45.11,23.76-63.08,1.71-2.76,3.49-5.47,5.29-8.16-1.69,2.76-3.36,5.54-4.95,8.36-10.21,18.1-22.99,41.99-24.09,62.88h0Z"/>
  </g>
  <g>
    <path class="cls-2" d="M90.4,192.88s.6-77.73-89.8-87.68c0,0,49.01,29.42,58.05,46.22,9.04,16.8,30.89,55.99,31.18,81.53l.56-40.07Z"/>
    <path class="cls-8" d="M78.29,167.83c-1.09-6.14-1.65-12.37-1.66-18.61,1.1,6.14,1.65,12.37,1.66,18.61h0Z"/>
    <path class="cls-8" d="M73.35,160.21c-1.09-6.14-1.65-12.37-1.66-18.61,1.1,6.14,1.65,12.37,1.66,18.61h0Z"/>
    <path class="cls-8" d="M68.07,151.22c-1.09-6.14-1.65-12.37-1.66-18.61,1.1,6.14,1.65,12.37,1.66,18.61h0Z"/>
    <path class="cls-8" d="M83.48,181.06c.06-4.83.67-9.61,1.75-14.31,0,0,.03.05.03.05-.05-.07-.24.08-.15.2-.19-.19.21-.42.23-.23-.12,4.83-.72,9.6-1.86,14.3h0Z"/>
    <path class="cls-8" d="M86.12,189.69c.06-4.83.67-9.61,1.75-14.31,0,0,.03.05.03.05-.05-.07-.24.08-.15.2-.19-.19.21-.42.23-.23-.12,4.83-.72,9.6-1.86,14.3h0Z"/>
    <path class="cls-8" d="M81,174.34c.06-4.83.67-9.61,1.75-14.31,0,0,.03.05.03.05-.05-.07-.24.08-.15.2-.19-.19.21-.42.23-.23-.12,4.83-.72,9.6-1.86,14.3h0Z"/>
    <path class="cls-8" d="M87.85,200.72c.2-3.36.93-6.62,2.19-9.74-.19,3.36-.93,6.62-2.19,9.74h0Z"/>
    <path class="cls-8" d="M88.63,199.58c-2.91.06-5.75-.42-8.48-1.45,2.91-.06,5.75.43,8.48,1.45h0Z"/>
    <path class="cls-8" d="M87.02,193.35c-2.91.06-5.75-.42-8.48-1.45,2.91-.06,5.75.43,8.48,1.45h0Z"/>
    <path class="cls-8" d="M84.41,187.3c-2.91.06-5.75-.42-8.48-1.45,2.91-.06,5.75.43,8.48,1.45h0Z"/>
    <path class="cls-8" d="M82.78,181.17c-2.91.06-5.75-.42-8.48-1.45,2.91-.06,5.75.43,8.48,1.45h0Z"/>
    <path class="cls-8" d="M80.17,173.88c-2.91.06-5.75-.42-8.48-1.45,2.91-.06,5.75.43,8.48,1.45h0Z"/>
    <path class="cls-8" d="M77.68,166.58c-2.91.06-5.75-.42-8.48-1.45,2.91-.06,5.75.43,8.48,1.45h0Z"/>
    <path class="cls-8" d="M73.44,159.24c-2.91.06-5.75-.42-8.48-1.45,2.91-.06,5.75.43,8.48,1.45h0Z"/>
    <path class="cls-8" d="M69.2,152.52c-2.91.06-5.75-.42-8.48-1.45,2.91-.06,5.75.43,8.48,1.45h0Z"/>
    <path class="cls-8" d="M64.96,145.7c-2.91.06-5.75-.42-8.48-1.45,2.91-.06,5.75.43,8.48,1.45h0Z"/>
    <path class="cls-6" d="M88.63,218.93c1.8-20.36-4.93-37.79-13.33-56.42-9.28-20.59-34.65-40.36-53.24-48.86"/>
  </g>
  <g>
    <g>
      <g>
        <path class="cls-7" d="M67.22,18.34l.67,8.54c-.63,5.7-2.57,11.28-2.57,11.28-14.19,29.88-4.64,51.69-4.64,51.69,4.28,8.54,9.03,14.07,13.52,17.65.02.02.03.03.03.03h0c1.99,1.58,3.93,2.79,5.76,3.69,0,0,0,0,.01.01h0c3,1.48,5.67,2.18,7.74,2.49.29.04.57.08.84.11,2.71.46,5.64.04,8.59-1.11,3.28-.73,9.68-2.61,16.09-6.99,10.78-7.37,21.52-21.84,17.16-49.9,0,0-13.29-36.02-12.94-45.24,0,0-.67-4.34-3.48.12-.56.47-1.15,1.16-1.7,2.02-1.84-2.98-4.63-7.11-7.62-10.06-5.19-5.12.35,5.02-5.87,11.38-2.09-4.6-4.02-9.03-4.26-10.24-.55-2.74-2.64-.09-3.45,2.89-.28,1.04-2.29,3.66-4.78,6.62,0-.01-.01-.03-.02-.04.15-.84-1.54-8.11-.66-11.65.91-3.64-5.94,1.07-14.17,17.2,0,.02-.02.03-.03.05,0,.02-.02.04-.03.06-.05.1-.1.19-.15.29-2.49-2.41-5.83-5.21-4.03-.9ZM71.25,19.23h.01s0,0,0,0c0,0,0,0,0,0Z"/>
        <g>
          <path class="cls-3" d="M94.93,113.14c25.74-4.62,40.54-26.33,35.61-56.5-3.74-11.88-12.89-35.8-13.07-45.82-.03-.8-.37-1.96-1.24-2.11-.98.03-1.65,1.15-2.19,1.92-.12.19-1.25,1.56-1.24,1.62,1.28,2.28,2.4,2.64,1.68,5.33-1.82,6.17-5.57,14.74-6.41,20.47-.44,2.45-.76,5.72-.95,9.36-.58,11.83,4.76,26.89,2.13,40.17-1.99,9.41-8.79,22-17.17,26.32l2.84-.75Z"/>
          <path class="cls-3" d="M87.02,50.33s4.03,55.93.71,63.39"/>
          <path class="cls-3" d="M104.38,26c-1.14-2.39-8.02-16.83-9.66-21.57-.25-.62-.23-1.73-1.02-1.77-1.43.32-2.28,3.01-2.73,4.36-2.43,4.59-13.69,16.38-15.57,18.46"/>
          <path class="cls-3" d="M86.27,13.37c-.09-2.88-1.43-8.49-.68-11.55.1-.47.2-.75.04-1.13-2.94-1.26-10.96,11.62-14.38,18.55"/>
          <path class="cls-3" d="M114.49,16.52s-4.63-8.73-9.82-13.86c-5.19-5.12.35,5.02-5.87,11.38"/>
          <path class="cls-3" d="M115.57,15.46c3.05,18.08,12.54,35.86,9.73,60.68-1.25,11.59-3.25,19.99-12.05,29.59"/>
          <path class="cls-3" d="M103.53,110.78c16.45-27.26,15.11-53.18,11.54-63.07-1.57-6.93-2.88-18.98-1.82-25.01.22-1.23.35-1.97.53-2.86.16.22-6.51-9.04-7.85-13.1l-.06-.14c-.13.36-4.33,12.25-4.34,12.26"/>
          <path class="cls-3" d="M108.29,23.07c-4.51,6.13-13.07,16.24-14.98,24.41-.11.41-2.96,11.59-1.09,20.22,1.9,9.22.42,35.43-.13,46.19-1.3.18-5.7.39-11.95-2.58-8.02-3.7-15.44-13.02-19.42-21.36-4-10.78-4.16-22.98-1.11-35.95,1.32-5.39,3.26-10.71,5.65-15.77.84-2.42,1.39-4.51,2.02-7.54.82-4.13,1.28-9.1-.07-12.35-.27-.69-.59-1.5-.48-1.99.35-1.34,4.61,2.93,6.23,4.61.97.96.55.63,1.66,2.87,2.15,4.6,6.21,13.27,8.69,18.57,1.7,3.64,2.66,5.7,3.71,7.93-.01,0,8.91-21.13,17.17-24.26.17-.07.21-.09.23-.11.25-.26.51-.52.88-.86,7.85-7.01,4.94,4.73,3.68,8.87"/>
          <path class="cls-3" d="M71.25,19.24s5.4,15.46.13,31.84c-5.26,16.37-4.76,42.91,8.61,60.16"/>
          <path class="cls-3" d="M67.22,18.34c3.29,5.56,4.09,19.21,2.6,26.87-1.43,3.45-2.38,6.1-3.56,10.74-1.59,6.4-2.84,15.01-1.54,23.95.23,1.57.55,3.2.93,4.71,4.92,19.58,8.58,22.94,8.58,22.92"/>
          <path class="cls-3" d="M101.28,27.86s-9.21-12.96-8.1-18.48c.08-.42-11.95,22.06-16.01,19.89"/>
          <path class="cls-3" d="M83.64,16.42s-2.68-6.21-1.63-9.2l-8.41,14.4"/>
          <path class="cls-3" d="M92.68,11.62s-3.58,22.5-2.46,31.96"/>
        </g>
      </g>
      <path class="cls-4" d="M107.18,23.83c-.75-1.53-1.3-3.17-1.63-4.84-.12-.6-.51-1.77-.18-2.33.35-.59,1.16-.81,1.51-1.5.77-1.49.18-3.31-1.3-4.08s-3.31-.18-4.08,1.3-.18,3.31,1.3,4.08c.81.42,1.73.43,2.51.12"/>
      <circle class="cls-4" cx="84.91" cy="22.59" r="3.03"/>
      <g>
        <circle class="cls-4" cx="97.2" cy="23.05" r="3.03"/>
        <path class="cls-3" d="M96.85,26.32c-.52,2.17-.64,4.44-.35,6.66"/>
      </g>
      <g>
        <circle class="cls-4" cx="89.94" cy="32.27" r="3.03"/>
        <path class="cls-3" d="M87.58,34.64c-2.21,1.86-3.81,4.43-4.5,7.24"/>
      </g>
      <g>
        <circle class="cls-4" cx="86.99" cy="10.23" r="3.03"/>
        <path class="cls-3" d="M86.8,13.25c-.77,1.99-1.02,4.18-.72,6.3"/>
      </g>
      <g>
        <path class="cls-3" d="M76.26,19.33c1.33-.69,3.07-.48,4.21.49"/>
        <circle class="cls-4" cx="73.72" cy="19.88" r="3.03"/>
      </g>
    </g>
    <path class="cls-8" d="M117.14,20.56c.75,15.6,3.77,31.77,3.23,47.42-.6,15.65-5.24,32.47-17.68,42.84,2.96-2.64,5.5-5.71,7.59-9.06,15.29-24.41,7.26-54.26,6.86-81.21h0Z"/>
    <path class="cls-8" d="M111.68,25.54c-18.67,24.82,3.1,61.31-18.5,84.9-1.39,1.42-2.91,2.7-4.54,3.82,1.6-1.17,3.07-2.49,4.4-3.95,20.72-23.94-1.01-60.36,18.65-84.77h0Z"/>
    <path class="cls-8" d="M108.07,28.47c-14.63,21.47-5.36,49.01-12.78,72.61-1.09,3.4-2.52,6.69-4.37,9.73,1.73-3.11,3.04-6.43,3.99-9.84,6.81-23.63-2.39-51.47,13.16-72.49h0Z"/>
    <path class="cls-8" d="M76.48,24.65c12.23,24.26,4.19,51.99,5.76,77.84.21,3.74.62,7.47,1.33,11.16-.83-3.66-1.38-7.39-1.72-11.13-2.16-25.88,5.9-53.32-5.37-77.87h0Z"/>
    <path class="cls-8" d="M81.9,111.68c-11.34-10.4-6.22-27.07-5.61-40.47.77-10.55.74-21.16.03-31.71-.22-3.52-.52-7.04-.91-10.55.52,3.49.95,7,1.3,10.52,1,10.57,1.09,21.21.38,31.8-.63,13.37-5.98,29.69,4.81,40.42h0Z"/>
  </g>
  <g>
    <path class="cls-2" d="M53.96,97.32c-3.14,11.19-4.53,30.42,6.29,34.65,4.31,1.69,9.04,2.08,13.37,3.73,4.33,1.65,8.5,5.14,8.78,9.76,1.53-9.15-1.53-18.94-8-25.59-3.74-3.85-8.43-6.6-12.53-10.07-4.09-3.46-7.49-7.14-7.91-12.48"/>
    <path class="cls-3" d="M82.4,145.46c2.24,4.56,4.43,10.72,6.71,15.26"/>
    <path class="cls-1" d="M82.04,141.36c.3-3.46-2.26-6.57-5.2-8.41s-6.35-2.82-9.33-4.59c-4.34-2.58-7.65-6.84-9.06-11.68"/>
  </g>
</svg>