<?xml version="1.0" encoding="UTF-8"?>
<svg id="_왼쪽_위" data-name="왼쪽_위" xmlns="http://www.w3.org/2000/svg" version="1.1" viewBox="0 0 208.86 479.55">
  <defs>
    <style>
      .cls-1 {
        fill: #00d675;
      }

      .cls-1, .cls-2, .cls-3, .cls-4, .cls-5 {
        stroke-linecap: round;
        stroke-linejoin: round;
      }

      .cls-1, .cls-3, .cls-4, .cls-5 {
        stroke: #111114;
      }

      .cls-1, .cls-4 {
        stroke-width: 1.4px;
      }

      .cls-2 {
        stroke: #00b2ff;
        stroke-width: .73px;
      }

      .cls-2, .cls-3, .cls-4, .cls-5 {
        fill: none;
      }

      .cls-6 {
        fill: #ff97b5;
      }

      .cls-6, .cls-7, .cls-8 {
        stroke-width: 0px;
      }

      .cls-7 {
        fill: #00b2ff;
      }

      .cls-3 {
        stroke-width: 1.4px;
      }

      .cls-5 {
        stroke-width: 3.44px;
      }

      .cls-8 {
        fill: #111114;
      }
    </style>
  </defs>
  <path class="cls-1" d="M93.84,154.94l-1.23,79.44.85,244.47,10.77-4.86v-104.55s-3.49-185.69-1.05-201.04"/>
  <g>
    <path class="cls-1" d="M74.03,214.47s-21.34,14.85-43.88-8.5c0,0-17.72-28.23-29.45-34.04,0,0,10.46,1.63,23.23-1.86,12.78-3.49,41.47-1.97,51.93,12.66,10.46,14.64,5.05,23.56,2.35,29.78"/>
    <g>
      <path class="cls-8" d="M69.72,208.68c-8.35,1.2-16.78,1.78-25.22,1.7,8.35-1.21,16.78-1.77,25.22-1.7h0Z"/>
      <path class="cls-8" d="M64.35,202.5c-9.06,1.44-18.22,2.26-27.4,2.42,9.06-1.45,18.22-2.25,27.4-2.42h0Z"/>
      <path class="cls-8" d="M58.17,196.79c-8.63,1.33-17.36,2.04-26.1,2.1,8.63-1.34,17.36-2.03,26.1-2.1h0Z"/>
      <path class="cls-8" d="M50.95,192.05c-6.88.98-13.8,1.33-20.74,1.02,6.88-.99,13.8-1.32,20.74-1.02h0Z"/>
      <path class="cls-8" d="M43.59,188.38c-5.66.64-11.33.65-16.98,0,5.66-.65,11.33-.64,16.98,0h0Z"/>
      <path class="cls-8" d="M34.62,184.11c-4.26.88-8.56,1.12-12.89.71,4.26-.88,8.56-1.12,12.89-.71h0Z"/>
      <path class="cls-8" d="M25.86,180.21c-3.2.78-6.44.93-9.7.43,3.2-.79,6.44-.93,9.7-.43h0Z"/>
      <path class="cls-8" d="M73.49,206.03c.79-7.98.99-16.44-2.74-23.76,4.94,6.71,4.83,16.03,2.74,23.76h0Z"/>
      <path class="cls-8" d="M68.11,200.01c-.5-7.68-.91-15.67-4.56-22.61,4.82,6.31,5.37,14.98,4.56,22.61h0Z"/>
      <path class="cls-8" d="M60.67,194.15c-.26-6.98-.88-14.2-4.44-20.36,4.71,5.47,5.5,13.47,4.44,20.36h0Z"/>
      <path class="cls-8" d="M54.06,190.27c.32-6.27-1.26-12.46-4.45-17.85,4.32,4.66,6.11,11.7,4.45,17.85h0Z"/>
      <path class="cls-8" d="M48.46,187.49c-.81-5.55-1.63-11.3-4.86-16.03,4.32,3.93,5.38,10.45,4.86,16.03h0Z"/>
      <path class="cls-8" d="M42.72,184.83c-.55-4.45-1.66-8.67-4.14-12.41,3.55,2.89,4.94,8,4.14,12.41h0Z"/>
      <path class="cls-8" d="M36.04,181.99c-.02-3.8-1.27-7.33-3.27-10.52,3.08,2.35,4.61,6.83,3.27,10.52h0Z"/>
      <path class="cls-8" d="M28.72,179.29c-.08-2.72-1.08-4.91-2.86-6.88,2.7.86,4.21,4.35,2.86,6.88h0Z"/>
    </g>
    <path class="cls-1" d="M92.61,248.65s-17.86-44.52-41.66-56.6c-23.79-12.08-34.79-15.66-34.79-15.66,0,0,10.31-.17,37.9,13.88,5.1,2.6,9.83,5.87,14.05,9.74,7.31,6.71,18.6,25.09,24.5,36.8"/>
  </g>
  <g>
    <path class="cls-1" d="M110.58,218.06s-9.52-19.5,9.22-31.82c18.75-12.31,44.48-3.97,44.48-3.97,0,0,31.06,20.5,41.35,20.23,10.29-.27-13.83,5.98-19.85,8.74-7.54,3.44-35.45,33.88-74.06,10.69"/>
    <g>
      <path class="cls-8" d="M115.67,213.77c-2.81-8.42-1.02-19.13,6.69-24.34-.71.81-1.6,1.58-2.22,2.47-4.95,6.05-5.64,14.38-4.47,21.87h0Z"/>
      <path class="cls-8" d="M121.47,209.53c-2.15-7.95.81-16.79,6.64-22.45.84-.8,1.75-1.53,2.64-2.26-6.5,6.43-10.39,15.5-9.28,24.71h0Z"/>
      <path class="cls-8" d="M127.54,205.77c-.4-7.66,2.44-15.49,7.53-21.21.72-.82,1.55-1.55,2.35-2.29-5.59,6.62-9,14.89-9.88,23.5h0Z"/>
      <path class="cls-8" d="M133.19,202.85c-.17-7.12,3.52-13.96,8.48-18.87.74-.69,1.5-1.35,2.27-1.99-.63.79-1.32,1.51-1.93,2.3-4.37,5.35-7.8,11.66-8.82,18.56h0Z"/>
      <path class="cls-8" d="M139.42,200.23c.71-6.88,4.26-14.31,10.8-17.33-5.73,4.13-8.78,10.75-10.8,17.33h0Z"/>
      <path class="cls-8" d="M147.15,197.83c.09-5.56,4.22-10.34,8.91-12.9.7-.34,1.4-.67,2.11-.97-.61.48-1.26.89-1.86,1.35-4.2,3.14-7.88,7.3-9.16,12.51h0Z"/>
      <path class="cls-8" d="M152.62,196.8c-.81-5.96,5.25-10.23,10.53-11.1-.61.33-1.23.61-1.84.91-4.09,2.04-8.2,5.32-8.68,10.19h0Z"/>
      <path class="cls-8" d="M157.88,196.43c.42-4.58,5.16-7.57,9.4-8.04-3.8,1.8-7.66,3.96-9.4,8.04h0Z"/>
      <path class="cls-8" d="M163.15,196.43c.08-3.91,4.78-5.84,8.13-6.16-2.95,1.66-6.74,2.78-8.13,6.16h0Z"/>
      <path class="cls-8" d="M167.28,196.79c1.16-3.51,5.86-4.19,9.07-3.71-3.13.91-6.82,1.08-9.07,3.71h0Z"/>
      <path class="cls-8" d="M175.15,197.68c-1.21-1.2.71-2.57,1.83-2.74,1.36-.41,5.69-.24,1.91.5-1.17.4-4.1.47-3.74,2.24h0Z"/>
      <path class="cls-8" d="M116.79,217.27c8.39,6.97,19.52,10.25,30.35,8.96-1.34.25-2.69.59-4.06.7-9.59,1.01-19.67-2.63-26.3-9.66h0Z"/>
      <path class="cls-8" d="M121.91,213.23c7.72,7.04,18.5,9.26,28.55,10.73,1.47.18,2.95.32,4.42.53-1.49,0-2.97-.05-4.47-.07-10.16-.8-21.52-3.19-28.51-11.19h0Z"/>
      <path class="cls-8" d="M126.76,209.96c10.74,5.97,22.73,9.19,34.79,11.19-1.53-.09-3.07-.21-4.6-.36-10.64-1.35-21.37-4.59-30.19-10.83h0Z"/>
      <path class="cls-8" d="M131.97,207.01c10.16,4.83,20.81,8.85,31.87,11.01,1.57.38,3.18.53,4.77.84-12.94-.63-25.61-5.18-36.64-11.85h0Z"/>
      <path class="cls-8" d="M138.4,204.12c11.35,4.48,22.96,8.53,35.02,10.56-12.25-.77-24.18-4.92-35.02-10.56h0Z"/>
      <path class="cls-8" d="M145.64,201.81c10.46,3.21,20.75,6.99,31.36,9.69,0,0,2.14.47,2.14.47-5.85-.46-11.51-2.21-17.1-3.91-5.56-1.84-11.07-3.82-16.4-6.25h0Z"/>
      <path class="cls-8" d="M154.21,200.3c9.08,2.57,18.5,6.01,27.7,8.07.63.12,1.26.2,1.9.32-5.17-.05-10.21-1.57-15.14-2.99-4.92-1.54-9.77-3.28-14.47-5.39h0Z"/>
      <path class="cls-8" d="M166.35,200.23c5.84,1.37,12.15,3.36,17.9,5.13,1.75.5,4.19,1.37,5.97,1.66-4.16-.14-8.18-1.47-12.16-2.58-3.96-1.22-7.89-2.56-11.7-4.2h0Z"/>
      <path class="cls-8" d="M183.81,200.93c4.41.72,8.64,2.05,12.66,3.99-4.41-.71-8.64-2.05-12.66-3.99h0Z"/>
    </g>
    <path class="cls-1" d="M102.36,226.53s16.52-20.9,43.04-28.24c8.56-2.37,14.24-2.19,25.35-1.07s15.43,1.66,32.14,6.49c0,0-13.44-3.71-42.83-3.71-35.9,0-57.7,32.93-57.7,32.93"/>
  </g>
  <g>
    <path class="cls-6" d="M184.16,124.01c-.89-.59-2.03-1.8-2.74-4.29-1.4-4.93-8.42-12.36-8.42-12.36l-.1.24-.22-.36c3.34-1.94,4.65-4.3,6.43-6.01,3.36-3.23,2.07-4.52,2.07-4.52,0,0-1.62-1.07-3.49-2.58-4.88-3.96-9.94-5.68-9.94-5.68-11.23-5.29-30.85,0-30.85,0h0c-.02-1.56-.15-3.07-.36-4.5l.07-.04c26.33,7.22,36.66-9.24,36.66-9.24,0,0,4.96-5.82,2.59-6.68-2.37-.86-3.88-2.59-3.88-2.59-1.1-.83-2.23-1.54-3.38-2.13l-.02-.14c2.07-.54,5.3-10.11,7.92-14.4,2.68-4.4,3.18-7.33,1.34-6.47-1.83.85-7.81.86-7.81.86-8.91-.85-13.44.95-13.44.95l.02.04-.03-.02c1.78-11.85-.62-29.55-1.74-26.7-1.36,3.46-15.61,11.4-15.61,11.4.68-14.34-4.41-26.4-4.75-19.95-.25,4.77-6.63,9.06-9.93,10.97v-.02s.01,0,.01,0c-.87-9.25-5.89-15.61-6.04-16.42-.15-.81-2.94-3.53-3.38-1.32-.44,2.21-2.65,3.97-2.65,3.97-3.75,1.36-7.36,7.5-7.87,8.39l-.15.02c-.52-.61-.88-.9-.88-.9l-7.13-12.85-7.05,7.47c-4.1,5.25-6.07,11.04-6.75,16.73l-.1-.02c-1.82-7.07-10.9-13.63-13.45-14.81-2.58-1.19-1.65-1.74-3.11,6.05-1.23,6.61-.6,12.97-.38,14.75l-2.41,2.66c-10.6-6.39-19.45-5.13-21.24-5.13-1.92,0-4.4,0-3.94,1.83s1.1,5.41,1.1,5.41c2.02,12.05,6.95,18.55,8.08,19.91l-.09.23c-8.28-1.43-13.14.27-17.8.12-5.5-.18-5.32,2.11-3.67,4.49,1.65,2.38,3.12,5.59,3.12,5.59,1.99,3.12,4.25,5.75,6.67,7.98l-.09.06c-1.46-.31-10.82-1.89-18.82,6.17-5.03,5.06-6.73,6.01-3.86,8.79,1.44,1.39,11.43,5.83,19.06,5.14v-.07s.07.04.07.04c-1.39.88-2.8,1.84-4.21,2.92,0,0-9.98,5.67-2.91,9.42,7.08,3.75,12.74,8.28,24.77,6.44,8.56-1.31,15.51-6.29,18.81-9.06l.82.32c-5.04,2.69-18.34,10.74-19.62,21.4,0,0-2.34,7.01-1.59,13.71,0,0-.75,4.49,5.16,3.13,5.91-1.37,11.26-6.32,11.26-6.32l.08-.37.14.04c-.79,1.21-1.5,2.42-2.05,3.61-4.86,10.45-2.02,19.89-2.02,19.89,0,0-.46,7.92,5.41,3.05,5.86-4.87,12.63-4.49,19.6-12.23,0,0,5.05-6.32,8.18-14.79-.79,4.5-1.3,9.9-.85,15.53,0,0,1.54,11.07,10.4,17.62,0,0,2.12,2.12,2.12,2.89s1.44,2.79,3.66-1.64c2.21-4.43,8.28-8.8,7.51-21.68-.24-4.09-1.08-8.06-2.09-11.57h.02c1.61,4.82,4.2,10.05,8.36,14.12,10.41,10.17,10.98,11.59,10.98,11.59,0,0,2.86,3.8,4.15-1.36,1.29-5.16,3.15-14.06,1.36-22.44-.69-3.23-2.48-6.69-4.74-9.93,3.41,3.58,7.45,6.83,11.77,8.22,11.87,3.83,20.47,0,20.47,0,0,0,5.06-.2.89-4.64-1.18-1.25-2.04-3.16-2.93-5.34,10.37,1.52,16.69-.31,19.33-1.39.52-.21.6-.92.13-1.23ZM164.7,126.62c-.03-.07-.06-.14-.09-.21l.21-.07-.12.28Z"/>
    <g>
      <g>
        <path class="cls-8" d="M93.73,55.2c-4.44-11.65-7.83-25.79-4.58-38.11-.22,1.61-.49,3.19-.52,4.81-.53,11.29,2.19,22.46,5.1,33.3h0Z"/>
        <path class="cls-8" d="M96.86,54.63c-1.67-9.55-2.73-19.16-3.13-28.84,1.68,9.52,2.72,19.19,3.13,28.84h0Z"/>
        <path class="cls-8" d="M101.32,54.02c.19-4.88.5-11.69.61-16.5-.04-5.42.58-11.1-1.18-16.31,2.46,5,2.06,10.9,2.12,16.33-.16,5.52-.63,11.03-1.54,16.47h0Z"/>
        <path class="cls-8" d="M110.25,54.63c1.06-9.91,3.38-20.78,10.95-27.84-6.53,7.88-8.61,18.14-10.95,27.84h0Z"/>
        <path class="cls-8" d="M114.57,55.94c1.69-7.61,4.65-14.89,7.92-21.95-2.05,7.52-5.02,14.74-7.92,21.95h0Z"/>
        <path class="cls-8" d="M118.53,57.8c5.3-9.32,10.37-19.04,12.65-29.59.38-1.5.51-3.03.75-4.56-.2,12.38-6.34,24.27-13.4,34.15h0Z"/>
        <path class="cls-8" d="M125.77,63.19c6.5-7.81,12.46-16.3,16.15-25.82.6-1.34.95-2.75,1.46-4.13-2.24,11.57-9.21,21.89-17.61,29.96h0Z"/>
        <path class="cls-8" d="M128.01,65.47c6.38-7.33,13.24-14.49,18.05-22.99.27-.59.56-1.17.86-1.76-1.52,5.04-4.72,9.42-7.96,13.49-3.32,4.05-6.96,7.85-10.94,11.25h0Z"/>
        <path class="cls-8" d="M129.23,66.86c10.8-6.49,21.68-16.04,23.3-29.24-.02,1.63-.21,3.26-.56,4.87-2.81,11.29-12.54,19.63-22.74,24.37h0Z"/>
        <path class="cls-8" d="M134.01,74.78c6.45-5.85,15.38-11.15,24.39-9.31-9.03-.49-17.13,4.51-24.39,9.31h0Z"/>
        <path class="cls-8" d="M135.21,78.1c6.04-3.28,12.34-5.99,18.89-8.09-6.04,3.29-12.34,5.98-18.89,8.09h0Z"/>
        <path class="cls-8" d="M136,81c9.25-2.19,18.85-3.32,27.69-6.94-.51.31-1.01.64-1.54.93-8.13,3.86-17.25,5.26-26.14,6.02h0Z"/>
        <path class="cls-8" d="M136.33,82.6c7.59.04,15.18-.03,22.64-1.6-7.12,2.83-15.17,2.93-22.64,1.6h0Z"/>
        <path class="cls-8" d="M136.71,92.47c8.47-3.48,18.25-3.6,26.98-.97-8.97-1.35-18.16-1.26-26.98.97h0Z"/>
        <path class="cls-8" d="M136.33,94.93c7.35-.64,14.71-.65,22.07,0-7.35.65-14.71.64-22.07,0h0Z"/>
        <path class="cls-8" d="M135.59,97.94c10.45,1.39,21.01,3.06,31.57,2.65-10.51,1.7-21.36,0-31.57-2.65h0Z"/>
        <path class="cls-8" d="M134.94,99.9c6.23,2.37,12.5,4.73,19.16,5.47-6.74.57-13.52-1.94-19.16-5.47h0Z"/>
        <path class="cls-8" d="M130.7,107.91c3.89,1.02,7.67,2.37,11.38,3.9,2.77,1.18,5.54,2.42,8.08,4.06.81.58,1.73,1.13,2.26,2-1.44-1.37-3.42-2-5.19-2.86-5.5-2.4-11.08-4.54-16.53-7.1h0Z"/>
        <path class="cls-8" d="M129.31,109.77c5.43,2.37,10.56,5.3,15.35,8.78-5.44-2.37-10.56-5.3-15.35-8.78h0Z"/>
        <path class="cls-8" d="M127.56,111.84c3.34,2.39,7.98,6.09,11.27,8.65,3.32,2.5,7.75,6.46,11.37,8.41-4.46-1.69-8.18-4.85-11.95-7.68-3.71-2.96-7.31-6.04-10.69-9.38h0Z"/>
        <path class="cls-8" d="M125.85,113.63c5.5,4.98,10.45,10.99,16.21,15.66-3.42-1.67-6.15-4.44-8.84-7.07-2.63-2.71-5.15-5.53-7.37-8.6h0Z"/>
        <path class="cls-8" d="M120.67,118.19c2.61,2.37,4.96,5,7.17,7.74,2.06,2.79,4.51,5.64,5.24,9.13-1.39-3.21-3.9-5.77-5.97-8.55-2.16-2.75-4.37-5.46-6.44-8.32h0Z"/>
        <path class="cls-8" d="M118.62,119.72c4.88,7.31,9.23,14.96,12.99,22.89-4.88-7.3-9.22-14.96-12.99-22.89h0Z"/>
        <path class="cls-8" d="M116.84,120.96c2.53,4.86,4.47,9.96,5.79,15.27-2.53-4.86-4.46-9.96-5.79-15.27h0Z"/>
        <path class="cls-8" d="M114.13,122.06c1.37,3.69,2.63,7.38,3.99,11.04,1.35,3.35,2.48,6.93,4.71,9.81,0,0,.48.56.48.56-3.16-2.45-4.59-6.46-6.07-10.04-1.35-3.7-2.45-7.48-3.12-11.36h0Z"/>
        <path class="cls-8" d="M98.81,123.83c-.8,7.53-2.39,14.9-2.76,22.46-.94-7.54.7-15.22,2.76-22.46h0Z"/>
        <path class="cls-8" d="M101.24,124.01c.25,9.13-.14,18.28-1.17,27.36-.25-9.13.14-18.28,1.17-27.36h0Z"/>
        <path class="cls-8" d="M104.23,124.04c.95,7.78,1.26,15.59.92,23.43-.95-7.78-1.25-15.59-.92-23.43h0Z"/>
        <path class="cls-8" d="M107.1,123.73c2.24,9.11,4.17,18.62,3.32,28.03-.42-9.26-2.35-18.82-3.32-28.03h0Z"/>
        <path class="cls-8" d="M85.11,118.86c-4.63,5.53-11.9,12.88-16.95,18.15,4.77-6.81,10.66-12.74,16.95-18.15h0Z"/>
        <path class="cls-8" d="M87.68,120.37c-6.13,9.4-12.78,18.45-19.94,27.09,6.12-9.4,12.79-18.45,19.94-27.09h0Z"/>
        <path class="cls-8" d="M91.42,122.06c-2.03,4.67-4.46,9.16-7.12,13.5-2.73,4.27-5.56,8.67-9.53,11.9,3.44-3.74,6.03-8.12,8.73-12.4,2.35-3.82,5.6-9.24,7.91-13.01h0Z"/>
        <path class="cls-8" d="M93.95,122.88c-.93,3.7-2.23,7.27-3.7,10.78-1.57,3.44-3.09,7.08-5.81,9.8,3.97-6.46,6.16-13.78,9.51-20.58h0Z"/>
        <path class="cls-8" d="M87.3,57.8c-3.44-5.78-6.38-11.84-9.08-18-2.38-6.2-5.37-12.63-5.1-19.42,0,0,.1,1.26.1,1.26.82,6.21,3.53,12.02,5.86,17.8,2.24,5.39,5.78,12.97,8.22,18.37h0Z"/>
        <path class="cls-8" d="M85.14,58.85c-2.26-4.2-5.38-10.07-7.66-14.17-2.5-4.31-4.82-8.88-8.2-12.57,0,0-.71-.72-.71-.72,4.33,3.28,7.01,8.24,9.72,12.84,2.58,4.73,4.93,9.59,6.84,14.63h0Z"/>
        <path class="cls-8" d="M79.35,62.32c-5.31-8.83-10.43-18.22-18.38-24.97-.57-.39-1.14-.79-1.71-1.2,9.21,4.7,16.03,16.95,20.09,26.17h0Z"/>
        <path class="cls-8" d="M72.58,69.17c-1.79-1.76-4.95-3.77-6.96-5.34-6.91-5.34-14.38-10.53-19.36-17.84,5.54,6.39,13.31,11.85,19.8,17.28,1.93,1.69,4.99,3.87,6.52,5.9h0Z"/>
        <path class="cls-8" d="M74.34,66.86c-7.51-6.18-14.62-12.85-21.25-19.96,7.51,6.18,14.61,12.85,21.25,19.96h0Z"/>
        <path class="cls-8" d="M76.45,64.5c-6.28-8.57-12.38-17.59-20.79-24.21-.59-.39-1.19-.78-1.78-1.19,9.63,4.78,17.39,16.22,22.57,25.41h0Z"/>
        <path class="cls-8" d="M70.12,73.31c-5.94-4.7-12.4-8.84-19.38-11.81-.98-.48-2.02-.8-3.02-1.25,8.55,1.87,16.45,6.68,22.4,13.06h0Z"/>
        <path class="cls-8" d="M68.92,76.01c-5.92-2.49-11.54-5.54-16.85-9.15,5.92,2.48,11.54,5.54,16.85,9.15h0Z"/>
        <path class="cls-8" d="M67.95,78.97c-8.36-2.67-16.52-5.94-24.4-9.8,8.36,2.67,16.52,5.95,24.4,9.8h0Z"/>
        <path class="cls-8" d="M67.3,81.99c-7.16.7-14.45-1.89-20.27-5.98,6.45,2.93,13.17,5.37,20.27,5.98h0Z"/>
        <path class="cls-8" d="M66.89,90.1c-8.26.02-16.7.68-24.52,3.5-1.14.34-2.19.9-3.31,1.33,8.16-5.12,18.44-6.11,27.83-4.83h0Z"/>
        <path class="cls-8" d="M67.48,93.13c-9.55,1.7-19.86,3.01-29.06,6.05-1.34.46-2.61,1.06-3.85,1.75,4.63-3.4,10.48-4.55,15.98-5.78,5.59-1.07,11.24-1.8,16.93-2.03h0Z"/>
        <path class="cls-8" d="M68.17,96.06c-8.45,3.84-17.43,7.15-26.75,7.85,8.91-1.92,18.01-5.25,26.75-7.85h0Z"/>
        <path class="cls-8" d="M69.47,99.9c-7.74,4.62-19.92,10.62-29.06,9.05.65,0,1.29.01,1.92.03,9.58-.96,18.38-5.38,27.14-9.09h0Z"/>
        <path class="cls-8" d="M73.14,106.58c-5.89,3.65-11.78,7.53-15.98,13.14,3.11-6.37,9.52-10.67,15.98-13.14h0Z"/>
        <path class="cls-8" d="M75.44,109.77c-6.88,6.17-14.14,12.23-19.5,19.82-.32.53-.66,1.05-1,1.58,1.94-4.63,5.36-8.49,8.87-12.01,3.57-3.49,7.45-6.67,11.63-9.39h0Z"/>
        <path class="cls-8" d="M78.47,113.29c-4.37,4.33-8.74,8.5-13.31,12.61,3.6-4.98,8.14-9.29,13.31-12.61h0Z"/>
        <path class="cls-8" d="M112.41,10.52c-1.39,1.54-1.46,3.84-1.82,5.8-.78,6.15-.89,12.38-.95,18.57,0,0-.9-.14-.9-.14,2.09-6.33,4.13-12.73,7.18-18.67.44-.81.94-1.7,1.64-2.33-.63.69-1.04,1.61-1.43,2.44-2.57,6.13-4.5,12.51-6.51,18.84-.07.24-.33.38-.57.31-.2-.06-.33-.25-.33-.44,0-2.08.08-4.16.16-6.24.17-4.16.5-8.31,1.24-12.41.5-1.95.72-4.3,2.28-5.73h0Z"/>
        <path class="cls-8" d="M164.31,46.87c-1.6,3.41-4.19,6.28-7.09,8.66-2.95,2.37-6.21,4.29-9.68,5.81-.56.24-.93-.61-.37-.86,7.04-2.73,14.18-5.55,21.7-6.59-7.33,1.78-14.34,4.65-21.32,7.45,0,0-.35-.86-.35-.86,6.71-2.92,13.23-7.24,17.12-13.6h0Z"/>
        <path class="cls-8" d="M154.39,110.68c3.13.86,6.18,1.85,9.26,2.76,3.07.82,6.13,1.97,9.36,1.86-3.18.86-6.53-.16-9.62-.96-3.1-.95-6.13-2.11-8.99-3.65h0Z"/>
        <path class="cls-8" d="M155.53,111.13c4.49,2.09,8.74,4.72,12.52,7.94,1.18,1.11,2.6,2.26,3.08,3.88-.82-1.43-2.28-2.3-3.54-3.31-3.97-2.91-8.11-5.52-12.06-8.51h0Z"/>
        <path class="cls-8" d="M54.79,84.37c-9.23-1.52-18.89-3.57-28.23-3.69-.63.03-1.27.05-1.9.07,5.02-.99,10.23-.48,15.25.21,5.04.76,10.03,1.85,14.89,3.41h0Z"/>
        <path class="cls-8" d="M55.75,84.62c-4.26.59-8.54.96-12.82,1.36-3.41.35-8.66.62-11.96,1.34,0,0-.76.27-.76.27,3.9-1.88,8.4-2.01,12.64-2.54,4.29-.36,8.59-.56,12.9-.42h0Z"/>
      </g>
      <g>
        <path class="cls-7" d="M76.05,64.07c2.06-1.93,1.87-1.41,4.77-3.24,1.38-.88,3.27-1.5,5.15-2.43,1.59-.78,3.38-1.45,5.24-2.11,1.71-.61,3.63-.67,5.53-1.07,1.8-.37,3.56-1.42,5.49-1.51s3.7.58,5.62.85c1.81.25,3.84-.06,5.69.57,1.71.58,3.13,2.07,4.85,3.04,1.56.88,2.88,2.17,4.43,3.41,1.4,1.12,3.63,1.47,5,2.91,1.23,1.3,2.02,3.15,3.22,4.74,1.61,2.21,1.41,1.71,2.74,4.74.64,1.45,1.67,3.1,2.23,5.06.46,1.64-.05,3.64.19,5.56.22,1.73.43,3.5.36,5.4-.06,1.75.56,3.7.17,5.56-.36,1.71-1.05,3.5-1.76,5.27-.64,1.62-1.5,3.3-2.48,4.95-.89,1.49-2.03,2.97-3.24,4.47-1.09,1.35-2.26,2.8-3.64,4.14-1.24,1.21-2.73,2.34-4.22,3.53-1.36,1.09-3.11,1.77-4.7,2.83-2.35,1.37-1.86,1.07-5.03,1.92-1.52.41-3.32.68-5.33.91-1.68.19-3.49.61-5.41.52-1.72-.08-3.67.2-5.52-.21-1.69-.38-3.11-1.97-4.86-2.7-1.59-.66-3.03-1.63-4.64-2.64-1.46-.92-3.16-1.56-4.6-2.81-1.3-1.13-2.56-2.4-3.82-3.84-1.14-1.29-2.58-2.47-3.68-4.03-.99-1.41-1.28-3.37-2.23-5.02-1.33-2.25-1.49-1.52-2.54-4.5-.5-1.43-.69-3.17-1.06-5.09-.31-1.59-.7-3.27-.76-5.12-.06-1.66.44-3.31.68-5.12.22-1.65-.36-3.54.19-5.27.5-1.59,1.24-3.22,2.08-4.84.76-1.47,2.22-2.6,3.3-4.08.98-1.34,1.31-3.4,2.59-4.72Z"/>
        <path class="cls-3" d="M76.05,64.07c2.06-1.93,1.87-1.41,4.77-3.24,1.38-.88,3.27-1.5,5.15-2.43,1.59-.78,3.38-1.45,5.24-2.11,1.71-.61,3.63-.67,5.53-1.07,1.8-.37,3.56-1.42,5.49-1.51s3.7.58,5.62.85c1.81.25,3.84-.06,5.69.57,1.71.58,3.13,2.07,4.85,3.04,1.56.88,2.88,2.17,4.43,3.41,1.4,1.12,3.63,1.47,5,2.91,1.23,1.3,2.02,3.15,3.22,4.74,1.61,2.21,1.41,1.71,2.74,4.74.64,1.45,1.67,3.1,2.23,5.06.46,1.64-.05,3.64.19,5.56.22,1.73.43,3.5.36,5.4-.06,1.75.56,3.7.17,5.56-.36,1.71-1.05,3.5-1.76,5.27-.64,1.62-1.5,3.3-2.48,4.95-.89,1.49-2.03,2.97-3.24,4.47-1.09,1.35-2.26,2.8-3.64,4.14-1.24,1.21-2.73,2.34-4.22,3.53-1.36,1.09-3.11,1.77-4.7,2.83-2.35,1.37-1.86,1.07-5.03,1.92-1.52.41-3.32.68-5.33.91-1.68.19-3.49.61-5.41.52-1.72-.08-3.67.2-5.52-.21-1.69-.38-3.11-1.97-4.86-2.7-1.59-.66-3.03-1.63-4.64-2.64-1.46-.92-3.16-1.56-4.6-2.81-1.3-1.13-2.56-2.4-3.82-3.84-1.14-1.29-2.58-2.47-3.68-4.03-.99-1.41-1.28-3.37-2.23-5.02-1.33-2.25-1.49-1.52-2.54-4.5-.5-1.43-.69-3.17-1.06-5.09-.31-1.59-.7-3.27-.76-5.12-.06-1.66.44-3.31.68-5.12.22-1.65-.36-3.54.19-5.27.5-1.59,1.24-3.22,2.08-4.84.76-1.47,2.22-2.6,3.3-4.08.98-1.34,1.31-3.4,2.59-4.72Z"/>
      </g>
      <g>
        <path class="cls-8" d="M88.78,76.38c1.08-1.01.54-1.23,2.05-2.19.72-.46,1.75-.73,2.73-1.22.83-.41,1.72-.9,2.69-1.25.9-.32,1.84-.75,2.84-.96.94-.2,1.99.13,3,.08s1.96-.29,2.96-.15c.95.13,1.83.65,2.8.98.89.3,1.78.67,2.68,1.18.82.46,1.89.66,2.7,1.3.73.58,1.4,1.35,2.12,2.11.64.68,1.23,1.49,1.86,2.32.84,1.16.62.97,1.32,2.55.33.76.39,1.75.68,2.78.24.86.88,1.7,1.01,2.71.12.9-.37,1.87-.41,2.87-.03.91.23,1.88.02,2.85-.19.89-.42,1.83-.79,2.75-.34.84-.76,1.71-1.27,2.57-.46.78-.98,1.6-1.61,2.38-.57.71-1.2,1.44-1.92,2.14-.65.63-1.36,1.29-2.15,1.91-.71.57-1.5,1.14-2.33,1.7-1.23.71-1.07.41-2.73.86-.79.21-1.72.62-2.77.74-.88.1-1.87.2-2.88.15-.9-.04-1.84-.39-2.81-.61-.88-.2-1.76-.57-2.67-.95-.83-.35-1.56-.95-2.4-1.48-.76-.48-1.89-.57-2.64-1.22-.68-.59-.87-1.74-1.54-2.49-.6-.67-1.61-1.07-2.18-1.89-.52-.74-.58-1.82-1.08-2.68-.69-1.18-1.1-.67-1.65-2.23-.26-.75.05-1.79-.14-2.79-.16-.83-.62-1.68-.65-2.65-.03-.87.21-1.76.34-2.7.11-.86.12-1.78.4-2.69.26-.83.46-1.75.9-2.6.4-.77.81-1.63,1.38-2.4.51-.7,1.47-1.07,2.14-1.76Z"/>
        <path class="cls-2" d="M88.78,76.38c1.08-1.01.54-1.23,2.05-2.19.72-.46,1.75-.73,2.73-1.22.83-.41,1.72-.9,2.69-1.25.9-.32,1.84-.75,2.84-.96.94-.2,1.99.13,3,.08s1.96-.29,2.96-.15c.95.13,1.83.65,2.8.98.89.3,1.78.67,2.68,1.18.82.46,1.89.66,2.7,1.3.73.58,1.4,1.35,2.12,2.11.64.68,1.23,1.49,1.86,2.32.84,1.16.62.97,1.32,2.55.33.76.39,1.75.68,2.78.24.86.88,1.7,1.01,2.71.12.9-.37,1.87-.41,2.87-.03.91.23,1.88.02,2.85-.19.89-.42,1.83-.79,2.75-.34.84-.76,1.71-1.27,2.57-.46.78-.98,1.6-1.61,2.38-.57.71-1.2,1.44-1.92,2.14-.65.63-1.36,1.29-2.15,1.91-.71.57-1.5,1.14-2.33,1.7-1.23.71-1.07.41-2.73.86-.79.21-1.72.62-2.77.74-.88.1-1.87.2-2.88.15-.9-.04-1.84-.39-2.81-.61-.88-.2-1.76-.57-2.67-.95-.83-.35-1.56-.95-2.4-1.48-.76-.48-1.89-.57-2.64-1.22-.68-.59-.87-1.74-1.54-2.49-.6-.67-1.61-1.07-2.18-1.89-.52-.74-.58-1.82-1.08-2.68-.69-1.18-1.1-.67-1.65-2.23-.26-.75.05-1.79-.14-2.79-.16-.83-.62-1.68-.65-2.65-.03-.87.21-1.76.34-2.7.11-.86.12-1.78.4-2.69.26-.83.46-1.75.9-2.6.4-.77.81-1.63,1.38-2.4.51-.7,1.47-1.07,2.14-1.76Z"/>
      </g>
      <path class="cls-5" d="M85.69,73.38c1.31-1.23.94-1.19,2.78-2.35.88-.56,2.28-.57,3.47-1.16,1.01-.5,1.88-1.54,3.07-1.96,1.09-.39,2.33-.56,3.53-.81,1.14-.24,2.38.12,3.6.07s2.36-.48,3.58-.31c1.15.16,2.19.85,3.36,1.25,1.09.37,2.19.7,3.28,1.32.99.56,2.35.71,3.34,1.5.89.71,1.66,1.7,2.53,2.61.78.82,1.71,1.66,2.47,2.67,1.02,1.41.8,1.21,1.65,3.14.4.92.35,2.21.7,3.45.29,1.04.28,2.19.44,3.41.14,1.1,1.02,2.22.97,3.43-.04,1.11-.57,2.25-.82,3.43-.23,1.09-.84,2.08-1.29,3.21-.41,1.03-.28,2.39-.9,3.43-.56.95-1.33,1.88-2.09,2.83-.69.86-1.52,1.71-2.4,2.56-.79.77-1.9,1.27-2.85,2.03-.86.69-1.64,1.62-2.65,2.29-1.49.87-1.42.11-3.43.65-.96.26-1.97,1.26-3.25,1.41-1.06.12-2.27-.18-3.5-.23-1.09-.05-2.31.06-3.49-.2-1.07-.24-2.11-.89-3.22-1.35-1.01-.42-1.81-1.3-2.84-1.95-.92-.58-2.19-.77-3.11-1.57-.82-.72-1.64-1.56-2.44-2.47-.72-.82-1.66-1.59-2.36-2.58-.63-.9-.72-2.22-1.32-3.27-.84-1.43-1.16-.92-1.82-2.81-.32-.91-.56-2.05-.8-3.26-.2-1.01-.42-2.15-.46-3.32-.04-1.05,0-2.22.15-3.36.14-1.05.27-2.22.62-3.33.32-1.01,1.32-1.81,1.85-2.85.48-.94,1.1-1.81,1.79-2.75.62-.85,1.04-1.94,1.85-2.78Z"/>
      <path class="cls-4" d="M89.42,56.89s-15.87-28.35,0-48.72l7.05-7.47,7.13,12.85s12.56,10.1,0,40.37"/>
      <path class="cls-4" d="M107,53.93s-1.36-25.1,15.61-33.05c0,0,11.54-5.58,11.88-12.03.34-6.45,5.43,5.61,4.75,19.95-.68,14.34-16.11,32.11-16.11,32.11"/>
      <path class="cls-4" d="M139.24,28.8s14.26-7.94,15.61-11.4,4.6,23.29,0,33.21c-6.45,13.9-23.76,18.57-23.76,18.57"/>
      <path class="cls-4" d="M144.92,62.28s15.44-5.71,27.07,3.12c0,0,1.51,1.72,3.88,2.59s-2.59,6.68-2.59,6.68c0,0-10.35,16.5-36.75,9.22"/>
      <path class="cls-4" d="M136.91,88.45s19.62-5.29,30.85,0c0,0,5.06,1.72,9.94,5.68,1.86,1.51,3.49,2.58,3.49,2.58,0,0,1.29,1.29-2.07,4.52-3.36,3.23-5.03,8.78-21.88,9.42-16.85.65-23.23-8.49-23.23-8.49"/>
      <path class="cls-4" d="M124.55,114.89s9.84,17.88,21.71,21.71c11.87,3.83,20.47,0,20.47,0,0,0,5.06-.2.89-4.64-4.17-4.44-4.39-16.91-15.72-21.44,0,0-15.73-4.06-20.03-4.4"/>
      <path class="cls-4" d="M111.73,122.79s.6,17.54,11.01,27.71c10.41,10.17,10.98,11.59,10.98,11.59,0,0,2.86,3.8,4.15-1.36,1.29-5.16,3.15-14.06,1.36-22.44-1.79-8.38-10.99-18.39-16.63-21.68"/>
      <path class="cls-4" d="M96.73,123.52s-5.1,12.91-3.95,27.26c0,0,1.54,11.07,10.4,17.62,0,0,2.12,2.12,2.12,2.89s1.44,2.79,3.66-1.64c2.21-4.43,8.28-8.8,7.51-21.68-.77-12.88-7.31-24.58-7.31-24.58"/>
      <path class="cls-4" d="M82.78,117.2s-15.46,11.68-20.32,22.12c-4.86,10.45-2.02,19.89-2.02,19.89,0,0-.46,7.92,5.41,3.05,5.86-4.87,12.63-4.49,19.6-12.23,0,0,10.36-12.95,10.61-26.64"/>
      <path class="cls-4" d="M71.01,103.15s-19.96,9.2-21.56,22.37c0,0-2.34,7.01-1.59,13.71,0,0-.75,4.49,5.16,3.13s11.26-6.32,11.26-6.32"/>
      <path class="cls-4" d="M66.9,87.23s-18.99-5.69-39.3,9.77c0,0-9.98,5.67-2.91,9.42,7.08,3.75,12.74,8.28,24.77,6.44s20.91-10.95,20.91-10.95"/>
      <path class="cls-4" d="M66.9,86.21s-25.11.22-38.12-20.22c0,0-1.47-3.21-3.12-5.59s-1.83-4.67,3.67-4.49,11.27-2.24,22.64.99c11.36,3.23,19.4,14.15,19.4,14.15"/>
      <path class="cls-4" d="M47.46,55.83s-6.03-6.53-8.32-20.19c0,0-.64-3.57-1.1-5.41-.46-1.83,2.02-1.83,3.94-1.83s12.01-1.47,23.65,6.69c11.64,8.16,16.74,25.8,16.74,25.8"/>
      <path class="cls-4" d="M65.7,31.38s-1.14-7.47.32-15.26c1.45-7.79.53-7.24,3.11-6.05s11.84,7.87,13.52,15.03"/>
      <path class="cls-4" d="M104.57,14.56s3.89-7.04,7.93-8.51c0,0,2.21-1.76,2.65-3.97.44-2.21,3.24.51,3.38,1.32s5.17,7.17,6.04,16.42"/>
      <path class="cls-4" d="M156.6,44.08s4.52-1.79,13.44-.95c0,0,5.98,0,7.81-.86,1.83-.85,1.34,2.08-1.34,6.47-2.68,4.4-6.02,14.36-8.08,14.45"/>
      <path class="cls-4" d="M173.01,107.37s7.02,7.42,8.42,12.36c.7,2.49,1.85,3.7,2.74,4.29.47.31.39,1.02-.13,1.23-2.63,1.08-8.96,2.91-19.33,1.39"/>
      <path class="cls-4" d="M35.57,74.07s-10.32-2.64-19.03,6.12c-5.03,5.06-6.73,6.01-3.86,8.79,1.44,1.39,11.43,5.83,19.06,5.14"/>
    </g>
  </g>
</svg>