<?xml version="1.0" encoding="UTF-8"?>
<svg id="_왼쪽_위" data-name="왼쪽_위" xmlns="http://www.w3.org/2000/svg" version="1.1" viewBox="0 0 86.06 85.44">
  <defs>
    <style>
      .cls-1 {
        fill: #ff97b5;
      }

      .cls-1, .cls-2 {
        stroke-width: 0px;
      }

      .cls-3 {
        fill: none;
      }

      .cls-3, .cls-4 {
        stroke: #111114;
        stroke-linecap: round;
        stroke-linejoin: round;
        stroke-width: 1.2px;
      }

      .cls-2 {
        fill: #111114;
      }

      .cls-4 {
        fill: #ffec2d;
      }
    </style>
  </defs>
  <path class="cls-1" d="M81.27,42.53h0c1.86-1.59,3.07-4.13,3.12-8.02.21-17.99-9.02-14.24-9.02-14.24h0c2.61-3.53,2.36-7.86-4.65-12.84-7.13-5.06-11.84-3.98-14.95-.52l-.04-.03c-1.8-11.07-21.1-4.15-21.1-4.15-18.91-.41-14.35,11.01-13.87,12.11l-.03.04c-3.13-2.02-6.9-2.13-11.08,2.35C-2.33,30.03,3.83,41.08,3.83,41.08h0c-6.76,4.91-.83,17.38-.83,17.38.21,12.58,15.38,7.5,15.38,7.5-2.56,8.76,2.78,11.1,14.09,16.73,11.32,5.63,15.07-1.53,15.07-1.53v-.02c2.13,1.49,5.3,2.05,9.92,1.05,21.78-4.7,13.12-16.55,13.12-16.55h-.01c7.36,2.04,11.47-5.8,13.81-12.24,3.63-10-3.11-10.86-3.11-10.86ZM6.93,39.66h0s-.01,0-.02,0h.02ZM69.1,65.12v-.02c.11.04.21.08.31.12l-.31-.1Z"/>
  <g>
    <path class="cls-4" d="M45.94,26.87s1.71-2.78,3.84,0,6.41,3.63,6.41,3.63l1.07,4.01s-.64,1.97,0,2.61,1.97,4.48,1.97,4.48l-1.33,3.04s.64,5.01-.21,4.94.85-1.79-.85-.08c-1.71,1.71.21.43-1.71,1.71s-3.2.72-4.06,2.18-1.71,2.1-2.35,2.31-2.78,1.49-2.78,1.49h-3.2s-.43-1.07-2.35-1.07h-4.7c-.85,0-2.56-.21-2.56-.21l-1.92-1.07s-2.14-.77-2.35-1.46,0-3.81,0-3.81c0,0,.45-.93-.09-1.79s-1.4-3.15-1.4-3.15c-.21-3.04,0-4.32,0-4.32,0,0-1.9-2.87-.09-5.81,1.8-2.94-.33-4.44,2.87-5.5,3.2-1.07,5.55-4.82,7.26-3.37,1.71,1.45,2.14-1.68,4.06-.33,1.92,1.35,4.48,1.56,4.48,1.56Z"/>
    <g>
      <path class="cls-3" d="M49.78,26.87s1.07-33.53,20.93-19.43c19.86,14.1-14.52,23.06-14.52,23.06"/>
      <path class="cls-3" d="M75.36,20.27s9.23-3.75,9.02,14.24c-.21,17.99-25.15,7.1-25.15,7.1"/>
      <path class="cls-3" d="M81.27,42.53s6.75.86,3.11,10.86c-3.63,10-11.54,23.4-29.26-2.18"/>
      <path class="cls-3" d="M70.59,65.63s8.66,11.85-13.12,16.55c-21.78,4.7-11.53-24.99-11.53-24.99"/>
      <path class="cls-3" d="M47.55,81.15s-3.75,7.16-15.07,1.53c-11.32-5.63-16.66-7.96-14.1-16.73s10.46-12.57,10.46-12.57"/>
      <path class="cls-3" d="M18.39,65.96s-15.16,5.08-15.38-7.5c0,0-8.33-17.49,5.98-19.2,14.31-1.71,18.37,1.07,18.37,1.07"/>
      <path class="cls-3" d="M3.83,41.08s-6.16-11.05,5.8-23.84c11.96-12.79,20.5,11.77,20.5,11.77"/>
      <path class="cls-3" d="M20.78,14.94S14.76,2.31,34.62,2.74c0,0,19.38-6.95,21.11,4.22"/>
    </g>
    <g>
      <path class="cls-2" d="M51.74,27.99c.31-2.44,1.34-4.65,2.59-6.73,1.63-3.56,3.4-7.75,6.43-10.12-1.34,2.45-3.51,5.77-5.04,8.13-1.81,2.61-2.22,6.26-3.98,8.71h0Z"/>
      <path class="cls-2" d="M53.84,29.02c1.51-1.79,3.37-3.13,5.3-4.39,2.93-2.45,5.61-5.41,9.04-7.11-2.45,2.99-5.84,4.98-8.88,7.31-1.62,1.52-3.5,3.44-5.47,4.18h0Z"/>
      <path class="cls-2" d="M57.84,33.89c1.89-.72,3.8-.97,5.77-1.25,3.15-.91,6.07-2.67,9.28-3.33-2.59,2.17-6,2.83-9.21,3.58-1.85.73-3.79,1.25-5.82,1.08-.04,0-.05-.07-.01-.08h0Z"/>
      <path class="cls-2" d="M57.68,36.44c1.8-.32,3.55-.11,5.32.15,2.97-.07,5.88-.67,8.86-.2-2.59,1.14-5.98.56-8.86.46-1.78.2-3.57.25-5.32-.33-.04-.01-.04-.08,0-.08h0Z"/>
      <path class="cls-2" d="M59.18,38.9c1.8-.13,3.48.25,5.18.68,2.91.22,5.81-.12,8.68.6-2.63.92-5.9.03-8.71-.35-1.76.03-3.52-.1-5.16-.86-.04-.01-.03-.08.01-.08h0Z"/>
      <path class="cls-2" d="M59.1,44.46c2.15,1.17,4.22,2.37,6.3,3.62,3.64,1.76,7.76,2.07,11.71,2.72,0,0-.02.5-.02.5-.6-.11-1.34-.11-1.88-.34.59-.15,1.28-.11,1.9-.16.14,0,.25.1.26.24,0,.14-.1.25-.24.26-3.3.17-6.61-.63-9.59-2-3.03-1.21-6.25-2.24-8.48-4.77-.03-.03,0-.09.05-.06h0Z"/>
      <path class="cls-2" d="M58.73,48.05c2.3,1.36,3.91,3.57,6.4,4.54,2.14.83,5.21,1.87,7.39,2.65.02,0,.03.03.02.05-3.42.26-6.55-1.55-9.3-3.38-.51-.29-1.26-.66-1.77-.96-.85-.57-2.56-2.04-2.75-2.9h0Z"/>
      <path class="cls-2" d="M54.13,52.96c1.23,2.66,1.37,5.64,2.94,8.11,1.35,2.12,3.35,5.08,4.73,7.21-2.98-1.86-4.65-5.75-5.95-9.04-.97-1.86-2.03-4.3-1.72-6.28h0Z"/>
      <path class="cls-2" d="M51.11,55.01c.56,1.67.69,3.33.86,5.04.74,2.75,2.38,5.23,3.02,7.99-2.11-2.1-2.69-5.12-3.27-7.93-.63-1.62-1.02-3.34-.68-5.1,0-.04.07-.05.08,0h0Z"/>
      <path class="cls-2" d="M47.55,57.21c.56,3.41.02,6.88,1.01,10.2.84,2.86,2.19,6.89,3.1,9.77,0,.02,0,.04-.03.05-2.6-3.54-3.34-8.03-3.86-12.3-.59-2.52-.87-5.17-.31-7.73,0-.04.08-.04.08,0h0Z"/>
      <path class="cls-2" d="M31.32,55.66c-1.24,1.84-3.27,2.88-4.17,4.91-.76,1.73-1.76,4.19-2.52,5.93-.01.04-.08.03-.08-.02-.04-1.12.18-2.23.55-3.28.55-1.6,1.69-2.85,2.67-4.18.8-1.46,1.91-2.78,3.5-3.43.04-.02.08.03.05.06h0Z"/>
      <path class="cls-2" d="M34.41,56.56c-.62,1.28-1.46,2.24-2.3,3.32-.98,2.04-.97,4.41-1.81,6.48-.75-2.33.42-4.63,1.58-6.6.44-1.32,1.18-2.58,2.47-3.25.03-.02.08.02.06.06h0Z"/>
      <path class="cls-2" d="M38.13,56.91c-.64,1.83-2.28,2.98-2.68,4.86-.34,1.62-.78,3.81-1.25,5.41,0,.04-.07.04-.08,0-.23-.95-.22-1.92-.07-2.87.22-1.44,1.03-2.66,1.64-3.96.41-1.38,1.11-2.7,2.38-3.49.03-.02.08.01.06.05h0Z"/>
      <path class="cls-2" d="M43.02,57.07c-1.34,2.08-2.69,4.03-3.83,6.2-1.4,3.82-1.32,7.95-1.13,11.97,0,.04-.06.06-.08.02-1.62-3.95-.68-8.31.96-12.09.25-.68.58-1.66.88-2.33.71-1.35,1.95-3.17,3.19-3.77h0Z"/>
      <path class="cls-2" d="M33.17,27.33c-.79-5.46-2.9-10.63-6.14-15.1,4.13,3.77,6.46,9.52,6.14,15.1h0Z"/>
      <path class="cls-2" d="M36.93,24.81c-.34-1.8-.33-3.52-.4-5.32-.6-2.92-2.26-5.52-3.09-8.34,2.29,2.12,2.92,5.33,3.35,8.29.54,1.73.79,3.59.23,5.37-.01.04-.07.04-.08,0h0Z"/>
      <path class="cls-2" d="M40.88,24.46c-.46-2.11-.34-4.22-.12-6.33-.09-3.51-.72-7.14.09-10.58.81,3.47.24,7.06.17,10.58.18,2.03.51,4.51-.14,6.33h0Z"/>
      <path class="cls-2" d="M45.41,26.32c-.39-2.34-.21-4.65.09-6.97.02-3.87-.5-7.87.43-11.64.7,3.85.01,7.77-.17,11.64.11,2.25.37,4.95-.34,6.96h0Z"/>
      <path class="cls-2" d="M28.76,31.06c-1.49-1.88-2.06-4.29-3.91-5.84-1.57-1.33-3.9-3.05-5.55-4.31-.02-.01-.02-.04,0-.06,3.07.58,5.23,3.08,6.97,5.5,1.28,1.28,2.34,2.84,2.57,4.68,0,.04-.05.07-.07.03h0Z"/>
      <path class="cls-2" d="M26.66,35.01c-1.61-1.11-2.31-3.01-4.04-3.9-1.49-.77-3.51-1.78-4.93-2.68-.03-.02-.02-.08.02-.08.98.03,1.93.31,2.81.71,1.35.6,2.32,1.72,3.42,2.65,1.24.77,2.34,1.79,2.78,3.24.01.04-.03.07-.07.05h0Z"/>
      <path class="cls-2" d="M26.2,37.4c-2.38-.82-4.26-2.6-6.76-2.96-2.14-.31-5.17-.56-7.34-.78-.02,0-.04-.02-.04-.04,3.06-1.11,6.35-.11,9.25,1.05,1.84.43,3.65,1.2,4.93,2.67.03.03,0,.08-.05.07h0Z"/>
      <path class="cls-2" d="M26.94,43.76c-2.67.06-5.25-.51-7.88-.22-3.33.71-6.44,1.9-9.63,3.09-.04.02-.08-.04-.04-.07,3-2.55,6.97-3.22,10.78-3.39.66-.07,1.61-.22,2.28-.27,1.4,0,3.45.15,4.5.86h0Z"/>
      <path class="cls-2" d="M27.97,45.96c-2.69.87-5.54.5-8.16,1.51-2.3.88-5.47,2.11-7.82,2.79,2.45-2.29,6.42-2.96,9.76-3.62,1.92-.6,4.38-1.24,6.22-.68h0Z"/>
      <path class="cls-2" d="M28.33,49.81c-2.28.75-4.55,1.23-6.84,1.88-3.63,1.57-6.65,4.13-9.88,6.38-.03.03-.09-.02-.06-.06,2.35-3.36,6.1-5.2,9.85-6.57,2.14-1.09,4.49-1.86,6.92-1.72.04,0,.05.07.01.08h0Z"/>
      <path class="cls-2" d="M31.29,28.84c-.66,9.11.86,18.28,4.43,26.69-4.58-7.96-6.19-17.68-4.43-26.69h0Z"/>
      <path class="cls-2" d="M34.85,26.84c-.61,10.02.97,20.08,4.61,29.43-4.67-8.93-6.32-19.5-4.61-29.43h0Z"/>
      <path class="cls-2" d="M39.33,26.53c-1.67,10.48.32,21.37,5.55,30.59-6.22-8.67-8.33-20.29-5.55-30.59h0Z"/>
      <path class="cls-2" d="M43.32,26.84c-.35,9.51,1.59,18.99,5.64,27.6-5.05-8.12-7.09-18.15-5.64-27.6h0Z"/>
      <path class="cls-2" d="M49.3,26.66c0,8.8,2.21,17.49,6.4,25.23-5.16-7.19-7.51-16.45-6.4-25.23h0Z"/>
      <path class="cls-2" d="M45.57,27.16c.24,8.81,2.93,17.42,7.74,24.8-5.74-6.76-8.61-15.98-7.74-24.8h0Z"/>
      <path class="cls-2" d="M28.81,32.88c7.92-1.43,15.9-2.79,23.96-2.88.19,0,.35.14.37.32.62,4.86,1.82,9.63,3.54,14.22-1.08-2.21-1.98-4.52-2.68-6.89-.72-2.36-1.25-4.79-1.58-7.24l.37.32c-7.9.21-16.11,1.47-23.98,2.15h0Z"/>
      <path class="cls-2" d="M26.45,36.46c9.98.11,19.93-.25,29.88-1.08-9.81,1.9-19.95,2.26-29.88,1.08h0Z"/>
      <path class="cls-2" d="M27.8,41.14c10.31-.14,21.46-.58,31.75-1.26-10.46,1.77-21.18,2.19-31.75,1.26h0Z"/>
      <path class="cls-2" d="M29.83,46.48c9.46-1.2,18.99-1.88,28.52-2.01-9.46,1.21-18.99,1.88-28.52,2.01h0Z"/>
      <path class="cls-2" d="M28.81,51.27c9.03-.83,18.11-1.14,27.18-.9-9.03.84-18.11,1.13-27.18.9h0Z"/>
    </g>
  </g>
</svg>