<?xml version="1.0" encoding="UTF-8"?>
<svg id="_왼쪽_위" data-name="왼쪽_위" xmlns="http://www.w3.org/2000/svg" version="1.1" viewBox="0 0 204.08 468.31">
  <defs>
    <style>
      .cls-1 {
        fill: #ffec2d;
      }

      .cls-1, .cls-2, .cls-3 {
        stroke: #000;
        stroke-linecap: round;
        stroke-linejoin: round;
        stroke-width: 1.5px;
      }

      .cls-2 {
        fill: #00d675;
      }

      .cls-4 {
        fill: #000;
      }

      .cls-4, .cls-5 {
        stroke-width: 0px;
      }

      .cls-5 {
        fill: #ff6a37;
      }

      .cls-3 {
        fill: none;
      }
    </style>
  </defs>
  <g>
    <path class="cls-2" d="M89.83,250.69s-30.89,20.69-66.48-29.76c0,0-13.66-31.27-16.49-33.13s14.81-4.96,45.39-1.86c30.58,3.1,52.79,25.79,41.69,60.13"/>
    <g>
      <path class="cls-4" d="M86.11,244.61c-8.83,2.62-17.95,4.26-27.14,4.85,8.83-2.63,17.95-4.25,27.14-4.85h0Z"/>
      <path class="cls-4" d="M81.58,238.14c-10.9,2.61-22.04,4.22-33.24,4.79,10.9-2.62,22.04-4.21,33.24-4.79h0Z"/>
      <path class="cls-4" d="M75.86,231.11c-11.42,3.02-23.03,5.03-34.8,6.02,11.42-3.03,23.03-5.02,34.8-6.02h0Z"/>
      <path class="cls-4" d="M71.07,225.98c-11.19,2.95-22.74,4.47-34.29,5.13,11.26-2.71,22.76-4.2,34.29-5.13h0Z"/>
      <path class="cls-4" d="M67.05,222.14c-11.38,2.3-22.96,3.59-34.57,3.84,11.38-2.31,22.96-3.58,34.57-3.84h0Z"/>
      <path class="cls-4" d="M61.5,217.43c-10.62,1.8-21.42,2.58-32.19,2.32,10.62-1.8,21.42-2.58,32.19-2.32h0Z"/>
      <path class="cls-4" d="M56.98,214.05c-10.41,1.03-20.92,1.04-31.33,0,10.41-1.04,20.92-1.03,31.33,0h0Z"/>
      <path class="cls-4" d="M49.77,209.4c-8.83,1.03-17.78,1.04-26.61,0,8.83-1.04,17.78-1.03,26.61,0h0Z"/>
      <path class="cls-4" d="M90.4,240.54c-.08-7.02.86-14.04,2.82-20.78.09,7.02-.87,14.04-2.82,20.78h0Z"/>
      <path class="cls-4" d="M86.11,235c.09-8.63,1.2-17.24,3.34-25.61-.08,8.63-1.21,17.24-3.34,25.61h0Z"/>
      <path class="cls-4" d="M80.66,229.17c.02-9.19,1.06-18.37,3.13-27.33,0,9.19-1.07,18.37-3.13,27.33h0Z"/>
      <path class="cls-4" d="M75.86,224.82c-.09-8.99.84-17.99,2.8-26.76.1,8.99-.85,17.98-2.8,26.76h0Z"/>
      <path class="cls-4" d="M71.35,221.21c-.32-8.87.38-17.77,2.11-26.47.33,8.87-.39,17.77-2.11,26.47h0Z"/>
      <path class="cls-4" d="M67.34,218.21c-.61-8.6-.19-17.28,1.27-25.78.61,8.6.18,17.28-1.27,25.78h0Z"/>
      <path class="cls-4" d="M42.73,205.62c-6.85.93-13.83.83-20.66-.3,6.85-.94,13.83-.83,20.66.3h0Z"/>
      <path class="cls-4" d="M41.06,204.29c-2.41-5.47-3.87-11.35-4.28-17.32,2.42,5.47,3.87,11.35,4.28,17.32h0Z"/>
      <path class="cls-4" d="M62.11,214.52c-.6-7.93-.17-15.93,1.3-23.74.6,7.93.16,15.93-1.3,23.74h0Z"/>
      <path class="cls-4" d="M57.34,211.44c-.65-7.33-.28-14.74,1.13-21.96.66,7.33.27,14.74-1.13,21.96h0Z"/>
      <path class="cls-4" d="M53.4,209.14c-.85-6.7-.68-13.52.53-20.17.86,6.7.67,13.52-.53,20.17h0Z"/>
      <path class="cls-4" d="M49.13,206.97c-.81-5.81-.6-11.75.64-17.49.82,5.81.6,11.75-.64,17.49h0Z"/>
      <path class="cls-4" d="M45.07,205.32c-1.29-5.5-1.57-11.23-.81-16.83,1.3,5.5,1.57,11.23.81,16.83h0Z"/>
      <path class="cls-4" d="M39.95,204.3c-7.4-.74-14.68-2.5-21.59-5.24,7.4.73,14.68,2.51,21.59,5.24h0Z"/>
      <path class="cls-4" d="M40.28,204.29c-5.62-4.78-10.56-10.34-14.64-16.49,5.62,4.78,10.56,10.35,14.64,16.49h0Z"/>
    </g>
    <path class="cls-2" d="M100.19,274.29s-12.87-48.56-60.24-69.98c0,0,8.21-1.28,33.19,18.3,24.99,19.58,27.71,41.4,27.71,41.4l-.66,10.28Z"/>
  </g>
  <g>
    <path class="cls-2" d="M107.92,281.12s-11.26-23.14,1.46-41.64,47.56-22.41,68.08-20.24,25.87.58,25.87.58c0,0-10.55,23.71-21.54,33.54-10.99,9.83-25.08,46.43-72.57,34.68"/>
    <path class="cls-2" d="M102.22,297.07s-.2-7.73,9.94-22.89c18.46-27.62,53.13-44.16,75.31-47.89,0,0-23.21,6.07-50.19,26.11-10.71,7.96-19.33,18.4-25.39,30.28-5.64,11.06-11.55,24.08-9.62,26.84l-.05-12.46Z"/>
    <g>
      <path class="cls-4" d="M112.16,274.18c-4.08-8.58-5.39-18.64-3.52-27.96.24,9.47,1.42,18.7,3.52,27.96h0Z"/>
      <path class="cls-4" d="M117.39,267.15c-4.31-9.05-5.33-19.8-2.82-29.5-.42,9.95.5,19.81,2.82,29.5h0Z"/>
      <path class="cls-4" d="M122.64,261.27c-4.45-8.61-5.83-19.65-1.46-28.54-.5,2.41-.96,4.76-1.09,7.15-.48,7.23.74,14.33,2.55,21.39h0Z"/>
      <path class="cls-4" d="M128.87,255.33c-4.21-8.25-4.59-18.58-.94-27.1-1.57,9.03-1.25,18.2.94,27.1h0Z"/>
      <path class="cls-4" d="M134.65,250.56c-3.13-7.59-3.53-16.75,0-24.26-1.48,8.09-1.09,16.11,0,24.26h0Z"/>
      <path class="cls-4" d="M140.61,246.22c-2.8-6.79-2.48-15,.95-21.51-1.39,7.16-1.69,14.22-.95,21.51h0Z"/>
      <path class="cls-4" d="M146.69,242.31c-1.96-6.28-2.32-14.06,2.32-19.28-1.88,4.59-2.38,9.4-2.29,14.3-.02,1.47.17,3.52-.03,4.98h0Z"/>
      <path class="cls-4" d="M151.84,239.34c-1.25-5.89-.34-12.83,3.78-17.44-2.25,5.65-2.91,11.42-3.78,17.44h0Z"/>
      <path class="cls-4" d="M157.74,236.29c-1.64-5.03-1.59-11.36,3.49-14.38-2.19,3.16-3.17,6.7-3.2,10.51-.08,1.15.09,2.77-.29,3.88h0Z"/>
      <path class="cls-4" d="M162.88,233.93c-.91-4.29.08-9.5,3.98-12.02-1.48,2.87-2.51,5.71-3.14,8.86-.24.95-.39,2.28-.84,3.16h0Z"/>
      <path class="cls-4" d="M168.76,231.53c-1.37-4.14.66-8.73,5.12-9.62-1.33,1.39-2.63,2.62-3.46,4.31-.95,1.62-1.01,3.58-1.67,5.32h0Z"/>
      <path class="cls-4" d="M173.89,229.72c-.99-3.33,1.87-6.8,4.92-7.82-1.64,2.67-3.77,4.85-4.92,7.82h0Z"/>
      <path class="cls-4" d="M180,227.92c.55-2.51,2.08-4.7,4.29-6.01-.52,2.49-2.1,4.72-4.29,6.01h0Z"/>
      <path class="cls-4" d="M111.89,282.69c10.13.61,20.74,1.82,30.79,0-9.44,3.87-21.15,2.65-30.79,0h0Z"/>
      <path class="cls-4" d="M115.64,276.71c12.06.75,24.13,1.59,36.15,0-11.64,3.66-24.41,2.8-36.15,0h0Z"/>
      <path class="cls-4" d="M119.67,270.11c13.61.45,27.21,2.11,40.8.87-6.62,1.9-13.62,1.88-20.44,1.66-6.84-.33-13.66-1.08-20.36-2.53h0Z"/>
      <path class="cls-4" d="M125.63,262.9c13.25.56,27.04,2.06,40.29,2.02-6.66,1.22-13.5,1.09-20.23.7-6.74-.46-13.46-1.27-20.06-2.72h0Z"/>
      <path class="cls-4" d="M131.95,256.72c5.74-.19,13.95.85,19.74,1.26,6.53.44,13.11,1.48,19.63.53-6.33,2.11-13.22,1.37-19.76.96-6.6-.52-13.09-1.74-19.61-2.76h0Z"/>
      <path class="cls-4" d="M139.49,250.79c12.16,1.93,24.64,4.26,36.86,1.61-11.27,4.7-25.64,2.32-36.86-1.61h0Z"/>
      <path class="cls-4" d="M146.12,246.22c5.34.53,12.82,1.37,18.09,1.7,5.99.3,12.11.81,17.93-.92-9.36,4.82-26.15,2.04-36.02-.78h0Z"/>
      <path class="cls-4" d="M153.7,241.78c11.24,0,22.56,1.77,33.76,0-10.84,3.83-22.74,2.06-33.76,0h0Z"/>
      <path class="cls-4" d="M161.24,237.28c5.01-.36,10.01-.37,15.02-.42,4.4-.09,10.62.1,14.94-.56-4.72,1.88-9.93,1.91-14.93,2.06-5.03,0-10.06-.24-15.03-1.08h0Z"/>
      <path class="cls-4" d="M169.65,233.12c3.92-.33,7.79-.34,11.65-.44,3.81-.21,7.79.21,11.41-1.15-4.82,3.8-17.21,2.81-23.06,1.58h0Z"/>
    </g>
  </g>
  <path class="cls-2" d="M99.27,154.73s4.24,302.12,9.87,312.82h-14.45c4.52-14.22-3.2-319.54-3.2-319.54,0,0-.51,1.71,7.78,6.72Z"/>
  <g>
    <path class="cls-5" d="M200.08,85.87c-6.31-5.57-18.49-7.34-21.72-7.72-.1-.15-.21-.29-.32-.44,10.48-7.51,13.54-15.94,13.54-15.94,0,0,6.35-10.12-14.04-10.55-2.82-.06-5.63.4-8.38,1.22-.03-.15-.07-.29-.11-.44l.25.08s17-22.17,2.15-28.5c-5-2.13-11.12-.85-17.04,1.79-.11-.16-.24-.33-.36-.49l.68.34s4.05-9.6-4.1-15.79c-8.16-6.2-16.83,5.42-16.83,5.42l.11.05s-.06,0-.09,0c0-.01-.01-.03-.02-.05-.56-1.54-1.09-2.28-1.09-2.28,0,0-.22-21.4-15.37-6.61-3.64,3.55-6.22,8.5-8.05,13.95-.04-.01-.08-.03-.11-.04.54-10.44-5.1-15.14-5.1-15.14-14.1-10.32-16.86,8.57-16.86,8.57,0,0,0-8.37-11.4-9.8-10.56-1.32-9.15,12.04-10.13,14.59-.18.07-.36.14-.54.21-4.65-5.82-9.27-9.5-12.97-8.77-11.49,2.27-3.89,17.59-4.28,18.56s-11.68-8.96-20.57-1.05c-8.89,7.9,5.71,24.18,5.71,24.18l.65.14s-.02.02-.03.04c-1.25-.35-2.52-.67-3.81-.91-6.59-1.27-20.89-4.67-18.36,8.98,2.53,13.65,17.83,21.21,17.83,21.21l.41-.05s0,.04,0,.06c-11.18-.37-28.13,3.29-28.95,14.19-.92,12.11,20.24,16.88,22.67,17.38-.02.06-.05.12-.07.18-5.43,2.43-9.6,5.96-13.06,10.28-8.57,10.71-3.31,14.05-3.31,14.05,7.17,7.2,31.67,3.46,34.41,3.01.03.04.06.07.09.11-5.32,4.63-9.79,10.92-10.95,19.31-3.31,24.02.97,19.78.97,19.78,0,0,7.4-.39,22.39-8.76,5.13-2.86,9.2-7.38,12.33-12.07.12.37.25.73.39,1.09-2.13,5.26-3.28,11.23-3.88,18.75-1.29,16.36,2.58,30.56,13.56,23.03,10.98-7.53,20.33-29.49,20.33-29.49l-.14-.22c.1-.03.2-.07.3-.1.7,9.52,3.4,14.32,3.4,14.32,11.41,22.6,21.74,20.23,21.74,20.23,0,0,6.03.43,9.12-17.65.27-1.56.37-3.16.36-4.79,7.32,7.77,15.92,7.16,15.92,7.16,12.27,4.52,9.47-16.78,9.47-16.78-.12-1.27-.31-2.49-.54-3.69,6.28,3.66,16.66,3.04,16.66,3.04,0,0,5.61,4.3,9.05-9.25,3.44-13.56-9.05-27.02-9.05-27.02l-.21.4c-.02-.15-.04-.3-.05-.45,7.6,1.13,14.16.37,17.92-1.56,8.39-4.3,8.61-3.66,5.38-11.62-2.87-7.08-14.06-13.71-16.5-15.1,0-.11,0-.23,0-.34,15.29-2.17,19.51-9.52,19.51-9.52,0,0,8.39-6.24,1.08-12.7Z"/>
    <g>
      <path class="cls-1" d="M80.93,64.88s19.57-11.26,40.2-1.33c16.74,8.05,28.2,27.6,25.93,46.04-1.58,12.86-10.04,26.56-28.01,35.28-36.09,17.51-61.94-22.62-60.33-28.82,0,0-9.46-30.97,22.2-51.17Z"/>
      <path class="cls-3" d="M105.31,59.45s-3.12-38.71,12.03-53.5,15.37,6.61,15.37,6.61c0,0,10.41,14.44-11.58,50.97"/>
      <path class="cls-3" d="M131.95,40.99s24.66-23.75,39.51-17.41c14.85,6.33-2.15,28.5-2.15,28.5"/>
      <path class="cls-3" d="M137.4,76.92s19.76-26.14,40.15-25.71,14.04,10.55,14.04,10.55c0,0-8.76,24.12-47.37,27.12"/>
      <path class="cls-3" d="M177.54,78.06s15.22,1.36,22.54,7.81c7.32,6.46-1.08,12.7-1.08,12.7,0,0-9.46,16.57-51.65,7.32"/>
      <path class="cls-3" d="M179,108.17s13.76,7.4,16.99,15.37,3.01,7.32-5.38,11.62c-8.39,4.3-30.66,2.86-47.5-12.67"/>
      <path class="cls-3" d="M172.95,136.76s12.5,13.46,9.05,27.02c-3.44,13.56-9.05,9.25-9.05,9.25,0,0-10.75.65-16.99-3.23"/>
      <path class="cls-3" d="M131.07,137.25s23.38,11.68,25.75,36.43c0,0,2.8,21.3-9.47,16.78,0,0-8.88.65-16.28-7.53"/>
      <path class="cls-3" d="M117.04,145.79s17.12,24.23,14.03,42.31c-3.09,18.08-9.12,17.65-9.12,17.65,0,0-10.33,2.37-21.74-20.23,0,0-6.89-12.2-1.51-36.34"/>
      <path class="cls-3" d="M96.65,171.53s-9.35,21.95-20.33,29.49c-10.98,7.53-14.85-6.67-13.56-23.03s5.18-25.42,16.15-35.63"/>
      <path class="cls-3" d="M74.84,139.41s-5.92,22.43-20.91,30.8-22.39,8.76-22.39,8.76c0,0-4.28,4.24-.97-19.78,3.31-24.02,33.71-30.81,33.71-30.81"/>
      <path class="cls-3" d="M41.68,139.73s-27.08,4.66-34.67-2.97c0,0-5.26-3.34,3.31-14.05,8.57-10.71,21.55-16.55,47.09-12.85"/>
      <path class="cls-3" d="M23.69,112.3S-.19,107.71.78,94.86c.97-12.85,24.34-15.65,34.27-13.63,11.49,2.34,23.89,12.14,23.89,12.14"/>
      <path class="cls-3" d="M29.31,80.66s-15.29-7.55-17.83-21.21c-2.53-13.65,11.77-10.25,18.36-8.98,22.23,4.28,38.33,25.36,38.33,25.36"/>
      <path class="cls-3" d="M33.03,51.21s-14.59-16.28-5.71-24.18,20.18,2.03,20.57,1.05-7.2-16.29,4.28-18.56,31.94,37.97,34.08,52.99"/>
      <path class="cls-3" d="M65.41,18.48c1.57-.71-.99-16.43,10.41-15,11.4,1.43,11.4,9.8,11.4,9.8,0,0,2.76-18.89,16.86-8.57,0,0,5.8,4.81,5.08,15.55"/>
      <path class="cls-3" d="M133.81,14.85s8.68-11.62,16.83-5.42c8.16,6.2,4.1,15.79,4.1,15.79"/>
    </g>
    <g>
      <g>
        <path class="cls-4" d="M89.95,104.74c1.1-2.42-1.15-8.08,5.09-11.31,6.24-3.23,11.36-4.04,15.67,0,4.31,4.04,6.19,13.47,3.23,15.62-2.96,2.15-8.49,13.13-17.29,6.93-8.8-6.19-6.7-11.24-6.7-11.24Z"/>
        <path class="cls-4" d="M89.95,104.74c.59-1.62.26-3.4.55-5.09.2-1.7.88-3.39,2.12-4.63,1.22-1.26,2.82-2.03,4.35-2.79,3.12-1.49,6.74-2.63,10.21-1.56,5.33,1.65,8.12,7.32,8.83,12.51.23,2.22.24,5.12-1.82,6.56-4.38,4.44-9.35,11.3-16.35,7.23-3.93-2.61-9.08-6.98-7.89-12.23h0ZM89.95,104.74c-1.14,5.28,4.02,9.47,8.1,11.83,6.93,3.59,11.11-3.66,15.25-7.91,1.55-1.19,1.4-3.34,1.22-5.29-.65-4.69-2.98-9.93-7.68-11.7-3.15-1.16-6.66-.24-9.69,1.01-1.56.67-3.17,1.32-4.39,2.5-1.23,1.17-1.98,2.79-2.21,4.48-.31,1.68,0,3.47-.6,5.08h0Z"/>
      </g>
      <path class="cls-4" d="M125.62,66.06c.09-1.77.91-3.41,1.55-5.04,5.18-11.11,13.19-21.21,23.47-27.98-7.74,7.05-14.41,15.1-20.09,23.87-1.8,2.95-3.9,5.84-4.93,9.15h0Z"/>
      <path class="cls-4" d="M128.71,68.23c4.71-9.82,11.51-19.18,20.83-25.05-7.86,7.35-14.44,16.41-20.83,25.05h0Z"/>
      <path class="cls-4" d="M133.04,72.02c6.89-9.94,14.45-19.13,22.92-27.74-6.81,9.87-14.53,19.2-22.92,27.74h0Z"/>
      <path class="cls-4" d="M135.18,74.26c4.81-5.08,12.02-12.23,17.02-17.27,4.9-5.05,10.05-9.92,14.26-15.56.54-.83,1.13-1.67,1.37-2.66-.08,1.03-.57,1.97-1.03,2.87-3.54,6.18-8.64,11.31-13.54,16.41-5.73,5.73-11.71,11.2-18.08,16.21h0Z"/>
      <path class="cls-4" d="M140,80.64c6.66-9.22,16.48-18.53,27.83-21.19-10.82,4.8-19.35,13.15-27.83,21.19h0Z"/>
      <path class="cls-4" d="M141.58,83.31c7.15-6.55,15-12.36,23.38-17.26-7.15,6.57-15,12.34-23.38,17.26h0Z"/>
      <path class="cls-4" d="M143.11,86.31c8.58-5.51,17.46-10.4,26.19-15.61,2.8-1.82,5.98-3.3,8.25-5.8-1.82,2.9-4.92,4.77-7.61,6.78-2.8,1.94-5.7,3.72-8.63,5.44-5.89,3.39-11.91,6.54-18.19,9.19h0Z"/>
      <path class="cls-4" d="M143.8,87.89c8.85-4.03,18.19-6.62,26.71-11.28-3.52,3.44-8.2,5.39-12.68,7.24-4.56,1.74-9.22,3.2-14.03,4.05h0Z"/>
      <path class="cls-4" d="M145.57,92.84c5.02-1.21,12.36-2.62,17.49-3.66,2.91-.57,5.82-1.18,8.7-1.85,2.84-.75,5.85-1.23,8.34-2.88-6.12,5.61-26.02,8.01-34.53,8.38h0Z"/>
      <path class="cls-4" d="M146.59,97.04c7.47-1.3,14.94-1.92,22.4-3.08,2.37-.52,5.11-.58,7.04-2.15-3.96,4.9-23.09,5.67-29.44,5.23h0Z"/>
      <path class="cls-4" d="M147.17,101.1c12.36-1.54,24.86-1.42,37.08-3.76,0,0,1.17-.29,1.17-.29-5.89,2.74-12.54,3.24-18.92,3.88-6.43.46-12.89.63-19.33.17h0Z"/>
      <path class="cls-4" d="M147.17,103.73c3.5-.32,8.5.12,12.04.23,3.97.11,7.96.67,11.87-.23-3.55,2.07-7.98,1.8-11.95,1.73-4.04-.2-8.02-.85-11.97-1.73h0Z"/>
      <path class="cls-4" d="M147.07,109.58c9.74,1.54,19.14,4.23,28.96,5.01-4.9.88-9.94.12-14.78-.77-4.84-.99-9.62-2.3-14.18-4.24h0Z"/>
      <path class="cls-4" d="M146.59,113.55c6.68,1.49,12.9,4.02,19.71,4.78-3.38.88-6.97.18-10.27-.68-3.31-.96-6.53-2.23-9.44-4.1h0Z"/>
      <path class="cls-4" d="M145.36,117.11c12.3,4.42,24.8,8.41,37.88,9.59-13.17.92-26.44-3.27-37.88-9.59h0Z"/>
      <path class="cls-4" d="M144.5,119.42c7.62,4.01,14.99,8.19,23.33,10.41-8.71-.13-16.96-4.72-23.33-10.41h0Z"/>
      <path class="cls-4" d="M141.95,124.63c7.29,8.24,16.51,14.57,27.34,16.85-11.22-.12-21.78-7.31-27.34-16.85h0Z"/>
      <path class="cls-4" d="M140,127.68c5.79,5.76,11.54,12.36,19.13,15.74-8.25-1.3-15.13-8.8-19.13-15.74h0Z"/>
      <path class="cls-4" d="M138.13,130.17c9.21,9.96,18.66,20.29,31.15,26.1-12.91-3.55-23.97-15.19-31.15-26.1h0Z"/>
      <path class="cls-4" d="M135.18,133.49c5.14,4.08,9.88,8.6,14.42,13.32,4.36,4.82,9.13,9.65,11.72,15.72-3.59-5.45-8.42-9.9-12.8-14.69-3.96-4.19-9.59-10.06-13.33-14.35h0Z"/>
      <path class="cls-4" d="M119.06,144.87c6.7,7.47,12.53,16.15,15.38,25.84-4.77-8.87-10.32-17.12-15.38-25.84h0Z"/>
      <path class="cls-4" d="M122.25,143.21c2.76,2.3,5.1,5.01,7.24,7.88,2.07,2.9,4.08,6,4.95,9.5-3.87-5.86-8.53-11.37-12.19-17.38h0Z"/>
      <path class="cls-4" d="M126.75,140.47c8.01,8.6,16.21,20.38,17.75,32.25-3.81-11.79-11.11-21.92-17.75-32.25h0Z"/>
      <path class="cls-4" d="M129.6,138.42c6.88,5.5,13.17,12.56,15.97,21.05-4.66-7.54-10.54-14.07-15.97-21.05h0Z"/>
      <path class="cls-4" d="M101.57,149.25c.62,6.98.01,13.81.81,20.75-1.61-3.17-1.86-6.84-1.96-10.32,0-3.51.26-7.02,1.15-10.43h0Z"/>
      <path class="cls-4" d="M104.24,149.11c1.35,6.64,2.36,13.31,3.43,19.97,1.13,6.17,1.59,12.57,3.68,18.5.18.37.37.76.75.97-.41-.14-.7-.51-.95-.85-3.01-5.63-3.81-12.18-4.96-18.38-1.03-6.69-1.77-13.42-1.95-20.2h0Z"/>
      <path class="cls-4" d="M107.61,148.94c2.51,8.92,4.02,18.12,4.5,27.38-2.51-8.92-4.02-18.12-4.5-27.38h0Z"/>
      <path class="cls-4" d="M110.57,148.01c2.09,4.95,3.6,10.1,4.87,15.31,1.18,5.22,2.23,10.57,2,15.94-1.94-10.36-4.99-20.87-6.87-31.25h0Z"/>
      <path class="cls-4" d="M114.01,146.97c3.14,5.34,5.62,11.03,7.63,16.88,1.92,5.85,3.58,12.01,3.24,18.23-1.84-12-6.9-23.69-10.88-35.11h0Z"/>
      <path class="cls-4" d="M81.21,143.75c-6.74,12.32-13.37,25.19-14.7,39.38-.9-14.01,6.33-28.52,14.7-39.38h0Z"/>
      <path class="cls-4" d="M84.45,145.44c-3.5,9.71-7.47,19.26-12.58,28.25,3.21-9.8,7.22-19.42,12.58-28.25h0Z"/>
      <path class="cls-4" d="M88.15,146.97c-3.48,11.54-7.91,22.71-13.31,33.49,3.47-11.54,7.92-22.71,13.31-33.49h0Z"/>
      <path class="cls-4" d="M91.48,148.01c-1.7,8.52-4.41,16.83-8.08,24.71,1.7-8.52,4.42-16.83,8.08-24.71h0Z"/>
      <path class="cls-4" d="M94.94,148.94c-.68,15.06-4.98,31.88-15.35,43.22,8.75-12.84,12.5-28.15,15.35-43.22h0Z"/>
      <path class="cls-4" d="M65.64,130.17c-9.88,5.3-19.54,11.77-26.16,20.98-1.04,1.25-1.73,2.72-2.65,4.08,4.64-12.41,16.59-20.95,28.81-25.06h0Z"/>
      <path class="cls-4" d="M67.46,132.35c-7.15,5.69-14.76,10.53-21.32,16.9,2.33-3.99,5.91-7.09,9.53-9.88,3.68-2.73,7.58-5.19,11.79-7.02h0Z"/>
      <path class="cls-4" d="M69.26,134.31c-8.57,10.83-18.35,20.65-28.63,29.86,8.8-10.66,18.56-20.42,28.63-29.86h0Z"/>
      <path class="cls-4" d="M71.16,136.2c-2.01,3.85-4.49,7.39-7.11,10.83-2.71,3.34-5.43,6.87-9.1,9.23,5.48-6.48,10.34-13.92,16.21-20.06h0Z"/>
      <path class="cls-4" d="M72.97,137.85c-3.77,9.74-11.22,23.34-20.9,28.02,4.75-3.5,8.16-8.33,11.48-13.12,2.91-4.19,6.7-10.5,9.42-14.9h0Z"/>
      <path class="cls-4" d="M58.16,113.55c-10.55-.27-25.27-1.71-34.42,4.12,7.9-7.66,24.42-6.5,34.42-4.12h0Z"/>
      <path class="cls-4" d="M58.73,116.05c-6.59,1.1-15.82,2.54-22.24,3.95-7.18,1.73-14.93,3.03-20.88,7.69,8.14-8.96,31.31-11.46,43.12-11.63h0Z"/>
      <path class="cls-4" d="M59.25,119.42c-10.29,3.42-20.89,5.87-31.64,7.28,10.28-3.43,20.89-5.86,31.64-7.28h0Z"/>
      <path class="cls-4" d="M60.9,123.06c-12.16,4.32-24.54,7.71-37.16,10.43,12.02-4.7,24.47-8.1,37.16-10.43h0Z"/>
      <path class="cls-4" d="M61.98,124.94c-5.22,3.18-10.79,5.72-16.52,7.84-5.74,2.05-11.72,3.79-17.85,3.98,11.85-2.77,22.97-7.63,34.36-11.82h0Z"/>
      <path class="cls-4" d="M57.43,106.59c-12.12.17-24.83-1.25-36.9,0,5.92-1.94,12.29-1.92,18.45-1.87,6.19.18,12.36.71,18.45,1.87h0Z"/>
      <path class="cls-4" d="M57.41,102.83c-14.21-1.05-29.13-2.97-43.34-2.08-.95.13-1.91.25-2.88.36,7.49-2.24,15.46-1.99,23.19-1.6,7.75.53,15.46,1.56,23.03,3.33h0Z"/>
      <path class="cls-4" d="M57.71,99.89c-13.49-.8-26.85-2.61-40.06-5.46,13.49.79,26.85,2.62,40.06,5.46h0Z"/>
      <path class="cls-4" d="M58.23,96.47c-10.43-3.51-21.12-6.4-32.09-7.44-1.57-.24-3.14-.21-4.73-.38,12.64-1.42,25.69,1.85,36.82,7.82h0Z"/>
      <path class="cls-4" d="M60.48,88.65c-2.31-1.67-6.15-3.55-8.66-5.01-7.32-3.91-14.61-8.02-22.49-10.66-1.57-.52-3.19-.89-4.87-.96,9.63-1.13,28.93,10.1,36.02,16.63h0Z"/>
      <path class="cls-4" d="M61.98,85.24c-3.43-2.35-8.88-5.59-12.43-7.9-4.17-2.57-8.2-5.35-12.72-7.3,4.93.8,9.31,3.5,13.52,6.03,4.1,2.73,8.32,5.49,11.63,9.17h0Z"/>
      <path class="cls-4" d="M63.59,82.25c-10.6-7.63-20.96-16.24-33.41-20.62-.85-.18-1.7-.39-2.57-.61,12.4.52,27.5,12.61,35.98,21.22h0Z"/>
      <path class="cls-4" d="M65.64,79.09c-8.15-6-15.26-13.31-24.23-18.07,5.03,1.1,9.3,4.35,13.31,7.42,3.95,3.22,7.69,6.7,10.92,10.65h0Z"/>
      <path class="cls-4" d="M70.87,72.9c-5.18-5.39-10.3-10.81-15.71-15.95-5.41-5.1-10.92-10.15-17.48-13.77,12.81,4.81,25.31,18.74,33.19,29.72h0Z"/>
      <path class="cls-4" d="M73.51,70.42c-3.52-3.76-8.46-9.35-11.9-13.28-3.99-4.35-7.55-9.21-12.21-12.86,5.36,2.7,9.32,7.55,13.33,11.87,3.89,4.52,7.63,9.18,10.77,14.27h0Z"/>
      <path class="cls-4" d="M76.17,68.23c-3.06-5.91-7.03-11.35-10.68-16.91-3.59-5.06-7-10.41-11.66-14.55,0,0-.97-.8-.97-.8,3.02,1.53,5.47,4.01,7.71,6.5,4.43,5.08,8.17,10.71,11.45,16.58,1.56,2.96,3.31,5.92,4.15,9.18h0Z"/>
      <path class="cls-4" d="M79.15,66.06c-2.38-4.68-4.56-9.39-6.95-13.99-2.47-4.52-4.74-9.27-8.61-12.79,7.81,4.47,13.32,18.33,15.56,26.78h0Z"/>
      <path class="cls-4" d="M82.85,63.91c-3.98-8.91-7.85-17.86-12.57-26.4-2.87-5.02-5.81-10.23-10.36-13.93,11.07,6.71,19.45,28.11,22.93,40.34h0Z"/>
      <path class="cls-4" d="M88.78,61.66c-1.76-9.89-3.75-19.75-7.02-29.25-1.98-5.62-4.41-11.23-8.08-16,10.7,10.74,14.47,30.53,15.1,45.25h0Z"/>
      <path class="cls-4" d="M92.51,60.66c-1.17-7.13-2.02-14.26-3.14-21.35-1.27-6.99-1.91-14.34-5.22-20.73,6.8,8.94,8.24,30.78,8.35,42.08h0Z"/>
      <path class="cls-4" d="M95.73,60.04c-.29-5.87-.33-11.73-.54-17.59-.39-5.75-.04-11.82-2.25-17.23,5.1,7.41,4.05,25.94,2.8,34.82h0Z"/>
      <path class="cls-4" d="M100.46,59.53c-.28-6.76.05-16.55.07-23.41.04-3.89.02-7.78-.1-11.66-.31-3.79-.03-7.92-1.92-11.34.71.7,1.09,1.65,1.44,2.57,2.09,6.58,2.01,13.62,2.09,20.45-.05,7.72-.69,15.72-1.57,23.4h0Z"/>
      <path class="cls-4" d="M109.23,60.04c.52-11.13,2.62-22.57,2.97-33.69,1.13,5.59.56,11.36.05,16.98-.65,5.63-1.54,11.23-3.02,16.71h0Z"/>
      <path class="cls-4" d="M113.12,60.66c1.13-6.61,3.06-16.13,4.35-22.81.74-3.79,1.44-7.59,2.05-11.39.45-3.77,1.45-7.68.59-11.45.47.86.61,1.86.74,2.83.57,6.81-.73,13.62-1.91,20.3-1.51,7.62-3.36,15.16-5.82,22.52h0Z"/>
      <path class="cls-4" d="M117.34,61.95c4.05-10.8,8.55-21.69,9.43-33.3,1.44,10.7-3.79,24.3-9.43,33.3h0Z"/>
      <path class="cls-4" d="M133.04,39.04c1.99-5.02,4.36-9.84,6.36-14.84,1.06-2.94,2.64-5.98,2.17-9.18,2.63,6.07-4.77,19.05-8.53,24.02h0Z"/>
      <path class="cls-4" d="M134.73,35.97c3.08-6.53,8.11-12.72,14.81-15.7-5.51,4.73-9.98,10.31-14.81,15.7h0Z"/>
      <path class="cls-4" d="M106.31,91c-10.8-1.82-18.3.16-19.53,12.3-.34,2.94-.23,6.22.58,8.93,1.73,2.83,4.84,4.07,7.46,5.89,8.13,5.82,14.97,3.03,20.01-4.93,8.83-12.38,3.28-20.52-9.75-25.28-6.25-2.4-12.97-1.34-17.09,4.24-3.78,5.04-5.63,11.75-4.8,18,.84,6.7,6.78,10.78,12.95,12.27,3.08.83,6.27,1.36,9.43,1.74,1.57.14,3.19.14,4.64-.4,1.48-.55,2.53-1.87,3.76-2.82,1.15-1.03,2.46-2.08,3.22-3.41.72-1.45,1.56-2.84,2.41-4.2,1.67-2.68,3.39-5.47,3.42-8.72.07-7.96-5.84-15.29-13.01-18.29-5.93-2.42-12.61-2.27-18.75-.71-5.26,1.07-8.24,3.79-10.02,8.88-2.5,7.7-4.37,21.23,2.71,26.91,2.46,1.98,5.57,2.99,8.53,4.19,5.84,2.31,12.37,4.31,18.55,2.27,3.11-.92,5.42-3.23,7.67-5.45,2.39-2.21,3.83-5.04,5.28-7.9,1.39-2.82,2.82-5.81,2.95-8.98.09-6.42-2.86-12.58-7.66-16.84-2.29-2.23-4.54-4.61-7.45-5.89-2.91-1.28-6.17-1.45-9.36-1.63-3.2-.18-6.42-.34-9.57.18-6.39.95-11.68,5.59-14.59,11.21-2.94,5.7-3.81,12.28-3.55,18.64.16,6.97,3.5,12.11,9.66,15.32,5.66,2.84,11.55,5.89,17.9,6.75,6.35.63,12.82-1.98,17.84-5.76,4.63-4.29,8.52-9.83,10.42-15.88,1.28-6.07,1.56-13.25-2.26-18.48-5.95-7.44-14.37-13.27-23.62-15.67-39.71-10.13-48.03,56.61-8.98,58.17,6.2,1.45,12.87,1.65,18.86-.6,11.92-4.67,20.27-16.92,21.08-29.59.53-12.23-3.93-16.74-12.9-23.93-8.67-7.53-14.33-10.37-26.06-8.83-2.78.41-6.85.51-9.55,1.07-6.18,1.21-12.2,4.49-15.68,9.85-3.52,5.43-3.69,12.15-3.92,18.44-.36,9.37.32,19.83,7.25,26.87,6.71,6.95,16.53,9.8,25.83,11.29,6.38.88,12.69-1.22,18.47-3.73,2.86-1.36,5.48-3.24,7.81-5.4,9.7-8.61,12.9-22.49,11.16-34.99-.77-6.59-5.6-11.28-10.34-15.43-4.22-3.64-8.65-7.18-13.83-9.34-6.55-3.04-13.94-3.66-21.01-2.32-6.18,1.26-12.71,2.38-18.18,5.67-5.73,3.2-8.68,9.23-10.21,15.39-1.66,6.18-2.19,12.64-1.98,19.01.36,6.32,1.89,12.8,5.48,18.08,5.48,7.78,13.94,13.58,23.07,16.22,3.08.83,6.27,1.33,9.45,1.56,6.45.28,12.6-2.11,18.64-4.08,3.03-1.03,6.06-2.17,8.7-3.95,2.62-1.84,4.59-4.44,6.48-6.99,7.21-10.36,11.18-24.01,7.58-36.42-5.95-18.57-25.95-30.62-45.1-29.24-6.42.35-12.76,1.52-19.1,2.59-.05.01-.06-.07-.01-.07,12.52-2.22,25.84-4.77,38.07.15,11.99,4.47,22.45,14.14,26.4,26.49,1.92,6.2,1.69,12.88.29,19.15-2.27,9.27-6.85,18.59-14.38,24.68-5.49,3.48-11.86,5.04-18,6.95-15.76,4.32-33.28-3.74-42.58-16.71-5.53-8.16-6.28-18.51-5.35-28.05,1.03-9.37,3.35-20.33,12.16-25.39,5.6-3.38,12.13-4.48,18.44-5.77,6.78-1.28,13.92-.8,20.32,1.89,2.59,1.1,5.21,2.36,7.51,3.99,5.29,3.73,10.29,7.88,14.43,12.88,4.22,5.19,4.46,12.29,4.07,18.65-.38,12.98-7.84,25.75-19.69,31.45-5.91,2.56-12.33,4.69-18.86,3.78-6.4-.99-12.72-2.65-18.46-5.7-13.39-6.9-15.9-19.27-15.22-33.19.23-6.39.42-13.24,4.03-18.79,4.52-6.95,12.9-10.35,20.94-10.73,4.68-.4,9.79-1.31,14.49-.62,3.21.46,6.41,1.49,9.13,3.3,3.96,2.51,7.79,5.97,11.39,8.97,3.8,3,7.07,6.94,8.45,11.67,4.18,15.83-5.39,33.77-20.55,39.67-9.3,3.45-19.45,1.17-28.33-2.39-10.6-3.84-16.01-10.09-16.14-21.63,0-9.48.98-20.01,7.61-27.36,12.34-12.64,31.61-8.59,43.87,2.01,3.63,3.09,7.47,6.5,9,11.17,1.24,4.68,1.16,9.69.05,14.39-1.34,4.65-4.1,8.81-7.13,12.53-2.92,3.91-7.27,6.48-11.84,8.06-6.22,2.49-12.87,1.3-18.81-1.37-5.78-2.6-12.36-4.86-16.01-10.41-4.53-7.33-2.86-20.69.95-28.11,5.45-10.14,13.61-12.68,24.55-11.66,8.05.2,11.61,1.8,17.14,7.63,4.86,4.3,7.93,10.63,7.83,17.21-.13,3.29-1.57,6.32-2.99,9.21-.74,1.44-1.48,2.84-2.28,4.27-1.77,2.77-4.2,4.92-6.65,7.07-6.77,5.28-16.02,3.02-23.27.06-6.76-2.43-11.99-4.92-13.43-12.7-1-6.42-.23-13.05,1.78-19.2,1.81-5.23,5-8.19,10.48-9.28,7.79-2,16.68-1.66,23.42,3.13,5.17,3.83,9.21,9.91,9.08,16.53-.03,3.33-1.8,6.27-3.52,8.99-1.4,1.98-2.18,4.44-3.96,6.1-1.85,1.57-3.49,3.53-5.72,4.55-1.59.58-3.28.57-4.88.42-7.7-1.08-17.1-2.37-21.28-9.82-4.76-9.14.71-25.94,11.39-28.31,7.68-1.77,22.18,5.01,23.67,13.25.99,4.93-1.48,9.66-4.17,13.59-1.84,2.64-3.89,5.29-6.76,6.86-4.39,2.47-9.92.98-13.71-1.92-2.61-1.82-5.78-3.13-7.5-5.98-1.52-5.82-.92-12.51,2.27-17.67,3.69-5.13,11.56-4.86,16.87-3.69h0Z"/>
    </g>
  </g>
</svg>