<?xml version="1.0" encoding="UTF-8"?>
<svg id="_왼쪽_위" data-name="왼쪽_위" xmlns="http://www.w3.org/2000/svg" version="1.1" viewBox="0 0 208.67 296.34">
  <defs>
    <style>
      .cls-1 {
        fill: #ffec2d;
      }

      .cls-1, .cls-2, .cls-3 {
        stroke-width: 0px;
      }

      .cls-4, .cls-5, .cls-6, .cls-7, .cls-8, .cls-9 {
        stroke: #000;
        stroke-linecap: round;
        stroke-linejoin: round;
      }

      .cls-4, .cls-5, .cls-7, .cls-9 {
        stroke-width: 1.5px;
      }

      .cls-4, .cls-6, .cls-2 {
        fill: #00d675;
      }

      .cls-5 {
        fill: #ff6a37;
      }

      .cls-7, .cls-3 {
        fill: #000;
      }

      .cls-8 {
        fill: none;
        stroke-width: 1.3px;
      }

      .cls-9 {
        fill: #d793ff;
      }
    </style>
  </defs>
  <g>
    <path class="cls-4" d="M116.2,118.15s33.17,102.67,23.75,148.39c0,0-2.38,18.08-4.12,18.69,0,0,6.97,5.94,6.89,9.56-.09,3.61,6.37-6.32,6.37-6.32,0,0,.7-14.23,0-55.18-.7-40.95-25.18-118.5-25.18-118.5l-7.71,3.36Z"/>
    <g>
      <path class="cls-4" d="M145.86,173.32s-20.47-52.43,23.73-68.85c0,0,6.36-3.87,38.33-7.48,0,0-6.4,13.05-7.09,22.82-.69,9.77-8.78,30.08-32.7,44.66,0,0-18.57,10.3-22.27,8.85Z"/>
      <path class="cls-6" d="M142.48,185.29s3.43-12.81,8.19-27.71c4.76-14.9,20.82-47.15,53.66-57.94,0,0-39.77,16.43-53.66,65.97l-6.66,26.78"/>
      <g>
        <g>
          <path class="cls-3" d="M149.88,160.06c-1.39-5.47-2.16-11.4-5.9-15.85,5.13,2.55,6.77,10.62,5.9,15.85h0Z"/>
          <path class="cls-3" d="M153.74,149.05c-.73-3.55-1.31-7.04-2.22-10.44-.92-3.37-1.98-6.78-4.58-9.28,6.28,3.18,7.5,13.41,6.81,19.72h0Z"/>
          <path class="cls-3" d="M158.9,139.19c-1.38-5.78.03-16.14-7.32-17.92.89-.12,1.84,0,2.73.35,5.99,3.08,5.3,11.92,4.59,17.57h0Z"/>
          <path class="cls-3" d="M165.16,129.48c-.36-1.4.01-3.53.01-4.98.22-4.67.27-10.07-3.96-13.07,5.44,1.56,6.1,8.5,5.11,13.21-.23,1.64-1,3.5-1.17,4.85h0Z"/>
          <path class="cls-3" d="M172.58,120.46c.58-4.76,2.52-9.64,0-14.07,4.49,3.11,2.64,10.27,0,14.07h0Z"/>
          <path class="cls-3" d="M180.86,112.66c.15-3.38,1.7-6.28.93-9.59,2.84,2.22,1.17,7.35-.93,9.59h0Z"/>
          <path class="cls-3" d="M188.79,106.94c-.01-1.99,1.18-3.47.76-5.45,2.47.87,1.21,4.65-.76,5.45h0Z"/>
          <path class="cls-3" d="M151.06,164.24c4.67-4.82,12.04-7.63,18.68-5.98-6.7.52-12.73,2.88-18.68,5.98h0Z"/>
          <path class="cls-3" d="M154.72,153.7c7.51-4.52,17.09-5.81,25.53-3.45-8.68-.25-17.23.89-25.53,3.45h0Z"/>
          <path class="cls-3" d="M160.29,142c8.67-3.97,19.16-4.56,27.96-.65-9.32-1.84-18.7-1.28-27.96.65h0Z"/>
          <path class="cls-3" d="M165.46,133.58c8.35-4.62,19.18-6.15,28.04-2.1-9.42-1.95-18.86-.54-28.04,2.1h0Z"/>
          <path class="cls-3" d="M172.42,124.49c7.21-4.13,16.6-4.9,24.24-1.5-8.16-1.3-16.24-.63-24.24,1.5h0Z"/>
          <path class="cls-3" d="M180.04,116.48c4.92-4.07,12.33-4.13,18.05-1.84-6.09-.18-12.24-.29-18.05,1.84h0Z"/>
          <path class="cls-3" d="M190.43,107.87c1.79-1.57,4.47-1.72,6.67-1.06.74.22,1.45.56,2.08,1.06-1.52.17-2.91.09-4.39.07,0,0-4.36-.07-4.36-.07h0Z"/>
          <path class="cls-3" d="M152.09,153.53c-1.27-4.23-1.98-8.22-3.82-12.21,3.6,2.73,4.69,7.95,3.82,12.21h0Z"/>
          <path class="cls-3" d="M156.99,142.7c-.8-2.06-1.24-4.17-1.69-6.3-.43-1.84-.69-4.47-1.56-6.17,3.22,2.3,3.78,8.81,3.24,12.47h0Z"/>
          <path class="cls-3" d="M162.57,133.21c-.62-3.39-.54-6.65-.92-9.99-.19-1.02-.22-2.21-1.25-2.77,3.9.36,3.32,10.11,2.17,12.76h0Z"/>
          <path class="cls-3" d="M169.97,123.37c-.56-3.6.44-7.22-.69-10.71,3.02,2.17,2.23,7.82.69,10.71h0Z"/>
          <path class="cls-3" d="M177.94,115.16c-.39-2.85.37-5.2,0-7.98,2.38,1.83,1.66,5.88,0,7.98h0Z"/>
          <path class="cls-3" d="M186.01,108.78c-.35-1.2-.19-2.33.05-3.48.03-.33.18-.6-.05-1.08.56-.11,1.02.4,1.21.89.47,1.35-.04,2.85-1.21,3.66h0Z"/>
          <path class="cls-3" d="M194.34,103.8c-.08-.99.17-1.81.5-2.64.07-.19.13-.44-.03-.9,1.05-.26,1.57,1.23,1.22,2-.28.79-.84,1.37-1.7,1.54h0Z"/>
          <path class="cls-3" d="M148.05,165.96c-1-2.48-1.62-5.08-2.29-7.6-.25-.83-.46-1.64-.91-2.47.89.38,1.52,1.21,1.98,2.01,1.3,2.44,1.86,5.34,1.22,8.06h0Z"/>
          <path class="cls-3" d="M149.9,168.7c.89-1.55,2.34-2.65,3.9-3.45,1.57-.78,3.34-1.25,5.11-1.01-.76.49-1.51.85-2.25,1.24-2.21,1.11-4.39,2.28-6.76,3.22h0Z"/>
          <path class="cls-3" d="M152.99,158.27c2.41-2.42,5.68-3.93,9.06-4.35,1.14-.11,2.32-.08,3.42.26-1.12.29-2.15.57-3.18.89-3.07.99-6.14,2.27-9.29,3.2h0Z"/>
          <path class="cls-3" d="M157.63,147.14c3.61-2.57,8.7-3.96,12.93-2.24-4.4.4-8.53,1.61-12.93,2.24h0Z"/>
          <path class="cls-3" d="M163.31,136.88c5.86-2.62,13.09-4.24,19.29-1.97-6.53-.17-12.82,1.36-19.29,1.97h0Z"/>
          <path class="cls-3" d="M169.28,128.34c4.29-3.06,10.13-4.92,15.26-3-5.3.21-10.13,1.87-15.26,3h0Z"/>
          <path class="cls-3" d="M176.91,119.57c2.55-2.15,7.36-3.7,10.3-1.55-3.59-.01-6.67,1.31-10.3,1.55h0Z"/>
          <path class="cls-3" d="M196.53,103.8c.81-1.26,3.8-1.35,3.92.42-.45-.08-.7.04-1,.07-1.02.17-1.97.08-2.92-.49h0Z"/>
        </g>
        <path class="cls-3" d="M186.67,110.72c2.15-1.42,5.75-2.07,7.66,0-2.63-.05-5.06.65-7.66,0h0Z"/>
      </g>
    </g>
    <g>
      <g>
        <path class="cls-4" d="M129.75,232.27s-11.59,10.2-30.59,1.98c-5.61-2.43-10.63-6.05-14.91-10.42-5.06-5.17-13.27-14.23-19.01-23.92-2.28-3.85-8.12-6.92-10.51-9.28-2.54-2.52-.64-6.72,40.22-6.7,58.38.02,37.32,45.82,37.32,45.82"/>
        <g>
          <g>
            <path class="cls-2" d="M126.66,228.9s-12.22,1.9-21.13,3.58"/>
            <path class="cls-3" d="M126.66,228.9c-6.83,2.2-13.95,3.41-21.13,3.58,6.82-2.21,13.97-3.41,21.13-3.58h0Z"/>
          </g>
          <g>
            <path class="cls-2" d="M124.04,224.8s-16.36-.04-24.81,5.88"/>
            <path class="cls-3" d="M124.04,224.8c-8.31,1.32-17.15,2.2-24.81,5.88,6.6-5.53,16.49-6.67,24.81-5.88h0Z"/>
          </g>
          <g>
            <path class="cls-2" d="M121.39,221.37c-1.28.35-10.64-1.92-18.32,3.44"/>
            <path class="cls-3" d="M121.39,221.37c-1.36.38-3.36.29-4.76.41-4.71.18-9.23,1.07-13.56,3.03,4.77-4.76,12.14-4.89,18.32-3.44h0Z"/>
          </g>
          <g>
            <path class="cls-2" d="M116.1,216.02c-2.27,1.09-13.94-.44-22.08,7.85"/>
            <path class="cls-3" d="M116.1,216.02c-1.57.83-4.13,1-5.86,1.37-5.87.92-11.45,2.84-16.22,6.48,3.67-5,10.06-7.32,16.08-7.64,2-.19,4.02.08,6-.21h0Z"/>
          </g>
          <g>
            <path class="cls-2" d="M112.23,212.83s-13.92-.65-23.44,7.11"/>
            <path class="cls-3" d="M112.23,212.83c-8.26,1-16.27,2.81-23.44,7.11,5.92-6.06,15.21-8.25,23.44-7.11h0Z"/>
          </g>
          <g>
            <path class="cls-2" d="M106.78,208.95s-10.77-.02-21.67,6.53"/>
            <path class="cls-3" d="M106.78,208.95c-7.5,1.34-14.65,3.61-21.67,6.53,6-4.77,14.02-7.28,21.67-6.53h0Z"/>
          </g>
          <g>
            <path class="cls-2" d="M101.39,205.6s-15.05,1.96-19.35,5.28"/>
            <path class="cls-3" d="M101.39,205.6c-6.41,2.16-13.09,2.75-19.35,5.28,2.47-2.43,6-3.35,9.25-4.2,3.32-.73,6.69-1.21,10.1-1.08h0Z"/>
          </g>
          <g>
            <path class="cls-2" d="M97.37,203.34s-12.1-.3-20.4,4.9"/>
            <path class="cls-3" d="M97.37,203.34c-7.02,1.12-13.81,2.2-20.4,4.9,5.56-4.57,13.4-5.88,20.4-4.9h0Z"/>
          </g>
          <g>
            <path class="cls-2" d="M91.71,200.43s-9.52-.36-18.27,5.17"/>
            <path class="cls-3" d="M91.71,200.43c-6.38,1.07-12.32,2.73-18.27,5.17,4.88-4.27,11.88-6.21,18.27-5.17h0Z"/>
          </g>
          <g>
            <path class="cls-2" d="M84.27,196.98s-7.41,1.08-11.74,4.32"/>
            <path class="cls-3" d="M84.27,196.98c-3.78,1.7-7.92,2.83-11.74,4.32,2.8-3.3,7.53-4.65,11.74-4.32h0Z"/>
          </g>
          <g>
            <path class="cls-2" d="M68.07,198.01c2.3-5.74,10.32-3.24,10.32-3.24,0,0-4.94-6.55-2.19-8.57"/>
            <path class="cls-3" d="M68.07,198.01c1.03-4.57,6.75-5.16,10.54-3.95,0,0-.81,1.14-.81,1.14-.97-1.36-1.76-2.78-2.31-4.36-.48-1.44-.94-3.79.71-4.64-.58.6-.64,1.39-.48,2.11.54,2.22,1.96,4.17,3.26,6.01.43.54-.16,1.36-.81,1.14-3.5-.92-8.03-1-10.11,2.54h0Z"/>
          </g>
          <g>
            <path class="cls-2" d="M129.82,225.44s-1.41-16,1.97-23.07"/>
            <path class="cls-3" d="M129.82,225.44c-1.44-7.12-1.83-16.64,1.97-23.07-1.87,7.58-1.31,15.3-1.97,23.07h0Z"/>
          </g>
          <g>
            <path class="cls-2" d="M125.89,219.94c.22-1.76-1.59-14.35.77-25.17"/>
            <path class="cls-3" d="M125.89,219.94c-1.4-8.29-2.07-17.1.77-25.17-.79,8.41-.11,16.77-.77,25.17h0Z"/>
          </g>
          <g>
            <path class="cls-2" d="M120.4,213.9c.33-2.78-1.36-13.88,1.71-22.38"/>
            <path class="cls-3" d="M120.4,213.9c-1.04-7.4-1.88-15.51,1.71-22.38-1.57,7.46-.67,14.91-1.71,22.38h0Z"/>
          </g>
          <g>
            <path class="cls-2" d="M115.21,209.83s-.68-8.69.89-20.36"/>
            <path class="cls-3" d="M115.21,209.83c-1.42-6.7-1.01-13.78.89-20.36.16,6.84-.24,13.53-.89,20.36h0Z"/>
          </g>
          <g>
            <path class="cls-2" d="M111.5,207.36s-3.12-11,.14-18.82"/>
            <path class="cls-3" d="M111.5,207.36c-2.51-5.81-3.18-13.19.14-18.82-1.27,6.29-.6,12.44-.14,18.82h0Z"/>
          </g>
          <g>
            <path class="cls-2" d="M105.53,204.01s-1.18-8.63,1.25-16.73"/>
            <path class="cls-3" d="M105.53,204.01c-1.64-5.42-1.32-11.64,1.25-16.73-.54,5.64-.82,11.05-1.25,16.73h0Z"/>
          </g>
          <g>
            <path class="cls-2" d="M99.82,201.3s-1.04-7.3,1.57-14.01"/>
            <path class="cls-3" d="M99.82,201.3c-1.56-4.54-1.09-9.97,1.57-14.01-.66,4.74-1.04,9.22-1.57,14.01h0Z"/>
          </g>
          <g>
            <path class="cls-2" d="M94.99,199.14s-1.64-3.15,0-12.93"/>
            <path class="cls-3" d="M94.99,199.14c-2.35-3.79-1.63-8.99,0-12.93.24,2.2.11,4.34.05,6.51-.05,1.92-.24,4.51-.05,6.42h0Z"/>
          </g>
          <g>
            <path class="cls-2" d="M90.51,197.56s-2.64-6.79-1.72-11.36"/>
            <path class="cls-3" d="M90.51,197.56c-1.77-2.42-2.61-5.46-2.48-8.44.07-1,.27-2.02.76-2.92.13,1.01.27,1.93.41,2.86.47,2.78,1.13,5.6,1.31,8.49h0Z"/>
          </g>
          <g>
            <path class="cls-2" d="M86.43,196.12s-7-6.28-3.85-9.92"/>
            <path class="cls-3" d="M86.43,196.12c-3.18-1.48-7.46-6.94-3.85-9.92-.76,1.88-.03,3.44.85,5.06.93,1.65,2.04,3.17,3,4.86h0Z"/>
          </g>
          <g>
            <path class="cls-2" d="M70.67,191.52s-11.69-3.2-13.81-2.05"/>
            <path class="cls-3" d="M70.67,191.52c-4.75.06-9.29-1.78-13.81-2.05,1.01-.71,2.37-.7,3.55-.7,3.58.14,7.1,1.05,10.26,2.74h0Z"/>
          </g>
        </g>
      </g>
      <path class="cls-4" d="M140.6,276.48s-2.9-35.7-13.94-47.58c-1.91-2.06-7.03-19.33-55.99-37.38,0,0,30.05,6.96,45.98,19.39,0,0,14.84,8.56,26.24,42.56"/>
    </g>
  </g>
  <g>
    <g>
      <path class="cls-1" d="M165.93,90.22c-.63-.42-1.29-.81-1.96-1.19v-.83l.14.17s7.65-5.89,10.43-10.27c2.78-4.37-.13-6.6-.13-6.6-4.16-2.66-8.11-4.58-11.72-5.97v-.04l.03.05c6.61-5.86,7.47-11.65,4.13-14.53-3.33-2.88-13.57-1.81-13.59-1.81,2.01-4.92,2.47-9.19,2.47-9.19,0,0,1.34-4.42-4.79-4.86-6.12-.44-17.36,3.38-17.36,3.38l-.2.6s-.07-.02-.1-.03c5.85-10.86,4.11-16.45,3.61-19.98-.78-5.58-12.91,1.44-12.91,1.44-1.03.4-2.03.91-3.01,1.5-.14-.49-.29-.97-.49-1.44l-1.32-11.21s-1.63-7.48-7.02-3.81c-5.38,3.68-8.7,8.56-8.7,8.56-3.48-6.67-7.97-12.2-7.97-12.2,0,0-3.28-3.75-6.42,1.38-3.13,5.12-7.31,6.52-8.41,16.25,0,0-.02.02-.02.03-1.9-5.1-4.49-8.26-7.49-11.67-6.95-7.89-10.11.95-10.11.95-2.8,3.86-4.28,8.11-4.86,12.47-.41-.14-.83-.25-1.26-.35-1.56-1.52-4.85-4.26-10.83-7.3-8.84-4.51-7.3,15.42-7.23,16.29,0,.01,0,.03,0,.04-2.12-.6-4.22-1.02-6.29-1.38-11.33-1.95-9.55,7.35-9.55,7.35,1.79,4.97,4.06,9.27,6.58,12.99h-2.09c-6.58-1.14-15.86,1.92-15.86,1.92,0,0-7.84.38-4.48,5.87,3.36,5.49,8.82,10.13,8.82,10.13-4.01,1.13-8.51,2.62-11.67,4.31-7.06,3.77-1.64,7.17-1.64,7.17,7.08,7.59,20.43,10.28,21.37,10.46,0,.01,0,.02,0,.03-6.98,2.23-12.69,5.89-16.73,8.76-5.13,3.66,1.93,8.62,1.93,8.62.98.95,2.08,1.77,3.24,2.49,0,0-12.38,8.26-4.84,10.86,7.18,2.47,9.71,4.01,14.56,3.97,0,0,.01,0,.02,0h.73c-7.34,7.52-8.44,13.83-9.18,16.14-1.13,3.49,6.88,3.76,6.88,3.76,3.5.92,10.03-.7,16-2.67-.02.02-6.11,6.47-3.4,17.35,0,0-.06,5.15,5.7,3.71,5.77-1.44,7.32-3.24,7.32-3.24l-.17-.31h.11c1.08,4.89,3.18,9.07,5.68,11.77,5.36,5.8,15.07-7.73,15.07-7.73v-.04c.64,5.05,1.84,8.03,4.7,12.42,3.9,6,9.93-1.27,9.93-1.27.28-.3.54-.63.81-.94.02,0,.04.02.07.03.32.65,3.91,7.87,6.59,5.04,2.68-2.84,4.44-6.98,4.58-7.34,0,0,.02-.01.03-.02,1.45,2.19,3.37,4.55,5.91,6.97,0,0,2.78,2.88,6.16-2.23,2.75-4.16,5.3-8.27,5.46-13.3.02,0,.05,0,.08,0,2.35,4.43,9.04,9.13,9.04,9.13,7.97,6.54,8.61-1.19,8.61-1.19,0,0,.69-2.02,1.16-11.69.1-2.17-.92-5.21-2.55-8.63h.11l-.07.08s15,12.77,21.16,9.77c0,0,3.67-1.38,3.03-6.51-.63-5.11-1.05-9.75-9.12-20.19v-.08c7.22,3.49,12.75,4,17.96,3.89,9.98-.22,8.93-8.72,8.93-8.72,0,0-2.44-8.63-8.49-13.67-1.08-.9-2.34-1.77-3.7-2.61,0-.01,0-.03,0-.04l.19.16c.54.38,19.83-5.35,17.22-11.33-2.61-5.98-8.81-9.87-8.81-9.87ZM153.7,49.95c-.17-.18-.35-.35-.53-.51.03-.08.06-.15.09-.23l.43.74ZM103.5,14.2s-.03,0-.04.01c0-.01-.02-.03-.02-.04l.06.03ZM16.21,66.62c.02.08.04.15.06.23-.11.03-.21.06-.32.09l.26-.32ZM12.5,108.81s0,.02,0,.02l-.03-.05s.03.02.04.02ZM36.63,140.86h.04s0,.08,0,.08l-.04-.08Z"/>
      <g>
        <path class="cls-3" d="M106.78,58.68c3.3-7.28,7.53-14.14,12.58-20.33-3.29,7.29-7.54,14.13-12.58,20.33h0Z"/>
        <g>
          <path class="cls-3" d="M73.29,57.92c-5.58-8.51-10.4-19.85-9.02-30.19.76,10.45,5.24,20.52,9.02,30.19h0Z"/>
          <path class="cls-3" d="M70.48,35.75c3.08,6.6,5.22,13.62,6.33,20.82-3.09-6.6-5.22-13.63-6.33-20.82h0Z"/>
          <path class="cls-3" d="M80.98,55.46c-1.33-11.97-1.71-24.85-6.52-36.03,6.54,9.6,7.39,24.7,6.52,36.03h0Z"/>
          <path class="cls-3" d="M88,54.67c.84-10.31,1.13-20.52-.65-30.73,3.84,9.69,3.55,20.83.65,30.73h0Z"/>
          <path class="cls-3" d="M91.23,54.69c1.94-8.21,4.45-16.83,3.47-25.34,3.09,8.11.43,17.93-3.47,25.34h0Z"/>
          <path class="cls-3" d="M95.09,55.01c4.82-11.7,8.4-25.26,3.21-37.43.9,1.36,1.64,2.84,2.25,4.38,3.93,10.98.58,23.48-5.46,33.05h0Z"/>
          <path class="cls-3" d="M102.55,56.43c3.84-8.83,8.81-17.22,14.94-24.66-4.39,8.57-9.31,16.85-14.94,24.66h0Z"/>
          <path class="cls-3" d="M109.48,60.47c5.89-8.99,13.36-17.75,19.02-26.83.39-.62.64-1.29.95-1.97-.15.71-.28,1.47-.59,2.14-.76,2.07-1.87,4.06-3,5.94-4.65,7.51-10.18,14.44-16.38,20.73h0Z"/>
          <path class="cls-3" d="M111.72,62.19c2.74-4.06,6.36-7.94,9.63-11.55,1.08-1.24,2.35-2.39,3.16-3.83-.24,1.7-1.32,3.17-2.25,4.57-2.96,4.11-6.48,7.8-10.55,10.82h0Z"/>
          <path class="cls-3" d="M115.83,65.98c6.56-6.47,13.93-11.92,19.76-19.07-1.83,4.3-5.25,7.71-8.6,10.86-3.45,3.09-7.12,5.93-11.16,8.21h0Z"/>
          <path class="cls-3" d="M118.36,68.96c6.15-4.6,12.36-8.76,17.76-14.22-3.75,6.77-10.66,11.48-17.76,14.22h0Z"/>
          <path class="cls-3" d="M120.2,71.59c9.39-6.17,19.84-11.96,28.07-19.63.5-.57,1.01-1.13,1.55-1.7-5.61,9.33-19.71,17.15-29.62,21.32h0Z"/>
          <path class="cls-3" d="M122.53,75.41c4.33-2.38,8.88-4.26,13.49-5.98,4.65-1.6,9.37-3.3,14.31-3.64-9.3,3.16-18.29,7.09-27.8,9.62h0Z"/>
          <path class="cls-3" d="M123.36,77.99c5.87-2.37,11.95-4.09,18.12-5.46,6.15-1.16,12.64-2.56,18.86-1.12,0,0-1.18-.03-1.18-.03-2.67-.09-5.5.42-8.15.81-9.29,1.62-18.37,3.96-27.65,5.8h0Z"/>
          <path class="cls-3" d="M124.22,80.72c7.11-2.06,14.46-3.24,21.86-3.52,2.45.01,5.07-.16,7.36.86-2.42-.4-4.86.1-7.28.31,0,0-7.28.9-7.28.9-4.86.58-9.72,1.2-14.66,1.45h0Z"/>
          <path class="cls-3" d="M125.26,87.47c6.76-.71,13.6-.49,20.29.68,2.19.49,4.61.87,6.38,2.35-2.05-.91-4.35-.92-6.55-1.19-6.72-.6-13.41-.87-20.13-1.84h0Z"/>
          <path class="cls-3" d="M125.3,89.96c5.32.02,10.6.61,15.85,1.38,5.22.9,10.56,1.74,15.42,3.97-10.24-1.97-21.12-2.94-31.27-5.34h0Z"/>
          <path class="cls-3" d="M125.16,92.59c8.39.92,16.81,2.67,24.57,6.06-8.34-1.39-16.62-3.13-24.57-6.06h0Z"/>
          <path class="cls-3" d="M124.78,95.54c8.14,1.25,16.12,3.52,23.7,6.76-8.14-1.25-16.12-3.53-23.7-6.76h0Z"/>
          <path class="cls-3" d="M123.02,102.64c7.56,1.44,24.35,6.28,28.88,12.43-4.03-3.3-9.39-4.65-14.15-6.66-4.35-1.67-10.51-3.93-14.74-5.77h0Z"/>
          <path class="cls-3" d="M121.75,106.11c3.85.77,7.55,2.02,11.2,3.41,3.61,1.49,7.32,2.91,10.45,5.31-7.35-2.58-14.77-4.98-21.65-8.72h0Z"/>
          <path class="cls-3" d="M120.46,109.11c9.55,3.36,18.78,7.69,27.45,12.91-9.57-3.36-18.76-7.69-27.45-12.91h0Z"/>
          <path class="cls-3" d="M118.96,111.59c6.46,2.85,12.49,6.63,17.85,11.23-6.46-2.84-12.49-6.64-17.85-11.23h0Z"/>
          <path class="cls-3" d="M115.29,115.83c7.58,6.83,14.69,14.66,21.99,21.77-8.72-5.6-15.85-13.48-21.99-21.77h0Z"/>
          <path class="cls-3" d="M112.49,118.53c8.75,7.59,16.84,15.95,24.11,24.97-8.76-7.58-16.83-15.95-24.11-24.97h0Z"/>
          <path class="cls-3" d="M110.35,120.15c3.55,2.96,6.7,6.33,9.71,9.83,2.91,3.56,5.88,7.21,7.7,11.49-5.64-7.1-12.14-13.91-17.41-21.32h0Z"/>
          <path class="cls-3" d="M101.84,125.01c2.85,4.64,5.22,9.52,7.44,14.48,2.1,5,4.33,10.04,5.22,15.43-4.2-9.99-9.14-19.64-12.67-29.9h0Z"/>
          <path class="cls-3" d="M104.87,123.61c5.75,8.06,10.59,16.67,14.86,25.61-6.03-7.84-10.9-16.55-14.86-25.61h0Z"/>
          <path class="cls-3" d="M91.72,127.45c1.25,4.89,1.97,9.87,2.54,14.87.44,5,1.01,10.09.22,15.09-.97-9.99-2.63-19.9-2.76-29.96h0Z"/>
          <path class="cls-3" d="M94.11,127.17c2.44,7.16,3.9,14.65,4.31,22.21-2.45-7.16-3.89-14.65-4.31-22.21h0Z"/>
          <path class="cls-3" d="M96.36,126.74c3.65,10.32,6.34,20.98,7.99,31.8-3.66-10.32-6.33-20.98-7.99-31.8h0Z"/>
          <path class="cls-3" d="M78.18,126.01c-1.51,8.57-4.02,16.95-7.5,24.92,1.5-8.57,4.03-16.95,7.5-24.92h0Z"/>
          <path class="cls-3" d="M81.14,126.75c-.66,9.63-2.34,19.19-5.04,28.46.65-9.63,2.35-19.19,5.04-28.46h0Z"/>
          <path class="cls-3" d="M84.91,127.35c.59,6.89.15,13.86-1.31,20.62-.6-6.89-.15-13.86,1.31-20.62h0Z"/>
          <path class="cls-3" d="M60.38,67.71c-10.11-5.8-19.93-12.99-26.88-22.46,8.49,8.06,17.91,14.94,26.88,22.46h0Z"/>
          <path class="cls-3" d="M66.32,61.98c-6.71-7.83-12.73-16.24-20.54-23.05,4.66,2.4,8.41,6.24,11.8,10.16,3.34,3.99,6.36,8.25,8.75,12.89h0Z"/>
          <path class="cls-3" d="M63.09,64.63c-7.05-5.33-13.48-11.47-19.11-18.28,7.06,5.32,13.47,11.47,19.11,18.28h0Z"/>
          <path class="cls-3" d="M56.59,72.17c-11.35-5.01-22.22-10.92-32.59-17.74,11.35,5,22.22,10.93,32.59,17.74h0Z"/>
          <path class="cls-3" d="M33.26,64.73c-2.92-.87-5.67-2.09-8.44-3.28-2.44-1-5.71-2.83-8.29-3.31,3.05-.62,6.12.85,8.9,1.94,2.78,1.27,5.45,2.72,7.83,4.65h0Z"/>
          <path class="cls-3" d="M51.8,85.1c-8.21-.92-17.14-2.75-25.26-4.36-2.45-.44-5.94-1.32-8.4-1.41,1.38-.28,2.91-.21,4.31-.15,9.97.79,19.82,2.91,29.36,5.91h0Z"/>
          <path class="cls-3" d="M52.56,81.3c-6.32-.98-12.61-2.35-18.47-4.97,6.36.61,12.78,2.04,18.47,4.97h0Z"/>
          <path class="cls-3" d="M53.71,77.23c-9.79-3.37-19.66-6.98-30.14-7.11,10.25-2.02,21.38,1.88,30.14,7.11h0Z"/>
          <path class="cls-3" d="M51.29,92.6c-8.48-.4-16.8-1.07-25.2.28,7.88-3.4,17.14-2.73,25.2-.28h0Z"/>
          <path class="cls-3" d="M51.67,96.97c-10.52,1.68-21.2,2.34-31.84,1.96,10.52-1.68,21.2-2.33,31.84-1.96h0Z"/>
          <path class="cls-3" d="M52.55,101.11c-3.91,1.9-8.06,3.16-12.29,4.09-4.23.82-8.69,1.5-12.95.47,8.61-.5,16.75-3.1,25.24-4.56h0Z"/>
          <path class="cls-3" d="M55.62,108.51c-8.38,4.85-17.48,9.2-25.65,14.39,7.05-6.94,16.32-11.37,25.65-14.39h0Z"/>
          <path class="cls-3" d="M57.29,111.18c-5.02,4.48-10.72,8.18-16.87,10.93,5.02-4.48,10.73-8.17,16.87-10.93h0Z"/>
          <path class="cls-3" d="M59.5,114.07c-3.73,4.04-7.91,7.62-12.24,10.99-4.4,3.23-8.94,6.64-14.24,8.24,9.39-5.62,17.42-13.07,26.48-19.23h0Z"/>
          <path class="cls-3" d="M61.79,116.68c-2.78,3.66-5.98,6.94-9.34,10.05-3.44,2.94-6.93,6.34-11.34,7.71.5-.31.98-.57,1.43-.94,6.51-5.26,12.61-11.72,19.26-16.83h0Z"/>
          <path class="cls-3" d="M66.67,120.65c-5.6,7.98-11.08,15.87-14.85,24.88,1.76-9.67,7.71-18.32,14.85-24.88h0Z"/>
          <path class="cls-3" d="M69.77,122.65c-4.49,10.51-10.68,20.79-15.09,31.33.99-5.77,3.67-11.09,6.19-16.32,2.67-5.18,5.53-10.25,8.9-15.01h0Z"/>
          <path class="cls-3" d="M72.3,123.89c-1.44,3.71-3.84,8.88-5.47,12.56-1.74,4.18-3.9,8.23-4.57,12.76-.36-2.27.2-4.68.79-6.88,2.04-6.6,5.22-12.84,9.25-18.44h0Z"/>
          <path class="cls-3" d="M63.27,48.15c-2.49-4.45-4.61-9.04-6.72-13.64-1.91-4.03-4.16-9.93-6.4-13.72,1.84,1.78,3.11,4.08,4.36,6.28,3.63,6.71,6.62,13.76,8.77,21.08h0Z"/>
          <path class="cls-3" d="M36.05,112.61c-3.79,1.28-7.73,1.96-11.69,2.39-3.92.24-8.22.7-11.87-1.05,3.92.56,7.81-.15,11.73-.44,3.94-.36,7.86-.8,11.84-.89h0Z"/>
          <path class="cls-3" d="M48.34,135.84c-2.91,6.7-6.73,12.86-8.26,20.04-.68-7.14,3.74-14.79,8.26-20.04h0Z"/>
          <path class="cls-3" d="M88.28,160.23c.58,2.23.67,4.49.6,6.77-.15,2.26-.31,4.63-1.47,6.65-.07-4.51-.29-9.01.87-13.42h0Z"/>
          <path class="cls-3" d="M144.56,61.93c4.85-2.6,9.62-5.75,14.77-7.74-4.08,3.76-9.16,7.05-14.77,7.74h0Z"/>
          <path class="cls-3" d="M105.42,40.03c1.46-4.41,3.18-8.67,4.8-12.96,1.45-4.28,3.64-8.51,3.69-13.1,1.83,6.8-4.76,20.2-8.49,26.05h0Z"/>
          <path class="cls-3" d="M163.32,60.13c-6.5.4-13.14,1.33-19.6,2,6.05-2.7,13.14-3.67,19.6-2h0Z"/>
          <path class="cls-3" d="M45.52,24.15c6.87,6.2,12.92,13.65,16.6,22.19-5.31-7.28-11.43-14.83-16.6-22.19h0Z"/>
          <path class="cls-3" d="M17.36,118.35c5.96-1.45,11.61-2.94,17.36-5.01-4.74,3.92-11.28,5.66-17.36,5.01h0Z"/>
          <path class="cls-3" d="M47.21,136.31c-1.92,2.66-4.02,5.08-6.02,7.58-1.89,2.51-4.24,4.85-4.97,8-.71-5.49,6.75-12.72,10.99-15.58h0Z"/>
        </g>
      </g>
      <path class="cls-8" d="M57.63,70.71s-24.77-7.17-34.65-34.68c0,0-1.78-9.3,9.55-7.35,11.33,1.95,23.26,5.75,36.87,31.24,0,0-20.99-30.9-6.39-51,0,0,3.17-8.84,10.11-.95,6.95,7.89,11.72,14.47,10.8,46.98"/>
      <path class="cls-8" d="M38.84,30.06s-1.81-20.94,7.23-16.33c9.04,4.61,11.98,8.54,11.98,8.54"/>
      <path class="cls-8" d="M80.63,19.67c1.08-9.8,5.28-11.19,8.41-16.32s6.42-1.38,6.42-1.38c0,0,11.63,14.31,11.96,24.63s-8.74,28.89-8.74,28.89c0,0,9.77-28.86,25.3-34.93,0,0,12.13-7.02,12.91-1.44.78,5.58,4.69,16.25-23.09,44.74"/>
      <path class="cls-8" d="M103.44,14.17s3.32-4.88,8.7-8.56c5.38-3.68,7.02,3.81,7.02,3.81l1.5,12.76"/>
      <path class="cls-8" d="M133.59,38.54s11.23-3.83,17.36-3.38c6.13.44,4.79,4.86,4.79,4.86,0,0-1.23,11.55-8.61,18.56-7.38,7-25.63,15.16-25.63,15.16"/>
      <path class="cls-8" d="M142.62,62.16s14.01-2.03,31.8,9.35c0,0,2.91,2.22.13,6.6s-10.43,10.27-10.43,10.27"/>
      <path class="cls-8" d="M124.92,84.06s25.7-4.04,41.01,6.16c0,0,6.2,3.9,8.81,9.87s-16.68,11.71-17.22,11.33"/>
      <path class="cls-8" d="M153.27,49.21s10.26-1.07,13.59,1.81c3.33,2.88,2.48,8.67-4.13,14.53"/>
      <path class="cls-8" d="M124.03,99.15s26.41,5.95,36.99,14.76c6.05,5.04,8.49,13.67,8.49,13.67,0,0,1.05,8.51-8.93,8.72-9.98.22-21.14-1.84-43.17-22.83"/>
      <path class="cls-8" d="M108.76,121.26s21.76,27.05,21.29,36.71c-.47,9.66-1.16,11.69-1.16,11.69,0,0-.64,7.73-8.61,1.19,0,0-6.83-4.79-9.11-9.26"/>
      <path class="cls-8" d="M127.54,149.42s15,12.77,21.16,9.77c0,0,3.67-1.38,3.03-6.51s-1.05-9.79-9.21-20.31"/>
      <path class="cls-8" d="M89.7,127.52s5.62,31.12-8.14,46c0,0-6.03,7.28-9.93,1.27s-4.72-9.34-5.23-18.95c-.51-9.61,6.29-23.01,9.54-30.56"/>
      <path class="cls-8" d="M89.13,158.17s-.11,9.07,10.42,19.08c0,0,2.78,2.88,6.16-2.23,3.38-5.11,6.46-10.16,5.16-16.93s-11.83-32.1-11.83-32.1"/>
      <path class="cls-8" d="M66.94,162.41s-9.71,13.53-15.07,7.73c-5.36-5.8-8.93-18.31-4.38-30.21,2.85-7.46,16.77-20.89,16.77-20.89"/>
      <path class="cls-8" d="M49.5,135.87s-21.38,9.62-28.87,7.66c0,0-8.01-.27-6.88-3.76,1.13-3.49,3.03-16.09,26.05-28.22l14.51-5.66"/>
      <path class="cls-8" d="M37.18,112.99s-18.82,2.19-27.96-6.69c0,0-7.07-4.96-1.93-8.62,5.13-3.66,12.98-8.6,22.71-10.23,9.72-1.62,21.39,1.39,21.39,1.39"/>
      <path class="cls-8" d="M24.07,88.89s-14.09-2.6-21.43-10.47c0,0-5.42-3.41,1.64-7.17,7.06-3.77,20.79-6.56,20.79-6.56,0,0,18.82-.53,30.25,9.51"/>
      <path class="cls-8" d="M15.95,66.93s-5.45-4.64-8.82-10.13,4.48-5.87,4.48-5.87c0,0,12.11-3.99,18.47-1.15"/>
      <path class="cls-8" d="M12.46,108.79S.08,117.05,7.63,119.65c7.55,2.6,9.95,4.17,15.33,3.96"/>
      <path class="cls-8" d="M36.63,140.86s-6.11,6.46-3.41,17.35c0,0-.06,5.15,5.7,3.71,5.77-1.44,7.32-3.24,7.32-3.24"/>
      <path class="cls-8" d="M82.41,172.55s3.81,8.05,6.61,5.09c2.8-2.97,4.6-7.37,4.6-7.37"/>
    </g>
    <g>
      <g>
        <path class="cls-5" d="M53.11,77.35c.78-2.55,4.33-3.88,3.51-6.49,1.19-.64,2.86-1.51,2.27-2.89,3.67.13,2.24-3.68,4.57-3.16,1.39-.74.15-2.38,2.25-1.49-.01-1.66,1.08-2.98,2.81-2.2,1.65-2.38,6-2.58,8.46-5.35,2.19,2.34,2.95-1.14,5.38-1.25,1.22,1.89,1.23.36,2.76-.1,1.26,2.06,1.16-.36,2.75.12,2.37-1.87,4.91,2.12,7.26.18.96,1.06,1.78,1.37,2.73.21.6,1.66,2.76.97,4.53.9,2.02.35,2.64,2.31,4.95,2.58.07,1.98,2.6.91,2.41,2.93,1.67-.06,2.2,2.04,4.36,1.88-.3,2.02,2.64,1.39,1.55,3.62.5.97,1.55.36,2.29.42-.27,1.28,0,1.31,1.16,1.46,1.01,2.31,1.06,5.3,3.81,6.4-.64,1.12-.86,1.33.44,1.83.1,2.27.17,4.76,2.08,6.15.05,2.12-1.48,4.63-.08,6.48-.77,1.22-.55,2.04.54,2.8-.36,1.34-1.93,1.51-.5,2.75-1.93.84-1.9,3-.88,4.54-1.24,1.12-1.96,2.77-1.4,4.41-.73,1.41-2.24,2.26-1.91,4.21-1.21.87-1.65,1.21-1.14,2.59-1.31.22-2.01.9-1.61,2.25-2.65-.3-1.75,3.26-4.42,3.36-1.59.68.18,3.54-2.91,2.13.24,1.55-.6,1.86-2.07,1.72-.04,2.84-2.25.91-3.83,2.33-3.07,3.64-13.39,5.85-17.14,4.38-2.03,1.47-4.79-.78-7.36.21-1.49-1.98-4.27.24-4.9-2.77-2.78.88-4.95-.93-6.63-2.74-1.31-.63-3.93-.51-3.86-2.37-3.92-3-7.86-6.68-10.55-11.38-.87-.89-1.26-1.7-.54-2.79-1.57-.38-1.7-2.94-1.04-4.4-1.86-1.44-2.74-4.27-1.11-6.16-1.24-1.51-1.61-10.14.6-10.75-3.11-2.01,1.55-4.53.39-6.53Z"/>
        <g>
          <path class="cls-3" d="M66.13,62.83c4.38-1.17,8.84-1.8,13.32-2.36,7.4-1.31,14.8-3.18,22.29-3.66-7.25,2.01-14.82,2.7-22.24,3.91-4.35.87-9.1,2.02-13.37,2.1h0Z"/>
          <path class="cls-3" d="M61.31,67.71c5.73-1.4,11.55-2.26,17.39-3.05,9.66-1.73,19.24-3.85,29.02-4.84.04,0,.06.07.01.07-9.55,2.3-19.3,3.46-28.99,5.02-5.7,1.1-11.81,2.48-17.43,2.8h0Z"/>
          <path class="cls-3" d="M58.04,72.32c6.58-1.55,13.25-2.55,19.93-3.48,11.07-1.97,22.07-4.33,33.26-5.56.04,0,.06.07.01.07-10.97,2.54-22.13,3.94-33.23,5.75-6.55,1.24-13.51,2.77-19.97,3.23h0Z"/>
          <path class="cls-3" d="M54.96,76.9c7.51-1.71,15.11-2.87,22.73-3.96,12.62-2.23,25.18-4.86,37.92-6.36.05,0,.06.07.01.07-12.52,2.8-25.24,4.47-37.89,6.54-7.48,1.4-15.38,3.09-22.77,3.7h0Z"/>
          <path class="cls-3" d="M52.06,81.45c8.39-1.85,16.87-3.16,25.36-4.41,14.09-2.48,28.1-5.36,42.31-7.1.05,0,.06.07.01.07-13.98,3.06-28.17,4.97-42.28,7.29-8.36,1.55-17.13,3.39-25.4,4.15h0Z"/>
          <path class="cls-3" d="M51.58,85.59c8.47-1.87,17.03-3.19,25.6-4.45,14.22-2.5,28.36-5.41,42.7-7.17.05,0,.06.07.01.07-14.12,3.08-28.43,5.01-42.67,7.35-8.44,1.56-17.29,3.42-25.64,4.19h0Z"/>
          <path class="cls-3" d="M51.51,89.66c8.65-1.9,17.4-3.25,26.15-4.54,14.53-2.55,28.98-5.51,43.63-7.33.05,0,.06.07.01.07-14.43,3.13-29.05,5.12-43.6,7.51-8.63,1.6-17.66,3.48-26.2,4.29h0Z"/>
          <path class="cls-3" d="M52.18,93.61c8.86-1.94,17.82-3.33,26.78-4.65,14.88-2.61,29.68-5.63,44.68-7.51.05,0,.06.07.01.07-14.77,3.19-29.74,5.23-44.65,7.69-8.83,1.63-18.08,3.55-26.82,4.39h0Z"/>
          <path class="cls-3" d="M51.64,97.75c8.92-1.95,17.94-3.35,26.97-4.68,14.98-2.63,29.88-5.67,44.98-7.56.05,0,.06.07.01.07-14.88,3.21-29.95,5.27-44.95,7.74-8.9,1.64-18.2,3.57-27.01,4.42h0Z"/>
          <path class="cls-3" d="M52.47,101.67c8.99-1.96,18.08-3.37,27.17-4.72,15.09-2.65,30.12-5.71,45.33-7.62.05,0,.06.07.01.07-14.99,3.23-30.18,5.31-45.3,7.8-8.97,1.65-18.34,3.59-27.22,4.46h0Z"/>
          <path class="cls-3" d="M53.96,105.47c8.69-1.91,17.48-3.27,26.28-4.56,14.6-2.56,29.12-5.54,43.84-7.36.05,0,.06.07.01.07-14.5,3.14-29.19,5.14-43.81,7.55-8.67,1.6-17.75,3.49-26.32,4.31h0Z"/>
          <path class="cls-3" d="M54.26,109.48c8.73-1.91,17.55-3.28,26.38-4.58,14.65-2.57,29.23-5.56,44.01-7.39.05,0,.06.07.01.07-14.55,3.15-29.3,5.16-43.98,7.57-8.7,1.61-17.81,3.5-26.42,4.33h0Z"/>
          <path class="cls-3" d="M56.4,113.17c8.3-1.84,16.69-3.14,25.1-4.36,13.94-2.45,27.81-5.31,41.87-7.03.05,0,.06.07.01.07-13.84,3.03-27.87,4.92-41.84,7.21-8.27,1.54-16.96,3.36-25.14,4.11h0Z"/>
          <path class="cls-3" d="M61.02,116.45c7.53-1.71,15.14-2.87,22.77-3.97,12.65-2.24,25.22-4.87,37.99-6.37.04,0,.06.07.01.07-12.55,2.81-25.29,4.48-37.96,6.55-7.5,1.4-15.4,3.09-22.81,3.71h0Z"/>
          <path class="cls-3" d="M65.6,119.72c6.68-1.56,13.45-2.58,20.23-3.54,11.24-2,22.41-4.39,33.77-5.65.04,0,.06.07.01.07-11.14,2.57-22.47,4-33.73,5.83-6.65,1.26-13.71,2.81-20.28,3.28h0Z"/>
          <path class="cls-3" d="M70.64,122.92c5.58-1.38,11.24-2.21,16.92-2.97,9.4-1.69,18.73-3.77,28.24-4.71.04,0,.06.07.01.07-9.3,2.26-18.79,3.38-28.21,4.89-5.55,1.07-11.5,2.43-16.97,2.72h0Z"/>
          <path class="cls-3" d="M77.65,125.79c3.93-1.09,7.95-1.66,11.99-2.12,6.65-1.2,13.31-2.93,20.06-3.29-6.51,1.88-13.34,2.47-20.02,3.53-3.9.82-8.21,1.87-12.03,1.89h0Z"/>
        </g>
        <g>
          <path class="cls-3" d="M92.88,55.81c3.92,2.27,7.53,4.98,11.09,7.75,6.16,4.31,12.71,8.21,18.35,13.17-6.55-3.7-12.39-8.57-18.5-12.96-3.69-2.46-7.86-5.01-10.94-7.96h0Z"/>
          <path class="cls-3" d="M86.02,55.85c5.04,3.06,9.77,6.57,14.45,10.14,8.05,5.6,16.33,10.88,23.94,17.09.04.03,0,.09-.04.06-8.38-5.13-16.1-11.2-24.05-16.94-4.81-3.25-10.11-6.6-14.3-10.35h0Z"/>
          <path class="cls-3" d="M80.45,56.8c5.75,3.56,11.17,7.56,16.56,11.63,9.22,6.43,18.67,12.54,27.45,19.58.04.03,0,.09-.04.06-9.55-5.96-18.44-12.86-27.56-19.43-5.51-3.75-11.51-7.59-16.41-11.84h0Z"/>
          <path class="cls-3" d="M75.03,57.86c6.52,4.11,12.71,8.66,18.87,13.27,10.51,7.35,21.24,14.36,31.31,22.32.04.03,0,.09-.04.06-10.84-6.87-21.01-14.68-31.42-22.17-6.28-4.3-13.06-8.69-18.72-13.48h0Z"/>
          <path class="cls-3" d="M69.76,59.03c7.24,4.62,14.17,9.69,21.05,14.82,11.71,8.21,23.66,16.08,34.94,24.89.04.03,0,.09-.04.06-12.05-7.73-23.43-16.4-35.05-24.74-7.01-4.82-14.51-9.72-20.9-15.03h0Z"/>
          <path class="cls-3" d="M66.5,61.62c7.31,4.67,14.3,9.78,21.25,14.96,11.82,8.29,23.88,16.23,35.27,25.13.04.03,0,.09-.04.06-12.16-7.8-23.64-16.56-35.37-24.98-7.07-4.86-14.64-9.81-21.1-15.17h0Z"/>
          <path class="cls-3" d="M63.57,64.44c7.46,4.78,14.6,10,21.71,15.28,12.08,8.47,24.39,16.59,36.04,25.67.04.03,0,.09-.04.06-12.41-7.99-24.16-16.92-36.14-25.52-7.23-4.97-14.95-10.03-21.56-15.49h0Z"/>
          <path class="cls-3" d="M61.25,67.71c7.63,4.9,14.95,10.25,22.22,15.65,12.36,8.67,24.97,17,36.9,26.28.04.03,0,.09-.04.06-12.7-8.19-24.73-17.33-37.01-26.13-7.4-5.09-15.29-10.27-22.07-15.86h0Z"/>
          <path class="cls-3" d="M57.94,70.26c7.69,4.93,15.05,10.32,22.38,15.76,12.45,8.73,25.14,17.12,37.15,26.46.04.03,0,.09-.04.06-12.79-8.25-24.9-17.45-37.26-26.31-7.45-5.13-15.4-10.35-22.23-15.97h0Z"/>
          <path class="cls-3" d="M55.76,73.62c7.74,4.98,15.17,10.4,22.55,15.88,12.55,8.8,25.33,17.26,37.44,26.67.04.03,0,.09-.04.06-12.88-8.32-25.09-17.59-37.55-26.52-7.51-5.17-15.51-10.43-22.4-16.09h0Z"/>
          <path class="cls-3" d="M54.12,77.36c7.5,4.8,14.67,10.05,21.81,15.36,12.13,8.51,24.51,16.68,36.21,25.79.04.03,0,.09-.04.06-12.47-8.03-24.27-17-36.31-25.64-7.26-5-15.02-10.08-21.66-15.57h0Z"/>
          <path class="cls-3" d="M51.5,80.4c7.52,4.82,14.73,10.09,21.89,15.41,12.18,8.54,24.6,16.74,36.35,25.89.04.03,0,.09-.04.06-12.52-8.06-24.36-17.07-36.45-25.74-7.29-5.02-15.07-10.12-21.74-15.63h0Z"/>
          <path class="cls-3" d="M50.4,84.53c7.17,4.57,14.02,9.59,20.83,14.66,11.59,8.12,23.42,15.91,34.58,24.64.04.03,0,.09-.04.06-11.93-7.64-23.19-16.23-34.69-24.49-6.94-4.76-14.37-9.62-20.68-14.87h0Z"/>
          <path class="cls-3" d="M51.35,90.11c6.53,4.11,12.74,8.68,18.91,13.3,10.52,7.36,21.28,14.39,31.37,22.36.04.03,0,.09-.04.06-10.86-6.89-21.05-14.71-31.47-22.21-6.29-4.31-13.08-8.71-18.76-13.51h0Z"/>
          <path class="cls-3" d="M52.28,95.67c5.83,3.62,11.34,7.68,16.81,11.81,9.36,6.53,18.95,12.74,27.87,19.88.04.03,0,.09-.04.06-9.69-6.06-18.72-13.06-27.98-19.73-5.6-3.81-11.68-7.71-16.66-12.02h0Z"/>
          <path class="cls-3" d="M53.58,101.49c4.92,2.97,9.51,6.39,14.07,9.86,7.84,5.45,15.9,10.58,23.3,16.64.04.03,0,.09-.04.06-8.17-4.98-15.67-10.9-23.41-16.49-4.68-3.16-9.85-6.42-13.92-10.08h0Z"/>
          <path class="cls-3" d="M56.51,108.48c3.55,2.01,6.8,4.45,9.98,6.98,5.56,3.85,11.49,7.34,16.51,11.86-5.93-3.27-11.17-7.69-16.65-11.66-3.34-2.18-7.13-4.49-9.84-7.17h0Z"/>
        </g>
      </g>
      <path class="cls-9" d="M66.21,82.32c.49-1.61,2.73-2.45,2.21-4.09.75-.4,1.8-.95,1.43-1.82,2.31.08,1.41-2.32,2.88-1.99.88-.46.09-1.5,1.41-.94,0-1.05.68-1.88,1.77-1.39,1.04-1.5,3.78-1.63,5.33-3.37,1.38,1.47,1.86-.72,3.39-.79.77,1.19.78.23,1.74-.06.79,1.3.73-.22,1.73.07,1.5-1.18,3.09,1.34,4.57.11.61.67,1.12.86,1.72.13.38,1.05,1.74.61,2.86.56,1.27.22,1.66,1.45,3.12,1.62.05,1.25,1.64.58,1.52,1.85,1.05-.04,1.38,1.29,2.75,1.19-.19,1.27,1.66.88.98,2.28.31.61.98.23,1.44.26-.17.81,0,.83.73.92.64,1.45.67,3.34,2.4,4.03-.41.71-.54.84.28,1.15.06,1.43.1,3,1.31,3.87.03,1.34-.93,2.92-.05,4.08-.49.77-.35,1.29.34,1.76-.23.85-1.22.95-.31,1.73-1.22.53-1.2,1.89-.55,2.86-.78.71-1.23,1.75-.88,2.78-.46.89-1.41,1.42-1.2,2.65-.76.55-1.04.77-.72,1.63-.83.14-1.26.57-1.02,1.42-1.67-.19-1.1,2.05-2.78,2.12-1,.43.12,2.23-1.83,1.34.15.98-.38,1.17-1.3,1.09-.02,1.79-1.42.58-2.41,1.47-1.94,2.29-8.44,3.69-10.79,2.76-1.28.93-3.02-.49-4.64.13-.94-1.25-2.69.15-3.08-1.74-1.75.55-3.12-.59-4.17-1.73-.82-.4-2.48-.32-2.43-1.49-2.47-1.89-4.95-4.21-6.65-7.17-.55-.56-.79-1.07-.34-1.76-.99-.24-1.07-1.85-.65-2.77-1.17-.91-1.72-2.69-.7-3.88-.78-.95-1.01-6.39.38-6.77-1.96-1.27.98-2.85.24-4.11Z"/>
      <path class="cls-7" d="M74.36,85.42c.31-1.02,1.73-1.55,1.4-2.6.48-.25,1.14-.6.91-1.16,1.47.05.9-1.47,1.83-1.26.56-.29.06-.95.9-.6,0-.66.43-1.19,1.12-.88.66-.95,2.4-1.03,3.38-2.14.87.94,1.18-.45,2.15-.5.49.76.49.15,1.1-.04.5.82.46-.14,1.1.05.95-.75,1.96.85,2.9.07.38.42.71.55,1.09.08.24.67,1.1.39,1.81.36.81.14,1.06.92,1.98,1.03.03.79,1.04.37.96,1.17.67-.03.88.82,1.74.75-.12.81,1.05.56.62,1.45.2.39.62.14.92.17-.11.51,0,.53.46.58.4.92.42,2.12,1.52,2.56-.26.45-.34.53.18.73.04.91.07,1.9.83,2.46.02.85-.59,1.85-.03,2.59-.31.49-.22.82.22,1.12-.14.54-.77.61-.2,1.1-.77.34-.76,1.2-.35,1.82-.49.45-.78,1.11-.56,1.76-.29.56-.89.9-.76,1.68-.48.35-.66.49-.46,1.04-.52.09-.8.36-.64.9-1.06-.12-.7,1.3-1.77,1.34-.64.27.07,1.42-1.16.85.1.62-.24.74-.83.69-.01,1.14-.9.37-1.53.93-1.23,1.46-5.35,2.34-6.85,1.75-.81.59-1.92-.31-2.94.08-.59-.79-1.7.1-1.96-1.11-1.11.35-1.98-.37-2.65-1.1-.52-.25-1.57-.21-1.54-.95-1.57-1.2-3.14-2.67-4.22-4.55-.35-.35-.5-.68-.22-1.11-.63-.15-.68-1.17-.41-1.76-.74-.58-1.09-1.71-.45-2.46-.49-.6-.64-4.05.24-4.3-1.24-.8.62-1.81.16-2.61Z"/>
    </g>
  </g>
</svg>