<?xml version="1.0" encoding="UTF-8"?>
<svg id="_왼쪽_위" data-name="왼쪽_위" xmlns="http://www.w3.org/2000/svg" version="1.1" viewBox="0 0 210.54 332.82">
  <defs>
    <style>
      .cls-1 {
        fill: #ffec2d;
      }

      .cls-1, .cls-2, .cls-3, .cls-4 {
        stroke-width: 0px;
      }

      .cls-2 {
        fill: #d793ff;
      }

      .cls-5 {
        stroke-width: 1.4px;
      }

      .cls-5, .cls-6, .cls-7 {
        stroke: #111114;
        stroke-linecap: round;
        stroke-linejoin: round;
      }

      .cls-5, .cls-7 {
        fill: none;
      }

      .cls-6 {
        fill: #00d675;
      }

      .cls-6, .cls-7 {
        stroke-width: 1.2px;
      }

      .cls-3 {
        fill: #ff6a37;
      }

      .cls-4 {
        fill: #111114;
      }
    </style>
  </defs>
  <g>
    <path class="cls-6" d="M87.75,212.57c-31.44-21.57-71.16-18.85-71.16-18.85,12.88-1.92,59.74,15.11,68.29,21.14,8.54,6.03,16.81,20.39,16.81,20.39l.27-5.58s-4.78-10.91-14.21-17.1c0,0,9.97-23.63-25.72-29.17-35.69-5.54-47.58,1.96-47.58,1.96,0,0-11.08,4.4-13.85,8.15,0,0,7.17,0,14.67,11.24,7.5,11.24,20.37,19.72,39.76,22.81,19.39,3.1,33.83-5.7,34.11-7.33l.32-1.19"/>
    <g>
      <path class="cls-4" d="M83.82,210.02c-1.85-5.85-3.45-12.23-6.14-17.74-.41-.8-.89-1.54-1.43-2.26,2.66,2.5,3.93,6.12,5.13,9.47,1.11,3.43,1.97,6.95,2.43,10.53h0Z"/>
      <path class="cls-4" d="M74.06,204.8c-1.32-4.98-2.07-10.17-4.46-14.79,3.36,4.05,4.24,9.67,4.46,14.79h0Z"/>
      <path class="cls-4" d="M66.7,201.72c-.58-4.68-1.84-9.55-5-13.17-.4-.56-.96-.97-1.43-1.49,4.94,2.89,6.95,9.2,6.43,14.67h0Z"/>
      <path class="cls-4" d="M59.14,199.17c-.5-5.12-3.17-9.67-6.72-13.3,4.34,2.8,7.37,8.07,6.72,13.3h0Z"/>
      <path class="cls-4" d="M52.42,197.36c-1.59-4.46-3.31-8.83-6.32-12.53,3.83,2.92,5.83,7.84,6.32,12.53h0Z"/>
      <path class="cls-4" d="M86.69,216.26c-3.41,2.15-7,3.98-10.68,5.6-3.69,1.44-7.58,3.31-11.64,2.95,4-.25,7.64-2.23,11.32-3.68,3.68-1.59,7.31-3.27,11-4.87h0Z"/>
      <path class="cls-4" d="M80.03,212.15c-6.15,4.99-13.24,9.04-20.89,11.18,7.25-3.17,14.12-7.09,20.89-11.18h0Z"/>
      <path class="cls-4" d="M73.43,209.16c-6.66,5.93-14.49,10.99-23.18,13.27,8.32-3.32,15.84-8.19,23.18-13.27h0Z"/>
      <path class="cls-4" d="M67.8,206.88c-7.23,6.04-15.52,11.3-24.71,13.68,8.83-3.41,16.83-8.5,24.71-13.68h0Z"/>
      <path class="cls-4" d="M61.84,204.61c-3.7,2.78-7.59,5.27-11.51,7.72-4,2.29-7.93,4.87-12.36,6.26,8.08-4.1,15.87-9.67,23.87-13.97h0Z"/>
      <path class="cls-4" d="M54.89,202.15c-3.33,2.66-6.87,5-10.49,7.23-3.68,2.01-7.4,4.57-11.67,5.02,4.09-1.05,7.61-3.64,11.25-5.7,3.66-2.15,7.22-4.43,10.91-6.55h0Z"/>
      <path class="cls-4" d="M48.39,200.01c-5.6,5.31-12.4,9.72-19.95,11.59,7.16-2.9,13.66-7.13,19.95-11.59h0Z"/>
      <path class="cls-4" d="M42.11,198.11c-2.17,2.03-4.58,3.79-7.09,5.38-2.53,1.5-5.23,3.09-8.21,3.38.35-.13.71-.23,1.05-.36,4.96-2.19,9.6-5.66,14.26-8.4h0Z"/>
      <path class="cls-4" d="M46.1,196.01c-1.63-4.57-3.73-9.41-8.13-11.92,5.01,1.48,7.63,7.07,8.13,11.92h0Z"/>
      <path class="cls-4" d="M40.78,195.11c-1.66-4.56-4.17-8.92-8.71-11.02,5.05,1.01,8.21,6.19,8.71,11.02h0Z"/>
      <path class="cls-4" d="M34.46,194.32c-1.17-3.91-3.99-6.91-7.05-9.49,3.72,1.62,7,5.28,7.05,9.49h0Z"/>
      <path class="cls-4" d="M29.01,193.87c0-.92-.59-1.66-1.1-2.37-1.72-2.12-3.88-3.71-5.86-5.63,2.65,1.24,7.61,4.64,6.96,8h0Z"/>
      <path class="cls-4" d="M36.43,196.55c-3.82,4.66-9.75,7.27-15.59,8.25,5.53-2.05,11.04-4.42,15.59-8.25h0Z"/>
      <path class="cls-4" d="M30.37,195.11c-2.12,3.16-6.21,4.66-9.92,4.51,3.54-.99,7.02-2.18,9.92-4.51h0Z"/>
    </g>
  </g>
  <path class="cls-6" d="M112,174.72s-3.17,72.89,0,87c0,0-2.42,58.81,1.52,70.5l-10.14-3.35c3.72-7.96-2.24-92.08-2.24-92.08.87-23.35,0-45.6,0-45.6"/>
  <g>
    <path class="cls-2" d="M202.53,110.55s4.5-2.45,0-7.57c-4.23-4.81-14.98-10.15-16.23-10.77l.02-.11c12.38-4.02,15.27-9.62,17.57-12.73,3.72-5.02-11.33-8.9-11.33-8.9-1.2-.51-2.47-.91-3.79-1.21v-.21s8.65-11.15,8.65-11.15c0,0,4.53-7.19-2.59-8.47-7.12-1.28-13.54,0-13.54,0,2.43-7.98,3.18-15.85,3.18-15.85,0,0,.32-5.52-6.15-3.9-6.47,1.62-10.87-.55-19.34,6.36,2.48-5.53,2.89-10.06,3.17-15.09.65-11.65-8.73-7.12-8.73-7.12-5.57.93-10.31,3.38-14.32,6.69,0,0,.74-5.39-2.82-16.07-3.56-10.67-18.41,7.29-18.41,7.29-1.21-2.13-2.54-4.1-3.91-6-7.44-10.35-13.26-1.62-13.26-1.62-2.63,5.69-4.21,11.21-5.08,16.42l-.05-.02h.05c-2.82-7.19-15.5-13.46-15.5-13.46,0,0-6.5-5.8-8.11,1.16-1.61,6.96-.91,14.87-.91,14.87l.14-.02v.09c-4.09-2.24-8.87-4.61-12.72-5.74-8.51-2.51-6.88,4.4-6.88,4.4-.31,11.93,8.8,24.94,8.8,24.94l1.26.44-.34.04c-7.56-4.04-15.35-5.68-21.02-6.59-6.91-1.1-5.18,8.32-5.18,8.32.03,1.54.27,3.06.65,4.55l-.03.02v-.08s-16.2-3.1-12.26,4.82c3.8,7.63,4.57,10.8,8.57,14.6l.04.45c-11.39.32-17.05,4.38-19.41,5.61-3.61,1.88,2.51,8.32,2.51,8.32,2.05,3.45,8.47,7.25,14.73,10.33-.06,0-9.87.38-16.18,11.06,0,0-4.06,4.02,1.62,7.37,5.68,3.34,8.31,3.14,8.31,3.14l.17-.58.16.07c-3.04,4.77-4.67,9.79-4.8,13.94-.27,8.75,17.93,5.61,17.93,5.61l.03-.03c-3.42,4.49-4.78,7.78-5.95,13.47-1.59,7.78,8.84,6.71,8.84,6.71.52-.02,1.03-.08,1.54-.13l.06.14-.18-.12s-3.25,9.33,1.27,9.16c4.52-.17,9.37-2.25,9.37-2.25l-.11-.07.14-.04c-.57,2.89-.91,6.29-.78,10.25,0,0-.04,4.44,6.61,3.03,5.47-1.16,10.75-2.45,14.81-6.42l-.04.05c-1.67,5.31,0,14.41,0,14.41,1.21,11.37,7.73,5.76,7.73,5.76,0,0,2.12-1.06,10.01-8.34,1.75-1.61,3.29-4.75,4.64-8.65h.03c.12,1.29,2.15,21.77,9.12,24.11,0,0,3.97,1.76,7.46-2.79,3.47-4.53,6.75-8.52,8.49-23.02l.08-.04c2.99,8.34,6.96,13.03,11.15,16.99,8.06,7.59,13.84.05,13.84.05,0,0,4.78-8.71,3.92-17.41-.14-1.43-.42-2.96-.8-4.54l.07-.03c1.51,1.37,19.82,10.8,22.31,4.31,2.59-6.75.72-14.65.72-14.65-.14-.69-.32-1.38-.51-2.06l.72-.79c1.52.17,10.88,1.16,16.01-.03,5.6-1.29,5.03-5.32,5.03-5.32-1.22-5.33-2.84-9.91-4.61-13.82l.02-.04v.05c9.77.51,14.95-3.4,14.56-8.27-.35-4.29-7.31-10.32-8.98-11.7l-.13-.39c5.29-2.31,8.86-5.24,8.86-5.24ZM181.31,49.46h-.01s0-.01,0-.02v.02ZM158.88,36.92l-.24-.1c.12-.26.24-.52.36-.77l-.12.87ZM138.93,20.69c-.05-.1-.09-.19-.14-.29l.32.13c-.06.05-.12.1-.18.15ZM118.31,11.94l-.27.11c-.05-.1-.11-.2-.17-.29l.44.18ZM29.96,97.62s.1.05.15.07l-.37.7.22-.77ZM74.63,169.84c.16-.21.32-.43.47-.65l.07.03-.54.62Z"/>
    <g>
      <g>
        <path class="cls-1" d="M92.28,60.04c2.42-1.15,2.07-.84,5.27-1.6,1.5-.35,3.53.74,5.53.5,1.64-.2,3.35-.8,5.26-.81,1.7,0,3.4.59,5.26.8,1.71.2,3.71-.84,5.5-.4,1.67.41,3.46.96,5.18,1.63,1.61.63,3.33,1.36,4.95,2.25,1.51.83,2.23,3.01,3.73,4.1,1.39,1.01,3.3,1.44,4.66,2.7,1.26,1.16,2.74,2.25,3.97,3.64,1.14,1.29,1.28,3.44,2.37,4.94,1.02,1.39,2.88,2.28,3.85,3.87,1.25,2.43.74,2.04,1.56,5.27.39,1.52,1.43,3.25,1.72,5.27.24,1.68.19,3.6.25,5.53.05,1.74-.32,3.61-.5,5.49-.17,1.76-.29,3.62-.72,5.45-.41,1.72-1.88,3.15-2.58,4.88-.66,1.64-1.21,3.31-2.17,4.93-.9,1.51-2.01,2.87-3.21,4.33-1.11,1.35-1.77,3.2-3.16,4.49-1.28,1.18-3.1,1.81-4.64,2.92-1.41,1.02-3.06,1.71-4.71,2.65-1.51.86-2.58,2.75-4.31,3.54-1.59.73-3.69.26-5.47.92-2.68.81-1.89,1.32-5.3,1.58-1.61.12-3.5-.08-5.59-.16-1.74-.06-3.62.04-5.58-.27-1.76-.27-3.74-.19-5.6-.74-1.73-.5-3.68-.9-5.44-1.69-1.65-.74-3.3-1.83-4.92-2.87-1.52-.97-2.56-2.75-4.02-4.02-1.35-1.18-3.07-2.12-4.34-3.59-1.17-1.36-2.31-2.89-3.38-4.52-.98-1.49-2.14-3.04-3.02-4.78-.81-1.6-.81-3.65-1.52-5.47-.98-2.54-.93-1.91-1.55-5.17-.29-1.54-1-3.32-1.13-5.36-.11-1.68.86-3.5.97-5.42.1-1.73-.45-3.6-.08-5.46.34-1.71,1.32-3.31,1.95-5.08.58-1.65,1.23-3.29,2.12-4.95.82-1.54,1.22-3.43,2.33-4.95,1.03-1.41,1.85-3.18,3.16-4.55,1.2-1.25,3.2-1.83,4.66-3.03,1.34-1.1,2.6-2.47,4.18-3.51,1.45-.95,2.81-2.39,4.48-3.28Z"/>
        <path class="cls-5" d="M92.28,60.04c2.42-1.15,2.07-.84,5.27-1.6,1.5-.35,3.53.74,5.53.5,1.64-.2,3.35-.8,5.26-.81,1.7,0,3.4.59,5.26.8,1.71.2,3.71-.84,5.5-.4,1.67.41,3.46.96,5.18,1.63,1.61.63,3.33,1.36,4.95,2.25,1.51.83,2.23,3.01,3.73,4.1,1.39,1.01,3.3,1.44,4.66,2.7,1.26,1.16,2.74,2.25,3.97,3.64,1.14,1.29,1.28,3.44,2.37,4.94,1.02,1.39,2.88,2.28,3.85,3.87,1.25,2.43.74,2.04,1.56,5.27.39,1.52,1.43,3.25,1.72,5.27.24,1.68.19,3.6.25,5.53.05,1.74-.32,3.61-.5,5.49-.17,1.76-.29,3.62-.72,5.45-.41,1.72-1.88,3.15-2.58,4.88-.66,1.64-1.21,3.31-2.17,4.93-.9,1.51-2.01,2.87-3.21,4.33-1.11,1.35-1.77,3.2-3.16,4.49-1.28,1.18-3.1,1.81-4.64,2.92-1.41,1.02-3.06,1.71-4.71,2.65-1.51.86-2.58,2.75-4.31,3.54-1.59.73-3.69.26-5.47.92-2.68.81-1.89,1.32-5.3,1.58-1.61.12-3.5-.08-5.59-.16-1.74-.06-3.62.04-5.58-.27-1.76-.27-3.74-.19-5.6-.74-1.73-.5-3.68-.9-5.44-1.69-1.65-.74-3.3-1.83-4.92-2.87-1.52-.97-2.56-2.75-4.02-4.02-1.35-1.18-3.07-2.12-4.34-3.59-1.17-1.36-2.31-2.89-3.38-4.52-.98-1.49-2.14-3.04-3.02-4.78-.81-1.6-.81-3.65-1.52-5.47-.98-2.54-.93-1.91-1.55-5.17-.29-1.54-1-3.32-1.13-5.36-.11-1.68.86-3.5.97-5.42.1-1.73-.45-3.6-.08-5.46.34-1.71,1.32-3.31,1.95-5.08.58-1.65,1.23-3.29,2.12-4.95.82-1.54,1.22-3.43,2.33-4.95,1.03-1.41,1.85-3.18,3.16-4.55,1.2-1.25,3.2-1.83,4.66-3.03,1.34-1.1,2.6-2.47,4.18-3.51,1.45-.95,2.81-2.39,4.48-3.28Z"/>
      </g>
      <path class="cls-5" d="M101.12,58.51s-14-24.93-.42-54.37c0,0,5.82-8.73,13.26,1.62s14.08,21.81,5.02,52.54c0,0,7.27-39.92,34.44-44.45,0,0,9.38-4.53,8.73,7.12s-1.99,20.55-28.01,45.54"/>
      <path class="cls-5" d="M117.87,11.76s14.86-17.96,18.41-7.29,2.82,16.07,2.82,16.07"/>
      <path class="cls-5" d="M158.99,36.05c8.47-6.91,12.88-4.74,19.35-6.36s6.15,3.9,6.15,3.9c0,0-1.94,20.36-9.7,28.77-7.76,8.41-29.38,16.04-29.38,16.04,0,0,30.17-15.22,47.17-7.94,0,0,15.05,3.88,11.33,8.9-3.72,5.02-8.93,16.5-53.05,17.41"/>
      <path class="cls-5" d="M181.3,49.45s6.42-1.28,13.54,0c7.12,1.28,2.59,8.47,2.59,8.47l-8.73,11.25"/>
      <path class="cls-5" d="M186.18,92.15s11.86,5.71,16.36,10.83,0,7.57,0,7.57c0,0-9.95,8.18-21.23,7.98-11.28-.2-32.06-7.95-32.06-7.95"/>
      <path class="cls-5" d="M174.94,117.85s12.66,9.29,17.87,32.12c0,0,.57,4.02-5.03,5.32s-16.23,0-16.23,0"/>
      <path class="cls-5" d="M143.92,121.39s23.46,16.8,27.62,36.77c0,0,1.87,7.9-.72,14.65s-22.29-3.72-22.42-4.44"/>
      <path class="cls-5" d="M193.44,115.89s8.94,7.13,9.34,12c.39,4.87-4.79,8.78-14.57,8.27"/>
      <path class="cls-5" d="M131.72,133.01s16.01,24.87,17.52,40.06c.87,8.69-3.92,17.41-3.92,17.41,0,0-5.78,7.54-13.84-.05-8.06-7.59-15.28-17.9-16.37-51.62"/>
      <path class="cls-5" d="M102.22,138.23s-3.84,38.3-11.72,45.58c-7.88,7.28-10.01,8.34-10.01,8.34,0,0-6.52,5.61-7.73-5.76,0,0-1.67-9.1,0-14.41"/>
      <path class="cls-5" d="M95.16,175.1s1.93,21.76,9.13,24.18c0,0,3.97,1.76,7.46-2.79,3.49-4.55,6.78-8.55,8.51-23.21"/>
      <path class="cls-5" d="M82.12,128.58s-19.6,28.74-42.05,29.8c0,0-10.43,1.06-8.84-6.71,1.59-7.78,3.53-11.06,10.6-19.05,7.07-7.99,22.45-13.12,30.89-16.57"/>
      <path class="cls-5" d="M57.99,152.14s-7.14,7.08-6.61,23.19c0,0-.04,4.44,6.61,3.03,6.65-1.41,13.01-3,17.25-9.37,4.24-6.36,15.47-34.22,15.47-34.22"/>
      <path class="cls-5" d="M37.16,138.23s-18.19,3.15-17.93-5.61c.27-8.75,7.18-21.42,20.04-27.29,8.06-3.68,29.51-3.47,29.51-3.47"/>
      <path class="cls-5" d="M44,103.69s-24.38-9.02-28.78-16.4c0,0-6.12-6.44-2.51-8.32,3.61-1.88,14.91-10.36,42.54-2.04l15.52,6.66"/>
      <path class="cls-5" d="M52.06,76.02s-16.58-12.91-16.9-27.04c0,0-1.73-9.42,5.18-8.32,6.91,1.1,16.95,3.3,25.9,9.58,8.95,6.28,15.83,17.74,15.83,17.74"/>
      <path class="cls-5" d="M60.44,46.77s-9.11-13.01-8.8-24.94c0,0-1.63-6.91,6.88-4.4,8.51,2.51,21.54,10.99,21.54,10.99,0,0,15.29,14.21,16.51,31.05"/>
      <path class="cls-5" d="M71.1,23.1s-.7-7.91.91-14.87,8.11-1.16,8.11-1.16c0,0,12.68,6.27,15.5,13.46"/>
      <path class="cls-5" d="M35.79,53.48s-16.21-3.1-12.27,4.82c3.94,7.93,4.62,11.04,9.04,15.05"/>
      <path class="cls-5" d="M29.96,97.62s-9.86.35-16.18,11.06c0,0-4.06,4.02,1.62,7.37,5.68,3.34,8.31,3.14,8.31,3.14"/>
      <path class="cls-5" d="M41.5,158.28s-3.25,9.33,1.27,9.16,9.37-2.25,9.37-2.25"/>
      <g>
        <path class="cls-4" d="M102.1,71.07c-.19.12-.04.17.51-.07l.33-.31-.85.38Z"/>
        <path class="cls-4" d="M105.96,69.76c.62-.36,1.34-.79.85-.76-.6.41-.79.42-1.4.9-.55.26-.99.38-.92.29-.18.13-.87.35-1.13.57.78-.19,1.68-.6,2.6-1.12.22-.05.04.07,0,.12Z"/>
        <path class="cls-4" d="M139.51,106.47l.08-.37c-.02.1-.05.23-.08.37Z"/>
        <path class="cls-4" d="M113.44,129.28c.26-.05.37-.11.37-.12-.24.07-.44.12-.37.12Z"/>
        <path class="cls-4" d="M107.28,129.75c.13,0,.24,0,.36,0-.14,0-.27-.02-.36,0Z"/>
        <path class="cls-4" d="M139.51,106.47c-.08.31-.16.62-.26.93.04.08.17-.46.26-.93Z"/>
        <path class="cls-4" d="M113.96,68.65c-.2-.04-.38-.06-.53-.07.17.03.33.06.5.09.01,0,.02-.01.04-.02Z"/>
        <path class="cls-4" d="M138.48,90.93l-.14-.27c-.06-.07-.12-.14-.17-.2l.31.46Z"/>
        <path class="cls-4" d="M132.69,80.19c.18.22.34.2.46.25-.15-.08-.3-.23-.47-.41-.02.01-.02.06,0,.16Z"/>
        <path class="cls-4" d="M116.52,69.89l-.34-.08c.09.02.24.05.34.08Z"/>
        <path class="cls-4" d="M139.83,99.28s-.03.07-.04.13c.02,0,.03-.05.04-.13Z"/>
        <path class="cls-4" d="M87.34,70.09s.01,0,.02.02c.05-.07.06-.09-.02-.02Z"/>
        <path class="cls-4" d="M99.57,62.62l-.19.05s-.03.06-.02.09l.22-.13Z"/>
        <path class="cls-4" d="M96.95,126.14s.02.02.03.03c.21.15.1.06-.03-.03Z"/>
        <path class="cls-4" d="M127.76,70.02c-.89-.79,1.66.99.29-.16.11.14-1.46-.77-.29.16Z"/>
        <path class="cls-4" d="M114.27,68.74c.16.04.33.08.5.12-.23-.06-.38-.09-.5-.12Z"/>
        <path class="cls-4" d="M128.05,69.86h0s-.14-.12-.14-.12c.06.05.09.08.14.12Z"/>
        <path class="cls-4" d="M81.26,106.39c0,.06,0,.17.01.28.01-.01.01-.08-.01-.28Z"/>
        <path class="cls-4" d="M91.92,121.66l-.45-.22c.18.09.32.16.45.22Z"/>
        <path class="cls-4" d="M79.2,96.71c.03-.26.06-.35.08-.7,0,.03-.02.07-.03.11,0,.13,0,.3-.05.6Z"/>
        <path class="cls-4" d="M81.96,86.64s-.07.11-.1.16c-.04.09-.08.21-.12.3.07-.16.14-.31.22-.46Z"/>
        <path class="cls-4" d="M73.21,98.36c.02-.24.06-.39.1-.51-.09.17-.19-1.45-.1.51Z"/>
        <path class="cls-4" d="M113.95,68.73c.07-.02.16-.02.32.01-.12-.02-.24-.05-.35-.07-.03.01-.05.03.03.06Z"/>
        <path class="cls-4" d="M78.13,96.17c.06-.57.14-1.14.23-1.71-.08.48-.17,1.1-.23,1.71Z"/>
        <path class="cls-4" d="M129.08,129.45l-.35.21c.14-.07.26-.14.35-.21Z"/>
        <path class="cls-4" d="M79.66,89.48c.15-.27.3-.56.43-.86.02-.07.04-.15.04-.2l-.47,1.06Z"/>
        <path class="cls-4" d="M73.31,97.84h0s0,0,0,0Z"/>
        <path class="cls-4" d="M74.92,86.67c-.56,1.48-.1.76-.11,1.12-.63,1.84-.44.8-.76,1.4-.36,1.2-.35,2.23-.46,3.11-.04.06-.07.24-.08.03-.02,1.31-.35,3.78-.15,5.32-.01.11-.03.17-.04.2.09-.25.18-.29.25-.24.02.73.21,1.34.11,1.62-.04-.44-.09-.48-.15-.68l.13.76c-.1.7-.17-1.03-.28-1.03.16,1.5.61,3.18.61,4.28-.11.25-.32-2.58-.3-1.09l-.15-1.74c-.1,1.37-.11-1.07-.25.2.24,2.32.45,2.45.29,4.74.07.53.15-.17.22.36.02,1.66.08,2.36.18,2.97.11.59.28,1.14,1.14,2.05.46.43.88.45,1.71,1.85-.15-.12-.31-.23-.46-.34.58.83.7,1.11.91,1.38.19.27.35.56.75,1.67-.24-.36-.74-1.59-.63-1.27.45,1.44.5.94.99,2.02l-.05.3c.53,1.12,1.41,2.22,2.41,3.05.98.86,2.05,1.63,2.82,2.59-.13-.08-.43-.37-.11.11.49.6.93,1.33,1.42,2.07.25.37.52.75.83,1.1.31.36.69.69,1.02.96,1.38,1.15,2.81,2.16,4.11,3.1l1.11.56c.24.16.41.34.14.2,1.04.72.1-.04.65.23.61.37.77.56.35.37.98.5,2.37,1.31,3.93,1.84,1.53.53,3.06.93,4.06,1.45l-.43-.12c1.63.7,1.96.55,3.56,1.18l-.33-.07c.99.32,1.99.44,2.99.6,1,.15,2.02.25,3.01.29,2.03.08,3.86-.35,5.32-.44.26-.13,1.32-.32,2.2-.69.89-.36,1.68-.73,1.74-.91,2.1-.68,1.44-.26,4.6-1.04.85-.25,1.23-.71,2.08-1.18l.09.13,1.2-.74.77-.15c.29-.16.59-.31.88-.48-.36.18-.79.32-.75.25.68-.36,1.54-.8,2.2-1.24.66-.44,1.11-.87,1.15-.85.84-.98,1.43-2.05,2.09-3.02,0,.1-.32.59-.56,1,.97-1.63.31-.22,1.24-1.63-.17.15,0-.15.01-.2.63-.57,1.96-2.12,2.9-3.27l-.11.29c.44-.51.89-1.03,1.36-1.57.41-.52.88-1.03,1.37-1.57.49-.53,1-1.09,1.48-1.7.49-.62.9-1.29,1.28-1.95-.61.93-.63.61-.19-.17l.32-.23c.19-.55-.51.79-.04-.31.55-.99.52-.59.26.02l.58-1.25c.08-.05-.04.25-.02.35.16-.56,1.2-2.02,1.39-2.87l.08-.05c.63-1.41.98-2.47,1.26-3.48.3-1.01.46-2.04.54-3.29-.13-.06-.05-1.04-.16-1.77.02-.92.11-1.78.25-2.79.12-.99.26-2.08.06-3.26-.42-1.56-.22-.43-.47-1.1.11-.15-.55-2.24-.13-1.18-.4-1.26-.7-2.04-1.05-2.9-.09-.21-.19-.43-.29-.66-.12-.25-.25-.51-.42-.77-.33-.52-.77-1.06-1.34-1.67.2.31.44.64.27.5-.41-.45-.85-1.07-.75-1.04l.11.11c-.64-.66-1.26-1.39-1.64-2.26-.4-.88-.64-1.88-.97-2.87-.17-.5-.36-1-.61-1.47-.25-.48-.58-.91-.87-1.28-.61-.74-1.25-1.35-1.84-1.81l.13.11-2.33-1.97c-.97-1.01.66.52-.02-.27-1.23-1.08-2.14-2-2.99-2.88-.81-.89-1.78-1.71-2.92-2.43-.37-.39-.95-.83-1.58-1.34-.62-.53-1.48-1.14-2.34-1.62-1.75-.97-3.6-1.82-4.93-2.46l.12.14c-.73-.19-.83-.37-1.35-.56.05.09.74.34.29.23-.77-.24-1.48-.47-2.34-.64-.87-.13-1.68-.09-2.48-.07-.8.03-1.59.07-2.37.07-.76,0-1.55-.07-2.36-.12-.81-.05-1.65-.09-2.52.01-.83.11-1.61.21-2.43.35-.81.15-1.64.31-2.49.69-.91.45-1.47.98-2.11,1.46-.9.71-1.08.97-1.35,1.27-.27.3-.6.6-1.94,1.21l.64-.55c-.98.63-2.06,1.14-3.07,2.07-.12.12-.24.25-.36.39-.12.15-.22.3-.29.41l-.5.72c-.34.47-.7.94-1.07,1.39-.73.91-1.53,1.82-2.24,2.78-.71.95-1.36,1.89-2.07,2.74.15-.22.12-.26.39-.59-.69.6-2.31,2.74-2.24,2.8-.47.54-.17.07-.5.38-.69.71-1.44,1.96-1.87,2.29-.07.06.15-.24.25-.38-.2.26-.66.85-1.02,1.32-.36.49-.59.87-.35.65-.54.72-.95,1.49-1.25,2.25-.29.77-.52,1.42-.81,2.06-.2.88-1.09,2.78-.94,3.14-.09-.1-.36.64-.54,1.56-.18.91-.28,1.98-.28,2.54-.03-.37-.17.95-.22.51-.12,1.26-.12,2.4,0,2.19-.1.55-.15,1.18-.08,1.79.06.6.21,1.17.39,1.68.35,1.02.77,1.84.85,2.49.78,1.59,1.1,3.32,1.73,5,.62,1.73,1.74,3.1,2.7,4.42-.12.01-.66-.72-1.18-1.46-.52-.74-.95-1.52-1.02-1.4.84,1.43,1.69,2.36,2.42,3.34.76.96,1.34,1.99,2.1,3.39.39.72-.32-.35-.48-.58.8,1.34,1.6,2.78,2.92,3.76,1.37.96,2.78,1.24,3.92,1.9-.02.01-.27-.11-.52-.22.48.22.99.65,1.01.54-.14-.08-.28-.18-.43-.26-.32-.27.18-.1.72.24.55.33,1.07.92,1.13.94-.79-.58,1.58,2.26.4,1.29.23.29.56.63.56.52.34.45.44.61,0,.22.69.79,1.05.96,1.32,1.12.3.17.56.28,1.36.68-.03.04-.36-.1-.56-.14.88.33,1.74.66,3.18,1.2-.1,0,.06.1-.38-.06.62.22,1.26.36,1.79.48.55.13,1.09.29,1.64.44,1.09.31,2.29.63,3.75.64-.86.22.99.07,1.15.22.52-.05,1.04-.13,1.54-.21l-.63-.02c1.35-.14,2.49-.46,3.65-.53l-.98.2c.8-.1,1.71-.21,2.52-.51-.47.13-.96.23-1.45.27.69-.16.63-.23.64-.27,0-.05.08-.06.94-.32-.33.16,1.27-.47,1.93-.71h0c.57-.34,1.15-.72,2.07-1.08.26-.05-.1.27.07.24.5-.44,2.9-1.13,3.61-1.61-.24.14-.22.24-.13.22l.47-.33c.59-.22.68-.25.62-.13.87-.43.69-.44.57-.41-.13,0-.17.05.79-.56-.14.11-.05.09-.36.31.99-.63,1.71-1.43,2.46-2.18.74-.76,1.42-1.54,2.11-2.3.55-.34-1.15,1.39-.57.97.49-.56.97-1.15,1.42-1.77.47-.59.88-1.33,1.21-1.98.68-1.34,1.51-2.58,2.85-3.05-.16.06-.32.13-.47.21.1-.21.6-.4,1.23-.6.63-.2,1.43-.42,2.02-.95-.29.24-.34.39-.26.32.95-.55,1.56-1.51,2-2.57.23-.53.41-1.11.62-1.7.2-.58.5-1.23.68-1.97l-.04.38c.47-1.12.62-3.03.83-4.25-.01-.38.07-1.09-.08-.67.2-.95.28-1.91.24-2.85-.02-.47-.09-.93-.1-1.34,0-.43.03-.87.07-1.3.08-.88.18-1.77.11-2.67-.05-.9-.36-1.76-.67-2.57.19.37.46.89.33.58-.42-.92-.94-1.73-1.4-2.57,0,.25.11.37.33.94-.24-.29-.68-.98-.98-1.63.64,1.14.14-.09.01-.62,0,.1-.1-.06-.12,0-.3-1.48-.32-.15-.8-2.17l.09.09c-.26-.73-.55-1.39-.9-2.15-.02-.38.4.73.51.75-.42-1.14-1.3-1.96-1.79-2.9.32.38.73.98,1.02,1.39-.49-1.07-.62-1.16-1.1-1.87l.05.07c-.38-.55-.77-1.09-1.17-1.62l.29.42c-1.2-.92-1.94-2.28-3.39-3.64,1.41,1.33.3.16.51.17-.29-.42-.79-1.02-.61-.89-.74-.59-1.05-1.27-2.33-1.86-.02-.08-.9-.5-.66-.51-1.15-.51.23.2.1.22-.88-.38-1.89-.81-3.01-1.29-1.11-.46-2.19-1.07-3.41-1.67-1.02-.55-1.67-.83-2.3-1.07-.63-.24-1.26-.44-2.3-.69-.68-.28.62,0,.62,0-1.1-.42-1.97-.64-3.06-.84.23.01.01-.08-.31-.21-.87-.18-.62.04-1.75-.27.21-.01.48-.05.91-.01-.52-.09-1.04-.16-1.56-.22-.51-.07-1.1-.11-1.65-.05-.31-.08.68-.17,1.1-.14-.65-.09-1.5-.01-2.19.17-.69.18-1.23.42-1.38.55.25-.07.51-.14.77-.2-.43.13-.26-.05.06-.16,1.02-.38,1.54-.22,1.6-.19-.26.03-.52.07-.78.13.42.07,1.18-.05,2.06.06.86.11,1.83.22,2.58.41l-.68.06,1.59.19c.32.14.51.3-.24.15,1.05.37.97.17,1.86.54.1.05.05.04-.05.02l1.06.25c-.22-.02.13.19-.5-.03,1.8.64,2.92,1.08,3.49,1.56l-.15-.07c2.37,1.29.3,0,2.15.85.34.33.68.65,1.05.96l.31-.03c.25.12.76.34.65.36,1.01.29-.14-.13.46,0,.6.31,1.47.62,2.19.95.72.32,1.28.69,1.34.87.47.16-1.03-.75.22-.06.19.42,1.33.98,2.05,2-.35-.2-1.08-1.07-.34-.11.67.38,1.49,1.85,2.19,2.62.17-.07,1.52,1.66,2.56,3.04-.06-.03.41.65.9,1.53.48.88.81,2.07,1.01,2.85l-.04-.04c.27.23.68,1.89,1.3,2.96-.12,0-.27-.17-.58-.77.15.36.32.71.5,1.06.18.22.38.52.75,1.16l-.26-.19c.73,1.31,1.66,2.59,1.35,4.52.11.13.46-1.53.39.55-.08.07-.2.13-.18-.41,0,.18,0,.63-.08.98l-.02-.83c-.15.87.04.47-.06,1.17-.1-.03-.13.52-.2.41.01-.18.12-.62.11-.89-.13.78-.28,1.78-.32,2.13.05-.09.13.02.19.59.09,1.49-.08.52-.12,1.38.08.36-.06,1.3.08,1.34-.04.44-.12.51-.18.67-.03.78-.48,3.63-.2,2.77l.04-.2s0,.08-.01.13h0s0,0,0,0c-.06.64-.17,1.28-.37,1.9-.18.62-.5,1.21-.75,1.84-.5,1.24-1,2.47-1.87,3.34l-.03-.04c-.48.51-1.27.84-1.99,1.15-.73.3-1.43.62-1.86.99-.39.25-.88.67-.79.48-.78.94-.78,1.11-1.69,2.53.51-1.06-.28.32.55-1.08-.4.64-.65,1.03-.91,1.44-.24.39-.51.76-.97,1.44.25-.5-.83.78-1.29,1.32l.76-.73c-.51.62-.99,1.14-1.49,1.64l.14-.39c-.56.52-1.08,1.03-1.57,1.52-.51.5-.94.98-1.43,1.33-.99.74-2.11,1.2-3.27,1.44-.72.39,1.6-.5.96-.12-1.33.46-2.84.75-3.26.96-1.85.74-1.54,1.07-3.42,1.81.25-.06.57.05-.85.59-.68.19-1.12.18-1.27.13-.15-.05-.02-.12.4-.22.32-.06.47-.1.47-.07.42-.13.96-.35.43-.24l-.15.11c-.34.07-.94.19-1.45.22-.53.04-.91.07-.68,0-1.07.2-.45.15.35.09-1.84.13-2.84.43-4.68.43.29.03.56.08.27.09-1.35,0-1.63-.06-1.82-.02-.19,0-.27.08-1.17-.13-.98-.38.42-.08-1.38-.57-1.08-.42-.18-.23.27-.13-.81-.21-1.63-.5-2.3-.69-.65-.21-1.19-.47-1.62-.65.28.09.55.18.83.26-.5-.14-.89-.3-1.29-.47l.41.3c-.47-.21-.87-.4-.84-.44-.52-.16.29.36-.72,0-.29-.18-.81-.41-1.17-.64-.37-.24-.64-.53-.67-.66.73.72.75.58.69.5-.03-.1-.16-.19.6.21-.34-.16-.62-.32-.97-.66-.04-.06.07.02.17.1-.63-.67-.78-.88-.99-1.02-.2-.16-.4-.31-1.07-1.22.24.18-.17-.52-.48-.81.62.74.22.42-.46-.15-.54-.54-.92-.74-1.2-.89-.29-.13-.49-.23-.84-.39.26.13.51.28.77.44-.3-.08-.95-.42-1.87-.77-.05-.1.85.31.53.14-.54-.15-1.1-.41-1.66-.75-.55-.33-1.03-.78-1.55-1.29-.38-.55.08-.15-.25-.64-1.03-1.28-.84-1.57-1.81-3.08.14.51.23.58-.52-.48.54.86,1.01,1.72,1.54,2.53-.37-.5-.72-1.03-1.08-1.55.43.79.98,1.6,1.25,2.05-.55-.7-.47-.65-.34-.23-.48-1.12-1.24-2.07-1.92-3.33l.27-.12c-.54-.95-1.15-1.68-1.75-2.49-.6-.81-1.24-1.67-1.62-2.95.07.28.16.55.26.82-.27-.27-.58-1.54-.84-2.4.12.05,0-.49-.03-.88-.04.07-.57-1.99-.9-2.15l-.36-1.19c-.4-1.02-.64-1.57-.85-2.14-.19-.57-.38-1.15-.3-2.2.09.63.15-.28.25,1.06-.04-.65.04-1.3-.03-1.31.08-.41-.01-1.98.16-2.62-.01-.3-.11-.41,0-1.2.03-.08.05,0,.05,0-.05-.01.12-1.24-.09-.57.31-1.07.64-2.53,1.15-3.94.5-1.39,1.04-2.8,1.5-3.61.55-1.41,1.68-2.89,2.59-3.97-.04.09.03.04-.15.23,1.33-1.45.55-1.1,2.06-2.74.85-.77-.69.96-.19.46.45-.03,1.66-2.06,2.81-3.12l-.22.3c.85-.83,1.58-2.34,2.78-3.74,0,0-.04.09.03.04.34-.55.9-1.29,1.47-2.11.29-.41.58-.83.85-1.26.27-.44.52-.8.86-1.09-.32.45-.48.59-.19.45.25-.27.19-.26.18-.33,0-.06.04-.22.7-.68.47-.23,1.51-.73,1.71-.69-.44.25-.88.49-1.3.75.73-.25,1.69-.95,2.41-1.35l-.05.12c2.02-1.3,1.81-1.68,3.8-3.05-.08.02-.16.05-.24.08.49-.43.8-.48,1.07-.54.28-.06.55-.1,1.19-.32l.44.11c.43-.11,1.2-.29,2.06-.47.84-.19,1.79-.23,2.6-.21-.46.05-1.16.08-1.86.19-.68.11-1.45.3-2.01.43.43-.07,1.21-.21,1.86-.3.66-.08,1.31-.09,1.54-.13-.36,0-.8.06-1.14.05,1.05-.24,2.5-.13,4.3-.13-.16.2,1.02.19,2.37.14.67-.02,1.4-.03,1.98.07.54.1,1.1.33,1.37.48,1.5.37,2.91.98,4.33,1.74,1.44.75,2.87,1.54,4.27,2.67-.86-1.04.87.66.88.26.71.49.97.67,1.02.74.67.55,1.32,1.1,1.89,1.71.38.46-.63-.47-.63-.36,1.34,1.2.47.58,1.3,1.5-.1-.26.57.35,1.3,1.14l-.97-1.17c1.97,1.73,1.4,1.8,3.42,3.53-.23-.17-.46-.33-.68-.51.5.45,1.43,1.29,2.35,2.12.9.82,1.73,1.69,2.17,2.12.09.2.17.48-.14.05.83,1.17,1.23,2.94,2.05,4.57.86,1.67,2.18,2.72,2.82,3.74l-.2-.14c.37.44.73.71.96,1.36-.04-.02-.16-.16-.06.06.14.23.72,1.4.93,2.16l-.31-.6c.49,1.47.87,2.59,1.22,3.67.34,1,.38,2.05.28,3.36-.11-.01-.25.59-.36,1.38-.11.82-.11,1.74-.16,2.34l-.03-.04c-.06,1.82-.25,3.21-.69,4.66-.41,1.44-.91,2.8-1.64,4.34-.58.89-1.35,2.51-2.41,4.04-.53.75-1.21,1.47-1.89,2.18-.69.69-1.35,1.49-1.91,2.08.37-.36.08.17-.3.64-.55.57-1.31,1.76-1.38,1.53l.19-.21c-.27.16-.66.56-1.08,1.03-.21.24-.43.5-.66.75-.23.26-.48.55-.69.81l.07.33c-1.21,1.25-2.19,3.2-3.79,4.17-1.6,1.02-3.33,1.68-4.22,2.01-.65.46-1.5.75-2.25,1v-.15c-1.05.25-1.9.4-2.82.7-.92.3-1.81.78-3.02,1.29l.46-.3c-1.37.58-1.56.96-3.04,1.21l-.46-.14c-1.34.23-2.65.37-3.95.27-1.32-.08-2.64-.27-3.97-.4.05-.02.14-.07.57,0-.31-.05-.78-.14-1.26-.24-.46-.1-.97-.26-1.43-.42-.92-.34-1.67-.63-1.52-.4.02-.09-.62-.38-1.48-.66-.87-.28-1.9-.52-2.59-.71l.26-.06c-1.2-.24-1.29-.15-2.81-.87-.35-.21-.26-.27.2.02-1.15-.71-1-.38-2.37-1.29l.57.24c-1.19-.73-1.11-.64-1.82-.97-.77-.43-2.19-1.52-2.28-1.74-.2-.04-.89-.4-1.53-.92-.06-.1.2.05.33.13-.9-.73-1.64-1.23-2.15-1.73-.52-.53-.92-1.08-1.3-1.8.02-.05-.02-.15-.08-.28.5.8.95,1.48,1.32,1.89.36.42.61.61.56.57.06-.08-.85-1.07.02-.43-.87-.6-1.97-2.37-2.94-3.61-.04-.07-.08-.13-.11-.19l.12.11c-.23-.29-.47-.49-.69-.69-.33-.35-.55-.56-.89-.86-.07-.2-1.26-1.17-1.71-1.7-.07.14-.66-.58-.17.16-.07-.09.1.09.44.43.08.08.18.16.23.21-.01,0-.03-.02-.04-.03.35.33.83.75,1.38,1.23-.49-.35-1.01-.7-1.54-1.32-.33-.2-.68-.44-.86-.6-.55-.86-1.23-2.66-1.22-2.97-.49-1-.94-2.36-1.81-3.41-.83-1.01-1.61-1.76-2.06-2.3-.34-.53-.25-.67-.28-.88.12.31.31.68.45.82-.37-.49-.63-1.31-.67-2.14-.06-.81-.04-1.53-.13-1.69.15-1.65.14.94.18-1.34l.05.31c.19-2.34-.43-4.08-.57-5.9-.1-1.82-.08-3.8.45-6.18-.07.33-.11.5-.15.56.19-1.38.65-2.68,1.17-4.02.55-1.34.87-2.77,1.5-4.02.31-.63.68-1.23,1.13-1.77.49-.52.97-1.04,1.46-1.56,1-1.01,1.89-2.11,3.04-2.85,1.28-.92,1.37-1.14,1.99-1.9.12-.05.23-.11.35-.17.33-.49.57-1.01.78-1.53.48-1.07.93-1.99,1.6-2.8.64-.82,1.61-1.3,2.85-2.15l-.38.1c.46-.26,1.2-.69,1.74-1.18.52-.47.88-.87.86-.76.06-.09.16-.33.48-.6l.08.03c.55-.67,1.1-1.32,1.78-1.83,1.74-.96-.11.42,2.42-1.04.46-.28,1.1-.66,1.62-.89.51-.23.89-.35.69-.34-.42.07-1.06.26-1.12.2.3-.13.61-.25.93-.33.06-.13.28-.3.17-.39-.1-.07-.61-.16-1.84.3-.53.29-1.02.63-1.49.96l-.53.19c.41-.25.83-.5,1.27-.74-.79.31-1.19.67-1.65,1.02-.16.03-.35.08-.7.26-.5.39-.91.85-1.27,1.31-.21.09.43-.69-.44.11-.48.66.67-.42-.18.59-.64.53-.53.31-1.12,1.04-.13.05-.02-.11.21-.4-.26.33-.64.72-1,1-.37.3-.75.54-.91.7-.39.16-1.03.51-1.56.87-.54.35-.94.72-.98.61-.1.12-.37.47-.61.88-.25.41-.48.89-.65,1.26.23-.72-.15-.04-.52.75-.37.8-.84,1.59-.87,1.36-.14.48-.64,1.17-1.43,1.83-.77.66-1.78,1.34-2.42,2.11.05-.09.18-.27.32-.38-.8.76-1.02.95-1.54,1.42.05.24-1.06,1.49-1.58,2.23-1.04.85.37-.74-.05-.55.08.04-.28.45-.6.9-.31.46-.54.9-.36.74-.65.83-.5.74-.9,1.15.14.27-.37.9-.51,1.75-.59,1.35-.31.28-.79,1.77-.34.67.07-.66.07-.66ZM83.59,121.27h0c-.19-.24-.37-.43-.49-.55.11.11.25.26.49.55ZM85.36,123.88c-.23-.32-.5-.73-.78-1.16-.02-.12.09-.05.26.22-.12-.13.26.52.52.94ZM81.77,118.14c.38.31.49.45.52.51-.18-.15-.38-.33-.66-.56-.01,0-.04-.02-.05-.03.05.01.11.03.19.08Z"/>
        <path class="cls-4" d="M81,117.68c-.05-.05-.08-.07-.15-.13.06.08.12.15.18.23.05.03.11.06.16.09-.06-.06-.13-.12-.19-.18Z"/>
        <path class="cls-4" d="M139.61,106.03v.06c0-.05.01-.1.03-.13-.02.04-.02.04-.03.07Z"/>
        <polygon class="cls-4" points="125.92 131.06 125.9 131.03 125.67 131.18 125.92 131.06"/>
        <path class="cls-4" d="M138.35,89.14s-.01-.1-.05-.22c0,.01.01.11.05.22Z"/>
        <path class="cls-4" d="M135.25,82.27l-.61-.88c.27.38.46.66.61.88Z"/>
        <path class="cls-4" d="M131.65,77.72c-.07-.04-.09-.04-.12-.05h0s.11.05.11.05Z"/>
        <path class="cls-4" d="M91.86,122.67c-.07-.03-.13-.06-.19-.09-.46-.19-.15-.06.19.09Z"/>
        <path class="cls-4" d="M116.67,128.65c-.25.15-.5.3-.78.44.46-.19.8-.36.78-.44Z"/>
        <path class="cls-4" d="M78.11,96.36h0c0-.06.01-.12.02-.19l-.02.19Z"/>
        <path class="cls-4" d="M114.68,129.56c.48-.13.87-.3,1.21-.48-.38.15-.82.32-1.21.48Z"/>
        <path class="cls-4" d="M108.68,68.32l-.28.07s0,.02-.03.03l.31-.1Z"/>
        <path class="cls-4" d="M108.37,68.42l-.3.11c.14-.05.26-.08.3-.11Z"/>
        <path class="cls-4" d="M107.45,68.78l.62-.25c-.22.07-.49.16-.62.25Z"/>
        <path class="cls-4" d="M116.39,69.32l.1-.03s-.08,0-.1.03Z"/>
        <path class="cls-4" d="M118.65,70.03c-.53-.24-1.33-.58-2.08-.76l-.08.02c.37.03,1.63.59,2.16.74Z"/>
        <path class="cls-4" d="M127.12,74.84c-.58-.28-1.17-.53-1.77-.78.3.17.69.41-.14.09,2.21,1.06-.41-.32,1.92.68Z"/>
        <path class="cls-4" d="M131.54,78.68c-.68-.79-.05.06-.11.04.46.48.57.6.11-.04Z"/>
        <path class="cls-4" d="M131.62,115.93l-.02-.17c-.53.68.03.04.02.17Z"/>
        <polygon class="cls-4" points="127.08 123 127.69 122.49 127.86 122.13 127.08 123"/>
        <path class="cls-4" d="M122.73,125.25l.3-.16c-.38.2-.77.39-1.17.56.3-.13.59-.26.87-.4Z"/>
        <path class="cls-4" d="M81.39,88.42l-.24.17c-.17.52-.05.69.24-.17Z"/>
        <path class="cls-4" d="M101.85,65.24c.28-.14,1.04-.39,1.54-.59-.67.16-1.29.38-1.54.59Z"/>
        <polygon class="cls-4" points="131.73 125.21 132.05 124.66 131.4 125.66 131.73 125.21"/>
      </g>
    </g>
    <g>
      <path class="cls-4" d="M104.85,75.46c.29.07.78-.75,1.06-.69.29.07.21,1.81.49,1.87.29.06.48.86.77.91s.76-1.04,1.05-1.02.58.88.87.88.62-.56.91-.58.43-1.05.73-1.1.41-.46.69-.54c.27-.07.76.68,1.05.57.27-.1.68.17.96.04.11-.05.56-.33.9-.07.22.17.38.48.6.64.35.27.82,1.25.91,1.2.19-.11.19-1.05.59-1.02.26.01.67-.22,1.01-.15.28.06.79-.45,1.11-.36.28.08.37.97.67,1.08.28.1.85-.44,1.14-.32.28.11.52.42.81.55.27.12.75-.06,1.03.08s.63.22.9.37-.35,1.88-.09,2.04,1.45-1.14,1.71-.97-.18,1.4.08,1.58.85-.1,1.09.09.15.82.39,1.01-.46,1.43-.23,1.64.88-.1,1.1.11,1.55-.65,1.76-.43.71.26.91.5-.23,1.03-.05,1.28.34.54.51.79.46.46.62.73-1.25,1.38-1.1,1.66,1.74-.2,1.87.08-.62.91-.51,1.2.78.36.87.66-.24.69-.18.99.35.54.4.84.22.58.25.89.88.59.89.9-.1.61-.09.91-1.04.64-1.03.93.95.59.96.88c0,.31.41.6.42.9,0,.31-2.28.66-2.27.95,0,.31,2.41.57,2.41.86,0,.31.22.62.23.91,0,.31.08.62.09.91,0,.31-.42.62-.42.91,0,.32-.51.62-.51.91,0,.32-.95.61-.96.89,0,.32.31.63.3.91-.01.32.17.63.16.91-.02.33.86.73.83,1-.04.34-.41.65-.47.91-.07.34-1.51.17-1.62.41-.13.31-.08.33-.27.54-.12.13-.57-.01-.89.27-.2.18,1.21,2.27.95,2.49-.22.18-1.26-.56-1.51-.35-.22.19-.28.61-.53.81-.23.19.08,1.06-.17,1.26s-.58.26-.82.46-.72.09-.96.29-1.67-1.1-1.91-.91-.56.27-.81.46-.21.73-.45.92-.5.37-.74.55-.11.88-.35,1.06c-.25.19-.39.52-.62.7-.26.19-.42.5-.66.68-.27.19-1.23-.65-1.46-.49-.29.2.8,2.44.58,2.57-.43.27-1.42-.85-1.51-.89-.44.09-.59-.53-1.12-.33-.24.09-.43.43-.74.55-.26.1-.44.45-.74.56-.27.1.04,1.81-.26,1.92-.27.1-.99-1.02-1.28-.92s-.71-.24-1-.14-.27,1.07-.55,1.16-.5.42-.78.51-.48.51-.76.6-.54.37-.82.46c-.3.09-.72-.22-1-.15-.3.08-.87-.86-1.14-.79-.31.07-.67-.27-.94-.21-.33.06-.53.46-.79.49-.4.03-.79.45-.97.36-.15-.08-.71.53-1.13.36-.25-.1.16-1.94-.17-2.08-.26-.11-1.36,1.69-1.67,1.55-.27-.12.08-1.71-.21-1.84-.27-.12-.22-.94-.51-1.08-.27-.13-1.57,1.82-1.86,1.67-.27-.14-.26-.87-.54-1.02s-.46-.47-.73-.63.09-1.37-.19-1.53-.35-.56-.62-.73-.47-.34-.74-.52-1.01.4-1.26.22-1.22.6-1.47.41.66-1.85.42-2.05-.71-.08-.95-.28-1.74.99-1.97.77-.51-.44-.73-.66,1.04-1.88.82-2.11-1.87.81-2.07.57-.31-.61-.51-.86.84-1.42.66-1.67-1.17.04-1.34-.23.77-1.19.61-1.46-.51-.39-.65-.67-1.37-.04-1.49-.33.48-.89.37-1.18-1.03-.31-1.13-.61,1.52-1.1,1.44-1.4-1.65-.22-1.72-.53.4-.72.35-1.03-.93-.52-.96-.83.05-.67.03-.98.15-.66.14-.97.56-.63.56-.93.62-.61.62-.91-1.67-.66-1.66-.96.12-.63.13-.93c.01-.31,1.1-.57,1.12-.87.02-.31,1.15-.52,1.17-.82.03-.31-.69-.67-.66-.97.03-.31-.04-.62,0-.92.04-.32-.54-.71-.5-1,.05-.31,0-.65.05-.94.06-.31,1.47-.3,1.54-.59.08-.31-.31-.69-.23-.97.09-.31-.87-.94-.78-1.22.11-.31,1.13-.24,1.25-.5.13-.3.88-.21,1.01-.46.16-.29-.45-.93-.29-1.16.19-.28-.36-1.12-.18-1.33.22-.25.46-.58.67-.76.27-.23.68-.31.9-.45.33-.22,1.97.86,2.1.69.09-.12-1.25-1.48-.99-1.84.15-.22,1.58.44,1.78.17.17-.22.6-.22.8-.47.18-.23-.57-1.2-.37-1.44.19-.22.42-.42.63-.65s.19-.65.41-.87,1.1.31,1.33.11.31-.5.55-.7-.32-1.44-.07-1.61.53-.38.79-.54,1.2.95,1.47.81.62.12.9.01.49-.05.78-.12.39-.49.69-.53.47-1.57.78-1.57.66.22.97.26.65.1.95.17Z"/>
      <path class="cls-7" d="M104.85,75.46c.29.07.78-.75,1.06-.69.29.07.21,1.81.49,1.87.29.06.48.86.77.91s.76-1.04,1.05-1.02.58.88.87.88.62-.56.91-.58.43-1.05.73-1.1.41-.46.69-.54c.27-.07.76.68,1.05.57.27-.1.68.17.96.04.11-.05.56-.33.9-.07.22.17.38.48.6.64.35.27.82,1.25.91,1.2.19-.11.19-1.05.59-1.02.26.01.67-.22,1.01-.15.28.06.79-.45,1.11-.36.28.08.37.97.67,1.08.28.1.85-.44,1.14-.32.28.11.52.42.81.55.27.12.75-.06,1.03.08s.63.22.9.37-.35,1.88-.09,2.04,1.45-1.14,1.71-.97-.18,1.4.08,1.58.85-.1,1.09.09.15.82.39,1.01-.46,1.43-.23,1.64.88-.1,1.1.11,1.55-.65,1.76-.43.71.26.91.5-.23,1.03-.05,1.28.34.54.51.79.46.46.62.73-1.25,1.38-1.1,1.66,1.74-.2,1.87.08-.62.91-.51,1.2.78.36.87.66-.24.69-.18.99.35.54.4.84.22.58.25.89.88.59.89.9-.1.61-.09.91-1.04.64-1.03.93.95.59.96.88c0,.31.41.6.42.9,0,.31-2.28.66-2.27.95,0,.31,2.41.57,2.41.86,0,.31.22.62.23.91,0,.31.08.62.09.91,0,.31-.42.62-.42.91,0,.32-.51.62-.51.91,0,.32-.95.61-.96.89,0,.32.31.63.3.91-.01.32.17.63.16.91-.02.33.86.73.83,1-.04.34-.41.65-.47.91-.07.34-1.51.17-1.62.41-.13.31-.08.33-.27.54-.12.13-.57-.01-.89.27-.2.18,1.21,2.27.95,2.49-.22.18-1.26-.56-1.51-.35-.22.19-.28.61-.53.81-.23.19.08,1.06-.17,1.26s-.58.26-.82.46-.72.09-.96.29-1.67-1.1-1.91-.91-.56.27-.81.46-.21.73-.45.92-.5.37-.74.55-.11.88-.35,1.06c-.25.19-.39.52-.62.7-.26.19-.42.5-.66.68-.27.19-1.23-.65-1.46-.49-.29.2.8,2.44.58,2.57-.43.27-1.42-.85-1.51-.89-.44.09-.59-.53-1.12-.33-.24.09-.43.43-.74.55-.26.1-.44.45-.74.56-.27.1.04,1.81-.26,1.92-.27.1-.99-1.02-1.28-.92s-.71-.24-1-.14-.27,1.07-.55,1.16-.5.42-.78.51-.48.51-.76.6-.54.37-.82.46c-.3.09-.72-.22-1-.15-.3.08-.87-.86-1.14-.79-.31.07-.67-.27-.94-.21-.33.06-.53.46-.79.49-.4.03-.79.45-.97.36-.15-.08-.71.53-1.13.36-.25-.1.16-1.94-.17-2.08-.26-.11-1.36,1.69-1.67,1.55-.27-.12.08-1.71-.21-1.84-.27-.12-.22-.94-.51-1.08-.27-.13-1.57,1.82-1.86,1.67-.27-.14-.26-.87-.54-1.02s-.46-.47-.73-.63.09-1.37-.19-1.53-.35-.56-.62-.73-.47-.34-.74-.52-1.01.4-1.26.22-1.22.6-1.47.41.66-1.85.42-2.05-.71-.08-.95-.28-1.74.99-1.97.77-.51-.44-.73-.66,1.04-1.88.82-2.11-1.87.81-2.07.57-.31-.61-.51-.86.84-1.42.66-1.67-1.17.04-1.34-.23.77-1.19.61-1.46-.51-.39-.65-.67-1.37-.04-1.49-.33.48-.89.37-1.18-1.03-.31-1.13-.61,1.52-1.1,1.44-1.4-1.65-.22-1.72-.53.4-.72.35-1.03-.93-.52-.96-.83.05-.67.03-.98.15-.66.14-.97.56-.63.56-.93.62-.61.62-.91-1.67-.66-1.66-.96.12-.63.13-.93c.01-.31,1.1-.57,1.12-.87.02-.31,1.15-.52,1.17-.82.03-.31-.69-.67-.66-.97.03-.31-.04-.62,0-.92.04-.32-.54-.71-.5-1,.05-.31,0-.65.05-.94.06-.31,1.47-.3,1.54-.59.08-.31-.31-.69-.23-.97.09-.31-.87-.94-.78-1.22.11-.31,1.13-.24,1.25-.5.13-.3.88-.21,1.01-.46.16-.29-.45-.93-.29-1.16.19-.28-.36-1.12-.18-1.33.22-.25.46-.58.67-.76.27-.23.68-.31.9-.45.33-.22,1.97.86,2.1.69.09-.12-1.25-1.48-.99-1.84.15-.22,1.58.44,1.78.17.17-.22.6-.22.8-.47.18-.23-.57-1.2-.37-1.44.19-.22.42-.42.63-.65s.19-.65.41-.87,1.1.31,1.33.11.31-.5.55-.7-.32-1.44-.07-1.61.53-.38.79-.54,1.2.95,1.47.81.62.12.9.01.49-.05.78-.12.39-.49.69-.53.47-1.57.78-1.57.66.22.97.26.65.1.95.17Z"/>
    </g>
    <path class="cls-3" d="M109.17,84.3c.39.05.47,1.49.94,1.36.22-.06.46-.26.75-.34.24-.07,0-1.81.26-1.89.25-.08.84.9,1.09.81s.15-1.21.39-1.3c.26-.1.54-.03.77-.13.28-.12.7.27.9.16.17-.09.52.95.88.96.24,0,.53-.7.83-.64.25.05.5.13.79.21.25.07.46.28.73.38.25.09.48.21.74.32.25.11,1.01-.82,1.27-.69s-.21,1.53.03,1.67,1.02-.59,1.25-.43.16.73.38.91.2.6.41.78.6.15.79.35.14.59.32.8.05.6.21.83.94.02,1.08.26,1.02.13,1.14.38-.37.8-.27,1.07.29.51.36.78.1.57.15.84-.6.64-.57.92-.4.52-.39.81.19.58.2.86c0,.29.79.55.8.83.01.29-.44.6-.43.88.01.29-.12.59-.1.87.02.29,1.52.48,1.54.76.02.29-.35.6-.33.87.02.3-.96.66-.94.93.03.3,1.23.47,1.25.74.03.3-1.15.7-1.13.97.03.3-.31.62-.28.89.03.31.17.57.19.83.03.32.59.54.6.79.02.33,1.03.66,1.01.9-.03.36-.76.67-.92.84-.1.11-.61,0-.92.26-.19.16-.38.36-.62.57-.2.17-.27.52-.5.71-.21.17.02.9-.2,1.08-.21.17-.88-.2-1.11-.02s.04.95-.18,1.13-1.17-.56-1.39-.39-.36.46-.58.63-.04.89-.26,1.06c-.23.18-.8-.09-1.02.07-.24.18-.78-.08-.99.07-.26.19.25,1.44.05,1.57-.4.26-.95-.32-1.02-.35-.08-.04-.48-.34-.96-.33-.25,0-.51,1.21-.84,1.23-.27.01-.61-1.05-.92-1.03-.28.01-.59-.32-.9-.3s-.54,1.02-.83,1.03-.6-.14-.89-.13-.59.08-.88.08c-.3,0-.61-.7-.9-.69-.31,0-.59-.38-.86-.38-.33,0-.71,1.78-.97,1.76-.4-.03-.95-.41-1.1-.49-.12-.07.16-1.63-.23-1.74-.23-.06-.87,1.23-1.17,1.14-.25-.07-.4-.55-.69-.63-.25-.08-.26-.95-.53-1.04-.25-.08-.89.9-1.16.8-.25-.09-.63.06-.9-.05s.12-1.64-.14-1.75-.56-.03-.81-.16-.38-.38-.63-.52-.5-.17-.73-.32-.71.11-.94-.06-.72.02-.93-.16-.61-.18-.82-.37-.73-.13-.92-.33.17-.92,0-1.14-.52-.33-.67-.57.14-.75,0-.99-.23-.49-.35-.74-.37-.43-.47-.7-.19-.52-.27-.79-.44-.47-.5-.75-.01-.57-.05-.86.69-.62.67-.9-.13-.52-.13-.8-.9-.57-.9-.85c0-.29.43-.57.44-.85,0-.29-.62-.61-.61-.88.01-.29.66-.55.68-.82.02-.3.68-.51.71-.78.03-.3-.93-.7-.89-.97.04-.29.31-.55.36-.82.06-.29.26-.54.33-.8.07-.29.38-.49.46-.74.09-.29.43-.43.53-.68.12-.28-.38-.83-.26-1.06.15-.27.06-.74.22-.94.19-.25.3-.7.48-.87.24-.22,1.01.22,1.21.1.33-.2.1-.68.21-.83.08-.11.93.2,1.21-.09.16-.17-.45-1.22-.22-1.43.19-.17.75-.01.97-.19.2-.16,1.21.75,1.45.59.22-.15.03-.88.27-1.03s.19-.82.44-.95.63.01.89-.09.51-.27.78-.34.52-.42.79-.46.61.07.89.06.49,1.06.76,1.09.47,0,.75.06c.26.06.68-.51.94-.42.25.09.3.65.55.77.24.12.76-.81,1.01-.66Z"/>
    <g>
      <path class="cls-4" d="M123.11,60.43c2.64-11.14,7.22-23.35,16.06-31.03-.97,1.12-1.96,2.18-2.81,3.39-6.06,8.29-9.74,18.06-13.25,27.64h0Z"/>
      <path class="cls-4" d="M137.95,40.58c-3.05,7.47-6.71,14.64-10.99,21.49,3.05-7.47,6.72-14.64,10.99-21.49h0Z"/>
      <path class="cls-4" d="M131.14,64.39c7.65-9.06,15.54-18.25,20.7-29,.74-1.54,1.29-3.14,1.84-4.76-2.64,12.58-13.43,25.04-22.54,33.77h0Z"/>
      <path class="cls-4" d="M137.36,69.16c7.73-6.28,15.06-13.24,20.78-21.44.88-1.14,1.55-2.4,2.37-3.58-4.82,10.47-13.46,18.96-23.15,25.02h0Z"/>
      <path class="cls-4" d="M139.91,71.67c7.2-4.11,14.58-8.42,20.1-14.7.82-.88,1.47-1.87,2.18-2.84-4.31,8.71-13.52,14.11-22.28,17.54h0Z"/>
      <path class="cls-4" d="M142.75,74.9c13.03-5.17,26.61-13.48,31.39-27.39-.4,1.76-.98,3.49-1.72,5.16-5.55,11.62-17.64,18.85-29.67,22.23h0Z"/>
      <path class="cls-4" d="M147.61,81.78c10.02-3.66,20.37-6.5,30.91-8.18-10.19,3.01-20.55,5.84-30.91,8.18h0Z"/>
      <path class="cls-4" d="M149.24,86.83c8.36-2.83,17-5.02,25.7-6.53-8.37,2.83-17,5.02-25.7,6.53h0Z"/>
      <path class="cls-4" d="M150.02,90.34c11.27-2.08,23.62-3.49,34.72-6.31,1.13-.34,2.34-.77,3.4-1.3-5.66,3.29-12.39,4.14-18.72,5.39-6.43,1.06-12.9,1.85-19.4,2.21h0Z"/>
      <path class="cls-4" d="M150.49,93.44c5.33-.74,11.24-1.09,16.62-1.54,1.6-.16,3.23-.26,4.79-.64,0,0,.65-.24.65-.24-1.57,1.04-3.53,1.3-5.34,1.65-5.53.87-11.13,1.12-16.72.77h0Z"/>
      <path class="cls-4" d="M150.84,99.63c9.37.4,19.25,1.38,28.57.34.62-.12,1.25-.23,1.88-.34-4.84,1.75-10.13,1.79-15.22,1.71-5.12-.17-10.22-.69-15.24-1.71h0Z"/>
      <path class="cls-4" d="M150.58,103.95c8.28,1.51,16.69,3,25.13,2.33-8.3,2.05-17.19.51-25.13-2.33h0Z"/>
      <path class="cls-4" d="M150.02,107.46c12.32,2.74,24.82,6.17,37.52,6.05.84-.09,1.68-.18,2.53-.25-6.66,1.61-13.68.57-20.34-.52-6.7-1.24-13.31-2.96-19.72-5.27h0Z"/>
      <path class="cls-4" d="M148.93,112.31c5.19,1.69,10.24,3.73,15.23,5.93,4.94,2.29,9.99,4.52,14.36,7.81-9.48-4.99-20.03-8.92-29.59-13.74h0Z"/>
      <path class="cls-4" d="M147.61,115c6.38,2.87,12.53,6.22,18.49,9.88,5.79,3.8,12.03,7.59,16.09,13.35,0,0-.88-.97-.88-.97-4.54-4.66-10.3-8.01-15.73-11.53-5.15-3.21-12.66-7.61-17.96-10.73h0Z"/>
      <path class="cls-4" d="M146.19,117.85c4.72,2.74,9.24,5.81,13.61,9.07,2.17,1.65,4.33,3.33,6.37,5.16,1.96,1.86,4.22,3.65,5.38,6.15-3.26-4.25-8.2-7.16-12.35-10.51-3.76-2.84-9.37-6.98-13.01-9.87h0Z"/>
      <path class="cls-4" d="M141.82,124.03c5.67,4.92,10.95,10.32,15.46,16.34,1.39,2.04,3.09,4.12,3.49,6.63-.35-1.2-1.08-2.23-1.8-3.23-5.11-6.73-11.68-13.29-17.15-19.74h0Z"/>
      <path class="cls-4" d="M139.93,126.05c4.02,4.3,7.74,8.85,11.32,13.51,3.48,4.72,7.11,9.45,9.51,14.84-2.62-4.36-7.23-10.1-10.31-14.23-3.12-4.14-7.57-9.94-10.53-14.11h0Z"/>
      <path class="cls-4" d="M137.79,128.04c5.62,7.48,10.94,15.29,14.94,23.76-5.18-7.77-10.47-15.54-14.94-23.76h0Z"/>
      <path class="cls-4" d="M135.22,130.1c5.14,7.51,9.74,15.45,13.7,23.64-5.14-7.51-9.74-15.45-13.7-23.64h0Z"/>
      <path class="cls-4" d="M128.35,134.41c4.72,7.42,8.9,15.25,11.9,23.53.88,2.77,1.99,5.69,1.57,8.63,0-2.93-1.26-5.67-2.29-8.36-1.11-2.69-2.31-5.35-3.56-7.99-2.4-5.13-5.18-10.68-7.61-15.81h0Z"/>
      <path class="cls-4" d="M124.67,136.21c4.25,7.49,8.4,15.26,10.56,23.63-3.38-7.79-7.59-15.66-10.56-23.63h0Z"/>
      <path class="cls-4" d="M121.33,137.6c4.61,10.2,8.62,20.75,11.95,31.44-4.61-10.21-8.62-20.75-11.95-31.44h0Z"/>
      <path class="cls-4" d="M118.22,138.43c2.53,7.4,4.4,14.98,5.6,22.71-2.54-7.4-4.4-14.98-5.6-22.71h0Z"/>
      <path class="cls-4" d="M112.02,138.98c.29,10.47.05,21.71.62,32.16.06.71.11,1.43.16,2.14-2.19-11.27-1.8-22.92-.78-34.3h0Z"/>
      <path class="cls-4" d="M107.72,138.98c.68,12.79.68,25.69,0,38.49-.68-12.8-.68-25.7,0-38.49h0Z"/>
      <path class="cls-4" d="M104.75,138.63c.3,10.14.26,20.59-2.53,30.42,0,0,.29-1.89.29-1.89,1.06-9.29,1.31-19.22,2.25-28.53h0Z"/>
      <path class="cls-4" d="M94.22,135.95c-1.56,5.81-3.46,11.52-5.52,17.17-2.16,5.6-4.21,11.33-7.41,16.44,4.7-10.85,8.33-22.73,12.93-33.61h0Z"/>
      <path class="cls-4" d="M97.72,137.16c-2.06,10.74-4.85,21.37-7.87,31.88,1.69-10.81,4.49-21.49,7.87-31.88h0Z"/>
      <path class="cls-4" d="M84.27,130.1c-3,4.7-6.28,9.21-9.69,13.62-3.48,4.33-6.9,8.83-11.19,12.41,7.17-8.28,13.69-17.76,20.87-26.03h0Z"/>
      <path class="cls-4" d="M86.39,131.71c-3.96,7.35-8.55,14.43-13.66,21.04,3.96-7.36,8.55-14.43,13.66-21.04h0Z"/>
      <path class="cls-4" d="M88.51,133.1c-5.43,10.82-11.5,21.39-18.11,31.53,5.43-10.82,11.5-21.39,18.11-31.53h0Z"/>
      <path class="cls-4" d="M74.57,118.53c-8.03,5.28-16.48,10.01-25.18,14.1,8.03-5.28,16.48-10.01,25.18-14.1h0Z"/>
      <path class="cls-4" d="M76.37,121.39c-8.22,6.81-16.92,13.12-25.94,18.83,8.22-6.81,16.92-13.12,25.94-18.83h0Z"/>
      <path class="cls-4" d="M78.91,124.78c-5.18,5.65-10.82,10.81-16.93,15.44,5.18-5.66,10.83-10.8,16.93-15.44h0Z"/>
      <path class="cls-4" d="M105.28,58.3c-3.15-12.55-5.43-25.66-4.15-38.62.02.81.03,1.63.03,2.43.36,11.93,2.43,24.35,4.12,36.18h0Z"/>
      <path class="cls-4" d="M114.42,58.3c1.1-10.62,2.54-21.4,1.63-32.08-.1-.71-.19-1.42-.27-2.13,1.59,5.55,1.58,11.45,1.26,17.17-.4,5.74-1.22,11.46-2.62,17.04h0Z"/>
      <path class="cls-4" d="M109.81,57.93c-1.07-9.7-1.46-19.54-1.16-29.3,1.07,9.71,1.46,19.54,1.16,29.3h0Z"/>
      <path class="cls-4" d="M98.81,58.94c-4.75-12.84-8.89-26-12.34-39.25,4.75,12.85,8.89,26,12.34,39.25h0Z"/>
      <path class="cls-4" d="M85.93,35.03c-1.24-2.63-2.78-6.52-3.9-9.25-1.35-3.01-2.26-6.32-4.37-8.9,2.71,2.08,3.94,5.51,5.3,8.52,1.25,3.12,2.3,6.32,2.97,9.62h0Z"/>
      <path class="cls-4" d="M85.04,65.56c-3.33-4.34-7.9-10.84-11.13-15.36-2.96-4.1-7.24-10.53-10.45-14.34,0,0-.84-.83-.84-.83,4.85,4.09,8.35,9.54,12.11,14.6,3.63,5.18,7.12,10.46,10.31,15.94h0Z"/>
      <path class="cls-4" d="M88.57,63.11c-3.89-5.9-7.85-11.8-10.91-18.2,4.24,5.67,8.2,11.64,10.91,18.2h0Z"/>
      <path class="cls-4" d="M92.62,60.75c-4.77-10.4-10-21.07-18.57-28.88,9.53,6.79,15.08,17.98,18.57,28.88h0Z"/>
      <path class="cls-4" d="M78.85,71.15c-6.05-7.09-12.36-14.22-20.33-19.19,8.7,3.78,15.38,11.27,20.33,19.19h0Z"/>
      <path class="cls-4" d="M75.79,74.93c-9.39-7.11-18.41-14.81-26.91-22.97,9.39,7.11,18.41,14.81,26.91,22.97h0Z"/>
      <path class="cls-4" d="M73.3,78.91c-4.46-1.75-8.72-3.96-12.78-6.48-4-2.57-8.06-5.41-10.87-9.31.44.41.87.82,1.29,1.24,6.65,5.7,14.87,10.05,22.36,14.56h0Z"/>
      <path class="cls-4" d="M70.06,87.18c-10.31-3.03-20.95-6.57-31.55-8.27,10.94.37,21.59,3.93,31.55,8.27h0Z"/>
      <path class="cls-4" d="M69.33,90.6c-7.42-.75-14.72-2.17-21.88-4.27,7.42.75,14.72,2.18,21.88,4.27h0Z"/>
      <path class="cls-4" d="M68.87,94.62c-6.08.07-12.15-.33-18.19-.99-6-.8-12.19-1.52-17.74-4.06,1.45.45,2.9.85,4.39,1.13,8.31,1.65,22.98,2.9,31.54,3.92h0Z"/>
      <path class="cls-4" d="M68.69,98.46c-5.05.5-10.12.61-15.19.5-5.01-.29-10.31-.23-15-2.25.87.28,1.85.47,2.76.6,8.9.88,18.48.63,27.42,1.16h0Z"/>
      <path class="cls-4" d="M69.51,105.38c-10.61,1.58-21.31,3.71-31.01,8.41,9.09-5.95,20.27-8.21,31.01-8.41h0Z"/>
      <path class="cls-4" d="M70.45,109.37c-5.23,1.92-12.88,4.51-18.23,6.38-6.04,2.17-12.2,4.08-17.94,6.99,5.37-3.6,11.58-5.73,17.62-7.94,6.1-2.09,12.27-3.97,18.55-5.43h0Z"/>
      <path class="cls-4" d="M71.51,112.31c-4.2,1.62-10.06,3.85-14.16,5.51-4.3,1.85-8.88,3.47-12.62,6.35,0,0-.73.61-.73.61,3.34-3.91,8.38-5.86,12.97-7.89,4.73-1.87,9.57-3.47,14.54-4.58h0Z"/>
      <path class="cls-4" d="M122.65,44.92c1.44-4.65,3.83-11.29,5.45-15.95,1.54-4.69,4.29-11.18,5.15-15.99-.33,5.64-2.46,11.01-4.2,16.33-1.9,5.3-3.98,10.53-6.39,15.61h0Z"/>
      <path class="cls-4" d="M51.28,75.38c-3.86-2.13-7.49-4.64-10.96-7.36-3.32-2.81-7.05-5.65-8.87-9.72.6.93,1.27,1.78,2.06,2.53,5.31,5.19,12.04,9.82,17.77,14.55h0Z"/>
      <path class="cls-4" d="M43.19,103.38c-7.46,2.61-15.68,4.75-22.03,9.63,2.65-3.15,6.49-5.04,10.23-6.56,3.8-1.47,7.75-2.55,11.8-3.07h0Z"/>
      <path class="cls-4" d="M56.28,153.6c-3.02,3.9-6.53,7.89-11.03,10.04,3.73-3.31,6.99-7.05,11.03-10.04h0Z"/>
      <path class="cls-4" d="M176.89,118.53c5.82,2.11,11.86,3.22,17.74,5.2-6.11-.61-12.51-1.83-17.74-5.2h0Z"/>
      <path class="cls-4" d="M162.53,70.9c4.51-2.08,9.48-4.23,13.95-6.34,4.44-2.3,9.52-4.08,12.89-7.91-3.99,6.44-19.53,12.04-26.84,14.25h0Z"/>
      <path class="cls-4" d="M193.25,131.53c-5.17-5.02-11.24-9.42-17.18-13.5,6.71,2.93,12.94,7.48,17.18,13.5h0Z"/>
      <path class="cls-4" d="M126.96,12.09c.24,10.25-.65,20.71-3.85,30.49,1.8-9.76,2.77-20.6,3.85-30.49h0Z"/>
      <path class="cls-4" d="M31.95,65.56c5.55,3.78,11.39,7.04,17.71,9.37-6.7-.98-13.03-4.51-17.71-9.37h0Z"/>
      <path class="cls-4" d="M41.93,102.89c-3.59.38-7.15.64-10.68,1.08-3.42.56-7.24.69-10.09,2.88,3.85-4.53,15.18-4.49,20.77-3.96h0Z"/>
    </g>
  </g>
</svg>