<?xml version="1.0" encoding="UTF-8"?>
<svg id="_왼쪽_위" data-name="왼쪽_위" xmlns="http://www.w3.org/2000/svg" version="1.1" viewBox="0 0 114.26 166.05">
  <defs>
    <style>
      .cls-1 {
        fill: #ff97b5;
      }

      .cls-1, .cls-2, .cls-3 {
        stroke: #111114;
        stroke-linecap: round;
        stroke-linejoin: round;
        stroke-width: 1.2px;
      }

      .cls-4 {
        fill: #ffec2d;
      }

      .cls-4, .cls-5 {
        stroke-width: 0px;
      }

      .cls-2 {
        fill: #00d675;
      }

      .cls-3 {
        fill: none;
      }

      .cls-5 {
        fill: #111114;
      }
    </style>
  </defs>
  <g>
    <path class="cls-2" d="M55.97,129.11s1.22-28.86-22.51-36.67c0,0-9.57-1.83.99,7.14,0,0,16.92,11.56,21.32,37.09"/>
    <path class="cls-5" d="M39.66,100.23c6.69,3.1,12.05,9.13,14.35,16.13-3.32-6.51-8.27-12.08-14.35-16.13h0Z"/>
  </g>
  <path class="cls-2" d="M60.52,131.51c.51-13.9-3.22-46.27-3.22-46.27v-.16l-3.02,2.64s3.16,53.08-1.36,67.08"/>
  <g>
    <path class="cls-2" d="M53.44,155.15c.89-.17-3.88-34.39,30.59-43.38,27.37-7.14,29.52-7.73,29.52-7.73,0,0,2.57,28.28-16.82,41.5-19.4,13.22-39.31,8.07-39.31,8.07l-3.98,11.84v-10.3Z"/>
    <g>
      <path class="cls-5" d="M57.74,151.38c7.25-8.18,16.29-14.69,26.13-19.4,7.31-3.41,15.49-5.73,20.49-12.36,1.64-2.11,2.79-4.63,3.12-7.34-.04,2.74-1.09,5.41-2.6,7.7-4.69,7.04-13.27,9.73-20.46,13.17-9.82,4.55-18.77,10.86-26.69,18.23h0Z"/>
      <path class="cls-5" d="M61.34,147.42c-1.86-4.84-2.45-10.19-1.67-15.32.61,5.16,1.15,10.15,1.67,15.32h0Z"/>
      <path class="cls-5" d="M65,143.55c-.8-6.14-.56-12.39.72-18.45.09,6.19-.15,12.28-.72,18.45h0Z"/>
      <path class="cls-5" d="M69.74,140.28c-.5-6.99.15-14.06,1.94-20.83-.43,7-1.07,13.87-1.94,20.83h0Z"/>
      <path class="cls-5" d="M75.09,136.71c-.5-6.5.17-13.08,1.99-19.34-.46,6.51-1.12,12.87-1.99,19.34h0Z"/>
      <path class="cls-5" d="M80.02,134.34c.05-5.93.77-11.79,2.18-17.55-.04,5.93-.77,11.79-2.18,17.55h0Z"/>
      <path class="cls-5" d="M85.47,132.1c-.24-5.89.6-11.81,2.49-17.4-.54,5.88-1.36,11.61-2.49,17.4h0Z"/>
      <path class="cls-5" d="M91.16,129.73c.25-5.76,1.18-11.42,2.79-16.96-.25,5.76-1.18,11.42-2.79,16.96h0Z"/>
      <path class="cls-5" d="M97.49,125.71c-.04-4.38.34-8.63,1.17-12.94.55,4.34.15,8.76-1.17,12.94h0Z"/>
      <path class="cls-5" d="M103.23,121.99c-.64-3.52-.6-7.05.13-10.56.65,3.52.6,7.05-.13,10.56h0Z"/>
      <path class="cls-5" d="M60.17,149.7c3.81-.42,7.59-.16,11.3.79-3.81.43-7.58.16-11.3-.79h0Z"/>
      <path class="cls-5" d="M65.66,144.62c5.07.13,10.04.94,14.88,2.43-5.07-.13-10.04-.95-14.88-2.43h0Z"/>
      <path class="cls-5" d="M72.04,139.19c6.6.67,13.07,2.01,19.39,4.03-6.6-.67-13.07-2.02-19.39-4.03h0Z"/>
      <path class="cls-5" d="M78.59,136.16c5.78.47,11.44,1.6,16.96,3.41-5.78-.46-11.44-1.61-16.96-3.41h0Z"/>
      <path class="cls-5" d="M85.57,132.45c4.93.91,9.67,2.08,14.45,3.6-5.01-.15-9.96-1.39-14.45-3.6h0Z"/>
      <path class="cls-5" d="M91.24,129.6c4.49.02,8.81.39,13.24,1.14-4.43.64-8.98.24-13.24-1.14h0Z"/>
      <path class="cls-5" d="M97.49,126.6c2.97-.68,5.95-.69,8.92,0-2.97.69-5.95.68-8.92,0h0Z"/>
      <path class="cls-5" d="M102.85,122.75c2.37-1.85,4.49-3.49,6.88-5.3-1.29,2.7-3.95,4.74-6.88,5.3h0Z"/>
    </g>
  </g>
  <g>
    <path class="cls-4" d="M91.15,36.61c3.66-6.49-1.65-10.51-1.65-10.51-.35-12.13-11.16-8.32-11.41-8.23h0c.67-.76,1.03-1.21,1.03-1.21,1.65-6.38-5.31-6.26-5.31-6.26-1.3-7.44-8.62-5.19-8.62-5.19-6.02-5.19-10.25,1.05-10.25,1.05h0c-.08-.65-.19-1.24-.37-1.75-2.24-6.37-10.86-2.72-10.86-2.72-3.66-3.07-5.54.82-5.54.82-4.24-4.24-11.31,0-11.31,0-3.67,3.03-4.28,6.81-3.35,10.62h-.01c-.24-.68-1.98-4.7-8.4-.58-7,4.49-2.91,9.92-2.91,9.92-5.78-1.3-6.61,4.72-6.61,4.72-4.14,3.22-1.45,6.43-1.31,6.59l.1.55c-.83.33-1.51.8-1.98,1.48-4.37,6.37.71,9.63.71,9.63-4.13,3.61-.59,8.79-.59,8.79-1.42,10.98,6.34,11.31,6.34,11.31h0c-5.14,8.42,3.45,9.47,3.45,9.47.47,6.73,7.44,5.08,7.44,5.08-.12,2.36,1.53,4.49,6.14,4.96,3.91.4,6.64-4.62,7.39-6.16h.25c-.04,1.03-.05,2.09.04,3.21.94,12.63,13.1,7.2,13.1,7.2,5.43,6.02,11.3-1.06,11.3-1.06,9.3,1.89,10.3-5.43,10.3-5.43,7.03.67,5.31-7.94,5.1-8.88l.04-.05c8.34,6.28,11.04-4.41,11.04-4.41,2.48-.94,2.95-4.13,2.95-4.13,4.01-2.72,2.24-5.9,2.24-5.9,2.81-6.06-2-8.54-2.82-8.92v-.07c10.8-1.14,4.36-13.91,4.36-13.91ZM55,6.91h-.01c0-.09,0-.18-.02-.26l.03.26Z"/>
    <g>
      <path class="cls-1" d="M41.69,29.22s10.84-3.06,17.67,6.13-1.41,21.91-1.41,21.91c0,0-12.72,10.37-21.91,1.41-9.19-8.95-9.66-26.39,5.65-29.45Z"/>
      <path class="cls-3" d="M36.33,31.21S14.6,12.73,26.85,2.6c0,0,7.07-4.24,11.31,0,0,0,1.88-3.89,5.54-.82,0,0,8.62-3.66,10.86,2.72s-4.27,24.76-4.27,24.76"/>
      <path class="cls-3" d="M54.93,6.25S59.16,0,65.18,5.2c0,0,7.32-2.24,8.62,5.19,0,0,6.97-.12,5.31,6.26,0,0-7.49,9.5-21.16,17.03"/>
      <path class="cls-3" d="M78.07,17.87s11.07-4.05,11.43,8.23c0,0,5.31,4.01,1.65,10.51,0,0,6.49,12.87-4.49,13.93,0,0-15.42-5.03-24.89-3.28"/>
      <path class="cls-3" d="M86.66,50.54s6.02,2.36,2.95,8.97c0,0,1.77,3.19-2.24,5.9,0,0-.47,3.19-2.95,4.13,0,0-2.72,10.74-11.1,4.37,0,0-12.57-15.83-15.38-16.65"/>
      <path class="cls-3" d="M73.32,73.91s2.36,9.68-5.08,8.97c0,0-1.01,7.32-10.3,5.43,0,0-5.87,7.08-11.3,1.06,0,0-12.16,5.43-13.1-7.2-.94-12.63,6.89-20.65,6.89-20.65"/>
      <path class="cls-3" d="M33.46,78.51s-2.99,7.08-7.59,6.61-6.26-2.6-6.14-4.96c0,0-6.97,1.65-7.44-5.08,0,0-9.68-1.18-2.36-11.1,7.32-9.92,21.41-12.17,21.41-12.17"/>
      <path class="cls-3" d="M8.83,65.62s-7.75-.33-6.34-11.31c0,0-3.54-5.18.59-8.79,0,0-5.08-3.25-.71-9.63,4.37-6.37,27.2,4.25,27.2,4.25"/>
      <path class="cls-3" d="M4.26,33.88s-2.95-3.3,1.3-6.6c0,0,.83-6.02,6.61-4.72,0,0-4.09-5.43,2.91-9.92,7-4.49,8.44.7,8.44.7"/>
    </g>
    <g>
      <path class="cls-5" d="M39.16,39.58c-.01.16.05.37-.04.61-.08.24-.36.39-.61.33-.46-.17-.62-.53-.83-.94-.19-.45.27-1.06.83-1.03.61.02.72.6.65,1.03h0ZM39.08,39.58c-.02-.31-.41-.25-.57-.18-.17-.05-.65.26-.34.52.12.07.27,0,.34-.06.1-.11.53.12.57-.27h0Z"/>
      <path class="cls-5" d="M43.11,38.54c-.01.16.05.37-.04.61-.08.24-.36.39-.61.33-.46-.17-.62-.53-.83-.94-.19-.45.27-1.06.83-1.03.61.02.72.6.65,1.03h0ZM43.03,38.54c-.02-.31-.41-.25-.57-.18-.17-.05-.65.26-.34.52.12.07.27,0,.34-.06.1-.11.53.12.57-.27h0Z"/>
      <path class="cls-5" d="M43.72,43.19c-.01.16.05.37-.04.61-.08.24-.36.39-.61.33-.46-.17-.62-.53-.83-.94-.19-.45.27-1.06.83-1.03.61.02.72.6.65,1.03h0ZM43.64,43.19c-.02-.31-.41-.25-.57-.18-.17-.05-.65.26-.34.52.12.07.27,0,.34-.06.1-.11.53.12.57-.27h0Z"/>
      <path class="cls-5" d="M38.55,43.8c-.01.16.05.37-.04.61-.08.24-.36.39-.61.33-.46-.17-.62-.53-.83-.94-.19-.45.27-1.06.83-1.03.61.02.72.6.65,1.03h0ZM38.47,43.8c-.02-.31-.41-.25-.57-.18-.17-.05-.65.26-.34.52.12.07.27,0,.34-.06.1-.11.53.12.57-.27h0Z"/>
      <path class="cls-5" d="M34.11,40.44c-.01.16.05.37-.04.61-.08.24-.36.39-.61.33-.46-.17-.62-.53-.83-.94-.19-.45.27-1.06.83-1.03.61.02.72.6.65,1.03h0ZM34.03,40.44c-.02-.31-.41-.25-.57-.18-.17-.05-.65.26-.34.52.12.07.27,0,.34-.06.1-.11.53.12.57-.27h0Z"/>
      <path class="cls-5" d="M41.9,33.68c-.01.16.05.37-.04.61-.08.24-.36.39-.61.33-.46-.17-.62-.53-.83-.94-.29-1.24,1.77-1.49,1.47,0h0ZM41.82,33.68c-.02-.31-.41-.25-.57-.18-.17-.05-.65.26-.34.52.12.07.27,0,.34-.06.1-.11.53.12.57-.27h0Z"/>
      <path class="cls-5" d="M37.11,35.58c-.01.16.05.37-.04.61-.08.24-.36.39-.61.33-.46-.17-.62-.53-.83-.94-.19-.45.27-1.06.83-1.03.61.02.72.6.65,1.03h0ZM37.03,35.58c-.02-.31-.41-.25-.57-.18-.17-.05-.65.26-.34.52.12.07.27,0,.34-.06.1-.11.53.12.57-.27h0Z"/>
      <path class="cls-5" d="M34.72,45.53c-.01.16.05.37-.04.61-.08.24-.36.39-.61.33-.46-.17-.62-.53-.83-.94-.29-1.24,1.77-1.49,1.47,0h0ZM34.64,45.53c-.02-.31-.41-.25-.57-.18-.17-.05-.65.26-.34.52.12.07.27,0,.34-.06.1-.11.53.12.57-.27h0Z"/>
      <path class="cls-5" d="M36.79,49.56c-.01.16.05.37-.04.61-.08.24-.36.39-.61.33-.46-.17-.62-.53-.83-.94-.19-.45.27-1.06.83-1.03.61.02.72.6.65,1.03h0ZM36.71,49.56c-.02-.31-.41-.25-.57-.18-.17-.05-.65.26-.34.52.12.07.27,0,.34-.06.1-.11.53.12.57-.27h0Z"/>
      <path class="cls-5" d="M41.29,47.13c-.01.16.05.37-.04.61-.08.24-.36.39-.61.33-.46-.17-.62-.53-.83-.94-.19-.45.27-1.06.83-1.03.61.02.72.6.65,1.03h0ZM41.21,47.13c-.02-.31-.41-.25-.57-.18-.17-.05-.65.26-.34.52.12.07.27,0,.34-.06.1-.11.53.12.57-.27h0Z"/>
      <path class="cls-5" d="M37.11,53.65c-.01.16.05.37-.04.61-.08.24-.36.39-.61.33-.46-.17-.62-.53-.83-.94-.29-1.24,1.77-1.49,1.47,0h0ZM37.03,53.65c-.02-.31-.41-.25-.57-.18-.17-.05-.65.26-.34.52.12.07.27,0,.34-.06.1-.11.53.12.57-.27h0Z"/>
      <path class="cls-5" d="M40.69,51.83c-.01.16.05.37-.04.61-.08.24-.36.39-.61.33-.46-.17-.62-.53-.83-.94-.29-1.24,1.77-1.49,1.47,0h0ZM40.61,51.83c-.02-.31-.41-.25-.57-.18-.17-.05-.65.26-.34.52.12.07.27,0,.34-.06.1-.11.53.12.57-.27h0Z"/>
      <path class="cls-5" d="M40.08,56.53c-.01.16.05.37-.04.61-.08.24-.36.39-.61.33-.46-.17-.62-.53-.83-.94-.19-.45.27-1.06.83-1.03.61.02.72.6.65,1.03h0ZM40,56.53c-.02-.31-.41-.25-.57-.18-.17-.05-.65.26-.34.52.12.07.27,0,.34-.06.1-.11.53.12.57-.27h0Z"/>
      <path class="cls-5" d="M50.29,32.47c-.01.16.05.37-.04.61-.08.24-.36.39-.61.33-.46-.17-.62-.53-.83-.94-.29-1.24,1.77-1.49,1.47,0h0ZM50.21,32.47c-.02-.31-.41-.25-.57-.18-.17-.05-.65.26-.34.52.12.07.27,0,.34-.06.1-.11.53.12.57-.27h0Z"/>
      <path class="cls-5" d="M51.51,36.72c-.01.16.05.37-.04.61-.08.24-.36.39-.61.33-.46-.17-.62-.53-.83-.94-.19-.45.27-1.06.83-1.03.61.02.72.6.65,1.03h0ZM51.43,36.72c-.02-.31-.41-.25-.57-.18-.17-.05-.65.26-.34.52.12.07.27,0,.34-.06.1-.11.53.12.57-.27h0Z"/>
      <path class="cls-5" d="M54.22,34.29c-.01.16.05.37-.04.61-.08.24-.36.39-.61.33-.46-.17-.62-.53-.83-.94-.29-1.24,1.77-1.49,1.47,0h0ZM54.14,34.29c-.02-.31-.41-.25-.57-.18-.17-.05-.65.26-.34.52.12.07.27,0,.34-.06.1-.11.53.12.57-.27h0Z"/>
      <path class="cls-5" d="M51.51,41.05c-.01.16.05.37-.04.61-.08.24-.36.39-.61.33-.46-.17-.62-.53-.83-.94-.19-.45.27-1.06.83-1.03.61.02.72.6.65,1.03h0ZM51.43,41.05c-.02-.31-.41-.25-.57-.18-.17-.05-.65.26-.34.52.12.07.27,0,.34-.06.1-.11.53.12.57-.27h0Z"/>
      <path class="cls-5" d="M50.29,45.28c-.01.16.05.37-.04.61-.08.24-.36.39-.61.33-.46-.17-.62-.53-.83-.94-.29-1.24,1.77-1.49,1.47,0h0ZM50.21,45.28c-.02-.31-.41-.25-.57-.18-.17-.05-.65.26-.34.52.12.07.27,0,.34-.06.1-.11.53.12.57-.27h0Z"/>
      <path class="cls-5" d="M47.97,49.74c-.01.16.05.37-.04.61-.08.24-.36.39-.61.33-.46-.17-.62-.53-.83-.94-.29-1.24,1.77-1.49,1.47,0h0ZM47.89,49.74c-.02-.31-.41-.25-.57-.18-.17-.05-.65.26-.34.52.12.07.27,0,.34-.06.1-.11.53.12.57-.27h0Z"/>
      <path class="cls-5" d="M52.11,48.95c-.01.16.05.37-.04.61-.08.24-.36.39-.61.33-.46-.17-.62-.53-.83-.94-.29-1.24,1.77-1.49,1.47,0h0ZM52.03,48.95c-.02-.31-.41-.25-.57-.18-.17-.05-.65.26-.34.52.12.07.27,0,.34-.06.1-.11.53.12.57-.27h0Z"/>
      <path class="cls-5" d="M52.72,53.04c-.01.16.05.37-.04.61-.08.24-.36.39-.61.33-.46-.17-.62-.53-.83-.94-.19-.45.27-1.06.83-1.03.61.02.72.6.65,1.03h0ZM52.64,53.04c-.02-.31-.41-.25-.57-.18-.17-.05-.65.26-.34.52.12.07.27,0,.34-.06.1-.11.53.12.57-.27h0Z"/>
      <path class="cls-5" d="M52.72,57.14c-.01.16.05.37-.04.61-.08.24-.36.39-.61.33-.46-.17-.62-.53-.83-.94-.29-1.24,1.77-1.49,1.47,0h0ZM52.64,57.14c-.02-.31-.41-.25-.57-.18-.17-.05-.65.26-.34.52.12.07.27,0,.34-.06.1-.11.53.12.57-.27h0Z"/>
      <path class="cls-5" d="M53.93,44.07c-.01.16.05.37-.04.61-.08.24-.36.39-.61.33-.46-.17-.62-.53-.83-.94-.19-.45.27-1.06.83-1.03.61.02.72.6.65,1.03h0ZM53.85,44.07c-.02-.31-.41-.25-.57-.18-.17-.05-.65.26-.34.52.12.07.27,0,.34-.06.1-.11.53.12.57-.27h0Z"/>
      <path class="cls-5" d="M54.54,38.97c-.01.16.05.37-.04.61-.08.24-.36.39-.61.33-.46-.17-.62-.53-.83-.94-.29-1.24,1.77-1.49,1.47,0h0ZM54.46,38.97c-.02-.31-.41-.25-.57-.18-.17-.05-.65.26-.34.52.12.07.27,0,.34-.06.1-.11.53.12.57-.27h0Z"/>
      <path class="cls-5" d="M58,37.93c-.01.16.05.37-.04.61-.08.24-.36.39-.61.33-.46-.17-.62-.53-.83-.94-.19-.45.27-1.06.83-1.03.61.02.72.6.65,1.03h0ZM57.92,37.93c-.02-.31-.41-.25-.57-.18-.17-.05-.65.26-.34.52.12.07.27,0,.34-.06.1-.11.53.12.57-.27h0Z"/>
      <path class="cls-5" d="M57.39,42c-.01.16.05.37-.04.61-.08.24-.36.39-.61.33-.46-.17-.62-.53-.83-.94-.29-1.24,1.77-1.49,1.47,0h0ZM57.31,42c-.02-.31-.41-.25-.57-.18-.17-.05-.65.26-.34.52.12.07.27,0,.34-.06.1-.11.53.12.57-.27h0Z"/>
      <path class="cls-5" d="M56.18,47.74c-.01.16.05.37-.04.61-.08.24-.36.39-.61.33-.46-.17-.62-.53-.83-.94-.19-.45.27-1.06.83-1.03.61.02.72.6.65,1.03h0ZM56.1,47.74c-.02-.31-.41-.25-.57-.18-.17-.05-.65.26-.34.52.12.07.27,0,.34-.06.1-.11.53.12.57-.27h0Z"/>
      <path class="cls-5" d="M59.2,45.53c-.01.16.05.37-.04.61-.08.24-.36.39-.61.33-.46-.17-.62-.53-.83-.94-.29-1.24,1.77-1.49,1.47,0h0ZM59.12,45.53c-.02-.31-.41-.25-.57-.18-.17-.05-.65.26-.34.52.12.07.27,0,.34-.06.1-.11.53.12.57-.27h0Z"/>
      <path class="cls-5" d="M56.78,52.14c-.01.16.05.37-.04.61-.08.24-.36.39-.61.33-.46-.17-.62-.53-.83-.94-.19-.45.27-1.06.83-1.03.61.02.72.6.65,1.03h0ZM56.7,52.14c-.02-.31-.41-.25-.57-.18-.17-.05-.65.26-.34.52.12.07.27,0,.34-.06.1-.11.53.12.57-.27h0Z"/>
      <path class="cls-5" d="M44.33,54.26c-.01.16.05.37-.04.61-.08.24-.36.39-.61.33-.46-.17-.62-.53-.83-.94-.29-1.24,1.77-1.49,1.47,0h0ZM44.25,54.26c-.02-.31-.41-.25-.57-.18-.17-.05-.65.26-.34.52.12.07.27,0,.34-.06.1-.11.53.12.57-.27h0Z"/>
      <path class="cls-5" d="M44.33,58.59c-.01.16.05.37-.04.61-.08.24-.36.39-.61.33-.46-.17-.62-.53-.83-.94-.19-.45.27-1.06.83-1.03.61.02.72.6.65,1.03h0ZM44.25,58.59c-.02-.31-.41-.25-.57-.18-.17-.05-.65.26-.34.52.12.07.27,0,.34-.06.1-.11.53.12.57-.27h0Z"/>
      <path class="cls-5" d="M48.58,53.86c.17.89-.63,1.34-1.17.52-.11-.15-.23-.3-.31-.52-.19-.45.27-1.06.83-1.03.61.02.72.6.65,1.03h0ZM48.5,53.86c-.02-.31-.41-.25-.57-.18-.17-.05-.65.26-.34.52.12.07.27,0,.34-.06.1-.11.53.12.57-.27h0Z"/>
      <path class="cls-5" d="M48.58,57.98c-.01.16.05.37-.04.61-.08.24-.36.39-.61.33-.46-.17-.62-.53-.83-.94-.19-.45.27-1.06.83-1.03.61.02.72.6.65,1.03h0ZM48.5,57.98c-.02-.31-.41-.25-.57-.18-.17-.05-.65.26-.34.52.12.07.27,0,.34-.06.1-.11.53.12.57-.27h0Z"/>
      <path class="cls-5" d="M46.15,46.13c-.01.16.05.37-.04.61-.08.24-.36.39-.61.33-.46-.17-.62-.53-.83-.94-.29-1.24,1.77-1.49,1.47,0h0ZM46.07,46.13c-.02-.31-.41-.25-.57-.18-.17-.05-.65.26-.34.52.12.07.27,0,.34-.06.1-.11.53.12.57-.27h0Z"/>
      <path class="cls-5" d="M44.33,49.93c-.01.16.05.37-.04.61-.08.24-.36.39-.61.33-.46-.17-.62-.53-.83-.94-.29-1.24,1.77-1.49,1.47,0h0ZM44.25,49.93c-.02-.31-.41-.25-.57-.18-.17-.05-.65.26-.34.52.12.07.27,0,.34-.06.1-.11.53.12.57-.27h0Z"/>
      <path class="cls-5" d="M47.37,42c-.01.16.05.37-.04.61-.08.24-.36.39-.61.33-.46-.17-.62-.53-.83-.94-.19-.45.27-1.06.83-1.03.61.02.72.6.65,1.03h0ZM47.29,42c-.02-.31-.41-.25-.57-.18-.17-.05-.65.26-.34.52.12.07.27,0,.34-.06.1-.11.53.12.57-.27h0Z"/>
      <path class="cls-5" d="M47.37,37.93c-.01.16.05.37-.04.61-.08.24-.36.39-.61.33-.46-.17-.62-.53-.83-.94-.19-.45.27-1.06.83-1.03.61.02.72.6.65,1.03h0ZM47.29,37.93c-.02-.31-.41-.25-.57-.18-.17-.05-.65.26-.34.52.12.07.27,0,.34-.06.1-.11.53.12.57-.27h0Z"/>
      <path class="cls-5" d="M46.15,33.68c-.01.16.05.37-.04.61-.08.24-.36.39-.61.33-.46-.17-.62-.53-.83-.94-.29-1.24,1.77-1.49,1.47,0h0ZM46.07,33.68c-.02-.31-.41-.25-.57-.18-.17-.05-.65.26-.34.52.12.07.27,0,.34-.06.1-.11.53.12.57-.27h0Z"/>
      <path class="cls-5" d="M37.92,3.01c1.3,3.07,1.9,6.34,2.25,9.64,1.07,5.4,2.13,10.87,1.57,16.4,0,.04-.08.05-.08,0-.55-3.78-.99-9.25-1.31-13.1-.26-4.35-2.24-8.78-2.43-12.94h0Z"/>
      <path class="cls-5" d="M55.66,30.86c.86-3.47,2.83-6.58,5.2-9.22,3.55-4.69,8.16-8.96,13.9-10.7.04-.02.07.05.03.07-5.03,2.97-9.98,6.26-13.72,10.79-1.97,2.91-3.65,5.99-5.33,9.09-.02.04-.09.02-.07-.03h0Z"/>
      <path class="cls-5" d="M62.09,40.91c2.94-2.61,6.73-4.09,10.56-4.81,6.28-1.64,13.21-1.85,19.13,1.15.04.02.02.09-.03.07-6.19-1.6-12.74-2.36-19.04-.97-3.65,1.06-7.36,3.05-10.62,4.56h0Z"/>
      <path class="cls-5" d="M60.95,51.62c3.95.12,7.73,1.75,10.92,4,5.58,3.38,10.48,8.43,12.01,14.94.01.04-.06.07-.08.03-2.76-5.78-6.68-11.18-12.07-14.74-3.4-1.82-7.05-3.15-10.8-4.14-.04,0-.04-.08.01-.08h0Z"/>
      <path class="cls-5" d="M49.66,62.25c2.54,2.43,4.25,5.61,5.4,8.9,2.36,5.31,3.94,11.18,2.89,17.02,0,.04-.08.04-.08,0-.37-5.73-.93-11.53-3.05-16.91-1.47-3.08-3.68-6.14-5.16-9h0Z"/>
      <path class="cls-5" d="M34.2,56.97c-3.63,1.18-7.13,2.69-10.36,4.68-5.08,3.82-8.56,9.38-10.86,15.25-.01.04-.09.03-.08-.02,1.02-6.5,5.52-11.79,10.79-15.44.9-.67,2.2-1.61,3.17-2.21,2.18-1.18,5.04-2.31,7.34-2.26h0Z"/>
      <path class="cls-5" d="M2.78,45.8c3.16-.94,6.8-1.14,10.08-1.01,5.63-.3,11.36-.44,16.83,1.18.04.01.03.08-.01.08-3.9-.21-9.49-.66-13.44-.95-4.45-.4-9.2.99-13.46.71h0Z"/>
      <path class="cls-5" d="M12.3,22.57c3.05-.31,6.07.78,8.6,2.44,4.44,2.35,8.47,6.16,9.42,11.28.01.04-.06.07-.08.03-2.19-4.39-5.21-8.53-9.47-11.07-2.7-1.21-5.55-1.99-8.48-2.58-.04,0-.04-.08,0-.08h0Z"/>
      <path class="cls-5" d="M30.09,1.5c-.2,3.88-.09,7.76.54,11.57,1.63,6.27,5.4,11.74,9.85,16.37.03.03-.01.09-.05.06-5.55-3.72-8.66-10-10.05-16.37-.28-1.11-.67-2.69-.86-3.83-.29-2.51-.29-5.62.58-7.8h0Z"/>
      <path class="cls-5" d="M43.82,2.02c1.29,3.15,1.76,6.56,1.88,9.94.66,5.57,1.14,11.44-.52,16.85-.02,0-.03-.02-.03-.04.15-3.98.43-9.5.46-13.42.14-4.46-1.63-9.08-1.79-13.32h0Z"/>
      <path class="cls-5" d="M48.24,28.09c.09-3.5.52-6.92.88-10.38.08-5.79-.78-11.52-1.01-17.31,0-.04.07-.06.08-.01,1.64,5.64,1.5,11.53,1.19,17.33,0,0,.02,3.49.02,3.49-.16,2.23-.37,4.96-1.15,6.88h0Z"/>
      <path class="cls-5" d="M52.75,29.28c1.96-2.83,3.89-5.59,5.58-8.58,2.31-5.22,3.02-10.94,3.48-16.59,0-.05.08-.05.08,0,.96,5.78-.78,11.55-3.32,16.7-.41.92-.98,2.24-1.44,3.14-1.12,1.91-2.68,4.18-4.37,5.32h0Z"/>
      <path class="cls-5" d="M56.92,31.81c2-3.1,4.62-5.7,7.45-8.04,4.38-4.22,9.01-8.52,14.62-10.97,0,.02,0,.04-.01.05-3.45,2.6-8.28,6.15-11.66,8.74-3.89,2.87-6.8,7.32-10.4,10.22h0Z"/>
      <path class="cls-5" d="M60.97,37.1c2.64-2.69,5.67-4.95,8.98-6.75,5.18-3.42,11.46-6.29,17.77-4.71.05,0,.04.08-.01.08-6.19-.15-12.34,1.67-17.62,4.85-3.02,2.08-6.02,4.9-9.12,6.53h0Z"/>
      <path class="cls-5" d="M62.8,43.64c3.44-2.12,7.55-2.95,11.56-2.97,6.66-.5,13.71.62,19.1,4.8.04.03,0,.09-.04.07-5.92-2.86-12.42-4.86-19.04-4.61-3.89.4-8,1.74-11.57,2.72h0Z"/>
      <path class="cls-5" d="M62.19,49.68c3.96-.71,8.06.04,11.77,1.5,6.34,1.99,12.43,5.66,15.82,11.54.03.04-.03.08-.06.05-4.38-4.86-9.63-9.13-15.84-11.34-3.81-.99-7.74-1.47-11.69-1.66-.05,0-.05-.07,0-.08h0Z"/>
      <path class="cls-5" d="M60.01,54.87c3.65.83,6.94,2.84,9.75,5.28,4.97,3.7,9.4,8.48,11.21,14.52.02.04-.05.07-.07.03-3.02-5.31-6.5-10.48-11.29-14.35-2.96-2.08-6.64-3.75-9.59-5.48h0Z"/>
      <path class="cls-5" d="M54.06,60.19c3.23,1.49,5.82,4.11,7.78,7.04,3.64,4.61,6.39,10.23,6.07,16.24,0,.04-.07.05-.08,0-1.06-5.68-2.78-11.37-6.19-16.09-.64-.79-1.67-1.8-2.42-2.51-1.55-1.64-3.68-3.21-5.16-4.69h0Z"/>
      <path class="cls-5" d="M44.63,62.96c.46,4.45-.31,8.87.32,13.29.55,3.88,1.35,9.32,1.72,13.18,0,.04-.07.06-.08.02-1.85-5.31-2.06-10.94-2.19-16.5-.31-3.24-.61-7,.23-9.99h0Z"/>
      <path class="cls-5" d="M46.45,62.97c2.35,2.86,3.77,6.38,4.6,9.96,1.85,5.8,2.81,12.2,1.12,18.15-.01.04-.08.03-.08-.01.28-6.05.32-12.19-1.29-18.06-1.18-3.4-3.11-6.86-4.35-10.03h0Z"/>
      <path class="cls-5" d="M42.32,62.91c-.41,3.36-1.03,6.62-1.48,9.96-.21,5.6.82,11.12,1.56,16.66,0,.04-.06.07-.08.02-2.14-5.3-2.19-11.08-1.75-16.7.04-.98.05-2.39.11-3.38.26-2.15.67-4.8,1.63-6.56h0Z"/>
      <path class="cls-5" d="M19.12,81.32c-.73-3.84.95-7.73,3.44-10.6,3.78-5.19,9.47-8.53,15.43-10.65.04-.02.08.05.03.07-9.83,5.95-17.59,8.44-18.9,21.19h0Z"/>
      <path class="cls-5" d="M39.18,60.9c-2.67,2.25-5.19,4.65-7.36,7.37-3.17,4.88-4.47,10.7-4.92,16.46,0,.05-.08.05-.08,0-.97-5.95,1.38-11.82,4.78-16.61.56-.86,1.38-2.08,2.01-2.91,1.49-1.71,3.58-3.63,5.56-4.31h0Z"/>
      <path class="cls-5" d="M31.45,53.03c-3.39,1.62-6.76,3.28-9.94,5.26-5.01,3.77-8.8,8.85-12.21,14.06-.02.04-.09,0-.07-.04,2.24-6.02,6.95-10.64,12.13-14.23.88-.66,2.14-1.61,3.07-2.23,2.1-1.24,4.77-2.57,7.02-2.81h0Z"/>
      <path class="cls-5" d="M29.94,48.96c-4.58.81-9.25.5-13.74,1.7-3.89,1.03-9.41,2.62-13.35,3.69-.02,0-.04,0-.05-.03,5.1-2.85,11.02-3.81,16.75-4.61,3.32-.69,7.2-1.35,10.39-.75h0Z"/>
      <path class="cls-5" d="M29.07,43.12c-3.4-.54-7.12-1.31-10.47-2.12-5.47-.96-12.17-.76-17.74-1.1,0,0,0-.46,0-.46.78.09,1.56.2,2.35.32.05,0,.04.08,0,.08-.79.04-1.58.06-2.37.06-.28,0-.31-.44-.02-.45,2.39-.2,4.79-.26,7.19-.11,3.59.16,7.09.94,10.65,1.35,3.47.34,7.44.98,10.43,2.43h0Z"/>
      <path class="cls-5" d="M29.78,38.72c-2.58-2.24-5.19-4.42-8.02-6.29-5.03-2.66-10.73-3.62-16.35-4.1-.05,0-.05-.08,0-.08,5.79-.92,11.53,1.07,16.48,3.96.88.47,2.15,1.14,3.02,1.67,1.81,1.27,3.93,3.04,4.87,4.85h0Z"/>
      <path class="cls-5" d="M32.66,33.84c-2.07-2.76-4.49-5.14-6.96-7.51-4.31-3.47-10.25-6.9-11.52-12.53,2.86,4.99,7.41,8.59,11.69,12.33.79.62,1.94,1.48,2.73,2.13,1.62,1.5,3.52,3.59,4.06,5.58h0Z"/>
    </g>
  </g>
  <g>
    <path class="cls-2" d="M60.01,109.13c3.74-8.87,12.16-14.67,19.51-20.89,7.35-6.22,14.45-14.54,13.8-24.14,3.83,7.66,6.85,16.08,6.17,24.62-.69,8.54-5.87,17.16-14.04,19.73-4.25,1.34-8.82.97-13.26,1.37s-9.22,1.9-11.56,5.7l-.61-6.39Z"/>
    <g>
      <path class="cls-5" d="M66.19,107.34c-1.09-2.48.35-5.87,2.9-6.8-1.82,1.94-2.76,4.14-2.9,6.8h0Z"/>
      <path class="cls-5" d="M72.74,103.12c.7-2.48,1.55-4.73,2.68-7.05-.05,2.57-1.01,5.09-2.68,7.05h0Z"/>
      <path class="cls-5" d="M78.91,100.71c.86-2.54,1.54-4.85,2.19-7.45.48,2.62-.37,5.51-2.19,7.45h0Z"/>
      <path class="cls-5" d="M85.31,95.93c-.87-2.59-1.03-5.36-.46-8.03.53,2.69.68,5.3.46,8.03h0Z"/>
      <path class="cls-5" d="M89.12,92.12c-1.05-2.28-1.57-4.68-1.55-7.19,1.06,2.27,1.57,4.68,1.55,7.19h0Z"/>
      <path class="cls-5" d="M91.05,86.91c.66-2.89,1.29-5.57,2-8.45.41,2.92-.32,6.02-2,8.45h0Z"/>
      <path class="cls-5" d="M91.5,87.93c1.12-1.45,2.15-2.59,3.5-3.83-.36,1.79-1.76,3.31-3.5,3.83h0Z"/>
      <path class="cls-5" d="M89.79,91.86c2.26-.61,4.18-1.25,6.36-2.1-1.51,1.78-4.09,2.63-6.36,2.1h0Z"/>
      <path class="cls-5" d="M85.57,96.49c2.36-.3,4.43-.6,6.77-.95-1.9,1.4-4.56,1.77-6.77.95h0Z"/>
      <path class="cls-5" d="M82.75,99.17c2.35.16,4.44.39,6.77.74-2.21.77-4.77.48-6.77-.74h0Z"/>
      <path class="cls-5" d="M78.35,101.33c2.69,1.17,5.34,1.98,8.24,2.35,0,0,0,.34,0,.34-1.15-.17-1.14-.21,0-.34.21-.03.26.3.04.33-2.95.36-6.14-.61-8.29-2.68h0Z"/>
      <path class="cls-5" d="M71.61,104.53c3.48.78,6.78,1.46,10.29,2.12-3.52.46-7.23-.31-10.29-2.12h0Z"/>
    </g>
    <path class="cls-5" d="M63.98,109.77c2.42-4.43,7.92-5.06,12.17-6.73,7.02-3.6,10.77-10.98,15.68-16.86.04-.05.13,0,.1.06-4.44,9.75-9.97,15.14-19.88,19.18-2.88,1.17-5.8,2.13-7.97,4.42-.04.05-.13-.01-.1-.07h0Z"/>
  </g>
</svg>