<?xml version="1.0" encoding="UTF-8"?>
<svg id="_왼쪽_위" data-name="왼쪽_위" xmlns="http://www.w3.org/2000/svg" version="1.1" viewBox="0 0 97.31 174.52">
  <defs>
    <style>
      .cls-1, .cls-2, .cls-3, .cls-4, .cls-5, .cls-6 {
        stroke: #111114;
      }

      .cls-1, .cls-2, .cls-4, .cls-5, .cls-6 {
        stroke-linecap: round;
        stroke-linejoin: round;
        stroke-width: 1.31px;
      }

      .cls-1, .cls-3 {
        fill: #ff97b5;
      }

      .cls-2 {
        fill: #d793ff;
      }

      .cls-7 {
        fill: #111114;
        stroke-width: 0px;
      }

      .cls-3 {
        stroke-miterlimit: 10;
        stroke-width: 1.17px;
      }

      .cls-4 {
        fill: #f5ff2e;
      }

      .cls-5 {
        fill: none;
      }

      .cls-6 {
        fill: #00d675;
      }
    </style>
  </defs>
  <path class="cls-6" d="M.67,172.85c-.24-1.38,2.79-5.16,5.22-7.2,5.03-4.63,9.74-9.81,13.03-15.85,11.79-21.32-2.48-34.02-7.92-53.8-3.71-13.25-2.31-28.69,7-39.35,4.22-5.36,13.18-10.62,19.17-7.67,3.8,1.98-.95,3.57-2.9,4.14-8.91,2.27-17.11,11.43-19.15,20.05-3.15,12.73,3.25,30.33,8.07,42.17,1.88,4.79,2.85,9,3.74,13.49,1.67,8.45-.56,18.41-5.09,25.47-2.97,4.98-6.17,8.84-10.13,13.15-1.95,2.19-4.65,4.43-6.86,5.49-2.46,1.25-4.13,1.21-4.19-.02v-.08Z"/>
  <g>
    <g>
      <path class="cls-1" d="M32.95,68.62c.22-4.52.43-9.04.65-13.56-3.06.53-6.11,1.05-9.17,1.58,1.46-2.82,3.58-5.34,6.13-7.32-2.57-3.69-5.63-7.03-9.08-9.94,4.36-.79,8.93.4,12.1,3.15,7.22,6.26,6.17,19.08-.63,26.08Z"/>
      <path class="cls-3" d="M67.54,2.7c3.92-2.49,3.23,3.09,5.56,3.99,2.34.9,3.35,6.62,4.51,5.08,1.16-1.54,5.1,2.26,9.16,6.86,4.06,4.6.42,10.51.42,10.51,0,0,5.51,2.48,8.76,7.48,3.25,5-5.9,7.84-5.9,7.84-.19,1.06,1.15,6.35-13.6,15.67-14.75,9.32-14.18,2.8-26.1,3.15-11.92.35-15.29-15.13-16.09-16.16-12.13-15.66,5.41-22.33,12.16-31.49,6.75-9.16,14.69-12.51,18.12-14.39,3.43-1.88,2.99,1.47,2.99,1.47"/>
      <path class="cls-1" d="M90.06,44.45s9.15-2.84,5.9-7.84-8.76-7.48-8.76-7.48c0,0,3.64-5.92-.42-10.51s-8-8.39-9.16-6.86c-1.16,1.54-2.18-4.18-4.51-5.08s-1.64-6.48-5.56-3.99"/>
      <path class="cls-4" d="M72.44,32.51s11.55-3.62,12.06-10.71c.51-7.08-8.98-.29-8.98-.29l-7.45,8.06"/>
      <path class="cls-4" d="M72.93,34.24s11.24-5.37,15.97-.42c4.73,4.96,1.51,5.02,1.51,5.02,0,0-11.57-1.4-17.04.15"/>
      <path class="cls-4" d="M66.84,29.21s11.06-9.98,8.43-15.16-3.32-5.06-3.6-4.81-1.67,1.81-1.62,2.42.7,2.48-1.6,6.32c-2.3,3.84-3.88,7.64-3.88,7.64"/>
      <path class="cls-2" d="M34.26,47.11c.8,1.03,4.17,16.51,16.09,16.16,11.92-.35,11.35,6.17,26.1-3.15,14.75-9.32,13.4-14.61,13.6-15.67s-2.25-5.3-5.32-3.18c-3.07,2.12-6.58,2.99-7.89,2.64-.48-.13-1.25-1.12-2.04-2.38-1.4-2.23-2.87-5.33-2.89-6.1-.03-1.2,2.63-1.05.53-2.92s-3.25-2.05-4.37-2.94-2.29.49-3.01-1.85-.56-3.15-.64-4.24-2.7-.07-.66-2.55c2.05-2.48,2.82-5.33,2.82-5.33l.74-6.08s-1.5-.66-1.03-2.4,1.25-4.42,1.25-4.42c0,0,.44-3.35-2.99-1.47-3.43,1.88-11.38,5.23-18.12,14.39-6.75,9.16-24.29,15.84-12.16,31.49Z"/>
      <path class="cls-5" d="M76.71,43.57c-3.24,3.27-7.9,4.75-12.48,5.27-4.57.52-9.2.2-13.8.48-4.6.28-9.32,1.23-13.03,3.95"/>
      <path class="cls-5" d="M62.39,22.78c-10.33,6.67-19.72,14.8-27.81,24.07"/>
      <path class="cls-7" d="M36.91,53.82c.16.99-.18,1.78-.61,2.6-.23,1.49,0,3.01-.85,4.37-.02.03-.07.03-.08,0-.18-.62-.19-1.23-.13-1.83.08-.91.62-1.71.81-2.59-.02-.93.09-1.83.78-2.57.02-.03.07-.01.07.02h0Z"/>
      <path class="cls-7" d="M35.31,50.94c-.57.8-1.36,1.08-2.24,1.28-.76.39-1.35,1.11-2.13,1.46-.52.24-1.07.42-1.7.47-.04,0-.06-.04-.04-.07.92-1.27,2.42-1.51,3.75-2.08.65-.6,1.35-1.12,2.32-1.12.04,0,.06.04.03.07h0Z"/>
      <path class="cls-7" d="M33.43,46.68c-1.1-.38-1.83-1.14-2.53-1.99-1.45-1.04-3.35-1.66-4.31-3.24,1.9.33,3.1,1.85,4.46,3.04.99.49,1.9,1.08,2.43,2.13.02.03-.02.07-.05.06h0Z"/>
    </g>
    <g>
      <path class="cls-7" d="M70.9,30.85c.76-1.54,2.06-2.41,3.47-3.19,1.2-1.01,2.01-2.47,3.27-3.42.83-.64,1.71-1.23,2.74-1.63.05-.02.11.04.08.09-1.28,2.49-3.73,3.64-5.84,5.25-.96,1.29-2.01,2.45-3.64,2.99-.05.02-.11-.04-.08-.09h0Z"/>
      <path class="cls-7" d="M65.6,27.97c.25-1.77,1.28-3.07,2.47-4.26.93-1.36,1.41-3.03,2.49-4.29.71-.85,1.49-1.63,2.48-2.24.05-.03.11.02.09.07-.89,2.74-3.08,4.47-4.74,6.67-.61,1.56-1.29,3.02-2.69,4.11-.04.04-.11,0-.1-.06h0Z"/>
      <path class="cls-7" d="M73.17,37.43c.98-1.31,2.52-1.67,4.03-1.66,1.45-.3,2.86-.99,4.39-.8,1,.11,1.99.4,2.84,1,.05.03.03.11-.03.11-2.46.45-4.76-.29-7.11.06-1.32.66-2.49,1.28-4.06,1.39-.05,0-.09-.06-.06-.1h0Z"/>
      <path class="cls-7" d="M33.38,46.43c.63-7.95,8.29-12.01,13.19-17.28,5.14-5.28,10.54-10.27,16.44-14.7.05-.04.13.04.08.09-4.93,5.49-10.38,10.42-16.09,15.08-4.28,3.4-8.07,7.46-11.17,11.95-.98,1.5-1.77,3.13-2.33,4.89-.02.06-.12.05-.11-.02h0Z"/>
      <path class="cls-7" d="M32.44,44.7c-.46-8.43,6.4-13.65,11.62-19.16,5.25-5.56,10.75-10.84,16.77-15.56.05-.04.13.03.08.09-5.03,5.77-10.59,10.99-16.41,15.94-5.86,4.7-10.46,11.61-12.06,18.69h0Z"/>
      <path class="cls-7" d="M35.26,49.86c2.61-3.33,5.9-5.95,9.34-8.34,3.25-2.63,6.22-5.62,9.68-7.99,2.29-1.59,4.67-3.06,7.2-4.28.06-.03.12.06.06.1-5.21,4.67-11.22,8.18-16.7,12.47-3.01,2.91-6,5.77-9.5,8.13-.05.04-.12-.04-.08-.09h0Z"/>
      <path class="cls-7" d="M35.76,52.2c2.16-3.37,5.42-5.83,8.9-7.7,5.43-3.71,11.53-6.89,18.27-6.87.06,0,.08.1.02.12-6.18,2-12.51,3.67-18.08,7.07-3.08,2.43-5.9,5.02-9.02,7.46-.05.04-.13-.03-.09-.08h0Z"/>
      <path class="cls-7" d="M36.26,52.45c3.3-3.46,7.71-5.55,12.22-6.91,7.28-2.97,14.91-5.06,22.8-5.39.07,0,.09.1.02.12-7.46,2.36-15.33,2.98-22.68,5.63-4.23,2-8.22,4.29-12.29,6.65-.05.04-.12-.05-.07-.09h0Z"/>
      <path class="cls-7" d="M37.39,54.36c3.95-1.05,7.92,1.09,11.37,2.69,11.04,5.66,23-1.41,32.9-6.48.06-.03.12.06.06.1-9.65,7.83-21.25,11.39-33.34,7.27-3.63-1.43-6.94-3.69-10.97-3.47-.07,0-.09-.1-.02-.11h0Z"/>
      <path class="cls-7" d="M37.96,54.87c3.01-3.17,7.82-2.22,11.5-.97,3.79.98,7.81.68,11.6.06,2.54-.41,5.04-1.09,7.54-1.98.06-.03.11.07.05.1-4.37,3.12-10.16,4.12-15.39,3.04-4.95-1.04-10.43-2.54-15.22-.17-.05.04-.12-.05-.07-.09h0Z"/>
    </g>
  </g>
</svg>