<?xml version="1.0" encoding="UTF-8"?>
<svg id="_왼쪽_위" data-name="왼쪽_위" xmlns="http://www.w3.org/2000/svg" xmlns:xlink="http://www.w3.org/1999/xlink" version="1.1" viewBox="0 0 128.84 127.26">
  <defs>
    <style>
      .cls-1 {
        clip-path: url(#clippath);
      }

      .cls-2, .cls-3, .cls-4, .cls-5 {
        stroke-linecap: round;
        stroke-linejoin: round;
      }

      .cls-2, .cls-3, .cls-5 {
        stroke: #111114;
        stroke-width: 1.46px;
      }

      .cls-2, .cls-4 {
        fill: none;
      }

      .cls-6 {
        fill: #00b2ff;
      }

      .cls-6, .cls-7 {
        stroke-width: 0px;
      }

      .cls-3 {
        fill: #d793ff;
      }

      .cls-4 {
        stroke: #ff6a37;
        stroke-width: 2.44px;
      }

      .cls-5, .cls-8 {
        fill: #ff6a37;
      }

      .cls-7 {
        fill: #111114;
      }
    </style>
    <clipPath id="clippath">
      <path class="cls-5" d="M64.28,42.34s12.38-.72,16.47,5.74c4.09,6.46,5.53,5.02,5.77,9.57s2.87,10.04,0,12.91-3.69,7.41-10.46,9.8c-6.76,2.39-6.52,6.46-13.46,3.59-6.94-2.87-14.59-1.67-15.31-5.5-.72-3.83-5.74-10.04-4.3-14.82,1.43-4.79-1.2-10.29,3.35-14.11,4.54-3.83,6.94-2.87,12.44-5.02l5.5-2.15Z"/>
    </clipPath>
  </defs>
  <path class="cls-6" d="M120.23,56.21c-1.46-.8-2.95-1.4-4.44-1.85l.62.11s19.61-14.05,1.2-22.9c-3.06-1.47-6.12-1.98-9.09-1.84-.09-.11-.16-.23-.25-.34l.26.09c2.63-13.81-4.24-15.37-4.24-15.37-11.79-9.56-19.48,2.56-21.29,5.9-.1,0-.21,0-.31.01,1.24-10.06-1.48-19.43-14.1-19.31-7.54.07-11.39,4.13-13.13,9.74-.02-.01-.03-.03-.05-.04-1.33-9.1-10.74-6.51-10.74-6.51-8.73.35-5.54,10.25-5.54,10.25l.25-.06s-.05.1-.07.15c-.41-.18-.81-.34-1.23-.45-11.04-2.97-17.2,4.88-17.2,4.88,0,0-2.52,4.72-1.07,9.92-.01,0-.03.01-.04.02l.02-.08s-13.94-2.71-12.76,14.75c0,0-.48,9.69,4.78,10.04l.08-.26c0,.08,0,.16.01.24-2.22.61-4.18,1.55-5.68,2.95C-3.05,64.94.03,77.98,10.9,78.99c-1.33,1.71-2.3,3.67-2.76,5.95-3.4,17,12.95,16.16,12.95,16.16,0,0,1.84.15,3.39-1.25h0c-.56,1.54-.81,3.15-.62,4.8,1.49,13.48,14.19,12.37,14.19,12.37,0,0,11.56-.64,13.01-11.15v-.04s0,0,0,0c-.53,13.11,5.27,16.08,5.27,16.08,0,0,12.32,12.74,20.6-4.09.89-1.8,1.51-3.62,1.93-5.43,2.57,4.43,10.38,5.42,10.38,5.42,0,0,15.29,1.13,13.54-14.37-.13-1.13-.36-2.23-.67-3.3h0s5.38.96,5.38.96c0,0,18.17-6,8.95-18.33h0c5.33-1.76,7.36-4.31,7.36-4.31,0,0,11.72-13.87-3.59-22.24Z"/>
  <g>
    <g>
      <path class="cls-8" d="M64.28,42.34s12.38-.72,16.47,5.74c4.09,6.46,5.53,5.02,5.77,9.57s2.87,10.04,0,12.91-3.69,7.41-10.46,9.8c-6.76,2.39-6.52,6.46-13.46,3.59-6.94-2.87-14.59-1.67-15.31-5.5-.72-3.83-5.74-10.04-4.3-14.82,1.43-4.79-1.2-10.29,3.35-14.11,4.54-3.83,6.94-2.87,12.44-5.02l5.5-2.15Z"/>
      <g class="cls-1">
        <path class="cls-7" d="M47.09,49.12c5.69-.16,11.37.03,17.05.28,9.47.12,18.96.02,28.42.62.03,0,.03.05,0,.05-9.48.23-18.95-.24-28.42-.5-5.64-.03-11.57.08-17.05-.45h0Z"/>
        <path class="cls-7" d="M75.42,43.82c-3.56,6.44-7.73,12.52-11.15,19.04-3.42,6.51-6.79,13.04-10.27,19.53-.01.03-.06,0-.04-.02,2.94-6.75,6.36-13.28,10.08-19.63,3.74-6.27,7.08-13.15,11.38-18.91h0Z"/>
        <path class="cls-7" d="M48.67,81.82c-.22-6.05.44-12.07.48-18.11.14-5.74-.02-12.71.75-18.05,0,0-.69.7-.69.7,0,0-.02,0-.03,0,0,0,0-.02,0-.03l.63-.76s.13-.02.12.05c.06,6.04-.17,12.08-.53,18.11-.38,5.98.02,12.28-.73,18.1h0Z"/>
        <path class="cls-7" d="M42.45,58.23c6.6,4.71,15.49,11.61,22.23,15.89,7.43,4.76,15.66,9.81,23.23,14.38,0,0-.04.07-.04.07l-.39-.25s0-.06.03-.04c0,0,.4.23.4.23-1.87-.71-4.07-2.21-6.03-3.22-5.91-3.34-11.77-7.08-17.35-10.94-6.56-4.53-16.33-10.91-22.08-16.11h0Z"/>
        <path class="cls-7" d="M72.35,83.59c2.96-4.88,6.68-9.21,9.84-13.95,3.17-4.73,6.46-9.37,10.01-13.82.02-.02.06,0,.04.03-3.07,4.8-6.39,9.42-9.84,13.95-3.46,4.46-6.4,9.65-10.05,13.79h0Z"/>
        <path class="cls-7" d="M87.84,55.84c-3.41,4.17-8.57,9.68-11.57,14.08-3.48,4.99-6.77,10.07-10.06,15.2-.01.03-.06,0-.04-.02,2.77-5.43,6.13-10.54,9.88-15.33,3.76-4.71,7.34-10,11.79-13.92h0Z"/>
        <path class="cls-7" d="M61.89,85.95c-2.21-6.41-3.78-13.01-6.24-19.32-2.45-6.31-5-12.57-7.51-18.87-.01-.03.03-.05.04-.02,3.05,6.06,5.58,12.37,7.71,18.8,2.06,6.39,4.79,12.91,5.99,19.41h0Z"/>
        <path class="cls-7" d="M50.8,44c3.44,4.88,6.55,9.97,9.58,15.11,5.3,8.41,10.69,16.77,15.38,25.54.02.03-.03.05-.04.02-5.4-8.35-10.31-17-15.48-25.48-3.19-4.98-6.68-10.11-9.44-15.2h0Z"/>
        <path class="cls-7" d="M57.92,84.45c5.97-3.77,9.85-9.96,12.94-16.16,3.03-6.25,6.26-12.97,12.27-16.89l.03.22-2.57-.89s-.02-.02-.02-.03c0-.01.02-.02.03-.02l2.63.7c.1.03.12.16.03.22-5.69,4.22-8.9,10.71-12.22,16.79-3.22,6.02-6.68,13.14-13.13,16.06h0Z"/>
        <path class="cls-7" d="M58.94,41.68c4.17,6.51,7.74,13.37,12.01,19.81,3.2,4.8,9.6,14.5,12.75,19.34.02.02-.02.05-.04.03-5.88-7.67-10.96-15.91-15.96-24.16-2.99-4.69-6.45-10.12-8.75-15.01h0Z"/>
        <path class="cls-7" d="M65.15,39.43c1.89,7.82,4.07,18.82,6.32,26.42,1.83,6.28,3.99,13.2,5.94,19.49,0,0,2.05,6.48,2.05,6.48-4.22-10.32-7.19-21.54-9.93-32.48-1.68-6.31-3.56-13.59-4.38-19.91h0Z"/>
        <path class="cls-7" d="M81.72,45.92c-4.23,5.93-8.96,11.49-12.91,17.61-3.95,6.12-7.78,12.3-11.63,18.48-.01.03-.06,0-.04-.02,3.34-6.48,7.22-12.68,11.45-18.61,4.25-5.85,8.23-12.29,13.13-17.46h0Z"/>
        <path class="cls-7" d="M42.68,81.39c.37-5.73,1.66-11.33,2.28-17.02.63-5.69,1.41-11.36,2.49-16.99,0-.03.05-.02.05,0-.5,5.71-1.32,11.38-2.28,17.02-1.01,5.59-1.21,11.58-2.54,16.98h0Z"/>
        <path class="cls-7" d="M42.72,53.54c9.48,2.51,22.81,7.63,32.12,11.13,6.59,2.45,13.25,5.14,19.69,7.99,0,0,3.87,1.77,3.87,1.77,2.57,1.2,5.14,2.39,7.67,3.66.05.02.03.11-.03.1,0,0-1.09-.16-1.09-.16-.03,0-.02-.05,0-.05l1.1.1-.03.1c-10.09-4.43-21.1-9.16-31.28-13.27-9.08-3.77-22.82-7.98-32.02-11.37h0Z"/>
        <path class="cls-7" d="M41.41,76.37c9.91-5.02,18.26-12.49,26.85-19.42,8.64-6.97,18.3-12.64,28.05-17.85.06.04-7.13,4.32-7.12,4.34-6.87,4.22-14.4,8.84-20.77,13.72-8.77,6.6-16.77,15.13-27.01,19.21h0Z"/>
        <path class="cls-7" d="M65.07,36.63c-.06,6.29-.47,12.57-.93,18.84-.48,10.47-.74,20.95-1.7,31.4,0,.03-.05.03-.05,0,.14-10.49.97-20.94,1.58-31.4.24-6.23.36-12.77,1.1-18.83h0Z"/>
        <path class="cls-7" d="M50.42,83.33c1.03-6.51,2.35-12.96,3.66-19.41,1.9-10.81,3.43-21.68,5.48-32.46,0-.03.05-.02.05,0-1.24,10.91-3.33,21.7-5.36,32.49-1.09,6.44-2.16,13.2-3.82,19.38h0Z"/>
        <path class="cls-7" d="M42.16,52.83c6.56-.31,13.13-.26,19.69-.17,10.94-.13,21.88-.47,32.82-.12.03,0,.03.05,0,.05-10.94.47-21.88.25-32.82.24-6.51.12-13.32.38-19.69,0h0Z"/>
        <path class="cls-7" d="M84.67,80.37c-2.19-7.22-3.78-14.61-6.22-21.75-1.85-5.32-5.61-16.04-7.5-21.35-.01-.03.03-.05.05-.02,3.86,8.63,6.69,17.65,9.33,26.71,1.64,5.18,3.5,11.2,4.35,16.41h0Z"/>
        <path class="cls-7" d="M66.71,87.04c-1.06-5.79-1.72-11.64-2.28-17.5-1.22-9.73-2.51-19.45-2.97-29.26,0-.03.05-.03.05,0,1.28,9.72,2.01,19.5,3.09,29.24.77,5.78,1.76,11.83,2.11,17.52h0Z"/>
        <path class="cls-7" d="M94.66,61.68c-6.48,1-13.75,1.59-20.33,1.95-11.31.92-22.64,1.7-34,1.45-.03,0-.03-.05,0-.05,5.2-.26,29.29-1.13,33.99-1.57,6.73-.59,13.72-1.46,20.34-1.78h0Z"/>
        <path class="cls-7" d="M86.93,57.59c-7.82.16-15.63-.04-23.44-.28-13.02-.12-26.05-.03-39.07-.63-.03,0-.03-.05,0-.05,13.03-.22,26.05.25,39.07.51,7.76.03,15.83-.07,23.44.45h0Z"/>
      </g>
      <path class="cls-2" d="M64.28,42.34s12.38-.72,16.47,5.74c4.09,6.46,5.53,5.02,5.77,9.57s2.87,10.04,0,12.91-3.69,7.41-10.46,9.8c-6.76,2.39-6.52,6.46-13.46,3.59-6.94-2.87-14.59-1.67-15.31-5.5-.72-3.83-5.74-10.04-4.3-14.82,1.43-4.79-1.2-10.29,3.35-14.11,4.54-3.83,6.94-2.87,12.44-5.02l5.5-2.15Z"/>
    </g>
    <path class="cls-2" d="M58.78,44.5S43.71.97,68.58.73c24.87-.24,11.32,36.36,4.7,42.57"/>
    <path class="cls-2" d="M82.57,20.84s8.14-17.71,21.71-6.71c0,0,6.87,1.56,4.24,15.37"/>
    <path class="cls-2" d="M80.75,48.08s18.44-25.35,36.86-16.5c18.41,8.85-1.2,22.9-1.2,22.9"/>
    <path class="cls-2" d="M86.91,60.58s18.01-12.74,33.32-4.37,3.59,22.24,3.59,22.24c0,0-2.03,2.54-7.36,4.31"/>
    <path class="cls-2" d="M86.52,70.56s13.99-4.29,27.8,9.72c13.8,14.01-6.8,20.81-6.8,20.81l-5.38-.95"/>
    <path class="cls-2" d="M80.75,77.74s20.3,10.19,22.05,25.69-13.54,14.37-13.54,14.37c0,0-7.86-.99-10.4-5.45"/>
    <path class="cls-2" d="M71.45,82.77s13.78,18.22,5.49,35.05c-8.28,16.83-20.6,4.09-20.6,4.09,0,0-8.71-4.46-3.82-26.54,0,0,1.28-9.69,6.37-12.6"/>
    <path class="cls-2" d="M56.75,45.2c-.2-.59-7.63-28.4-18.67-31.38-11.04-2.97-17.2,4.88-17.2,4.88,0,0-6.58,12.32,7.64,19.11s17.81,11.7,17.81,11.7"/>
    <path class="cls-2" d="M43.5,56.29c-1.17,0-27.93-8.7-37.27,0-9.34,8.7-6.16,21.87,4.88,22.72"/>
    <path class="cls-2" d="M43.12,68.07s-31.58-.13-34.97,16.88c-3.4,17,12.95,16.16,12.95,16.16,0,0,1.84.15,3.39-1.25"/>
    <path class="cls-2" d="M49,80.52s-26.62,10.65-25.13,24.13c1.49,13.48,14.19,12.37,14.19,12.37,0,0,11.56-.64,13.01-11.15"/>
    <path class="cls-2" d="M39.13,14.18s-3.19-9.9,5.54-10.25c0,0,9.48-2.62,10.76,6.59"/>
    <path class="cls-2" d="M19.8,28.58s-13.94-2.71-12.76,14.75c0,0-.48,9.69,4.78,10.04"/>
  </g>
  <path class="cls-3" d="M64.64,50.02s7.92-.46,10.54,3.67,3.54,3.21,3.69,6.12,1.84,6.42,0,8.26-2.36,4.74-6.69,6.27-4.17,4.13-8.61,2.29c-4.44-1.84-9.33-1.07-9.79-3.52-.46-2.45-3.67-6.42-2.75-9.48.92-3.06-.76-6.58,2.14-9.03,2.91-2.45,4.44-1.84,7.95-3.21l3.52-1.38Z"/>
  <g>
    <path class="cls-7" d="M64.82,53.75s5.75-.33,7.65,2.66,2.57,2.33,2.68,4.44,1.33,4.66,0,5.99-1.71,3.44-4.85,4.55-3.03,3-6.25,1.67-6.77-.78-7.1-2.55-2.66-4.66-2-6.88c.67-2.22-.56-4.77,1.55-6.55,2.11-1.78,3.22-1.33,5.77-2.33l2.55-1Z"/>
    <path class="cls-7" d="M64.81,53.71c2.66-.19,5.87.04,7.72,2.23.45.58.75,1.11,1.19,1.62.41.53.88.91,1.36,1.54.48.7.43,1.53.49,2.13.07.64.2,1.29.33,1.96.25,1.31.42,3.09-.75,4.03-1.22,1.49-2.37,3.47-4.38,4.14-1.33.45-2.36,1.15-3.49,1.97-1.94,1.16-4-.55-5.98-.67,0,0-2-.32-2-.32-.99-.16-2.56-.5-2.79-1.77-.23-.93-.74-1.78-1.16-2.68-.6-1.29-1.22-2.68-.91-4.18.41-1.24.2-2.51.33-3.95.49-4.92,6.58-4.42,10.04-6.05h0ZM64.83,53.79c-1.25.53-2.42,1.15-3.73,1.59-1.27.39-2.58.62-3.65,1.42-1.9,1.1-1.91,3.05-1.82,5.02.01.66-.1,1.49-.26,2.1-.24,1.11.29,2.38.82,3.57.41.94.94,1.86,1.16,2.91.06.25.15.41.36.57.81.57,2.71.74,3.71.99,1.92.15,3.77,2,5.66,1.04.57-.31,1.11-.74,1.71-1.07,1.18-.67,2.55-.89,3.55-1.84,1.06-.87,1.57-2.13,2.43-3.2,1.47-1.45.13-3.75.02-5.58-.07-.72-.07-1.32-.37-1.78-.32-.46-.87-.97-1.28-1.52-.43-.53-.79-1.17-1.16-1.66-1.61-2.05-4.67-2.42-7.15-2.56h0Z"/>
  </g>
  <path class="cls-4" d="M65.58,69.62s-3.48.2-4.63-1.61-1.55-1.41-1.62-2.69-.81-2.82,0-3.63,1.04-2.08,2.94-2.76,1.83-1.82,3.78-1.01,4.1.47,4.3,1.55,1.61,2.82,1.21,4.17.34,2.89-.94,3.97-1.95.81-3.5,1.41l-1.55.61Z"/>
  <g>
    <path class="cls-7" d="M62.65,42.97c-.79-3.45-.87-6.93-.83-10.43-.49-5.79-1.65-11.67-1.03-17.45,1.37,5.68,1.05,11.62,1.35,17.43.43,3.37,1.1,7.28.51,10.45h0Z"/>
    <path class="cls-7" d="M67.67,41.83c-.23-3.29.25-6.49.85-9.69.44-5.38.24-10.97,1.77-16.16.44,5.43-.82,10.82-1.46,16.19-.11,3.15-.08,6.88-1.17,9.66h0Z"/>
    <path class="cls-7" d="M77.94,44.47c1.51-2.93,3.58-5.42,5.76-7.84,3.17-4.37,5.9-9.26,9.91-12.9-2.44,4.87-6.32,8.83-9.65,13.09-1.73,2.64-3.64,5.84-6.01,7.65h0Z"/>
    <path class="cls-7" d="M82.93,50.99c1.59-1.89,3.59-3.2,5.67-4.41,3.13-2.47,5.98-5.57,9.7-7.1-2.57,3.15-6.25,5.03-9.51,7.35-1.74,1.67-3.56,3.23-5.81,4.24-.04.02-.1-.04-.06-.08h0Z"/>
    <path class="cls-7" d="M86.36,55.28c1.92-1.98,4.36-3.22,6.9-4.15,3.97-2.1,8.08-4.21,12.69-4.33.05,0,.07.08.02.1-2.89,1.2-7.1,2.53-10.1,3.5-3.45,1.09-6.06,3.69-9.46,4.97-.05.02-.1-.04-.05-.08h0Z"/>
    <path class="cls-7" d="M88.35,64.64c2.18-1.54,4.69-2.33,7.24-2.9,2.48-.81,4.84-2.01,7.4-2.57,1.7-.39,3.43-.65,5.19-.69.05,0,.07.08.02.1-4.04,1.69-8.35,2.2-12.5,3.46-2.37,1.11-4.7,2.17-7.31,2.69-.05.01-.08-.06-.04-.09h0Z"/>
    <path class="cls-7" d="M87.93,68.04c2.63-1.15,5.47-1.45,8.3-1.47,4.63-.59,9.54-1.4,14.07,0-4.65.58-9.36-.08-14.03.31-2.76.58-5.46,1.18-8.31,1.25-.05,0-.07-.08-.02-.1h0Z"/>
    <path class="cls-7" d="M106.44,79.88c-6.12-4.22-13.71-7.49-21.25-6.17,0,0,0-.52,0-.52,5.98.51,11.05,4.43,14.85,8.82,1.28,1.46,2.48,2.99,3.62,4.57.03.04-.03.11-.07.06,0,0-4.1-4.1-4.1-4.1-4.06-3.97-8.66-7.8-14.39-8.84-.29-.05-.27-.5.03-.51,5.73-.38,11.79.06,16.82,3.08,1.67.98,3.23,2.15,4.56,3.54.04.04-.02.11-.06.07h0Z"/>
    <path class="cls-7" d="M76.38,80.26c3.22.74,6.02,2.61,8.41,4.83,4.35,3.23,8.44,7.2,10.12,12.5.02.05-.06.09-.09.04-3.13-4.34-6.09-8.85-10.23-12.29-2.6-1.79-5.89-3.25-8.22-5.07h0Z"/>
    <path class="cls-7" d="M73.2,81.59c2.6,1.05,4.64,3.05,6.27,5.28,3.16,3.32,6.11,7.14,6.7,11.82,0,.05-.07.08-.09.03-2.18-3.97-3.92-8.16-6.85-11.64-1.91-1.84-4.5-3.54-6.03-5.49h0Z"/>
    <path class="cls-7" d="M67.37,84.64c1.8,1.7,2.74,4.03,3.27,6.39,1.4,3.72,2.69,7.98,1.33,11.86-.02,0-.03-.02-.04-.04-.37-3.26-.61-7.38-1.23-10.58-.82-2.67-2.5-4.89-3.41-7.57-.02-.05.05-.09.08-.05h0Z"/>
    <path class="cls-7" d="M64.54,85.22c.81,2.76.87,5.58.77,8.41.16,2.81.76,5.6.77,8.43.02,1.88-.06,3.76-.34,5.65,0,.05-.09.06-.1,0-.93-4.66-.48-9.36-.64-14.06-.46-2.79-.84-5.57-.55-8.43,0-.05.09-.06.1,0h0Z"/>
    <path class="cls-7" d="M60.65,84.67c.36,3.45.14,6.84-.11,10.27.16,5.71,1.31,11.45,1,17.13-1.67-5.52-1.35-11.41-1.32-17.13-.25-3.32-.56-7.26.42-10.28h0Z"/>
    <path class="cls-7" d="M52.71,82.54c-2.18,1.34-4.64,1.81-6.76,3.17-2.25,1.86-4.78,4.6-6.91,6.63-.02.02-.05.02-.07,0,1.22-3.57,4.56-5.74,7.72-7.47,1.73-1.34,3.75-2.39,5.99-2.42.05,0,.07.07.03.09h0Z"/>
    <path class="cls-7" d="M54.85,83.37c-2.53,2.9-5.95,4.84-8.02,8.1-1.8,2.8-4.14,6.89-5.86,9.78-.01.02-.04.03-.07.02.87-4.84,4.16-8.77,7.43-12.27.54-.65,1.26-1.61,1.82-2.26,1.33-1.4,2.89-2.59,4.64-3.45.05-.02.1.04.06.08h0Z"/>
    <path class="cls-7" d="M43.16,71.42c-2.96.28-5.83.28-8.76.5-4.79,1.01-9.07,3.43-13.47,5.51-.05.03-.1-.04-.06-.08,3.58-3.61,8.59-5,13.47-5.74.84-.18,2.05-.49,2.91-.64,1.97-.25,3.99-.16,5.92.35.05.01.05.1,0,.1h0Z"/>
    <path class="cls-7" d="M45.23,74.54c-2.93.72-5.9.57-8.76,1.42-3.55,1.46-6.76,3.36-10.16,5.14-.04.03-.1-.04-.06-.08,2.88-3.38,7.18-4.79,11.37-5.72,2.42-.9,5.05-1.42,7.62-.86.05,0,.05.09,0,.1h0Z"/>
    <path class="cls-7" d="M45.97,77.32c-1.16.87-2.42,1.12-3.77,1.35-2.03.97-3.65,2.54-5.93,3.05-.04.01-.09-.04-.06-.08.56-.77,1.28-1.34,2.05-1.83,1.16-.75,2.57-.91,3.82-1.43,1.15-.77,2.41-1.35,3.86-1.15.05,0,.06.07.02.09h0Z"/>
    <path class="cls-7" d="M42.97,61.25c-3.62-.42-6.83-2.25-10.45-2.39-3.17-.11-7.57-.24-10.71-.53-.05,0-.06-.09,0-.1,4.47-1.23,9.04-.34,13.44.65,2.7.24,5.42.82,7.76,2.27.04.02.02.1-.03.09h0Z"/>
    <path class="cls-7" d="M42.98,65.35c-1.95.19-3.75-.18-5.61-.56-3.15-.02-6.19.79-9.37.47-.05,0-.07-.08-.02-.1,1.19-.52,2.44-.81,3.7-.96,1.91-.25,3.8.19,5.7.26,1.91-.19,3.84-.12,5.61.78.04.02.03.09-.02.1h0Z"/>
    <path class="cls-7" d="M49.15,47.44l-2.66-4.75c-2.28-4.98-7.68-7.69-12.11-10.55-.05-.02-.02-.1.03-.09,4.71.88,8.25,4.35,10.98,8.08,1.91,2.02,3.48,4.48,3.85,7.29,0,.05-.07.08-.09.03h0Z"/>
    <path class="cls-7" d="M53.37,46.11c-1.67-1.82-2.78-3.92-3.87-6.09-2.33-3.28-5.21-6.1-7.09-9.71-.03-.04.03-.1.07-.06,1.26,1.04,2.37,2.22,3.38,3.48,1.54,1.88,2.55,4.12,3.9,6.12,1.57,1.86,2.98,3.84,3.69,6.21.02.05-.05.09-.08.05h0Z"/>
  </g>
</svg>