<?xml version="1.0" encoding="UTF-8"?>
<svg id="_왼쪽_위" data-name="왼쪽_위" xmlns="http://www.w3.org/2000/svg" version="1.1" viewBox="0 0 124.04 147.22">
  <defs>
    <style>
      .cls-1 {
        fill: #ff6a37;
      }

      .cls-1, .cls-2 {
        stroke-width: 0px;
      }

      .cls-3 {
        fill: #00d675;
      }

      .cls-3, .cls-4 {
        stroke: #111114;
        stroke-linecap: round;
        stroke-linejoin: round;
        stroke-width: 1.04px;
      }

      .cls-4 {
        fill: none;
      }

      .cls-2 {
        fill: #111114;
      }
    </style>
  </defs>
  <g>
    <path class="cls-3" d="M61.72,131.44s6.14-35.38,29.72-34.42c23.58.96,32.08-.69,32.08-.69,0,0-35.23,34.27-53.74,38.8,0,0-6.35,1.94-7.8-.57"/>
    <path class="cls-2" d="M62.29,133.96c1.43-5.25,4.86-9.78,8.94-13.31,10.33-9.04,24.21-11.69,36.12-17.85,2.39-1.21,4.69-2.61,6.88-4.18-2.05,1.75-4.31,3.25-6.64,4.61-15.72,8.9-38.03,11.89-45.29,30.73h0Z"/>
    <path class="cls-2" d="M69.52,122.7c-.45-4.2-.42-8.4.09-12.59.45,4.2.42,8.4-.09,12.59h0Z"/>
    <path class="cls-2" d="M74.79,118.36c5.93,1.17,12.55,1.82,18.23,3.9-5.93-1.16-12.55-1.83-18.23-3.9h0Z"/>
    <path class="cls-2" d="M69.24,122.49c5.93,1.17,12.55,1.82,18.23,3.9-5.93-1.16-12.55-1.83-18.23-3.9h0Z"/>
    <path class="cls-2" d="M87.16,111.76c4.89.92,10.33,1.44,15.03,3.1-4.89-.92-10.33-1.45-15.03-3.1h0Z"/>
    <path class="cls-2" d="M80.62,114.87c-.36-3.9.09-7.83.77-11.68.25-1.28.5-2.55.81-3.82l.11.02-.17.54.06-.57c0-.07.12-.07.11,0-.38,5.02-1.23,10.46-1.7,15.49h0Z"/>
    <path class="cls-2" d="M85.24,112.63c.32-5.01,1.1-10,2.35-14.86-.31,5.02-1.11,10-2.35,14.86h0Z"/>
    <path class="cls-2" d="M91.31,110.84c.35-4.34,1.13-8.61,2.35-12.79-.34,4.34-1.13,8.61-2.35,12.79h0Z"/>
    <path class="cls-2" d="M77.53,116.62c6.33.8,12.6,2.06,18.75,3.79-6.33-.79-12.6-2.07-18.75-3.79h0Z"/>
    <path class="cls-2" d="M73.96,118.51c-.56-4.68-.38-9.46.64-14.06-.06,4.72-.24,9.36-.64,14.06h0Z"/>
    <path class="cls-2" d="M100.61,107.3c-.49-3.37-.3-6.85.64-10.12-.13,3.28-.33,6.86-.64,10.12h0Z"/>
  </g>
  <g>
    <path class="cls-3" d="M54.22,136.3s-1.57-.25-2.35-6.24c-.79-5.99-2.21-2.68-2.21-2.68-19.69,10.08-15.91-4.1-32.82-6.93C-.07,117.62.53,111.48.53,111.48c3.31,1.1,9.14-2.21,10.55-2.52,33.62-7.47,38.76,5.49,38.76,5.49,0,0,2.49,3.5,1.2,7.02,0,0,1.73,2.14,3.19,11.52"/>
    <path class="cls-2" d="M52.49,126.62c-1.77-3.98-5.46-6.74-9.45-8.26-10.25-3.89-21.83-.02-32.1-4.12-2.03-.83-3.96-1.94-5.56-3.42,1.74,1.3,3.68,2.29,5.73,2.96,10.41,3.54,21.92-.44,32.22,3.87,4.01,1.71,7.74,4.73,9.16,8.97h0Z"/>
    <path class="cls-2" d="M46.23,119.45c-1.14-3.71-2.51-7.18-3.85-10.83,2.19,3.18,3.66,6.95,3.85,10.83h0Z"/>
    <path class="cls-2" d="M42.27,117.94c-4.5,3.6-10.01,6.01-15.72,6.82,5.47-1.75,10.71-4.01,15.72-6.82h0Z"/>
    <path class="cls-2" d="M33.68,115.99c-2.07-3.09-4.16-5.99-6.44-8.93,2.96,2.24,5.24,5.42,6.44,8.93h0Z"/>
    <path class="cls-2" d="M28.39,116.23c-2.07-3.09-4.16-5.99-6.44-8.93,2.96,2.24,5.24,5.42,6.44,8.93h0Z"/>
    <path class="cls-2" d="M23.05,117.09c-2.07-3.09-4.16-5.99-6.44-8.93,2.96,2.24,5.24,5.42,6.44,8.93h0Z"/>
    <path class="cls-2" d="M35.28,116.31c-1.3-3.35-2.88-6.38-4.85-9.38,2.71,2.34,4.51,5.82,4.85,9.38h0Z"/>
    <path class="cls-2" d="M44.31,118.72c-3.67,4.7-9.92,7.07-15.79,6.85,5.78-.78,11.45-2.87,15.79-6.85h0Z"/>
    <path class="cls-2" d="M39.25,116.37c-.81-2.25-1.63-4.25-2.62-6.43,1.78,1.58,2.79,4.05,2.62,6.43h0Z"/>
    <path class="cls-2" d="M48.72,121.36c-2.18,2.32-5.23,3.87-8.39,4.25,2.91-1.33,5.6-2.69,8.39-4.25h0Z"/>
    <path class="cls-2" d="M47.58,119.94c.03-1.63-.61-2.75-.83-4.34,1.1,1.06,1.85,3,.83,4.34h0Z"/>
    <path class="cls-2" d="M35.75,116.37c-1.63,1.96-3.93,3.36-6.43,3.88,2.13-1.42,4.18-2.66,6.43-3.88h0Z"/>
    <path class="cls-2" d="M30.59,115.8c-1.63,1.96-3.93,3.36-6.43,3.88,2.13-1.42,4.18-2.66,6.43-3.88h0Z"/>
    <path class="cls-2" d="M25.08,114.99c-1.63,1.96-3.93,3.36-6.43,3.88,2.13-1.42,4.18-2.66,6.43-3.88h0Z"/>
  </g>
  <g>
    <path class="cls-3" d="M54.22,109.97s-.93-.17-1.4-4.16c-.47-3.99-1.31-1.79-1.31-1.79-11.74,6.72-9.49-2.73-19.57-4.62s-9.73-5.99-9.73-5.99c1.97.74,5.45-1.47,6.29-1.68,20.05-4.98,23.12,3.66,23.12,3.66,0,0,1.48,2.34.71,4.68,0,0,1.03,1.43,1.9,7.68"/>
    <path class="cls-2" d="M52,101.74c-7.61-4.61-16.43-7.13-25.33-7.07-1.12,0-2.72.07-3.83.13.63-.13,1.26-.26,1.89-.37,9.55-1.47,19.79,1.17,27.27,7.31h0Z"/>
    <path class="cls-2" d="M49.13,99.79c-.4-2.23-.33-4.35-.23-6.6.86,2.09.79,4.43.23,6.6h0Z"/>
    <path class="cls-2" d="M46.48,98.78c-2.35,1.97-5.48,2.99-8.54,2.96,2.93-.93,5.69-1.81,8.54-2.96h0Z"/>
    <path class="cls-2" d="M42.38,96.73c-.95-2.11-1.84-4.01-2.84-6.1,1.77,1.47,2.85,3.8,2.84,6.1h0Z"/>
    <path class="cls-2" d="M37.06,95.44c-1.53,2.21-4.35,3.54-7.03,3.34,2.57-.81,4.79-1.84,7.03-3.34h0Z"/>
    <path class="cls-2" d="M49.72,100.68c-2.16,2.45-5.57,3.63-8.79,3.52,3.13-.88,5.99-1.84,8.79-3.52h0Z"/>
    <path class="cls-2" d="M44.31,97.5c-.82-2.38-1.5-4.64-2.11-7.08,1.48,2.02,2.24,4.57,2.11,7.08h0Z"/>
    <path class="cls-2" d="M32.8,94.58c-.99-.93-1.67-1.88-2.11-3.17,1.17.66,1.99,1.82,2.11,3.17h0Z"/>
    <path class="cls-2" d="M42.23,96.76c-2.2,1.45-4.59,2.47-7.16,3.04,2.19-1.45,4.59-2.46,7.16-3.04h0Z"/>
  </g>
  <path class="cls-1" d="M48.12,86.88s18.5,8.1,40.91,0c0,0,11.42-2.15,14.44-18.72h0c5.85-6.93,1.96-13.17,1.96-13.17.31-.99.66-2.11,1.06-3.4,4.16-13.57-2.84-16.95-2.84-16.95h0c.39-.96.81-2.01,1.17-2.99.82-2.23.71-7.69-2.75-11.75h.02s2.52-4.84-5.06-7.2c-7.58-2.36-11.76-3.13-11.76-3.13-19.25-14.7-24.25-7.05-24.25-7.05h0c-2.27-.77-3.97-1.06-3.97-1.06-24.19-2.99-27.72,10.31-27.72,10.31,0,0-14.84,3.95-9.88,27.4,0,0-15.4,27.78,28.67,47.71"/>
  <path class="cls-3" d="M54.18,146.7s.1-57.09,0-57.91l8.31,1.4s-2.35,48.06,0,55.02"/>
  <g>
    <path class="cls-4" d="M73.94,37.97s-8.21-.69-7.78-3.55,2.59-5.27,2.59-5.27c0,0,5.83-2.6,6.92,1.42,1.08,4.02,2.4,8.12-1.73,7.4Z"/>
    <path class="cls-4" d="M62.46,35.27s.47,8.16,11.34,7.8"/>
    <path class="cls-4" d="M72.93,37.85s6.31,4.02-1.47,10.69"/>
    <path class="cls-4" d="M64.06,48.54c-.29-.29-6.47-4.93-5.41-11.11,0,0,1.66-9.27,7.49-10.72s8.35-1.93,10.62.48,4.2,6.46,3.43,9.51c-.77,3.05,2.8-.34,1.16,6.38-1.64,6.71-6.01,6.71-6.01,6.71,0,0-1.84.43-1.54-3.69"/>
    <path class="cls-4" d="M58.94,52.3s1.98-5.02,9.19-3.77c7.21,1.26,6.65,2.15,14.28,1.27s6.57.51,6.57.51"/>
    <path class="cls-4" d="M81.62,39.17s5.03-5.85,5.32-10.85c0,0,3.09,2.36,3.48,6.94s.38,12.04-3.58,14.25"/>
    <path class="cls-4" d="M86.95,28.32s-2.39-6.61-16.79-5.66c0,0-11.89-3.49-15.17,11.29-3.28,14.78,5.01,16.78,5.01,16.78"/>
    <path class="cls-4" d="M46.97,41.68c.77-.39,7.82-5.12,8.02-7.73"/>
    <path class="cls-4" d="M60.05,24.71c-3.12-3.63-17.14,9.92-17.14,9.92,0,0-3.67-4.83,3.57-13.23,7.24-8.4,12.17-2.7,17-3.67s22.3-1,21.24,7.95"/>
    <path class="cls-4" d="M81.78,20s7.19-1.34,9.8,5.68,6.76,6.25,5.02,14.94c-1.74,8.69-3.77,12.94-12.26,13.33-1.17.05-9.66,2.32-17.09,0s-8.72,0-8.72,0"/>
    <path class="cls-4" d="M84.34,53.94s-.58,6.28-7.15,6.18c-6.57-.1-3.96-.3-10.53-.88s-13.42-6.19-14.78-10.91-6.37-7.83-8.02-10.29c-1.64-2.45-5.79-15.59-4.15-19.55,1.64-3.96,2.12-8.55-4.15-4.57-6.28,3.99-8.88,13.94-.58,25.23,8.31,11.3,8.98,7.34,16.8,14.19,7.82,6.86,9.37,5.88,9.37,5.88"/>
    <path class="cls-4" d="M40.47,16.34s5.24-9.04,18.47-6.24c13.23,2.8-.48,2.51,13.52,5.41,0,0,1.52,1.06,1.72,2.12"/>
    <path class="cls-4" d="M71.46,15.3s2.17-4.48,9.22-1.7,9.85-.48,17.29,3.13c7.44,3.61,7.92,12.01,6.86,14.91-1.06,2.9-2.61,6.41-2.61,6.41"/>
    <path class="cls-4" d="M93.82,29.9s7.62,3.58,8.58,9.27.05,11.1-5.38,16.9c-5.43,5.79-12.48,10.89-20.26,7.15"/>
    <path class="cls-4" d="M78.36,60.07c-1.16.05.77,4.5-6.19,5.65s-22.11-.23-23.37-4.61"/>
    <path class="cls-4" d="M65.28,59.05s-.76,4.31-8.23,2.06c-7.47-2.25-10.27-4.95-15.78-5.34s-19.37-20.38-11.52-29.26"/>
    <path class="cls-4" d="M103.65,34.63s7,3.39,2.84,16.95c-4.16,13.57-3.22,8.86-7.52,13.83-4.3,4.97-13.76,7.79-12.86,4.84"/>
    <path class="cls-4" d="M88.03,63.09s.97,6.62-6.41,11.32c-7.38,4.7-6.57-1.49-17.31.4-10.74,1.89-25.66-9.2-23.04-19.03"/>
    <path class="cls-4" d="M39.2,54.99s-14.78,7.64-19.75-15.81c-4.97-23.45,9.88-27.4,9.88-27.4,0,0,3.54-13.3,27.72-10.31,0,0,14.76,2.51,15.58,12.48"/>
    <path class="cls-4" d="M61.01,2.51s5-7.65,24.25,7.05c0,0,4.17.76,11.76,3.13s5.06,7.21,5.06,7.21"/>
    <path class="cls-4" d="M105.42,54.99s7.51,12.03-13.98,21.23c-21.49,9.21-24.58,4.23-27.13-1.41"/>
    <path class="cls-4" d="M27.4,54.16s-6.74,3.33,15.42,18.78c22.16,15.45,8.2,7.93,24.05,6.05"/>
    <path class="cls-4" d="M19.45,39.17s-15.4,27.78,28.67,47.71c0,0-7.38-3.86-7.15-15.25"/>
    <path class="cls-4" d="M48.12,86.88s18.5,8.1,40.91,0c0,0,11.42-2.15,14.44-18.72"/>
  </g>
</svg>