<?xml version="1.0" encoding="UTF-8"?>
<svg id="_왼쪽_위" data-name="왼쪽_위" xmlns="http://www.w3.org/2000/svg" version="1.1" viewBox="0 0 24.62 21.68">
  <defs>
    <style>
      .cls-1 {
        fill: #ffec2d;
        stroke: #111114;
        stroke-linecap: round;
        stroke-linejoin: round;
        stroke-width: .75px;
      }

      .cls-2 {
        fill: #111114;
        stroke-width: 0px;
      }
    </style>
  </defs>
  <path class="cls-1" d="M6.3,14c-1.25.5-2.54.95-3.67,1.61s-2.1,1.62-2.24,2.6c-.2,1.44,1.4,2.39,3.11,2.78,5.82,1.33,13.55-1.85,17.35-6.38,3.81-4.53,4.15-9.9,2.29-14.24-.41.77-.78,1.54-1.27,2.29-.13-.11-.29-.2-.48-.26-2.07,2.37-3.88,4.68-6.6,6.77-.52.4-8.37,5.23-8.5,4.83Z"/>
  <path class="cls-2" d="M21.93,2.8c-.44,1.7-1.48,3.12-2.69,4.34-1.72,2.24-3.74,4.61-6.52,5.44,2.08-1.91,4.52-3.41,6.36-5.57.94-1.36,1.75-3.12,2.85-4.21h0Z"/>
  <path class="cls-2" d="M22.9,1.36c.2,1.88-.45,3.72-1.43,5.3-1.28,2.8-3.26,5.5-6.29,6.52-.03.01-.06-.03-.03-.05,2.35-1.91,4.7-3.88,6.14-6.56.68-1.65.98-3.67,1.61-5.21h0Z"/>
  <path class="cls-2" d="M.72,17.22c.76-.52,1.57-.63,2.44-.69,1.34-.48,2.48-1.33,3.99-1.37.03,0,.05.04.02.06-1.09,1.08-2.57,1.19-3.96,1.51-.77.41-1.57.72-2.48.56-.03,0-.04-.05-.01-.06h0Z"/>
  <path class="cls-2" d="M.8,19.12c.86-.61,1.81-.84,2.82-.95.96-.24,1.81-.83,2.77-1.09.64-.19,1.32-.31,2.01-.36.12-.01.14.17.02.19-.08,0-.23.07-.28,0,.04-.08.14-.12.21-.18,0,0,.07.18.07.18-.58.34-1.19.61-1.82.81-.94.33-1.98.32-2.91.66-.89.48-1.82.83-2.86.8-.03,0-.04-.04-.02-.06h0Z"/>
  <path class="cls-2" d="M2.13,20.23c1.15-.59,2.37-.78,3.61-.93,1.99-.64,3.79-1.67,5.91-1.93-1.46,1.37-3.9,1.63-5.86,2.12-1.11.45-2.56,1.03-3.67.74h0Z"/>
  <path class="cls-2" d="M23.52,1.86c.32,1.83-.14,3.68-.9,5.34-.91,2.89-2.34,5.79-5.02,7.42-.03.02-.06-.02-.04-.05,2.12-2.82,4.8-5.56,5.22-9.19,0,0,.68-3.51.68-3.51,0-.03.06-.03.06,0h0Z"/>
  <path class="cls-2" d="M6.87,15.17c2.5-.75,4.82-1.88,7.07-3.16-2.04,1.52-4.63,2.65-7.07,3.16h0Z"/>
  <path class="cls-2" d="M8.12,16.83l2.19-.95c2.25-.85,4.2-2.31,6.24-3.53-2.44,1.98-5.48,3.56-8.44,4.48h0Z"/>
  <path class="cls-2" d="M10.8,17.68l1.99-.76c2.03-.66,3.79-1.95,5.63-2.99-2.17,1.76-4.95,3.1-7.61,3.75h0Z"/>
</svg>