<?xml version="1.0" encoding="UTF-8"?>
<svg id="_왼쪽_위" data-name="왼쪽_위" xmlns="http://www.w3.org/2000/svg" version="1.1" viewBox="0 0 132.06 225.55">
  <defs>
    <style>
      .cls-1, .cls-2 {
        fill: none;
      }

      .cls-1, .cls-2, .cls-3 {
        stroke-linecap: round;
      }

      .cls-1, .cls-2, .cls-3, .cls-4 {
        stroke-linejoin: round;
      }

      .cls-1, .cls-2, .cls-3, .cls-4, .cls-5 {
        stroke: #111114;
      }

      .cls-1, .cls-4, .cls-5 {
        stroke-width: 1.27px;
      }

      .cls-6 {
        fill: #ffec2d;
      }

      .cls-6, .cls-7 {
        stroke-width: 0px;
      }

      .cls-2 {
        stroke-width: 1.48px;
      }

      .cls-3 {
        fill: #00d675;
        stroke-width: 1.13px;
      }

      .cls-4, .cls-5 {
        fill: #ff97b5;
      }

      .cls-7 {
        fill: #111114;
      }

      .cls-5 {
        stroke-miterlimit: 10;
      }
    </style>
  </defs>
  <path class="cls-3" d="M14.99,112.29c-10.4,5.61-14.65,18.63-14.42,30.44.23,11.82,3.92,23.29,5.13,35.05,1.54,15-.98,30.1-3.49,44.97,2.27,2.33,6.14,2.93,9,1.38s4.49-5.1,3.79-8.28l-3.96,2.54c3.62-10.6,6-24.98,3.47-35.89-2.53-10.91-5.68-21.74-6.36-32.91-1.39-23.12,5.3-26.96,14.3-33.62"/>
  <g>
    <g>
      <g>
        <path class="cls-6" d="M122.71,54.42l-.04-.06.11.07s-.08-.06-.13-.09l-.44-.66c-1.07-3.35,4.13-15.46,4.13-15.46-4.43-1.46-9.3-.35-13.6,1.08l-.25-.47,1.83-19.31-16.68,3.66h-.06c.69-4.66.95-9.08.95-9.08,0,0-5.44,2.08-10.06,3.63l.19-1.03h0c.05-.23.09-.48.13-.74v-.02s0,0,0,0c.89-5.97-1.12-16.26-2.16-14.85-1.09,1.48-10.08,4.13-10.08,4.13l.04.04s-.02,0-.04,0c0-.01,0-.03,0-.04-2.6-9.27-7.85-1.35-7.85-1.35-12.07,13.09-29.15,24.62-29.15,24.62-24.42,21.8-25.47,43.44-22.01,57.83,2.53,10.51,7.46,17.14,7.46,17.14,0,0,3.41,8.66,23.13,16.21,19.71,7.55,29.76-.14,44.68-13.67,14.92-13.53,25.75-36.21,30.06-41.85,4.31-5.64,8.44-6.98,8.44-6.98-2.23-1.52-5.28-2.37-8.61-2.77Z"/>
        <g>
          <path class="cls-2" d="M75.66,16.07s8.02-8.48,6.67,9.42l.7,9.02,18.52-2.22s4.67.37-1.62,23.68c0,0,22.41-4.94,31.39,1.21,0,0-4.13,1.33-8.44,6.98-4.31,5.64-15.14,28.32-30.06,41.85-14.92,13.53-24.97,21.22-44.68,13.67s-23.13-16.21-23.13-16.21c0,0-27.71-37.26,14.55-74.97,0,0,17.08-11.53,29.15-24.62,0,0,5.25-7.92,7.85,1.35s-8.39,27.6-8.39,27.6"/>
          <path class="cls-2" d="M76.55,5.24s8.99-2.66,10.08-4.13,3.23,9.81,2.03,15.61"/>
          <path class="cls-2" d="M82.38,19.37c2.19.09,16.14-5.26,16.14-5.26,0,0-.92,15.72-3.92,19.01"/>
          <polyline class="cls-2" points="97.57 23.21 114.32 19.53 112.49 38.92"/>
          <path class="cls-2" d="M102.86,42.3c4.49.02,14.84-6.92,23.49-4.07,0,0-6.36,14.81-3.57,16.2"/>
          <path class="cls-2" d="M17.55,86.34s5.71-47.25,64.51-56.15"/>
          <path class="cls-2" d="M83.03,34.52s-6.68,36.22-22.66,52.5c-14.4,14.68-25.89,15.91-35.36,16.47"/>
          <path class="cls-2" d="M99.93,55.98s-14.73,60.43-57.65,59.55"/>
        </g>
        <path class="cls-1" d="M79.9,31.5c-6.65,5.2-14.43,8.74-21.47,13.41-18.97,12.57-32.05,33.67-34.86,56.25"/>
        <g>
          <path class="cls-7" d="M72.99,1.6c-8.93,29.15-47.94,27.95-53.46,65.15-.77,4.05-1.02,8.19-1.1,12.34-.2-4.14-.24-8.31.26-12.47C24.24,29.71,61.19,30.71,72.99,1.6h0Z"/>
          <path class="cls-7" d="M75.27,3.09c-.64,9.32-4.19,19.06-11.89,24.82-3.74,2.92-7.95,5.05-11.8,7.64-3.78,2.59-7.33,5.81-10.32,9.31,2.47-4.06,5.86-7.43,9.84-10.01,3.91-2.63,8.1-4.75,11.75-7.6,3.71-2.78,6.51-6.6,8.39-10.81.79-1.87,1.76-4.62,2.21-6.58.78-2.17,1.2-4.54,1.81-6.76h0Z"/>
          <path class="cls-7" d="M75.75,33.31s-4.93,2.01-4.93,2.01c-2.41,1.12-7.16,3.48-9.51,4.72-17.07,9.4-30.43,25.1-37.34,43.29,0,0-1.93,4.95-1.93,4.95,0,0-1.64,5.07-1.64,5.07l1.22-5.2c7.15-25.31,28.61-47.83,54.13-54.84h0Z"/>
          <path class="cls-7" d="M81.9,33.69c-2.37,6.45-5.73,15.22-8.43,21.41-2.99,7.06-6.15,14.13-10.55,20.5-6.71,9.54-16.39,16.38-26.44,21.99-3.39,1.82-6.88,3.42-10.35,5.05,4.15-2.33,8.31-4.82,12.44-7.2,29.01-16.42,30.11-34.39,43.34-61.76h0Z"/>
          <path class="cls-7" d="M81.58,32.6c-4.57,4.93-11,11.47-15.6,16.21-10.35,10.83-20.17,22.19-29.17,34.17-3.01,4-6.93,9.62-9.95,13.61,0,0-3.29,4.56-3.29,4.56,0,0,2.93-4.81,2.93-4.81,2.61-4.33,6.62-9.84,9.64-13.87,13.65-17.88,28.6-34.93,45.44-49.87h0Z"/>
          <path class="cls-7" d="M79.43,34.14c-6.45,12.92-14.65,25.11-23.4,36.57-7.74,9.89-16.33,19.65-26.12,27.59,0,0-4.3,3.32-4.3,3.32l4.02-3.65c1.95-1.89,5.86-5.63,7.82-7.5,6.39-6.31,12.44-13.17,17.92-20.28,6.59-8.48,12.69-17.68,18.25-26.89,1.46-2.26,4.4-6.88,5.82-9.16h0Z"/>
          <path class="cls-7" d="M87.52,2.18c-.3,1.34-.69,2.69-1.1,4.01-.19.49-.78,1.77-1,2.28-.91,2.01-1.9,3.99-2.97,5.92l-.55.18c.18.06.06.02.03.04-.34.05-.98.2-1.32.27-.26.06-.93.21-1.18.25-.27.02-.24.1-.64,0,0,0,.6-.42.6-.42.21,2.72.15,5.46-.17,8.17-.26,2.72-.95,5.39-2.14,7.85.25-1.34.49-2.66.64-4,.85-3.92,1.14-7.96.83-11.96,0,0,.6-.42.6-.42-.18-.06-.06-.02-.03-.04.63-.1,1.47-.31,2.1-.44.35-.05.65-.19,1.04-.08,0,0-.55.18-.55.18,2.14-3.75,3.74-7.99,5.81-11.79h0Z"/>
          <path class="cls-7" d="M129.68,57.15c-24.62,4.29-20.53,49.76-71.39,59.14-4.53.78-9.13,1.01-13.72,1.21,4.55-.48,9.11-.99,13.56-2.04,51.14-9.42,46.11-55.86,71.55-58.3h0Z"/>
          <path class="cls-7" d="M126.75,56.2c-17.76,3.08-21.77,24.24-35.8,32.9-2.14,1.13-4.45,1.92-6.82,2.2,2.3-.62,4.46-1.6,6.38-2.92,13.71-8.06,18.43-31.44,36.23-32.17h0Z"/>
          <path class="cls-7" d="M122.78,54.43c-1.17.47-2.86,1.18-4.02,1.74-8.14,3.16-15.19,8.6-21.37,14.69-1.13.93-2.22,1.9-3.34,2.85.87-1.18,1.81-2.31,2.75-3.45,6.25-6.17,13.41-11.67,21.66-14.89,1.24-.33,3.06-.78,4.32-.95h0Z"/>
          <path class="cls-7" d="M77.44,55.43c7.73-7.68,15.34-15.55,23.99-22.22.32-.26.82.1.65.49-3.24,8.28-6.77,16.45-10.8,24.39-9.04,17.75-20.85,34.87-37.66,46.06-5.56,3.65-11.82,6.42-18.18,8.28,34.61-12.11,53.31-46.79,65.86-79.04,0,0,.65.49.65.49-2.15,1.65-4.23,3.4-6.28,5.19-5.95,5.25-12.38,11.07-18.23,16.36h0Z"/>
          <path class="cls-7" d="M102.77,40.74c-8.83,27.64-25.74,58.88-54.01,70.15-4.11,1.47-8.38,2.47-12.68,3.01,4.26-.82,8.42-2.09,12.37-3.8,29.04-11.61,43.37-42.02,54.32-69.36h0Z"/>
          <path class="cls-7" d="M100.17,34.11c-1.32,3.05-4.08,9.08-5.53,12.07-1.54,2.94-4.76,8.75-6.45,11.61-12.28,20.69-28.8,40.83-51.85,49.69,0,0-6.32,2.05-6.32,2.05,0,0,6.16-2.44,6.16-2.44,0,0,5.91-2.94,5.91-2.94,21.77-11.18,37.03-31.53,48.65-52.53,2.77-5.2,6.7-12.27,9.42-17.5h0Z"/>
        </g>
      </g>
      <path class="cls-5" d="M16.42,98.03c-3.46.61-7.08,2.7-10.08,5.84,7.3-.18,14.38.74,21.03,2.74-.82-.25-1.35-2.95-1.54-3.87-.31-1.51-.24-2.3-1.31-3.07-2.23-1.62-5.16-2.16-8.11-1.64Z"/>
      <path class="cls-5" d="M33.37,120.14c-1.03,2.68-2.79,5.08-5.02,6.87-.66.53-1.6-.05-1.42-.87,1.36-6.07,2.16-12.28,2.38-18.5.03-.76.95-1.12,1.49-.58.47.47.93.87,1.2,1.11,1.1.97,1.72,1.23,2.06,2.68.71,3.04.42,6.38-.69,9.29Z"/>
      <path class="cls-5" d="M12.95,109.71c1.37,1.27,3.07,2.18,4.88,2.6-.84,1.01-1.49,2.18-1.91,3.43,1.29-.07,2.56-.43,3.7-1.05-.12,1.62-.18,3.28.21,4.86s1.29,3.1,2.71,3.9c1.75-5.26,4.26-10.27,7.43-14.82.06-.12-2.7-3.38-3.05-3.53-.55-.24-1.58.35-2.16.55l-2.3.79c-3.17,1.09-6.34,2.18-9.51,3.27Z"/>
    </g>
    <path class="cls-4" d="M44.99,119.4c-7.91-1.8-24.49-8.23-28.85-30.77-.16-.84.93-1.3,1.41-.6,1.66,2.42,4.14,5.24,6.7,5.28,4.5.06,7.43-12.38,10.62-7.9.72,1-8.44,13.41.48,16.65,4.95,1.8,9.6-1.06,12.94-2.55.89-.4,2.97.82,1.34,3-3.18,4.23-6.96,11-3.62,15.24.61.77-.06,1.87-1.02,1.66Z"/>
  </g>
</svg>