<?xml version="1.0" encoding="UTF-8"?>
<svg id="_레이어_1" data-name="레이어 1" xmlns="http://www.w3.org/2000/svg" version="1.1" viewBox="0 0 19.6 79.9">
  <defs>
    <style>
      .cls-1 {
        fill: #00b2ff;
      }

      .cls-1, .cls-2 {
        stroke-width: 0px;
      }

      .cls-2 {
        fill: #281904;
      }
    </style>
  </defs>
  <path class="cls-1" d="M9.3,1c4.6,0,8.3,4.6,8.3,10.3s-1.1,5.8-2.8,7.7c0,0,0,0-.1.1-1.4,1.5-3.3,2.5-5.4,2.5s-3.2-.6-4.6-1.7c0,0,0,0,0,0-2.3-1.9-3.6-5.1-3.6-8.5C1,5.6,4.7,1,9.3,1Z"/>
  <path class="cls-2" d="M19.5,79.1c-9-9.7-9.5-43.5-9.5-48.6,0,0-.2,0-.3,0,.2,0,.3-.1.5-.2,3-1.4,5-9.2,5.4-10.6h0c1.9-2.1,3-5,3-8.4C18.6,5.1,14.4,0,9.3,0S0,5.1,0,11.3s1.4,7,3.9,9.2c0,1.3.7,7.8,4.1,9.7,0,0,.2.1.3.2.2.1.5.2.7.2,0,5.3.4,39.1,9.8,49.3.1.1.2.2.4.2s.2,0,.3-.1c.2-.2.2-.5,0-.7ZM1,11.3C1,5.6,4.7,1,9.3,1s8.3,4.6,8.3,10.3-1.1,5.8-2.8,7.7c0,0,0,0-.1.1-1.5,1.5-3.3,2.5-5.4,2.5s-3.2-.6-4.6-1.7c0,0,0,0,0,0-2.3-1.9-3.6-5.1-3.6-8.5ZM8.6,29.4c-2.5-1.2-3.4-6-3.6-8.1,1.3.9,2.8,1.3,4.3,1.3s3.5-.6,4.9-1.7c-.9,3-2.6,7.6-4.5,8.5-.4.2-.7.2-1.1,0,0,0,0,0,0,0Z"/>
</svg>