<?xml version="1.0" encoding="UTF-8"?>
<svg id="_레이어_1" data-name="레이어 1" xmlns="http://www.w3.org/2000/svg" version="1.1" viewBox="0 0 28.4 94.3">
  <defs>
    <style>
      .cls-1 {
        fill: #ff97b5;
      }

      .cls-1, .cls-2, .cls-3, .cls-4, .cls-5, .cls-6 {
        stroke-width: 0px;
      }

      .cls-2 {
        fill: #ffec2d;
      }

      .cls-3 {
        fill: #d793ff;
      }

      .cls-4 {
        fill: #281904;
      }

      .cls-5 {
        fill: #00d675;
      }

      .cls-6 {
        fill: #ff6a37;
      }
    </style>
  </defs>
  <path class="cls-4" d="M28.2,49.1c.2.1.2.4.2.6,0,.2-.3.3-.5.3h-1.7c-.2-.5-.4-.8-.4-.8,0-.2-.3-.2-.4-.2h1l-10.8-8.1c.3-.2.6-.4.9-.6l11.8,8.8Z"/>
  <path class="cls-3" d="M26.4,49h-6.4s0,0-.1,0h-11.4s0,0-.1,0H2.1c4.6-3.2,10.8-7.8,10.9-7.9,0,0,0,0,0,0,.3.1.7.2,1.1.2s1-.1,1.4-.3l10.8,8.1Z"/>
  <path class="cls-4" d="M26.2,50c.9,2,2.7,7.6-2.1,12.6-5.2,5.3-7.5,8.9-7.6,11.7h-1c.1-3.1,2.5-6.9,7.9-12.4,4.8-5,2.4-10.6,1.8-11.9h1.1Z"/>
  <path class="cls-4" d="M20,49h5.4c0,0-.2,0-.3,0-.2.1-.3.5-.2.7,0,0,0,0,.1.2h-4.6c0-.3,0-.5,0-.6,0-.2-.2-.4-.4-.4Z"/>
  <path class="cls-1" d="M25.1,50c.6,1.2,3.1,6.9-1.8,11.9-5.4,5.5-7.8,9.3-7.9,12.4h-.5c0-2.7,1.4-5,1.4-5.1,4.8-9.3,4.4-17.1,4.2-19.2h4.6Z"/>
  <path class="cls-4" d="M20.8,74.8v3.2c0,.3-.2.5-.5.5h-3.1c-.3-.5-.5-.8-.5-.8,0-.1-.2-.2-.4-.2h3.5v-2.2h-3.9c.3,0,.5-.2.5-.5,0-.2,0-.3,0-.5h3.9c.3,0,.5.2.5.5Z"/>
  <path class="cls-4" d="M20.5,50c.2,2.2.6,9.9-4.2,19.2,0,0-1.3,2.3-1.4,5.1h-.6c0-.7,0-1.3-.2-1.9.4-2,1.2-3.5,1.3-3.6,4.7-9.1,4.2-16.9,4-18.7h1Z"/>
  <path class="cls-4" d="M20.5,50h-1c0-.3,0-.4,0-.4,0-.3.1-.5.4-.6h.1c.2,0,.4.2.4.4,0,0,0,.2,0,.6Z"/>
  <path class="cls-4" d="M20,49h-.1s0,0,.1,0Z"/>
  <path class="cls-4" d="M8.5,49h11.4c-.3,0-.5.3-.4.6,0,0,0,.1,0,.4h-10.7c0-.3,0-.4,0-.4,0-.3-.1-.5-.4-.6Z"/>
  <polygon class="cls-1" points="19.8 75.3 19.8 77.4 16.3 77.4 12 77.4 8.5 77.4 8.5 75.3 12.4 75.3 12.4 75.3 13.9 75.3 13.9 75.3 14.4 75.3 14.5 75.3 15.9 75.3 16 75.3 19.8 75.3"/>
  <path class="cls-2" d="M19.5,50c.2,1.9.7,9.6-4,18.7,0,0-.9,1.6-1.3,3.6-.4-2-1.2-3.5-1.3-3.6-4.7-9.1-4.3-16.9-4-18.8h10.7Z"/>
  <path class="cls-4" d="M17.2,78.4c.8,1.4,1.9,4.5,0,8.4-2.3,4.8-2.3,6.9-2.3,7,0,.3-.2.5-.5.5h0c0,0-.1,0-.2,0,.2,0,.3-.2.3-.5,0,0,0-.7-.3-2,.3-1.2.9-3,2.1-5.5,2-4.1.3-7.2-.2-8h1.2Z"/>
  <path class="cls-4" d="M17.2,78.4h-1.2c0-.1-.1-.2-.1-.2-.2-.2-.1-.5,0-.7,0,0,.2-.1.3-.1s.3,0,.4.2c0,0,.2.3.5.8Z"/>
  <path class="cls-4" d="M16.1,10.1c.8.6,1.3,1.5,1.3,2.6s-.5,2.1-1.3,2.6h0c0-.4-.2-.6-.5-.6s-.5.2-.5.5v.6c-.3,0-.6.1-.9.1s-.6,0-.9-.1v-.6c0-.3-.2-.5-.5-.5s-.5.2-.5.5h0c-.8-.4-1.4-1.4-1.4-2.5s.5-2,1.4-2.6v.3c0,.3.2.5.5.5s.1,0,.2,0c-.6.4-1,1.1-1,1.9,0,1.3,1,2.3,2.3,2.3s2.3-1,2.3-2.3-.4-1.5-1-1.9c0,0,.1,0,.2,0,.3,0,.5-.2.5-.5v-.3Z"/>
  <path class="cls-4" d="M16.1,22.7c.8.6,1.3,1.5,1.3,2.6s-.5,2.1-1.4,2.7c0-.2-.2-.4-.5-.4s-.5.2-.5.5v.4c-.3,0-.6.1-.9.1s-.6,0-.9-.1v-.4c0-.3-.2-.5-.5-.5s-.4.1-.5.4c-.8-.6-1.4-1.6-1.4-2.7s.5-2,1.4-2.6v.3c0,.3.2.5.5.5s0,0,.1,0c-.6.4-1,1.1-1,1.9,0,1.3,1,2.3,2.3,2.3s2.3-1,2.3-2.3-.4-1.4-1-1.9c0,0,0,0,.1,0,.3,0,.5-.2.5-.5v-.3Z"/>
  <path class="cls-4" d="M16.1,35.3c.8.6,1.3,1.5,1.3,2.6s-.4,1.8-1,2.4l-.5-.4c-.1-.1-.3-.1-.5,0,.6-.4,1-1.1,1-1.9s-.3-1.2-.7-1.6c.2,0,.3-.2.3-.5v-.6Z"/>
  <path class="cls-6" d="M16,78.4c.5.8,2.2,3.9.2,8-1.2,2.5-1.8,4.2-2.1,5.5-.3-1.2-.9-3-2.1-5.5-2-4.1-.3-7.2.2-8h3.8Z"/>
  <path class="cls-4" d="M16.4,74.3c0,.2,0,.3,0,.5,0,.3-.2.5-.5.5h0c-.3,0-.5-.2-.5-.5,0-.2,0-.4,0-.5h1Z"/>
  <path class="cls-4" d="M15.9,39.9l.5.4c-.2.2-.6.4-.9.6l-.3-.2c-.2-.2-.3-.5-.1-.7,0,0,0,0,0,0h0c0,0,.1,0,.2,0h0c.2,0,.3,0,.5,0Z"/>
  <path class="cls-4" d="M12,77.4h4.2c-.1,0-.2,0-.3.1-.2.2-.3.5,0,.7,0,0,0,0,.1.2h-3.8c0-.1.1-.2.1-.2.2-.2.1-.5,0-.7,0,0-.2-.1-.3-.1Z"/>
  <path class="cls-4" d="M16.1,35.3v.6c0,.2-.1.4-.3.5-.2-.2-.4-.3-.7-.5v-1.1c.4.1.7.3,1,.5Z"/>
  <path class="cls-4" d="M16.1,28.1v7.2c-.3-.2-.6-.4-1-.5v-6.3c.4-.1.7-.3,1-.5,0,0,0,0,0,.1Z"/>
  <path class="cls-4" d="M16.1,22.7v.3c0,.3-.2.5-.5.5s0,0-.1,0c0,0-.1,0-.2-.1t0,0c0,0-.1-.2-.1-.3v-.8c.4.1.7.3,1,.5Z"/>
  <path class="cls-4" d="M16.1,15.4v7.3c-.3-.2-.6-.4-1-.5v-6.3c.4-.1.7-.3,1-.5Z"/>
  <path class="cls-4" d="M16.1,15.3h0c-.3.4-.6.5-1,.6v-.6c0-.3.2-.5.5-.5s.5.2.5.5Z"/>
  <path class="cls-4" d="M16.1,10.1v.3c0,.3-.2.5-.5.5s-.1,0-.2,0c0,0,0,0,0,0,0,0,0,0-.1,0,0,0,0,0,0,0,0,0-.1-.2-.1-.4v-.8c.4.1.7.3,1,.5Z"/>
  <path class="cls-4" d="M16.1.4v9.8c-.3-.2-.6-.4-1-.5V.6c.1,0,.3,0,.4,0l.6-.2Z"/>
  <path class="cls-3" d="M15.4,10.9c.6.4,1,1.1,1,1.9,0,1.3-1,2.3-2.3,2.3s-2.3-1-2.3-2.3.4-1.5,1-1.9c0,0,0,0,0,0,0,0,.1,0,.2-.1.3-.2.7-.3,1.1-.3s.8,0,1.1.3c0,0,0,0,0,0,0,0,0,0,.1,0,0,0,0,0,0,0Z"/>
  <path class="cls-2" d="M15.5,23.5c.6.4,1,1.1,1,1.9,0,1.3-1,2.3-2.3,2.3s-2.3-1-2.3-2.3.4-1.4,1-1.9c0,0,0,0,0,0,0,0,.2,0,.2-.1.3-.2.7-.3,1.1-.3s.8,0,1.1.3t0,0c0,0,.1.1.2.1Z"/>
  <path class="cls-3" d="M15.8,36.3c.4.4.7,1,.7,1.6s-.4,1.5-1,1.9h0c0,0-.1,0-.2,0h0c-.3.2-.7.3-1.1.3-1.3,0-2.3-1-2.3-2.3s.3-1.2.7-1.6c0,0,.1,0,.2,0,.3,0,.5-.2.5-.5h0c.3-.1.6-.2.9-.2s.6,0,.9.2c0,.3.2.5.5.5s.1,0,.2,0Z"/>
  <path class="cls-4" d="M15.9,75.3h-1.4c.3,0,.5-.2.5-.5,0-.2,0-.3,0-.5h.5c0,.2,0,.4,0,.5,0,.3.2.5.5.5Z"/>
  <path class="cls-4" d="M15.6,27.6c.2,0,.4.1.5.4-.3.2-.6.4-1,.5v-.4c0-.3.2-.5.5-.5Z"/>
  <path class="cls-4" d="M15.8,36.3c0,0-.1,0-.2,0-.3,0-.5-.2-.5-.5.3.1.5.3.7.5Z"/>
  <path class="cls-4" d="M15.3,40.7l.3.2c-.4.2-.9.3-1.4.3s-.7,0-1.1-.2c.1-.2.2-.4,0-.6-.2-.2-.5-.3-.7-.1,0,0-.1,0-.3.2-.8-.6-1.3-1.5-1.3-2.6s.5-2,1.4-2.6v.6c0,.2.1.4.3.5-.4.4-.7,1-.7,1.6,0,1.3,1,2.3,2.3,2.3s.8-.1,1.1-.3c0,0,0,0,0,0-.2.2-.1.5.1.7Z"/>
  <path class="cls-4" d="M15.3,23.4c0,0,.1,0,.2.1,0,0-.1,0-.2-.1Z"/>
  <path class="cls-4" d="M15.4,39.8s0,0-.2,0c0,0,.1,0,.2,0Z"/>
  <path class="cls-4" d="M15.3,10.8s0,0,.1,0c0,0-.1,0-.1,0Z"/>
  <path class="cls-4" d="M15.1,10.4c0,.1,0,.3.1.4-.3-.2-.7-.3-1.1-.3s-.8,0-1.1.3c0,0,.1-.2.1-.4v-.8c.3,0,.6-.1.9-.1s.6,0,.9.1v.8Z"/>
  <path class="cls-4" d="M15.1,23c0,.1,0,.3.1.3-.3-.2-.7-.3-1.1-.3s-.8,0-1.1.3c0,0,.1-.2.1-.3v-.8c.3,0,.6-.1.9-.1s.6,0,.9.1v.8Z"/>
  <path class="cls-4" d="M15.1,34.8v1.1c-.3-.1-.6-.2-.9-.2s-.6,0-.9.2v-1.1c.3,0,.6-.1.9-.1s.6,0,.9.1Z"/>
  <path class="cls-5" d="M15.1,28.5v6.3c-.3,0-.6-.1-.9-.1s-.6,0-.9.1v-6.3c.3,0,.6.1.9.1s.6,0,.9-.1Z"/>
  <path class="cls-5" d="M15.1,15.9v6.3c-.3,0-.6-.1-.9-.1s-.6,0-.9.1v-6.3c.3,0,.6.1.9.1s.6,0,.9-.1Z"/>
  <path class="cls-5" d="M15.1.6v9c-.3,0-.6-.1-.9-.1s-.6,0-.9.1V.2l1.7.4c0,0,.1,0,.2,0Z"/>
  <path class="cls-4" d="M15,74.3c0,.2,0,.3,0,.5,0,.3-.2.5-.5.5h0c-.1,0-.2,0-.3-.1.1,0,.2-.2.2-.4,0-.2,0-.4,0-.5h.6Z"/>
  <path class="cls-4" d="M14.2,91.9c.3,1.3.3,1.9.3,2,0,.2-.1.4-.3.5-.2,0-.3-.2-.3-.5,0,0,0-.7.3-2Z"/>
  <path class="cls-4" d="M14.4,75.3h-.6c.1,0,.2,0,.3-.1,0,0,.2,0,.3.1Z"/>
  <path class="cls-4" d="M14.4,74.3c0,.2,0,.4,0,.5,0,.2,0,.3-.2.4-.1,0-.2-.2-.2-.4,0-.2,0-.4,0-.5h.4Z"/>
  <path class="cls-4" d="M14.4,74.3h-.4c0-.7,0-1.3.2-1.9.1.6.2,1.2.2,1.9Z"/>
  <path class="cls-4" d="M14.2,94.3c0,0-.1,0-.2,0h0c-.3,0-.5-.2-.5-.5,0,0,0-2.1-2.4-7-1.9-3.9-.8-7,0-8.4h1.2c-.5.8-2.2,3.9-.2,8,1.2,2.5,1.8,4.3,2.1,5.5-.4,1.3-.3,1.9-.3,2,0,.2.1.4.3.5Z"/>
  <path class="cls-4" d="M14.2,75.2c0,0-.2.1-.3.1h0c-.3,0-.5-.2-.5-.5,0-.2,0-.3,0-.5h.6c0,.2,0,.4,0,.5,0,.2,0,.3.2.4Z"/>
  <path class="cls-4" d="M14.2,72.4c-.1.6-.2,1.2-.2,1.9h-.6c0-2.7-1.3-5-1.4-5-4.8-9.3-4.4-17.1-4.2-19.2h1c-.2,1.9-.7,9.6,4,18.8,0,0,.9,1.5,1.3,3.6Z"/>
  <path class="cls-4" d="M13.9,75.3h-1.5c.3,0,.5-.2.5-.5,0-.2,0-.4,0-.5h.5c0,.2,0,.3,0,.5,0,.3.2.5.5.5Z"/>
  <path class="cls-1" d="M13.4,74.3h-.5c-.1-3.1-2.5-6.9-7.9-12.4-4.9-5-2.4-10.6-1.8-11.9h4.6c-.2,2.2-.6,9.9,4.2,19.2,0,0,1.3,2.3,1.4,5Z"/>
  <path class="cls-4" d="M13.2,35.9h0c-.2.1-.5.3-.7.5-.2,0-.3-.2-.3-.5v-.6c.3-.2.6-.4,1-.5v1.1Z"/>
  <path class="cls-4" d="M13.2,28.5v6.3c-.4.1-.7.3-1,.5v-7.2s0,0,0-.1c.3.2.6.4,1,.5Z"/>
  <path class="cls-4" d="M13.2,28.1v.4c-.4-.1-.7-.3-1-.5,0-.2.2-.4.5-.4s.5.2.5.5Z"/>
  <path class="cls-4" d="M13.2,22.2v.8c0,.1,0,.3-.1.3,0,0-.1,0-.2.1,0,0,0,0,0,0,0,0,0,0-.1,0-.3,0-.5-.2-.5-.5v-.3c.3-.2.6-.4,1-.5Z"/>
  <path class="cls-4" d="M13.2,15.9v6.3c-.4.1-.7.3-1,.5v-7.3c.3.2.6.4,1,.5Z"/>
  <path class="cls-4" d="M13.2,15.3v.6c-.4-.1-.7-.3-1-.5h0c0-.4.2-.6.5-.6s.5.2.5.5Z"/>
  <path class="cls-4" d="M13.2,9.6v.8c0,.1,0,.3-.1.4,0,0-.1,0-.2.1,0,0,0,0,0,0,0,0-.1,0-.2,0-.3,0-.5-.2-.5-.5v-.3c.3-.2.6-.4,1-.5Z"/>
  <path class="cls-4" d="M13.2.2v9.4c-.4.1-.7.3-1,.5V0l1,.2Z"/>
  <path class="cls-4" d="M13.1,40.4c.1.2.1.4,0,.6-.3-.1-.7-.3-1-.5.2-.1.3-.2.3-.2.2-.2.5-.1.7.1Z"/>
  <path class="cls-4" d="M13.1,41s0,0,0,0c0,0-6.3,4.7-10.9,7.9h.8c-.2,0-.3,0-.4.2,0,0-.2.3-.4.8H.5c-.2,0-.4-.1-.5-.4,0-.2,0-.4.2-.6,4.1-2.7,10.6-7.5,11.9-8.6.3.2.6.4,1,.5Z"/>
  <path class="cls-4" d="M12.9,10.9s.1,0,.2-.1c0,0-.1,0-.2.1Z"/>
  <path class="cls-4" d="M13.1,23.3c0,0-.1.1-.2.1,0,0,.1,0,.2-.1Z"/>
  <path class="cls-4" d="M12.9,74.3c0,.2,0,.4,0,.5,0,.3-.2.5-.5.5h0c-.3,0-.5-.2-.5-.5,0-.2,0-.3,0-.5h1Z"/>
  <path class="cls-4" d="M12.9,74.3h-1c-.1-2.9-2.4-6.4-7.6-11.7-4.8-5-3-10.6-2.1-12.6h1.1c-.6,1.2-3.1,6.8,1.8,11.9,5.4,5.5,7.8,9.3,7.9,12.4Z"/>
  <path class="cls-4" d="M13.2,35.9c0,.3-.2.5-.5.5s-.1,0-.2,0c.2-.2.4-.3.7-.5Z"/>
  <path class="cls-1" d="M12.4,77.6c.2.2.2.5,0,.7,0,0,0,0-.1.2h-1.2c.3-.5.5-.8.5-.8.1-.1.2-.2.4-.2s.2,0,.3.1Z"/>
  <path class="cls-4" d="M12.4,75.3h-3.9v2.2h3.5c-.1,0-.3,0-.4.2,0,0-.2.3-.5.8h-3.1c-.3,0-.5-.2-.5-.5v-3.2c0-.3.2-.5.5-.5h3.9c0,.2,0,.3,0,.5,0,.3.2.5.5.5Z"/>
  <path class="cls-4" d="M8.5,49c.3,0,.5.3.4.6,0,0,0,.2,0,.4h-1c0-.3,0-.5,0-.6,0-.2.2-.4.4-.4h.1Z"/>
  <path class="cls-4" d="M8.5,49h-.1s0,0,.1,0Z"/>
  <path class="cls-4" d="M2.9,49h5.4c-.2,0-.4.2-.4.4,0,0,0,.2,0,.6H3.2c0-.1.1-.2.1-.2.1-.2,0-.5-.2-.7,0,0-.2,0-.3,0Z"/>
  <path class="cls-4" d="M3.2,49.1c.2.1.3.5.2.7,0,0,0,.1-.1.2h-1.1c.2-.5.4-.8.4-.8,0-.2.3-.2.4-.2s.2,0,.3,0Z"/>
</svg>