<?xml version="1.0" encoding="UTF-8"?>
<svg id="_레이어_1" data-name="레이어 1" xmlns="http://www.w3.org/2000/svg" version="1.1" viewBox="0 0 40.7 78">
  <defs>
    <style>
      .cls-1 {
        fill: #ff97b5;
      }

      .cls-1, .cls-2, .cls-3, .cls-4, .cls-5, .cls-6 {
        stroke-width: 0px;
      }

      .cls-2 {
        fill: #d793ff;
      }

      .cls-3 {
        fill: #00b2ff;
      }

      .cls-4 {
        fill: #281904;
      }

      .cls-5 {
        fill: #00d675;
      }

      .cls-6 {
        fill: #ff6a37;
      }
    </style>
  </defs>
  <path class="cls-4" d="M40.2,16c.3,1.4.5,2.9.5,4.4,0,5.8-2.4,11-6.3,14.7,0,0-.1-.1-.2-.2-.2-.1-.6,0-.7.2l-.6,1.2c-.7.6-1.5,1.1-2.3,1.5,0,0,0,0,0,0,.4-.6.8-1.3,1.2-1.9,4.7-3.5,7.8-9.2,7.8-15.5s0-1.8-.2-2.7c.2-.5.4-1,.6-1.6h.1Z"/>
  <path class="cls-4" d="M40.1,15.6c0,.1,0,.2,0,.4h-.1s0,0,0-.1c0,0,0-.2,0-.3Z"/>
  <path class="cls-4" d="M40.1,15.6c0,0,0,.2,0,.3,0,0,0,.2,0,.2,0,0-.2.2-.3.2,0,0-.2.1-.3.1s-.1,0-.2,0h0c0-.2,0-.5-.1-.7h0c0-.1,0-.2,0-.2,0,0,.2-.2.2-.2,0,0,.2,0,.3,0,.2,0,.3.2.4.3Z"/>
  <path class="cls-4" d="M39.8,16.3c0,0,.2-.2.3-.2-.1.6-.3,1.1-.6,1.6,0-.4-.1-.8-.2-1.2,0,0,.1,0,.2,0,.1,0,.2,0,.3-.1Z"/>
  <path class="cls-4" d="M39.9,14.8c0,.3.2.6.2.8,0-.2-.2-.3-.4-.3-.1,0-.2,0-.3,0,.2-.2.3-.4.5-.6Z"/>
  <path class="cls-1" d="M39.5,17.7c.1.9.2,1.8.2,2.7,0,6.3-3.1,12-7.8,15.5,4-7.3,4.1-15.2,4.1-15.5h0c.4,0,.7-.2,1-.3,1.1-.4,1.9-1.2,2.5-2.4Z"/>
  <path class="cls-4" d="M39.9,14.8c-.1.2-.3.4-.5.6-.1,0-.2.1-.2.2,0,0,0,0,0,0s0,0,0,0c-.2-.7-.4-1.4-.7-2.1-.9-2.3-2.2-4.4-3.8-6.2.1-.3.2-.5.3-.9,0-.1,0-.2,0-.4,2.3,2.4,4.1,5.3,5,8.6Z"/>
  <path class="cls-4" d="M39.5,15.3c0,0-.1.2-.2.2,0-.1.1-.2.2-.2Z"/>
  <path class="cls-4" d="M39.3,16.4c0,.4.1.8.2,1.2-.6,1.2-1.4,2-2.5,2.4-.3.1-.7.2-1,.3,0-.3-.2-.5-.5-.5s-.5.2-.5.5h0c-2.2.1-4.5-.9-5.7-1.5,0-.4,0-.8-.1-1.2.9.5,4.8,2.6,7.4,1.5,1.1-.5,1.9-1.5,2.4-3,0,0,0,.1,0,.2,0,0,.1,0,.2.1h0Z"/>
  <path class="cls-4" d="M39.1,15.8c0,.2.1.5.1.7,0,0-.1,0-.2-.1,0,0,0-.1,0-.2,0-.1,0-.2.1-.4Z"/>
  <path class="cls-4" d="M39.2,15.6s0,0,0,0c0,0,0,0,0,0h0c0,0,0,0,0,0,0,0,0,0,0,0Z"/>
  <path class="cls-4" d="M39.1,15.8c0,.1,0,.3-.1.4,0-.2,0-.3,0-.5,0,0,0,0,0,0Z"/>
  <path class="cls-3" d="M39.1,15.7c-.1.1-.1.3,0,.5-.4,1.5-1.2,2.5-2.4,3-2.7,1.1-6.5-1-7.4-1.5,0-1-.2-1.9-.3-2.5,1.1.9,3,2.1,5.1,1.9,1.7-.1,3.1-1.1,4.3-2.9.1-.2.1-.4,0-.5h0c.3.7.5,1.4.7,2.1Z"/>
  <path class="cls-4" d="M38.4,13.5c0,.2,0,.4,0,.5-1.2,1.8-2.6,2.8-4.3,2.9-2.1.2-4-1-5.1-1.9,0-.8-.2-1.3-.2-1.4h0c.5.3,2.8,2.5,5.3,2.3,1.4-.1,2.5-1,3.6-2.5.2-.2.5-.3.7-.2,0,0,.1.1.2.2Z"/>
  <path class="cls-2" d="M38.5,13.5h0c0,0,0-.1-.2-.2-.2-.1-.5,0-.7.2-1,1.5-2.2,2.4-3.6,2.5-2.5.2-4.8-2-5.3-2.5l-1-4.8c1.2.6,3.3,1.3,5,.6.9-.4,1.5-1,1.9-2,1.6,1.8,2.9,3.9,3.8,6.2Z"/>
  <path class="cls-4" d="M37.5,44.9c.1.1.1.3,0,.4,0,0-.8,2.9-3.3,5.5,0,0,0-.2,0-.3,0-.3-.2-.5-.5-.5h-.2c.5-.5.9-1,1.2-1.5h.5c.3,0,.5-.2.5-.5s-.2-.5-.4-.5c.4-.7.7-1.4.9-1.8h-7.5c.2,0,.4,0,.5-.3l.4-.7h7.4c.1,0,.3,0,.4.2Z"/>
  <path class="cls-5" d="M29,45.7h7.5c-.2.4-.5,1.1-.9,1.8,0,0,0,0,0,0H8.7c-.2-.6-.5-1.2-.7-1.8h20.9Z"/>
  <path class="cls-4" d="M36,20.3h0c0,.4-.1,8.3-4.1,15.5-.6.5-1.3.9-1.9,1.3,4.7-7,5-15.7,5.1-16.7.3,0,.7,0,1,0Z"/>
  <path class="cls-4" d="M35.5,19.9c.3,0,.5.2.5.5-.3,0-.7,0-1,0h0c0-.4.2-.6.5-.6Z"/>
  <path class="cls-4" d="M35.6,47.5c.2,0,.4.2.4.5s-.2.5-.5.5h-.5c.2-.3.4-.7.6-1Z"/>
  <path class="cls-4" d="M35.5,47.5s0,0,0,0c-.2.3-.4.6-.6,1H9.2c-.2-.3-.3-.6-.5-1h26.8Z"/>
  <path class="cls-1" d="M29.3,18.8c1.2.6,3.5,1.7,5.7,1.6,0,1-.4,9.7-5.1,16.7-1,.5-2,1-3,1.4,2.9-5.3,2.8-14.2,2.4-19.7Z"/>
  <path class="cls-4" d="M34.9,6.1c0,.1,0,.2,0,.4,0,.3-.2.6-.3.9-.3-.3-.5-.5-.8-.8,0,0,0-.2,0-.3,0-.3.3-.4.6-.4,0,0,.1,0,.1,0l.2.2Z"/>
  <path class="cls-2" d="M9.2,48.5h25.8c-.3.5-.7,1-1.2,1.5H10.9c-.2,0-.3,0-.4.2-.5-.5-.9-1.1-1.2-1.8Z"/>
  <path class="cls-4" d="M34.9,6.1l-.2-.2c0,0,.1.1.2.2Z"/>
  <path class="cls-4" d="M34.7,6s0,0-.1,0c-.3,0-.5.1-.6.4,0,0,0,.2,0,.3-1.6-1.6-3.4-2.8-5.5-3.8.4,0,.7-.3.9-.7,1.1.5,2.2,1.2,3.2,2,.8.6,1.6,1.2,2.2,1.9Z"/>
  <path class="cls-4" d="M33.9,6.5c.3.3.5.5.8.8-.4,1-1,1.7-1.9,2-1.7.7-3.8,0-5-.6l-.2-1c0,0,0-.2-.1-.2h0c.5.2,3.2,1.7,5,.9.7-.3,1.2-.9,1.5-1.9Z"/>
  <path class="cls-4" d="M34.4,35.1c0,.1.1.3,0,.5l-4.6,9.1h-1.1l4.2-8.3c.5-.4,1-.8,1.5-1.3Z"/>
  <path class="cls-4" d="M34.5,50.5c0,0,0,.2,0,.3,0,0,0,0,0,0,0,0-.2.1-.3.1h-1.2c.4-.3.7-.7,1-1h.2c.3,0,.5.2.5.5Z"/>
  <path class="cls-4" d="M34.2,34.9c0,0,.1,0,.2.2-.5.5-1,.9-1.5,1.3l.6-1.2c.1-.2.4-.3.7-.2Z"/>
  <path class="cls-4" d="M34,51c.1,0,.3,0,.3-.1-1.8,1.9-4.6,3.7-8.6,4.1v-.5c0-.3-.2-.5-.5-.5,3.4-.2,5.8-1.5,7.5-3h1.2Z"/>
  <path class="cls-4" d="M10.9,50h22.9c-.3.3-.6.7-1,1H11.2c-.3-.2-.5-.5-.8-.8,0-.1.2-.2.4-.2Z"/>
  <path class="cls-5" d="M11.2,51h21.5c-1.7,1.5-4.2,2.8-7.5,3h0c-6.6.5-11.1-.5-13.9-3Z"/>
  <path class="cls-6" d="M33.9,6.5c-.3,1-.8,1.6-1.5,1.9-1.8.8-4.6-.7-5-1l-5.9-6.4c2.1.1,4.1.6,6,1.3.1.2.3.3.5.3s.2,0,.3,0,0,0,0,0c2.1.9,3.9,2.2,5.5,3.8Z"/>
  <path class="cls-4" d="M31.9,35.9c-.4.7-.8,1.3-1.2,1.9,0,0,0,0,0,0,0,0-.1,0-.2.1s0,0-.1,0c0,0-.2,0-.3,0-.2-.2-.3-.5-.1-.7,0,0,0,0,0,0,.7-.4,1.3-.8,1.9-1.3Z"/>
  <path class="cls-4" d="M30.3,38s0,0,.1,0c-1.4.8-2.8,1.4-4.3,1.9.3-.4.6-.9.8-1.3,1.1-.4,2.1-.9,3-1.4,0,0,0,0,0,0-.1.2,0,.5.1.7,0,0,.2,0,.3,0Z"/>
  <path class="cls-4" d="M29.8,44.7l-.4.7c0,.2-.3.3-.5.3s-.1,0-.2,0c-.2-.1-.4-.4-.2-.7v-.3h1.3Z"/>
  <path class="cls-4" d="M29.3,18.8c.4,5.6.5,14.4-2.4,19.7-.5.2-1,.3-1.5.5,3.3-4.8,3.3-14.2,2.9-20.1.2-.1.3-.3.5-.4.1,0,.3.2.5.3Z"/>
  <path class="cls-4" d="M25.7,67.3c2.7.2,4.9,2.5,4.9,5.3s-2.4,5.4-5.4,5.4-5.4-2.4-5.4-5.4,2.1-5.1,4.9-5.3v.4c0,.3.2.5.5.5s.5-.2.5-.5v-.4ZM29.5,72.6c0-2.4-2-4.4-4.4-4.4s-4.4,2-4.4,4.4,2,4.4,4.4,4.4,4.4-2,4.4-4.4Z"/>
  <path class="cls-4" d="M29.2,17.6c0,.4,0,.8.1,1.2-.2,0-.4-.2-.5-.3-.2.1-.3.3-.5.4,0-.4,0-.8-.1-1.2,0,0,.1-.1.2-.2.2-.2.4-.2.6,0,0,0,0,0,.2.1Z"/>
  <path class="cls-4" d="M29.2,17.6c-.1,0-.2-.1-.2-.1-.2-.1-.5-.1-.6,0,0,0-.1.1-.2.2,0-1.2-.2-2.1-.3-2.8.1-.1.2-.3.4-.4.2.2.4.3.6.5,0,.7.2,1.5.3,2.5Z"/>
  <path class="cls-4" d="M29,45.7h-3.8c.3,0,.5-.2.5-.5v-.5h3v.3c-.3.2-.2.5,0,.7,0,0,.1,0,.2,0Z"/>
  <path class="cls-4" d="M28.8,13.7c0,.1,0,.6.2,1.4-.3-.2-.5-.4-.6-.5-.1.1-.2.3-.4.4,0-.7-.1-1-.1-1.1v-.2c0,0,0-.1.1-.2,0-.1.2-.2.4-.2s.3,0,.4.2c0,0,0,0,0,0h0Z"/>
  <path class="cls-4" d="M27.8,8.8l1,4.8c0,0,0,0,0,0-.1-.1-.2-.2-.4-.2s-.3,0-.4.2v.2c-.1,0-1.1-4.9-1.1-4.9.1,0,.3-.2.4-.3.2,0,.4.2.6.3Z"/>
  <path class="cls-2" d="M25.2,68.2c2.4,0,4.4,2,4.4,4.4s-2,4.4-4.4,4.4-4.4-2-4.4-4.4,2-4.4,4.4-4.4Z"/>
  <path class="cls-4" d="M29.2,2.1c-.1.4-.5.7-.9.7-.3-.1-.6-.2-.9-.4-.2-.2-.3-.6-.2-.9s0-.1,0-.2c.6.2,1.2.5,1.8.8Z"/>
  <path class="cls-6" d="M28.4,2.8s0,0,0,0c0,0-.2,0-.3,0-.2,0-.4-.2-.5-.3.3.1.6.2.9.4Z"/>
  <path class="cls-1" d="M28.3,18.9c.4,5.8.5,15.3-2.9,20.1-1.4.4-2.8.6-4.3.7v-18.2s0,0,0-.1c.2,0,.3,0,.5,0,2.1,0,4.4-.6,6.7-2.4Z"/>
  <path class="cls-4" d="M28.2,17.7c0,.4,0,.8.1,1.2-2.2,1.8-4.6,2.4-6.7,2.4s-.3,0-.5,0c0-.2-.2-.4-.5-.4s-.4.1-.5.3c-3.2-.4-5.9-2.1-7.1-3,0-.4.1-.8.2-1.1.6.5,2.4,1.9,4.8,2.7,3.8,1.3,7.2.6,10.1-2.1Z"/>
  <path class="cls-3" d="M27.9,14.9c0,.7.2,1.6.3,2.8-2.9,2.6-6.4,3.3-10.1,2.1-2.4-.8-4.2-2.2-4.8-2.7.1-1,.3-1.8.4-2.4,1.2,1.1,4.1,3.3,7.6,3.3h.2c2.3,0,4.5-1.1,6.4-3.1Z"/>
  <path class="cls-4" d="M27.8,13.9s0,.4.1,1.1c-1.9,2-4.1,3-6.4,3.1h-.2c-3.5,0-6.4-2.2-7.6-3.3.1-.6.2-.9.2-.9v-.2c.8.7,3.9,3.5,7.6,3.4,2.3,0,4.4-1.2,6.2-3.4v.2Z"/>
  <path class="cls-4" d="M27.6,7.8l.2,1c-.3-.1-.5-.2-.6-.3-.1.1-.3.2-.4.3v-.7c-.1,0-.4-.3-.4-.3.1-.1.2-.2.4-.3.2-.2.4-.2.6,0,0,0,0,0,0,0h0c0,.1,0,.2.1.3Z"/>
  <path class="cls-2" d="M26.8,8.8l1,4.9c-1.9,2.2-4,3.3-6.2,3.4-3.7,0-6.9-2.7-7.6-3.4l.6-4.9c1.2.7,3.7,2,6.6,2s3.8-.5,5.6-1.9Z"/>
  <path class="cls-4" d="M27.4,1.3c0,0,0,.1,0,.2-.1.3,0,.7.2.9-1.9-.8-3.9-1.2-6-1.3l-.8-.9c0,0-.2-.2-.3-.2,2.5,0,4.8.5,7,1.3Z"/>
  <path class="cls-4" d="M21.5,1l5.9,6.4s0,0,0,0c-.2-.1-.4-.1-.6,0-.1.1-.2.2-.4.3l-6-6.6-5.5,6.5c-.2-.2-.4-.3-.4-.3-.2-.1-.4-.1-.6,0,0,0,0,0,0,0l5.5-6.4c.4,0,.7,0,1.1,0s.8,0,1.2,0Z"/>
  <path class="cls-4" d="M26.6,8.1v.7c-1.7,1.4-3.7,1.9-5.5,1.9-2.9,0-5.4-1.3-6.6-2v-.7c0,0,.3-.3.3-.3,1.5,1,6.8,3.9,11.5,0l.3.3Z"/>
  <path class="cls-6" d="M20.4,1.2l6,6.6c-4.7,3.9-10,.9-11.5,0l5.5-6.5Z"/>
  <path class="cls-4" d="M26.9,38.6c-.2.5-.5.9-.8,1.3-.5.1-.9.3-1.4.4h0c0-.2,0-.3.1-.4.2-.3.5-.6.7-.9.5-.1,1-.3,1.5-.5Z"/>
  <path class="cls-4" d="M26.1,39.9c-.1.2-.3.3-.4.5v4.3h-1v-4.5c.5-.1.9-.2,1.4-.4Z"/>
  <path class="cls-4" d="M25.7,67.3v.4c0,.3-.2.5-.5.5s-.5-.2-.5-.5v-.4c.2,0,.3,0,.5,0s.3,0,.5,0Z"/>
  <path class="cls-4" d="M25.7,55v12.3c-.2,0-.3,0-.5,0s-.3,0-.5,0v-12.2c.2,0,.4,0,.5,0,.2,0,.3,0,.5,0Z"/>
  <path class="cls-4" d="M25.7,54.5v.5c-.1,0-.3,0-.5,0-.2,0-.4,0-.5,0v-.5c0-.3.2-.5.5-.5h0c.3,0,.5.2.5.5Z"/>
  <path class="cls-4" d="M25.7,44.7v.5c0,.3-.2.5-.5.5s-.5-.2-.5-.5v-.5h1Z"/>
  <path class="cls-4" d="M25.5,39c-.2.3-.4.6-.7.9,0,0-.1.2-.1.3h0c-1.3.3-2.6.5-3.9.5.2,0,.4-.2.4-.5v-.5c1.5,0,2.9-.3,4.3-.7Z"/>
  <path class="cls-4" d="M25.2,45.7h-9c.3,0,.5-.2.5-.5v-.5h8v.5c0,.3.2.5.5.5Z"/>
  <path class="cls-4" d="M25.1,54c-.3,0-.5.2-.5.5v.5c-.9,0-1.8,0-2.6,0-2.5,0-4.7-.2-6.6-.8v-.4c0-.3-.2-.5-.5-.5s-.5.2-.5.5h0c-3.1-1-5.2-3-6.5-5.8h0c0,.2.2.3.5.3h.8c.4.6.8,1.2,1.2,1.8,0,0,0,.2,0,.3,0,.3.2.5.5.5h.3c2.8,2.6,7.3,3.5,13.9,3Z"/>
  <path class="cls-4" d="M20.7.2l.8.9c-.4,0-.8,0-1.2,0s-.8,0-1.1,0l.7-.9c0-.1.2-.2.4-.2h0c.1,0,.3,0,.3.2Z"/>
  <path class="cls-4" d="M21.1,39.7v.5c0,.2-.2.4-.4.5,0,0-.1,0-.2,0h0c-.2,0-.4-.2-.4-.5v-.5c0,0,.1,0,.2,0,.3,0,.5,0,.8,0Z"/>
  <path class="cls-4" d="M21.1,21.5v18.2c-.3,0-.5,0-.8,0s-.1,0-.2,0v-18.2c0,0,0-.1,0-.2.3,0,.6,0,.9,0,0,0,0,0,0,.1Z"/>
  <path class="cls-4" d="M21.1,21.4c-.3,0-.6,0-.9,0,0-.2.2-.3.5-.3s.4.2.5.4Z"/>
  <path class="cls-4" d="M20.7,40.7s0,0-.1,0,0,0,0,0c0,0,.1,0,.2,0Z"/>
  <path class="cls-4" d="M20.5,40.7c0,0-.1,0-.2,0-1.3,0-2.5-.1-3.7-.3v-.2c0-.1,0-.2-.1-.3-.2-.2-.3-.4-.5-.7,1.3.3,2.7.5,4.1.5v.5c0,.2.2.4.4.5Z"/>
  <path class="cls-1" d="M20.2,21.3c0,0,0,.1,0,.2v18.2c-1.4,0-2.8-.2-4.1-.5-4.2-6-3.7-15.4-3-21,1.2.9,3.9,2.6,7.1,3Z"/>
  <path class="cls-4" d="M20.3,0c-.1,0-.3,0-.4.2l-.7.9c-1.6,0-3.2.4-4.7.9.1-.3.1-.6,0-.9,0,0,0,0,0-.1,1.3-.4,2.7-.7,4.1-.8.6,0,1.2,0,1.8,0Z"/>
  <path class="cls-6" d="M19.2,1l-5.5,6.4c-1.4,1.1-2.6,1.5-3.9,1.3-1.6-.3-2.6-1.7-3-2.3,1.6-1.5,3.4-2.8,5.5-3.7.1,0,.2,0,.3,0,.5,0,1-.1,1.4-.4.2-.1.3-.3.4-.5,1.5-.5,3.1-.8,4.7-.9Z"/>
  <path class="cls-4" d="M15.4,61.9c1.5.2,2.6,1.5,2.6,3.1s-1.4,3.1-3.1,3.1-3.1-1.4-3.1-3.1,0-.4,0-.6c.3-1.3,1.3-2.3,2.6-2.5v.3c0,.3.2.5.5.5s.5-.2.5-.5v-.3ZM17.1,65c0-1.2-1-2.1-2.1-2.1s-2.1,1-2.1,2.1,1,2.1,2.1,2.1,2.1-1,2.1-2.1Z"/>
  <path class="cls-4" d="M16.7,44.7v.5c0,.3-.2.5-.5.5s-.5-.2-.5-.5v-.5h1Z"/>
  <path class="cls-4" d="M16.7,40.4v4.3h-1v-4.3c0,0-.1-.2-.2-.3.4.1.8.2,1.2.2Z"/>
  <path class="cls-4" d="M16.7,40.2v.2c-.4,0-.8-.1-1.2-.2-.3-.4-.6-.8-.8-1.3.5.1.9.3,1.4.4.2.2.3.5.5.7,0,0,.1.2.1.3Z"/>
  <circle class="cls-2" cx="14.9" cy="65" r="2.1"/>
  <path class="cls-4" d="M16.2,45.7h-3.8c0,0,.2,0,.2,0,.2-.1.4-.4.2-.7v-.3c-.1,0,2.9,0,2.9,0v.5c0,.3.2.5.5.5Z"/>
  <path class="cls-4" d="M16,39.2c-.5-.1-.9-.2-1.4-.4-3.8-6.4-3.3-15.5-2.5-20.9.2,0,.3,0,.5-.1.1.1.3.2.5.4-.8,5.5-1.2,14.9,3,21Z"/>
  <path class="cls-4" d="M15.4,61.9v.3c0,.3-.2.5-.5.5s-.5-.2-.5-.5v-.3c.2,0,.3,0,.5,0s.3,0,.5,0Z"/>
  <path class="cls-4" d="M15.4,54.4v7.5c-.2,0-.3,0-.5,0s-.3,0-.5,0v-7.9c.3.1.6.2,1,.3Z"/>
  <path class="cls-4" d="M15.4,54v.4c-.4,0-.7-.2-1-.3h0c0-.3.2-.5.5-.5s.5.2.5.5Z"/>
  <path class="cls-4" d="M14.6,38.8c.2.4.5.9.8,1.3-1.9-.5-3.6-1.2-5.2-2.1,0,0,.1,0,.2,0s.2,0,.3,0c.2-.1.3-.5.2-.7,0,0,0,0,0-.1,1.2.7,2.5,1.3,3.9,1.7Z"/>
  <path class="cls-4" d="M14.9,7.7l-.3.3v.7c-.2,0-.4-.2-.5-.2-.2.2-.4.3-.6.4v-1.1c.1,0,.2-.2.2-.3h0s0,0,0,0c.2-.1.4-.2.6,0,0,0,.2.1.4.3Z"/>
  <path class="cls-4" d="M14.5,1c.2.3.2.6,0,.9-.8.2-1.5.5-2.2.8-.2,0-.3,0-.5,0-.3,0-.6-.2-.9-.3,1.1-.6,2.2-1,3.4-1.4,0,0,0,0,0,.1Z"/>
  <path class="cls-4" d="M14.5,8.7l-.6,4.9c-.1,0-.2-.2-.2-.2-.1-.2-.4-.2-.5-.1,0,0-.2,0-.3.1l.6-4.5c.2-.1.4-.3.6-.4.1,0,.2.2.4.2Z"/>
  <path class="cls-6" d="M14.5,1.9c0,.2-.2.4-.4.5-.4.2-.9.4-1.4.4s-.2,0-.3,0c.7-.3,1.4-.6,2.2-.8Z"/>
  <path class="cls-4" d="M13.9,13.6v.2s-.1.4-.2.9c-.2-.1-.3-.3-.4-.4-.2,0-.4.1-.6.2,0-.5.2-.8.2-.9v-.2c.1,0,.2,0,.3-.1.2,0,.4,0,.5.1,0,0,0,0,.2.2Z"/>
  <path class="cls-4" d="M13.8,7.5h0c0,.1-.1.2-.1.3v1.1c-1.4.8-2.7,1.1-3.9.8-1.8-.4-3-1.7-3.5-2.5.2-.2.5-.5.7-.7.4.6,1.5,2,3,2.3,1.2.2,2.5-.2,3.9-1.3Z"/>
  <path class="cls-2" d="M13.5,8.9l-.6,4.5c-2.5,1-4.7,1-6.4.2-1.7-.8-2.6-2.2-3-2.9.7-1.3,1.6-2.5,2.6-3.5.5.8,1.8,2.2,3.5,2.5,1.2.2,2.5,0,3.8-.8Z"/>
  <path class="cls-4" d="M13.3,14.4c.1,0,.2.2.4.4-.1.6-.3,1.4-.4,2.4-.1-.1-.2-.2-.2-.2-.1-.1-.3-.2-.5-.1-.1,0-.2,0-.3,0,.2-1,.3-1.8.4-2.3.2,0,.4-.1.6-.2Z"/>
  <path class="cls-4" d="M13.3,17.1c0,.4-.1.7-.2,1.1-.2-.2-.4-.3-.5-.4-.2,0-.3,0-.5.1,0-.4.1-.7.2-1.1.1,0,.2,0,.3,0,.2,0,.3,0,.5.1,0,0,0,0,.2.2Z"/>
  <path class="cls-4" d="M12.9,13.4v.2c0,0-.1.4-.2.9-2.5.8-4.8.8-6.6,0-1.6-.7-2.5-1.9-3.1-2.8.2-.4.4-.7.6-1,.4.7,1.3,2.1,3,2.9,1.8.8,3.9.7,6.4-.2Z"/>
  <path class="cls-4" d="M12.8,45c.1.2,0,.5-.2.7,0,0-.1,0-.2,0-.2,0-.4,0-.4-.3l-.4-.7h1.1v.3Z"/>
  <path class="cls-4" d="M8.8,37.1l3.8,7.6h-1.1l-4.6-9c.6.5,1.2,1,1.9,1.5Z"/>
  <path class="cls-4" d="M12.4,45.7h-4.3c.2.6.4,1.2.7,1.8h-.3c-.3,0-.5.2-.5.5s0,.1,0,.2h0c-.4-.9-.8-1.8-1-2.9,0-.2,0-.3,0-.4.1-.1.2-.2.4-.2h4.2l.4.7c0,.2.3.3.4.3Z"/>
  <path class="cls-3" d="M12.7,14.6c-.1.6-.3,1.4-.4,2.3-6.8,1.6-9.5-2.2-10.1-3.2.2-.7.5-1.3.8-2,.5.9,1.5,2,3.1,2.8,1.9.9,4.1.8,6.6,0Z"/>
  <path class="cls-4" d="M11.8,2.7c.2,0,.3,0,.5,0-2,.9-3.9,2.2-5.5,3.7-.1-.2-.2-.3-.2-.3-.1-.2-.4-.3-.7-.2,1.5-1.5,3.1-2.7,5-3.6.3.1.6.3.9.3Z"/>
  <path class="cls-4" d="M12.3,16.9c0,.3-.1.7-.2,1.1-2.9.6-5.2.3-6.8-.4,0-.1,0-.2,0-.2,0-.3-.2-.5-.4-.6-.2,0-.4.1-.5.3-1.2-.7-2.1-1.5-2.6-2.2.1-.4.2-.8.4-1.2.6.9,3.3,4.7,10.1,3.2Z"/>
  <path class="cls-1" d="M12.1,18c-.8,5.3-1.3,14.5,2.5,20.9-1.4-.4-2.6-1-3.9-1.7-5.9-9.4-5.6-18.2-5.5-19.6,1.7.7,3.9,1,6.8.4Z"/>
  <path class="cls-4" d="M11.2,51h-.3c-.3,0-.5-.2-.5-.5s0-.2,0-.3c.2.3.5.5.8.8Z"/>
  <path class="cls-4" d="M10.8,37.3c.1.2,0,.5-.2.7s-.2,0-.3,0-.1,0-.2,0c0,0-.1,0-.1,0s0,0,0,0c-.4-.6-.8-1.2-1.1-1.9.6.5,1.2.9,1.9,1.2,0,0,0,0,0,.1Z"/>
  <path class="cls-4" d="M10,37.8s0,0,0,0c-.4-.2-.8-.5-1.2-.8l-1-2s0,0,0-.1c.4.3.8.6,1.1.9.3.6.7,1.2,1.1,1.9Z"/>
  <path class="cls-4" d="M10.8,37.2c-.7-.4-1.3-.8-1.9-1.2-5.4-9.8-4.6-18.3-4.6-18.7,0,0,0-.1,0-.2.3.2.6.3.9.5,0,1.4-.4,10.2,5.5,19.6Z"/>
  <path class="cls-4" d="M9.2,48.5h-.8c-.2,0-.4-.1-.5-.3,0,0,0-.1,0-.2,0-.3.2-.5.5-.5h.3c.2.4.3.7.5,1Z"/>
  <path class="cls-4" d="M7.8,35.1l1,2c-.6-.4-1.3-.9-1.9-1.5h0c-.1-.3,0-.6.2-.7s.4,0,.6,0c0,0,0,0,0,0,0,0,0,0,0,.1Z"/>
  <path class="cls-1" d="M8.9,35.9c-.4-.3-.8-.6-1.1-.9,0,0,0,0,0,0-2.4-2.1-4.3-4.7-5.4-7.7,0-.1,0-.3-.1-.4,0,0,0,0,0,0-.7-2-1.1-4.2-1.1-6.5s.3-3.7.8-5.4c.5.6,1.3,1.5,2.6,2.2,0,0,0,.1,0,.2,0,.4-.9,8.9,4.6,18.7Z"/>
  <path class="cls-4" d="M7.7,35c-.1-.2-.4-.2-.6,0s-.3.4-.2.7h0c-1.9-1.6-3.5-3.6-4.7-5.9v-2.3s0-.1,0-.2c1.2,3,3,5.7,5.4,7.7Z"/>
  <path class="cls-4" d="M6.9,6.5c-.2.2-.5.5-.7.7-.2-.3-.3-.5-.4-.6,0-.2,0-.3,0-.5,0,0,0,0,0,0,0,0,0-.1.1-.2s0,0,0,0c.2-.1.5,0,.7.2,0,0,0,.1.2.3Z"/>
  <path class="cls-4" d="M6,6s-.1,0-.1.2c0,0,0-.1.1-.2Z"/>
  <path class="cls-4" d="M5.8,6.6s.1.2.4.6c-1,1.1-1.9,2.3-2.6,3.5-.1-.2-.2-.4-.2-.4,0,0,0,0,0,0h0s0,0,0-.1c0,0,0,0,0,0,0,0-.1-.2-.3-.4.8-1.3,1.7-2.5,2.8-3.6,0,.2-.1.3,0,.5Z"/>
  <path class="cls-4" d="M4.9,16.8c.3,0,.5.3.4.6,0,0,0,0,0,.2-.3-.1-.6-.3-.9-.5,0-.2.3-.3.5-.3Z"/>
  <path class="cls-4" d="M3.4,10.3c0,0,0,.2.2.4-.2.3-.4.7-.6,1-.2-.3-.3-.6-.4-.8h.3c.2,0,.4-.1.4-.3,0-.1,0-.2,0-.4Z"/>
  <path class="cls-4" d="M3.4,10.3c0,.1,0,.2,0,.4,0,.2-.3.3-.4.3h-.3c0-.1,0-.2-.1-.3.1-.2.3-.5.4-.7h0c.2,0,.3,0,.4.2,0,0,0,0,0,.1h0s0,0,0,0Z"/>
  <path class="cls-4" d="M3.4,10.3s0,0,0-.1c0,0,0,0,0,0,0,0,0,0,0,0Z"/>
  <path class="cls-4" d="M3,9.7c.1.2.2.4.3.4,0-.1-.3-.2-.4-.2v-.2Z"/>
  <path class="cls-4" d="M2.7,10s0,0,.1,0c-.2.2-.3.5-.4.7,0,0,0,0,0,0,0-.3,0-.5.3-.6Z"/>
  <path class="cls-4" d="M2.6,11c.1.2.2.5.4.8-.3.6-.6,1.3-.8,2,0,0,0-.2-.1-.2-.1-.2-.4-.3-.7-.2,0,0-.2.1-.2.2.3-.9.7-1.7,1.1-2.6h.2Z"/>
  <path class="cls-4" d="M2.6,11h-.2c0,0,0-.2.1-.3,0,0,0,.1.1.3Z"/>
  <path class="cls-4" d="M2.3,27.4v2.3c-.5-1-1-2.1-1.3-3.2.1,0,.2,0,.3,0,.4,0,.7.2.8.4,0,0,0,0,0,0,0,.1,0,.3.1.4,0,0,0,.1,0,.2Z"/>
  <path class="cls-4" d="M2.1,26.9c0,.1.1.2.1.4,0-.1-.1-.3-.1-.4Z"/>
  <path class="cls-4" d="M2.1,13.6s0,0,.1.2c-.1.4-.3.8-.4,1.2-.4-.5-.6-.9-.6-.9,0,0,0-.2,0-.3,0,0,0-.1,0-.2,0,0,0,0,0,0,0,0,.1-.1.2-.2.2-.1.5,0,.7.2Z"/>
  <path class="cls-4" d="M2.1,26.9c-.2-.3-.5-.4-.8-.4s-.2,0-.3,0c-.6-1.9-1-4-1-6.1s.4-4.6,1.1-6.6c0,0,0,.2,0,.3,0,0,.2.4.6.9-.5,1.7-.8,3.5-.8,5.4s.4,4.5,1.1,6.5Z"/>
  <path class="cls-4" d="M1.2,13.6s0,0,0,.2c0,0,0-.1,0-.2Z"/>
</svg>