<?xml version="1.0" encoding="UTF-8"?>
<svg id="_레이어_1" data-name="레이어 1" xmlns="http://www.w3.org/2000/svg" version="1.1" viewBox="0 0 10.3 54.7">
  <defs>
    <style>
      .cls-1 {
        fill: #281904;
      }

      .cls-1, .cls-2 {
        stroke-width: 0px;
      }

      .cls-2 {
        fill: #ff6a37;
      }
    </style>
  </defs>
  <g>
    <path class="cls-2" d="M5.2,45.4c2.3,0,4.2,1.9,4.2,4.2s-1.9,4.2-4.2,4.2-4.2-1.9-4.2-4.2,1-3.1,2.5-3.8c0,0,0,0,0,0,.5-.2,1-.3,1.6-.3Z"/>
    <path class="cls-1" d="M7.9,45.2c-.3-.2-.6-.4-1-.5-.5-.2-1.1-.3-1.8-.3s-1,0-1.4.2c-.3,0-.7.2-1,.4-1.6.9-2.8,2.6-2.8,4.6,0,2.8,2.3,5.2,5.2,5.2s5.2-2.3,5.2-5.2-1-3.5-2.4-4.4ZM5.2,53.7c-2.3,0-4.2-1.9-4.2-4.2s1-3.2,2.5-3.8c0,0,0,0,0,0,.5-.2,1-.3,1.6-.3,2.3,0,4.2,1.9,4.2,4.2s-1.9,4.2-4.2,4.2Z"/>
  </g>
  <path class="cls-1" d="M7.9,40.3s0,0,0,0v-2.1s0,0,0,0,0,0,0,0v-2.7c0-.3-.2-.5-.5-.5h-1.8V1.5c-.4-.7-.7-1.2-.8-1.4,0,0,0,0-.2,0v34.7h-1.4c-.3,0-.5.2-.5.5v9.8c.3-.2.7-.3,1-.4v-1.6h3.2v1.7c.4.1.7.3,1,.5v-2.6s0,0,0,0,0,0,0-.1v-2.1s0,0,0,0ZM3.8,38.5h3.2v1.2h-3.2v-1.2ZM3.8,35.7h3.2v1.8h-3.2v-1.8ZM3.8,42v-1.3h3.2v1.3h-3.2Z"/>
</svg>