<?xml version="1.0" encoding="UTF-8"?>
<svg id="_레이어_1" data-name="레이어 1" xmlns="http://www.w3.org/2000/svg" version="1.1" viewBox="0 0 51.6 21.1">
  <defs>
    <style>
      .cls-1 {
        fill: #00b2ff;
      }

      .cls-1, .cls-2 {
        stroke-width: 0px;
      }

      .cls-2 {
        fill: #281904;
      }
    </style>
  </defs>
  <path class="cls-2" d="M49.4,11.4c1.3,1.1,2.5,2.1,2.1,4.5-.5,3.5-11.3,2.3-14,1.9-.8.7-4.5,3.2-11.6,2.1-.6.2-3.6,1.1-6.4,1.1s-4.2-.5-5.2-2.4c-1.1.6-3.9,1.7-6.3,1-1.2-.4-2.1-1.2-2.7-2.4-1.7.1-4.9.2-5.3-1.1-.3-.8.5-1.7,2.4-2.9,4.6-2.8,7.1-3,8.3-2.8,0-.9,0-2.5.9-3.6.6-.8,1.6-1.3,2.8-1.3l3.7-.2c0-.9.4-2.8,1.9-4.1C21.2.3,22.8-.1,24.7,0c6,.6,8.7,1.2,11.3,7.6,2-.2,9.6-1,11.4,1.7.6.9,1.3,1.5,2,2.1ZM50.5,15.7c.3-1.8-.5-2.5-1.8-3.6-.7-.6-1.5-1.3-2.2-2.3-1.3-2-8.2-1.5-10.8-1.2-.2,0-.4-.1-.5-.3-2.5-6.2-4.6-6.7-10.7-7.3-1.6-.2-2.9.2-3.8,1-1.6,1.4-1.6,3.9-1.6,3.9,0,.3-.2.5-.5.5l-4.1.2c-.9,0-1.6.3-2.1.9-1,1.3-.6,3.5-.6,3.6,0,.2,0,.4-.2.5-.1.1-.4.1-.5,0,0,0-2.2-1-8.1,2.6-2,1.2-2,1.7-2,1.7.2.3,2.2.6,4.6.4.2,0,.4,0,.5.3.5,1.1,1.2,1.8,2.2,2.1,2.5.8,5.9-1.1,5.9-1.1,0,0,.2,0,.2,0s.1,0,.2,0c.1,0,.2.2.3.3,1.5,4.2,10.5,1.1,10.6,1.1,0,0,.2,0,.2,0,7.6,1.2,11.1-2,11.1-2,.1-.1.3-.2.4-.1,5.3.7,12.8.9,13.1-1.1Z"/>
  <path class="cls-1" d="M48.7,12.2c1.2,1,2,1.7,1.8,3.6-.3,1.9-7.9,1.8-13.1,1.1-.1,0-.3,0-.4.1,0,0-3.5,3.2-11.1,2,0,0-.2,0-.2,0,0,0-9.1,3.1-10.6-1.1,0-.1-.2-.2-.3-.3,0,0-.1,0-.2,0,0,0-.2,0-.2,0,0,0-3.4,2-5.9,1.1-1-.3-1.8-1-2.2-2.1,0-.2-.3-.3-.5-.3-2.4.2-4.4,0-4.6-.4,0,0,0-.5,2-1.7,5.9-3.6,8.1-2.6,8.1-2.6.2,0,.4,0,.5,0,.2-.1.2-.3.2-.5,0,0-.4-2.3.6-3.6.5-.6,1.1-.9,2.1-.9l4.1-.2c.3,0,.5-.2.5-.5s0-2.5,1.6-3.9c.9-.8,2.2-1.2,3.8-1,6.1.6,8.2,1.1,10.7,7.3,0,.2.3.3.5.3,2.6-.4,9.5-.8,10.8,1.2.7,1,1.5,1.7,2.2,2.3Z"/>
</svg>