<?xml version="1.0" encoding="UTF-8"?>
<svg id="_레이어_1" data-name="레이어 1" xmlns="http://www.w3.org/2000/svg" version="1.1" viewBox="0 0 16.2 66.2">
  <defs>
    <style>
      .cls-1 {
        fill: #ffec2d;
      }

      .cls-1, .cls-2 {
        stroke-width: 0px;
      }

      .cls-2 {
        fill: #281904;
      }
    </style>
  </defs>
  <path class="cls-1" d="M8.5.8c-3.8,0-6.9,3.8-6.9,8.5s.9,4.8,2.3,6.4c0,0,0,0,0,0,1.2,1.3,2.8,2,4.5,2s2.7-.5,3.8-1.4c0,0,0,0,0,0,1.9-1.6,3-4.2,3-7,0-4.7-3.1-8.5-6.9-8.5Z"/>
  <path class="cls-2" d="M.1,66.1c0,0,.2.1.3.1s.2,0,.3-.1c7.8-8.4,8.1-36.4,8.1-40.8.2,0,.4,0,.6-.2,0,0,.2,0,.2-.1,2.8-1.6,3.3-7,3.4-8,2-1.8,3.2-4.6,3.2-7.6C16.2,4.2,12.8,0,8.5,0S.8,4.2.8,9.3s1,5.2,2.5,6.9h0c.3,1.2,2,7.6,4.5,8.8.1,0,.3.1.4.2,0,0-.2,0-.2,0,0,4.2-.4,32.2-7.9,40.2-.2.2-.1.4,0,.6ZM12.4,16.4s0,0,0,0c-1.1.9-2.5,1.4-3.8,1.4s-3.3-.8-4.5-2c0,0,0,0,0,0-1.4-1.6-2.3-3.8-2.3-6.4,0-4.7,3.1-8.5,6.9-8.5s6.9,3.8,6.9,8.5-1.1,5.4-3,7ZM9.1,24.3c-.3.1-.6.1-.9,0-1.5-.7-3-4.6-3.7-7,1.2.9,2.6,1.4,4,1.4s2.5-.4,3.6-1.1c-.2,1.8-.9,5.7-3,6.7,0,0,0,0,0,0Z"/>
</svg>