<?xml version="1.0" encoding="UTF-8"?>
<svg id="_레이어_1" data-name="레이어 1" xmlns="http://www.w3.org/2000/svg" version="1.1" viewBox="0 0 27.8 47.2">
  <defs>
    <style>
      .cls-1 {
        fill: #d793ff;
      }

      .cls-1, .cls-2 {
        stroke-width: 0px;
      }

      .cls-2 {
        fill: #281904;
      }
    </style>
  </defs>
  <path class="cls-2" d="M13.1,4v14.2h-1V0s0,0,0,0c0,.3.2,1.8,1,4Z"/>
  <g>
    <g>
      <polygon class="cls-1" points="24.7 43.7 15.6 43.7 4.4 43.7 1 43.7 1 46.2 26.8 46.2 26.8 43.7 24.7 43.7"/>
      <rect class="cls-1" x="22.3" y="36.1" width="1.9" height="6.6"/>
      <polygon class="cls-1" points="18.9 42.7 21.3 42.7 21.3 36.1 21.1 36.1 18.9 36.1 18.9 42.7"/>
      <rect class="cls-1" x="19.5" y="28.2" width="1.1" height="6.9"/>
      <path class="cls-1" d="M10.2,27.1c.1,0,.2,0,.3,0h10.1v-1.2h-12.6v1.2h1.9c0,0,.2,0,.3,0Z"/>
      <rect class="cls-1" x="17.2" y="28.2" width="1.3" height="6.9"/>
      <path class="cls-1" d="M17.9,36.1h-1.7c0,0,0,.2,0,.2v2.4c0,0,0,.1,0,.2s0,.2,0,.2v3.5h1.8v-6.6Z"/>
      <path class="cls-1" d="M16.2,35.1v-6.9h-2.2v4.4s0,0,0,.2h1.6c.3,0,.5.2.5.5v1.8h0Z"/>
      <rect class="cls-1" x="4.9" y="39.4" width="10.2" height="3.3"/>
      <rect class="cls-1" x="4.9" y="36.5" width="10.2" height="1.9"/>
      <polygon class="cls-1" points="15.1 33.7 7.5 33.7 4.9 33.7 4.9 35.5 15.1 35.5 15.1 33.7"/>
      <rect class="cls-1" x="10.5" y="22.5" width="4.1" height="2.4"/>
      <polygon class="cls-1" points="14.7 19.3 12.6 19.3 10.5 19.3 10.5 21.5 14.7 21.5 14.7 19.3"/>
      <path class="cls-1" d="M10.7,28.2v4.6h2.4c0,0,0-.1,0-.2v-4.4h-2.3Z"/>
      <rect class="cls-1" x="8" y="28.2" width="1.7" height="4.6"/>
    </g>
    <path class="cls-2" d="M27.3,42.7h-2v-7.1c0-.3-.2-.5-.5-.5h-3.2v-9.7c0-.3-.2-.5-.5-.5h-5.4v-6.1c0-.3-.2-.5-.5-.5h-5.1c-.3,0-.5.2-.5.5v6.1h-2c-.3,0-.5.2-.5.5v7.3h-2.6c-.3,0-.5.2-.5.5v9.5H.5c-.3,0-.5.2-.5.5v3.5c0,.3.2.5.5.5h26.8c.3,0,.5-.2.5-.5v-3.5c0-.3-.2-.5-.5-.5ZM24.2,42.7h-1.9v-6.6h1.9v6.6ZM4.9,36.5h10.2v1.9H4.9v-1.9ZM10.7,28.2h2.3v4.4s0,0,0,.2h-2.4v-4.6ZM14,32.6v-4.4h2.2v6.9h0v-1.8c0-.3-.2-.5-.5-.5h-1.6c0,0,0-.1,0-.2ZM18.5,35.1h-1.3v-6.9h1.3v6.9ZM16.1,39.2c0,0,0-.2,0-.2s0-.2,0-.2v-2.4c0,0,0-.1,0-.2h1.7v6.6h-1.8v-3.5ZM18.9,36.1h2.4v6.6h-2.4v-6.6ZM19.5,35.1v-6.9h1.1v6.9h-1.1ZM10.5,19.3h4.1v2.2h-4.1v-2.2ZM10.5,22.5h4.1v2.4h-4.1v-2.4ZM8,25.9h12.6v1.2h-10.1c0,0-.2,0-.3,0s-.2,0-.3,0h-1.9v-1.2ZM8,28.2h1.7v4.6h-1.7v-4.6ZM4.9,33.7h10.2v1.8H4.9v-1.8ZM4.9,39.4h10.2v3.3H4.9v-3.3ZM26.8,46.2H1v-2.5h25.8v2.5Z"/>
  </g>
</svg>