<?xml version="1.0" encoding="UTF-8"?>
<svg id="_레이어_1" data-name="레이어 1" xmlns="http://www.w3.org/2000/svg" version="1.1" viewBox="0 0 54.5 25.5">
  <defs>
    <style>
      .cls-1 {
        fill: #00b2ff;
      }

      .cls-1, .cls-2 {
        stroke-width: 0px;
      }

      .cls-2 {
        fill: #281904;
      }
    </style>
  </defs>
  <ellipse class="cls-2" cx="2.5" cy="19.7" rx="2.5" ry="2.8"/>
  <g>
    <path class="cls-2" d="M54.4,17.2c.7,2.3-1.2,4.6-3.3,5.3-2.1.7-4.5.2-6.4-.2-1.8-.4-3.8-.8-5.6-.3-.6,1.7-2.1,2.9-3.8,3.1-1.5.2-3.1-.5-4.1-1.7-.9,1.3-2.4,2.1-4,2.1h-.3c-1.4,0-2.8-.9-3.6-2.1-1,.9-3.4.6-7.8-.8-.1,0-.2,0-.2,0-.9,0-1.9.1-2.8.3-1.8.4-3.6.8-5.4-.8-.7.8-1.8,1.2-3,1.2h0c-1.3,0-2.4-.5-3.1-1.4l-.6-3.4c0-.2.1-.5.2-.7.5-1.2,1.5-2,2.5-2.3.2-1.2,1-2.3,2.2-3,1-.6,2.1-.7,3.1-.5-.2-2.1.8-4.4,2.5-5.5,1.9-1.2,4.4-1.1,6.2,0C18.3,3.3,21.3.7,24.8.1c3.6-.6,7.4,1.1,9.5,4,2.1-.8,4.6-.2,6.3,1.3,1.5,1.4,2.2,3.5,1.9,5.5,1.1-.3,2.4-.2,3.6.5,1.3.7,2.2,1.9,2.4,3.2,1.4-.3,3-.2,4.1.4.9.5,1.6,1.2,1.9,2.1ZM50.8,21.5c1.7-.5,3.2-2.4,2.7-4.1-.2-.7-.7-1.2-1.4-1.5-1.1-.6-2.7-.6-4-.2-.2,0-.3,0-.5,0s-.2-.2-.2-.4c0-1.2-.7-2.3-1.9-3s-2.6-.7-3.5,0c-.2.1-.4.1-.6,0s-.2-.4-.2-.6c.7-1.9.1-4.1-1.4-5.5-1.5-1.3-3.8-1.7-5.6-.9-.2.1-.5,0-.6-.2-1.8-2.8-5.4-4.4-8.7-3.9-3.3.5-6.2,3.2-7,6.5,0,.2-.2.3-.3.4s-.4,0-.5,0c-1.5-1.3-3.9-1.5-5.6-.4-1.7,1.1-2.5,3.4-1.9,5.3,0,.2,0,.4-.1.5-.2.1-.4.2-.6,0-.9-.5-2.1-.4-3.1.2s-1.7,1.5-1.8,2.5c0,.2-.2.4-.4.5-.9.1-1.7.8-2.2,1.8-.4,1-.4,2,0,2.8.5.8,1.4,1.2,2.5,1.2h0c1.1,0,2-.5,2.5-1.2,0-.1.2-.2.4-.2.1,0,.3,0,.4.2,1.6,1.6,3.1,1.3,4.9.9,1-.2,2.1-.4,3.2-.3,0,0,.2,0,.4.1,5.5,1.7,6.6,1.2,6.9,1,0,0,.2-.2,0-.6,0-.3,0-.5.3-.6,0,0,.1,0,.1,0,.2,0,.4.1.5.4.4,1.5,1.8,2.6,3.4,2.7,1.5,0,3.1-.9,3.7-2.3,0-.2.2-.3.4-.3.2,0,.4.1.5.3.6,1.3,2.1,2.1,3.5,1.9,1.4-.2,2.7-1.3,3.1-2.6,0-.2.2-.3.3-.4,2.1-.7,4.4-.2,6.4.2,1.8.4,4,.8,5.9.2Z"/>
    <path class="cls-1" d="M53.4,17.5c.6,1.7-1,3.5-2.7,4.1-1.9.6-4.1.2-5.9-.2-2-.4-4.2-.9-6.4-.2-.2,0-.3.2-.3.4-.4,1.4-1.6,2.5-3.1,2.6-1.4.1-2.9-.7-3.5-1.9,0-.2-.3-.3-.5-.3-.2,0-.4.1-.4.3-.6,1.4-2.1,2.4-3.7,2.3-1.5,0-2.9-1.2-3.4-2.7,0-.2-.3-.4-.5-.4s0,0-.1,0c-.3,0-.4.4-.3.6.1.4,0,.5,0,.6-.2.2-1.4.8-6.9-1-.2,0-.4-.1-.4-.1-1.1-.1-2.2.1-3.2.3-1.8.4-3.3.7-4.9-.9-.1-.1-.3-.2-.4-.2-.2,0-.3.1-.4.2-.5.8-1.4,1.2-2.5,1.2h0c-1.1,0-2-.5-2.5-1.2-.5-.8-.5-1.8,0-2.8.4-1,1.2-1.6,2.2-1.8.2,0,.4-.2.4-.5,0-1,.7-2,1.8-2.5s2.2-.6,3.1-.2c.2.1.4,0,.6,0,.1-.1.2-.3.1-.5-.6-1.9.2-4.2,1.9-5.3,1.7-1.1,4.1-.9,5.6.4.1.1.3.1.5,0s.3-.2.3-.4c.8-3.3,3.7-5.9,7-6.5,3.3-.6,6.9,1,8.7,3.9.1.2.4.3.6.2,1.8-.8,4.1-.4,5.6.9,1.5,1.4,2,3.6,1.4,5.5,0,.2,0,.4.2.6s.4.1.6,0c1-.6,2.3-.6,3.5,0s1.9,1.8,1.9,3c0,.2,0,.3.2.4s.3.1.5,0c1.3-.4,2.9-.4,4,.2.7.4,1.2.9,1.4,1.5Z"/>
  </g>
</svg>