<?xml version="1.0" encoding="UTF-8"?>
<svg id="_레이어_1" data-name="레이어 1" xmlns="http://www.w3.org/2000/svg" version="1.1" viewBox="0 0 82.4 32">
  <defs>
    <style>
      .cls-1 {
        fill: #00b2ff;
      }

      .cls-1, .cls-2 {
        stroke-width: 0px;
      }

      .cls-2 {
        fill: #281904;
      }

      .cls-3 {
        fill: none;
        stroke: #281904;
        stroke-miterlimit: 10;
      }
    </style>
  </defs>
  <path class="cls-3" d="M.8,27.8s1,2.5,3.5,2.5"/>
  <g>
    <path class="cls-2" d="M82,23.9c.4.8.5,1.7.2,2.5-.6,1.6-2.4,2.3-4.2,2.8-2.3.6-5,1.2-7.6,1-.5,0-1-.1-1.6-.2-1-.2-1.9-.3-2.8-.2-1.2.1-2.2.5-3.4,1-.7.3-1.5.6-2.2.8-2,.5-4.4.2-5.5-1.4-1.5,1.2-3.4,1.8-5.5,1.8s-.5,0-.8,0c-2.3-.2-4.5-1.2-5.9-2.8-1.3,1.5-3.3,2.3-5.4,2.3h0c-2.2,0-4.3-.9-5.6-2.4-1.8.6-3.8.3-5.3-.8-1.1,1.5-3,2.4-4.9,2.3-1.9-.1-3.6-1.2-4.6-2.8-3,2.4-6.8,3.7-10.6,3.7h0c-.8,0-1.6-.1-2.3-.3,0-.4-.3-.9-.6-1.3.9.4,1.9.5,2.9.6h0c3.8,0,7.6-1.4,10.4-3.9.1,0,.3-.1.4-.1.2,0,.3.1.4.3.7,1.6,2.3,2.7,4,2.8s3.4-.8,4.3-2.3c0-.1.2-.2.4-.2.1,0,.3,0,.4.1,1.3,1.2,3.4,1.6,5,.9.2-.1.5,0,.6.2,1.1,1.5,2.9,2.3,5,2.3h0c2.1,0,4-.9,5-2.4,0-.1.2-.2.4-.2h0c.2,0,.3,0,.4.2,1.2,1.6,3.3,2.7,5.6,2.9s4.5-.5,5.9-2c.1-.1.3-.2.5-.1s.3.2.4.3c.6,1.5,2.8,1.9,4.6,1.4.7-.2,1.4-.5,2.1-.8,1.2-.5,2.4-1,3.7-1.1,1,0,2.1,0,3,.2.5,0,1,.2,1.5.2,2.4.2,4.9-.4,7.2-1,1.5-.4,3-.9,3.5-2.1.2-.7,0-1.3-.2-1.7-.4-.8-1.2-1.5-2.1-1.7-1.7-.4-3.5.1-5,.6-.2,0-.5,0-.6-.3-.4-1-1.4-1.8-2.6-2-1.3-.2-2.5,0-3.2.9-.1.1-.3.2-.5.1-.2,0-.3-.2-.4-.3-.4-.9-1.2-1.6-2.3-1.9-1.1-.3-2.1,0-2.9.6-.1.1-.4.2-.5,0-.2,0-.3-.3-.3-.5,0-1.2-.6-2.3-1.6-3.2-1-.8-2.2-1.2-3.4-1-.2,0-.4,0-.5-.2-.1-.2-.1-.4,0-.6.9-1.3.9-3.2,0-4.5-.9-1.3-2.8-1.8-4.3-1.3-.2,0-.4,0-.5-.1-.1-.2-.2-.4,0-.6.7-1.4.2-3.4-1-4.8-1.1-1.2-2.7-2-4.8-2.4C38,0,30.8,3.9,28.3,10.1c0,.2-.3.3-.5.3s-.1,0-.2,0c0,0-.2,0-.2-.2-.6,0-2.5,0-2.8.2-.8.3-1.2.8-1.6,1.4-.3.4-.6.8-1,1.1-.5.4-1,.8-1.5,1.1-1.5,1-2.8,1.8-2.7,3.8,0,.2-.1.4-.3.5-.2,0-.4,0-.5,0-1.5-1.3-3.9-1.3-5.4-.1s-2,3.6-1.2,5.3c0,.2,0,.4,0,.5-.1.2-.3.2-.5.2-1.7-.4-3.7-.9-5.6-.5-1.6.4-3.3,1.8-3.2,3.5,0,.7.4,1.3.8,1.8-.5-.2-1-.3-1.5-.5-.2-.4-.3-.8-.3-1.2-.2-2.3,1.9-4.1,4-4.6,1.7-.4,3.5,0,5.1.3-.5-2,.1-4.3,1.8-5.6,1.6-1.3,4.1-1.4,5.9-.4.3-1.9,1.8-2.9,3.1-3.8.5-.3,1-.7,1.4-1,.4-.3.6-.6.9-1,.5-.6,1-1.3,2.1-1.7,0,0,2.2-.4,3.3-.2C30.4,2.9,37.9-1.1,44.7.3c2.3.4,4.1,1.4,5.3,2.7,1.3,1.4,1.8,3.3,1.5,5,1.7-.2,3.5.5,4.5,1.9,1,1.4,1.2,3.3.5,4.8,1.1,0,2.3.5,3.2,1.3,1,.8,1.6,1.9,1.9,3.1.9-.4,2-.5,3-.3,1.1.3,2.1,1,2.7,1.9,1-.7,2.3-1,3.6-.7,1.4.3,2.6,1.1,3.2,2.2,1.5-.5,3.4-.9,5.2-.5,1.1.3,2.2,1.1,2.8,2.2Z"/>
    <path class="cls-1" d="M81.1,24.4c.2.4.4,1,.2,1.7-.5,1.2-2,1.7-3.5,2.1-2.4.6-4.8,1.2-7.2,1-.5,0-1-.1-1.5-.2-1-.2-2-.3-3-.2-1.3.1-2.5.6-3.7,1.1-.7.3-1.4.6-2.1.8-1.8.5-4,.1-4.6-1.4,0-.2-.2-.3-.4-.3s-.3,0-.5.1c-1.5,1.4-3.7,2.1-5.9,2s-4.3-1.2-5.6-2.9c-.1-.1-.2-.2-.4-.2h0c-.2,0-.3,0-.4.2-1.1,1.5-2.9,2.4-5,2.4h0c-2.1,0-3.9-.9-5-2.3-.1-.2-.4-.3-.6-.2-1.6.8-3.7.4-5-.9-.1,0-.3-.1-.4-.1-.1,0-.3.1-.4.2-.9,1.5-2.6,2.4-4.3,2.3s-3.3-1.2-4-2.8c0-.2-.2-.2-.4-.3-.2,0-.3,0-.4.1-2.8,2.5-6.6,3.9-10.4,3.9h0c-1,0-2-.2-2.9-.6,0,0-.1-.1-.1-.2-.4-.3-.9-.6-1.5-.9-.5-.5-.8-1.1-.8-1.8-.1-1.7,1.6-3.2,3.2-3.5,1.8-.4,3.8,0,5.6.5.2,0,.4,0,.5-.2.1-.2.1-.4,0-.5-.9-1.7-.4-4.1,1.2-5.3s3.9-1.2,5.4.1c.2.1.4.1.5,0,.2,0,.3-.3.3-.5-.1-2,1.2-2.8,2.7-3.8.5-.3,1.1-.7,1.5-1.1.4-.4.7-.8,1-1.1.4-.6.8-1.1,1.6-1.4.3,0,2.2-.3,2.8-.2,0,0,.1.1.2.2,0,0,.1,0,.2,0,.2,0,.4-.1.5-.3C30.8,3.9,38,0,44.5,1.2c2.1.4,3.7,1.2,4.8,2.4,1.2,1.4,1.7,3.4,1,4.8,0,.2,0,.4,0,.6.1.1.3.2.5.1,1.5-.5,3.3,0,4.3,1.3.9,1.3.9,3.2,0,4.5-.1.2-.1.4,0,.6.1.2.3.3.5.2,1.2-.2,2.4.2,3.4,1,1,.9,1.6,2,1.6,3.2s.1.4.3.5c.2,0,.4,0,.5,0,.7-.6,1.8-.8,2.9-.6,1.1.3,1.9,1,2.3,1.9,0,.2.2.3.4.3.2,0,.3,0,.5-.1.8-.8,2-1.1,3.2-.9,1.3.3,2.2,1,2.6,2,0,.2.4.4.6.3,1.5-.5,3.4-1,5-.6.9.2,1.7.9,2.1,1.7Z"/>
  </g>
</svg>