<svg width="465" height="643" viewBox="0 0 465 643" fill="none" xmlns="http://www.w3.org/2000/svg">
<rect width="465" height="603" rx="15" fill="#ECF7FC"/>
<path d="M0 474H465V628C465 636.284 458.284 643 450 643H15C6.71574 643 0 636.284 0 628V474Z" fill="#00B2FF"/>
<rect x="164" y="71" width="137" height="32" rx="16" fill="#85DAFF"/>
<path d="M69.4199 548.73C69.4199 548.898 69.3359 548.982 69.1679 548.982H68.3579C68.1899 548.982 68.1059 548.898 68.1059 548.73V542.664H61.2839V548.73C61.2839 548.898 61.1999 548.982 61.0319 548.982H60.2219C60.0539 548.982 59.9699 548.898 59.9699 548.73V535.878C59.9699 535.71 60.0539 535.626 60.2219 535.626H61.0319C61.1999 535.626 61.2839 535.71 61.2839 535.878V541.53H68.1059V535.878C68.1059 535.71 68.1899 535.626 68.3579 535.626H69.1679C69.3359 535.626 69.4199 535.71 69.4199 535.878V548.73ZM76.126 536.778V548.73C76.126 548.898 76.042 548.982 75.874 548.982H75.046C74.878 548.982 74.794 548.898 74.794 548.73V536.778H71.086C70.918 536.778 70.834 536.694 70.834 536.526V535.914C70.834 535.746 70.918 535.662 71.086 535.662H79.87C80.038 535.662 80.122 535.746 80.122 535.914V536.526C80.122 536.694 80.038 536.778 79.87 536.778H76.126ZM95.0966 548.73C95.0966 548.898 95.0126 548.982 94.8446 548.982H94.0346C93.8666 548.982 93.7826 548.898 93.7826 548.73V536.796C92.8946 539.004 92.0966 540.978 91.3886 542.718C91.0886 543.462 90.7946 544.194 90.5066 544.914C90.2186 545.622 89.9606 546.258 89.7326 546.822C89.5046 547.374 89.3186 547.824 89.1746 548.172C89.0306 548.52 88.9586 548.7 88.9586 548.712C88.8986 548.832 88.8086 548.892 88.6886 548.892H87.8786C87.7946 548.892 87.7346 548.88 87.6986 548.856C87.6626 548.82 87.6326 548.772 87.6086 548.712L82.6406 536.796V548.73C82.6406 548.898 82.5566 548.982 82.3886 548.982H81.5786C81.4106 548.982 81.3266 548.898 81.3266 548.73V536.13C81.3266 535.878 81.3446 535.734 81.3806 535.698C81.4286 535.65 81.5786 535.626 81.8306 535.626H83.1806C83.2766 535.626 83.3426 535.638 83.3786 535.662C83.4266 535.686 83.4686 535.746 83.5046 535.842L88.2926 547.488L92.9366 535.824C92.9846 535.692 93.0806 535.626 93.2246 535.626H94.5926C94.8446 535.626 94.9886 535.65 95.0246 535.698C95.0726 535.734 95.0966 535.878 95.0966 536.13V548.73ZM104.47 547.848C104.638 547.848 104.722 547.932 104.722 548.1V548.73C104.722 548.898 104.638 548.982 104.47 548.982H98.6381C98.4701 548.982 98.3381 548.982 98.2421 548.982C98.1581 548.97 98.0921 548.946 98.0441 548.91C98.0081 548.862 97.9841 548.79 97.9721 548.694C97.9721 548.598 97.9721 548.466 97.9721 548.298V535.914C97.9721 535.746 98.0561 535.662 98.2241 535.662H99.0521C99.2201 535.662 99.3041 535.746 99.3041 535.914V547.848H104.47ZM112.721 540.126C112.157 540.126 111.551 540.084 110.903 540C110.255 539.916 109.655 539.76 109.103 539.532C108.551 539.292 108.095 538.974 107.735 538.578C107.375 538.182 107.195 537.666 107.195 537.03C107.195 536.406 107.375 535.896 107.735 535.5C108.095 535.104 108.551 534.792 109.103 534.564C109.655 534.336 110.255 534.18 110.903 534.096C111.551 534 112.157 533.952 112.721 533.952C113.309 533.952 113.927 533.994 114.575 534.078C115.223 534.162 115.817 534.318 116.357 534.546C116.909 534.774 117.359 535.092 117.707 535.5C118.067 535.896 118.247 536.406 118.247 537.03C118.247 537.666 118.067 538.182 117.707 538.578C117.347 538.974 116.891 539.292 116.339 539.532C115.799 539.76 115.205 539.916 114.557 540C113.909 540.084 113.297 540.126 112.721 540.126ZM112.721 535.05C112.337 535.05 111.899 535.074 111.407 535.122C110.927 535.17 110.471 535.266 110.039 535.41C109.607 535.554 109.241 535.758 108.941 536.022C108.653 536.286 108.509 536.628 108.509 537.048C108.509 537.468 108.653 537.81 108.941 538.074C109.241 538.326 109.607 538.524 110.039 538.668C110.471 538.812 110.927 538.908 111.407 538.956C111.899 539.004 112.337 539.028 112.721 539.028C113.105 539.028 113.537 539.004 114.017 538.956C114.509 538.908 114.971 538.812 115.403 538.668C115.835 538.524 116.195 538.326 116.483 538.074C116.783 537.81 116.933 537.468 116.933 537.048C116.933 536.628 116.783 536.286 116.483 536.022C116.183 535.758 115.817 535.554 115.385 535.41C114.953 535.266 114.491 535.17 113.999 535.122C113.519 535.074 113.093 535.05 112.721 535.05ZM120.389 541.224C120.449 541.224 120.509 541.248 120.569 541.296C120.629 541.332 120.659 541.386 120.659 541.458V542.07C120.659 542.13 120.629 542.184 120.569 542.232C120.509 542.28 120.449 542.304 120.389 542.304H105.089C105.017 542.304 104.951 542.28 104.891 542.232C104.843 542.184 104.819 542.13 104.819 542.07V541.458C104.819 541.386 104.843 541.332 104.891 541.296C104.951 541.248 105.017 541.224 105.089 541.224H120.389ZM118.499 550.404C118.499 550.464 118.469 550.512 118.409 550.548C118.361 550.596 118.313 550.62 118.265 550.62H108.689C108.125 550.62 107.753 550.512 107.573 550.296C107.405 550.092 107.321 549.738 107.321 549.234V547.938C107.321 547.434 107.423 547.098 107.627 546.93C107.843 546.75 108.221 546.66 108.761 546.66H116.501C116.669 546.66 116.777 546.636 116.825 546.588C116.873 546.54 116.897 546.426 116.897 546.246V545.238C116.897 545.058 116.873 544.944 116.825 544.896C116.789 544.848 116.687 544.824 116.519 544.824H107.537C107.477 544.824 107.417 544.806 107.357 544.77C107.309 544.734 107.285 544.686 107.285 544.626V543.996C107.285 543.936 107.309 543.888 107.357 543.852C107.417 543.816 107.477 543.798 107.537 543.798H116.699C116.987 543.798 117.221 543.822 117.401 543.87C117.581 543.906 117.725 543.972 117.833 544.068C117.941 544.164 118.013 544.302 118.049 544.482C118.097 544.65 118.121 544.86 118.121 545.112V546.408C118.121 546.912 118.013 547.254 117.797 547.434C117.593 547.602 117.221 547.686 116.681 547.686H108.923C108.755 547.686 108.647 547.71 108.599 547.758C108.563 547.806 108.545 547.92 108.545 548.1V549.162C108.545 549.33 108.569 549.438 108.617 549.486C108.665 549.546 108.773 549.576 108.941 549.576H118.247C118.307 549.576 118.361 549.594 118.409 549.63C118.469 549.666 118.499 549.714 118.499 549.774V550.404ZM131.237 535.302C131.237 536.094 131.201 536.856 131.129 537.588C131.069 538.308 130.967 539.004 130.823 539.676C130.943 540.156 131.129 540.666 131.381 541.206C131.633 541.734 131.927 542.262 132.263 542.79C132.611 543.318 132.995 543.834 133.415 544.338C133.847 544.83 134.303 545.274 134.783 545.67C134.843 545.718 134.873 545.778 134.873 545.85C134.885 545.922 134.873 545.982 134.837 546.03L134.387 546.588C134.279 546.72 134.153 546.72 134.009 546.588C133.673 546.3 133.325 545.958 132.965 545.562C132.617 545.154 132.275 544.728 131.939 544.284C131.615 543.84 131.309 543.384 131.021 542.916C130.733 542.448 130.487 541.998 130.283 541.566C129.899 542.658 129.395 543.666 128.771 544.59C128.147 545.502 127.403 546.354 126.539 547.146C126.419 547.242 126.317 547.248 126.233 547.164L125.693 546.606C125.657 546.57 125.639 546.522 125.639 546.462C125.651 546.402 125.687 546.342 125.747 546.282C126.479 545.586 127.115 544.854 127.655 544.086C128.195 543.318 128.633 542.49 128.969 541.602C129.317 540.714 129.569 539.748 129.725 538.704C129.893 537.66 129.977 536.514 129.977 535.266C129.977 535.182 129.995 535.122 130.031 535.086C130.079 535.038 130.133 535.014 130.193 535.014L131.039 535.05C131.171 535.05 131.237 535.134 131.237 535.302ZM138.671 550.476C138.671 550.644 138.587 550.728 138.419 550.728H137.681C137.513 550.728 137.429 550.644 137.429 550.476V534.384C137.429 534.216 137.513 534.132 137.681 534.132H138.419C138.587 534.132 138.671 534.216 138.671 534.384V540.936H141.155C141.227 540.936 141.287 540.96 141.335 541.008C141.395 541.044 141.425 541.098 141.425 541.17V541.782C141.425 541.842 141.395 541.896 141.335 541.944C141.287 541.992 141.227 542.016 141.155 542.016H138.671V550.476ZM157.129 542.646C157.189 542.646 157.249 542.67 157.309 542.718C157.369 542.754 157.399 542.808 157.399 542.88V543.492C157.399 543.552 157.369 543.606 157.309 543.654C157.249 543.702 157.189 543.726 157.129 543.726H141.829C141.757 543.726 141.691 543.702 141.631 543.654C141.583 543.606 141.559 543.552 141.559 543.492V542.88C141.559 542.808 141.583 542.754 141.631 542.718C141.691 542.67 141.757 542.646 141.829 542.646H145.915V539.748C145.339 539.508 144.853 539.19 144.457 538.794C144.073 538.398 143.881 537.894 143.881 537.282C143.881 536.694 144.067 536.202 144.439 535.806C144.823 535.41 145.291 535.098 145.843 534.87C146.407 534.642 147.013 534.48 147.661 534.384C148.321 534.288 148.927 534.24 149.479 534.24C150.043 534.24 150.649 534.294 151.297 534.402C151.957 534.51 152.563 534.684 153.115 534.924C153.679 535.164 154.147 535.482 154.519 535.878C154.891 536.262 155.077 536.73 155.077 537.282C155.077 537.87 154.879 538.362 154.483 538.758C154.099 539.154 153.613 539.472 153.025 539.712V542.646H157.129ZM155.059 547.902C155.059 548.514 154.867 549.012 154.483 549.396C154.099 549.78 153.625 550.08 153.061 550.296C152.497 550.512 151.885 550.656 151.225 550.728C150.577 550.812 149.983 550.854 149.443 550.854C149.083 550.854 148.693 550.836 148.273 550.8C147.865 550.764 147.451 550.704 147.031 550.62C146.623 550.548 146.227 550.44 145.843 550.296C145.459 550.152 145.117 549.966 144.817 549.738C144.529 549.522 144.295 549.264 144.115 548.964C143.935 548.664 143.845 548.31 143.845 547.902C143.845 547.302 144.037 546.816 144.421 546.444C144.805 546.06 145.279 545.76 145.843 545.544C146.407 545.328 147.013 545.178 147.661 545.094C148.321 545.01 148.915 544.968 149.443 544.968C149.983 544.968 150.577 545.01 151.225 545.094C151.885 545.166 152.497 545.31 153.061 545.526C153.637 545.742 154.111 546.042 154.483 546.426C154.867 546.81 155.059 547.302 155.059 547.902ZM149.479 535.374C149.095 535.374 148.657 535.398 148.165 535.446C147.673 535.494 147.205 535.59 146.761 535.734C146.329 535.878 145.957 536.076 145.645 536.328C145.345 536.58 145.195 536.904 145.195 537.3C145.195 537.696 145.345 538.02 145.645 538.272C145.957 538.524 146.329 538.722 146.761 538.866C147.205 539.01 147.673 539.106 148.165 539.154C148.657 539.202 149.095 539.226 149.479 539.226C149.851 539.226 150.283 539.202 150.775 539.154C151.267 539.106 151.735 539.01 152.179 538.866C152.623 538.722 152.995 538.524 153.295 538.272C153.607 538.02 153.763 537.696 153.763 537.3C153.763 536.904 153.607 536.58 153.295 536.328C152.995 536.076 152.623 535.878 152.179 535.734C151.735 535.59 151.267 535.494 150.775 535.446C150.283 535.398 149.851 535.374 149.479 535.374ZM153.745 547.92C153.745 547.524 153.583 547.212 153.259 546.984C152.935 546.744 152.545 546.558 152.089 546.426C151.633 546.294 151.159 546.21 150.667 546.174C150.187 546.126 149.779 546.102 149.443 546.102C149.095 546.102 148.675 546.126 148.183 546.174C147.703 546.21 147.235 546.294 146.779 546.426C146.335 546.558 145.951 546.744 145.627 546.984C145.315 547.212 145.159 547.524 145.159 547.92C145.159 548.304 145.315 548.616 145.627 548.856C145.951 549.096 146.335 549.276 146.779 549.396C147.235 549.528 147.703 549.612 148.183 549.648C148.675 549.696 149.095 549.72 149.443 549.72C149.779 549.72 150.193 549.696 150.685 549.648C151.177 549.612 151.645 549.528 152.089 549.396C152.545 549.276 152.935 549.096 153.259 548.856C153.583 548.616 153.745 548.304 153.745 547.92ZM149.479 540.342C149.131 540.342 148.753 540.33 148.345 540.306C147.949 540.27 147.553 540.204 147.157 540.108V542.646H151.783V540.09C151.387 540.186 150.991 540.252 150.595 540.288C150.199 540.324 149.827 540.342 149.479 540.342ZM167.199 543.87C167.199 544.362 167.097 544.818 166.893 545.238C166.701 545.658 166.431 546.03 166.083 546.354C165.735 546.666 165.321 546.912 164.841 547.092C164.361 547.272 163.845 547.362 163.293 547.362C162.729 547.362 162.207 547.272 161.727 547.092C161.259 546.912 160.851 546.666 160.503 546.354C160.155 546.042 159.879 545.676 159.675 545.256C159.483 544.824 159.387 544.362 159.387 543.87C159.387 543.366 159.483 542.904 159.675 542.484C159.879 542.052 160.155 541.68 160.503 541.368C160.851 541.056 161.259 540.81 161.727 540.63C162.207 540.45 162.729 540.36 163.293 540.36C163.845 540.36 164.361 540.456 164.841 540.648C165.321 540.828 165.735 541.074 166.083 541.386C166.431 541.698 166.701 542.07 166.893 542.502C167.097 542.934 167.199 543.39 167.199 543.87ZM171.087 550.476C171.087 550.644 171.003 550.728 170.835 550.728H170.097C169.929 550.728 169.845 550.644 169.845 550.476V534.384C169.845 534.216 169.929 534.132 170.097 534.132H170.835C171.003 534.132 171.087 534.216 171.087 534.384V541.026H173.571C173.643 541.026 173.703 541.05 173.751 541.098C173.811 541.134 173.841 541.188 173.841 541.26V541.872C173.841 541.932 173.811 541.986 173.751 542.034C173.703 542.082 173.643 542.106 173.571 542.106H171.087V550.476ZM165.975 543.87C165.975 543.522 165.909 543.198 165.777 542.898C165.645 542.598 165.459 542.34 165.219 542.124C164.979 541.896 164.691 541.722 164.355 541.602C164.031 541.47 163.677 541.404 163.293 541.404C162.909 541.404 162.549 541.47 162.213 541.602C161.889 541.722 161.607 541.896 161.367 542.124C161.127 542.34 160.935 542.598 160.791 542.898C160.659 543.198 160.593 543.522 160.593 543.87C160.593 544.218 160.659 544.542 160.791 544.842C160.935 545.13 161.127 545.388 161.367 545.616C161.607 545.832 161.889 546.006 162.213 546.138C162.549 546.258 162.909 546.318 163.293 546.318C163.677 546.318 164.031 546.258 164.355 546.138C164.691 546.006 164.979 545.832 165.219 545.616C165.459 545.4 165.645 545.142 165.777 544.842C165.909 544.542 165.975 544.218 165.975 543.87ZM168.549 538.848C168.549 539.004 168.459 539.082 168.279 539.082H158.343C158.283 539.082 158.223 539.058 158.163 539.01C158.115 538.962 158.091 538.902 158.091 538.83V538.254C158.091 538.182 158.115 538.122 158.163 538.074C158.223 538.026 158.283 538.002 158.343 538.002H168.279C168.459 538.002 168.549 538.08 168.549 538.236V538.848ZM165.921 535.788C165.921 535.956 165.831 536.04 165.651 536.04H160.719C160.659 536.04 160.599 536.022 160.539 535.986C160.491 535.938 160.467 535.878 160.467 535.806V535.194C160.467 535.122 160.491 535.062 160.539 535.014C160.587 534.966 160.641 534.942 160.701 534.942H165.651C165.831 534.942 165.921 535.026 165.921 535.194V535.788ZM187.925 550.476C187.925 550.644 187.841 550.728 187.673 550.728H186.935C186.767 550.728 186.683 550.644 186.683 550.476V544.14H182.867C182.699 544.512 182.501 544.86 182.273 545.184C182.045 545.508 181.775 545.79 181.463 546.03C181.163 546.258 180.821 546.438 180.437 546.57C180.053 546.702 179.627 546.768 179.159 546.768C178.367 546.768 177.695 546.594 177.143 546.246C176.603 545.898 176.165 545.448 175.829 544.896C175.505 544.332 175.271 543.708 175.127 543.024C174.983 542.34 174.911 541.662 174.911 540.99C174.911 540.282 174.983 539.586 175.127 538.902C175.271 538.206 175.505 537.582 175.829 537.03C176.165 536.478 176.603 536.034 177.143 535.698C177.695 535.362 178.367 535.194 179.159 535.194C179.627 535.194 180.047 535.26 180.419 535.392C180.803 535.512 181.145 535.686 181.445 535.914C181.757 536.142 182.027 536.412 182.255 536.724C182.483 537.036 182.681 537.378 182.849 537.75H186.683V534.384C186.683 534.216 186.767 534.132 186.935 534.132H187.673C187.841 534.132 187.925 534.216 187.925 534.384V550.476ZM182.201 540.972C182.201 540.432 182.141 539.886 182.021 539.334C181.913 538.782 181.739 538.284 181.499 537.84C181.259 537.396 180.947 537.036 180.563 536.76C180.179 536.484 179.711 536.346 179.159 536.346C178.583 536.346 178.103 536.484 177.719 536.76C177.347 537.036 177.047 537.396 176.819 537.84C176.591 538.284 176.429 538.782 176.333 539.334C176.237 539.886 176.189 540.432 176.189 540.972C176.189 541.488 176.231 542.022 176.315 542.574C176.411 543.126 176.573 543.63 176.801 544.086C177.029 544.53 177.335 544.896 177.719 545.184C178.103 545.472 178.583 545.616 179.159 545.616C179.711 545.616 180.179 545.472 180.563 545.184C180.947 544.896 181.259 544.53 181.499 544.086C181.739 543.63 181.913 543.126 182.021 542.574C182.141 542.022 182.201 541.488 182.201 540.972ZM183.479 540.99C183.479 541.698 183.389 542.394 183.209 543.078H186.683V538.812H183.209C183.389 539.52 183.479 540.246 183.479 540.99ZM206.189 544.122C206.189 544.278 206.105 544.356 205.937 544.356H204.497C204.341 544.356 204.263 544.278 204.263 544.122V543.528H202.121C202.061 543.528 202.001 543.504 201.941 543.456C201.893 543.408 201.869 543.354 201.869 543.294V542.304C201.869 542.244 201.893 542.196 201.941 542.16C202.001 542.112 202.061 542.088 202.121 542.088H204.263V534.348C204.263 534.192 204.341 534.114 204.497 534.114H205.937C206.105 534.114 206.189 534.192 206.189 534.348V544.122ZM207.485 534.078C207.485 533.922 207.563 533.844 207.719 533.844H209.249C209.405 533.844 209.483 533.922 209.483 534.078V544.194C209.483 544.35 209.405 544.428 209.249 544.428H207.719C207.563 544.428 207.485 544.35 207.485 544.194V534.078ZM198.935 535.644C198.419 535.644 197.987 535.776 197.639 536.04C197.303 536.304 197.135 536.616 197.135 536.976C197.135 537.144 197.177 537.306 197.261 537.462C197.357 537.618 197.483 537.762 197.639 537.894C197.807 538.014 197.999 538.116 198.215 538.2C198.443 538.272 198.683 538.308 198.935 538.308C199.463 538.308 199.895 538.17 200.231 537.894C200.579 537.618 200.753 537.312 200.753 536.976C200.753 536.616 200.579 536.304 200.231 536.04C199.895 535.776 199.463 535.644 198.935 535.644ZM198.935 534.222C199.439 534.222 199.913 534.294 200.357 534.438C200.801 534.57 201.185 534.762 201.509 535.014C201.845 535.254 202.109 535.542 202.301 535.878C202.493 536.214 202.589 536.58 202.589 536.976C202.589 537.36 202.493 537.714 202.301 538.038C202.121 538.362 201.863 538.65 201.527 538.902C201.203 539.142 200.819 539.334 200.375 539.478C199.931 539.61 199.451 539.676 198.935 539.676C198.431 539.676 197.957 539.61 197.513 539.478C197.069 539.334 196.679 539.142 196.343 538.902C196.019 538.65 195.755 538.362 195.551 538.038C195.359 537.714 195.263 537.36 195.263 536.976C195.263 536.58 195.359 536.214 195.551 535.878C195.743 535.542 196.007 535.254 196.343 535.014C196.679 534.762 197.069 534.57 197.513 534.438C197.957 534.294 198.431 534.222 198.935 534.222ZM203.579 541.098C203.591 541.158 203.579 541.218 203.543 541.278C203.507 541.338 203.459 541.374 203.399 541.386C203.195 541.422 202.949 541.458 202.661 541.494C202.385 541.518 202.091 541.548 201.779 541.584C201.479 541.62 201.179 541.65 200.879 541.674C200.579 541.698 200.303 541.716 200.051 541.728V544.158C200.051 544.23 200.021 544.296 199.961 544.356C199.913 544.404 199.853 544.428 199.781 544.428H198.323C198.251 544.428 198.185 544.404 198.125 544.356C198.077 544.296 198.053 544.23 198.053 544.158V541.89C197.333 541.914 196.697 541.926 196.145 541.926C195.593 541.926 195.065 541.926 194.561 541.926C194.489 541.926 194.429 541.896 194.381 541.836C194.333 541.776 194.309 541.71 194.309 541.638V540.594C194.309 540.426 194.393 540.342 194.561 540.342C196.301 540.366 197.867 540.348 199.259 540.288C200.651 540.216 201.959 540.096 203.183 539.928C203.243 539.916 203.303 539.928 203.363 539.964C203.423 540 203.459 540.054 203.471 540.126L203.579 541.098ZM207.413 548.262H200.033V548.928C200.033 549.144 200.141 549.252 200.357 549.252H207.089C207.305 549.252 207.413 549.144 207.413 548.928V548.262ZM209.483 549.594C209.483 550.002 209.387 550.302 209.195 550.494C209.003 550.698 208.649 550.8 208.133 550.8H199.331C198.803 550.8 198.443 550.71 198.251 550.53C198.059 550.35 197.963 550.02 197.963 549.54V545.454C197.963 545.394 197.987 545.346 198.035 545.31C198.083 545.262 198.137 545.238 198.197 545.238H199.781C199.841 545.238 199.895 545.262 199.943 545.31C200.003 545.346 200.033 545.394 200.033 545.454V546.732H207.413V545.4C207.413 545.34 207.437 545.286 207.485 545.238C207.533 545.19 207.587 545.166 207.647 545.166H209.249C209.309 545.166 209.363 545.19 209.411 545.238C209.459 545.286 209.483 545.34 209.483 545.4V549.594ZM214.914 544.59C214.914 544.422 214.998 544.338 215.166 544.338H216.426V537.066H215.31C215.25 537.066 215.184 537.036 215.112 536.976C215.052 536.916 215.022 536.85 215.022 536.778V535.662C215.022 535.602 215.052 535.542 215.112 535.482C215.184 535.41 215.25 535.374 215.31 535.374H223.05C223.122 535.374 223.182 535.404 223.23 535.464C223.29 535.512 223.32 535.578 223.32 535.662V536.796C223.296 536.844 223.266 536.892 223.23 536.94C223.17 537.024 223.11 537.066 223.05 537.066H221.898V544.158C222.174 544.134 222.432 544.104 222.672 544.068C222.924 544.032 223.164 543.996 223.392 543.96C223.452 543.948 223.512 543.96 223.572 543.996C223.644 544.02 223.686 544.062 223.698 544.122L223.86 545.238C223.884 545.334 223.866 545.412 223.806 545.472C223.758 545.52 223.704 545.55 223.644 545.562C223.104 545.67 222.492 545.76 221.808 545.832C221.136 545.892 220.428 545.94 219.684 545.976C218.94 546.012 218.184 546.036 217.416 546.048C216.648 546.048 215.898 546.036 215.166 546.012C215.094 546.012 215.034 545.988 214.986 545.94C214.938 545.88 214.914 545.814 214.914 545.742V544.59ZM224.886 534.384C224.886 534.228 224.97 534.15 225.138 534.15H226.596C226.764 534.15 226.848 534.228 226.848 534.384V550.098C226.848 550.266 226.764 550.35 226.596 550.35H225.138C224.97 550.35 224.886 550.266 224.886 550.098V541.332H223.104C223.032 541.332 222.966 541.308 222.906 541.26C222.858 541.212 222.834 541.158 222.834 541.098V539.856C222.834 539.796 222.858 539.748 222.906 539.712C222.966 539.664 223.032 539.64 223.104 539.64H224.886V534.384ZM230.106 550.728C230.106 550.884 230.028 550.962 229.872 550.962H228.306C228.15 550.962 228.072 550.884 228.072 550.728V534.078C228.072 533.922 228.156 533.844 228.324 533.844H229.872C230.028 533.844 230.106 533.922 230.106 534.078V550.728ZM218.316 544.32C218.616 544.308 218.904 544.302 219.18 544.302C219.456 544.302 219.732 544.29 220.008 544.266V537.066H218.316V544.32ZM245.54 550.692C245.54 550.848 245.462 550.926 245.306 550.926H243.704C243.548 550.926 243.47 550.848 243.47 550.692V534.078C243.47 533.922 243.548 533.844 243.704 533.844H245.306C245.462 533.844 245.54 533.922 245.54 534.078V550.692ZM239.042 540.846C239.042 540.294 238.988 539.772 238.88 539.28C238.772 538.776 238.616 538.338 238.412 537.966C238.208 537.594 237.956 537.3 237.656 537.084C237.368 536.868 237.032 536.76 236.648 536.76C236.264 536.76 235.922 536.868 235.622 537.084C235.334 537.3 235.088 537.594 234.884 537.966C234.68 538.338 234.524 538.776 234.416 539.28C234.308 539.772 234.254 540.294 234.254 540.846C234.254 541.386 234.308 541.908 234.416 542.412C234.524 542.904 234.68 543.342 234.884 543.726C235.088 544.098 235.334 544.398 235.622 544.626C235.922 544.842 236.264 544.95 236.648 544.95C237.032 544.95 237.368 544.842 237.656 544.626C237.956 544.398 238.208 544.098 238.412 543.726C238.616 543.342 238.772 542.904 238.88 542.412C238.988 541.908 239.042 541.386 239.042 540.846ZM236.648 546.786C235.964 546.786 235.346 546.642 234.794 546.354C234.242 546.066 233.774 545.664 233.39 545.148C233.018 544.62 232.73 543.99 232.526 543.258C232.322 542.526 232.22 541.722 232.22 540.846C232.22 539.946 232.322 539.13 232.526 538.398C232.73 537.666 233.018 537.048 233.39 536.544C233.774 536.028 234.242 535.632 234.794 535.356C235.346 535.068 235.964 534.924 236.648 534.924C237.344 534.924 237.962 535.068 238.502 535.356C239.054 535.632 239.516 536.028 239.888 536.544C240.272 537.048 240.566 537.666 240.77 538.398C240.974 539.13 241.076 539.946 241.076 540.846C241.076 541.746 240.974 542.562 240.77 543.294C240.566 544.026 240.272 544.65 239.888 545.166C239.516 545.682 239.054 546.084 238.502 546.372C237.962 546.648 237.344 546.786 236.648 546.786ZM248.931 546.588C248.835 546.648 248.733 546.672 248.625 546.66C248.517 546.648 248.433 546.594 248.373 546.498L247.671 545.562C247.587 545.454 247.569 545.352 247.617 545.256C247.677 545.16 247.749 545.088 247.833 545.04C248.589 544.572 249.309 544.032 249.993 543.42C250.677 542.808 251.289 542.166 251.829 541.494C252.381 540.822 252.849 540.138 253.233 539.442C253.617 538.734 253.893 538.056 254.061 537.408C254.109 537.204 254.115 537.072 254.079 537.012C254.043 536.952 253.923 536.922 253.719 536.922H249.075C249.003 536.922 248.943 536.898 248.895 536.85C248.859 536.79 248.841 536.724 248.841 536.652V535.446C248.841 535.278 248.925 535.194 249.093 535.194H254.961C255.429 535.194 255.795 535.284 256.059 535.464C256.323 535.644 256.455 535.878 256.455 536.166C256.455 536.322 256.443 536.484 256.419 536.652C256.395 536.808 256.365 536.952 256.329 537.084C256.161 537.72 255.933 538.362 255.645 539.01C255.369 539.646 255.027 540.288 254.619 540.936C254.847 541.248 255.111 541.578 255.411 541.926C255.711 542.262 256.023 542.592 256.347 542.916C256.671 543.24 256.989 543.546 257.301 543.834C257.613 544.11 257.895 544.338 258.147 544.518C258.231 544.578 258.285 544.656 258.309 544.752C258.345 544.848 258.327 544.944 258.255 545.04L257.481 545.922C257.325 546.09 257.127 546.102 256.887 545.958C256.671 545.814 256.413 545.616 256.113 545.364C255.825 545.1 255.525 544.812 255.213 544.5C254.901 544.188 254.595 543.858 254.295 543.51C253.995 543.162 253.725 542.832 253.485 542.52C252.873 543.276 252.189 544.002 251.433 544.698C250.677 545.382 249.843 546.012 248.931 546.588ZM261.765 550.692C261.765 550.848 261.681 550.926 261.513 550.926H259.929C259.869 550.926 259.809 550.902 259.749 550.854C259.701 550.818 259.677 550.764 259.677 550.692V534.078C259.677 534.018 259.701 533.964 259.749 533.916C259.809 533.868 259.869 533.844 259.929 533.844H261.513C261.681 533.844 261.765 533.922 261.765 534.078V550.692ZM277.973 550.692C277.973 550.848 277.889 550.926 277.721 550.926H276.137C276.077 550.926 276.017 550.902 275.957 550.854C275.909 550.818 275.885 550.764 275.885 550.692V534.078C275.885 534.018 275.909 533.964 275.957 533.916C276.017 533.868 276.077 533.844 276.137 533.844H277.721C277.889 533.844 277.973 533.922 277.973 534.078V550.692ZM269.153 536.598C268.469 536.598 267.905 536.82 267.461 537.264C267.017 537.708 266.795 538.308 266.795 539.064C266.795 539.832 267.017 540.438 267.461 540.882C267.905 541.326 268.469 541.548 269.153 541.548C269.861 541.548 270.437 541.326 270.881 540.882C271.325 540.438 271.547 539.832 271.547 539.064C271.547 538.308 271.325 537.708 270.881 537.264C270.437 536.82 269.861 536.598 269.153 536.598ZM269.153 534.888C269.765 534.888 270.335 534.99 270.863 535.194C271.403 535.386 271.871 535.668 272.267 536.04C272.663 536.4 272.975 536.838 273.203 537.354C273.431 537.87 273.545 538.44 273.545 539.064C273.545 539.7 273.431 540.276 273.203 540.792C272.975 541.296 272.663 541.728 272.267 542.088C271.871 542.436 271.403 542.706 270.863 542.898C270.335 543.09 269.759 543.186 269.135 543.186C268.523 543.186 267.953 543.09 267.425 542.898C266.897 542.706 266.435 542.436 266.039 542.088C265.655 541.728 265.349 541.296 265.121 540.792C264.893 540.276 264.779 539.7 264.779 539.064C264.779 538.44 264.893 537.87 265.121 537.354C265.349 536.838 265.655 536.4 266.039 536.04C266.435 535.668 266.897 535.386 267.425 535.194C267.965 534.99 268.541 534.888 269.153 534.888ZM263.717 545.778C263.717 545.706 263.741 545.646 263.789 545.598C263.837 545.538 263.903 545.508 263.987 545.508C264.839 545.532 265.739 545.532 266.687 545.508C267.635 545.484 268.577 545.448 269.513 545.4C270.461 545.352 271.379 545.292 272.267 545.22C273.155 545.136 273.971 545.046 274.715 544.95C274.775 544.938 274.841 544.944 274.913 544.968C274.997 544.98 275.045 545.034 275.057 545.13L275.165 546.3C275.177 546.396 275.153 546.474 275.093 546.534C275.045 546.582 274.991 546.612 274.931 546.624C274.259 546.72 273.473 546.81 272.573 546.894C271.673 546.978 270.725 547.05 269.729 547.11C268.745 547.17 267.755 547.218 266.759 547.254C265.763 547.278 264.839 547.284 263.987 547.272C263.903 547.272 263.837 547.248 263.789 547.2C263.741 547.14 263.717 547.074 263.717 547.002V545.778ZM297.768 535.644C297.768 536.808 297.708 537.894 297.588 538.902C297.468 539.91 297.3 540.876 297.084 541.8H299.928C299.988 541.8 300.048 541.83 300.108 541.89C300.168 541.95 300.198 542.01 300.198 542.07V543.258C300.198 543.318 300.168 543.378 300.108 543.438C300.048 543.498 299.988 543.528 299.928 543.528H292.98V550.548C292.98 550.716 292.896 550.8 292.728 550.8H291.162C290.994 550.8 290.91 550.716 290.91 550.548V543.528H284.25C284.178 543.528 284.118 543.498 284.07 543.438C284.022 543.378 283.998 543.318 283.998 543.258V542.07C283.998 541.998 284.022 541.938 284.07 541.89C284.118 541.83 284.178 541.8 284.25 541.8H295.104C295.272 541.068 295.416 540.234 295.536 539.298C295.656 538.35 295.716 537.408 295.716 536.472C295.716 536.304 295.674 536.202 295.59 536.166C295.506 536.118 295.38 536.094 295.212 536.094H286.536C286.476 536.094 286.416 536.076 286.356 536.04C286.296 535.992 286.266 535.938 286.266 535.878V534.582C286.266 534.51 286.296 534.456 286.356 534.42C286.416 534.384 286.476 534.366 286.536 534.366H296.58C296.964 534.366 297.258 534.468 297.462 534.672C297.666 534.876 297.768 535.2 297.768 535.644ZM302.672 543.258C302.588 543.282 302.492 543.282 302.384 543.258C302.288 543.234 302.228 543.192 302.204 543.132L301.772 542.034C301.748 541.938 301.76 541.842 301.808 541.746C301.868 541.65 301.934 541.59 302.006 541.566C303.854 541.002 305.456 540.348 306.812 539.604C308.168 538.86 309.26 538.056 310.088 537.192C310.22 537.06 310.286 536.964 310.286 536.904C310.286 536.844 310.196 536.814 310.016 536.814H303.14C302.984 536.814 302.906 536.736 302.906 536.58V535.32C302.906 535.176 302.984 535.104 303.14 535.104H311.816C312.308 535.104 312.668 535.182 312.896 535.338C313.124 535.482 313.238 535.692 313.238 535.968C313.238 536.4 312.95 536.952 312.374 537.624C311.81 538.272 311.168 538.89 310.448 539.478C310.748 539.622 311.09 539.784 311.474 539.964C311.87 540.144 312.266 540.318 312.662 540.486C313.07 540.654 313.46 540.81 313.832 540.954C314.204 541.086 314.528 541.194 314.804 541.278C314.996 541.338 315.05 541.464 314.966 541.656L314.48 542.826C314.456 542.898 314.396 542.946 314.3 542.97C314.204 542.994 314.108 542.994 314.012 542.97C313.652 542.85 313.256 542.706 312.824 542.538C312.404 542.37 311.966 542.184 311.51 541.98C311.054 541.776 310.592 541.56 310.124 541.332C309.668 541.104 309.224 540.87 308.792 540.63C307.88 541.194 306.902 541.698 305.858 542.142C304.826 542.586 303.764 542.958 302.672 543.258ZM316.406 547.74C316.406 547.8 316.376 547.86 316.316 547.92C316.256 547.98 316.196 548.01 316.136 548.01H300.458C300.386 548.01 300.326 547.986 300.278 547.938C300.23 547.878 300.206 547.812 300.206 547.74V546.534C300.206 546.366 300.29 546.282 300.458 546.282H307.244V542.916C307.244 542.748 307.328 542.664 307.496 542.664H309.062C309.134 542.664 309.194 542.688 309.242 542.736C309.302 542.784 309.332 542.844 309.332 542.916V546.282H316.136C316.196 546.282 316.256 546.312 316.316 546.372C316.376 546.42 316.406 546.474 316.406 546.534V547.74ZM330.381 550.53C330.381 550.59 330.351 550.644 330.291 550.692C330.243 550.752 330.195 550.782 330.147 550.782H320.229C319.761 550.782 319.443 550.698 319.275 550.53C319.107 550.362 319.023 550.086 319.023 549.702V547.776C319.023 547.392 319.101 547.116 319.257 546.948C319.425 546.78 319.743 546.696 320.211 546.696H327.771C327.867 546.696 327.927 546.69 327.951 546.678C327.975 546.654 327.987 546.588 327.987 546.48V545.976C327.987 545.844 327.975 545.766 327.951 545.742C327.927 545.718 327.861 545.706 327.753 545.706H319.239C319.179 545.706 319.119 545.688 319.059 545.652C319.011 545.604 318.987 545.55 318.987 545.49V544.338C318.987 544.278 319.011 544.224 319.059 544.176C319.119 544.128 319.179 544.104 319.239 544.104H328.779C329.271 544.104 329.595 544.182 329.751 544.338C329.919 544.482 330.003 544.758 330.003 545.166V547.11C330.003 547.53 329.919 547.812 329.751 547.956C329.595 548.1 329.271 548.172 328.779 548.172H321.273C321.177 548.172 321.117 548.19 321.093 548.226C321.069 548.25 321.057 548.316 321.057 548.424V548.964C321.057 549.084 321.069 549.15 321.093 549.162C321.117 549.186 321.189 549.198 321.309 549.198H330.129C330.189 549.198 330.243 549.216 330.291 549.252C330.351 549.3 330.381 549.36 330.381 549.432V550.53ZM330.273 540.126C330.273 540.186 330.243 540.246 330.183 540.306C330.135 540.354 330.087 540.378 330.039 540.378H320.283C319.815 540.378 319.497 540.294 319.329 540.126C319.161 539.958 319.077 539.682 319.077 539.298V537.444C319.077 537.06 319.155 536.784 319.311 536.616C319.479 536.448 319.797 536.364 320.265 536.364H327.753C327.849 536.364 327.909 536.352 327.933 536.328C327.957 536.292 327.969 536.214 327.969 536.094V535.554C327.969 535.446 327.957 535.386 327.933 535.374C327.909 535.35 327.843 535.338 327.735 535.338H319.401C319.341 535.338 319.281 535.32 319.221 535.284C319.173 535.236 319.149 535.182 319.149 535.122V533.988C319.149 533.928 319.173 533.874 319.221 533.826C319.281 533.778 319.341 533.754 319.401 533.754H328.761C329.253 533.754 329.577 533.832 329.733 533.988C329.901 534.132 329.985 534.408 329.985 534.816V536.778C329.985 537.198 329.901 537.48 329.733 537.624C329.577 537.768 329.253 537.84 328.761 537.84H321.345C321.237 537.84 321.171 537.858 321.147 537.894C321.123 537.918 321.111 537.978 321.111 538.074V538.56C321.111 538.668 321.123 538.734 321.147 538.758C321.171 538.77 321.243 538.776 321.363 538.776H330.021C330.081 538.776 330.135 538.8 330.183 538.848C330.243 538.884 330.273 538.938 330.273 539.01V540.126ZM332.595 542.79C332.595 542.85 332.565 542.91 332.505 542.97C332.445 543.03 332.385 543.06 332.325 543.06H316.665C316.593 543.06 316.533 543.036 316.485 542.988C316.437 542.928 316.413 542.862 316.413 542.79V541.692C316.413 541.524 316.497 541.44 316.665 541.44H332.325C332.385 541.44 332.445 541.47 332.505 541.53C332.565 541.578 332.595 541.632 332.595 541.692V542.79ZM351.904 550.638C351.904 550.698 351.874 550.752 351.814 550.8C351.766 550.86 351.718 550.89 351.67 550.89H341.95C341.482 550.89 341.164 550.8 340.996 550.62C340.828 550.44 340.744 550.158 340.744 549.774V547.614C340.744 547.23 340.822 546.954 340.978 546.786C341.146 546.618 341.464 546.534 341.932 546.534H349.204C349.3 546.534 349.36 546.516 349.384 546.48C349.408 546.444 349.42 546.372 349.42 546.264V545.652C349.42 545.52 349.402 545.442 349.366 545.418C349.33 545.382 349.258 545.364 349.15 545.364H340.96C340.9 545.364 340.84 545.346 340.78 545.31C340.732 545.262 340.708 545.208 340.708 545.148V543.96C340.708 543.9 340.732 543.846 340.78 543.798C340.84 543.738 340.9 543.708 340.96 543.708H350.212C350.704 543.708 351.028 543.792 351.184 543.96C351.352 544.128 351.436 544.416 351.436 544.824V546.966C351.436 547.386 351.352 547.674 351.184 547.83C351.028 547.986 350.704 548.064 350.212 548.064H342.994C342.898 548.064 342.838 548.082 342.814 548.118C342.79 548.142 342.778 548.202 342.778 548.298V549.018C342.778 549.126 342.796 549.186 342.832 549.198C342.868 549.222 342.94 549.234 343.048 549.234H351.652C351.712 549.234 351.766 549.258 351.814 549.306C351.874 549.354 351.904 549.414 351.904 549.486V550.638ZM338.908 542.808C338.644 542.964 338.452 542.958 338.332 542.79L337.612 541.926C337.54 541.83 337.504 541.734 337.504 541.638C337.516 541.542 337.582 541.464 337.702 541.404C339.118 540.624 340.144 539.658 340.78 538.506C341.428 537.342 341.752 535.938 341.752 534.294C341.752 534.21 341.782 534.144 341.842 534.096C341.914 534.048 341.98 534.024 342.04 534.024L343.588 534.096C343.744 534.096 343.822 534.186 343.822 534.366C343.822 535.35 343.702 536.292 343.462 537.192C343.654 537.612 343.894 538.008 344.182 538.38C344.47 538.752 344.782 539.094 345.118 539.406C345.454 539.718 345.802 539.994 346.162 540.234C346.522 540.462 346.864 540.648 347.188 540.792C347.392 540.876 347.428 541.026 347.296 541.242L346.684 542.214C346.564 542.394 346.408 542.442 346.216 542.358C345.484 542.046 344.818 541.62 344.218 541.08C343.618 540.54 343.09 539.934 342.634 539.262C341.782 540.786 340.54 541.968 338.908 542.808ZM345.928 538.344V537.12C345.928 537.06 345.952 537.012 346 536.976C346.06 536.928 346.126 536.904 346.198 536.904H349.384V534.078C349.384 533.922 349.462 533.844 349.618 533.844H351.22C351.376 533.844 351.454 533.922 351.454 534.078V542.646C351.454 542.706 351.43 542.766 351.382 542.826C351.334 542.874 351.28 542.898 351.22 542.898H349.618C349.558 542.898 349.504 542.874 349.456 542.826C349.408 542.766 349.384 542.706 349.384 542.646V538.56H346.198C346.126 538.56 346.06 538.542 346 538.506C345.952 538.458 345.928 538.404 345.928 538.344ZM354.936 546.786C354.84 546.846 354.744 546.882 354.648 546.894C354.552 546.906 354.474 546.87 354.414 546.786L353.694 545.796C353.622 545.688 353.604 545.592 353.64 545.508C353.688 545.412 353.742 545.34 353.802 545.292C354.618 544.788 355.35 544.218 355.998 543.582C356.658 542.934 357.216 542.268 357.672 541.584C358.14 540.888 358.5 540.192 358.752 539.496C359.004 538.8 359.142 538.152 359.166 537.552C359.178 537.3 359.154 537.132 359.094 537.048C359.034 536.952 358.878 536.904 358.626 536.904H354.648C354.48 536.904 354.396 536.826 354.396 536.67V535.446C354.396 535.386 354.42 535.332 354.468 535.284C354.528 535.236 354.588 535.212 354.648 535.212H359.886C360.402 535.212 360.756 535.314 360.948 535.518C361.14 535.71 361.23 536.04 361.218 536.508C361.206 536.748 361.188 536.988 361.164 537.228C361.152 537.468 361.128 537.702 361.092 537.93H363.018V534.384C363.018 534.228 363.102 534.15 363.27 534.15H364.746C364.902 534.15 364.98 534.228 364.98 534.384V550.098C364.98 550.266 364.902 550.35 364.746 550.35H363.27C363.102 550.35 363.018 550.266 363.018 550.098V543.6H360.444C360.384 543.6 360.324 543.576 360.264 543.528C360.216 543.48 360.192 543.426 360.192 543.366V542.178C360.192 542.118 360.216 542.07 360.264 542.034C360.324 541.986 360.384 541.962 360.444 541.962H363.018V539.586H360.732C360.276 541.038 359.55 542.376 358.554 543.6C357.558 544.824 356.352 545.886 354.936 546.786ZM368.418 550.728C368.418 550.884 368.34 550.962 368.184 550.962H366.618C366.462 550.962 366.384 550.884 366.384 550.728V534.078C366.384 533.922 366.468 533.844 366.636 533.844H368.184C368.34 533.844 368.418 533.922 368.418 534.078V550.728ZM378.991 543.87C378.991 544.362 378.889 544.818 378.685 545.238C378.493 545.658 378.223 546.03 377.875 546.354C377.527 546.666 377.113 546.912 376.633 547.092C376.153 547.272 375.637 547.362 375.085 547.362C374.521 547.362 373.999 547.272 373.519 547.092C373.051 546.912 372.643 546.666 372.295 546.354C371.947 546.042 371.671 545.676 371.467 545.256C371.275 544.824 371.179 544.362 371.179 543.87C371.179 543.366 371.275 542.904 371.467 542.484C371.671 542.052 371.947 541.68 372.295 541.368C372.643 541.056 373.051 540.81 373.519 540.63C373.999 540.45 374.521 540.36 375.085 540.36C375.637 540.36 376.153 540.456 376.633 540.648C377.113 540.828 377.527 541.074 377.875 541.386C378.223 541.698 378.493 542.07 378.685 542.502C378.889 542.934 378.991 543.39 378.991 543.87ZM382.879 550.476C382.879 550.644 382.795 550.728 382.627 550.728H381.889C381.721 550.728 381.637 550.644 381.637 550.476V534.384C381.637 534.216 381.721 534.132 381.889 534.132H382.627C382.795 534.132 382.879 534.216 382.879 534.384V541.026H385.363C385.435 541.026 385.495 541.05 385.543 541.098C385.603 541.134 385.633 541.188 385.633 541.26V541.872C385.633 541.932 385.603 541.986 385.543 542.034C385.495 542.082 385.435 542.106 385.363 542.106H382.879V550.476ZM377.767 543.87C377.767 543.522 377.701 543.198 377.569 542.898C377.437 542.598 377.251 542.34 377.011 542.124C376.771 541.896 376.483 541.722 376.147 541.602C375.823 541.47 375.469 541.404 375.085 541.404C374.701 541.404 374.341 541.47 374.005 541.602C373.681 541.722 373.399 541.896 373.159 542.124C372.919 542.34 372.727 542.598 372.583 542.898C372.451 543.198 372.385 543.522 372.385 543.87C372.385 544.218 372.451 544.542 372.583 544.842C372.727 545.13 372.919 545.388 373.159 545.616C373.399 545.832 373.681 546.006 374.005 546.138C374.341 546.258 374.701 546.318 375.085 546.318C375.469 546.318 375.823 546.258 376.147 546.138C376.483 546.006 376.771 545.832 377.011 545.616C377.251 545.4 377.437 545.142 377.569 544.842C377.701 544.542 377.767 544.218 377.767 543.87ZM380.341 538.848C380.341 539.004 380.251 539.082 380.071 539.082H370.135C370.075 539.082 370.015 539.058 369.955 539.01C369.907 538.962 369.883 538.902 369.883 538.83V538.254C369.883 538.182 369.907 538.122 369.955 538.074C370.015 538.026 370.075 538.002 370.135 538.002H380.071C380.251 538.002 380.341 538.08 380.341 538.236V538.848ZM377.713 535.788C377.713 535.956 377.623 536.04 377.443 536.04H372.511C372.451 536.04 372.391 536.022 372.331 535.986C372.283 535.938 372.259 535.878 372.259 535.806V535.194C372.259 535.122 372.283 535.062 372.331 535.014C372.379 534.966 372.433 534.942 372.493 534.942H377.443C377.623 534.942 377.713 535.026 377.713 535.194V535.788ZM401.337 546.804C401.397 546.804 401.457 546.828 401.517 546.876C401.577 546.912 401.607 546.966 401.607 547.038V547.65C401.607 547.71 401.577 547.764 401.517 547.812C401.457 547.86 401.397 547.884 401.337 547.884H386.037C385.965 547.884 385.899 547.86 385.839 547.812C385.791 547.764 385.767 547.71 385.767 547.65V547.038C385.767 546.966 385.791 546.912 385.839 546.876C385.899 546.828 385.965 546.804 386.037 546.804H392.445V541.278C392.445 541.206 392.463 541.146 392.499 541.098C392.547 541.038 392.607 541.008 392.679 541.008H393.453C393.513 541.008 393.567 541.038 393.615 541.098C393.663 541.146 393.687 541.206 393.687 541.278V546.804H401.337ZM388.035 535.59C388.035 535.518 388.065 535.464 388.125 535.428C388.185 535.392 388.245 535.374 388.305 535.374H397.899C398.187 535.374 398.415 535.404 398.583 535.464C398.763 535.524 398.901 535.614 398.997 535.734C399.093 535.842 399.159 535.986 399.195 536.166C399.231 536.346 399.255 536.562 399.267 536.814C399.279 537.306 399.279 537.858 399.267 538.47C399.255 539.082 399.225 539.718 399.177 540.378C399.129 541.038 399.063 541.704 398.979 542.376C398.895 543.048 398.793 543.69 398.673 544.302C398.661 544.374 398.631 544.44 398.583 544.5C398.535 544.56 398.475 544.584 398.403 544.572L397.683 544.518C397.479 544.506 397.407 544.398 397.467 544.194C397.575 543.726 397.671 543.156 397.755 542.484C397.839 541.8 397.905 541.11 397.953 540.414C398.013 539.706 398.049 539.034 398.061 538.398C398.085 537.75 398.079 537.228 398.043 536.832C398.019 536.664 397.983 536.562 397.935 536.526C397.899 536.478 397.797 536.454 397.629 536.454H388.305C388.245 536.454 388.185 536.436 388.125 536.4C388.065 536.352 388.035 536.298 388.035 536.238V535.59ZM405.089 547.884C405.245 547.884 405.323 547.914 405.323 547.974C405.323 548.022 405.311 548.082 405.287 548.154L404.099 551.376C404.051 551.472 404.003 551.532 403.955 551.556C403.919 551.592 403.859 551.61 403.775 551.61H403.019C402.863 551.61 402.803 551.526 402.839 551.358L403.685 548.19C403.709 548.118 403.745 548.052 403.793 547.992C403.841 547.92 403.931 547.884 404.063 547.884H405.089ZM86.3658 570.786C86.3658 570.618 86.4438 570.534 86.5998 570.534C87.3678 570.534 88.1538 570.534 88.9578 570.534C89.7738 570.522 90.5718 570.516 91.3518 570.516C92.1318 570.504 92.8698 570.492 93.5658 570.48C94.2738 570.468 94.8978 570.444 95.4378 570.408C95.4498 570.204 95.4558 570.012 95.4558 569.832C95.4678 569.652 95.4738 569.478 95.4738 569.31C95.4738 569.142 95.4318 569.04 95.3478 569.004C95.2758 568.956 95.1558 568.932 94.9878 568.932H86.5638C86.5038 568.932 86.4438 568.914 86.3838 568.878C86.3238 568.83 86.2938 568.776 86.2938 568.716V567.492C86.2938 567.42 86.3238 567.366 86.3838 567.33C86.4438 567.294 86.5038 567.276 86.5638 567.276H96.3738C96.6858 567.276 96.9618 567.366 97.2018 567.546C97.4418 567.726 97.5618 568.038 97.5618 568.482C97.5618 568.638 97.5558 568.86 97.5438 569.148C97.5318 569.424 97.5138 569.73 97.4898 570.066C97.4658 570.402 97.4358 570.756 97.3998 571.128C97.3758 571.488 97.3458 571.842 97.3098 572.19C97.2738 572.526 97.2318 572.838 97.1838 573.126C97.1478 573.402 97.1118 573.624 97.0758 573.792C97.0518 573.9 97.0038 573.99 96.9318 574.062C96.8718 574.134 96.7938 574.164 96.6978 574.152L95.3118 574.026C95.1318 574.002 95.0598 573.87 95.0958 573.63C95.1318 573.39 95.1678 573.138 95.2038 572.874C95.2398 572.598 95.2758 572.31 95.3118 572.01C94.0158 572.082 92.6118 572.13 91.0998 572.154C89.5998 572.166 88.0998 572.178 86.5998 572.19C86.5398 572.19 86.4858 572.16 86.4378 572.1C86.3898 572.04 86.3658 571.974 86.3658 571.902V570.786ZM99.8838 576.87C99.8838 576.93 99.8538 576.99 99.7938 577.05C99.7338 577.11 99.6738 577.14 99.6138 577.14H83.9538C83.8818 577.14 83.8218 577.11 83.7738 577.05C83.7258 576.99 83.7018 576.93 83.7018 576.87V575.682C83.7018 575.61 83.7258 575.55 83.7738 575.502C83.8218 575.442 83.8818 575.412 83.9538 575.412H90.1998V573.288C90.1998 573.216 90.2238 573.156 90.2718 573.108C90.3198 573.048 90.3858 573.018 90.4698 573.018H92.0178C92.0898 573.018 92.1498 573.048 92.1978 573.108C92.2578 573.156 92.2878 573.216 92.2878 573.288V575.412H99.6138C99.6738 575.412 99.7338 575.442 99.7938 575.502C99.8538 575.562 99.8838 575.622 99.8838 575.682V576.87ZM97.8498 583.224C97.8498 583.296 97.8198 583.35 97.7598 583.386C97.6998 583.422 97.6398 583.44 97.5798 583.44H87.6258C87.0858 583.44 86.7198 583.338 86.5278 583.134C86.3478 582.942 86.2578 582.612 86.2578 582.144V578.598C86.2578 578.538 86.2818 578.478 86.3298 578.418C86.3898 578.358 86.4498 578.328 86.5098 578.328H88.0578C88.1298 578.328 88.1898 578.358 88.2378 578.418C88.2978 578.466 88.3278 578.526 88.3278 578.598V581.424C88.3278 581.544 88.3518 581.622 88.3998 581.658C88.4478 581.694 88.5378 581.712 88.6698 581.712H97.5798C97.6398 581.712 97.6998 581.736 97.7598 581.784C97.8198 581.82 97.8498 581.868 97.8498 581.928V583.224ZM108.604 576.132C108.628 576.24 108.604 576.318 108.532 576.366C108.46 576.414 108.394 576.45 108.334 576.474C107.938 576.582 107.47 576.678 106.93 576.762C106.402 576.834 105.856 576.894 105.292 576.942C104.728 576.99 104.17 577.02 103.618 577.032C103.078 577.044 102.592 577.038 102.16 577.014C101.296 576.966 100.864 576.534 100.864 575.718V569.13C100.864 568.71 100.948 568.416 101.116 568.248C101.296 568.08 101.614 567.996 102.07 567.996H107.038C107.206 567.996 107.29 568.074 107.29 568.23V569.418C107.29 569.574 107.206 569.652 107.038 569.652H103.276C103.048 569.652 102.934 569.754 102.934 569.958V571.686C103.534 571.686 104.122 571.686 104.698 571.686C105.286 571.674 105.85 571.644 106.39 571.596C106.438 571.596 106.486 571.608 106.534 571.632C106.582 571.656 106.606 571.698 106.606 571.758L106.624 572.856C106.624 572.964 106.606 573.048 106.57 573.108C106.534 573.156 106.498 573.18 106.462 573.18C105.886 573.228 105.298 573.264 104.698 573.288C104.098 573.3 103.51 573.306 102.934 573.306V574.836C102.934 575.028 102.964 575.154 103.024 575.214C103.096 575.262 103.246 575.298 103.474 575.322C103.726 575.346 104.056 575.358 104.464 575.358C104.872 575.346 105.292 575.322 105.724 575.286C106.168 575.25 106.6 575.202 107.02 575.142C107.44 575.082 107.788 575.022 108.064 574.962C108.148 574.938 108.22 574.938 108.28 574.962C108.352 574.986 108.4 575.046 108.424 575.142L108.604 576.132ZM115.606 583.404C115.606 583.476 115.576 583.53 115.516 583.566C115.468 583.602 115.414 583.62 115.354 583.62H105.238C104.698 583.62 104.332 583.524 104.14 583.332C103.948 583.14 103.852 582.81 103.852 582.342V578.688C103.852 578.628 103.876 578.568 103.924 578.508C103.984 578.448 104.05 578.418 104.122 578.418H105.652C105.724 578.418 105.784 578.448 105.832 578.508C105.892 578.568 105.922 578.628 105.922 578.688V581.604C105.922 581.724 105.946 581.802 105.994 581.838C106.054 581.874 106.144 581.892 106.264 581.892H115.354C115.414 581.892 115.468 581.916 115.516 581.964C115.576 582.012 115.606 582.066 115.606 582.126V583.404ZM109.828 567.366C109.828 567.21 109.912 567.132 110.08 567.132H111.556C111.712 567.132 111.79 567.21 111.79 567.366V578.418C111.79 578.586 111.712 578.67 111.556 578.67H110.08C109.912 578.67 109.828 578.586 109.828 578.418V573.396H107.83C107.758 573.396 107.692 573.372 107.632 573.324C107.584 573.276 107.56 573.222 107.56 573.162V571.956C107.56 571.896 107.584 571.848 107.632 571.812C107.692 571.764 107.758 571.74 107.83 571.74H109.828V567.366ZM113.122 567.078C113.122 566.922 113.212 566.844 113.392 566.844H114.922C114.982 566.844 115.036 566.868 115.084 566.916C115.144 566.964 115.174 567.018 115.174 567.078V578.832C115.174 578.892 115.144 578.946 115.084 578.994C115.036 579.042 114.982 579.066 114.922 579.066H113.374C113.206 579.066 113.122 578.988 113.122 578.832V567.078ZM118.205 576.87C118.121 576.894 118.031 576.894 117.935 576.87C117.851 576.834 117.797 576.78 117.773 576.708L117.413 575.574C117.389 575.502 117.401 575.43 117.449 575.358C117.497 575.274 117.563 575.22 117.647 575.196C118.403 575.04 119.171 574.842 119.951 574.602C120.743 574.35 121.505 574.08 122.237 573.792C122.969 573.504 123.641 573.21 124.253 572.91C124.877 572.598 125.393 572.292 125.801 571.992C125.993 571.848 126.071 571.746 126.035 571.686C125.999 571.626 125.939 571.596 125.855 571.596H119.033C118.877 571.596 118.799 571.518 118.799 571.362V570.138C118.799 569.994 118.877 569.922 119.033 569.922H127.655C128.699 569.922 129.221 570.222 129.221 570.822C129.221 570.99 129.155 571.2 129.023 571.452C128.891 571.692 128.687 571.968 128.411 572.28C128.171 572.544 127.877 572.802 127.529 573.054C127.193 573.306 126.815 573.558 126.395 573.81C126.695 573.906 127.031 574.008 127.403 574.116C127.775 574.224 128.165 574.332 128.573 574.44C128.981 574.536 129.389 574.632 129.797 574.728C130.205 574.812 130.595 574.89 130.967 574.962C131.063 574.986 131.129 575.034 131.165 575.106C131.213 575.178 131.225 575.25 131.201 575.322L130.805 576.438C130.781 576.51 130.727 576.576 130.643 576.636C130.571 576.684 130.487 576.696 130.391 576.672C129.935 576.576 129.449 576.462 128.933 576.33C128.429 576.198 127.913 576.054 127.385 575.898C126.869 575.742 126.353 575.58 125.837 575.412C125.321 575.244 124.829 575.07 124.361 574.89C123.449 575.31 122.465 575.694 121.409 576.042C120.365 576.39 119.297 576.666 118.205 576.87ZM132.047 579.21C132.107 579.21 132.167 579.24 132.227 579.3C132.287 579.36 132.317 579.42 132.317 579.48V580.614C132.317 580.674 132.287 580.734 132.227 580.794C132.167 580.854 132.107 580.884 132.047 580.884H116.369C116.297 580.884 116.237 580.854 116.189 580.794C116.141 580.734 116.117 580.674 116.117 580.614V579.48C116.117 579.408 116.141 579.348 116.189 579.3C116.237 579.24 116.297 579.21 116.369 579.21H132.047ZM126.809 568.554C126.809 568.626 126.779 568.692 126.719 568.752C126.671 568.812 126.599 568.842 126.503 568.842H121.535C121.487 568.842 121.427 568.818 121.355 568.77C121.295 568.722 121.265 568.656 121.265 568.572V567.42C121.265 567.336 121.295 567.27 121.355 567.222C121.427 567.174 121.487 567.15 121.535 567.15H126.503C126.587 567.15 126.659 567.18 126.719 567.24C126.779 567.3 126.809 567.366 126.809 567.438V568.554ZM146.293 583.53C146.293 583.59 146.263 583.644 146.203 583.692C146.155 583.752 146.107 583.782 146.059 583.782H136.141C135.673 583.782 135.355 583.698 135.187 583.53C135.019 583.362 134.935 583.086 134.935 582.702V580.776C134.935 580.392 135.013 580.116 135.169 579.948C135.337 579.78 135.655 579.696 136.123 579.696H143.683C143.779 579.696 143.839 579.69 143.863 579.678C143.887 579.654 143.899 579.588 143.899 579.48V578.976C143.899 578.844 143.887 578.766 143.863 578.742C143.839 578.718 143.773 578.706 143.665 578.706H135.151C135.091 578.706 135.031 578.688 134.971 578.652C134.923 578.604 134.899 578.55 134.899 578.49V577.338C134.899 577.278 134.923 577.224 134.971 577.176C135.031 577.128 135.091 577.104 135.151 577.104H144.691C145.183 577.104 145.507 577.182 145.663 577.338C145.831 577.482 145.915 577.758 145.915 578.166V580.11C145.915 580.53 145.831 580.812 145.663 580.956C145.507 581.1 145.183 581.172 144.691 581.172H137.185C137.089 581.172 137.029 581.19 137.005 581.226C136.981 581.25 136.969 581.316 136.969 581.424V581.964C136.969 582.084 136.981 582.15 137.005 582.162C137.029 582.186 137.101 582.198 137.221 582.198H146.041C146.101 582.198 146.155 582.216 146.203 582.252C146.263 582.3 146.293 582.36 146.293 582.432V583.53ZM146.185 573.126C146.185 573.186 146.155 573.246 146.095 573.306C146.047 573.354 145.999 573.378 145.951 573.378H136.195C135.727 573.378 135.409 573.294 135.241 573.126C135.073 572.958 134.989 572.682 134.989 572.298V570.444C134.989 570.06 135.067 569.784 135.223 569.616C135.391 569.448 135.709 569.364 136.177 569.364H143.665C143.761 569.364 143.821 569.352 143.845 569.328C143.869 569.292 143.881 569.214 143.881 569.094V568.554C143.881 568.446 143.869 568.386 143.845 568.374C143.821 568.35 143.755 568.338 143.647 568.338H135.313C135.253 568.338 135.193 568.32 135.133 568.284C135.085 568.236 135.061 568.182 135.061 568.122V566.988C135.061 566.928 135.085 566.874 135.133 566.826C135.193 566.778 135.253 566.754 135.313 566.754H144.673C145.165 566.754 145.489 566.832 145.645 566.988C145.813 567.132 145.897 567.408 145.897 567.816V569.778C145.897 570.198 145.813 570.48 145.645 570.624C145.489 570.768 145.165 570.84 144.673 570.84H137.257C137.149 570.84 137.083 570.858 137.059 570.894C137.035 570.918 137.023 570.978 137.023 571.074V571.56C137.023 571.668 137.035 571.734 137.059 571.758C137.083 571.77 137.155 571.776 137.275 571.776H145.933C145.993 571.776 146.047 571.8 146.095 571.848C146.155 571.884 146.185 571.938 146.185 572.01V573.126ZM148.507 575.79C148.507 575.85 148.477 575.91 148.417 575.97C148.357 576.03 148.297 576.06 148.237 576.06H132.577C132.505 576.06 132.445 576.036 132.397 575.988C132.349 575.928 132.325 575.862 132.325 575.79V574.692C132.325 574.524 132.409 574.44 132.577 574.44H148.237C148.297 574.44 148.357 574.47 148.417 574.53C148.477 574.578 148.507 574.632 148.507 574.692V575.79ZM154.406 579.714C154.334 579.762 154.244 579.792 154.136 579.804C154.028 579.816 153.944 579.78 153.884 579.696L153.218 578.85C153.158 578.778 153.134 578.688 153.146 578.58C153.158 578.472 153.212 578.388 153.308 578.328C153.896 577.944 154.442 577.524 154.946 577.068C155.462 576.6 155.924 576.12 156.332 575.628C156.752 575.124 157.118 574.614 157.43 574.098C157.754 573.582 158.012 573.072 158.204 572.568C158.264 572.424 158.3 572.316 158.312 572.244C158.324 572.16 158.222 572.118 158.006 572.118H154.28C154.22 572.118 154.172 572.094 154.136 572.046C154.1 571.986 154.082 571.92 154.082 571.848V570.732C154.082 570.564 154.154 570.48 154.298 570.48H159.176C159.704 570.48 160.082 570.552 160.31 570.696C160.538 570.828 160.652 571.044 160.652 571.344C160.652 571.44 160.628 571.572 160.58 571.74C160.544 571.908 160.514 572.028 160.49 572.1C160.31 572.604 160.1 573.102 159.86 573.594C159.632 574.074 159.368 574.542 159.068 574.998C159.26 575.262 159.476 575.532 159.716 575.808C159.968 576.072 160.226 576.33 160.49 576.582C160.754 576.834 161.006 577.068 161.246 577.284C161.498 577.488 161.72 577.662 161.912 577.806C162.044 577.902 162.11 577.998 162.11 578.094C162.11 578.178 162.074 578.262 162.002 578.346L161.3 579.21C161.24 579.294 161.156 579.336 161.048 579.336C160.94 579.324 160.838 579.288 160.742 579.228C160.31 578.916 159.842 578.52 159.338 578.04C158.846 577.548 158.39 577.038 157.97 576.51C157.466 577.122 156.914 577.698 156.314 578.238C155.726 578.778 155.09 579.27 154.406 579.714ZM164.684 582.99C164.684 583.158 164.606 583.242 164.45 583.242H162.992C162.812 583.242 162.722 583.158 162.722 582.99V575.466H160.796C160.736 575.466 160.676 575.442 160.616 575.394C160.568 575.346 160.544 575.292 160.544 575.232V573.99C160.544 573.93 160.568 573.882 160.616 573.846C160.676 573.798 160.736 573.774 160.796 573.774H162.722V567.366C162.722 567.21 162.812 567.132 162.992 567.132H164.45C164.606 567.132 164.684 567.21 164.684 567.366V582.99ZM168.122 583.728C168.122 583.884 168.044 583.962 167.888 583.962H166.322C166.166 583.962 166.088 583.884 166.088 583.728V567.078C166.088 566.922 166.172 566.844 166.34 566.844H167.888C168.044 566.844 168.122 566.922 168.122 567.078V583.728ZM159.662 569.112C159.662 569.184 159.632 569.25 159.572 569.31C159.524 569.37 159.458 569.4 159.374 569.4H155.63C155.57 569.4 155.504 569.376 155.432 569.328C155.372 569.28 155.342 569.214 155.342 569.13V568.086C155.342 568.002 155.372 567.936 155.432 567.888C155.504 567.84 155.57 567.816 155.63 567.816H159.374C159.446 567.816 159.512 567.846 159.572 567.906C159.632 567.966 159.662 568.032 159.662 568.104V569.112ZM170.847 579.786C170.751 579.846 170.655 579.882 170.559 579.894C170.463 579.906 170.385 579.87 170.325 579.786L169.605 578.796C169.533 578.688 169.515 578.592 169.551 578.508C169.599 578.412 169.653 578.34 169.713 578.292C170.529 577.788 171.261 577.218 171.909 576.582C172.569 575.934 173.127 575.268 173.583 574.584C174.051 573.888 174.411 573.192 174.663 572.496C174.915 571.8 175.053 571.152 175.077 570.552C175.089 570.3 175.065 570.132 175.005 570.048C174.945 569.952 174.789 569.904 174.537 569.904H170.559C170.391 569.904 170.307 569.826 170.307 569.67V568.446C170.307 568.386 170.331 568.332 170.379 568.284C170.439 568.236 170.499 568.212 170.559 568.212H175.797C176.313 568.212 176.667 568.314 176.859 568.518C177.051 568.71 177.141 569.04 177.129 569.508C177.117 569.748 177.099 569.988 177.075 570.228C177.063 570.468 177.039 570.702 177.003 570.93H178.929V567.384C178.929 567.228 179.013 567.15 179.181 567.15H180.657C180.813 567.15 180.891 567.228 180.891 567.384V583.098C180.891 583.266 180.813 583.35 180.657 583.35H179.181C179.013 583.35 178.929 583.266 178.929 583.098V576.6H176.355C176.295 576.6 176.235 576.576 176.175 576.528C176.127 576.48 176.103 576.426 176.103 576.366V575.178C176.103 575.118 176.127 575.07 176.175 575.034C176.235 574.986 176.295 574.962 176.355 574.962H178.929V572.586H176.643C176.187 574.038 175.461 575.376 174.465 576.6C173.469 577.824 172.263 578.886 170.847 579.786ZM184.329 583.728C184.329 583.884 184.251 583.962 184.095 583.962H182.529C182.373 583.962 182.295 583.884 182.295 583.728V567.078C182.295 566.922 182.379 566.844 182.547 566.844H184.095C184.251 566.844 184.329 566.922 184.329 567.078V583.728ZM187.127 576.672C187.055 576.72 186.959 576.744 186.839 576.744C186.719 576.732 186.623 576.66 186.551 576.528L186.029 575.646C185.969 575.55 185.951 575.448 185.975 575.34C185.999 575.232 186.071 575.154 186.191 575.106C186.863 574.806 187.499 574.464 188.099 574.08C188.699 573.684 189.239 573.264 189.719 572.82C190.211 572.376 190.637 571.914 190.997 571.434C191.357 570.942 191.633 570.45 191.825 569.958C191.873 569.85 191.891 569.754 191.879 569.67C191.879 569.586 191.783 569.544 191.591 569.544H187.127C186.959 569.544 186.875 569.448 186.875 569.256V568.068C186.875 567.996 186.899 567.936 186.947 567.888C187.007 567.84 187.073 567.816 187.145 567.816H192.833C193.361 567.816 193.751 567.912 194.003 568.104C194.267 568.296 194.369 568.59 194.309 568.986C194.285 569.118 194.249 569.256 194.201 569.4C194.165 569.544 194.129 569.67 194.093 569.778C193.781 570.666 193.331 571.506 192.743 572.298C192.959 572.514 193.199 572.736 193.463 572.964C193.727 573.18 193.997 573.39 194.273 573.594C194.561 573.786 194.843 573.966 195.119 574.134C195.407 574.302 195.671 574.44 195.911 574.548C196.151 574.668 196.211 574.842 196.091 575.07L195.497 576.042C195.437 576.138 195.365 576.198 195.281 576.222C195.197 576.246 195.089 576.228 194.957 576.168C194.741 576.06 194.489 575.916 194.201 575.736C193.913 575.556 193.613 575.352 193.301 575.124C192.989 574.896 192.683 574.656 192.383 574.404C192.083 574.152 191.807 573.9 191.555 573.648C190.943 574.248 190.265 574.806 189.521 575.322C188.789 575.826 187.991 576.276 187.127 576.672ZM199.799 583.638C199.799 583.698 199.769 583.752 199.709 583.8C199.649 583.86 199.589 583.89 199.529 583.89H197.999C197.915 583.89 197.843 583.86 197.783 583.8C197.735 583.752 197.711 583.698 197.711 583.638V579.732C197.711 579.6 197.687 579.516 197.639 579.48C197.591 579.444 197.507 579.426 197.387 579.426H189.053C188.993 579.426 188.933 579.408 188.873 579.372C188.825 579.324 188.801 579.27 188.801 579.21V577.932C188.801 577.86 188.825 577.806 188.873 577.77C188.933 577.734 188.993 577.716 189.053 577.716H198.593C199.049 577.716 199.361 577.812 199.529 578.004C199.709 578.184 199.799 578.502 199.799 578.958V583.638ZM194.633 572.478V571.218C194.633 571.158 194.657 571.11 194.705 571.074C194.765 571.026 194.825 571.002 194.885 571.002H197.711V567.078C197.711 566.922 197.795 566.844 197.963 566.844H199.547C199.607 566.844 199.661 566.868 199.709 566.916C199.769 566.964 199.799 567.018 199.799 567.078V576.564C199.799 576.624 199.769 576.684 199.709 576.744C199.661 576.792 199.607 576.816 199.547 576.816H197.963C197.891 576.816 197.831 576.792 197.783 576.744C197.735 576.684 197.711 576.624 197.711 576.564V572.694H194.885C194.825 572.694 194.765 572.676 194.705 572.64C194.657 572.592 194.633 572.538 194.633 572.478ZM217.681 580.614C217.681 580.674 217.651 580.734 217.591 580.794C217.531 580.854 217.471 580.884 217.411 580.884H201.733C201.661 580.884 201.601 580.854 201.553 580.794C201.505 580.734 201.481 580.674 201.481 580.614V579.426C201.481 579.354 201.505 579.294 201.553 579.246C201.601 579.186 201.661 579.156 201.733 579.156H217.411C217.471 579.156 217.531 579.186 217.591 579.246C217.651 579.306 217.681 579.366 217.681 579.426V580.614ZM209.581 576.186C208.741 576.186 207.961 576.09 207.241 575.898C206.521 575.706 205.897 575.43 205.369 575.07C204.841 574.71 204.427 574.278 204.127 573.774C203.827 573.27 203.677 572.706 203.677 572.082C203.677 571.458 203.827 570.894 204.127 570.39C204.427 569.886 204.841 569.454 205.369 569.094C205.897 568.734 206.521 568.458 207.241 568.266C207.961 568.074 208.741 567.978 209.581 567.978C210.421 567.978 211.201 568.074 211.921 568.266C212.641 568.458 213.265 568.734 213.793 569.094C214.321 569.454 214.729 569.886 215.017 570.39C215.317 570.894 215.467 571.458 215.467 572.082C215.467 572.706 215.317 573.27 215.017 573.774C214.729 574.278 214.321 574.71 213.793 575.07C213.265 575.43 212.641 575.706 211.921 575.898C211.201 576.09 210.421 576.186 209.581 576.186ZM209.581 569.688C209.077 569.688 208.597 569.748 208.141 569.868C207.685 569.976 207.283 570.138 206.935 570.354C206.599 570.558 206.329 570.81 206.125 571.11C205.921 571.398 205.819 571.722 205.819 572.082C205.819 572.442 205.921 572.772 206.125 573.072C206.329 573.372 206.599 573.63 206.935 573.846C207.283 574.05 207.685 574.212 208.141 574.332C208.597 574.44 209.077 574.494 209.581 574.494C210.085 574.494 210.565 574.44 211.021 574.332C211.477 574.212 211.873 574.05 212.209 573.846C212.557 573.63 212.827 573.372 213.019 573.072C213.223 572.772 213.325 572.442 213.325 572.082C213.325 571.722 213.223 571.398 213.019 571.11C212.827 570.81 212.557 570.558 212.209 570.354C211.873 570.138 211.477 569.976 211.021 569.868C210.565 569.748 210.085 569.688 209.581 569.688ZM233.889 580.74C233.889 580.8 233.859 580.86 233.799 580.92C233.739 580.98 233.679 581.01 233.619 581.01H217.941C217.869 581.01 217.809 580.98 217.761 580.92C217.713 580.86 217.689 580.8 217.689 580.74V579.606C217.689 579.534 217.713 579.468 217.761 579.408C217.809 579.348 217.869 579.318 217.941 579.318H224.763V576.636H221.541C221.277 576.636 221.061 576.618 220.893 576.582C220.725 576.546 220.593 576.48 220.497 576.384C220.401 576.288 220.335 576.168 220.299 576.024C220.263 575.868 220.245 575.67 220.245 575.43V572.532C220.245 572.292 220.263 572.1 220.299 571.956C220.335 571.8 220.401 571.68 220.497 571.596C220.593 571.5 220.725 571.44 220.893 571.416C221.061 571.38 221.277 571.362 221.541 571.362H229.029C229.149 571.362 229.221 571.35 229.245 571.326C229.281 571.29 229.299 571.206 229.299 571.074V569.67C229.299 569.538 229.281 569.466 229.245 569.454C229.221 569.43 229.149 569.418 229.029 569.418H220.551C220.491 569.418 220.437 569.394 220.389 569.346C220.341 569.286 220.317 569.226 220.317 569.166V567.96C220.317 567.9 220.341 567.846 220.389 567.798C220.437 567.75 220.491 567.726 220.551 567.726H230.019C230.523 567.726 230.865 567.81 231.045 567.978C231.225 568.134 231.315 568.446 231.315 568.914V571.83C231.315 572.298 231.225 572.616 231.045 572.784C230.865 572.94 230.523 573.018 230.019 573.018H222.513C222.393 573.018 222.321 573.03 222.297 573.054C222.273 573.078 222.261 573.15 222.261 573.27V574.692C222.261 574.824 222.273 574.908 222.297 574.944C222.333 574.968 222.411 574.98 222.531 574.98H231.459C231.519 574.98 231.573 575.004 231.621 575.052C231.669 575.088 231.693 575.136 231.693 575.196V576.402C231.693 576.462 231.663 576.516 231.603 576.564C231.555 576.612 231.507 576.636 231.459 576.636H226.833V579.318H233.619C233.679 579.318 233.739 579.354 233.799 579.426C233.859 579.486 233.889 579.546 233.889 579.606V580.74ZM251.451 567.078C251.451 566.922 251.535 566.844 251.703 566.844H253.251C253.407 566.844 253.485 566.922 253.485 567.078V583.692C253.485 583.848 253.407 583.926 253.251 583.926H251.685C251.529 583.926 251.451 583.848 251.451 583.692V575.196H249.777V583.008C249.777 583.176 249.699 583.26 249.543 583.26H248.067C247.899 583.26 247.815 583.176 247.815 583.008V567.402C247.815 567.246 247.899 567.168 248.067 567.168H249.543C249.699 567.168 249.777 567.246 249.777 567.402V573.468H251.451V567.078ZM244.161 573.72H241.065V577.014C241.065 577.218 241.179 577.32 241.407 577.32H243.819C244.047 577.32 244.161 577.218 244.161 577.014V573.72ZM246.177 577.77C246.177 578.166 246.081 578.466 245.889 578.67C245.697 578.874 245.337 578.976 244.809 578.976H240.435C239.895 578.976 239.529 578.886 239.337 578.706C239.145 578.526 239.049 578.196 239.049 577.716V568.176C239.049 568.116 239.073 568.068 239.121 568.032C239.169 567.984 239.223 567.96 239.283 567.96H240.813C240.873 567.96 240.927 567.984 240.975 568.032C241.035 568.068 241.065 568.116 241.065 568.176V572.082H244.161V568.158C244.161 568.098 244.185 568.044 244.233 567.996C244.281 567.948 244.335 567.924 244.395 567.924H245.943C246.003 567.924 246.057 567.948 246.105 567.996C246.153 568.044 246.177 568.098 246.177 568.158V577.77ZM256.085 580.02C255.989 580.068 255.887 580.092 255.779 580.092C255.683 580.08 255.605 580.032 255.545 579.948L254.987 579.084C254.903 578.952 254.879 578.832 254.915 578.724C254.963 578.604 255.029 578.526 255.113 578.49C255.773 578.13 256.409 577.734 257.021 577.302C257.633 576.87 258.197 576.408 258.713 575.916C259.229 575.424 259.679 574.914 260.063 574.386C260.459 573.846 260.771 573.294 260.999 572.73C261.071 572.562 261.113 572.442 261.125 572.37C261.137 572.286 260.999 572.244 260.711 572.244H256.085C256.013 572.244 255.953 572.214 255.905 572.154C255.857 572.094 255.833 572.028 255.833 571.956V570.768C255.833 570.696 255.857 570.636 255.905 570.588C255.965 570.54 256.031 570.516 256.103 570.516H262.169C262.685 570.516 263.045 570.612 263.249 570.804C263.453 570.996 263.555 571.2 263.555 571.416C263.555 571.704 263.501 572.01 263.393 572.334C263.189 572.838 262.961 573.324 262.709 573.792C262.469 574.26 262.193 574.716 261.881 575.16C262.109 575.412 262.355 575.67 262.619 575.934C262.895 576.186 263.177 576.432 263.465 576.672C263.753 576.912 264.041 577.14 264.329 577.356C264.617 577.572 264.887 577.764 265.139 577.932C265.235 577.992 265.277 578.07 265.265 578.166C265.253 578.25 265.217 578.34 265.157 578.436L264.473 579.39C264.425 579.462 264.353 579.504 264.257 579.516C264.161 579.528 264.053 579.492 263.933 579.408C263.717 579.276 263.465 579.102 263.177 578.886C262.901 578.67 262.619 578.436 262.331 578.184C262.043 577.92 261.755 577.65 261.467 577.374C261.191 577.098 260.945 576.834 260.729 576.582C259.493 577.914 257.945 579.06 256.085 580.02ZM268.937 583.692C268.937 583.848 268.853 583.926 268.685 583.926H267.101C267.041 583.926 266.981 583.902 266.921 583.854C266.873 583.818 266.849 583.764 266.849 583.692V567.078C266.849 567.018 266.873 566.964 266.921 566.916C266.981 566.868 267.041 566.844 267.101 566.844H268.685C268.853 566.844 268.937 566.922 268.937 567.078V583.692ZM262.439 569.004C262.439 569.076 262.409 569.142 262.349 569.202C262.289 569.262 262.217 569.292 262.133 569.292H257.453C257.405 569.292 257.345 569.268 257.273 569.22C257.213 569.172 257.183 569.106 257.183 569.022V567.924C257.183 567.84 257.213 567.774 257.273 567.726C257.345 567.678 257.405 567.654 257.453 567.654H262.133C262.205 567.654 262.271 567.684 262.331 567.744C262.403 567.804 262.439 567.87 262.439 567.942V569.004ZM284.551 583.566C284.551 583.626 284.521 583.674 284.461 583.71C284.413 583.758 284.365 583.782 284.317 583.782H275.263C274.699 583.782 274.327 583.674 274.147 583.458C273.979 583.254 273.895 582.9 273.895 582.396V581.424C273.895 580.92 273.997 580.584 274.201 580.416C274.417 580.236 274.795 580.146 275.335 580.146H282.535C282.703 580.146 282.811 580.122 282.859 580.074C282.907 580.026 282.931 579.912 282.931 579.732V579.048C282.931 578.868 282.907 578.754 282.859 578.706C282.823 578.658 282.721 578.634 282.553 578.634H274.111C274.051 578.634 273.991 578.616 273.931 578.58C273.883 578.544 273.859 578.496 273.859 578.436V577.788C273.859 577.728 273.883 577.68 273.931 577.644C273.991 577.608 274.051 577.59 274.111 577.59H282.751C283.039 577.59 283.273 577.614 283.453 577.662C283.633 577.698 283.777 577.764 283.885 577.86C283.993 577.956 284.065 578.094 284.101 578.274C284.149 578.442 284.173 578.652 284.173 578.904V579.912C284.173 580.416 284.065 580.758 283.849 580.938C283.645 581.106 283.273 581.19 282.733 581.19H275.515C275.347 581.19 275.239 581.214 275.191 581.262C275.155 581.31 275.137 581.424 275.137 581.604V582.324C275.137 582.492 275.161 582.6 275.209 582.648C275.257 582.708 275.365 582.738 275.533 582.738H284.299C284.359 582.738 284.413 582.756 284.461 582.792C284.521 582.828 284.551 582.876 284.551 582.936V583.566ZM280.231 573.918C280.231 574.326 280.129 574.704 279.925 575.052C279.733 575.388 279.463 575.682 279.115 575.934C278.767 576.174 278.359 576.366 277.891 576.51C277.423 576.642 276.913 576.708 276.361 576.708C275.809 576.708 275.293 576.642 274.813 576.51C274.345 576.366 273.937 576.174 273.589 575.934C273.253 575.682 272.983 575.388 272.779 575.052C272.587 574.704 272.491 574.326 272.491 573.918C272.491 573.51 272.587 573.138 272.779 572.802C272.983 572.454 273.253 572.16 273.589 571.92C273.937 571.668 274.345 571.476 274.813 571.344C275.293 571.212 275.809 571.146 276.361 571.146C276.913 571.146 277.423 571.218 277.891 571.362C278.359 571.494 278.767 571.686 279.115 571.938C279.463 572.178 279.733 572.466 279.925 572.802C280.129 573.138 280.231 573.51 280.231 573.918ZM279.025 573.918C279.025 573.642 278.953 573.396 278.809 573.18C278.677 572.964 278.491 572.784 278.251 572.64C278.023 572.484 277.741 572.37 277.405 572.298C277.081 572.214 276.733 572.172 276.361 572.172C275.977 572.172 275.623 572.214 275.299 572.298C274.975 572.37 274.693 572.478 274.453 572.622C274.213 572.766 274.021 572.946 273.877 573.162C273.745 573.378 273.679 573.63 273.679 573.918C273.679 574.194 273.745 574.44 273.877 574.656C274.021 574.872 274.213 575.058 274.453 575.214C274.693 575.37 274.975 575.49 275.299 575.574C275.623 575.646 275.977 575.682 276.361 575.682C276.733 575.682 277.081 575.646 277.405 575.574C277.741 575.49 278.023 575.37 278.251 575.214C278.491 575.058 278.677 574.872 278.809 574.656C278.953 574.44 279.025 574.194 279.025 573.918ZM284.155 576.492C284.155 576.66 284.071 576.744 283.903 576.744H283.165C282.997 576.744 282.913 576.66 282.913 576.492V567.384C282.913 567.216 282.997 567.132 283.165 567.132H283.903C284.071 567.132 284.155 567.216 284.155 567.384V571.506H286.639C286.711 571.506 286.771 571.53 286.819 571.578C286.879 571.614 286.909 571.668 286.909 571.74V572.352C286.909 572.412 286.879 572.466 286.819 572.514C286.771 572.562 286.711 572.586 286.639 572.586H284.155V576.492ZM281.617 570.138C281.617 570.294 281.527 570.372 281.347 570.372H271.411C271.351 570.372 271.291 570.348 271.231 570.3C271.183 570.252 271.159 570.192 271.159 570.12V569.544C271.159 569.472 271.183 569.412 271.231 569.364C271.291 569.316 271.351 569.292 271.411 569.292H281.347C281.527 569.292 281.617 569.37 281.617 569.526V570.138ZM278.989 568.068C278.989 568.236 278.899 568.32 278.719 568.32H273.787C273.727 568.32 273.667 568.302 273.607 568.266C273.559 568.218 273.535 568.158 273.535 568.086V567.474C273.535 567.402 273.559 567.342 273.607 567.294C273.655 567.246 273.709 567.222 273.769 567.222H278.719C278.899 567.222 278.989 567.306 278.989 567.474V568.068ZM298.855 583.62C298.795 583.62 298.741 583.59 298.693 583.53C298.645 583.482 298.621 583.422 298.621 583.35V577.482H291.637C291.565 577.482 291.499 577.458 291.439 577.41C291.391 577.362 291.367 577.308 291.367 577.248V576.636C291.367 576.564 291.391 576.51 291.439 576.474C291.499 576.426 291.565 576.402 291.637 576.402H306.937C306.997 576.402 307.057 576.426 307.117 576.474C307.177 576.51 307.207 576.564 307.207 576.636V577.248C307.207 577.308 307.177 577.362 307.117 577.41C307.057 577.458 306.997 577.482 306.937 577.482H299.863V583.35C299.863 583.422 299.839 583.482 299.791 583.53C299.755 583.59 299.701 583.62 299.629 583.62H298.855ZM299.917 567.528C299.893 567.684 299.863 567.834 299.827 567.978C299.791 568.122 299.755 568.26 299.719 568.392C299.755 568.524 299.797 568.65 299.845 568.77C299.893 568.878 299.947 568.986 300.007 569.094C300.211 569.49 300.511 569.892 300.907 570.3C301.303 570.696 301.759 571.074 302.275 571.434C302.791 571.782 303.349 572.094 303.949 572.37C304.549 572.646 305.167 572.862 305.803 573.018C305.875 573.042 305.923 573.09 305.947 573.162C305.971 573.234 305.971 573.3 305.947 573.36L305.659 573.972C305.623 574.032 305.581 574.074 305.533 574.098C305.497 574.122 305.419 574.122 305.299 574.098C304.663 573.93 304.033 573.702 303.409 573.414C302.785 573.114 302.203 572.772 301.663 572.388C301.123 572.004 300.631 571.59 300.187 571.146C299.755 570.702 299.401 570.252 299.125 569.796C298.609 570.732 297.871 571.578 296.911 572.334C295.951 573.078 294.745 573.738 293.293 574.314C293.101 574.386 292.981 574.362 292.933 574.242L292.591 573.612C292.567 573.552 292.561 573.486 292.573 573.414C292.597 573.342 292.645 573.294 292.717 573.27C293.497 573.006 294.241 572.658 294.949 572.226C295.657 571.782 296.281 571.296 296.821 570.768C297.361 570.24 297.793 569.688 298.117 569.112C298.453 568.536 298.639 567.966 298.675 567.402C298.687 567.258 298.765 567.186 298.909 567.186L299.719 567.276C299.779 567.288 299.833 567.312 299.881 567.348C299.929 567.384 299.941 567.444 299.917 567.528ZM321.44 571.848C321.44 572.448 321.332 573 321.116 573.504C320.9 573.996 320.6 574.422 320.216 574.782C319.832 575.142 319.376 575.424 318.848 575.628C318.332 575.832 317.768 575.934 317.156 575.934C316.568 575.934 316.016 575.838 315.5 575.646C314.984 575.442 314.534 575.16 314.15 574.8C313.778 574.44 313.484 574.008 313.268 573.504C313.052 573 312.944 572.448 312.944 571.848C312.944 571.212 313.052 570.642 313.268 570.138C313.484 569.622 313.778 569.19 314.15 568.842C314.534 568.482 314.984 568.212 315.5 568.032C316.016 567.84 316.568 567.744 317.156 567.744C317.708 567.744 318.242 567.84 318.758 568.032C319.274 568.212 319.73 568.476 320.126 568.824C320.522 569.172 320.84 569.604 321.08 570.12C321.32 570.624 321.44 571.2 321.44 571.848ZM320.18 571.83C320.18 571.35 320.096 570.93 319.928 570.57C319.772 570.198 319.556 569.892 319.28 569.652C319.004 569.4 318.68 569.214 318.308 569.094C317.948 568.962 317.564 568.896 317.156 568.896C316.736 568.896 316.346 568.962 315.986 569.094C315.638 569.214 315.326 569.4 315.05 569.652C314.786 569.892 314.576 570.198 314.42 570.57C314.276 570.93 314.204 571.35 314.204 571.83C314.204 572.286 314.276 572.694 314.42 573.054C314.564 573.414 314.768 573.726 315.032 573.99C315.296 574.254 315.608 574.458 315.968 574.602C316.328 574.734 316.724 574.8 317.156 574.8C317.564 574.8 317.948 574.734 318.308 574.602C318.68 574.458 319.004 574.254 319.28 573.99C319.556 573.726 319.772 573.414 319.928 573.054C320.096 572.694 320.18 572.286 320.18 571.83ZM327.38 583.566C327.332 583.626 327.284 583.668 327.236 583.692C327.2 583.716 327.14 583.704 327.056 583.656C326.3 583.26 325.652 582.786 325.112 582.234C324.584 581.694 324.176 581.106 323.888 580.47C323.576 581.118 323.186 581.706 322.718 582.234C322.262 582.774 321.74 583.224 321.152 583.584C320.984 583.68 320.804 583.674 320.612 583.566C320.024 583.23 319.496 582.804 319.028 582.288C318.56 581.784 318.188 581.226 317.912 580.614C317.6 581.238 317.174 581.802 316.634 582.306C316.106 582.81 315.452 583.272 314.672 583.692C314.612 583.716 314.546 583.74 314.474 583.764C314.402 583.788 314.348 583.776 314.312 583.728L313.88 583.08C313.856 583.032 313.85 582.972 313.862 582.9C313.886 582.84 313.934 582.792 314.006 582.756C315.182 582.18 316.04 581.472 316.58 580.632C317.132 579.78 317.372 578.748 317.3 577.536C317.3 577.38 317.36 577.302 317.48 577.302L318.344 577.32C318.476 577.32 318.542 577.392 318.542 577.536C318.542 577.896 318.524 578.244 318.488 578.58C318.5 578.94 318.572 579.312 318.704 579.696C318.836 580.08 319.004 580.446 319.208 580.794C319.412 581.13 319.646 581.442 319.91 581.73C320.186 582.006 320.474 582.222 320.774 582.378C320.882 582.438 320.978 582.438 321.062 582.378C321.386 582.174 321.686 581.898 321.962 581.55C322.238 581.202 322.478 580.812 322.682 580.38C322.898 579.948 323.06 579.486 323.168 578.994C323.288 578.502 323.342 578.01 323.33 577.518C323.33 577.458 323.342 577.404 323.366 577.356C323.402 577.296 323.456 577.266 323.528 577.266L324.374 577.284C324.506 577.284 324.572 577.356 324.572 577.5C324.56 577.632 324.548 577.764 324.536 577.896C324.536 578.016 324.53 578.142 324.518 578.274C324.518 579.234 324.788 580.098 325.328 580.866C325.868 581.622 326.648 582.234 327.668 582.702C327.812 582.786 327.836 582.9 327.74 583.044L327.38 583.566ZM325.85 576.258C325.85 576.426 325.766 576.51 325.598 576.51H324.86C324.692 576.51 324.608 576.426 324.608 576.258V567.384C324.608 567.216 324.692 567.132 324.86 567.132H325.598C325.766 567.132 325.85 567.216 325.85 567.384V576.258ZM331.942 583.62C331.654 583.62 331.42 583.602 331.24 583.566C331.072 583.53 330.94 583.458 330.844 583.35C330.748 583.254 330.682 583.122 330.646 582.954C330.61 582.798 330.592 582.594 330.592 582.342V577.248C330.592 577.188 330.616 577.14 330.664 577.104C330.712 577.056 330.766 577.032 330.826 577.032H331.618C331.678 577.032 331.726 577.056 331.762 577.104C331.81 577.152 331.834 577.2 331.834 577.248V579.192H340.186V577.266C340.186 577.206 340.204 577.152 340.24 577.104C340.288 577.056 340.342 577.032 340.402 577.032H341.194C341.254 577.032 341.308 577.056 341.356 577.104C341.404 577.14 341.428 577.188 341.428 577.248V582.468C341.428 582.924 341.332 583.23 341.14 583.386C340.948 583.542 340.588 583.62 340.06 583.62H331.942ZM331.834 580.272V582.108C331.834 582.288 331.864 582.402 331.924 582.45C331.984 582.51 332.098 582.54 332.266 582.54H339.754C339.922 582.54 340.036 582.51 340.096 582.45C340.156 582.402 340.186 582.288 340.186 582.108V580.272H331.834ZM336.658 567.456C336.634 567.528 336.616 567.6 336.604 567.672C336.604 567.732 336.592 567.792 336.568 567.852C336.604 568.008 336.652 568.158 336.712 568.302C336.784 568.446 336.862 568.578 336.946 568.698C337.198 569.094 337.522 569.472 337.918 569.832C338.314 570.18 338.746 570.498 339.214 570.786C339.694 571.062 340.198 571.302 340.726 571.506C341.266 571.71 341.806 571.866 342.346 571.974C342.418 571.998 342.46 572.04 342.472 572.1C342.484 572.16 342.478 572.22 342.454 572.28L342.148 572.892C342.124 572.952 342.088 573 342.04 573.036C342.004 573.06 341.926 573.06 341.806 573.036C341.194 572.892 340.588 572.694 339.988 572.442C339.4 572.178 338.848 571.878 338.332 571.542C337.816 571.194 337.354 570.822 336.946 570.426C336.538 570.03 336.214 569.634 335.974 569.238C335.494 570.066 334.792 570.792 333.868 571.416C332.944 572.04 331.732 572.604 330.232 573.108C330.04 573.168 329.92 573.138 329.872 573.018L329.566 572.37C329.542 572.31 329.536 572.244 329.548 572.172C329.572 572.1 329.626 572.052 329.71 572.028C330.586 571.764 331.354 571.476 332.014 571.164C332.686 570.852 333.256 570.51 333.724 570.138C334.192 569.766 334.564 569.352 334.84 568.896C335.128 568.428 335.32 567.906 335.416 567.33C335.452 567.174 335.53 567.102 335.65 567.114L336.46 567.204C336.52 567.204 336.574 567.228 336.622 567.276C336.67 567.312 336.682 567.372 336.658 567.456ZM343.678 574.494C343.738 574.494 343.798 574.518 343.858 574.566C343.918 574.602 343.948 574.656 343.948 574.728V575.34C343.948 575.4 343.918 575.454 343.858 575.502C343.798 575.55 343.738 575.574 343.678 575.574H328.378C328.306 575.574 328.24 575.55 328.18 575.502C328.132 575.454 328.108 575.4 328.108 575.34V574.71C328.108 574.638 328.132 574.584 328.18 574.548C328.24 574.512 328.306 574.494 328.378 574.494H343.678ZM358.266 583.476C358.266 583.644 358.182 583.728 358.014 583.728H357.276C357.108 583.728 357.024 583.644 357.024 583.476V567.384C357.024 567.216 357.108 567.132 357.276 567.132H358.014C358.182 567.132 358.266 567.216 358.266 567.384V583.476ZM347.34 577.158C347.34 577.338 347.37 577.458 347.43 577.518C347.49 577.578 347.604 577.614 347.772 577.626C348.36 577.65 348.984 577.656 349.644 577.644C350.316 577.62 350.988 577.584 351.66 577.536C352.332 577.476 352.986 577.404 353.622 577.32C354.27 577.236 354.87 577.14 355.422 577.032C355.626 576.984 355.746 577.056 355.782 577.248L355.872 577.752C355.908 577.92 355.83 578.028 355.638 578.076C355.23 578.172 354.702 578.262 354.054 578.346C353.418 578.43 352.728 578.508 351.984 578.58C351.24 578.64 350.478 578.688 349.698 578.724C348.918 578.748 348.192 578.754 347.52 578.742C346.98 578.73 346.608 578.604 346.404 578.364C346.2 578.124 346.098 577.752 346.098 577.248V568.392C346.098 568.224 346.182 568.14 346.35 568.14H347.088C347.256 568.14 347.34 568.224 347.34 568.392V577.158ZM371.287 577.914C371.311 578.082 371.233 578.184 371.053 578.22C370.609 578.328 370.045 578.43 369.361 578.526C368.689 578.622 367.975 578.706 367.219 578.778C366.475 578.85 365.737 578.904 365.005 578.94C364.273 578.976 363.637 578.988 363.097 578.976C362.557 578.964 362.185 578.838 361.981 578.598C361.789 578.358 361.693 577.986 361.693 577.482V569.742C361.693 569.238 361.789 568.902 361.981 568.734C362.173 568.566 362.533 568.482 363.061 568.482H369.253C369.409 568.482 369.487 568.554 369.487 568.698V569.346C369.487 569.49 369.409 569.562 369.253 569.562H363.295C363.127 569.562 363.025 569.586 362.989 569.634C362.953 569.67 362.935 569.778 362.935 569.958V577.392C362.935 577.572 362.965 577.692 363.025 577.752C363.085 577.812 363.199 577.848 363.367 577.86C363.943 577.884 364.549 577.884 365.185 577.86C365.833 577.824 366.481 577.776 367.129 577.716C367.789 577.644 368.431 577.566 369.055 577.482C369.691 577.386 370.291 577.284 370.855 577.176C371.047 577.14 371.161 577.206 371.197 577.374L371.287 577.914ZM373.843 583.476C373.843 583.644 373.759 583.728 373.591 583.728H372.853C372.685 583.728 372.601 583.644 372.601 583.476V567.384C372.601 567.216 372.685 567.132 372.853 567.132H373.591C373.759 567.132 373.843 567.216 373.843 567.384V573.936H376.327C376.399 573.936 376.459 573.96 376.507 574.008C376.567 574.044 376.597 574.098 376.597 574.17V574.782C376.597 574.842 376.567 574.896 376.507 574.944C376.459 574.992 376.399 575.016 376.327 575.016H373.843V583.476ZM378.135 581.928C378.135 581.676 378.219 581.466 378.387 581.298C378.567 581.118 378.783 581.028 379.035 581.028C379.287 581.028 379.497 581.118 379.665 581.298C379.845 581.466 379.935 581.676 379.935 581.928C379.935 582.18 379.845 582.39 379.665 582.558C379.497 582.738 379.287 582.828 379.035 582.828C378.783 582.828 378.567 582.738 378.387 582.558C378.219 582.39 378.135 582.18 378.135 581.928Z" fill="white"/>
<path d="M109.61 426.16C108.725 426.16 107.925 425.936 107.21 425.488C106.506 425.04 105.952 424.389 105.546 423.536C105.141 422.672 104.938 421.627 104.938 420.4C104.938 419.173 105.141 418.133 105.546 417.28C105.952 416.416 106.506 415.76 107.21 415.312C107.925 414.864 108.725 414.64 109.61 414.64C110.506 414.64 111.306 414.864 112.01 415.312C112.714 415.76 113.269 416.416 113.674 417.28C114.09 418.133 114.298 419.173 114.298 420.4C114.298 421.627 114.09 422.672 113.674 423.536C113.269 424.389 112.714 425.04 112.01 425.488C111.306 425.936 110.506 426.16 109.61 426.16ZM109.61 424.352C110.133 424.352 110.586 424.213 110.97 423.936C111.354 423.648 111.653 423.211 111.866 422.624C112.09 422.037 112.202 421.296 112.202 420.4C112.202 419.493 112.09 418.752 111.866 418.176C111.653 417.589 111.354 417.157 110.97 416.88C110.586 416.592 110.133 416.448 109.61 416.448C109.109 416.448 108.661 416.592 108.266 416.88C107.882 417.157 107.578 417.589 107.354 418.176C107.141 418.752 107.034 419.493 107.034 420.4C107.034 421.296 107.141 422.037 107.354 422.624C107.578 423.211 107.882 423.648 108.266 423.936C108.661 424.213 109.109 424.352 109.61 424.352Z" fill="#00B2FF"/>
<path d="M331.583 426L336.207 415.632L336.751 416.56H330.399L331.391 415.552V418.464H329.455V414.8H338.159V416.192L333.807 426H331.583ZM343.325 426.16C342.439 426.16 341.639 425.936 340.925 425.488C340.221 425.04 339.666 424.389 339.261 423.536C338.855 422.672 338.653 421.627 338.653 420.4C338.653 419.173 338.855 418.133 339.261 417.28C339.666 416.416 340.221 415.76 340.925 415.312C341.639 414.864 342.439 414.64 343.325 414.64C344.221 414.64 345.021 414.864 345.725 415.312C346.429 415.76 346.983 416.416 347.389 417.28C347.805 418.133 348.013 419.173 348.013 420.4C348.013 421.627 347.805 422.672 347.389 423.536C346.983 424.389 346.429 425.04 345.725 425.488C345.021 425.936 344.221 426.16 343.325 426.16ZM343.325 424.352C343.847 424.352 344.301 424.213 344.685 423.936C345.069 423.648 345.367 423.211 345.581 422.624C345.805 422.037 345.917 421.296 345.917 420.4C345.917 419.493 345.805 418.752 345.581 418.176C345.367 417.589 345.069 417.157 344.685 416.88C344.301 416.592 343.847 416.448 343.325 416.448C342.823 416.448 342.375 416.592 341.981 416.88C341.597 417.157 341.293 417.589 341.069 418.176C340.855 418.752 340.749 419.493 340.749 420.4C340.749 421.296 340.855 422.037 341.069 422.624C341.293 423.211 341.597 423.648 341.981 423.936C342.375 424.213 342.823 424.352 343.325 424.352ZM350.506 426L358.154 414.8H359.722L352.074 426H350.506ZM351.434 420.832C350.912 420.832 350.448 420.704 350.042 420.448C349.637 420.192 349.322 419.835 349.098 419.376C348.874 418.917 348.762 418.379 348.762 417.76C348.762 417.141 348.874 416.603 349.098 416.144C349.322 415.685 349.637 415.328 350.042 415.072C350.448 414.816 350.912 414.688 351.434 414.688C351.978 414.688 352.448 414.816 352.842 415.072C353.248 415.328 353.562 415.685 353.786 416.144C354.01 416.603 354.122 417.141 354.122 417.76C354.122 418.379 354.01 418.917 353.786 419.376C353.562 419.835 353.248 420.192 352.842 420.448C352.448 420.704 351.978 420.832 351.434 420.832ZM351.45 419.712C351.877 419.712 352.208 419.547 352.442 419.216C352.688 418.875 352.81 418.389 352.81 417.76C352.81 417.131 352.688 416.651 352.442 416.32C352.208 415.979 351.877 415.808 351.45 415.808C351.024 415.808 350.682 415.979 350.426 416.32C350.181 416.661 350.058 417.141 350.058 417.76C350.058 418.379 350.181 418.859 350.426 419.2C350.682 419.541 351.024 419.712 351.45 419.712ZM358.778 426.112C358.256 426.112 357.792 425.984 357.386 425.728C356.981 425.472 356.666 425.115 356.442 424.656C356.218 424.197 356.106 423.659 356.106 423.04C356.106 422.421 356.218 421.883 356.442 421.424C356.666 420.965 356.981 420.608 357.386 420.352C357.792 420.096 358.256 419.968 358.778 419.968C359.322 419.968 359.792 420.096 360.186 420.352C360.592 420.608 360.906 420.965 361.13 421.424C361.354 421.883 361.466 422.421 361.466 423.04C361.466 423.659 361.354 424.197 361.13 424.656C360.906 425.115 360.592 425.472 360.186 425.728C359.792 425.984 359.322 426.112 358.778 426.112ZM358.778 424.992C359.205 424.992 359.541 424.821 359.786 424.48C360.032 424.139 360.154 423.659 360.154 423.04C360.154 422.421 360.032 421.941 359.786 421.6C359.541 421.259 359.205 421.088 358.778 421.088C358.362 421.088 358.026 421.259 357.77 421.6C357.525 421.931 357.402 422.411 357.402 423.04C357.402 423.669 357.525 424.155 357.77 424.496C358.026 424.827 358.362 424.992 358.778 424.992Z" fill="#00B2FF"/>
<path d="M172.122 126H178.922V140.382H188V126H194.8V160H188V145.618H178.922V160H172.122V126ZM197.058 126L221.096 126V131.202H214.84C214.092 131.202 213.4 131.089 212.766 130.862C212.131 130.613 211.61 130.284 211.202 129.876L211.168 129.91C211.576 130.318 211.893 130.851 212.12 131.508C212.369 132.143 212.494 132.834 212.494 133.582V160H205.694V133.582C205.694 132.834 205.807 132.143 206.034 131.508C206.283 130.851 206.612 130.318 207.02 129.91L206.986 129.876C206.578 130.284 206.045 130.613 205.388 130.862C204.753 131.089 204.062 131.202 203.314 131.202H197.058V126ZM223.354 126H231.99L237.26 154.492H237.566L242.87 126L251.472 125.966V160H244.672V145.414C244.672 142.83 244.684 140.722 244.706 139.09C244.729 137.435 244.763 136.098 244.808 135.078C244.876 134.058 244.944 133.287 245.012 132.766C245.103 132.245 245.205 131.825 245.318 131.508L245.284 131.474C245.148 131.61 244.99 131.916 244.808 132.392C244.627 132.868 244.4 133.571 244.128 134.5C243.879 135.407 243.584 136.585 243.244 138.036C242.927 139.464 242.564 141.198 242.156 143.238L238.79 160H236.07L232.704 143.238C232.296 141.198 231.922 139.464 231.582 138.036C231.242 136.585 230.936 135.407 230.664 134.5C230.415 133.571 230.2 132.868 230.018 132.392C229.837 131.916 229.678 131.61 229.542 131.474L229.508 131.508C229.622 131.825 229.724 132.222 229.814 132.698C229.905 133.151 229.973 133.718 230.018 134.398C230.064 135.078 230.098 135.883 230.12 136.812C230.143 137.741 230.154 138.818 230.154 140.042V160H223.354V126ZM253.702 126H260.502V152.418C260.502 153.166 260.377 153.869 260.128 154.526C259.901 155.161 259.584 155.682 259.176 156.09L259.21 156.124C259.618 155.716 260.139 155.399 260.774 155.172C261.431 154.923 262.134 154.798 262.882 154.798L271.62 154.798V160L253.702 160V126ZM293.27 126V131.202H284.226C283.501 131.202 282.81 131.089 282.152 130.862C281.518 130.613 280.996 130.284 280.588 129.876L280.554 129.91L280.418 142.218H280.554C280.69 141.153 280.951 140.235 281.336 139.464C281.722 138.671 282.22 138.025 282.832 137.526C283.444 137.005 284.147 136.619 284.94 136.37C285.756 136.121 286.64 135.996 287.592 135.996C289.927 135.996 291.627 136.665 292.692 138.002C293.78 139.339 294.324 141.266 294.324 143.782V150.582C294.324 153.778 293.44 156.226 291.672 157.926C289.904 159.603 287.354 160.442 284.022 160.442C280.668 160.442 278.129 159.615 276.406 157.96C274.706 156.283 273.856 153.903 273.856 150.82V148.508H280.554V150.922C280.554 152.259 280.86 153.313 281.472 154.084C282.107 154.855 282.98 155.24 284.09 155.24C285.178 155.24 286.017 154.843 286.606 154.05C287.218 153.257 287.524 152.112 287.524 150.616V144.53C287.524 143.487 287.23 142.615 286.64 141.912C286.074 141.209 285.28 140.858 284.26 140.858C283.104 140.858 282.198 141.187 281.54 141.844C280.883 142.501 280.554 143.306 280.554 144.258H273.856V126H293.27Z" fill="black"/>
<path d="M187.648 93V83.912H184.064V81.8H193.824V83.912H190.24V93H187.648ZM198.44 93.128C197.458 93.128 196.594 92.936 195.848 92.552C195.112 92.168 194.541 91.6453 194.136 90.984C193.73 90.312 193.528 89.5493 193.528 88.696C193.528 87.832 193.725 87.0693 194.12 86.408C194.525 85.736 195.074 85.2133 195.768 84.84C196.461 84.456 197.245 84.264 198.12 84.264C198.962 84.264 199.72 84.4453 200.392 84.808C201.074 85.16 201.613 85.672 202.008 86.344C202.402 87.0053 202.6 87.8 202.6 88.728C202.6 88.824 202.594 88.936 202.584 89.064C202.573 89.1813 202.562 89.2933 202.552 89.4H195.56V87.944H201.24L200.28 88.376C200.28 87.928 200.189 87.5387 200.008 87.208C199.826 86.8773 199.576 86.6213 199.256 86.44C198.936 86.248 198.562 86.152 198.136 86.152C197.709 86.152 197.33 86.248 197 86.44C196.68 86.6213 196.429 86.8827 196.248 87.224C196.066 87.5547 195.976 87.9493 195.976 88.408V88.792C195.976 89.2613 196.077 89.6773 196.28 90.04C196.493 90.392 196.786 90.664 197.16 90.856C197.544 91.0373 197.992 91.128 198.504 91.128C198.962 91.128 199.362 91.0587 199.704 90.92C200.056 90.7813 200.376 90.5733 200.664 90.296L201.992 91.736C201.597 92.184 201.101 92.5307 200.504 92.776C199.906 93.0107 199.218 93.128 198.44 93.128ZM208.421 93.128C207.493 93.128 206.667 92.9413 205.941 92.568C205.216 92.184 204.645 91.656 204.229 90.984C203.824 90.312 203.621 89.5493 203.621 88.696C203.621 87.832 203.824 87.0693 204.229 86.408C204.645 85.736 205.216 85.2133 205.941 84.84C206.667 84.456 207.493 84.264 208.421 84.264C209.328 84.264 210.117 84.456 210.789 84.84C211.461 85.2133 211.957 85.752 212.277 86.456L210.341 87.496C210.117 87.0907 209.835 86.792 209.493 86.6C209.163 86.408 208.8 86.312 208.405 86.312C207.979 86.312 207.595 86.408 207.253 86.6C206.912 86.792 206.64 87.064 206.437 87.416C206.245 87.768 206.149 88.1947 206.149 88.696C206.149 89.1973 206.245 89.624 206.437 89.976C206.64 90.328 206.912 90.6 207.253 90.792C207.595 90.984 207.979 91.08 208.405 91.08C208.8 91.08 209.163 90.9893 209.493 90.808C209.835 90.616 210.117 90.312 210.341 89.896L212.277 90.952C211.957 91.6453 211.461 92.184 210.789 92.568C210.117 92.9413 209.328 93.128 208.421 93.128ZM218.9 84.264C219.582 84.264 220.19 84.4027 220.724 84.68C221.268 84.9467 221.694 85.3627 222.004 85.928C222.313 86.4827 222.468 87.1973 222.468 88.072V93H219.972V88.456C219.972 87.7627 219.817 87.2507 219.508 86.92C219.209 86.5893 218.782 86.424 218.228 86.424C217.833 86.424 217.476 86.5093 217.156 86.68C216.846 86.84 216.601 87.0907 216.42 87.432C216.249 87.7733 216.164 88.2107 216.164 88.744V93H213.668V81.128H216.164V86.776L215.604 86.056C215.913 85.48 216.356 85.0373 216.932 84.728C217.508 84.4187 218.164 84.264 218.9 84.264ZM229.962 84.264C230.645 84.264 231.253 84.4027 231.786 84.68C232.33 84.9467 232.757 85.3627 233.066 85.928C233.375 86.4827 233.53 87.1973 233.53 88.072V93H231.034V88.456C231.034 87.7627 230.879 87.2507 230.57 86.92C230.271 86.5893 229.845 86.424 229.29 86.424C228.895 86.424 228.538 86.5093 228.218 86.68C227.909 86.84 227.663 87.0907 227.482 87.432C227.311 87.7733 227.226 88.2107 227.226 88.744V93H224.73V84.392H227.114V86.776L226.666 86.056C226.975 85.48 227.418 85.0373 227.994 84.728C228.57 84.4187 229.226 84.264 229.962 84.264ZM239.951 93.128C239.034 93.128 238.218 92.936 237.503 92.552C236.799 92.168 236.239 91.6453 235.823 90.984C235.418 90.312 235.215 89.5493 235.215 88.696C235.215 87.832 235.418 87.0693 235.823 86.408C236.239 85.736 236.799 85.2133 237.503 84.84C238.218 84.456 239.034 84.264 239.951 84.264C240.858 84.264 241.668 84.456 242.383 84.84C243.098 85.2133 243.658 85.7307 244.063 86.392C244.468 87.0533 244.671 87.8213 244.671 88.696C244.671 89.5493 244.468 90.312 244.063 90.984C243.658 91.6453 243.098 92.168 242.383 92.552C241.668 92.936 240.858 93.128 239.951 93.128ZM239.951 91.08C240.367 91.08 240.74 90.984 241.071 90.792C241.402 90.6 241.663 90.328 241.855 89.976C242.047 89.6133 242.143 89.1867 242.143 88.696C242.143 88.1947 242.047 87.768 241.855 87.416C241.663 87.064 241.402 86.792 241.071 86.6C240.74 86.408 240.367 86.312 239.951 86.312C239.535 86.312 239.162 86.408 238.831 86.6C238.5 86.792 238.234 87.064 238.031 87.416C237.839 87.768 237.743 88.1947 237.743 88.696C237.743 89.1867 237.839 89.6133 238.031 89.976C238.234 90.328 238.5 90.6 238.831 90.792C239.162 90.984 239.535 91.08 239.951 91.08ZM246.34 93V81.128H248.836V93H246.34ZM255.248 93.128C254.331 93.128 253.515 92.936 252.8 92.552C252.096 92.168 251.536 91.6453 251.12 90.984C250.715 90.312 250.512 89.5493 250.512 88.696C250.512 87.832 250.715 87.0693 251.12 86.408C251.536 85.736 252.096 85.2133 252.8 84.84C253.515 84.456 254.331 84.264 255.248 84.264C256.155 84.264 256.965 84.456 257.68 84.84C258.395 85.2133 258.955 85.7307 259.36 86.392C259.765 87.0533 259.968 87.8213 259.968 88.696C259.968 89.5493 259.765 90.312 259.36 90.984C258.955 91.6453 258.395 92.168 257.68 92.552C256.965 92.936 256.155 93.128 255.248 93.128ZM255.248 91.08C255.664 91.08 256.037 90.984 256.368 90.792C256.699 90.6 256.96 90.328 257.152 89.976C257.344 89.6133 257.44 89.1867 257.44 88.696C257.44 88.1947 257.344 87.768 257.152 87.416C256.96 87.064 256.699 86.792 256.368 86.6C256.037 86.408 255.664 86.312 255.248 86.312C254.832 86.312 254.459 86.408 254.128 86.6C253.797 86.792 253.531 87.064 253.328 87.416C253.136 87.768 253.04 88.1947 253.04 88.696C253.04 89.1867 253.136 89.6133 253.328 89.976C253.531 90.328 253.797 90.6 254.128 90.792C254.459 90.984 254.832 91.08 255.248 91.08ZM265.684 96.232C264.874 96.232 264.09 96.1307 263.332 95.928C262.586 95.736 261.962 95.4427 261.46 95.048L262.452 93.256C262.815 93.5547 263.274 93.7893 263.828 93.96C264.394 94.1413 264.948 94.232 265.492 94.232C266.378 94.232 267.018 94.0347 267.412 93.64C267.818 93.2453 268.02 92.6587 268.02 91.88V90.584L268.18 88.424L268.148 86.248V84.392H270.516V91.56C270.516 93.16 270.1 94.3387 269.268 95.096C268.436 95.8533 267.242 96.232 265.684 96.232ZM265.3 92.584C264.5 92.584 263.775 92.4133 263.124 92.072C262.484 91.72 261.967 91.2347 261.572 90.616C261.188 89.9867 260.996 89.256 260.996 88.424C260.996 87.5813 261.188 86.8507 261.572 86.232C261.967 85.6027 262.484 85.1173 263.124 84.776C263.775 84.4347 264.5 84.264 265.3 84.264C266.026 84.264 266.666 84.4133 267.22 84.712C267.775 85 268.207 85.4533 268.516 86.072C268.826 86.68 268.98 87.464 268.98 88.424C268.98 89.3733 268.826 90.1573 268.516 90.776C268.207 91.384 267.775 91.8373 267.22 92.136C266.666 92.4347 266.026 92.584 265.3 92.584ZM265.796 90.536C266.234 90.536 266.623 90.4507 266.964 90.28C267.306 90.0987 267.572 89.848 267.764 89.528C267.956 89.208 268.052 88.84 268.052 88.424C268.052 87.9973 267.956 87.6293 267.764 87.32C267.572 87 267.306 86.7547 266.964 86.584C266.623 86.4027 266.234 86.312 265.796 86.312C265.359 86.312 264.97 86.4027 264.628 86.584C264.287 86.7547 264.015 87 263.812 87.32C263.62 87.6293 263.524 87.9973 263.524 88.424C263.524 88.84 263.62 89.208 263.812 89.528C264.015 89.848 264.287 90.0987 264.628 90.28C264.97 90.4507 265.359 90.536 265.796 90.536ZM273.928 96.232C273.48 96.232 273.037 96.1627 272.6 96.024C272.162 95.8853 271.805 95.6933 271.527 95.448L272.44 93.672C272.632 93.8427 272.85 93.976 273.096 94.072C273.352 94.168 273.602 94.216 273.848 94.216C274.2 94.216 274.477 94.1307 274.68 93.96C274.893 93.8 275.085 93.528 275.256 93.144L275.704 92.088L275.896 91.816L278.984 84.392H281.384L277.496 93.528C277.218 94.2213 276.898 94.7653 276.536 95.16C276.184 95.5547 275.789 95.832 275.352 95.992C274.925 96.152 274.45 96.232 273.928 96.232ZM275.4 93.336L271.559 84.392H274.136L277.112 91.592L275.4 93.336Z" fill="#284C5D"/>
<rect x="229" y="399" width="133" height="8" rx="4" fill="#98DDFB"/>
<rect x="104" y="399" width="201" height="8" rx="4" fill="#00B2FF"/>
<path fill-rule="evenodd" clip-rule="evenodd" d="M298 218C298 213.582 294.418 210 290 210H176C171.582 210 168 213.582 168 218V332C168 336.418 171.582 340 176 340H290C294.418 340 298 336.418 298 332V218Z" fill="#E14E1D"/>
<path d="M196.168 233.832L200.128 278.255H251.043L249.335 297.309L232.941 301.741L216.578 297.315L215.484 285.081H200.739L202.848 308.665L232.938 317.023L263.066 308.665L267.105 263.567H213.563L212.219 248.524H268.436L269.752 233.832H196.168Z" fill="white"/>
<path d="M232.96 233.832H196.168L200.128 278.255H232.96V263.567H213.563L212.219 248.524H232.96V233.832ZM232.96 301.735L232.941 301.741L216.578 297.315L215.484 285.081H200.739L202.848 308.665L232.938 317.023L232.96 317.016L232.96 301.735Z" fill="#EBEBEB"/>
</svg>
