<svg width="64" height="64" viewBox="0 0 64 64" fill="none" xmlns="http://www.w3.org/2000/svg">
<mask id="path-1-outside-1_1616_2271" maskUnits="userSpaceOnUse" x="0" y="0" width="64" height="64" fill="black">
<rect fill="white" width="64" height="64"/>
<path fill-rule="evenodd" clip-rule="evenodd" d="M62 10C62 5.58172 58.4183 2 54 2H10C5.58172 2 2 5.58172 2 10V54C2 58.4183 5.58172 62 10 62H54C58.4183 62 62 58.4183 62 54V10Z"/>
</mask>
<path fill-rule="evenodd" clip-rule="evenodd" d="M62 10C62 5.58172 58.4183 2 54 2H10C5.58172 2 2 5.58172 2 10V54C2 58.4183 5.58172 62 10 62H54C58.4183 62 62 58.4183 62 54V10Z" fill="#F7DF1E" stroke="black" stroke-width="2"/>
<path d="M54 4C57.3137 4 60 6.68629 60 10H64C64 4.47715 59.5228 0 54 0V4ZM10 4H54V0H10V4ZM4 10C4 6.68629 6.68629 4 10 4V0C4.47715 0 0 4.47715 0 10H4ZM4 54V10H0V54H4ZM10 60C6.68629 60 4 57.3137 4 54H0C0 59.5228 4.47715 64 10 64V60ZM54 60H10V64H54V60ZM60 54C60 57.3137 57.3137 60 54 60V64C59.5228 64 64 59.5228 64 54H60ZM60 10V54H64V10H60Z" fill="black" mask="url(#path-1-outside-1_1616_2271)"/>
<path d="M14.7737 47.6416L19.3651 44.8628C20.251 46.4334 21.0568 47.7623 22.9897 47.7623C24.8424 47.7623 26.0108 47.0376 26.0108 44.2185V25.0471H31.6491V44.2982C31.6491 50.1381 28.2259 52.7964 23.2313 52.7964C18.7208 52.7964 16.1026 50.4604 14.7734 47.6411M34.7117 47.0373L39.3027 44.3793C40.5113 46.353 42.0821 47.8028 44.8609 47.8028C47.1973 47.8028 48.687 46.6347 48.687 45.0236C48.687 43.0905 47.1566 42.4056 44.5789 41.2783L43.1696 40.6736C39.1016 38.9423 36.4032 36.7673 36.4032 32.1759C36.4032 27.9468 39.6252 24.7246 44.6598 24.7246C48.2443 24.7246 50.822 25.9734 52.6745 29.2356L48.2841 32.0552C47.3173 30.3234 46.2706 29.6387 44.6595 29.6387C43.0081 29.6387 41.9609 30.6859 41.9609 32.0552C41.9609 33.7466 43.0081 34.4317 45.4245 35.4789L46.8341 36.0829C51.627 38.1372 54.3254 40.2313 54.3254 44.9432C54.3254 50.0184 50.3382 52.7971 44.9816 52.7971C39.7459 52.7971 36.3627 50.3001 34.7115 47.0376" fill="black"/>
</svg>
