<svg width="64" height="64" viewBox="0 0 64 64" fill="none" xmlns="http://www.w3.org/2000/svg">
<mask id="path-1-outside-1_1616_2276" maskUnits="userSpaceOnUse" x="0" y="0" width="64" height="64" fill="black" >
<rect fill="white" width="64" height="64"/>
<path fill-rule="evenodd" clip-rule="evenodd" d="M62 10C62 5.58172 58.4183 2 54 2H10C5.58172 2 2 5.58172 2 10V54C2 58.4183 5.58172 62 10 62H54C58.4183 62 62 58.4183 62 54V10Z"/>
</mask>
<path fill-rule="evenodd" clip-rule="evenodd" d="M62 10C62 5.58172 58.4183 2 54 2H10C5.58172 2 2 5.58172 2 10V54C2 58.4183 5.58172 62 10 62H54C58.4183 62 62 58.4183 62 54V10Z" fill="#E14E1D" stroke="black" stroke-width="2"/>
<path d="M54 4C57.3137 4 60 6.68629 60 10H64C64 4.47715 59.5228 0 54 0V4ZM10 4H54V0H10V4ZM4 10C4 6.68629 6.68629 4 10 4V0C4.47715 0 0 4.47715 0 10H4ZM4 54V10H0V54H4ZM10 60C6.68629 60 4 57.3137 4 54H0C0 59.5228 4.47715 64 10 64V60ZM54 60H10V64H54V60ZM60 54C60 57.3137 57.3137 60 54 60V64C59.5228 64 64 59.5228 64 54H60ZM60 10V54H64V10H60Z" fill="black" mask="url(#path-1-outside-1_1616_2276)"/>
<path d="M15 13L16.8276 33.503H40.3271L39.5385 42.297L31.9722 44.3428L24.4202 42.3L23.9152 36.6534H17.1099L18.0831 47.5384L31.9708 51.3956L45.876 47.5384L47.7403 26.7238H23.0286L22.4082 19.7807H48.3546L48.9619 13H15Z" fill="white"/>
<path d="M31.9809 13H15L16.8276 33.503H31.9809V26.7238H23.0286L22.4082 19.7807H31.9809V13ZM31.9809 44.3398L31.9722 44.3428L24.4202 42.3L23.9152 36.6534H17.1099L18.0831 47.5384L31.9708 51.3956L31.9812 51.3927L31.9809 44.3398Z" fill="#EBEBEB"/>
</svg>
