<svg width="64" height="64" viewBox="0 0 64 64" fill="none" xmlns="http://www.w3.org/2000/svg">
<mask id="path-1-outside-1_1616_2275" maskUnits="userSpaceOnUse" x="0" y="0" width="64" height="64" fill="black">
<rect fill="white" width="64" height="64"/>
<path fill-rule="evenodd" clip-rule="evenodd" d="M62 10C62 5.58172 58.4183 2 54 2H10C5.58172 2 2 5.58172 2 10V54C2 58.4183 5.58172 62 10 62H54C58.4183 62 62 58.4183 62 54V10Z"/>
</mask>
<path fill-rule="evenodd" clip-rule="evenodd" d="M62 10C62 5.58172 58.4183 2 54 2H10C5.58172 2 2 5.58172 2 10V54C2 58.4183 5.58172 62 10 62H54C58.4183 62 62 58.4183 62 54V10Z" fill="#0277BD" stroke="black" stroke-width="2"/>
<path d="M54 4C57.3137 4 60 6.68629 60 10H64C64 4.47715 59.5228 0 54 0V4ZM10 4H54V0H10V4ZM4 10C4 6.68629 6.68629 4 10 4V0C4.47715 0 0 4.47715 0 10H4ZM4 54V10H0V54H4ZM10 60C6.68629 60 4 57.3137 4 54H0C0 59.5228 4.47715 64 10 64V60ZM54 60H10V64H54V60ZM60 54C60 57.3137 57.3137 60 54 60V64C59.5228 64 64 59.5228 64 54H60ZM60 10V54H64V10H60Z" fill="black" mask="url(#path-1-outside-1_1616_2275)"/>
<path d="M16.2211 26.7229L16.8286 33.5029H32.0013V26.7229H16.2211ZM32.0011 13H15L15.6164 19.78H32.0011V13ZM32.0011 51.3855V44.3314L31.9713 44.3393L24.4204 42.3005L23.9377 36.893H17.1315L18.0814 47.5387L31.9699 51.3942L32.0011 51.3855Z" fill="#EBEBEB"/>
<path d="M40.3235 33.5029L39.5364 42.2961L31.9746 44.3372V51.3908L45.8741 47.5387L45.976 46.3931L47.5692 28.5437L47.7346 26.7229L48.9587 13H31.9746V19.78H41.5283L40.9114 26.7229H31.9746V33.5029H40.3235Z" fill="white"/>
</svg>
