<svg width="64" height="64" viewBox="0 0 64 64" fill="none" xmlns="http://www.w3.org/2000/svg">
<mask id="path-1-outside-1_1616_2268" maskUnits="userSpaceOnUse" x="0" y="0" width="64" height="64" fill="black">
<rect fill="white" width="64" height="64"/>
<path fill-rule="evenodd" clip-rule="evenodd" d="M62 10C62 5.58172 58.4183 2 54 2H10C5.58172 2 2 5.58172 2 10V54C2 58.4183 5.58172 62 10 62H54C58.4183 62 62 58.4183 62 54V10Z"/>
</mask>
<path fill-rule="evenodd" clip-rule="evenodd" d="M62 10C62 5.58172 58.4183 2 54 2H10C5.58172 2 2 5.58172 2 10V54C2 58.4183 5.58172 62 10 62H54C58.4183 62 62 58.4183 62 54V10Z" fill="#5A1531" stroke="black" stroke-width="2"/>
<path d="M54 4C57.3137 4 60 6.68629 60 10H64C64 4.47715 59.5228 0 54 0V4ZM10 4H54V0H10V4ZM4 10C4 6.68629 6.68629 4 10 4V0C4.47715 0 0 4.47715 0 10H4ZM4 54V10H0V54H4ZM10 60C6.68629 60 4 57.3137 4 54H0C0 59.5228 4.47715 64 10 64V60ZM54 60H10V64H54V60ZM60 54C60 57.3137 57.3137 60 54 60V64C59.5228 64 64 59.5228 64 54H60ZM60 10V54H64V10H60Z" fill="black" mask="url(#path-1-outside-1_1616_2268)"/>
<path d="M24.0545 19.5616V45.8582C24.0545 46.1335 23.9337 46.2712 23.6921 46.2712H18.8218C18.6068 46.2712 18.4995 46.1335 18.5 45.8582V19.5616C18.5 19.3416 18.6207 19.2315 18.8621 19.2313H23.7324C23.7734 19.2254 23.8151 19.2286 23.8547 19.2409C23.8943 19.2532 23.9308 19.2741 23.9617 19.3023C23.9926 19.3305 24.0171 19.3653 24.0336 19.4042C24.0501 19.4432 24.0581 19.4853 24.057 19.5277L24.0545 19.5616ZM38.723 46.6813L38.4638 46.6839C36.6113 46.7129 34.7757 46.3181 33.0905 45.5282C31.5207 44.783 30.2084 43.5665 29.3272 42.0397C28.4369 40.523 27.9809 38.6328 27.9594 36.369L27.9587 36.1984C27.9436 34.3037 28.4157 32.4384 29.3274 30.7904C30.2413 29.1569 31.5742 27.8115 33.1813 26.9003L33.312 26.8272C35.0558 25.8365 37.1622 25.3412 39.6313 25.3412L39.6833 25.3414L39.7988 25.344L39.9296 25.3493L40.0756 25.357L40.2366 25.3674L40.4127 25.3806L40.8104 25.414L40.9191 25.4236V17.2914C40.9191 17.0989 40.9996 17.0025 41.1606 17.0022H46.2322C46.265 16.9974 46.2984 17.0005 46.3299 17.0112C46.3613 17.0219 46.3899 17.04 46.4133 17.0641C46.4367 17.0881 46.4544 17.1174 46.4648 17.1496C46.4753 17.1819 46.4783 17.2162 46.4736 17.2498V41.6476C46.4752 42.1574 46.4953 42.6669 46.5341 43.1751L46.572 43.7073L46.6056 44.2027L46.6346 44.6611C46.6396 44.7469 46.6192 44.8322 46.5761 44.9059C46.5331 44.9795 46.4693 45.0382 46.3932 45.0741C45.0848 45.6337 43.7221 46.0487 42.328 46.3123C41.1385 46.5377 39.9327 46.6611 38.7233 46.6813M40.9194 41.565V30.295C40.7019 30.2346 40.4797 30.1931 40.2554 30.1712C39.9812 30.1428 39.7058 30.129 39.4302 30.1299C38.4533 30.12 37.4881 30.3462 36.6127 30.7904C35.7601 31.2255 35.0321 31.8797 34.4996 32.6895C33.9493 33.515 33.6742 34.6021 33.6744 35.9508C33.6549 36.8506 33.7982 37.7463 34.097 38.5926C34.3402 39.2746 34.7248 39.8943 35.2241 40.4092C35.702 40.8829 36.2808 41.2362 36.9146 41.4412C37.5841 41.6634 38.2838 41.775 38.9874 41.7717C39.3629 41.7717 39.7117 41.7578 40.0339 41.7301C40.2909 41.7103 40.5457 41.6668 40.7952 41.6003L40.9194 41.565Z" fill="#FF3366"/>
</svg>
