<svg width="64" height="64" viewBox="0 0 64 64" fill="none" xmlns="http://www.w3.org/2000/svg">
<mask id="path-1-outside-1_1616_2269" maskUnits="userSpaceOnUse" x="0" y="0" width="64" height="64" fill="black">
<rect fill="white" width="64" height="64"/>
<path fill-rule="evenodd" clip-rule="evenodd" d="M62 10C62 5.58172 58.4183 2 54 2H10C5.58172 2 2 5.58172 2 10V54C2 58.4183 5.58172 62 10 62H54C58.4183 62 62 58.4183 62 54V10Z"/>
</mask>
<path fill-rule="evenodd" clip-rule="evenodd" d="M62 10C62 5.58172 58.4183 2 54 2H10C5.58172 2 2 5.58172 2 10V54C2 58.4183 5.58172 62 10 62H54C58.4183 62 62 58.4183 62 54V10Z" fill="black" stroke="black" stroke-width="2"/>
<path d="M54 4C57.3137 4 60 6.68629 60 10H64C64 4.47715 59.5228 0 54 0V4ZM10 4H54V0H10V4ZM4 10C4 6.68629 6.68629 4 10 4V0C4.47715 0 0 4.47715 0 10H4ZM4 54V10H0V54H4ZM10 60C6.68629 60 4 57.3137 4 54H0C0 59.5228 4.47715 64 10 64V60ZM54 60H10V64H54V60ZM60 54C60 57.3137 57.3137 60 54 60V64C59.5228 64 64 59.5228 64 54H60ZM60 10V54H64V10H60Z" fill="black" mask="url(#path-1-outside-1_1616_2269)"/>
<rect x="8" y="9" width="48" height="45" fill="white"/>
<path d="M30.2273 36.2273C30.2016 39.232 28.0818 41.3236 21.3636 40.8909V31.7C27.7929 31.4012 30.1433 32.6702 30.2273 36.2273ZM54 2C58.4183 2 62 5.58172 62 10V54C62 58.4183 58.4183 62 54 62H10C5.58172 62 2 58.4183 2 54V10C2 5.58172 5.58172 2 10 2H54ZM31.1 29.2182C36.0179 25.1603 34.8406 15.1858 24.2545 15.5818C21.5818 15.5818 17.9545 15.6636 16.7273 15.7182V44.9818C18.1182 45.0091 21.0363 45.0636 23.9273 45.0636C36.4095 45.4971 38.1064 32.7143 31.1 29.2182ZM49.4273 22.9205C45.2163 22.9205 41.2682 24.0966 39.2121 24.903C39.3637 26.5338 39.3636 27.4058 39.3636 27.7455V45.0909H44.2455V27.8819C45.1589 27.5057 47.7596 27.2872 49.4273 27.3589V22.9205ZM27.5 27.691C28.4273 26.9001 29.1636 25.7274 29.1636 23.8183C28.9702 20.7242 27.3486 19.3168 21.3636 19.8092V27.6365C21.3636 27.6365 26.5658 27.543 27.5 27.691Z" fill="#262323"/>
</svg>
