<svg width="64" height="64" viewBox="0 0 64 64" fill="none" xmlns="http://www.w3.org/2000/svg">
<mask id="path-1-outside-1_1616_2272" maskUnits="userSpaceOnUse" x="0" y="0" width="64" height="64" fill="black">
<rect fill="white" width="64" height="64"/>
<path fill-rule="evenodd" clip-rule="evenodd" d="M62 10C62 5.58172 58.4183 2 54 2H10C5.58172 2 2 5.58172 2 10V54C2 58.4183 5.58172 62 10 62H54C58.4183 62 62 58.4183 62 54V10Z"/>
</mask>
<path fill-rule="evenodd" clip-rule="evenodd" d="M62 10C62 5.58172 58.4183 2 54 2H10C5.58172 2 2 5.58172 2 10V54C2 58.4183 5.58172 62 10 62H54C58.4183 62 62 58.4183 62 54V10Z" fill="#344E9E" stroke="black" stroke-width="2"/>
<path d="M54 4C57.3137 4 60 6.68629 60 10H64C64 4.47715 59.5228 0 54 0V4ZM10 4H54V0H10V4ZM4 10C4 6.68629 6.68629 4 10 4V0C4.47715 0 0 4.47715 0 10H4ZM4 54V10H0V54H4ZM10 60C6.68629 60 4 57.3137 4 54H0C0 59.5228 4.47715 64 10 64V60ZM54 60H10V64H54V60ZM60 54C60 57.3137 57.3137 60 54 60V64C59.5228 64 64 59.5228 64 54H60ZM60 10V54H64V10H60Z" fill="black" mask="url(#path-1-outside-1_1616_2272)"/>
<mask id="mask0_1616_2272" style="mask-type:luminance" maskUnits="userSpaceOnUse" x="13" y="13" width="39" height="39">
<path d="M13 13H51.1875V51.1875H13V13Z" fill="white"/>
</mask>
<g mask="url(#mask0_1616_2272)">
<path fill-rule="evenodd" clip-rule="evenodd" d="M48.1805 42.7458C46.1035 42.6881 44.4922 42.9009 43.1419 43.469C42.753 43.6252 42.1291 43.6252 42.0777 44.1146C42.2856 44.32 42.3107 44.656 42.4929 44.9407C42.8041 45.4573 43.3502 46.1532 43.8433 46.5143L45.5053 47.7019C46.5181 48.3208 47.6607 48.6825 48.6475 49.302C49.219 49.6635 49.7901 50.1281 50.3617 50.5157C50.6527 50.7221 50.829 51.0584 51.1929 51.1867V51.1087C51.0113 50.8772 50.9589 50.5418 50.7779 50.2825L49.9978 49.5345C49.2453 48.528 48.3097 47.6497 47.2969 46.9278C46.4657 46.3598 44.6484 45.5857 44.3106 44.6312L44.2595 44.5733C44.83 44.5156 45.5053 44.3147 46.0511 44.1598C46.9348 43.9283 47.7392 43.9793 48.6475 43.7472L49.8949 43.3857V43.1542C49.4273 42.6898 49.0898 42.0701 48.5968 41.6318C47.2725 40.4961 45.8171 39.3859 44.3106 38.4569C43.5057 37.941 42.4666 37.6047 41.6097 37.1668C41.2972 37.0117 40.7785 36.9343 40.5969 36.6763C40.1283 36.1095 39.8692 35.3601 39.5317 34.6887L37.4023 30.1978C36.9349 29.1912 36.6485 28.1845 36.0781 27.2555C33.4026 22.8675 30.4933 20.2094 26.0263 17.6021C25.0658 17.06 23.9232 16.8269 22.7082 16.5434L20.7606 16.4395C20.3444 16.259 19.9292 15.7682 19.5656 15.5357C18.0852 14.6065 14.2673 12.5936 13.1755 15.2466C12.4744 16.9241 14.2149 18.5757 14.8057 19.4279C15.248 20.0215 15.8185 20.6923 16.131 21.3636C16.3056 21.8021 16.364 22.2671 16.5462 22.7317C16.9612 23.8672 17.3511 25.1325 17.8966 26.1911C18.1876 26.7331 18.4933 27.3017 18.857 27.7918C19.0649 28.081 19.4287 28.2049 19.5062 28.6693C19.1423 29.1858 19.1173 29.9594 18.9094 30.6056C17.974 33.5222 18.3378 37.1356 19.6621 39.283C20.0783 39.928 21.0591 41.3481 22.39 40.8057C23.5587 40.3411 23.298 38.87 23.6355 37.5792C23.714 37.2699 23.6618 37.0633 23.8171 36.8562V36.9141L24.8823 39.0563C25.6874 40.3209 27.0904 41.6375 28.2585 42.5156C28.8814 42.9802 29.3751 43.7809 30.1539 44.0643V43.9863H30.1028C29.9466 43.7548 29.7126 43.6506 29.5049 43.4701C29.0375 43.0057 28.5182 42.4375 28.1544 41.9216C27.0641 40.4764 26.1037 38.8757 25.2462 37.2241C24.8301 36.4241 24.4663 35.5464 24.1298 34.7464C23.9726 34.4364 23.9726 33.9712 23.7136 33.8174C23.3234 34.3842 22.7532 34.876 22.4661 35.5725C21.9724 36.6821 21.9213 38.0502 21.7397 39.47C21.6349 39.4958 21.6814 39.47 21.6349 39.5277C20.8048 39.3219 20.5183 38.469 20.2071 37.7471C19.4281 35.9145 19.2976 32.9721 19.9729 30.8555C20.1545 30.3134 20.9346 28.6099 20.6231 28.0937C20.4662 27.6032 19.9479 27.3198 19.6615 26.9321C19.3239 26.4416 18.9614 25.8226 18.7273 25.2805C18.1045 23.8343 17.793 22.2347 17.1171 20.7893C16.8046 20.118 16.2598 19.4209 15.8179 18.802C15.3242 18.1049 14.78 17.6142 14.3901 16.7887C14.2603 16.4995 14.0787 16.0402 14.2864 15.7301C14.3377 15.5236 14.4423 15.4409 14.6491 15.3946C14.9865 15.1053 15.9484 15.4721 16.2859 15.6259C17.2463 16.0135 18.0514 16.3746 18.8566 16.916C19.2204 17.174 19.6103 17.6647 20.0777 17.7943H20.6238C21.455 17.9746 22.3893 17.852 23.1675 18.0835C24.5444 18.523 25.7906 19.1676 26.9082 19.8651C30.31 22.0074 33.1158 25.0531 35.0109 28.693C35.3224 29.2866 35.4522 29.8287 35.7386 30.4482C36.2847 31.7134 36.96 33.0035 37.5041 34.2431C38.0502 35.4562 38.5694 36.6961 39.3484 37.7025C39.7383 38.2446 41.2959 38.528 41.9969 38.8121C42.5167 39.0435 43.3212 39.2519 43.7898 39.5353C44.6721 40.0773 45.5553 40.6968 46.3859 41.2904C46.8009 41.5993 48.1003 42.2449 48.1775 42.7598L48.1805 42.7458ZM21.6947 20.3164C21.336 20.3132 20.9784 20.3566 20.6308 20.4454V20.5033H20.6819C20.8898 20.9163 21.2537 21.2004 21.5131 21.5619L22.111 22.8009L22.1623 22.7432C22.5259 22.4852 22.7082 22.0722 22.7082 21.4533C22.5523 21.2728 22.5266 21.0916 22.3967 20.911C22.2408 20.6531 21.9033 20.5234 21.6947 20.3176V20.3164Z" fill="white"/>
</g>
</svg>
