<svg width="64" height="64" viewBox="0 0 64 64" fill="none" xmlns="http://www.w3.org/2000/svg">
<mask id="path-1-outside-1_1616_2267" maskUnits="userSpaceOnUse" x="0" y="0" width="64" height="64" fill="black">
<rect fill="white" width="64" height="64"/>
<path fill-rule="evenodd" clip-rule="evenodd" d="M62 10C62 5.58172 58.4183 2 54 2L10 2C5.58172 2 2 5.58172 2 10L2 54C2 58.4183 5.58172 62 10 62H54C58.4183 62 62 58.4183 62 54V10Z"/>
</mask>
<path fill-rule="evenodd" clip-rule="evenodd" d="M62 10C62 5.58172 58.4183 2 54 2L10 2C5.58172 2 2 5.58172 2 10L2 54C2 58.4183 5.58172 62 10 62H54C58.4183 62 62 58.4183 62 54V10Z" fill="#4C0E0E" stroke="black" stroke-width="2"/>
<path d="M54 4C57.3137 4 60 6.68629 60 10H64C64 4.47715 59.5228 0 54 0V4ZM10 4L54 4V0L10 0V4ZM4 10C4 6.68629 6.68629 4 10 4V0C4.47715 0 0 4.47715 0 10H4ZM4 54L4 10H0L0 54H4ZM10 60C6.68629 60 4 57.3137 4 54H0C0 59.5228 4.47715 64 10 64V60ZM54 60H10V64H54V60ZM60 54C60 57.3137 57.3137 60 54 60V64C59.5228 64 64 59.5228 64 54H60ZM60 10V54H64V10H60Z" fill="black" mask="url(#path-1-outside-1_1616_2267)"/>
<path d="M30.6774 39.0249H21.3774L19.4773 44.9C19.4274 45.125 19.2275 45.275 19.0025 45.2499H14.3023C14.0274 45.2499 13.9524 45.0999 14.0274 44.7999L22.0775 21.6249C22.1525 21.3751 22.2275 21.0999 22.3273 20.7999C22.4274 20.2749 22.4773 19.7251 22.4773 19.175C22.4525 19.0501 22.5523 18.9249 22.6775 18.9001H29.1523C29.3525 18.9001 29.4523 18.9751 29.4774 19.1L38.6023 44.8501C38.6773 45.125 38.6023 45.2499 38.3525 45.2499H33.1273C32.9525 45.275 32.7774 45.1501 32.7275 44.975L30.6774 39.0249ZM22.8275 33.95H29.1774C29.0274 33.425 28.8275 32.7999 28.6025 32.15C28.3775 31.475 28.1525 30.7501 27.9275 30.0001C27.6774 29.225 27.4524 28.475 27.2023 27.6999C26.9525 26.9251 26.7275 26.1999 26.5273 25.475C26.3274 24.7752 26.1523 24.125 25.9775 23.525H25.9273C25.7023 24.6001 25.4274 25.6752 25.0775 26.75C24.7025 27.95 24.3275 29.1999 23.9274 30.4501C23.6045 31.63 23.2376 32.7975 22.8275 33.95ZM44.1774 23.2749C43.3524 23.3 42.5525 22.9749 41.9525 22.4C41.3775 21.7749 41.0775 20.9499 41.1024 20.1001C41.0775 19.25 41.4024 18.4501 42.0024 17.8749C42.6024 17.3 43.4025 17 44.2275 17C45.2025 17 45.9525 17.3 46.5024 17.8749C47.0564 18.481 47.3524 19.2793 47.3274 20.1001C47.3525 20.9499 47.0525 21.7749 46.4525 22.4C45.8775 23 45.0275 23.3251 44.1774 23.2749ZM41.3775 44.975V25.7251C41.3775 25.475 41.4774 25.3749 41.7024 25.3749H46.6524C46.8774 25.3749 46.9775 25.5001 46.9775 25.7251V44.975C46.9775 45.2499 46.8774 45.3751 46.6524 45.3751H41.7525C41.5025 45.3751 41.3775 45.2251 41.3775 44.975Z" fill="#FF9A00"/>
</svg>
