<svg width="64" height="64" viewBox="0 0 64 64" fill="none" xmlns="http://www.w3.org/2000/svg">
<mask id="path-1-outside-1_1616_2295" maskUnits="userSpaceOnUse" x="0" y="0" width="64" height="64" fill="black">
<rect fill="white" width="64" height="64"/>
<path fill-rule="evenodd" clip-rule="evenodd" d="M62 10C62 5.58172 58.4183 2 54 2H10C5.58172 2 2 5.58172 2 10V54C2 58.4183 5.58172 62 10 62H54C58.4183 62 62 58.4183 62 54V10Z"/>
</mask>
<path fill-rule="evenodd" clip-rule="evenodd" d="M62 10C62 5.58172 58.4183 2 54 2H10C5.58172 2 2 5.58172 2 10V54C2 58.4183 5.58172 62 10 62H54C58.4183 62 62 58.4183 62 54V10Z" fill="white" stroke="black" stroke-width="2"/>
<path d="M54 4C57.3137 4 60 6.68629 60 10H64C64 4.47715 59.5228 0 54 0V4ZM10 4H54V0H10V4ZM4 10C4 6.68629 6.68629 4 10 4V0C4.47715 0 0 4.47715 0 10H4ZM4 54V10H0V54H4ZM10 60C6.68629 60 4 57.3137 4 54H0C0 59.5228 4.47715 64 10 64V60ZM54 60H10V64H54V60ZM60 54C60 57.3137 57.3137 60 54 60V64C59.5228 64 64 59.5228 64 54H60ZM60 10V54H64V10H60Z" fill="black" mask="url(#path-1-outside-1_1616_2295)"/>
<path d="M21.1782 37.503C21.1782 39.7558 19.3576 41.5767 17.1047 41.5767C14.8519 41.5767 13.0312 39.7558 13.0312 37.503C13.0312 35.2504 14.8519 33.4297 17.1049 33.4297H21.1781L21.1782 37.503ZM23.2151 37.503C23.2151 35.2504 25.0357 33.4297 27.2886 33.4297C29.5414 33.4297 31.3621 35.2504 31.3621 37.5032V47.6868C31.3621 49.9397 29.5414 51.7605 27.2884 51.7605C25.0359 51.7605 23.2151 49.9397 23.2151 47.6868V37.503Z" fill="#E01E5A"/>
<path d="M27.2881 21.147C25.0353 21.147 23.2145 19.3263 23.2145 17.0735C23.2145 14.8207 25.0355 13 27.2881 13C29.5408 13 31.3616 14.8207 31.3616 17.0735V21.1471L27.2881 21.147ZM27.2881 23.2146C29.5409 23.2146 31.3616 25.0353 31.3616 27.2881C31.3616 29.5409 29.5409 31.3616 27.288 31.3616H17.0736C14.8207 31.3616 13 29.5409 13 27.288C13 25.0355 14.8207 23.2146 17.0735 23.2146H27.2881Z" fill="#36C5F0"/>
<path d="M43.6135 27.2881C43.6135 25.0353 45.4342 23.2145 47.6868 23.2145C49.9395 23.2145 51.7605 25.0353 51.7605 27.2881C51.7605 29.5409 49.9397 31.3616 47.6868 31.3616H43.6135V27.2881ZM41.5767 27.2881C41.5767 29.5409 39.7558 31.3616 37.503 31.3616C35.2504 31.3616 33.4297 29.5409 33.4297 27.288V17.0736C33.4297 14.8207 35.2504 13 37.503 13C39.7557 13 41.5765 14.8207 41.5765 17.0735L41.5767 27.2881Z" fill="#2EB67D"/>
<path d="M37.503 43.6135C39.7558 43.6135 41.5767 45.4342 41.5767 47.6868C41.5767 49.9395 39.7558 51.7605 37.503 51.7605C35.2504 51.7605 33.4297 49.9397 33.4297 47.6868V43.6135H37.503ZM37.503 41.5767C35.2504 41.5767 33.4297 39.7558 33.4297 37.503C33.4297 35.2504 35.2504 33.4297 37.5032 33.4297H47.7177C49.9705 33.4297 51.7913 35.2504 51.7913 37.5032C51.7913 39.756 49.9705 41.5767 47.7177 41.5767H37.503Z" fill="#ECB22E"/>
</svg>
