<svg width="64" height="64" viewBox="0 0 64 64" fill="none" xmlns="http://www.w3.org/2000/svg">
<mask id="path-1-outside-1_1616_2270" maskUnits="userSpaceOnUse" x="0" y="0" width="64" height="64" fill="black">
<rect fill="white" width="64" height="64"/>
<path fill-rule="evenodd" clip-rule="evenodd" d="M62 10C62 5.58172 58.4183 2 54 2H10C5.58172 2 2 5.58172 2 10V54C2 58.4183 5.58172 62 10 62H54C58.4183 62 62 58.4183 62 54V10Z"/>
</mask>
<path fill-rule="evenodd" clip-rule="evenodd" d="M62 10C62 5.58172 58.4183 2 54 2H10C5.58172 2 2 5.58172 2 10V54C2 58.4183 5.58172 62 10 62H54C58.4183 62 62 58.4183 62 54V10Z" fill="#343A49" stroke="black" stroke-width="2"/>
<path d="M54 4C57.3137 4 60 6.68629 60 10H64C64 4.47715 59.5228 0 54 0V4ZM10 4H54V0H10V4ZM4 10C4 6.68629 6.68629 4 10 4V0C4.47715 0 0 4.47715 0 10H4ZM4 54V10H0V54H4ZM10 60C6.68629 60 4 57.3137 4 54H0C0 59.5228 4.47715 64 10 64V60ZM54 60H10V64H54V60ZM60 54C60 57.3137 57.3137 60 54 60V64C59.5228 64 64 59.5228 64 54H60ZM60 10V54H64V10H60Z" fill="black" mask="url(#path-1-outside-1_1616_2270)"/>
<mask id="mask0_1616_2270" style="mask-type:luminance" maskUnits="userSpaceOnUse" x="18" y="12" width="27" height="40">
<path d="M18.5 12.5H44.5052V51.5H18.5V12.5Z" fill="white"/>
</mask>
<g mask="url(#mask0_1616_2270)">
<path d="M25.0021 51.5001C28.5901 51.5001 31.502 48.5881 31.502 45.0001V38.5H25.0021C21.4141 38.5 18.502 41.4121 18.502 45.0001C18.502 48.5881 21.4141 51.5001 25.0021 51.5001Z" fill="#0ACF83"/>
<path d="M18.502 31.9999C18.502 28.4119 21.4141 25.5 25.0021 25.5H31.502V38.4999H25.0021C21.4141 38.4999 18.502 35.5879 18.502 31.9999Z" fill="#A259FF"/>
<path d="M18.502 18.9999C18.502 15.4119 21.4141 12.5 25.0021 12.5H31.502V25.5001H25.0021C21.4141 25.5001 18.502 22.5879 18.502 18.9999Z" fill="#F24E1E"/>
<path d="M31.5039 12.5H38.0038C41.5918 12.5 44.504 15.4119 44.504 18.9999C44.504 22.5879 41.5918 25.5001 38.0038 25.5001H31.5039V12.5Z" fill="#FF7262"/>
<path d="M44.504 31.9999C44.504 35.5879 41.5918 38.4999 38.0038 38.4999C34.4158 38.4999 31.5039 35.5879 31.5039 31.9999C31.5039 28.4119 34.4158 25.5 38.0038 25.5C41.5918 25.5 44.504 28.4119 44.504 31.9999Z" fill="#1ABCFE"/>
</g>
</svg>
