<svg width="64" height="64" viewBox="0 0 64 64" fill="none" xmlns="http://www.w3.org/2000/svg">
<mask id="path-1-outside-1_1616_2273" maskUnits="userSpaceOnUse" x="0" y="0" width="64" height="64" fill="black">
<rect fill="white" width="64" height="64"/>
<path fill-rule="evenodd" clip-rule="evenodd" d="M62 10C62 5.58172 58.4183 2 54 2H10C5.58172 2 2 5.58172 2 10V54C2 58.4183 5.58172 62 10 62H54C58.4183 62 62 58.4183 62 54V10Z"/>
</mask>
<path fill-rule="evenodd" clip-rule="evenodd" d="M62 10C62 5.58172 58.4183 2 54 2H10C5.58172 2 2 5.58172 2 10V54C2 58.4183 5.58172 62 10 62H54C58.4183 62 62 58.4183 62 54V10Z" fill="#0E3350" stroke="black" stroke-width="2"/>
<path d="M54 4C57.3137 4 60 6.68629 60 10H64C64 4.47715 59.5228 0 54 0V4ZM10 4H54V0H10V4ZM4 10C4 6.68629 6.68629 4 10 4V0C4.47715 0 0 4.47715 0 10H4ZM4 54V10H0V54H4ZM10 60C6.68629 60 4 57.3137 4 54H0C0 59.5228 4.47715 64 10 64V60ZM54 60H10V64H54V60ZM60 54C60 57.3137 57.3137 60 54 60V64C59.5228 64 64 59.5228 64 54H60ZM60 10V54H64V10H60Z" fill="black" mask="url(#path-1-outside-1_1616_2273)"/>
<path d="M22.0002 18.5C21.2502 18.5 20.5002 18.5 19.7253 18.526C18.95 18.5514 18.2248 18.5514 17.5498 18.5774C16.8748 18.6029 16.25 18.6029 15.65 18.6284C15.0748 18.6538 14.675 18.6538 14.2498 18.6538C14.075 18.6538 14 18.7563 14 18.9361V45.3207C14 45.5514 14.0998 45.6543 14.3 45.6543H19.1502C19.325 45.6284 19.4502 45.4745 19.4248 45.2952V37.0644C19.8997 37.0644 20.2498 37.0644 20.5002 37.0899C20.75 37.1154 21.1498 37.1154 21.7498 37.1154C23.8002 37.1154 25.6752 36.8846 27.3748 36.2437C29 35.6284 30.4002 34.5514 31.4 33.1154C32.4 31.6795 32.9 29.859 32.9 27.6538C32.9 26.5 32.7003 25.3976 32.3253 24.3207C31.928 23.2235 31.3055 22.2267 30.5 21.3976C29.5493 20.4503 28.4049 19.732 27.1498 19.2947C25.7497 18.7562 24.05 18.5 22.0002 18.5ZM22.558 23.5505C23.4486 23.5678 24.3158 23.7274 25.1248 24.0639C25.85 24.3462 26.45 24.8591 26.8752 25.5255C27.2739 26.2151 27.4734 27.0068 27.4503 27.8082C27.4503 28.9361 27.2 29.8082 26.675 30.449C26.1247 31.0899 25.4248 31.5774 24.6252 31.8082C23.6998 32.1159 22.7248 32.2692 21.7498 32.2692H20.4247C20.1247 32.2692 19.8003 32.2437 19.4502 32.2183V23.6029C19.625 23.5769 19.9752 23.5514 20.4753 23.5774C20.9502 23.5514 21.5248 23.5514 22.175 23.5514C22.3031 23.5482 22.4308 23.5479 22.558 23.5505ZM43.5252 24.8596C41.75 24.8596 40.2748 25.1413 39.1002 25.7567C38.0253 26.2697 37.1 27.0899 36.4752 28.1154C35.9253 29.0644 35.6248 30.1154 35.6248 31.2183C35.6035 32.1254 35.8011 33.0238 36.2 33.8337C36.6676 34.696 37.3168 35.4405 38.1003 36.013C39.2001 36.7845 40.3935 37.4051 41.6502 37.8591C42.875 38.3462 43.7 38.7308 44.1003 39.0639C44.5002 39.3976 44.7003 39.7308 44.7003 40.0899C44.7003 40.5514 44.4252 40.9875 44.0253 41.1668C43.5753 41.3976 42.9003 41.526 41.9502 41.526C40.9503 41.526 39.95 41.3976 38.9998 41.1413C37.9089 40.8914 36.8629 40.4675 35.9 39.8851C35.825 39.8337 35.75 39.8082 35.675 39.8596C35.6 39.9106 35.5752 40.013 35.5752 40.0899V44.5514C35.5503 44.7567 35.675 44.9361 35.8503 45.0385C36.661 45.4269 37.5186 45.7029 38.4003 45.8591C39.5253 46.0899 40.6498 46.1923 41.7997 46.1923C43.5997 46.1923 45.1002 45.9106 46.325 45.3721C47.45 44.9106 48.425 44.1159 49.1248 43.0899C49.7803 42.0813 50.1204 40.8917 50.0998 39.6798C50.1245 38.7643 49.927 37.8568 49.5252 37.0389C49.0498 36.1668 48.3748 35.449 47.5498 34.9106C46.3429 34.1332 45.0507 33.5048 43.7 33.0385C43.0968 32.7824 42.5046 32.5001 41.9248 32.1923C41.6 32.013 41.3 31.7822 41.075 31.5C40.925 31.2947 40.8252 31.0644 40.8252 30.8337C40.8252 30.6029 40.9002 30.3466 41.0248 30.1413C41.2002 29.8851 41.4748 29.7053 41.7997 29.6284C42.275 29.5005 42.8 29.4231 43.2997 29.4486C44.2498 29.4486 45.1747 29.5769 46.1 29.7822C46.9503 29.9615 47.75 30.2437 48.5 30.6543C48.5998 30.7053 48.725 30.7053 48.95 30.6543C48.9891 30.6246 49.0208 30.5859 49.0425 30.5413C49.0643 30.4967 49.0754 30.4475 49.0752 30.3976V26.2183C49.0752 26.1154 49.0498 26.013 49.025 25.9106C48.9748 25.8082 48.875 25.7053 48.7752 25.6798C48.0856 25.3908 47.3632 25.1925 46.625 25.0899C45.5985 24.9366 44.5625 24.86 43.5252 24.8596Z" fill="#31A8FF"/>
</svg>
