<svg width="64" height="64" viewBox="0 0 64 64" fill="none" xmlns="http://www.w3.org/2000/svg">
<mask id="path-1-outside-1_1616_2296" maskUnits="userSpaceOnUse" x="0" y="0" width="64" height="64" fill="black">
<rect fill="white" width="64" height="64"/>
<path fill-rule="evenodd" clip-rule="evenodd" d="M62 10C62 5.58172 58.4183 2 54 2H10C5.58172 2 2 5.58172 2 10V54C2 58.4183 5.58172 62 10 62H54C58.4183 62 62 58.4183 62 54V10Z"/>
</mask>
<path fill-rule="evenodd" clip-rule="evenodd" d="M62 10C62 5.58172 58.4183 2 54 2H10C5.58172 2 2 5.58172 2 10V54C2 58.4183 5.58172 62 10 62H54C58.4183 62 62 58.4183 62 54V10Z" fill="#D4ECF7" stroke="black" stroke-width="2"/>
<path d="M54 4C57.3137 4 60 6.68629 60 10H64C64 4.47715 59.5228 0 54 0V4ZM10 4H54V0H10V4ZM4 10C4 6.68629 6.68629 4 10 4V0C4.47715 0 0 4.47715 0 10H4ZM4 54V10H0V54H4ZM10 60C6.68629 60 4 57.3137 4 54H0C0 59.5228 4.47715 64 10 64V60ZM54 60H10V64H54V60ZM60 54C60 57.3137 57.3137 60 54 60V64C59.5228 64 64 59.5228 64 54H60ZM60 10V54H64V10H60Z" fill="black" mask="url(#path-1-outside-1_1616_2296)"/>
<path d="M15.4135 13.7305L37.6109 12.0912C40.3375 11.8572 41.0381 12.015 42.7524 13.2612L49.8381 18.253C51.0069 19.1114 51.396 19.3455 51.396 20.2802V47.6564C51.396 49.3721 50.7728 50.3869 48.5919 50.5421L22.815 52.1025C21.1782 52.1801 20.3987 51.9461 19.5416 50.8536L14.3238 44.0688C13.3879 42.8198 13 41.885 13 40.7925V16.4584C13 15.0558 13.6232 13.8857 15.4135 13.7305Z" fill="white"/>
<path d="M37.6109 12.0912L15.4135 13.7305C13.6232 13.8857 13 15.0558 13 16.4584V40.7926C13 41.8851 13.3877 42.8198 14.3238 44.0688L19.5416 50.8536C20.3987 51.9461 21.1782 52.1801 22.815 52.1025L48.5919 50.5421C50.7715 50.3869 51.396 49.3721 51.396 47.6564V20.2802C51.396 19.3936 51.0456 19.1382 50.0147 18.3814L49.8369 18.253L42.7524 13.2612C41.0381 12.015 40.3377 11.8572 37.6109 12.0912ZM23.398 19.8322C21.2932 19.9739 20.8158 20.006 19.6205 19.0338L16.581 16.6162C16.2721 16.3033 16.4271 15.9128 17.2054 15.8352L38.5443 14.2762C40.3362 14.1197 41.2695 14.7441 41.9702 15.2897L45.63 17.9415C45.7864 18.0202 46.1757 18.487 45.7075 18.487L23.6708 19.8134L23.398 19.8322ZM20.9442 47.4224V24.182C20.9442 23.1671 21.2557 22.6991 22.1891 22.6202L47.4994 21.1385C48.3579 21.061 48.7458 21.6065 48.7458 22.6202V45.7054C48.7458 46.7203 48.5892 47.5787 47.1879 47.6564L22.9674 49.0604C21.5661 49.1379 20.9442 48.6713 20.9442 47.4224ZM44.8532 25.4281C45.0083 26.1302 44.8532 26.8322 44.1512 26.9125L42.9838 27.1438V44.3026C41.9702 44.8481 41.0369 45.1597 40.2571 45.1597C39.011 45.1597 38.6994 44.7692 37.766 43.6005L30.1321 31.5899V43.2101L32.5469 43.7569C32.5469 43.7569 32.5469 45.1611 30.5987 45.1611L25.2272 45.4726C25.0707 45.1597 25.2272 44.3801 25.7716 44.225L27.1741 43.8358V28.4717L25.2273 28.3139C25.0707 27.612 25.4598 26.5983 26.5511 26.5194L32.3144 26.1317L40.2573 38.2974V27.5345L38.2328 27.3017C38.0763 26.4418 38.6994 25.8175 39.4776 25.7413L44.8532 25.4281Z" fill="black"/>
</svg>
