<svg width="64" height="64" viewBox="0 0 64 64" fill="none" xmlns="http://www.w3.org/2000/svg">
<mask id="path-1-outside-1_1616_2274" maskUnits="userSpaceOnUse" x="0" y="0" width="64" height="64" fill="black">
<rect fill="white" width="64" height="64"/>
<path fill-rule="evenodd" clip-rule="evenodd" d="M62 10C62 5.58172 58.4183 2 54 2H10C5.58172 2 2 5.58172 2 10V54C2 58.4183 5.58172 62 10 62H54C58.4183 62 62 58.4183 62 54V10Z" />
</mask>
<path fill-rule="evenodd" clip-rule="evenodd" d="M62 10C62 5.58172 58.4183 2 54 2H10C5.58172 2 2 5.58172 2 10V54C2 58.4183 5.58172 62 10 62H54C58.4183 62 62 58.4183 62 54V10Z" fill="#3F3D48" />
<path d="M54 4C57.3137 4 60 6.68629 60 10H64C64 4.47715 59.5228 0 54 0V4ZM10 4H54V0H10V4ZM4 10C4 6.68629 6.68629 4 10 4V0C4.47715 0 0 4.47715 0 10H4ZM4 54V10H0V54H4ZM10 60C6.68629 60 4 57.3137 4 54H0C0 59.5228 4.47715 64 10 64V60ZM54 60H10V64H54V60ZM60 54C60 57.3137 57.3137 60 54 60V64C59.5228 64 64 59.5228 64 54H60ZM60 10V54H64V10H60Z" fill="black"  mask="url(#path-1-outside-1_1616_2274)"/>
<rect x="8" y="9" width="48" height="45" fill="white" />
<path d="M22.2734 43.875C22.3776 43.7188 22.3385 43.5495 22.1562 43.3672C21.9219 43.1849 21.7396 43.1589 21.6094 43.2891C21.5052 43.4453 21.5443 43.6146 21.7266 43.7969C21.9609 43.9792 22.1432 44.0052 22.2734 43.875ZM21.1797 42.2734C21.0495 42.0911 20.8932 42.0391 20.7109 42.1172C20.5547 42.2214 20.5547 42.3776 20.7109 42.5859C20.8932 42.7943 21.0495 42.8594 21.1797 42.7812C21.3359 42.6771 21.3359 42.5078 21.1797 42.2734ZM19.5781 40.7109C19.6302 40.6068 19.5651 40.5026 19.3828 40.3984C19.2005 40.3464 19.0964 40.3724 19.0703 40.4766C18.9922 40.6068 19.0443 40.7109 19.2266 40.7891C19.4349 40.8411 19.5521 40.8151 19.5781 40.7109ZM20.3984 41.6094C20.4505 41.5833 20.4701 41.5247 20.457 41.4336C20.444 41.3424 20.3984 41.2708 20.3203 41.2188C20.1641 41.0365 20.0339 40.9974 19.9297 41.1016C19.8255 41.2057 19.8385 41.349 19.9688 41.5312C20.125 41.6875 20.2682 41.7135 20.3984 41.6094ZM23.7578 44.5391C23.8099 44.3568 23.6927 44.2135 23.4062 44.1094C23.1719 44.0312 23.0026 44.0833 22.8984 44.2656C22.8464 44.4479 22.9635 44.5911 23.25 44.6953C23.4844 44.7734 23.6536 44.7214 23.7578 44.5391ZM25.3984 44.6562C25.3984 44.4479 25.2422 44.3438 24.9297 44.3438C24.6693 44.3438 24.5391 44.4479 24.5391 44.6562C24.5391 44.8646 24.6823 44.9688 24.9688 44.9688C25.2552 44.9688 25.3984 44.8646 25.3984 44.6562ZM26.9219 44.3828C26.8698 44.2005 26.7005 44.1354 26.4141 44.1875C26.1276 44.2396 26.0104 44.3568 26.0625 44.5391C26.1146 44.7474 26.2708 44.8255 26.5312 44.7734C26.7917 44.7214 26.9219 44.5911 26.9219 44.3828ZM52 32C52 26.4792 50.0469 21.7656 46.1406 17.8594C42.2344 13.9531 37.5208 12 32 12C26.4792 12 21.7656 13.9531 17.8594 17.8594C13.9531 21.7656 12 26.4792 12 32C12 36.349 13.276 40.2617 15.8281 43.7383C18.3802 47.2148 21.6615 49.6302 25.6719 50.9844C26.1406 51.0625 26.4857 50.9974 26.707 50.7891C26.9284 50.5807 27.0391 50.3203 27.0391 50.0078C27.0391 48.6536 27.026 47.4167 27 46.2969C26.8438 46.3229 26.6419 46.3555 26.3945 46.3945C26.1471 46.4336 25.6849 46.4596 25.0078 46.4727C24.3307 46.4857 23.7057 46.4336 23.1328 46.3164C22.5599 46.1992 21.9935 45.9388 21.4336 45.5352C20.8737 45.1315 20.4896 44.5911 20.2812 43.9141C19.6823 42.3776 18.9401 41.4141 18.0547 41.0234C18.0026 40.9974 17.944 40.9518 17.8789 40.8867L17.5664 40.5742L17.293 40.2031L17.4492 39.9102L18.2109 39.7734C18.3672 39.7734 18.5625 39.7995 18.7969 39.8516C19.0312 39.9036 19.4219 40.1055 19.9688 40.457C20.5156 40.8086 20.9453 41.2708 21.2578 41.8438C21.6745 42.5729 22.1628 43.1198 22.7227 43.4844C23.2826 43.849 23.849 44.0312 24.4219 44.0312C24.9948 44.0312 25.4896 43.9857 25.9062 43.8945C26.3229 43.8034 26.7135 43.6797 27.0781 43.5234C27.2604 42.2995 27.6901 41.401 28.3672 40.8281C27.0911 40.6719 25.9714 40.431 25.0078 40.1055C24.0443 39.7799 23.0938 39.2721 22.1562 38.582C21.2188 37.8919 20.4961 36.9023 19.9883 35.6133C19.4805 34.3242 19.2266 32.7682 19.2266 30.9453C19.2266 28.888 19.9167 27.1042 21.2969 25.5938C20.6719 23.9792 20.737 22.2083 21.4922 20.2812C21.987 20.125 22.6966 20.2227 23.6211 20.5742C24.5456 20.9258 25.3333 21.3099 25.9844 21.7266L27 22.3516C28.5104 21.9089 30.1771 21.6875 32 21.6875C33.8229 21.6875 35.4896 21.9089 37 22.3516C37.2865 22.1693 37.6576 21.9349 38.1133 21.6484C38.569 21.362 39.2917 21.0234 40.2812 20.6328C41.2708 20.2422 42.013 20.125 42.5078 20.2812C43.263 22.2083 43.3281 23.9792 42.7031 25.5938C44.0833 27.1042 44.7734 28.888 44.7734 30.9453C44.7734 32.4297 44.5911 33.7383 44.2266 34.8711C43.862 36.0039 43.3997 36.9154 42.8398 37.6055C42.2799 38.2956 41.5833 38.875 40.75 39.3438C39.9167 39.8125 39.1029 40.151 38.3086 40.3594C37.5143 40.5677 36.6224 40.724 35.6328 40.8281C36.5443 41.6354 37 42.8724 37 44.5391C37 45.5807 36.9935 46.7396 36.9805 48.0156C36.9674 49.2917 36.9609 49.9557 36.9609 50.0078C36.9609 50.3203 37.0716 50.5807 37.293 50.7891C37.5143 50.9974 37.8594 51.0625 38.3281 50.9844C42.3385 49.6302 45.6198 47.2148 48.1719 43.7383C50.724 40.2617 52 36.349 52 32ZM62 13.25V50.75C62 53.849 60.8997 56.4987 58.6992 58.6992C56.4987 60.8997 53.849 62 50.75 62H13.25C10.151 62 7.5013 60.8997 5.30078 58.6992C3.10026 56.4987 2 53.849 2 50.75V13.25C2 10.151 3.10026 7.5013 5.30078 5.30078C7.5013 3.10026 10.151 2 13.25 2H50.75C53.849 2 56.4987 3.10026 58.6992 5.30078C60.8997 7.5013 62 10.151 62 13.25Z" stroke="black" stroke-width="2" fill="#4E4379"/>
</svg>
