<svg width="465" height="643" viewBox="0 0 465 643" fill="none" xmlns="http://www.w3.org/2000/svg">
<rect width="465" height="603" rx="15" fill="#ECF7FC"/>
<path d="M0 474H465V628C465 636.284 458.284 643 450 643H15C6.71574 643 0 636.284 0 628V474Z" fill="#00B2FF"/>
<rect x="164" y="71" width="137" height="32" rx="16" fill="#85DAFF"/>
<path d="M148.258 545.328C148.282 545.436 148.258 545.52 148.186 545.58C148.114 545.64 148.048 545.676 147.988 545.688C147.532 545.796 147.028 545.892 146.476 545.976C145.924 546.06 145.36 546.126 144.784 546.174C144.208 546.21 143.632 546.234 143.056 546.246C142.492 546.246 141.964 546.228 141.472 546.192C141.04 546.156 140.71 546.054 140.482 545.886C140.266 545.706 140.158 545.406 140.158 544.986V536.526C140.158 536.106 140.242 535.8 140.41 535.608C140.59 535.404 140.908 535.302 141.364 535.302H146.71C146.782 535.302 146.842 535.326 146.89 535.374C146.95 535.422 146.98 535.482 146.98 535.554V536.796C146.98 536.856 146.95 536.91 146.89 536.958C146.842 537.006 146.782 537.03 146.71 537.03H142.57C142.342 537.03 142.228 537.132 142.228 537.336V543.942C142.228 544.134 142.264 544.26 142.336 544.32C142.408 544.368 142.552 544.404 142.768 544.428C143.02 544.464 143.35 544.476 143.758 544.464C144.178 544.452 144.622 544.428 145.09 544.392C145.558 544.356 146.02 544.308 146.476 544.248C146.932 544.188 147.328 544.122 147.664 544.05C147.76 544.026 147.838 544.026 147.898 544.05C147.97 544.074 148.018 544.134 148.042 544.23L148.258 545.328ZM149.122 534.384C149.122 534.228 149.206 534.15 149.374 534.15H150.85C151.006 534.15 151.084 534.228 151.084 534.384V550.098C151.084 550.266 151.006 550.35 150.85 550.35H149.374C149.206 550.35 149.122 550.266 149.122 550.098V541.476H146.044C145.972 541.476 145.906 541.452 145.846 541.404C145.798 541.356 145.774 541.302 145.774 541.242V540C145.774 539.94 145.798 539.892 145.846 539.856C145.906 539.808 145.972 539.784 146.044 539.784H149.122V534.384ZM154.576 550.728C154.576 550.884 154.498 550.962 154.342 550.962H152.776C152.62 550.962 152.542 550.884 152.542 550.728V534.078C152.542 533.922 152.626 533.844 152.794 533.844H154.342C154.498 533.844 154.576 533.922 154.576 534.078V550.728ZM170.01 550.692C170.01 550.848 169.932 550.926 169.776 550.926H168.174C168.018 550.926 167.94 550.848 167.94 550.692V534.078C167.94 533.922 168.018 533.844 168.174 533.844H169.776C169.932 533.844 170.01 533.922 170.01 534.078V550.692ZM163.512 540.846C163.512 540.294 163.458 539.772 163.35 539.28C163.242 538.776 163.086 538.338 162.882 537.966C162.678 537.594 162.426 537.3 162.126 537.084C161.838 536.868 161.502 536.76 161.118 536.76C160.734 536.76 160.392 536.868 160.092 537.084C159.804 537.3 159.558 537.594 159.354 537.966C159.15 538.338 158.994 538.776 158.886 539.28C158.778 539.772 158.724 540.294 158.724 540.846C158.724 541.386 158.778 541.908 158.886 542.412C158.994 542.904 159.15 543.342 159.354 543.726C159.558 544.098 159.804 544.398 160.092 544.626C160.392 544.842 160.734 544.95 161.118 544.95C161.502 544.95 161.838 544.842 162.126 544.626C162.426 544.398 162.678 544.098 162.882 543.726C163.086 543.342 163.242 542.904 163.35 542.412C163.458 541.908 163.512 541.386 163.512 540.846ZM161.118 546.786C160.434 546.786 159.816 546.642 159.264 546.354C158.712 546.066 158.244 545.664 157.86 545.148C157.488 544.62 157.2 543.99 156.996 543.258C156.792 542.526 156.69 541.722 156.69 540.846C156.69 539.946 156.792 539.13 156.996 538.398C157.2 537.666 157.488 537.048 157.86 536.544C158.244 536.028 158.712 535.632 159.264 535.356C159.816 535.068 160.434 534.924 161.118 534.924C161.814 534.924 162.432 535.068 162.972 535.356C163.524 535.632 163.986 536.028 164.358 536.544C164.742 537.048 165.036 537.666 165.24 538.398C165.444 539.13 165.546 539.946 165.546 540.846C165.546 541.746 165.444 542.562 165.24 543.294C165.036 544.026 164.742 544.65 164.358 545.166C163.986 545.682 163.524 546.084 162.972 546.372C162.432 546.648 161.814 546.786 161.118 546.786ZM182.006 545.49C182.03 545.622 182.012 545.712 181.952 545.76C181.904 545.808 181.85 545.844 181.79 545.868C181.394 545.988 180.878 546.096 180.242 546.192C179.606 546.288 178.934 546.366 178.226 546.426C177.518 546.474 176.816 546.504 176.12 546.516C175.436 546.528 174.842 546.51 174.338 546.462C173.474 546.39 173.042 545.958 173.042 545.166V536.328C173.042 535.908 173.126 535.614 173.294 535.446C173.474 535.278 173.792 535.194 174.248 535.194H180.206C180.386 535.194 180.476 535.272 180.476 535.428V536.688C180.476 536.844 180.386 536.922 180.206 536.922H175.436C175.22 536.922 175.112 537.024 175.112 537.228V539.766C175.496 539.766 175.892 539.766 176.3 539.766C176.72 539.766 177.134 539.766 177.542 539.766C177.95 539.754 178.34 539.742 178.712 539.73C179.096 539.718 179.444 539.7 179.756 539.676C179.804 539.676 179.852 539.688 179.9 539.712C179.948 539.736 179.972 539.778 179.972 539.838L179.99 541.08C179.99 541.176 179.972 541.254 179.936 541.314C179.9 541.362 179.864 541.386 179.828 541.386C179.492 541.41 179.126 541.434 178.73 541.458C178.334 541.47 177.926 541.482 177.506 541.494C177.098 541.506 176.69 541.512 176.282 541.512C175.874 541.512 175.484 541.512 175.112 541.512V544.266C175.112 544.458 175.142 544.59 175.202 544.662C175.274 544.722 175.418 544.758 175.634 544.77C176.006 544.794 176.42 544.806 176.876 544.806C177.344 544.794 177.83 544.77 178.334 544.734C178.838 544.686 179.36 544.632 179.9 544.572C180.44 544.5 180.974 544.41 181.502 544.302C181.682 544.266 181.79 544.332 181.826 544.5L182.006 545.49ZM184.436 534.078C184.436 533.922 184.514 533.844 184.67 533.844H186.272C186.428 533.844 186.506 533.922 186.506 534.078V550.692C186.506 550.848 186.428 550.926 186.272 550.926H184.67C184.514 550.926 184.436 550.848 184.436 550.692V541.26H181.664C181.616 541.26 181.556 541.236 181.484 541.188C181.424 541.14 181.394 541.068 181.394 540.972V539.802C181.394 539.718 181.424 539.652 181.484 539.604C181.556 539.556 181.616 539.532 181.664 539.532H184.436V534.078ZM195.892 544.77C195.892 545.166 195.796 545.466 195.604 545.67C195.412 545.874 195.052 545.976 194.524 545.976H190.15C189.61 545.976 189.244 545.886 189.052 545.706C188.86 545.526 188.764 545.196 188.764 544.716V535.176C188.764 535.116 188.788 535.068 188.836 535.032C188.884 534.984 188.938 534.96 188.998 534.96H190.51C190.57 534.96 190.624 534.984 190.672 535.032C190.732 535.068 190.762 535.116 190.762 535.176V539.082H193.894V535.158C193.894 535.098 193.918 535.044 193.966 534.996C194.014 534.948 194.068 534.924 194.128 534.924H195.658C195.718 534.924 195.772 534.948 195.82 534.996C195.868 535.044 195.892 535.098 195.892 535.158V539.784H197.746V534.366C197.746 534.21 197.83 534.132 197.998 534.132H199.474C199.63 534.132 199.708 534.21 199.708 534.366V550.098C199.708 550.266 199.63 550.35 199.474 550.35H197.998C197.83 550.35 197.746 550.266 197.746 550.098V541.512H195.892V544.77ZM203.2 550.728C203.2 550.884 203.122 550.962 202.966 550.962H201.4C201.244 550.962 201.166 550.884 201.166 550.728V534.078C201.166 533.922 201.25 533.844 201.418 533.844H202.966C203.122 533.844 203.2 533.922 203.2 534.078V550.728ZM193.894 540.72H190.762V544.014C190.762 544.218 190.876 544.32 191.104 544.32H193.552C193.78 544.32 193.894 544.218 193.894 544.014V540.72ZM218.633 550.692C218.633 550.848 218.555 550.926 218.399 550.926H216.797C216.641 550.926 216.563 550.848 216.563 550.692V534.078C216.563 533.922 216.641 533.844 216.797 533.844H218.399C218.555 533.844 218.633 533.922 218.633 534.078V550.692ZM212.135 540.846C212.135 540.294 212.081 539.772 211.973 539.28C211.865 538.776 211.709 538.338 211.505 537.966C211.301 537.594 211.049 537.3 210.749 537.084C210.461 536.868 210.125 536.76 209.741 536.76C209.357 536.76 209.015 536.868 208.715 537.084C208.427 537.3 208.181 537.594 207.977 537.966C207.773 538.338 207.617 538.776 207.509 539.28C207.401 539.772 207.347 540.294 207.347 540.846C207.347 541.386 207.401 541.908 207.509 542.412C207.617 542.904 207.773 543.342 207.977 543.726C208.181 544.098 208.427 544.398 208.715 544.626C209.015 544.842 209.357 544.95 209.741 544.95C210.125 544.95 210.461 544.842 210.749 544.626C211.049 544.398 211.301 544.098 211.505 543.726C211.709 543.342 211.865 542.904 211.973 542.412C212.081 541.908 212.135 541.386 212.135 540.846ZM209.741 546.786C209.057 546.786 208.439 546.642 207.887 546.354C207.335 546.066 206.867 545.664 206.483 545.148C206.111 544.62 205.823 543.99 205.619 543.258C205.415 542.526 205.313 541.722 205.313 540.846C205.313 539.946 205.415 539.13 205.619 538.398C205.823 537.666 206.111 537.048 206.483 536.544C206.867 536.028 207.335 535.632 207.887 535.356C208.439 535.068 209.057 534.924 209.741 534.924C210.437 534.924 211.055 535.068 211.595 535.356C212.147 535.632 212.609 536.028 212.981 536.544C213.365 537.048 213.659 537.666 213.863 538.398C214.067 539.13 214.169 539.946 214.169 540.846C214.169 541.746 214.067 542.562 213.863 543.294C213.659 544.026 213.365 544.65 212.981 545.166C212.609 545.682 212.147 546.084 211.595 546.372C211.055 546.648 210.437 546.786 209.741 546.786ZM222.547 543.132C222.487 543.156 222.415 543.162 222.331 543.15C222.259 543.126 222.193 543.066 222.133 542.97L221.485 541.854C221.437 541.758 221.431 541.674 221.467 541.602C221.515 541.518 221.581 541.464 221.665 541.44C222.565 541.104 223.351 540.744 224.023 540.36C224.707 539.964 225.283 539.514 225.751 539.01C226.231 538.506 226.603 537.93 226.867 537.282C227.143 536.634 227.323 535.884 227.407 535.032C227.419 534.948 227.443 534.864 227.479 534.78C227.527 534.696 227.599 534.66 227.695 534.672L229.261 534.744C229.465 534.756 229.561 534.888 229.549 535.14C229.537 535.452 229.501 535.746 229.441 536.022C229.585 536.598 229.837 537.15 230.197 537.678C230.557 538.206 230.995 538.692 231.511 539.136C232.039 539.568 232.621 539.952 233.257 540.288C233.893 540.624 234.553 540.888 235.237 541.08C235.321 541.104 235.369 541.158 235.381 541.242C235.405 541.314 235.405 541.38 235.381 541.44L234.769 542.592C234.673 542.772 234.529 542.838 234.337 542.79C233.785 542.646 233.227 542.442 232.663 542.178C232.111 541.914 231.577 541.608 231.061 541.26C230.545 540.9 230.071 540.504 229.639 540.072C229.207 539.628 228.841 539.154 228.541 538.65C227.941 539.706 227.125 540.606 226.093 541.35C225.073 542.094 223.891 542.688 222.547 543.132ZM236.281 546.156C236.341 546.156 236.401 546.186 236.461 546.246C236.521 546.306 236.551 546.372 236.551 546.444V547.614C236.551 547.674 236.521 547.734 236.461 547.794C236.401 547.854 236.341 547.884 236.281 547.884H220.603C220.531 547.884 220.471 547.854 220.423 547.794C220.375 547.734 220.351 547.674 220.351 547.614V546.444C220.351 546.252 220.435 546.156 220.603 546.156H236.281ZM250.527 550.53C250.527 550.59 250.497 550.644 250.437 550.692C250.389 550.752 250.341 550.782 250.293 550.782H240.375C239.907 550.782 239.589 550.698 239.421 550.53C239.253 550.362 239.169 550.086 239.169 549.702V547.776C239.169 547.392 239.247 547.116 239.403 546.948C239.571 546.78 239.889 546.696 240.357 546.696H247.917C248.013 546.696 248.073 546.69 248.097 546.678C248.121 546.654 248.133 546.588 248.133 546.48V545.976C248.133 545.844 248.121 545.766 248.097 545.742C248.073 545.718 248.007 545.706 247.899 545.706H239.385C239.325 545.706 239.265 545.688 239.205 545.652C239.157 545.604 239.133 545.55 239.133 545.49V544.338C239.133 544.278 239.157 544.224 239.205 544.176C239.265 544.128 239.325 544.104 239.385 544.104H248.925C249.417 544.104 249.741 544.182 249.897 544.338C250.065 544.482 250.149 544.758 250.149 545.166V547.11C250.149 547.53 250.065 547.812 249.897 547.956C249.741 548.1 249.417 548.172 248.925 548.172H241.419C241.323 548.172 241.263 548.19 241.239 548.226C241.215 548.25 241.203 548.316 241.203 548.424V548.964C241.203 549.084 241.215 549.15 241.239 549.162C241.263 549.186 241.335 549.198 241.455 549.198H250.275C250.335 549.198 250.389 549.216 250.437 549.252C250.497 549.3 250.527 549.36 250.527 549.432V550.53ZM250.419 540.126C250.419 540.186 250.389 540.246 250.329 540.306C250.281 540.354 250.233 540.378 250.185 540.378H240.429C239.961 540.378 239.643 540.294 239.475 540.126C239.307 539.958 239.223 539.682 239.223 539.298V537.444C239.223 537.06 239.301 536.784 239.457 536.616C239.625 536.448 239.943 536.364 240.411 536.364H247.899C247.995 536.364 248.055 536.352 248.079 536.328C248.103 536.292 248.115 536.214 248.115 536.094V535.554C248.115 535.446 248.103 535.386 248.079 535.374C248.055 535.35 247.989 535.338 247.881 535.338H239.547C239.487 535.338 239.427 535.32 239.367 535.284C239.319 535.236 239.295 535.182 239.295 535.122V533.988C239.295 533.928 239.319 533.874 239.367 533.826C239.427 533.778 239.487 533.754 239.547 533.754H248.907C249.399 533.754 249.723 533.832 249.879 533.988C250.047 534.132 250.131 534.408 250.131 534.816V536.778C250.131 537.198 250.047 537.48 249.879 537.624C249.723 537.768 249.399 537.84 248.907 537.84H241.491C241.383 537.84 241.317 537.858 241.293 537.894C241.269 537.918 241.257 537.978 241.257 538.074V538.56C241.257 538.668 241.269 538.734 241.293 538.758C241.317 538.77 241.389 538.776 241.509 538.776H250.167C250.227 538.776 250.281 538.8 250.329 538.848C250.389 538.884 250.419 538.938 250.419 539.01V540.126ZM252.741 542.79C252.741 542.85 252.711 542.91 252.651 542.97C252.591 543.03 252.531 543.06 252.471 543.06H236.811C236.739 543.06 236.679 543.036 236.631 542.988C236.583 542.928 236.559 542.862 236.559 542.79V541.692C236.559 541.524 236.643 541.44 236.811 541.44H252.471C252.531 541.44 252.591 541.47 252.651 541.53C252.711 541.578 252.741 541.632 252.741 541.692V542.79ZM270.861 535.644C270.861 536.808 270.801 537.894 270.681 538.902C270.561 539.91 270.393 540.876 270.177 541.8H273.021C273.081 541.8 273.141 541.83 273.201 541.89C273.261 541.95 273.291 542.01 273.291 542.07V543.258C273.291 543.318 273.261 543.378 273.201 543.438C273.141 543.498 273.081 543.528 273.021 543.528H266.073V550.548C266.073 550.716 265.989 550.8 265.821 550.8H264.255C264.087 550.8 264.003 550.716 264.003 550.548V543.528H257.343C257.271 543.528 257.211 543.498 257.163 543.438C257.115 543.378 257.091 543.318 257.091 543.258V542.07C257.091 541.998 257.115 541.938 257.163 541.89C257.211 541.83 257.271 541.8 257.343 541.8H268.197C268.365 541.068 268.509 540.234 268.629 539.298C268.749 538.35 268.809 537.408 268.809 536.472C268.809 536.304 268.767 536.202 268.683 536.166C268.599 536.118 268.473 536.094 268.305 536.094H259.629C259.569 536.094 259.509 536.076 259.449 536.04C259.389 535.992 259.359 535.938 259.359 535.878V534.582C259.359 534.51 259.389 534.456 259.449 534.42C259.509 534.384 259.569 534.366 259.629 534.366H269.673C270.057 534.366 270.351 534.468 270.555 534.672C270.759 534.876 270.861 535.2 270.861 535.644ZM286.907 550.692C286.907 550.752 286.877 550.806 286.817 550.854C286.769 550.914 286.715 550.944 286.655 550.944H285.107C285.035 550.944 284.969 550.914 284.909 550.854C284.861 550.806 284.837 550.752 284.837 550.692V547.668C284.837 547.536 284.813 547.452 284.765 547.416C284.717 547.38 284.627 547.362 284.495 547.362H275.765C275.705 547.362 275.645 547.344 275.585 547.308C275.537 547.26 275.513 547.206 275.513 547.146V545.904C275.513 545.832 275.537 545.778 275.585 545.742C275.645 545.694 275.705 545.67 275.765 545.67H280.355V544.266H273.551C273.383 544.266 273.299 544.182 273.299 544.014V542.88C273.299 542.808 273.323 542.748 273.371 542.7C273.419 542.64 273.479 542.61 273.551 542.61H289.211C289.271 542.61 289.331 542.64 289.391 542.7C289.451 542.76 289.481 542.82 289.481 542.88V544.014C289.481 544.074 289.451 544.134 289.391 544.194C289.331 544.242 289.271 544.266 289.211 544.266H282.425V545.67H285.719C286.175 545.67 286.487 545.766 286.655 545.958C286.823 546.15 286.907 546.474 286.907 546.93V550.692ZM275.711 541.782C275.627 541.806 275.537 541.806 275.441 541.782C275.345 541.746 275.285 541.692 275.261 541.62L274.955 540.576C274.931 540.504 274.943 540.432 274.991 540.36C275.039 540.288 275.105 540.24 275.189 540.216C276.629 539.94 277.967 539.628 279.203 539.28C280.451 538.92 281.579 538.506 282.587 538.038C282.695 537.99 282.761 537.954 282.785 537.93C282.821 537.894 282.827 537.87 282.803 537.858C282.791 537.834 282.761 537.822 282.713 537.822C282.665 537.81 282.623 537.804 282.587 537.804H276.377C276.209 537.804 276.125 537.726 276.125 537.57V536.472C276.125 536.328 276.209 536.256 276.377 536.256H284.549C285.077 536.256 285.467 536.346 285.719 536.526C285.971 536.694 286.097 536.886 286.097 537.102C286.097 537.306 286.031 537.504 285.899 537.696C285.779 537.888 285.629 538.062 285.449 538.218C285.053 538.602 284.489 538.974 283.757 539.334C284.357 539.466 284.993 539.592 285.665 539.712C286.337 539.832 286.997 539.94 287.645 540.036C287.741 540.06 287.807 540.114 287.843 540.198C287.879 540.27 287.885 540.342 287.861 540.414L287.591 541.35C287.567 541.41 287.513 541.47 287.429 541.53C287.357 541.578 287.267 541.59 287.159 541.566C286.295 541.434 285.359 541.26 284.351 541.044C283.343 540.816 282.377 540.564 281.453 540.288C280.577 540.6 279.641 540.888 278.645 541.152C277.661 541.404 276.683 541.614 275.711 541.782ZM283.811 535.248C283.811 535.32 283.781 535.386 283.721 535.446C283.661 535.506 283.589 535.536 283.505 535.536H278.897C278.849 535.536 278.789 535.512 278.717 535.464C278.657 535.416 278.627 535.35 278.627 535.266V534.276C278.627 534.192 278.657 534.126 278.717 534.078C278.789 534.03 278.849 534.006 278.897 534.006H283.505C283.577 534.006 283.643 534.036 283.703 534.096C283.775 534.156 283.811 534.222 283.811 534.294V535.248ZM299.137 543.87C299.137 544.362 299.035 544.818 298.831 545.238C298.639 545.658 298.369 546.03 298.021 546.354C297.673 546.666 297.259 546.912 296.779 547.092C296.299 547.272 295.783 547.362 295.231 547.362C294.667 547.362 294.145 547.272 293.665 547.092C293.197 546.912 292.789 546.666 292.441 546.354C292.093 546.042 291.817 545.676 291.613 545.256C291.421 544.824 291.325 544.362 291.325 543.87C291.325 543.366 291.421 542.904 291.613 542.484C291.817 542.052 292.093 541.68 292.441 541.368C292.789 541.056 293.197 540.81 293.665 540.63C294.145 540.45 294.667 540.36 295.231 540.36C295.783 540.36 296.299 540.456 296.779 540.648C297.259 540.828 297.673 541.074 298.021 541.386C298.369 541.698 298.639 542.07 298.831 542.502C299.035 542.934 299.137 543.39 299.137 543.87ZM303.025 550.476C303.025 550.644 302.941 550.728 302.773 550.728H302.035C301.867 550.728 301.783 550.644 301.783 550.476V534.384C301.783 534.216 301.867 534.132 302.035 534.132H302.773C302.941 534.132 303.025 534.216 303.025 534.384V541.026H305.509C305.581 541.026 305.641 541.05 305.689 541.098C305.749 541.134 305.779 541.188 305.779 541.26V541.872C305.779 541.932 305.749 541.986 305.689 542.034C305.641 542.082 305.581 542.106 305.509 542.106H303.025V550.476ZM297.913 543.87C297.913 543.522 297.847 543.198 297.715 542.898C297.583 542.598 297.397 542.34 297.157 542.124C296.917 541.896 296.629 541.722 296.293 541.602C295.969 541.47 295.615 541.404 295.231 541.404C294.847 541.404 294.487 541.47 294.151 541.602C293.827 541.722 293.545 541.896 293.305 542.124C293.065 542.34 292.873 542.598 292.729 542.898C292.597 543.198 292.531 543.522 292.531 543.87C292.531 544.218 292.597 544.542 292.729 544.842C292.873 545.13 293.065 545.388 293.305 545.616C293.545 545.832 293.827 546.006 294.151 546.138C294.487 546.258 294.847 546.318 295.231 546.318C295.615 546.318 295.969 546.258 296.293 546.138C296.629 546.006 296.917 545.832 297.157 545.616C297.397 545.4 297.583 545.142 297.715 544.842C297.847 544.542 297.913 544.218 297.913 543.87ZM300.487 538.848C300.487 539.004 300.397 539.082 300.217 539.082H290.281C290.221 539.082 290.161 539.058 290.101 539.01C290.053 538.962 290.029 538.902 290.029 538.83V538.254C290.029 538.182 290.053 538.122 290.101 538.074C290.161 538.026 290.221 538.002 290.281 538.002H300.217C300.397 538.002 300.487 538.08 300.487 538.236V538.848ZM297.859 535.788C297.859 535.956 297.769 536.04 297.589 536.04H292.657C292.597 536.04 292.537 536.022 292.477 535.986C292.429 535.938 292.405 535.878 292.405 535.806V535.194C292.405 535.122 292.429 535.062 292.477 535.014C292.525 534.966 292.579 534.942 292.639 534.942H297.589C297.769 534.942 297.859 535.026 297.859 535.194V535.788ZM321.483 546.804C321.543 546.804 321.603 546.828 321.663 546.876C321.723 546.912 321.753 546.966 321.753 547.038V547.65C321.753 547.71 321.723 547.764 321.663 547.812C321.603 547.86 321.543 547.884 321.483 547.884H306.183C306.111 547.884 306.045 547.86 305.985 547.812C305.937 547.764 305.913 547.71 305.913 547.65V547.038C305.913 546.966 305.937 546.912 305.985 546.876C306.045 546.828 306.111 546.804 306.183 546.804H312.591V541.278C312.591 541.206 312.609 541.146 312.645 541.098C312.693 541.038 312.753 541.008 312.825 541.008H313.599C313.659 541.008 313.713 541.038 313.761 541.098C313.809 541.146 313.833 541.206 313.833 541.278V546.804H321.483ZM308.181 535.59C308.181 535.518 308.211 535.464 308.271 535.428C308.331 535.392 308.391 535.374 308.451 535.374H318.045C318.333 535.374 318.561 535.404 318.729 535.464C318.909 535.524 319.047 535.614 319.143 535.734C319.239 535.842 319.305 535.986 319.341 536.166C319.377 536.346 319.401 536.562 319.413 536.814C319.425 537.306 319.425 537.858 319.413 538.47C319.401 539.082 319.371 539.718 319.323 540.378C319.275 541.038 319.209 541.704 319.125 542.376C319.041 543.048 318.939 543.69 318.819 544.302C318.807 544.374 318.777 544.44 318.729 544.5C318.681 544.56 318.621 544.584 318.549 544.572L317.829 544.518C317.625 544.506 317.553 544.398 317.613 544.194C317.721 543.726 317.817 543.156 317.901 542.484C317.985 541.8 318.051 541.11 318.099 540.414C318.159 539.706 318.195 539.034 318.207 538.398C318.231 537.75 318.225 537.228 318.189 536.832C318.165 536.664 318.129 536.562 318.081 536.526C318.045 536.478 317.943 536.454 317.775 536.454H308.451C308.391 536.454 308.331 536.436 308.271 536.4C308.211 536.352 308.181 536.298 308.181 536.238V535.59ZM325.234 547.884C325.39 547.884 325.468 547.914 325.468 547.974C325.468 548.022 325.456 548.082 325.432 548.154L324.244 551.376C324.196 551.472 324.148 551.532 324.1 551.556C324.064 551.592 324.004 551.61 323.92 551.61H323.164C323.008 551.61 322.948 551.526 322.984 551.358L323.83 548.19C323.854 548.118 323.89 548.052 323.938 547.992C323.986 547.92 324.076 547.884 324.208 547.884H325.234ZM71.7653 580.92C71.7653 580.98 71.7353 581.046 71.6753 581.118C71.6153 581.178 71.5553 581.208 71.4953 581.208H55.8173C55.7453 581.208 55.6853 581.178 55.6373 581.118C55.5893 581.058 55.5653 580.992 55.5653 580.92V579.75C55.5653 579.678 55.5893 579.618 55.6373 579.57C55.6853 579.51 55.7453 579.48 55.8173 579.48H59.4173V578.004C59.4173 577.836 59.5073 577.752 59.6873 577.752H61.2353C61.4153 577.752 61.5053 577.836 61.5053 578.004V579.48H65.8073V578.004C65.8073 577.836 65.8973 577.752 66.0773 577.752H67.6253C67.6973 577.752 67.7573 577.776 67.8053 577.824C67.8653 577.872 67.8953 577.932 67.8953 578.004V579.48H71.4953C71.5553 579.48 71.6153 579.51 71.6753 579.57C71.7353 579.63 71.7653 579.69 71.7653 579.75V580.92ZM63.6473 577.59C62.9273 577.59 62.2613 577.518 61.6493 577.374C61.0493 577.218 60.5273 577.008 60.0833 576.744C59.6513 576.48 59.3153 576.174 59.0753 575.826C58.8353 575.466 58.7153 575.076 58.7153 574.656C58.7153 574.236 58.8353 573.846 59.0753 573.486C59.3153 573.126 59.6513 572.814 60.0833 572.55C60.5273 572.286 61.0493 572.082 61.6493 571.938C62.2613 571.782 62.9273 571.704 63.6473 571.704C64.3793 571.704 65.0453 571.782 65.6453 571.938C66.2573 572.082 66.7793 572.286 67.2113 572.55C67.6553 572.814 67.9973 573.126 68.2373 573.486C68.4773 573.846 68.5973 574.236 68.5973 574.656C68.5973 575.076 68.4773 575.466 68.2373 575.826C67.9973 576.174 67.6553 576.48 67.2113 576.744C66.7793 577.008 66.2573 577.218 65.6453 577.374C65.0453 577.518 64.3793 577.59 63.6473 577.59ZM63.6473 573.234C63.2513 573.234 62.8733 573.276 62.5133 573.36C62.1653 573.432 61.8593 573.534 61.5953 573.666C61.3313 573.786 61.1213 573.936 60.9653 574.116C60.8093 574.284 60.7313 574.464 60.7313 574.656C60.7313 574.848 60.8093 575.028 60.9653 575.196C61.1213 575.364 61.3313 575.514 61.5953 575.646C61.8593 575.766 62.1653 575.868 62.5133 575.952C62.8733 576.024 63.2513 576.06 63.6473 576.06C64.0433 576.06 64.4153 576.024 64.7633 575.952C65.1233 575.868 65.4353 575.766 65.6993 575.646C65.9753 575.514 66.1913 575.364 66.3473 575.196C66.5033 575.028 66.5813 574.848 66.5813 574.656C66.5813 574.464 66.5033 574.284 66.3473 574.116C66.1913 573.936 65.9753 573.786 65.6993 573.666C65.4353 573.534 65.1233 573.432 64.7633 573.36C64.4153 573.276 64.0433 573.234 63.6473 573.234ZM70.3253 570.822C70.3253 570.906 70.2953 570.978 70.2353 571.038C70.1873 571.086 70.1273 571.11 70.0553 571.11H57.2573C57.1973 571.11 57.1373 571.08 57.0773 571.02C57.0173 570.96 56.9873 570.888 56.9873 570.804V569.76C56.9873 569.7 57.0173 569.64 57.0773 569.58C57.1493 569.52 57.2153 569.49 57.2753 569.49H70.0553C70.1273 569.49 70.1873 569.52 70.2353 569.58C70.2953 569.628 70.3253 569.688 70.3253 569.76V570.822ZM66.6533 568.5C66.6533 568.572 66.6233 568.638 66.5633 568.698C66.5153 568.758 66.4493 568.788 66.3653 568.788H60.9473C60.8993 568.788 60.8393 568.764 60.7673 568.716C60.7073 568.668 60.6773 568.602 60.6773 568.518V567.402C60.6773 567.306 60.7073 567.234 60.7673 567.186C60.8393 567.138 60.8993 567.114 60.9473 567.114H66.3653C66.4373 567.114 66.5033 567.144 66.5633 567.204C66.6233 567.264 66.6533 567.336 66.6533 567.42V568.5ZM87.973 575.178C87.973 575.238 87.943 575.298 87.883 575.358C87.823 575.406 87.763 575.43 87.703 575.43H83.617V576.816H84.265C84.757 576.816 85.081 576.894 85.237 577.05C85.405 577.194 85.489 577.47 85.489 577.878V579.948C85.489 580.368 85.405 580.65 85.237 580.794C85.081 580.938 84.757 581.01 84.265 581.01H76.579C76.483 581.01 76.423 581.028 76.399 581.064C76.375 581.088 76.363 581.154 76.363 581.262V581.82C76.363 581.928 76.375 581.988 76.399 582C76.423 582.024 76.489 582.036 76.597 582.036H85.651C85.711 582.036 85.771 582.06 85.831 582.108C85.891 582.156 85.921 582.216 85.921 582.288V583.458C85.921 583.518 85.891 583.572 85.831 583.62C85.771 583.68 85.717 583.71 85.669 583.71H75.535C75.067 583.71 74.749 583.626 74.581 583.458C74.413 583.29 74.329 583.014 74.329 582.63V580.578C74.329 580.194 74.407 579.918 74.563 579.75C74.731 579.582 75.049 579.498 75.517 579.498H83.257C83.353 579.498 83.413 579.492 83.437 579.48C83.461 579.456 83.473 579.384 83.473 579.264V578.76C83.473 578.628 83.461 578.55 83.437 578.526C83.413 578.502 83.347 578.49 83.239 578.49H74.527C74.467 578.49 74.407 578.466 74.347 578.418C74.299 578.37 74.275 578.316 74.275 578.256V577.05C74.275 576.99 74.299 576.936 74.347 576.888C74.407 576.84 74.467 576.816 74.527 576.816H76.111V575.43H72.025C71.857 575.43 71.773 575.346 71.773 575.178V574.062C71.773 573.99 71.797 573.924 71.845 573.864C71.893 573.804 71.953 573.774 72.025 573.774H87.703C87.763 573.774 87.823 573.81 87.883 573.882C87.943 573.942 87.973 574.002 87.973 574.062V575.178ZM85.561 569.706C85.561 570.162 85.435 570.582 85.183 570.966C84.931 571.338 84.565 571.662 84.085 571.938C83.605 572.214 83.011 572.43 82.303 572.586C81.607 572.742 80.803 572.82 79.891 572.82C78.979 572.82 78.169 572.742 77.461 572.586C76.765 572.43 76.177 572.214 75.697 571.938C75.217 571.662 74.851 571.338 74.599 570.966C74.347 570.582 74.221 570.162 74.221 569.706C74.221 569.274 74.347 568.872 74.599 568.5C74.851 568.128 75.217 567.804 75.697 567.528C76.177 567.252 76.765 567.036 77.461 566.88C78.169 566.724 78.979 566.646 79.891 566.646C80.803 566.646 81.607 566.724 82.303 566.88C83.011 567.036 83.605 567.252 84.085 567.528C84.565 567.804 84.931 568.128 85.183 568.5C85.435 568.872 85.561 569.274 85.561 569.706ZM79.891 568.194C79.363 568.194 78.877 568.236 78.433 568.32C78.001 568.404 77.623 568.518 77.299 568.662C76.975 568.794 76.723 568.956 76.543 569.148C76.363 569.34 76.273 569.544 76.273 569.76C76.273 569.964 76.363 570.162 76.543 570.354C76.723 570.534 76.975 570.696 77.299 570.84C77.623 570.972 78.001 571.08 78.433 571.164C78.877 571.248 79.363 571.29 79.891 571.29C80.407 571.29 80.887 571.248 81.331 571.164C81.775 571.08 82.159 570.972 82.483 570.84C82.807 570.696 83.059 570.534 83.239 570.354C83.419 570.162 83.509 569.964 83.509 569.76C83.509 569.544 83.419 569.34 83.239 569.148C83.059 568.956 82.807 568.794 82.483 568.662C82.159 568.518 81.775 568.404 81.331 568.32C80.887 568.236 80.407 568.194 79.891 568.194ZM78.145 576.816H81.583V575.43H78.145V576.816ZM89.8348 576.672C89.7628 576.72 89.6668 576.744 89.5468 576.744C89.4268 576.732 89.3308 576.66 89.2588 576.528L88.7368 575.646C88.6768 575.55 88.6588 575.448 88.6828 575.34C88.7068 575.232 88.7788 575.154 88.8988 575.106C89.5708 574.806 90.2068 574.464 90.8068 574.08C91.4068 573.684 91.9468 573.264 92.4268 572.82C92.9188 572.376 93.3448 571.914 93.7048 571.434C94.0648 570.942 94.3408 570.45 94.5328 569.958C94.5808 569.85 94.5988 569.754 94.5868 569.67C94.5868 569.586 94.4908 569.544 94.2988 569.544H89.8348C89.6668 569.544 89.5828 569.448 89.5828 569.256V568.068C89.5828 567.996 89.6068 567.936 89.6548 567.888C89.7148 567.84 89.7808 567.816 89.8528 567.816H95.5408C96.0688 567.816 96.4588 567.912 96.7108 568.104C96.9748 568.296 97.0768 568.59 97.0168 568.986C96.9928 569.118 96.9568 569.256 96.9088 569.4C96.8728 569.544 96.8368 569.67 96.8008 569.778C96.4888 570.666 96.0388 571.506 95.4508 572.298C95.6668 572.514 95.9068 572.736 96.1708 572.964C96.4348 573.18 96.7048 573.39 96.9808 573.594C97.2688 573.786 97.5508 573.966 97.8268 574.134C98.1148 574.302 98.3788 574.44 98.6188 574.548C98.8588 574.668 98.9188 574.842 98.7988 575.07L98.2048 576.042C98.1448 576.138 98.0728 576.198 97.9888 576.222C97.9048 576.246 97.7968 576.228 97.6648 576.168C97.4488 576.06 97.1968 575.916 96.9088 575.736C96.6208 575.556 96.3208 575.352 96.0088 575.124C95.6968 574.896 95.3908 574.656 95.0908 574.404C94.7908 574.152 94.5148 573.9 94.2628 573.648C93.6508 574.248 92.9728 574.806 92.2288 575.322C91.4968 575.826 90.6988 576.276 89.8348 576.672ZM102.507 583.638C102.507 583.698 102.477 583.752 102.417 583.8C102.357 583.86 102.297 583.89 102.237 583.89H100.707C100.623 583.89 100.551 583.86 100.491 583.8C100.443 583.752 100.419 583.698 100.419 583.638V579.732C100.419 579.6 100.395 579.516 100.347 579.48C100.299 579.444 100.215 579.426 100.095 579.426H91.7608C91.7008 579.426 91.6408 579.408 91.5808 579.372C91.5328 579.324 91.5088 579.27 91.5088 579.21V577.932C91.5088 577.86 91.5328 577.806 91.5808 577.77C91.6408 577.734 91.7008 577.716 91.7608 577.716H101.301C101.757 577.716 102.069 577.812 102.237 578.004C102.417 578.184 102.507 578.502 102.507 578.958V583.638ZM97.3408 572.478V571.218C97.3408 571.158 97.3648 571.11 97.4128 571.074C97.4728 571.026 97.5328 571.002 97.5928 571.002H100.419V567.078C100.419 566.922 100.503 566.844 100.671 566.844H102.255C102.315 566.844 102.369 566.868 102.417 566.916C102.477 566.964 102.507 567.018 102.507 567.078V576.564C102.507 576.624 102.477 576.684 102.417 576.744C102.369 576.792 102.315 576.816 102.255 576.816H100.671C100.599 576.816 100.539 576.792 100.491 576.744C100.443 576.684 100.419 576.624 100.419 576.564V572.694H97.5928C97.5328 572.694 97.4728 572.676 97.4128 572.64C97.3648 572.592 97.3408 572.538 97.3408 572.478ZM120.388 580.614C120.388 580.674 120.358 580.734 120.298 580.794C120.238 580.854 120.178 580.884 120.118 580.884H104.44C104.368 580.884 104.308 580.854 104.26 580.794C104.212 580.734 104.188 580.674 104.188 580.614V579.426C104.188 579.354 104.212 579.294 104.26 579.246C104.308 579.186 104.368 579.156 104.44 579.156H120.118C120.178 579.156 120.238 579.186 120.298 579.246C120.358 579.306 120.388 579.366 120.388 579.426V580.614ZM112.288 576.186C111.448 576.186 110.668 576.09 109.948 575.898C109.228 575.706 108.604 575.43 108.076 575.07C107.548 574.71 107.134 574.278 106.834 573.774C106.534 573.27 106.384 572.706 106.384 572.082C106.384 571.458 106.534 570.894 106.834 570.39C107.134 569.886 107.548 569.454 108.076 569.094C108.604 568.734 109.228 568.458 109.948 568.266C110.668 568.074 111.448 567.978 112.288 567.978C113.128 567.978 113.908 568.074 114.628 568.266C115.348 568.458 115.972 568.734 116.5 569.094C117.028 569.454 117.436 569.886 117.724 570.39C118.024 570.894 118.174 571.458 118.174 572.082C118.174 572.706 118.024 573.27 117.724 573.774C117.436 574.278 117.028 574.71 116.5 575.07C115.972 575.43 115.348 575.706 114.628 575.898C113.908 576.09 113.128 576.186 112.288 576.186ZM112.288 569.688C111.784 569.688 111.304 569.748 110.848 569.868C110.392 569.976 109.99 570.138 109.642 570.354C109.306 570.558 109.036 570.81 108.832 571.11C108.628 571.398 108.526 571.722 108.526 572.082C108.526 572.442 108.628 572.772 108.832 573.072C109.036 573.372 109.306 573.63 109.642 573.846C109.99 574.05 110.392 574.212 110.848 574.332C111.304 574.44 111.784 574.494 112.288 574.494C112.792 574.494 113.272 574.44 113.728 574.332C114.184 574.212 114.58 574.05 114.916 573.846C115.264 573.63 115.534 573.372 115.726 573.072C115.93 572.772 116.032 572.442 116.032 572.082C116.032 571.722 115.93 571.398 115.726 571.11C115.534 570.81 115.264 570.558 114.916 570.354C114.58 570.138 114.184 569.976 113.728 569.868C113.272 569.748 112.792 569.688 112.288 569.688ZM136.596 580.74C136.596 580.8 136.566 580.86 136.506 580.92C136.446 580.98 136.386 581.01 136.326 581.01H120.648C120.576 581.01 120.516 580.98 120.468 580.92C120.42 580.86 120.396 580.8 120.396 580.74V579.606C120.396 579.534 120.42 579.468 120.468 579.408C120.516 579.348 120.576 579.318 120.648 579.318H127.47V576.636H124.248C123.984 576.636 123.768 576.618 123.6 576.582C123.432 576.546 123.3 576.48 123.204 576.384C123.108 576.288 123.042 576.168 123.006 576.024C122.97 575.868 122.952 575.67 122.952 575.43V572.532C122.952 572.292 122.97 572.1 123.006 571.956C123.042 571.8 123.108 571.68 123.204 571.596C123.3 571.5 123.432 571.44 123.6 571.416C123.768 571.38 123.984 571.362 124.248 571.362H131.736C131.856 571.362 131.928 571.35 131.952 571.326C131.988 571.29 132.006 571.206 132.006 571.074V569.67C132.006 569.538 131.988 569.466 131.952 569.454C131.928 569.43 131.856 569.418 131.736 569.418H123.258C123.198 569.418 123.144 569.394 123.096 569.346C123.048 569.286 123.024 569.226 123.024 569.166V567.96C123.024 567.9 123.048 567.846 123.096 567.798C123.144 567.75 123.198 567.726 123.258 567.726H132.726C133.23 567.726 133.572 567.81 133.752 567.978C133.932 568.134 134.022 568.446 134.022 568.914V571.83C134.022 572.298 133.932 572.616 133.752 572.784C133.572 572.94 133.23 573.018 132.726 573.018H125.22C125.1 573.018 125.028 573.03 125.004 573.054C124.98 573.078 124.968 573.15 124.968 573.27V574.692C124.968 574.824 124.98 574.908 125.004 574.944C125.04 574.968 125.118 574.98 125.238 574.98H134.166C134.226 574.98 134.28 575.004 134.328 575.052C134.376 575.088 134.4 575.136 134.4 575.196V576.402C134.4 576.462 134.37 576.516 134.31 576.564C134.262 576.612 134.214 576.636 134.166 576.636H129.54V579.318H136.326C136.386 579.318 136.446 579.354 136.506 579.426C136.566 579.486 136.596 579.546 136.596 579.606V580.74ZM149.875 578.328C149.899 578.436 149.875 578.52 149.803 578.58C149.731 578.64 149.665 578.676 149.605 578.688C149.149 578.796 148.645 578.892 148.093 578.976C147.541 579.06 146.977 579.126 146.401 579.174C145.825 579.21 145.249 579.234 144.673 579.246C144.109 579.246 143.581 579.228 143.089 579.192C142.657 579.156 142.327 579.054 142.099 578.886C141.883 578.706 141.775 578.406 141.775 577.986V569.526C141.775 569.106 141.859 568.8 142.027 568.608C142.207 568.404 142.525 568.302 142.981 568.302H148.327C148.399 568.302 148.459 568.326 148.507 568.374C148.567 568.422 148.597 568.482 148.597 568.554V569.796C148.597 569.856 148.567 569.91 148.507 569.958C148.459 570.006 148.399 570.03 148.327 570.03H144.187C143.959 570.03 143.845 570.132 143.845 570.336V576.942C143.845 577.134 143.881 577.26 143.953 577.32C144.025 577.368 144.169 577.404 144.385 577.428C144.637 577.464 144.967 577.476 145.375 577.464C145.795 577.452 146.239 577.428 146.707 577.392C147.175 577.356 147.637 577.308 148.093 577.248C148.549 577.188 148.945 577.122 149.281 577.05C149.377 577.026 149.455 577.026 149.515 577.05C149.587 577.074 149.635 577.134 149.659 577.23L149.875 578.328ZM150.739 567.384C150.739 567.228 150.823 567.15 150.991 567.15H152.467C152.623 567.15 152.701 567.228 152.701 567.384V583.098C152.701 583.266 152.623 583.35 152.467 583.35H150.991C150.823 583.35 150.739 583.266 150.739 583.098V574.476H147.661C147.589 574.476 147.523 574.452 147.463 574.404C147.415 574.356 147.391 574.302 147.391 574.242V573C147.391 572.94 147.415 572.892 147.463 572.856C147.523 572.808 147.589 572.784 147.661 572.784H150.739V567.384ZM156.193 583.728C156.193 583.884 156.115 583.962 155.959 583.962H154.393C154.237 583.962 154.159 583.884 154.159 583.728V567.078C154.159 566.922 154.243 566.844 154.411 566.844H155.959C156.115 566.844 156.193 566.922 156.193 567.078V583.728ZM171.627 583.692C171.627 583.848 171.549 583.926 171.393 583.926H169.791C169.635 583.926 169.557 583.848 169.557 583.692V567.078C169.557 566.922 169.635 566.844 169.791 566.844H171.393C171.549 566.844 171.627 566.922 171.627 567.078V583.692ZM165.129 573.846C165.129 573.294 165.075 572.772 164.967 572.28C164.859 571.776 164.703 571.338 164.499 570.966C164.295 570.594 164.043 570.3 163.743 570.084C163.455 569.868 163.119 569.76 162.735 569.76C162.351 569.76 162.009 569.868 161.709 570.084C161.421 570.3 161.175 570.594 160.971 570.966C160.767 571.338 160.611 571.776 160.503 572.28C160.395 572.772 160.341 573.294 160.341 573.846C160.341 574.386 160.395 574.908 160.503 575.412C160.611 575.904 160.767 576.342 160.971 576.726C161.175 577.098 161.421 577.398 161.709 577.626C162.009 577.842 162.351 577.95 162.735 577.95C163.119 577.95 163.455 577.842 163.743 577.626C164.043 577.398 164.295 577.098 164.499 576.726C164.703 576.342 164.859 575.904 164.967 575.412C165.075 574.908 165.129 574.386 165.129 573.846ZM162.735 579.786C162.051 579.786 161.433 579.642 160.881 579.354C160.329 579.066 159.861 578.664 159.477 578.148C159.105 577.62 158.817 576.99 158.613 576.258C158.409 575.526 158.307 574.722 158.307 573.846C158.307 572.946 158.409 572.13 158.613 571.398C158.817 570.666 159.105 570.048 159.477 569.544C159.861 569.028 160.329 568.632 160.881 568.356C161.433 568.068 162.051 567.924 162.735 567.924C163.431 567.924 164.049 568.068 164.589 568.356C165.141 568.632 165.603 569.028 165.975 569.544C166.359 570.048 166.653 570.666 166.857 571.398C167.061 572.13 167.163 572.946 167.163 573.846C167.163 574.746 167.061 575.562 166.857 576.294C166.653 577.026 166.359 577.65 165.975 578.166C165.603 578.682 165.141 579.084 164.589 579.372C164.049 579.648 163.431 579.786 162.735 579.786ZM183.622 578.49C183.646 578.622 183.628 578.712 183.568 578.76C183.52 578.808 183.466 578.844 183.406 578.868C183.01 578.988 182.494 579.096 181.858 579.192C181.222 579.288 180.55 579.366 179.842 579.426C179.134 579.474 178.432 579.504 177.736 579.516C177.052 579.528 176.458 579.51 175.954 579.462C175.09 579.39 174.658 578.958 174.658 578.166V569.328C174.658 568.908 174.742 568.614 174.91 568.446C175.09 568.278 175.408 568.194 175.864 568.194H181.822C182.002 568.194 182.092 568.272 182.092 568.428V569.688C182.092 569.844 182.002 569.922 181.822 569.922H177.052C176.836 569.922 176.728 570.024 176.728 570.228V572.766C177.112 572.766 177.508 572.766 177.916 572.766C178.336 572.766 178.75 572.766 179.158 572.766C179.566 572.754 179.956 572.742 180.328 572.73C180.712 572.718 181.06 572.7 181.372 572.676C181.42 572.676 181.468 572.688 181.516 572.712C181.564 572.736 181.588 572.778 181.588 572.838L181.606 574.08C181.606 574.176 181.588 574.254 181.552 574.314C181.516 574.362 181.48 574.386 181.444 574.386C181.108 574.41 180.742 574.434 180.346 574.458C179.95 574.47 179.542 574.482 179.122 574.494C178.714 574.506 178.306 574.512 177.898 574.512C177.49 574.512 177.1 574.512 176.728 574.512V577.266C176.728 577.458 176.758 577.59 176.818 577.662C176.89 577.722 177.034 577.758 177.25 577.77C177.622 577.794 178.036 577.806 178.492 577.806C178.96 577.794 179.446 577.77 179.95 577.734C180.454 577.686 180.976 577.632 181.516 577.572C182.056 577.5 182.59 577.41 183.118 577.302C183.298 577.266 183.406 577.332 183.442 577.5L183.622 578.49ZM186.052 567.078C186.052 566.922 186.13 566.844 186.286 566.844H187.888C188.044 566.844 188.122 566.922 188.122 567.078V583.692C188.122 583.848 188.044 583.926 187.888 583.926H186.286C186.13 583.926 186.052 583.848 186.052 583.692V574.26H183.28C183.232 574.26 183.172 574.236 183.1 574.188C183.04 574.14 183.01 574.068 183.01 573.972V572.802C183.01 572.718 183.04 572.652 183.1 572.604C183.172 572.556 183.232 572.532 183.28 572.532H186.052V567.078ZM203.52 583.53C203.52 583.59 203.49 583.644 203.43 583.692C203.382 583.752 203.334 583.782 203.286 583.782H193.368C192.9 583.782 192.582 583.698 192.414 583.53C192.246 583.362 192.162 583.086 192.162 582.702V580.776C192.162 580.392 192.24 580.116 192.396 579.948C192.564 579.78 192.882 579.696 193.35 579.696H200.91C201.006 579.696 201.066 579.69 201.09 579.678C201.114 579.654 201.126 579.588 201.126 579.48V578.976C201.126 578.844 201.114 578.766 201.09 578.742C201.066 578.718 201 578.706 200.892 578.706H192.378C192.318 578.706 192.258 578.688 192.198 578.652C192.15 578.604 192.126 578.55 192.126 578.49V577.338C192.126 577.278 192.15 577.224 192.198 577.176C192.258 577.128 192.318 577.104 192.378 577.104H201.918C202.41 577.104 202.734 577.182 202.89 577.338C203.058 577.482 203.142 577.758 203.142 578.166V580.11C203.142 580.53 203.058 580.812 202.89 580.956C202.734 581.1 202.41 581.172 201.918 581.172H194.412C194.316 581.172 194.256 581.19 194.232 581.226C194.208 581.25 194.196 581.316 194.196 581.424V581.964C194.196 582.084 194.208 582.15 194.232 582.162C194.256 582.186 194.328 582.198 194.448 582.198H203.268C203.328 582.198 203.382 582.216 203.43 582.252C203.49 582.3 203.52 582.36 203.52 582.432V583.53ZM203.412 573.126C203.412 573.186 203.382 573.246 203.322 573.306C203.274 573.354 203.226 573.378 203.178 573.378H193.422C192.954 573.378 192.636 573.294 192.468 573.126C192.3 572.958 192.216 572.682 192.216 572.298V570.444C192.216 570.06 192.294 569.784 192.45 569.616C192.618 569.448 192.936 569.364 193.404 569.364H200.892C200.988 569.364 201.048 569.352 201.072 569.328C201.096 569.292 201.108 569.214 201.108 569.094V568.554C201.108 568.446 201.096 568.386 201.072 568.374C201.048 568.35 200.982 568.338 200.874 568.338H192.54C192.48 568.338 192.42 568.32 192.36 568.284C192.312 568.236 192.288 568.182 192.288 568.122V566.988C192.288 566.928 192.312 566.874 192.36 566.826C192.42 566.778 192.48 566.754 192.54 566.754H201.9C202.392 566.754 202.716 566.832 202.872 566.988C203.04 567.132 203.124 567.408 203.124 567.816V569.778C203.124 570.198 203.04 570.48 202.872 570.624C202.716 570.768 202.392 570.84 201.9 570.84H194.484C194.376 570.84 194.31 570.858 194.286 570.894C194.262 570.918 194.25 570.978 194.25 571.074V571.56C194.25 571.668 194.262 571.734 194.286 571.758C194.31 571.77 194.382 571.776 194.502 571.776H203.16C203.22 571.776 203.274 571.8 203.322 571.848C203.382 571.884 203.412 571.938 203.412 572.01V573.126ZM205.734 575.79C205.734 575.85 205.704 575.91 205.644 575.97C205.584 576.03 205.524 576.06 205.464 576.06H189.804C189.732 576.06 189.672 576.036 189.624 575.988C189.576 575.928 189.552 575.862 189.552 575.79V574.692C189.552 574.524 189.636 574.44 189.804 574.44H205.464C205.524 574.44 205.584 574.47 205.644 574.53C205.704 574.578 205.734 574.632 205.734 574.692V575.79ZM226.537 574.368C226.537 574.428 226.507 574.482 226.447 574.53C226.399 574.578 226.345 574.602 226.285 574.602H223.927V579.066C223.927 579.222 223.849 579.3 223.693 579.3H222.091C221.935 579.3 221.857 579.222 221.857 579.066V567.078C221.857 566.922 221.935 566.844 222.091 566.844H223.693C223.849 566.844 223.927 566.922 223.927 567.078V572.874H226.285C226.345 572.874 226.399 572.898 226.447 572.946C226.507 572.994 226.537 573.048 226.537 573.108V574.368ZM224.575 583.332C224.575 583.404 224.545 583.458 224.485 583.494C224.437 583.53 224.377 583.548 224.305 583.548H214.567C214.027 583.548 213.661 583.452 213.469 583.26C213.277 583.068 213.181 582.738 213.181 582.27V578.832C213.181 578.772 213.205 578.718 213.253 578.67C213.313 578.61 213.379 578.58 213.451 578.58H214.999C215.071 578.58 215.137 578.61 215.197 578.67C215.257 578.718 215.287 578.772 215.287 578.832V581.532C215.287 581.652 215.311 581.73 215.359 581.766C215.407 581.802 215.491 581.82 215.611 581.82H224.305C224.365 581.82 224.425 581.844 224.485 581.892C224.545 581.928 224.575 581.976 224.575 582.036V583.332ZM210.319 575.682C210.319 575.502 210.403 575.412 210.571 575.412C211.111 575.436 211.657 575.448 212.209 575.448C212.761 575.448 213.325 575.448 213.901 575.448V572.028C213.901 571.848 213.985 571.758 214.153 571.758H215.683C215.851 571.758 215.935 571.848 215.935 572.028V575.394C216.787 575.37 217.621 575.334 218.437 575.286C219.253 575.226 220.027 575.154 220.759 575.07C220.819 575.058 220.879 575.064 220.939 575.088C221.011 575.112 221.053 575.166 221.065 575.25L221.155 576.348C221.167 576.432 221.149 576.504 221.101 576.564C221.053 576.624 220.999 576.66 220.939 576.672C220.111 576.768 219.241 576.846 218.329 576.906C217.417 576.966 216.505 577.014 215.593 577.05C214.693 577.086 213.811 577.11 212.947 577.122C212.095 577.134 211.303 577.128 210.571 577.104C210.499 577.104 210.439 577.08 210.391 577.032C210.343 576.972 210.319 576.906 210.319 576.834V575.682ZM220.075 569.13C220.075 569.478 220.063 569.844 220.039 570.228C220.015 570.6 219.985 570.978 219.949 571.362C219.913 571.746 219.865 572.118 219.805 572.478C219.757 572.826 219.697 573.144 219.625 573.432C219.601 573.528 219.553 573.612 219.481 573.684C219.421 573.756 219.349 573.786 219.265 573.774L217.861 573.648C217.705 573.636 217.645 573.522 217.681 573.306C217.729 573.078 217.777 572.808 217.825 572.496C217.873 572.172 217.915 571.848 217.951 571.524C217.987 571.2 218.011 570.894 218.023 570.606C218.047 570.318 218.059 570.09 218.059 569.922C218.059 569.754 218.017 569.652 217.933 569.616C217.849 569.568 217.723 569.544 217.555 569.544H211.885C211.825 569.544 211.765 569.526 211.705 569.49C211.645 569.442 211.615 569.388 211.615 569.328V568.068C211.615 567.996 211.645 567.942 211.705 567.906C211.765 567.87 211.825 567.852 211.885 567.852H218.869C219.253 567.852 219.547 567.954 219.751 568.158C219.967 568.362 220.075 568.686 220.075 569.13ZM240.782 583.692C240.782 583.848 240.704 583.926 240.548 583.926H238.946C238.79 583.926 238.712 583.848 238.712 583.692V567.078C238.712 566.922 238.79 566.844 238.946 566.844H240.548C240.704 566.844 240.782 566.922 240.782 567.078V583.692ZM237.506 578.814C237.53 578.91 237.506 578.988 237.434 579.048C237.362 579.096 237.278 579.132 237.182 579.156C236.834 579.24 236.432 579.318 235.976 579.39C235.532 579.45 235.058 579.504 234.554 579.552C234.05 579.6 233.54 579.642 233.024 579.678C232.508 579.714 232.01 579.738 231.53 579.75C231.05 579.762 230.606 579.768 230.198 579.768C229.802 579.768 229.472 579.756 229.208 579.732C228.68 579.684 228.314 579.57 228.11 579.39C227.918 579.21 227.822 578.892 227.822 578.436V574.116C227.822 573.684 227.924 573.372 228.128 573.18C228.344 572.988 228.662 572.892 229.082 572.892H233.366C233.462 572.892 233.528 572.88 233.564 572.856C233.6 572.82 233.618 572.742 233.618 572.622V570.102C233.618 570.006 233.606 569.94 233.582 569.904C233.558 569.868 233.486 569.85 233.366 569.85H228.182C228.122 569.85 228.062 569.826 228.002 569.778C227.954 569.73 227.93 569.676 227.93 569.616V568.374C227.93 568.314 227.954 568.266 228.002 568.23C228.062 568.182 228.122 568.158 228.182 568.158H234.446C234.962 568.158 235.292 568.254 235.436 568.446C235.592 568.638 235.67 568.95 235.67 569.382V573.378C235.67 573.834 235.574 574.146 235.382 574.314C235.202 574.482 234.878 574.566 234.41 574.566H230.144C229.976 574.566 229.892 574.65 229.892 574.818V577.662C229.892 577.794 229.916 577.884 229.964 577.932C230.012 577.968 230.102 577.986 230.234 577.986C230.762 578.01 231.314 578.016 231.89 578.004C232.478 577.98 233.066 577.95 233.654 577.914C234.242 577.866 234.812 577.806 235.364 577.734C235.928 577.662 236.456 577.578 236.948 577.482C237.032 577.458 237.11 577.47 237.182 577.518C237.266 577.554 237.32 577.626 237.344 577.734L237.506 578.814ZM256.185 573.576C256.185 574.044 256.089 574.368 255.897 574.548C255.705 574.728 255.381 574.818 254.925 574.818H249.615C249.111 574.818 248.757 574.728 248.553 574.548C248.361 574.368 248.265 574.044 248.265 573.576V568.59C248.265 568.134 248.361 567.816 248.553 567.636C248.745 567.456 249.069 567.366 249.525 567.366H254.925C255.381 567.366 255.705 567.45 255.897 567.618C256.089 567.774 256.185 568.098 256.185 568.59V573.576ZM250.443 584.07C250.335 584.082 250.233 584.076 250.137 584.052C250.053 584.04 249.999 583.986 249.975 583.89L249.651 582.792C249.603 582.612 249.693 582.504 249.921 582.468C251.421 582.228 252.825 581.928 254.133 581.568C255.453 581.208 256.575 580.764 257.499 580.236C257.703 580.128 257.781 580.068 257.733 580.056C257.697 580.032 257.631 580.02 257.535 580.02H250.983C250.827 580.02 250.749 579.942 250.749 579.786V578.616C250.749 578.472 250.827 578.4 250.983 578.4H259.191C259.803 578.4 260.247 578.478 260.523 578.634C260.811 578.79 260.955 578.958 260.955 579.138C260.955 579.39 260.889 579.618 260.757 579.822C260.625 580.026 260.427 580.248 260.163 580.488C259.779 580.86 259.239 581.232 258.543 581.604C259.119 581.772 259.743 581.928 260.415 582.072C261.099 582.228 261.729 582.354 262.305 582.45C262.377 582.462 262.431 582.492 262.467 582.54C262.503 582.6 262.509 582.666 262.485 582.738L262.107 583.746C262.083 583.806 262.035 583.86 261.963 583.908C261.903 583.956 261.825 583.968 261.729 583.944C261.357 583.896 260.943 583.824 260.487 583.728C260.043 583.644 259.581 583.542 259.101 583.422C258.633 583.302 258.159 583.17 257.679 583.026C257.199 582.894 256.749 582.756 256.329 582.612C255.429 582.96 254.475 583.254 253.467 583.494C252.471 583.746 251.463 583.938 250.443 584.07ZM261.135 575.88C261.135 576.048 261.057 576.132 260.901 576.132H259.299C259.143 576.132 259.065 576.042 259.065 575.862V567.078C259.065 566.922 259.143 566.844 259.299 566.844H260.901C261.057 566.844 261.135 566.922 261.135 567.078V575.88ZM254.205 569.184C254.205 569.088 254.187 569.028 254.151 569.004C254.115 568.968 254.049 568.95 253.953 568.95H250.497C250.389 568.95 250.317 568.962 250.281 568.986C250.257 569.01 250.245 569.07 250.245 569.166V573C250.245 573.12 250.257 573.192 250.281 573.216C250.317 573.24 250.389 573.252 250.497 573.252H253.953C254.061 573.252 254.127 573.24 254.151 573.216C254.187 573.192 254.205 573.12 254.205 573V569.184ZM258.435 577.284C258.435 577.356 258.405 577.422 258.345 577.482C258.297 577.542 258.231 577.572 258.147 577.572H253.539C253.491 577.572 253.431 577.548 253.359 577.5C253.299 577.452 253.269 577.386 253.269 577.302V576.222C253.269 576.138 253.299 576.072 253.359 576.024C253.431 575.976 253.491 575.952 253.539 575.952H258.147C258.219 575.952 258.285 575.982 258.345 576.042C258.405 576.102 258.435 576.168 258.435 576.24V577.284ZM281.848 582.396C281.848 582.852 281.746 583.176 281.542 583.368C281.35 583.56 281.026 583.656 280.57 583.656H272.542C272.002 583.656 271.636 583.56 271.444 583.368C271.264 583.176 271.174 582.846 271.174 582.378V578.616C271.174 578.16 271.27 577.83 271.462 577.626C271.666 577.422 271.996 577.32 272.452 577.32H280.48C281.02 577.32 281.38 577.422 281.56 577.626C281.752 577.818 281.848 578.154 281.848 578.634V582.396ZM279.796 579.21C279.796 579.114 279.778 579.054 279.742 579.03C279.718 578.994 279.658 578.976 279.562 578.976H273.46C273.364 578.976 273.298 578.988 273.262 579.012C273.238 579.036 273.226 579.096 273.226 579.192V581.766C273.226 581.874 273.238 581.94 273.262 581.964C273.298 581.988 273.364 582 273.46 582H279.562C279.658 582 279.718 581.988 279.742 581.964C279.778 581.94 279.796 581.874 279.796 581.766V579.21ZM269.428 576.78C269.296 576.84 269.182 576.864 269.086 576.852C268.99 576.828 268.912 576.756 268.852 576.636L268.402 575.682C268.354 575.586 268.336 575.49 268.348 575.394C268.372 575.298 268.444 575.22 268.564 575.16C270.04 574.536 271.27 573.768 272.254 572.856C273.238 571.932 273.898 570.924 274.234 569.832C274.294 569.64 274.312 569.508 274.288 569.436C274.264 569.364 274.162 569.328 273.982 569.328H269.14C269.056 569.328 268.99 569.298 268.942 569.238C268.906 569.178 268.888 569.112 268.888 569.04V567.852C268.888 567.684 268.978 567.6 269.158 567.6H275.206C275.734 567.6 276.106 567.684 276.322 567.852C276.538 568.02 276.646 568.296 276.646 568.68C276.646 568.728 276.64 568.8 276.628 568.896C276.616 568.98 276.598 569.07 276.574 569.166C276.562 569.262 276.544 569.352 276.52 569.436C276.508 569.508 276.496 569.562 276.484 569.598C276.028 571.242 275.212 572.658 274.036 573.846C272.86 575.022 271.324 576 269.428 576.78ZM276.304 572.676V571.398C276.304 571.338 276.328 571.29 276.376 571.254C276.436 571.206 276.502 571.182 276.574 571.182H279.796V567.078C279.796 566.922 279.874 566.844 280.03 566.844H281.632C281.788 566.844 281.866 566.922 281.866 567.078V576.186C281.866 576.342 281.788 576.42 281.632 576.42H280.03C279.874 576.42 279.796 576.342 279.796 576.186V572.892H276.574C276.502 572.892 276.436 572.874 276.376 572.838C276.328 572.79 276.304 572.736 276.304 572.676ZM296.796 567.078C296.796 566.922 296.88 566.844 297.048 566.844H298.596C298.752 566.844 298.83 566.922 298.83 567.078V576.636C298.83 576.804 298.752 576.888 298.596 576.888H297.03C296.874 576.888 296.796 576.804 296.796 576.636V572.82H295.176V576.51C295.176 576.678 295.098 576.762 294.942 576.762H293.466C293.298 576.762 293.214 576.678 293.214 576.51V567.366C293.214 567.21 293.298 567.132 293.466 567.132H294.942C295.098 567.132 295.176 567.21 295.176 567.366V571.092H296.796V567.078ZM298.83 583.638C298.83 583.698 298.8 583.752 298.74 583.8C298.692 583.86 298.638 583.89 298.578 583.89H297.03C296.958 583.89 296.892 583.86 296.832 583.8C296.784 583.752 296.76 583.698 296.76 583.638V579.732C296.76 579.6 296.736 579.516 296.688 579.48C296.64 579.444 296.556 579.426 296.436 579.426H287.472C287.412 579.426 287.352 579.408 287.292 579.372C287.244 579.324 287.22 579.27 287.22 579.21V577.932C287.22 577.86 287.244 577.806 287.292 577.77C287.352 577.734 287.412 577.716 287.472 577.716H297.642C298.098 577.716 298.41 577.812 298.578 578.004C298.746 578.184 298.83 578.502 298.83 578.958V583.638ZM285.186 576.294C285.09 576.354 284.988 576.39 284.88 576.402C284.772 576.402 284.676 576.354 284.592 576.258L283.926 575.484C283.746 575.28 283.77 575.094 283.998 574.926C284.694 574.422 285.27 573.9 285.726 573.36C286.182 572.82 286.542 572.256 286.806 571.668C287.082 571.08 287.274 570.462 287.382 569.814C287.49 569.166 287.544 568.488 287.544 567.78C287.544 567.696 287.568 567.624 287.616 567.564C287.676 567.504 287.736 567.474 287.796 567.474L289.308 567.546C289.464 567.546 289.542 567.642 289.542 567.834C289.542 568.806 289.452 569.712 289.272 570.552C289.512 571.248 289.914 571.92 290.478 572.568C291.042 573.216 291.666 573.768 292.35 574.224C292.446 574.284 292.488 574.35 292.476 574.422C292.476 574.482 292.446 574.554 292.386 574.638L291.702 575.556C291.558 575.736 291.384 575.76 291.18 575.628C290.676 575.316 290.172 574.914 289.668 574.422C289.164 573.93 288.75 573.396 288.426 572.82C288.054 573.528 287.598 574.17 287.058 574.746C286.53 575.31 285.906 575.826 285.186 576.294ZM313.687 583.566C313.687 583.626 313.657 583.674 313.597 583.71C313.549 583.758 313.501 583.782 313.453 583.782H304.399C303.835 583.782 303.463 583.674 303.283 583.458C303.115 583.254 303.031 582.9 303.031 582.396V581.424C303.031 580.92 303.133 580.584 303.337 580.416C303.553 580.236 303.931 580.146 304.471 580.146H311.671C311.839 580.146 311.947 580.122 311.995 580.074C312.043 580.026 312.067 579.912 312.067 579.732V579.048C312.067 578.868 312.043 578.754 311.995 578.706C311.959 578.658 311.857 578.634 311.689 578.634H303.247C303.187 578.634 303.127 578.616 303.067 578.58C303.019 578.544 302.995 578.496 302.995 578.436V577.788C302.995 577.728 303.019 577.68 303.067 577.644C303.127 577.608 303.187 577.59 303.247 577.59H311.887C312.175 577.59 312.409 577.614 312.589 577.662C312.769 577.698 312.913 577.764 313.021 577.86C313.129 577.956 313.201 578.094 313.237 578.274C313.285 578.442 313.309 578.652 313.309 578.904V579.912C313.309 580.416 313.201 580.758 312.985 580.938C312.781 581.106 312.409 581.19 311.869 581.19H304.651C304.483 581.19 304.375 581.214 304.327 581.262C304.291 581.31 304.273 581.424 304.273 581.604V582.324C304.273 582.492 304.297 582.6 304.345 582.648C304.393 582.708 304.501 582.738 304.669 582.738H313.435C313.495 582.738 313.549 582.756 313.597 582.792C313.657 582.828 313.687 582.876 313.687 582.936V583.566ZM309.367 573.918C309.367 574.326 309.265 574.704 309.061 575.052C308.869 575.388 308.599 575.682 308.251 575.934C307.903 576.174 307.495 576.366 307.027 576.51C306.559 576.642 306.049 576.708 305.497 576.708C304.945 576.708 304.429 576.642 303.949 576.51C303.481 576.366 303.073 576.174 302.725 575.934C302.389 575.682 302.119 575.388 301.915 575.052C301.723 574.704 301.627 574.326 301.627 573.918C301.627 573.51 301.723 573.138 301.915 572.802C302.119 572.454 302.389 572.16 302.725 571.92C303.073 571.668 303.481 571.476 303.949 571.344C304.429 571.212 304.945 571.146 305.497 571.146C306.049 571.146 306.559 571.218 307.027 571.362C307.495 571.494 307.903 571.686 308.251 571.938C308.599 572.178 308.869 572.466 309.061 572.802C309.265 573.138 309.367 573.51 309.367 573.918ZM308.161 573.918C308.161 573.642 308.089 573.396 307.945 573.18C307.813 572.964 307.627 572.784 307.387 572.64C307.159 572.484 306.877 572.37 306.541 572.298C306.217 572.214 305.869 572.172 305.497 572.172C305.113 572.172 304.759 572.214 304.435 572.298C304.111 572.37 303.829 572.478 303.589 572.622C303.349 572.766 303.157 572.946 303.013 573.162C302.881 573.378 302.815 573.63 302.815 573.918C302.815 574.194 302.881 574.44 303.013 574.656C303.157 574.872 303.349 575.058 303.589 575.214C303.829 575.37 304.111 575.49 304.435 575.574C304.759 575.646 305.113 575.682 305.497 575.682C305.869 575.682 306.217 575.646 306.541 575.574C306.877 575.49 307.159 575.37 307.387 575.214C307.627 575.058 307.813 574.872 307.945 574.656C308.089 574.44 308.161 574.194 308.161 573.918ZM313.291 576.492C313.291 576.66 313.207 576.744 313.039 576.744H312.301C312.133 576.744 312.049 576.66 312.049 576.492V567.384C312.049 567.216 312.133 567.132 312.301 567.132H313.039C313.207 567.132 313.291 567.216 313.291 567.384V571.506H315.775C315.847 571.506 315.907 571.53 315.955 571.578C316.015 571.614 316.045 571.668 316.045 571.74V572.352C316.045 572.412 316.015 572.466 315.955 572.514C315.907 572.562 315.847 572.586 315.775 572.586H313.291V576.492ZM310.753 570.138C310.753 570.294 310.663 570.372 310.483 570.372H300.547C300.487 570.372 300.427 570.348 300.367 570.3C300.319 570.252 300.295 570.192 300.295 570.12V569.544C300.295 569.472 300.319 569.412 300.367 569.364C300.427 569.316 300.487 569.292 300.547 569.292H310.483C310.663 569.292 310.753 569.37 310.753 569.526V570.138ZM308.125 568.068C308.125 568.236 308.035 568.32 307.855 568.32H302.923C302.863 568.32 302.803 568.302 302.743 568.266C302.695 568.218 302.671 568.158 302.671 568.086V567.474C302.671 567.402 302.695 567.342 302.743 567.294C302.791 567.246 302.845 567.222 302.905 567.222H307.855C308.035 567.222 308.125 567.306 308.125 567.474V568.068ZM327.992 583.62C327.932 583.62 327.878 583.59 327.83 583.53C327.782 583.482 327.758 583.422 327.758 583.35V577.482H320.774C320.702 577.482 320.636 577.458 320.576 577.41C320.528 577.362 320.504 577.308 320.504 577.248V576.636C320.504 576.564 320.528 576.51 320.576 576.474C320.636 576.426 320.702 576.402 320.774 576.402H336.074C336.134 576.402 336.194 576.426 336.254 576.474C336.314 576.51 336.344 576.564 336.344 576.636V577.248C336.344 577.308 336.314 577.362 336.254 577.41C336.194 577.458 336.134 577.482 336.074 577.482H329V583.35C329 583.422 328.976 583.482 328.928 583.53C328.892 583.59 328.838 583.62 328.766 583.62H327.992ZM329.054 567.528C329.03 567.684 329 567.834 328.964 567.978C328.928 568.122 328.892 568.26 328.856 568.392C328.892 568.524 328.934 568.65 328.982 568.77C329.03 568.878 329.084 568.986 329.144 569.094C329.348 569.49 329.648 569.892 330.044 570.3C330.44 570.696 330.896 571.074 331.412 571.434C331.928 571.782 332.486 572.094 333.086 572.37C333.686 572.646 334.304 572.862 334.94 573.018C335.012 573.042 335.06 573.09 335.084 573.162C335.108 573.234 335.108 573.3 335.084 573.36L334.796 573.972C334.76 574.032 334.718 574.074 334.67 574.098C334.634 574.122 334.556 574.122 334.436 574.098C333.8 573.93 333.17 573.702 332.546 573.414C331.922 573.114 331.34 572.772 330.8 572.388C330.26 572.004 329.768 571.59 329.324 571.146C328.892 570.702 328.538 570.252 328.262 569.796C327.746 570.732 327.008 571.578 326.048 572.334C325.088 573.078 323.882 573.738 322.43 574.314C322.238 574.386 322.118 574.362 322.07 574.242L321.728 573.612C321.704 573.552 321.698 573.486 321.71 573.414C321.734 573.342 321.782 573.294 321.854 573.27C322.634 573.006 323.378 572.658 324.086 572.226C324.794 571.782 325.418 571.296 325.958 570.768C326.498 570.24 326.93 569.688 327.254 569.112C327.59 568.536 327.776 567.966 327.812 567.402C327.824 567.258 327.902 567.186 328.046 567.186L328.856 567.276C328.916 567.288 328.97 567.312 329.018 567.348C329.066 567.384 329.078 567.444 329.054 567.528ZM350.577 571.848C350.577 572.448 350.469 573 350.253 573.504C350.037 573.996 349.737 574.422 349.353 574.782C348.969 575.142 348.513 575.424 347.985 575.628C347.469 575.832 346.905 575.934 346.293 575.934C345.705 575.934 345.153 575.838 344.637 575.646C344.121 575.442 343.671 575.16 343.287 574.8C342.915 574.44 342.621 574.008 342.405 573.504C342.189 573 342.081 572.448 342.081 571.848C342.081 571.212 342.189 570.642 342.405 570.138C342.621 569.622 342.915 569.19 343.287 568.842C343.671 568.482 344.121 568.212 344.637 568.032C345.153 567.84 345.705 567.744 346.293 567.744C346.845 567.744 347.379 567.84 347.895 568.032C348.411 568.212 348.867 568.476 349.263 568.824C349.659 569.172 349.977 569.604 350.217 570.12C350.457 570.624 350.577 571.2 350.577 571.848ZM349.317 571.83C349.317 571.35 349.233 570.93 349.065 570.57C348.909 570.198 348.693 569.892 348.417 569.652C348.141 569.4 347.817 569.214 347.445 569.094C347.085 568.962 346.701 568.896 346.293 568.896C345.873 568.896 345.483 568.962 345.123 569.094C344.775 569.214 344.463 569.4 344.187 569.652C343.923 569.892 343.713 570.198 343.557 570.57C343.413 570.93 343.341 571.35 343.341 571.83C343.341 572.286 343.413 572.694 343.557 573.054C343.701 573.414 343.905 573.726 344.169 573.99C344.433 574.254 344.745 574.458 345.105 574.602C345.465 574.734 345.861 574.8 346.293 574.8C346.701 574.8 347.085 574.734 347.445 574.602C347.817 574.458 348.141 574.254 348.417 573.99C348.693 573.726 348.909 573.414 349.065 573.054C349.233 572.694 349.317 572.286 349.317 571.83ZM356.517 583.566C356.469 583.626 356.421 583.668 356.373 583.692C356.337 583.716 356.277 583.704 356.193 583.656C355.437 583.26 354.789 582.786 354.249 582.234C353.721 581.694 353.313 581.106 353.025 580.47C352.713 581.118 352.323 581.706 351.855 582.234C351.399 582.774 350.877 583.224 350.289 583.584C350.121 583.68 349.941 583.674 349.749 583.566C349.161 583.23 348.633 582.804 348.165 582.288C347.697 581.784 347.325 581.226 347.049 580.614C346.737 581.238 346.311 581.802 345.771 582.306C345.243 582.81 344.589 583.272 343.809 583.692C343.749 583.716 343.683 583.74 343.611 583.764C343.539 583.788 343.485 583.776 343.449 583.728L343.017 583.08C342.993 583.032 342.987 582.972 342.999 582.9C343.023 582.84 343.071 582.792 343.143 582.756C344.319 582.18 345.177 581.472 345.717 580.632C346.269 579.78 346.509 578.748 346.437 577.536C346.437 577.38 346.497 577.302 346.617 577.302L347.481 577.32C347.613 577.32 347.679 577.392 347.679 577.536C347.679 577.896 347.661 578.244 347.625 578.58C347.637 578.94 347.709 579.312 347.841 579.696C347.973 580.08 348.141 580.446 348.345 580.794C348.549 581.13 348.783 581.442 349.047 581.73C349.323 582.006 349.611 582.222 349.911 582.378C350.019 582.438 350.115 582.438 350.199 582.378C350.523 582.174 350.823 581.898 351.099 581.55C351.375 581.202 351.615 580.812 351.819 580.38C352.035 579.948 352.197 579.486 352.305 578.994C352.425 578.502 352.479 578.01 352.467 577.518C352.467 577.458 352.479 577.404 352.503 577.356C352.539 577.296 352.593 577.266 352.665 577.266L353.511 577.284C353.643 577.284 353.709 577.356 353.709 577.5C353.697 577.632 353.685 577.764 353.673 577.896C353.673 578.016 353.667 578.142 353.655 578.274C353.655 579.234 353.925 580.098 354.465 580.866C355.005 581.622 355.785 582.234 356.805 582.702C356.949 582.786 356.973 582.9 356.877 583.044L356.517 583.566ZM354.987 576.258C354.987 576.426 354.903 576.51 354.735 576.51H353.997C353.829 576.51 353.745 576.426 353.745 576.258V567.384C353.745 567.216 353.829 567.132 353.997 567.132H354.735C354.903 567.132 354.987 567.216 354.987 567.384V576.258ZM361.078 583.62C360.79 583.62 360.556 583.602 360.376 583.566C360.208 583.53 360.076 583.458 359.98 583.35C359.884 583.254 359.818 583.122 359.782 582.954C359.746 582.798 359.728 582.594 359.728 582.342V577.248C359.728 577.188 359.752 577.14 359.8 577.104C359.848 577.056 359.902 577.032 359.962 577.032H360.754C360.814 577.032 360.862 577.056 360.898 577.104C360.946 577.152 360.97 577.2 360.97 577.248V579.192H369.322V577.266C369.322 577.206 369.34 577.152 369.376 577.104C369.424 577.056 369.478 577.032 369.538 577.032H370.33C370.39 577.032 370.444 577.056 370.492 577.104C370.54 577.14 370.564 577.188 370.564 577.248V582.468C370.564 582.924 370.468 583.23 370.276 583.386C370.084 583.542 369.724 583.62 369.196 583.62H361.078ZM360.97 580.272V582.108C360.97 582.288 361 582.402 361.06 582.45C361.12 582.51 361.234 582.54 361.402 582.54H368.89C369.058 582.54 369.172 582.51 369.232 582.45C369.292 582.402 369.322 582.288 369.322 582.108V580.272H360.97ZM365.794 567.456C365.77 567.528 365.752 567.6 365.74 567.672C365.74 567.732 365.728 567.792 365.704 567.852C365.74 568.008 365.788 568.158 365.848 568.302C365.92 568.446 365.998 568.578 366.082 568.698C366.334 569.094 366.658 569.472 367.054 569.832C367.45 570.18 367.882 570.498 368.35 570.786C368.83 571.062 369.334 571.302 369.862 571.506C370.402 571.71 370.942 571.866 371.482 571.974C371.554 571.998 371.596 572.04 371.608 572.1C371.62 572.16 371.614 572.22 371.59 572.28L371.284 572.892C371.26 572.952 371.224 573 371.176 573.036C371.14 573.06 371.062 573.06 370.942 573.036C370.33 572.892 369.724 572.694 369.124 572.442C368.536 572.178 367.984 571.878 367.468 571.542C366.952 571.194 366.49 570.822 366.082 570.426C365.674 570.03 365.35 569.634 365.11 569.238C364.63 570.066 363.928 570.792 363.004 571.416C362.08 572.04 360.868 572.604 359.368 573.108C359.176 573.168 359.056 573.138 359.008 573.018L358.702 572.37C358.678 572.31 358.672 572.244 358.684 572.172C358.708 572.1 358.762 572.052 358.846 572.028C359.722 571.764 360.49 571.476 361.15 571.164C361.822 570.852 362.392 570.51 362.86 570.138C363.328 569.766 363.7 569.352 363.976 568.896C364.264 568.428 364.456 567.906 364.552 567.33C364.588 567.174 364.666 567.102 364.786 567.114L365.596 567.204C365.656 567.204 365.71 567.228 365.758 567.276C365.806 567.312 365.818 567.372 365.794 567.456ZM372.814 574.494C372.874 574.494 372.934 574.518 372.994 574.566C373.054 574.602 373.084 574.656 373.084 574.728V575.34C373.084 575.4 373.054 575.454 372.994 575.502C372.934 575.55 372.874 575.574 372.814 575.574H357.514C357.442 575.574 357.376 575.55 357.316 575.502C357.268 575.454 357.244 575.4 357.244 575.34V574.71C357.244 574.638 357.268 574.584 357.316 574.548C357.376 574.512 357.442 574.494 357.514 574.494H372.814ZM387.402 583.476C387.402 583.644 387.318 583.728 387.15 583.728H386.412C386.244 583.728 386.16 583.644 386.16 583.476V567.384C386.16 567.216 386.244 567.132 386.412 567.132H387.15C387.318 567.132 387.402 567.216 387.402 567.384V583.476ZM376.476 577.158C376.476 577.338 376.506 577.458 376.566 577.518C376.626 577.578 376.74 577.614 376.908 577.626C377.496 577.65 378.12 577.656 378.78 577.644C379.452 577.62 380.124 577.584 380.796 577.536C381.468 577.476 382.122 577.404 382.758 577.32C383.406 577.236 384.006 577.14 384.558 577.032C384.762 576.984 384.882 577.056 384.918 577.248L385.008 577.752C385.044 577.92 384.966 578.028 384.774 578.076C384.366 578.172 383.838 578.262 383.19 578.346C382.554 578.43 381.864 578.508 381.12 578.58C380.376 578.64 379.614 578.688 378.834 578.724C378.054 578.748 377.328 578.754 376.656 578.742C376.116 578.73 375.744 578.604 375.54 578.364C375.336 578.124 375.234 577.752 375.234 577.248V568.392C375.234 568.224 375.318 568.14 375.486 568.14H376.224C376.392 568.14 376.476 568.224 376.476 568.392V577.158ZM400.424 577.914C400.448 578.082 400.37 578.184 400.19 578.22C399.746 578.328 399.182 578.43 398.498 578.526C397.826 578.622 397.112 578.706 396.356 578.778C395.612 578.85 394.874 578.904 394.142 578.94C393.41 578.976 392.774 578.988 392.234 578.976C391.694 578.964 391.322 578.838 391.118 578.598C390.926 578.358 390.83 577.986 390.83 577.482V569.742C390.83 569.238 390.926 568.902 391.118 568.734C391.31 568.566 391.67 568.482 392.198 568.482H398.39C398.546 568.482 398.624 568.554 398.624 568.698V569.346C398.624 569.49 398.546 569.562 398.39 569.562H392.432C392.264 569.562 392.162 569.586 392.126 569.634C392.09 569.67 392.072 569.778 392.072 569.958V577.392C392.072 577.572 392.102 577.692 392.162 577.752C392.222 577.812 392.336 577.848 392.504 577.86C393.08 577.884 393.686 577.884 394.322 577.86C394.97 577.824 395.618 577.776 396.266 577.716C396.926 577.644 397.568 577.566 398.192 577.482C398.828 577.386 399.428 577.284 399.992 577.176C400.184 577.14 400.298 577.206 400.334 577.374L400.424 577.914ZM402.98 583.476C402.98 583.644 402.896 583.728 402.728 583.728H401.99C401.822 583.728 401.738 583.644 401.738 583.476V567.384C401.738 567.216 401.822 567.132 401.99 567.132H402.728C402.896 567.132 402.98 567.216 402.98 567.384V573.936H405.464C405.536 573.936 405.596 573.96 405.644 574.008C405.704 574.044 405.734 574.098 405.734 574.17V574.782C405.734 574.842 405.704 574.896 405.644 574.944C405.596 574.992 405.536 575.016 405.464 575.016H402.98V583.476ZM407.272 581.928C407.272 581.676 407.356 581.466 407.524 581.298C407.704 581.118 407.92 581.028 408.172 581.028C408.424 581.028 408.634 581.118 408.802 581.298C408.982 581.466 409.072 581.676 409.072 581.928C409.072 582.18 408.982 582.39 408.802 582.558C408.634 582.738 408.424 582.828 408.172 582.828C407.92 582.828 407.704 582.738 407.524 582.558C407.356 582.39 407.272 582.18 407.272 581.928Z" fill="white"/>
<path d="M109.61 426.16C108.725 426.16 107.925 425.936 107.21 425.488C106.506 425.04 105.952 424.389 105.546 423.536C105.141 422.672 104.938 421.627 104.938 420.4C104.938 419.173 105.141 418.133 105.546 417.28C105.952 416.416 106.506 415.76 107.21 415.312C107.925 414.864 108.725 414.64 109.61 414.64C110.506 414.64 111.306 414.864 112.01 415.312C112.714 415.76 113.269 416.416 113.674 417.28C114.09 418.133 114.298 419.173 114.298 420.4C114.298 421.627 114.09 422.672 113.674 423.536C113.269 424.389 112.714 425.04 112.01 425.488C111.306 425.936 110.506 426.16 109.61 426.16ZM109.61 424.352C110.133 424.352 110.586 424.213 110.97 423.936C111.354 423.648 111.653 423.211 111.866 422.624C112.09 422.037 112.202 421.296 112.202 420.4C112.202 419.493 112.09 418.752 111.866 418.176C111.653 417.589 111.354 417.157 110.97 416.88C110.586 416.592 110.133 416.448 109.61 416.448C109.109 416.448 108.661 416.592 108.266 416.88C107.882 417.157 107.578 417.589 107.354 418.176C107.141 418.752 107.034 419.493 107.034 420.4C107.034 421.296 107.141 422.037 107.354 422.624C107.578 423.211 107.882 423.648 108.266 423.936C108.661 424.213 109.109 424.352 109.61 424.352Z" fill="#00B2FF"/>
<path d="M331.583 426L336.207 415.632L336.751 416.56H330.399L331.391 415.552V418.464H329.455V414.8H338.159V416.192L333.807 426H331.583ZM343.325 426.16C342.439 426.16 341.639 425.936 340.925 425.488C340.221 425.04 339.666 424.389 339.261 423.536C338.855 422.672 338.653 421.627 338.653 420.4C338.653 419.173 338.855 418.133 339.261 417.28C339.666 416.416 340.221 415.76 340.925 415.312C341.639 414.864 342.439 414.64 343.325 414.64C344.221 414.64 345.021 414.864 345.725 415.312C346.429 415.76 346.983 416.416 347.389 417.28C347.805 418.133 348.013 419.173 348.013 420.4C348.013 421.627 347.805 422.672 347.389 423.536C346.983 424.389 346.429 425.04 345.725 425.488C345.021 425.936 344.221 426.16 343.325 426.16ZM343.325 424.352C343.847 424.352 344.301 424.213 344.685 423.936C345.069 423.648 345.367 423.211 345.581 422.624C345.805 422.037 345.917 421.296 345.917 420.4C345.917 419.493 345.805 418.752 345.581 418.176C345.367 417.589 345.069 417.157 344.685 416.88C344.301 416.592 343.847 416.448 343.325 416.448C342.823 416.448 342.375 416.592 341.981 416.88C341.597 417.157 341.293 417.589 341.069 418.176C340.855 418.752 340.749 419.493 340.749 420.4C340.749 421.296 340.855 422.037 341.069 422.624C341.293 423.211 341.597 423.648 341.981 423.936C342.375 424.213 342.823 424.352 343.325 424.352ZM350.506 426L358.154 414.8H359.722L352.074 426H350.506ZM351.434 420.832C350.912 420.832 350.448 420.704 350.042 420.448C349.637 420.192 349.322 419.835 349.098 419.376C348.874 418.917 348.762 418.379 348.762 417.76C348.762 417.141 348.874 416.603 349.098 416.144C349.322 415.685 349.637 415.328 350.042 415.072C350.448 414.816 350.912 414.688 351.434 414.688C351.978 414.688 352.448 414.816 352.842 415.072C353.248 415.328 353.562 415.685 353.786 416.144C354.01 416.603 354.122 417.141 354.122 417.76C354.122 418.379 354.01 418.917 353.786 419.376C353.562 419.835 353.248 420.192 352.842 420.448C352.448 420.704 351.978 420.832 351.434 420.832ZM351.45 419.712C351.877 419.712 352.208 419.547 352.442 419.216C352.688 418.875 352.81 418.389 352.81 417.76C352.81 417.131 352.688 416.651 352.442 416.32C352.208 415.979 351.877 415.808 351.45 415.808C351.024 415.808 350.682 415.979 350.426 416.32C350.181 416.661 350.058 417.141 350.058 417.76C350.058 418.379 350.181 418.859 350.426 419.2C350.682 419.541 351.024 419.712 351.45 419.712ZM358.778 426.112C358.256 426.112 357.792 425.984 357.386 425.728C356.981 425.472 356.666 425.115 356.442 424.656C356.218 424.197 356.106 423.659 356.106 423.04C356.106 422.421 356.218 421.883 356.442 421.424C356.666 420.965 356.981 420.608 357.386 420.352C357.792 420.096 358.256 419.968 358.778 419.968C359.322 419.968 359.792 420.096 360.186 420.352C360.592 420.608 360.906 420.965 361.13 421.424C361.354 421.883 361.466 422.421 361.466 423.04C361.466 423.659 361.354 424.197 361.13 424.656C360.906 425.115 360.592 425.472 360.186 425.728C359.792 425.984 359.322 426.112 358.778 426.112ZM358.778 424.992C359.205 424.992 359.541 424.821 359.786 424.48C360.032 424.139 360.154 423.659 360.154 423.04C360.154 422.421 360.032 421.941 359.786 421.6C359.541 421.259 359.205 421.088 358.778 421.088C358.362 421.088 358.026 421.259 357.77 421.6C357.525 421.931 357.402 422.411 357.402 423.04C357.402 423.669 357.525 424.155 357.77 424.496C358.026 424.827 358.362 424.992 358.778 424.992Z" fill="#00B2FF"/>
<path d="M172.122 126H180.758L186.028 154.492H186.334L191.638 126L200.24 125.966V160H193.44V145.414C193.44 142.83 193.451 140.722 193.474 139.09C193.497 137.435 193.531 136.098 193.576 135.078C193.644 134.058 193.712 133.287 193.78 132.766C193.871 132.245 193.973 131.825 194.086 131.508L194.052 131.474C193.916 131.61 193.757 131.916 193.576 132.392C193.395 132.868 193.168 133.571 192.896 134.5C192.647 135.407 192.352 136.585 192.012 138.036C191.695 139.464 191.332 141.198 190.924 143.238L187.558 160H184.838L181.472 143.238C181.064 141.198 180.69 139.464 180.35 138.036C180.01 136.585 179.704 135.407 179.432 134.5C179.183 133.571 178.967 132.868 178.786 132.392C178.605 131.916 178.446 131.61 178.31 131.474L178.276 131.508C178.389 131.825 178.491 132.222 178.582 132.698C178.673 133.151 178.741 133.718 178.786 134.398C178.831 135.078 178.865 135.883 178.888 136.812C178.911 137.741 178.922 138.818 178.922 140.042V160H172.122V126ZM202.47 136.2H208.93V152.282C208.93 154.277 209.961 155.274 212.024 155.274C213.089 155.274 213.939 154.979 214.574 154.39C215.208 153.778 215.526 153.041 215.526 152.18V136.2H221.986V161.666C221.986 164.522 220.943 166.732 218.858 168.296C216.772 169.86 213.814 170.642 209.984 170.642C208.556 170.642 207.184 170.529 205.87 170.302C204.578 170.098 203.467 169.815 202.538 169.452V163.57H202.572C204.226 165.134 206.55 165.916 209.542 165.916C211.695 165.916 213.248 165.508 214.2 164.692C215.174 163.876 215.662 162.516 215.662 160.612V154.22H215.526C215.322 156.351 214.664 157.926 213.554 158.946C212.443 159.943 210.89 160.442 208.896 160.442C206.697 160.442 205.076 159.841 204.034 158.64C202.991 157.416 202.47 155.603 202.47 153.2V136.2ZM224.014 135.418C224.014 133.854 224.286 132.471 224.83 131.27C225.374 130.046 226.156 129.015 227.176 128.176C228.218 127.315 229.488 126.669 230.984 126.238C232.502 125.785 234.214 125.558 236.118 125.558C237.999 125.558 239.676 125.773 241.15 126.204C242.623 126.635 243.87 127.269 244.89 128.108C245.91 128.924 246.68 129.933 247.202 131.134C247.746 132.313 248.018 133.661 248.018 135.18V138.342H241.218V135.078C241.218 133.786 240.764 132.766 239.858 132.018C238.974 131.27 237.75 130.896 236.186 130.896C234.667 130.896 233.443 131.236 232.514 131.916C231.607 132.596 231.154 133.514 231.154 134.67C231.154 135.486 231.392 136.189 231.868 136.778C232.366 137.345 233.001 137.855 233.772 138.308C234.565 138.761 235.472 139.192 236.492 139.6C237.512 139.985 238.543 140.393 239.586 140.824C240.651 141.255 241.682 141.742 242.68 142.286C243.7 142.83 244.595 143.487 245.366 144.258C246.159 145.006 246.794 145.901 247.27 146.944C247.768 147.964 248.018 149.188 248.018 150.616C248.018 152.18 247.746 153.574 247.202 154.798C246.658 155.999 245.864 157.019 244.822 157.858C243.802 158.697 242.544 159.343 241.048 159.796C239.552 160.227 237.852 160.442 235.948 160.442C232.14 160.442 229.193 159.603 227.108 157.926C225.045 156.249 224.014 153.88 224.014 150.82V147.658H230.814V150.922C230.814 152.214 231.256 153.234 232.14 153.982C233.046 154.73 234.282 155.104 235.846 155.104C237.364 155.104 238.577 154.764 239.484 154.084C240.413 153.404 240.878 152.486 240.878 151.33C240.878 150.514 240.628 149.823 240.13 149.256C239.654 148.667 239.019 148.145 238.226 147.692C237.455 147.239 236.56 146.819 235.54 146.434C234.542 146.049 233.511 145.641 232.446 145.21C231.403 144.779 230.372 144.292 229.352 143.748C228.332 143.204 227.425 142.558 226.632 141.81C225.861 141.039 225.226 140.144 224.728 139.124C224.252 138.081 224.014 136.846 224.014 135.418ZM250.07 135.146C250.07 132.041 251.102 129.672 253.164 128.04C255.227 126.385 258.196 125.558 262.072 125.558C265.903 125.558 268.861 126.397 270.946 128.074C273.032 129.751 274.074 132.12 274.074 135.18V150.82C274.074 153.495 273.27 155.648 271.66 157.28C270.074 158.889 267.796 159.875 264.826 160.238C264.826 160.306 264.815 160.363 264.792 160.408C264.792 160.476 264.792 160.533 264.792 160.578C264.792 161.009 264.906 161.394 265.132 161.734C265.359 162.074 265.654 162.357 266.016 162.584C266.402 162.833 266.844 163.015 267.342 163.128C267.841 163.264 268.374 163.332 268.94 163.332C269.915 163.332 270.822 163.162 271.66 162.822C272.522 162.505 273.145 162.04 273.53 161.428L273.598 161.462V167.344C271.762 168.296 269.858 168.772 267.886 168.772C266.594 168.772 265.359 168.579 264.18 168.194C263.024 167.831 262.004 167.321 261.12 166.664C260.236 166.007 259.534 165.213 259.012 164.284C258.491 163.377 258.23 162.38 258.23 161.292C258.23 160.929 258.264 160.521 258.332 160.068C255.658 159.615 253.606 158.606 252.178 157.042C250.773 155.455 250.07 153.393 250.07 150.854V135.146ZM257.21 135.078V150.956C257.21 151.5 257.301 152.033 257.482 152.554C257.664 153.053 257.947 153.495 258.332 153.88C258.74 154.243 259.25 154.537 259.862 154.764C260.474 154.991 261.211 155.104 262.072 155.104C262.934 155.104 263.67 154.991 264.282 154.764C264.894 154.537 265.393 154.243 265.778 153.88C266.186 153.495 266.481 153.053 266.662 152.554C266.844 152.033 266.934 151.5 266.934 150.956V135.078C266.934 134.511 266.844 133.979 266.662 133.48C266.481 132.959 266.186 132.517 265.778 132.154C265.393 131.769 264.894 131.463 264.282 131.236C263.67 131.009 262.934 130.896 262.072 130.896C261.211 130.896 260.474 131.009 259.862 131.236C259.25 131.463 258.74 131.769 258.332 132.154C257.947 132.517 257.664 132.959 257.482 133.48C257.301 133.979 257.21 134.511 257.21 135.078ZM276.579 126H283.379V152.418C283.379 153.166 283.254 153.869 283.005 154.526C282.778 155.161 282.461 155.682 282.053 156.09L282.087 156.124C282.495 155.716 283.016 155.399 283.651 155.172C284.308 154.923 285.011 154.798 285.759 154.798H294.497V160H276.579V126Z" fill="black"/>
<path d="M187.648 93V83.912H184.064V81.8H193.824V83.912H190.24V93H187.648ZM198.44 93.128C197.458 93.128 196.594 92.936 195.848 92.552C195.112 92.168 194.541 91.6453 194.136 90.984C193.73 90.312 193.528 89.5493 193.528 88.696C193.528 87.832 193.725 87.0693 194.12 86.408C194.525 85.736 195.074 85.2133 195.768 84.84C196.461 84.456 197.245 84.264 198.12 84.264C198.962 84.264 199.72 84.4453 200.392 84.808C201.074 85.16 201.613 85.672 202.008 86.344C202.402 87.0053 202.6 87.8 202.6 88.728C202.6 88.824 202.594 88.936 202.584 89.064C202.573 89.1813 202.562 89.2933 202.552 89.4H195.56V87.944H201.24L200.28 88.376C200.28 87.928 200.189 87.5387 200.008 87.208C199.826 86.8773 199.576 86.6213 199.256 86.44C198.936 86.248 198.562 86.152 198.136 86.152C197.709 86.152 197.33 86.248 197 86.44C196.68 86.6213 196.429 86.8827 196.248 87.224C196.066 87.5547 195.976 87.9493 195.976 88.408V88.792C195.976 89.2613 196.077 89.6773 196.28 90.04C196.493 90.392 196.786 90.664 197.16 90.856C197.544 91.0373 197.992 91.128 198.504 91.128C198.962 91.128 199.362 91.0587 199.704 90.92C200.056 90.7813 200.376 90.5733 200.664 90.296L201.992 91.736C201.597 92.184 201.101 92.5307 200.504 92.776C199.906 93.0107 199.218 93.128 198.44 93.128ZM208.421 93.128C207.493 93.128 206.667 92.9413 205.941 92.568C205.216 92.184 204.645 91.656 204.229 90.984C203.824 90.312 203.621 89.5493 203.621 88.696C203.621 87.832 203.824 87.0693 204.229 86.408C204.645 85.736 205.216 85.2133 205.941 84.84C206.667 84.456 207.493 84.264 208.421 84.264C209.328 84.264 210.117 84.456 210.789 84.84C211.461 85.2133 211.957 85.752 212.277 86.456L210.341 87.496C210.117 87.0907 209.835 86.792 209.493 86.6C209.163 86.408 208.8 86.312 208.405 86.312C207.979 86.312 207.595 86.408 207.253 86.6C206.912 86.792 206.64 87.064 206.437 87.416C206.245 87.768 206.149 88.1947 206.149 88.696C206.149 89.1973 206.245 89.624 206.437 89.976C206.64 90.328 206.912 90.6 207.253 90.792C207.595 90.984 207.979 91.08 208.405 91.08C208.8 91.08 209.163 90.9893 209.493 90.808C209.835 90.616 210.117 90.312 210.341 89.896L212.277 90.952C211.957 91.6453 211.461 92.184 210.789 92.568C210.117 92.9413 209.328 93.128 208.421 93.128ZM218.9 84.264C219.582 84.264 220.19 84.4027 220.724 84.68C221.268 84.9467 221.694 85.3627 222.004 85.928C222.313 86.4827 222.468 87.1973 222.468 88.072V93H219.972V88.456C219.972 87.7627 219.817 87.2507 219.508 86.92C219.209 86.5893 218.782 86.424 218.228 86.424C217.833 86.424 217.476 86.5093 217.156 86.68C216.846 86.84 216.601 87.0907 216.42 87.432C216.249 87.7733 216.164 88.2107 216.164 88.744V93H213.668V81.128H216.164V86.776L215.604 86.056C215.913 85.48 216.356 85.0373 216.932 84.728C217.508 84.4187 218.164 84.264 218.9 84.264ZM229.962 84.264C230.645 84.264 231.253 84.4027 231.786 84.68C232.33 84.9467 232.757 85.3627 233.066 85.928C233.375 86.4827 233.53 87.1973 233.53 88.072V93H231.034V88.456C231.034 87.7627 230.879 87.2507 230.57 86.92C230.271 86.5893 229.845 86.424 229.29 86.424C228.895 86.424 228.538 86.5093 228.218 86.68C227.909 86.84 227.663 87.0907 227.482 87.432C227.311 87.7733 227.226 88.2107 227.226 88.744V93H224.73V84.392H227.114V86.776L226.666 86.056C226.975 85.48 227.418 85.0373 227.994 84.728C228.57 84.4187 229.226 84.264 229.962 84.264ZM239.951 93.128C239.034 93.128 238.218 92.936 237.503 92.552C236.799 92.168 236.239 91.6453 235.823 90.984C235.418 90.312 235.215 89.5493 235.215 88.696C235.215 87.832 235.418 87.0693 235.823 86.408C236.239 85.736 236.799 85.2133 237.503 84.84C238.218 84.456 239.034 84.264 239.951 84.264C240.858 84.264 241.668 84.456 242.383 84.84C243.098 85.2133 243.658 85.7307 244.063 86.392C244.468 87.0533 244.671 87.8213 244.671 88.696C244.671 89.5493 244.468 90.312 244.063 90.984C243.658 91.6453 243.098 92.168 242.383 92.552C241.668 92.936 240.858 93.128 239.951 93.128ZM239.951 91.08C240.367 91.08 240.74 90.984 241.071 90.792C241.402 90.6 241.663 90.328 241.855 89.976C242.047 89.6133 242.143 89.1867 242.143 88.696C242.143 88.1947 242.047 87.768 241.855 87.416C241.663 87.064 241.402 86.792 241.071 86.6C240.74 86.408 240.367 86.312 239.951 86.312C239.535 86.312 239.162 86.408 238.831 86.6C238.5 86.792 238.234 87.064 238.031 87.416C237.839 87.768 237.743 88.1947 237.743 88.696C237.743 89.1867 237.839 89.6133 238.031 89.976C238.234 90.328 238.5 90.6 238.831 90.792C239.162 90.984 239.535 91.08 239.951 91.08ZM246.34 93V81.128H248.836V93H246.34ZM255.248 93.128C254.331 93.128 253.515 92.936 252.8 92.552C252.096 92.168 251.536 91.6453 251.12 90.984C250.715 90.312 250.512 89.5493 250.512 88.696C250.512 87.832 250.715 87.0693 251.12 86.408C251.536 85.736 252.096 85.2133 252.8 84.84C253.515 84.456 254.331 84.264 255.248 84.264C256.155 84.264 256.965 84.456 257.68 84.84C258.395 85.2133 258.955 85.7307 259.36 86.392C259.765 87.0533 259.968 87.8213 259.968 88.696C259.968 89.5493 259.765 90.312 259.36 90.984C258.955 91.6453 258.395 92.168 257.68 92.552C256.965 92.936 256.155 93.128 255.248 93.128ZM255.248 91.08C255.664 91.08 256.037 90.984 256.368 90.792C256.699 90.6 256.96 90.328 257.152 89.976C257.344 89.6133 257.44 89.1867 257.44 88.696C257.44 88.1947 257.344 87.768 257.152 87.416C256.96 87.064 256.699 86.792 256.368 86.6C256.037 86.408 255.664 86.312 255.248 86.312C254.832 86.312 254.459 86.408 254.128 86.6C253.797 86.792 253.531 87.064 253.328 87.416C253.136 87.768 253.04 88.1947 253.04 88.696C253.04 89.1867 253.136 89.6133 253.328 89.976C253.531 90.328 253.797 90.6 254.128 90.792C254.459 90.984 254.832 91.08 255.248 91.08ZM265.684 96.232C264.874 96.232 264.09 96.1307 263.332 95.928C262.586 95.736 261.962 95.4427 261.46 95.048L262.452 93.256C262.815 93.5547 263.274 93.7893 263.828 93.96C264.394 94.1413 264.948 94.232 265.492 94.232C266.378 94.232 267.018 94.0347 267.412 93.64C267.818 93.2453 268.02 92.6587 268.02 91.88V90.584L268.18 88.424L268.148 86.248V84.392H270.516V91.56C270.516 93.16 270.1 94.3387 269.268 95.096C268.436 95.8533 267.242 96.232 265.684 96.232ZM265.3 92.584C264.5 92.584 263.775 92.4133 263.124 92.072C262.484 91.72 261.967 91.2347 261.572 90.616C261.188 89.9867 260.996 89.256 260.996 88.424C260.996 87.5813 261.188 86.8507 261.572 86.232C261.967 85.6027 262.484 85.1173 263.124 84.776C263.775 84.4347 264.5 84.264 265.3 84.264C266.026 84.264 266.666 84.4133 267.22 84.712C267.775 85 268.207 85.4533 268.516 86.072C268.826 86.68 268.98 87.464 268.98 88.424C268.98 89.3733 268.826 90.1573 268.516 90.776C268.207 91.384 267.775 91.8373 267.22 92.136C266.666 92.4347 266.026 92.584 265.3 92.584ZM265.796 90.536C266.234 90.536 266.623 90.4507 266.964 90.28C267.306 90.0987 267.572 89.848 267.764 89.528C267.956 89.208 268.052 88.84 268.052 88.424C268.052 87.9973 267.956 87.6293 267.764 87.32C267.572 87 267.306 86.7547 266.964 86.584C266.623 86.4027 266.234 86.312 265.796 86.312C265.359 86.312 264.97 86.4027 264.628 86.584C264.287 86.7547 264.015 87 263.812 87.32C263.62 87.6293 263.524 87.9973 263.524 88.424C263.524 88.84 263.62 89.208 263.812 89.528C264.015 89.848 264.287 90.0987 264.628 90.28C264.97 90.4507 265.359 90.536 265.796 90.536ZM273.928 96.232C273.48 96.232 273.037 96.1627 272.6 96.024C272.162 95.8853 271.805 95.6933 271.527 95.448L272.44 93.672C272.632 93.8427 272.85 93.976 273.096 94.072C273.352 94.168 273.602 94.216 273.848 94.216C274.2 94.216 274.477 94.1307 274.68 93.96C274.893 93.8 275.085 93.528 275.256 93.144L275.704 92.088L275.896 91.816L278.984 84.392H281.384L277.496 93.528C277.218 94.2213 276.898 94.7653 276.536 95.16C276.184 95.5547 275.789 95.832 275.352 95.992C274.925 96.152 274.45 96.232 273.928 96.232ZM275.4 93.336L271.559 84.392H274.136L277.112 91.592L275.4 93.336Z" fill="#284C5D"/>
<rect x="229" y="399" width="133" height="8" rx="4" fill="#98DDFB"/>
<rect x="104" y="399" width="201" height="8" rx="4" fill="#00B2FF"/>
<path fill-rule="evenodd" clip-rule="evenodd" d="M298 218C298 213.582 294.418 210 290 210H176C171.582 210 168 213.582 168 218V332C168 336.418 171.582 340 176 340H290C294.418 340 298 336.418 298 332V218Z" fill="#344E9E"/>
<mask id="mask0_1636_505" style="mask-type:luminance" maskUnits="userSpaceOnUse" x="191" y="233" width="84" height="84">
<path d="M191.832 233.832H274.572V316.572H191.832V233.832Z" fill="white"/>
</mask>
<g mask="url(#mask0_1636_505)">
<path fill-rule="evenodd" clip-rule="evenodd" d="M268.058 298.283C263.558 298.158 260.067 298.619 257.141 299.85C256.299 300.188 254.947 300.188 254.836 301.249C255.286 301.694 255.34 302.422 255.735 303.039C256.41 304.158 257.593 305.666 258.661 306.448L262.262 309.021C264.457 310.362 266.932 311.146 269.07 312.488C270.308 313.271 271.546 314.278 272.784 315.118C273.415 315.565 273.797 316.294 274.585 316.572V316.403C274.192 315.901 274.078 315.174 273.686 314.613L271.996 312.992C270.365 310.811 268.338 308.908 266.144 307.344C264.343 306.113 260.405 304.436 259.674 302.368L259.563 302.243C260.799 302.118 262.262 301.682 263.445 301.347C265.359 300.845 267.102 300.956 269.07 300.453L271.773 299.669V299.168C270.76 298.162 270.029 296.819 268.96 295.869C266.091 293.409 262.938 291.003 259.674 288.99C257.93 287.873 255.678 287.144 253.822 286.195C253.145 285.859 252.021 285.691 251.627 285.133C250.612 283.904 250.051 282.281 249.319 280.826L244.706 271.096C243.693 268.915 243.072 266.734 241.836 264.721C236.04 255.213 229.736 249.454 220.058 243.805C217.977 242.631 215.501 242.125 212.868 241.511L208.649 241.286C207.747 240.895 206.847 239.832 206.059 239.328C202.852 237.315 194.58 232.953 192.214 238.701C190.695 242.336 194.466 245.914 195.746 247.761C196.705 249.047 197.941 250.5 198.618 251.955C198.996 252.905 199.123 253.913 199.517 254.919C200.417 257.379 201.261 260.121 202.443 262.415C203.074 263.589 203.736 264.821 204.524 265.883C204.975 266.509 205.763 266.778 205.931 267.784C205.142 268.903 205.088 270.579 204.638 271.979C202.611 278.299 203.399 286.128 206.269 290.78C207.17 292.178 209.295 295.255 212.179 294.079C214.711 293.073 214.146 289.885 214.878 287.089C215.048 286.419 214.935 285.971 215.271 285.522V285.648L217.579 290.289C219.323 293.029 222.363 295.882 224.894 297.784C226.244 298.791 227.313 300.526 229.001 301.14V300.971H228.89C228.552 300.469 228.045 300.244 227.595 299.852C226.582 298.846 225.457 297.615 224.668 296.497C222.306 293.366 220.225 289.898 218.367 286.319C217.466 284.586 216.678 282.684 215.949 280.951C215.608 280.279 215.608 279.271 215.047 278.938C214.201 280.166 212.966 281.232 212.344 282.741C211.274 285.145 211.163 288.109 210.77 291.185C210.543 291.241 210.644 291.185 210.543 291.31C208.744 290.865 208.124 289.017 207.449 287.452C205.762 283.482 205.479 277.107 206.942 272.521C207.335 271.346 209.026 267.655 208.351 266.537C208.011 265.474 206.888 264.86 206.267 264.02C205.536 262.957 204.75 261.616 204.243 260.442C202.894 257.308 202.219 253.842 200.754 250.711C200.077 249.256 198.897 247.746 197.939 246.405C196.87 244.894 195.691 243.831 194.846 242.043C194.565 241.416 194.171 240.421 194.621 239.749C194.732 239.302 194.959 239.122 195.407 239.022C196.138 238.395 198.222 239.19 198.953 239.523C201.034 240.363 202.779 241.145 204.523 242.318C205.312 242.877 206.156 243.941 207.169 244.221H208.352C210.153 244.612 212.178 244.347 213.864 244.848C216.847 245.8 219.547 247.197 221.968 248.708C229.339 253.35 235.418 259.949 239.524 267.835C240.199 269.121 240.48 270.296 241.101 271.638C242.284 274.38 243.747 277.175 244.926 279.861C246.109 282.489 247.234 285.175 248.922 287.356C249.767 288.53 253.142 289.144 254.661 289.76C255.787 290.261 257.53 290.713 258.545 291.327C260.457 292.501 262.371 293.844 264.17 295.13C265.069 295.799 267.885 297.198 268.052 298.313L268.058 298.283ZM210.673 249.686C209.895 249.679 209.12 249.773 208.367 249.965V250.091H208.478C208.929 250.986 209.717 251.601 210.279 252.385L211.574 255.069L211.686 254.944C212.474 254.385 212.868 253.49 212.868 252.149C212.531 251.758 212.475 251.366 212.194 250.974C211.856 250.415 211.124 250.135 210.673 249.689V249.686Z" fill="white"/>
</g>
</svg>
