<svg width="465" height="642" viewBox="0 0 465 642" fill="none" xmlns="http://www.w3.org/2000/svg">
<rect width="465" height="603" rx="15" fill="#ECFCF2"/>
<path d="M0 473H465V627C465 635.284 458.284 642 450 642H15C6.71574 642 0 635.284 0 627V473Z" fill="#00D675"/>
<rect x="150" y="71" width="165" height="32" rx="16" fill="#9EF6BD"/>
<path d="M127.022 542.97C127.022 543.126 126.932 543.204 126.752 543.204H114.944C114.884 543.204 114.824 543.18 114.764 543.132C114.716 543.084 114.692 543.024 114.692 542.952V542.394C114.692 542.322 114.716 542.262 114.764 542.214C114.824 542.166 114.884 542.142 114.944 542.142H117.338V536.364H115.304C115.244 536.364 115.184 536.34 115.124 536.292C115.076 536.244 115.052 536.184 115.052 536.112V535.554C115.052 535.482 115.076 535.422 115.124 535.374C115.184 535.326 115.244 535.302 115.304 535.302H126.392C126.572 535.302 126.662 535.38 126.662 535.536V536.13C126.662 536.286 126.572 536.364 126.392 536.364H124.448V542.142H126.752C126.932 542.142 127.022 542.22 127.022 542.376V542.97ZM118.562 542.142H123.224V536.364H118.562V542.142ZM128.606 546.804C128.666 546.804 128.726 546.828 128.786 546.876C128.846 546.912 128.876 546.966 128.876 547.038V547.65C128.876 547.71 128.846 547.764 128.786 547.812C128.726 547.86 128.666 547.884 128.606 547.884H113.306C113.234 547.884 113.168 547.86 113.108 547.812C113.06 547.764 113.036 547.71 113.036 547.65V547.038C113.036 546.966 113.06 546.912 113.108 546.876C113.168 546.828 113.234 546.804 113.306 546.804H128.606ZM136.498 546.804V543.672H132.898C132.334 543.672 131.962 543.57 131.782 543.366C131.614 543.15 131.53 542.79 131.53 542.286V540.036C131.53 539.52 131.632 539.178 131.836 539.01C132.052 538.842 132.43 538.758 132.97 538.758H141.088C141.256 538.758 141.358 538.734 141.394 538.686C141.442 538.638 141.466 538.524 141.466 538.344V536.472C141.466 536.292 141.442 536.178 141.394 536.13C141.358 536.082 141.256 536.058 141.088 536.058H131.782C131.722 536.058 131.662 536.04 131.602 536.004C131.554 535.968 131.53 535.92 131.53 535.86V535.176C131.53 535.116 131.554 535.068 131.602 535.032C131.662 534.996 131.722 534.978 131.782 534.978H141.286C141.574 534.978 141.808 535.002 141.988 535.05C142.168 535.086 142.312 535.152 142.42 535.248C142.528 535.344 142.6 535.482 142.636 535.662C142.684 535.83 142.708 536.04 142.708 536.292V538.542C142.708 539.058 142.6 539.4 142.384 539.568C142.18 539.736 141.808 539.82 141.268 539.82H133.15C132.982 539.82 132.874 539.844 132.826 539.892C132.79 539.94 132.772 540.054 132.772 540.234V542.178C132.772 542.346 132.796 542.46 132.844 542.52C132.892 542.568 133 542.592 133.168 542.592H142.834C142.894 542.592 142.948 542.61 142.996 542.646C143.056 542.682 143.086 542.73 143.086 542.79V543.456C143.086 543.516 143.056 543.57 142.996 543.618C142.948 543.654 142.9 543.672 142.852 543.672H137.74V546.804H144.814C144.874 546.804 144.934 546.828 144.994 546.876C145.054 546.912 145.084 546.966 145.084 547.038V547.65C145.084 547.71 145.054 547.764 144.994 547.812C144.934 547.86 144.874 547.884 144.814 547.884H129.514C129.442 547.884 129.376 547.86 129.316 547.812C129.268 547.764 129.244 547.71 129.244 547.65V547.038C129.244 546.966 129.268 546.912 129.316 546.876C129.376 546.828 129.442 546.804 129.514 546.804H136.498ZM152.778 536.562C152.55 537.114 152.31 537.624 152.058 538.092C151.806 538.56 151.524 539.004 151.212 539.424C151.632 539.952 152.07 540.414 152.526 540.81C152.994 541.194 153.528 541.572 154.128 541.944C154.296 542.052 154.332 542.172 154.236 542.304L153.786 542.88C153.69 543.012 153.564 543.024 153.408 542.916C152.784 542.496 152.244 542.088 151.788 541.692C151.344 541.284 150.912 540.828 150.492 540.324C150.024 540.84 149.49 541.344 148.89 541.836C148.29 542.328 147.588 542.844 146.784 543.384C146.64 543.492 146.526 543.498 146.442 543.402L146.01 542.862C145.914 542.718 145.932 542.604 146.064 542.52C146.784 542.04 147.408 541.584 147.936 541.152C148.476 540.708 148.956 540.258 149.376 539.802C149.796 539.334 150.168 538.848 150.492 538.344C150.816 537.84 151.128 537.27 151.428 536.634C151.512 536.466 151.524 536.346 151.464 536.274C151.404 536.202 151.29 536.166 151.122 536.166H146.874C146.73 536.166 146.658 536.088 146.658 535.932V535.302C146.658 535.158 146.73 535.086 146.874 535.086H151.608C152.232 535.086 152.634 535.2 152.814 535.428C153.006 535.644 152.994 536.022 152.778 536.562ZM148.962 545.076C148.962 545.004 148.992 544.95 149.052 544.914C149.112 544.878 149.172 544.86 149.232 544.86H158.628C159.192 544.86 159.558 544.968 159.726 545.184C159.906 545.388 159.996 545.736 159.996 546.228V550.548C159.996 550.716 159.912 550.8 159.744 550.8H159.006C158.838 550.8 158.754 550.716 158.754 550.548V546.318C158.754 546.15 158.724 546.048 158.664 546.012C158.616 545.964 158.508 545.94 158.34 545.94H149.232C149.172 545.94 149.112 545.922 149.052 545.886C148.992 545.838 148.962 545.784 148.962 545.724V545.076ZM155.622 538.344V534.69C155.622 534.522 155.706 534.438 155.874 534.438H156.558C156.726 534.438 156.81 534.522 156.81 534.69V543.384C156.81 543.552 156.726 543.636 156.558 543.636H155.874C155.706 543.636 155.622 543.552 155.622 543.384V539.424H153.102C152.946 539.424 152.868 539.352 152.868 539.208V538.56C152.868 538.416 152.946 538.344 153.102 538.344H155.622ZM159.996 543.654C159.996 543.822 159.912 543.906 159.744 543.906H159.06C158.892 543.906 158.808 543.822 158.808 543.654V534.384C158.808 534.216 158.892 534.132 159.06 534.132H159.744C159.912 534.132 159.996 534.216 159.996 534.384V543.654ZM175.268 543.24C175.268 543.408 175.19 543.492 175.034 543.492H165.314C164.786 543.492 164.426 543.408 164.234 543.24C164.042 543.06 163.946 542.718 163.946 542.214V536.364C163.946 535.86 164.042 535.524 164.234 535.356C164.426 535.176 164.786 535.086 165.314 535.086H174.908C175.064 535.086 175.142 535.164 175.142 535.32V535.914C175.142 536.082 175.064 536.166 174.908 536.166H165.62C165.452 536.166 165.338 536.202 165.278 536.274C165.218 536.334 165.188 536.454 165.188 536.634V538.758H174.656C174.824 538.758 174.908 538.824 174.908 538.956V539.568C174.908 539.724 174.83 539.802 174.674 539.802H165.188V541.944C165.188 542.112 165.218 542.232 165.278 542.304C165.338 542.376 165.452 542.412 165.62 542.412H175.034C175.19 542.412 175.268 542.49 175.268 542.646V543.24ZM177.23 546.804C177.29 546.804 177.35 546.828 177.41 546.876C177.47 546.912 177.5 546.966 177.5 547.038V547.65C177.5 547.71 177.47 547.764 177.41 547.812C177.35 547.86 177.29 547.884 177.23 547.884H161.93C161.858 547.884 161.792 547.86 161.732 547.812C161.684 547.764 161.66 547.71 161.66 547.65V547.038C161.66 546.966 161.684 546.912 161.732 546.876C161.792 546.828 161.858 546.804 161.93 546.804H177.23ZM193.437 541.8C193.497 541.8 193.557 541.824 193.617 541.872C193.677 541.908 193.707 541.962 193.707 542.034V542.646C193.707 542.706 193.677 542.76 193.617 542.808C193.557 542.856 193.497 542.88 193.437 542.88H178.137C178.065 542.88 177.999 542.856 177.939 542.808C177.891 542.76 177.867 542.706 177.867 542.646V542.034C177.867 541.962 177.891 541.908 177.939 541.872C177.999 541.824 178.065 541.8 178.137 541.8H193.437ZM191.565 550.404C191.565 550.464 191.535 550.512 191.475 550.548C191.427 550.596 191.379 550.62 191.331 550.62H181.737C181.173 550.62 180.801 550.512 180.621 550.296C180.453 550.092 180.369 549.738 180.369 549.234V548.172C180.369 547.668 180.471 547.332 180.675 547.164C180.891 546.984 181.269 546.894 181.809 546.894H189.567C189.735 546.894 189.837 546.87 189.873 546.822C189.921 546.774 189.945 546.66 189.945 546.48V545.796C189.945 545.616 189.921 545.502 189.873 545.454C189.837 545.406 189.735 545.382 189.567 545.382H180.585C180.525 545.382 180.465 545.364 180.405 545.328C180.357 545.292 180.333 545.244 180.333 545.184V544.554C180.333 544.494 180.357 544.446 180.405 544.41C180.465 544.374 180.525 544.356 180.585 544.356H189.747C190.035 544.356 190.269 544.38 190.449 544.428C190.629 544.464 190.773 544.53 190.881 544.626C190.989 544.722 191.061 544.86 191.097 545.04C191.145 545.208 191.169 545.418 191.169 545.67V546.642C191.169 547.146 191.061 547.488 190.845 547.668C190.641 547.836 190.269 547.92 189.729 547.92H181.971C181.803 547.92 181.695 547.944 181.647 547.992C181.611 548.04 181.593 548.154 181.593 548.334V549.162C181.593 549.33 181.617 549.438 181.665 549.486C181.713 549.546 181.821 549.576 181.989 549.576H191.313C191.373 549.576 191.427 549.594 191.475 549.63C191.535 549.666 191.565 549.714 191.565 549.774V550.404ZM191.421 540.108C191.421 540.168 191.391 540.222 191.331 540.27C191.283 540.306 191.235 540.324 191.187 540.324H181.809C181.245 540.324 180.873 540.222 180.693 540.018C180.525 539.802 180.441 539.442 180.441 538.938V537.966C180.441 537.462 180.543 537.126 180.747 536.958C180.963 536.778 181.341 536.688 181.881 536.688H189.513C189.681 536.688 189.783 536.67 189.819 536.634C189.867 536.586 189.891 536.466 189.891 536.274V535.536C189.891 535.356 189.867 535.242 189.819 535.194C189.783 535.146 189.681 535.122 189.513 535.122H180.693C180.633 535.122 180.573 535.104 180.513 535.068C180.465 535.032 180.441 534.984 180.441 534.924V534.276C180.441 534.216 180.465 534.168 180.513 534.132C180.573 534.096 180.633 534.078 180.693 534.078H189.711C189.999 534.078 190.233 534.102 190.413 534.15C190.593 534.186 190.737 534.252 190.845 534.348C190.953 534.444 191.025 534.582 191.061 534.762C191.109 534.93 191.133 535.14 191.133 535.392V536.436C191.133 536.952 191.025 537.294 190.809 537.462C190.605 537.63 190.233 537.714 189.693 537.714H182.043C181.875 537.714 181.767 537.738 181.719 537.786C181.683 537.834 181.665 537.948 181.665 538.128V538.884C181.665 539.052 181.689 539.166 181.737 539.226C181.785 539.274 181.893 539.298 182.061 539.298H191.169C191.229 539.298 191.283 539.316 191.331 539.352C191.391 539.388 191.421 539.436 191.421 539.496V540.108ZM199.75 546.714C199.678 546.762 199.588 546.792 199.48 546.804C199.372 546.816 199.288 546.78 199.228 546.696L198.562 545.85C198.502 545.778 198.478 545.688 198.49 545.58C198.502 545.472 198.556 545.388 198.652 545.328C199.24 544.944 199.786 544.524 200.29 544.068C200.806 543.6 201.268 543.12 201.676 542.628C202.096 542.124 202.462 541.614 202.774 541.098C203.098 540.582 203.356 540.072 203.548 539.568C203.608 539.424 203.644 539.316 203.656 539.244C203.668 539.16 203.566 539.118 203.35 539.118H199.624C199.564 539.118 199.516 539.094 199.48 539.046C199.444 538.986 199.426 538.92 199.426 538.848V537.732C199.426 537.564 199.498 537.48 199.642 537.48H204.52C205.048 537.48 205.426 537.552 205.654 537.696C205.882 537.828 205.996 538.044 205.996 538.344C205.996 538.44 205.972 538.572 205.924 538.74C205.888 538.908 205.858 539.028 205.834 539.1C205.654 539.604 205.444 540.102 205.204 540.594C204.976 541.074 204.712 541.542 204.412 541.998C204.604 542.262 204.82 542.532 205.06 542.808C205.312 543.072 205.57 543.33 205.834 543.582C206.098 543.834 206.35 544.068 206.59 544.284C206.842 544.488 207.064 544.662 207.256 544.806C207.388 544.902 207.454 544.998 207.454 545.094C207.454 545.178 207.418 545.262 207.346 545.346L206.644 546.21C206.584 546.294 206.5 546.336 206.392 546.336C206.284 546.324 206.182 546.288 206.086 546.228C205.654 545.916 205.186 545.52 204.682 545.04C204.19 544.548 203.734 544.038 203.314 543.51C202.81 544.122 202.258 544.698 201.658 545.238C201.07 545.778 200.434 546.27 199.75 546.714ZM210.028 549.99C210.028 550.158 209.95 550.242 209.794 550.242H208.336C208.156 550.242 208.066 550.158 208.066 549.99V542.466H206.14C206.08 542.466 206.02 542.442 205.96 542.394C205.912 542.346 205.888 542.292 205.888 542.232V540.99C205.888 540.93 205.912 540.882 205.96 540.846C206.02 540.798 206.08 540.774 206.14 540.774H208.066V534.366C208.066 534.21 208.156 534.132 208.336 534.132H209.794C209.95 534.132 210.028 534.21 210.028 534.366V549.99ZM213.466 550.728C213.466 550.884 213.388 550.962 213.232 550.962H211.666C211.51 550.962 211.432 550.884 211.432 550.728V534.078C211.432 533.922 211.516 533.844 211.684 533.844H213.232C213.388 533.844 213.466 533.922 213.466 534.078V550.728ZM205.006 536.112C205.006 536.184 204.976 536.25 204.916 536.31C204.868 536.37 204.802 536.4 204.718 536.4H200.974C200.914 536.4 200.848 536.376 200.776 536.328C200.716 536.28 200.686 536.214 200.686 536.13V535.086C200.686 535.002 200.716 534.936 200.776 534.888C200.848 534.84 200.914 534.816 200.974 534.816H204.718C204.79 534.816 204.856 534.846 204.916 534.906C204.976 534.966 205.006 535.032 205.006 535.104V536.112ZM216.192 546.786C216.096 546.846 216 546.882 215.904 546.894C215.808 546.906 215.73 546.87 215.67 546.786L214.95 545.796C214.878 545.688 214.86 545.592 214.896 545.508C214.944 545.412 214.998 545.34 215.058 545.292C215.874 544.788 216.606 544.218 217.254 543.582C217.914 542.934 218.472 542.268 218.928 541.584C219.396 540.888 219.756 540.192 220.008 539.496C220.26 538.8 220.398 538.152 220.422 537.552C220.434 537.3 220.41 537.132 220.35 537.048C220.29 536.952 220.134 536.904 219.882 536.904H215.904C215.736 536.904 215.652 536.826 215.652 536.67V535.446C215.652 535.386 215.676 535.332 215.724 535.284C215.784 535.236 215.844 535.212 215.904 535.212H221.142C221.658 535.212 222.012 535.314 222.204 535.518C222.396 535.71 222.486 536.04 222.474 536.508C222.462 536.748 222.444 536.988 222.42 537.228C222.408 537.468 222.384 537.702 222.348 537.93H224.274V534.384C224.274 534.228 224.358 534.15 224.526 534.15H226.002C226.158 534.15 226.236 534.228 226.236 534.384V550.098C226.236 550.266 226.158 550.35 226.002 550.35H224.526C224.358 550.35 224.274 550.266 224.274 550.098V543.6H221.7C221.64 543.6 221.58 543.576 221.52 543.528C221.472 543.48 221.448 543.426 221.448 543.366V542.178C221.448 542.118 221.472 542.07 221.52 542.034C221.58 541.986 221.64 541.962 221.7 541.962H224.274V539.586H221.988C221.532 541.038 220.806 542.376 219.81 543.6C218.814 544.824 217.608 545.886 216.192 546.786ZM229.674 550.728C229.674 550.884 229.596 550.962 229.44 550.962H227.874C227.718 550.962 227.64 550.884 227.64 550.728V534.078C227.64 533.922 227.724 533.844 227.892 533.844H229.44C229.596 533.844 229.674 533.922 229.674 534.078V550.728ZM232.471 543.672C232.399 543.72 232.303 543.744 232.183 543.744C232.063 543.732 231.967 543.66 231.895 543.528L231.373 542.646C231.313 542.55 231.295 542.448 231.319 542.34C231.343 542.232 231.415 542.154 231.535 542.106C232.207 541.806 232.843 541.464 233.443 541.08C234.043 540.684 234.583 540.264 235.063 539.82C235.555 539.376 235.981 538.914 236.341 538.434C236.701 537.942 236.977 537.45 237.169 536.958C237.217 536.85 237.235 536.754 237.223 536.67C237.223 536.586 237.127 536.544 236.935 536.544H232.471C232.303 536.544 232.219 536.448 232.219 536.256V535.068C232.219 534.996 232.243 534.936 232.291 534.888C232.351 534.84 232.417 534.816 232.489 534.816H238.177C238.705 534.816 239.095 534.912 239.347 535.104C239.611 535.296 239.713 535.59 239.653 535.986C239.629 536.118 239.593 536.256 239.545 536.4C239.509 536.544 239.473 536.67 239.437 536.778C239.125 537.666 238.675 538.506 238.087 539.298C238.303 539.514 238.543 539.736 238.807 539.964C239.071 540.18 239.341 540.39 239.617 540.594C239.905 540.786 240.187 540.966 240.463 541.134C240.751 541.302 241.015 541.44 241.255 541.548C241.495 541.668 241.555 541.842 241.435 542.07L240.841 543.042C240.781 543.138 240.709 543.198 240.625 543.222C240.541 543.246 240.433 543.228 240.301 543.168C240.085 543.06 239.833 542.916 239.545 542.736C239.257 542.556 238.957 542.352 238.645 542.124C238.333 541.896 238.027 541.656 237.727 541.404C237.427 541.152 237.151 540.9 236.899 540.648C236.287 541.248 235.609 541.806 234.865 542.322C234.133 542.826 233.335 543.276 232.471 543.672ZM245.143 550.638C245.143 550.698 245.113 550.752 245.053 550.8C244.993 550.86 244.933 550.89 244.873 550.89H243.343C243.259 550.89 243.187 550.86 243.127 550.8C243.079 550.752 243.055 550.698 243.055 550.638V546.732C243.055 546.6 243.031 546.516 242.983 546.48C242.935 546.444 242.851 546.426 242.731 546.426H234.397C234.337 546.426 234.277 546.408 234.217 546.372C234.169 546.324 234.145 546.27 234.145 546.21V544.932C234.145 544.86 234.169 544.806 234.217 544.77C234.277 544.734 234.337 544.716 234.397 544.716H243.937C244.393 544.716 244.705 544.812 244.873 545.004C245.053 545.184 245.143 545.502 245.143 545.958V550.638ZM239.977 539.478V538.218C239.977 538.158 240.001 538.11 240.049 538.074C240.109 538.026 240.169 538.002 240.229 538.002H243.055V534.078C243.055 533.922 243.139 533.844 243.307 533.844H244.891C244.951 533.844 245.005 533.868 245.053 533.916C245.113 533.964 245.143 534.018 245.143 534.078V543.564C245.143 543.624 245.113 543.684 245.053 543.744C245.005 543.792 244.951 543.816 244.891 543.816H243.307C243.235 543.816 243.175 543.792 243.127 543.744C243.079 543.684 243.055 543.624 243.055 543.564V539.694H240.229C240.169 539.694 240.109 539.676 240.049 539.64C240.001 539.592 239.977 539.538 239.977 539.478ZM263.025 547.614C263.025 547.674 262.995 547.734 262.935 547.794C262.875 547.854 262.815 547.884 262.755 547.884H247.077C247.005 547.884 246.945 547.854 246.897 547.794C246.849 547.734 246.825 547.674 246.825 547.614V546.426C246.825 546.354 246.849 546.294 246.897 546.246C246.945 546.186 247.005 546.156 247.077 546.156H262.755C262.815 546.156 262.875 546.186 262.935 546.246C262.995 546.306 263.025 546.366 263.025 546.426V547.614ZM254.925 543.186C254.085 543.186 253.305 543.09 252.585 542.898C251.865 542.706 251.241 542.43 250.713 542.07C250.185 541.71 249.771 541.278 249.471 540.774C249.171 540.27 249.021 539.706 249.021 539.082C249.021 538.458 249.171 537.894 249.471 537.39C249.771 536.886 250.185 536.454 250.713 536.094C251.241 535.734 251.865 535.458 252.585 535.266C253.305 535.074 254.085 534.978 254.925 534.978C255.765 534.978 256.545 535.074 257.265 535.266C257.985 535.458 258.609 535.734 259.137 536.094C259.665 536.454 260.073 536.886 260.361 537.39C260.661 537.894 260.811 538.458 260.811 539.082C260.811 539.706 260.661 540.27 260.361 540.774C260.073 541.278 259.665 541.71 259.137 542.07C258.609 542.43 257.985 542.706 257.265 542.898C256.545 543.09 255.765 543.186 254.925 543.186ZM254.925 536.688C254.421 536.688 253.941 536.748 253.485 536.868C253.029 536.976 252.627 537.138 252.279 537.354C251.943 537.558 251.673 537.81 251.469 538.11C251.265 538.398 251.163 538.722 251.163 539.082C251.163 539.442 251.265 539.772 251.469 540.072C251.673 540.372 251.943 540.63 252.279 540.846C252.627 541.05 253.029 541.212 253.485 541.332C253.941 541.44 254.421 541.494 254.925 541.494C255.429 541.494 255.909 541.44 256.365 541.332C256.821 541.212 257.217 541.05 257.553 540.846C257.901 540.63 258.171 540.372 258.363 540.072C258.567 539.772 258.669 539.442 258.669 539.082C258.669 538.722 258.567 538.398 258.363 538.11C258.171 537.81 257.901 537.558 257.553 537.354C257.217 537.138 256.821 536.976 256.365 536.868C255.909 536.748 255.429 536.688 254.925 536.688ZM279.233 547.74C279.233 547.8 279.203 547.86 279.143 547.92C279.083 547.98 279.023 548.01 278.963 548.01H263.285C263.213 548.01 263.153 547.98 263.105 547.92C263.057 547.86 263.033 547.8 263.033 547.74V546.606C263.033 546.534 263.057 546.468 263.105 546.408C263.153 546.348 263.213 546.318 263.285 546.318H270.107V543.636H266.885C266.621 543.636 266.405 543.618 266.237 543.582C266.069 543.546 265.937 543.48 265.841 543.384C265.745 543.288 265.679 543.168 265.643 543.024C265.607 542.868 265.589 542.67 265.589 542.43V539.532C265.589 539.292 265.607 539.1 265.643 538.956C265.679 538.8 265.745 538.68 265.841 538.596C265.937 538.5 266.069 538.44 266.237 538.416C266.405 538.38 266.621 538.362 266.885 538.362H274.373C274.493 538.362 274.565 538.35 274.589 538.326C274.625 538.29 274.643 538.206 274.643 538.074V536.67C274.643 536.538 274.625 536.466 274.589 536.454C274.565 536.43 274.493 536.418 274.373 536.418H265.895C265.835 536.418 265.781 536.394 265.733 536.346C265.685 536.286 265.661 536.226 265.661 536.166V534.96C265.661 534.9 265.685 534.846 265.733 534.798C265.781 534.75 265.835 534.726 265.895 534.726H275.363C275.867 534.726 276.209 534.81 276.389 534.978C276.569 535.134 276.659 535.446 276.659 535.914V538.83C276.659 539.298 276.569 539.616 276.389 539.784C276.209 539.94 275.867 540.018 275.363 540.018H267.857C267.737 540.018 267.665 540.03 267.641 540.054C267.617 540.078 267.605 540.15 267.605 540.27V541.692C267.605 541.824 267.617 541.908 267.641 541.944C267.677 541.968 267.755 541.98 267.875 541.98H276.803C276.863 541.98 276.917 542.004 276.965 542.052C277.013 542.088 277.037 542.136 277.037 542.196V543.402C277.037 543.462 277.007 543.516 276.947 543.564C276.899 543.612 276.851 543.636 276.803 543.636H272.177V546.318H278.963C279.023 546.318 279.083 546.354 279.143 546.426C279.203 546.486 279.233 546.546 279.233 546.606V547.74ZM300.018 541.368C300.018 541.428 299.988 541.482 299.928 541.53C299.88 541.578 299.826 541.602 299.766 541.602H297.408V546.066C297.408 546.222 297.33 546.3 297.174 546.3H295.572C295.416 546.3 295.338 546.222 295.338 546.066V534.078C295.338 533.922 295.416 533.844 295.572 533.844H297.174C297.33 533.844 297.408 533.922 297.408 534.078V539.874H299.766C299.826 539.874 299.88 539.898 299.928 539.946C299.988 539.994 300.018 540.048 300.018 540.108V541.368ZM298.056 550.332C298.056 550.404 298.026 550.458 297.966 550.494C297.918 550.53 297.858 550.548 297.786 550.548H288.048C287.508 550.548 287.142 550.452 286.95 550.26C286.758 550.068 286.662 549.738 286.662 549.27V545.832C286.662 545.772 286.686 545.718 286.734 545.67C286.794 545.61 286.86 545.58 286.932 545.58H288.48C288.552 545.58 288.618 545.61 288.678 545.67C288.738 545.718 288.768 545.772 288.768 545.832V548.532C288.768 548.652 288.792 548.73 288.84 548.766C288.888 548.802 288.972 548.82 289.092 548.82H297.786C297.846 548.82 297.906 548.844 297.966 548.892C298.026 548.928 298.056 548.976 298.056 549.036V550.332ZM283.8 542.682C283.8 542.502 283.884 542.412 284.052 542.412C284.592 542.436 285.138 542.448 285.69 542.448C286.242 542.448 286.806 542.448 287.382 542.448V539.028C287.382 538.848 287.466 538.758 287.634 538.758H289.164C289.332 538.758 289.416 538.848 289.416 539.028V542.394C290.268 542.37 291.102 542.334 291.918 542.286C292.734 542.226 293.508 542.154 294.24 542.07C294.3 542.058 294.36 542.064 294.42 542.088C294.492 542.112 294.534 542.166 294.546 542.25L294.636 543.348C294.648 543.432 294.63 543.504 294.582 543.564C294.534 543.624 294.48 543.66 294.42 543.672C293.592 543.768 292.722 543.846 291.81 543.906C290.898 543.966 289.986 544.014 289.074 544.05C288.174 544.086 287.292 544.11 286.428 544.122C285.576 544.134 284.784 544.128 284.052 544.104C283.98 544.104 283.92 544.08 283.872 544.032C283.824 543.972 283.8 543.906 283.8 543.834V542.682ZM293.556 536.13C293.556 536.478 293.544 536.844 293.52 537.228C293.496 537.6 293.466 537.978 293.43 538.362C293.394 538.746 293.346 539.118 293.286 539.478C293.238 539.826 293.178 540.144 293.106 540.432C293.082 540.528 293.034 540.612 292.962 540.684C292.902 540.756 292.83 540.786 292.746 540.774L291.342 540.648C291.186 540.636 291.126 540.522 291.162 540.306C291.21 540.078 291.258 539.808 291.306 539.496C291.354 539.172 291.396 538.848 291.432 538.524C291.468 538.2 291.492 537.894 291.504 537.606C291.528 537.318 291.54 537.09 291.54 536.922C291.54 536.754 291.498 536.652 291.414 536.616C291.33 536.568 291.204 536.544 291.036 536.544H285.366C285.306 536.544 285.246 536.526 285.186 536.49C285.126 536.442 285.096 536.388 285.096 536.328V535.068C285.096 534.996 285.126 534.942 285.186 534.906C285.246 534.87 285.306 534.852 285.366 534.852H292.35C292.734 534.852 293.028 534.954 293.232 535.158C293.448 535.362 293.556 535.686 293.556 536.13ZM314.263 550.692C314.263 550.848 314.185 550.926 314.029 550.926H312.427C312.271 550.926 312.193 550.848 312.193 550.692V534.078C312.193 533.922 312.271 533.844 312.427 533.844H314.029C314.185 533.844 314.263 533.922 314.263 534.078V550.692ZM310.987 545.814C311.011 545.91 310.987 545.988 310.915 546.048C310.843 546.096 310.759 546.132 310.663 546.156C310.315 546.24 309.913 546.318 309.457 546.39C309.013 546.45 308.539 546.504 308.035 546.552C307.531 546.6 307.021 546.642 306.505 546.678C305.989 546.714 305.491 546.738 305.011 546.75C304.531 546.762 304.087 546.768 303.679 546.768C303.283 546.768 302.953 546.756 302.689 546.732C302.161 546.684 301.795 546.57 301.591 546.39C301.399 546.21 301.303 545.892 301.303 545.436V541.116C301.303 540.684 301.405 540.372 301.609 540.18C301.825 539.988 302.143 539.892 302.563 539.892H306.847C306.943 539.892 307.009 539.88 307.045 539.856C307.081 539.82 307.099 539.742 307.099 539.622V537.102C307.099 537.006 307.087 536.94 307.063 536.904C307.039 536.868 306.967 536.85 306.847 536.85H301.663C301.603 536.85 301.543 536.826 301.483 536.778C301.435 536.73 301.411 536.676 301.411 536.616V535.374C301.411 535.314 301.435 535.266 301.483 535.23C301.543 535.182 301.603 535.158 301.663 535.158H307.927C308.443 535.158 308.773 535.254 308.917 535.446C309.073 535.638 309.151 535.95 309.151 536.382V540.378C309.151 540.834 309.055 541.146 308.863 541.314C308.683 541.482 308.359 541.566 307.891 541.566H303.625C303.457 541.566 303.373 541.65 303.373 541.818V544.662C303.373 544.794 303.397 544.884 303.445 544.932C303.493 544.968 303.583 544.986 303.715 544.986C304.243 545.01 304.795 545.016 305.371 545.004C305.959 544.98 306.547 544.95 307.135 544.914C307.723 544.866 308.293 544.806 308.845 544.734C309.409 544.662 309.937 544.578 310.429 544.482C310.513 544.458 310.591 544.47 310.663 544.518C310.747 544.554 310.801 544.626 310.825 544.734L310.987 545.814ZM325.611 543.87C325.611 544.362 325.509 544.818 325.305 545.238C325.113 545.658 324.843 546.03 324.495 546.354C324.147 546.666 323.733 546.912 323.253 547.092C322.773 547.272 322.257 547.362 321.705 547.362C321.141 547.362 320.619 547.272 320.139 547.092C319.671 546.912 319.263 546.666 318.915 546.354C318.567 546.042 318.291 545.676 318.087 545.256C317.895 544.824 317.799 544.362 317.799 543.87C317.799 543.366 317.895 542.904 318.087 542.484C318.291 542.052 318.567 541.68 318.915 541.368C319.263 541.056 319.671 540.81 320.139 540.63C320.619 540.45 321.141 540.36 321.705 540.36C322.257 540.36 322.773 540.456 323.253 540.648C323.733 540.828 324.147 541.074 324.495 541.386C324.843 541.698 325.113 542.07 325.305 542.502C325.509 542.934 325.611 543.39 325.611 543.87ZM329.499 550.476C329.499 550.644 329.415 550.728 329.247 550.728H328.509C328.341 550.728 328.257 550.644 328.257 550.476V534.384C328.257 534.216 328.341 534.132 328.509 534.132H329.247C329.415 534.132 329.499 534.216 329.499 534.384V541.026H331.983C332.055 541.026 332.115 541.05 332.163 541.098C332.223 541.134 332.253 541.188 332.253 541.26V541.872C332.253 541.932 332.223 541.986 332.163 542.034C332.115 542.082 332.055 542.106 331.983 542.106H329.499V550.476ZM324.387 543.87C324.387 543.522 324.321 543.198 324.189 542.898C324.057 542.598 323.871 542.34 323.631 542.124C323.391 541.896 323.103 541.722 322.767 541.602C322.443 541.47 322.089 541.404 321.705 541.404C321.321 541.404 320.961 541.47 320.625 541.602C320.301 541.722 320.019 541.896 319.779 542.124C319.539 542.34 319.347 542.598 319.203 542.898C319.071 543.198 319.005 543.522 319.005 543.87C319.005 544.218 319.071 544.542 319.203 544.842C319.347 545.13 319.539 545.388 319.779 545.616C320.019 545.832 320.301 546.006 320.625 546.138C320.961 546.258 321.321 546.318 321.705 546.318C322.089 546.318 322.443 546.258 322.767 546.138C323.103 546.006 323.391 545.832 323.631 545.616C323.871 545.4 324.057 545.142 324.189 544.842C324.321 544.542 324.387 544.218 324.387 543.87ZM326.961 538.848C326.961 539.004 326.871 539.082 326.691 539.082H316.755C316.695 539.082 316.635 539.058 316.575 539.01C316.527 538.962 316.503 538.902 316.503 538.83V538.254C316.503 538.182 316.527 538.122 316.575 538.074C316.635 538.026 316.695 538.002 316.755 538.002H326.691C326.871 538.002 326.961 538.08 326.961 538.236V538.848ZM324.333 535.788C324.333 535.956 324.243 536.04 324.063 536.04H319.131C319.071 536.04 319.011 536.022 318.951 535.986C318.903 535.938 318.879 535.878 318.879 535.806V535.194C318.879 535.122 318.903 535.062 318.951 535.014C318.999 534.966 319.053 534.942 319.113 534.942H324.063C324.243 534.942 324.333 535.026 324.333 535.194V535.788ZM347.957 546.804C348.017 546.804 348.077 546.828 348.137 546.876C348.197 546.912 348.227 546.966 348.227 547.038V547.65C348.227 547.71 348.197 547.764 348.137 547.812C348.077 547.86 348.017 547.884 347.957 547.884H332.657C332.585 547.884 332.519 547.86 332.459 547.812C332.411 547.764 332.387 547.71 332.387 547.65V547.038C332.387 546.966 332.411 546.912 332.459 546.876C332.519 546.828 332.585 546.804 332.657 546.804H339.065V541.278C339.065 541.206 339.083 541.146 339.119 541.098C339.167 541.038 339.227 541.008 339.299 541.008H340.073C340.133 541.008 340.187 541.038 340.235 541.098C340.283 541.146 340.307 541.206 340.307 541.278V546.804H347.957ZM334.655 535.59C334.655 535.518 334.685 535.464 334.745 535.428C334.805 535.392 334.865 535.374 334.925 535.374H344.519C344.807 535.374 345.035 535.404 345.203 535.464C345.383 535.524 345.521 535.614 345.617 535.734C345.713 535.842 345.779 535.986 345.815 536.166C345.851 536.346 345.875 536.562 345.887 536.814C345.899 537.306 345.899 537.858 345.887 538.47C345.875 539.082 345.845 539.718 345.797 540.378C345.749 541.038 345.683 541.704 345.599 542.376C345.515 543.048 345.413 543.69 345.293 544.302C345.281 544.374 345.251 544.44 345.203 544.5C345.155 544.56 345.095 544.584 345.023 544.572L344.303 544.518C344.099 544.506 344.027 544.398 344.087 544.194C344.195 543.726 344.291 543.156 344.375 542.484C344.459 541.8 344.525 541.11 344.573 540.414C344.633 539.706 344.669 539.034 344.681 538.398C344.705 537.75 344.699 537.228 344.663 536.832C344.639 536.664 344.603 536.562 344.555 536.526C344.519 536.478 344.417 536.454 344.249 536.454H334.925C334.865 536.454 334.805 536.436 334.745 536.4C334.685 536.352 334.655 536.298 334.655 536.238V535.59ZM351.708 547.884C351.864 547.884 351.942 547.914 351.942 547.974C351.942 548.022 351.93 548.082 351.906 548.154L350.718 551.376C350.67 551.472 350.622 551.532 350.574 551.556C350.538 551.592 350.478 551.61 350.394 551.61H349.638C349.482 551.61 349.422 551.526 349.458 551.358L350.304 548.19C350.328 548.118 350.364 548.052 350.412 547.992C350.46 547.92 350.55 547.884 350.682 547.884H351.708ZM72.0557 582.36C72.0557 582.816 71.9537 583.14 71.7497 583.332C71.5577 583.524 71.2337 583.62 70.7777 583.62H62.9297C62.3897 583.62 62.0237 583.524 61.8317 583.332C61.6517 583.14 61.5617 582.81 61.5617 582.342V579.12C61.5617 578.664 61.6577 578.34 61.8497 578.148C62.0537 577.944 62.3837 577.842 62.8397 577.842H70.6697C71.2217 577.842 71.5877 577.938 71.7677 578.13C71.9597 578.322 72.0557 578.658 72.0557 579.138V582.36ZM68.1137 575.286C68.1377 575.406 68.1137 575.496 68.0417 575.556C67.9697 575.604 67.9037 575.634 67.8437 575.646C67.3877 575.754 66.8537 575.85 66.2417 575.934C65.6417 576.006 65.0117 576.066 64.3517 576.114C63.6917 576.15 63.0317 576.174 62.3717 576.186C61.7237 576.198 61.1237 576.186 60.5717 576.15C60.1877 576.126 59.8757 576 59.6357 575.772C59.3957 575.544 59.2757 575.238 59.2757 574.854V568.716C59.2757 568.296 59.3597 568.002 59.5277 567.834C59.7077 567.666 60.0257 567.582 60.4817 567.582H66.4937C66.6617 567.582 66.7457 567.66 66.7457 567.816V569.022C66.7457 569.082 66.7217 569.142 66.6737 569.202C66.6257 569.25 66.5657 569.274 66.4937 569.274H61.6877C61.4597 569.274 61.3457 569.376 61.3457 569.58V570.984C62.1977 570.984 63.0557 570.984 63.9197 570.984C64.7957 570.972 65.5937 570.942 66.3137 570.894C66.3617 570.894 66.4157 570.906 66.4757 570.93C66.5477 570.954 66.5837 570.996 66.5837 571.056V572.226C66.5837 572.43 66.5177 572.532 66.3857 572.532C65.6177 572.592 64.7897 572.628 63.9017 572.64C63.0257 572.64 62.1737 572.64 61.3457 572.64V573.954C61.3457 574.146 61.3757 574.272 61.4357 574.332C61.5077 574.38 61.6577 574.416 61.8857 574.44C62.1497 574.464 62.5097 574.476 62.9657 574.476C63.4217 574.476 63.9137 574.458 64.4417 574.422C64.9697 574.386 65.5037 574.344 66.0437 574.296C66.5957 574.236 67.0937 574.164 67.5377 574.08C67.6217 574.056 67.6997 574.056 67.7717 574.08C67.8437 574.104 67.8917 574.164 67.9157 574.26L68.1137 575.286ZM72.0557 576.708C72.0557 576.864 71.9777 576.942 71.8217 576.942H70.2197C70.0637 576.942 69.9857 576.858 69.9857 576.69V567.078C69.9857 566.922 70.0637 566.844 70.2197 566.844H71.8217C71.9777 566.844 72.0557 566.922 72.0557 567.078V576.708ZM70.0037 579.732C70.0037 579.636 69.9857 579.576 69.9497 579.552C69.9137 579.516 69.8477 579.498 69.7517 579.498H63.8477C63.7517 579.498 63.6857 579.51 63.6497 579.534C63.6257 579.558 63.6137 579.618 63.6137 579.714V581.73C63.6137 581.838 63.6257 581.904 63.6497 581.928C63.6857 581.952 63.7517 581.964 63.8477 581.964H69.7517C69.8597 581.964 69.9257 581.952 69.9497 581.928C69.9857 581.904 70.0037 581.838 70.0037 581.73V579.732ZM90.3875 575.322C90.3875 575.382 90.3575 575.436 90.2975 575.484C90.2495 575.532 90.1955 575.556 90.1355 575.556H87.7775V583.692C87.7775 583.848 87.6995 583.926 87.5435 583.926H85.9415C85.7855 583.926 85.7075 583.848 85.7075 583.692V567.078C85.7075 566.922 85.7855 566.844 85.9415 566.844H87.5435C87.6995 566.844 87.7775 566.922 87.7775 567.078V573.828H90.1355C90.1955 573.828 90.2495 573.852 90.2975 573.9C90.3575 573.936 90.3875 573.99 90.3875 574.062V575.322ZM74.0255 578.922C74.0255 578.754 74.1095 578.67 74.2775 578.67C74.8415 578.694 75.3935 578.706 75.9335 578.706C76.4855 578.706 77.0435 578.7 77.6075 578.688V573.918C77.6075 573.75 77.6915 573.666 77.8595 573.666H79.3895C79.5575 573.666 79.6415 573.75 79.6415 573.918V578.616C80.4815 578.568 81.3095 578.508 82.1255 578.436C82.9415 578.364 83.7575 578.262 84.5735 578.13C84.6335 578.118 84.6995 578.124 84.7715 578.148C84.8435 578.16 84.8855 578.214 84.8975 578.31L85.0055 579.444C85.0175 579.552 84.9995 579.63 84.9515 579.678C84.9035 579.726 84.8495 579.756 84.7895 579.768C83.1095 580.044 81.3695 580.224 79.5695 580.308C77.7695 580.392 76.0055 580.416 74.2775 580.38C74.2055 580.38 74.1455 580.356 74.0975 580.308C74.0495 580.248 74.0255 580.182 74.0255 580.11V578.922ZM83.9255 569.616C83.9255 570.6 83.8835 571.614 83.7995 572.658C83.7155 573.702 83.5775 574.752 83.3855 575.808C83.3615 575.904 83.3195 576 83.2595 576.096C83.2115 576.18 83.1395 576.216 83.0435 576.204L81.6035 576.078C81.4475 576.066 81.3875 575.94 81.4235 575.7C81.5555 574.836 81.6635 573.966 81.7475 573.09C81.8435 572.202 81.8915 571.308 81.8915 570.408C81.8915 570.24 81.8495 570.132 81.7655 570.084C81.6815 570.036 81.5555 570.012 81.3875 570.012H75.4295C75.3575 570.012 75.2915 569.994 75.2315 569.958C75.1715 569.91 75.1415 569.856 75.1415 569.796V568.554C75.1415 568.47 75.1715 568.41 75.2315 568.374C75.2915 568.338 75.3575 568.32 75.4295 568.32H82.7375C83.1095 568.32 83.3975 568.428 83.6015 568.644C83.8175 568.848 83.9255 569.172 83.9255 569.616ZM104.651 583.692C104.651 583.848 104.567 583.926 104.399 583.926H102.815C102.755 583.926 102.695 583.902 102.635 583.854C102.587 583.818 102.563 583.764 102.563 583.692V567.078C102.563 567.018 102.587 566.964 102.635 566.916C102.695 566.868 102.755 566.844 102.815 566.844H104.399C104.567 566.844 104.651 566.922 104.651 567.078V583.692ZM95.8312 569.598C95.1472 569.598 94.5832 569.82 94.1392 570.264C93.6952 570.708 93.4732 571.308 93.4732 572.064C93.4732 572.832 93.6952 573.438 94.1392 573.882C94.5832 574.326 95.1472 574.548 95.8312 574.548C96.5392 574.548 97.1152 574.326 97.5592 573.882C98.0032 573.438 98.2252 572.832 98.2252 572.064C98.2252 571.308 98.0032 570.708 97.5592 570.264C97.1152 569.82 96.5392 569.598 95.8312 569.598ZM95.8312 567.888C96.4432 567.888 97.0132 567.99 97.5412 568.194C98.0812 568.386 98.5492 568.668 98.9452 569.04C99.3412 569.4 99.6532 569.838 99.8812 570.354C100.109 570.87 100.223 571.44 100.223 572.064C100.223 572.7 100.109 573.276 99.8812 573.792C99.6532 574.296 99.3412 574.728 98.9452 575.088C98.5492 575.436 98.0812 575.706 97.5412 575.898C97.0132 576.09 96.4372 576.186 95.8132 576.186C95.2012 576.186 94.6312 576.09 94.1032 575.898C93.5752 575.706 93.1132 575.436 92.7172 575.088C92.3332 574.728 92.0272 574.296 91.7992 573.792C91.5712 573.276 91.4572 572.7 91.4572 572.064C91.4572 571.44 91.5712 570.87 91.7992 570.354C92.0272 569.838 92.3332 569.4 92.7172 569.04C93.1132 568.668 93.5752 568.386 94.1032 568.194C94.6432 567.99 95.2192 567.888 95.8312 567.888ZM90.3952 578.778C90.3952 578.706 90.4192 578.646 90.4672 578.598C90.5152 578.538 90.5812 578.508 90.6652 578.508C91.5172 578.532 92.4172 578.532 93.3652 578.508C94.3132 578.484 95.2552 578.448 96.1912 578.4C97.1392 578.352 98.0572 578.292 98.9452 578.22C99.8332 578.136 100.649 578.046 101.393 577.95C101.453 577.938 101.519 577.944 101.591 577.968C101.675 577.98 101.723 578.034 101.735 578.13L101.843 579.3C101.855 579.396 101.831 579.474 101.771 579.534C101.723 579.582 101.669 579.612 101.609 579.624C100.937 579.72 100.151 579.81 99.2512 579.894C98.3512 579.978 97.4032 580.05 96.4072 580.11C95.4232 580.17 94.4332 580.218 93.4372 580.254C92.4412 580.278 91.5172 580.284 90.6652 580.272C90.5812 580.272 90.5152 580.248 90.4672 580.2C90.4192 580.14 90.3952 580.074 90.3952 580.002V578.778ZM125.202 582.45C125.202 582.858 125.1 583.158 124.896 583.35C124.704 583.554 124.35 583.656 123.834 583.656H115.806C115.278 583.656 114.918 583.566 114.726 583.386C114.534 583.206 114.438 582.876 114.438 582.396V577.914C114.438 577.854 114.462 577.806 114.51 577.77C114.558 577.722 114.612 577.698 114.672 577.698H116.256C116.316 577.698 116.37 577.722 116.418 577.77C116.478 577.806 116.508 577.854 116.508 577.914V579.282H123.114V577.842C123.114 577.782 123.138 577.728 123.186 577.68C123.246 577.632 123.306 577.608 123.366 577.608H124.95C125.01 577.608 125.064 577.632 125.112 577.68C125.172 577.728 125.202 577.782 125.202 577.842V582.45ZM116.364 571.182C116.904 571.182 117.408 571.248 117.876 571.38C118.356 571.512 118.764 571.704 119.1 571.956C119.448 572.196 119.718 572.49 119.91 572.838C120.114 573.174 120.216 573.558 120.216 573.99C120.216 574.41 120.114 574.794 119.91 575.142C119.718 575.49 119.448 575.79 119.1 576.042C118.752 576.294 118.344 576.492 117.876 576.636C117.408 576.768 116.898 576.834 116.346 576.834C115.806 576.834 115.302 576.768 114.834 576.636C114.378 576.492 113.976 576.294 113.628 576.042C113.292 575.79 113.022 575.49 112.818 575.142C112.626 574.794 112.53 574.41 112.53 573.99C112.53 573.558 112.626 573.174 112.818 572.838C113.022 572.49 113.292 572.196 113.628 571.956C113.976 571.704 114.384 571.512 114.852 571.38C115.32 571.248 115.824 571.182 116.364 571.182ZM125.202 576.6C125.202 576.684 125.172 576.75 125.112 576.798C125.064 576.846 125.01 576.87 124.95 576.87H123.366C123.198 576.87 123.114 576.792 123.114 576.636V575.772H120.972C120.912 575.772 120.858 575.748 120.81 575.7C120.762 575.652 120.738 575.598 120.738 575.538V574.368C120.738 574.308 120.762 574.26 120.81 574.224C120.858 574.176 120.912 574.152 120.972 574.152H123.114V572.982H120.99C120.93 572.982 120.87 572.958 120.81 572.91C120.762 572.85 120.738 572.79 120.738 572.73V571.578C120.738 571.518 120.762 571.47 120.81 571.434C120.87 571.386 120.93 571.362 120.99 571.362H123.114V567.078C123.114 566.922 123.198 566.844 123.366 566.844H124.95C125.01 566.844 125.064 566.868 125.112 566.916C125.172 566.964 125.202 567.018 125.202 567.078V576.6ZM121.242 570.372C121.242 570.444 121.212 570.51 121.152 570.57C121.104 570.618 121.044 570.642 120.972 570.642H111.576C111.516 570.642 111.45 570.612 111.378 570.552C111.318 570.492 111.288 570.426 111.288 570.354V569.418C111.288 569.358 111.324 569.292 111.396 569.22C111.468 569.148 111.534 569.112 111.594 569.112L120.972 569.13C121.044 569.13 121.104 569.16 121.152 569.22C121.212 569.268 121.242 569.334 121.242 569.418V570.372ZM116.364 572.694C115.8 572.694 115.338 572.82 114.978 573.072C114.63 573.312 114.456 573.618 114.456 573.99C114.456 574.362 114.63 574.68 114.978 574.944C115.338 575.196 115.8 575.322 116.364 575.322C116.94 575.322 117.402 575.196 117.75 574.944C118.098 574.68 118.272 574.362 118.272 573.99C118.272 573.618 118.098 573.312 117.75 573.072C117.402 572.82 116.94 572.694 116.364 572.694ZM118.938 568.194C118.938 568.266 118.908 568.338 118.848 568.41C118.8 568.47 118.728 568.5 118.632 568.5H114.06C114.012 568.5 113.958 568.476 113.898 568.428C113.838 568.38 113.808 568.308 113.808 568.212V567.258C113.808 567.174 113.838 567.108 113.898 567.06C113.97 567.012 114.03 566.988 114.078 566.988H118.632C118.716 566.988 118.788 567.018 118.848 567.078C118.908 567.138 118.938 567.204 118.938 567.276V568.194ZM123.114 580.956H116.508V581.658C116.508 581.862 116.616 581.964 116.832 581.964H122.79C123.006 581.964 123.114 581.862 123.114 581.658V580.956ZM141.392 575.682C141.392 575.85 141.314 575.934 141.158 575.934H139.556C139.4 575.934 139.322 575.85 139.322 575.682V572.334H136.496C136.388 572.766 136.214 573.174 135.974 573.558C135.734 573.93 135.434 574.254 135.074 574.53C134.714 574.806 134.3 575.028 133.832 575.196C133.364 575.352 132.854 575.43 132.302 575.43C131.654 575.43 131.066 575.322 130.538 575.106C130.01 574.878 129.56 574.578 129.188 574.206C128.816 573.834 128.528 573.408 128.324 572.928C128.12 572.436 128.018 571.926 128.018 571.398C128.018 570.858 128.12 570.342 128.324 569.85C128.528 569.358 128.816 568.926 129.188 568.554C129.56 568.182 130.01 567.888 130.538 567.672C131.066 567.444 131.654 567.33 132.302 567.33C132.878 567.33 133.4 567.42 133.868 567.6C134.348 567.768 134.768 568.002 135.128 568.302C135.5 568.59 135.8 568.938 136.028 569.346C136.268 569.742 136.436 570.162 136.532 570.606H139.322V567.078C139.322 566.922 139.4 566.844 139.556 566.844H141.158C141.314 566.844 141.392 566.922 141.392 567.078V575.682ZM141.392 582.45C141.392 582.858 141.296 583.158 141.104 583.35C140.912 583.554 140.558 583.656 140.042 583.656H132.086C131.558 583.656 131.198 583.566 131.006 583.386C130.814 583.206 130.718 582.876 130.718 582.396V577.068C130.718 577.008 130.742 576.96 130.79 576.924C130.838 576.876 130.892 576.852 130.952 576.852H132.536C132.596 576.852 132.65 576.876 132.698 576.924C132.758 576.96 132.788 577.008 132.788 577.068V578.724H139.322V576.996C139.322 576.936 139.346 576.882 139.394 576.834C139.442 576.786 139.496 576.762 139.556 576.762H141.158C141.218 576.762 141.272 576.786 141.32 576.834C141.368 576.882 141.392 576.936 141.392 576.996V582.45ZM134.624 571.398C134.624 571.086 134.57 570.786 134.462 570.498C134.354 570.21 134.198 569.958 133.994 569.742C133.79 569.526 133.544 569.352 133.256 569.22C132.968 569.088 132.65 569.022 132.302 569.022C131.954 569.022 131.636 569.088 131.348 569.22C131.072 569.352 130.832 569.526 130.628 569.742C130.424 569.958 130.268 570.21 130.16 570.498C130.052 570.786 129.998 571.086 129.998 571.398C129.998 571.71 130.052 572.01 130.16 572.298C130.268 572.574 130.424 572.82 130.628 573.036C130.832 573.252 131.072 573.426 131.348 573.558C131.636 573.678 131.954 573.738 132.302 573.738C132.65 573.738 132.968 573.678 133.256 573.558C133.544 573.426 133.79 573.252 133.994 573.036C134.198 572.82 134.354 572.574 134.462 572.298C134.57 572.01 134.624 571.71 134.624 571.398ZM139.322 580.398H132.788V581.658C132.788 581.862 132.896 581.964 133.112 581.964H138.998C139.214 581.964 139.322 581.862 139.322 581.658V580.398ZM151.209 568.23C150.681 568.23 150.201 568.272 149.769 568.356C149.337 568.428 148.959 568.536 148.635 568.68C148.323 568.824 148.077 568.992 147.897 569.184C147.729 569.376 147.645 569.58 147.645 569.796C147.645 570.012 147.729 570.21 147.897 570.39C148.077 570.57 148.323 570.732 148.635 570.876C148.959 571.008 149.337 571.11 149.769 571.182C150.201 571.254 150.681 571.29 151.209 571.29C151.725 571.29 152.199 571.254 152.631 571.182C153.075 571.11 153.453 571.008 153.765 570.876C154.089 570.732 154.335 570.57 154.503 570.39C154.683 570.198 154.773 569.994 154.773 569.778C154.773 569.562 154.683 569.364 154.503 569.184C154.335 568.992 154.089 568.824 153.765 568.68C153.453 568.536 153.075 568.428 152.631 568.356C152.199 568.272 151.725 568.23 151.209 568.23ZM156.861 569.778C156.861 570.21 156.735 570.618 156.483 571.002C156.243 571.374 155.883 571.698 155.403 571.974C154.923 572.238 154.329 572.448 153.621 572.604C152.925 572.76 152.121 572.838 151.209 572.838C150.297 572.838 149.487 572.76 148.779 572.604C148.083 572.448 147.495 572.238 147.015 571.974C146.535 571.698 146.169 571.374 145.917 571.002C145.677 570.618 145.557 570.21 145.557 569.778C145.557 569.346 145.677 568.938 145.917 568.554C146.169 568.17 146.535 567.84 147.015 567.564C147.495 567.288 148.083 567.072 148.779 566.916C149.487 566.748 150.297 566.664 151.209 566.664C152.121 566.664 152.925 566.748 153.621 566.916C154.329 567.072 154.923 567.288 155.403 567.564C155.883 567.84 156.243 568.17 156.483 568.554C156.735 568.938 156.861 569.346 156.861 569.778ZM157.131 583.458C157.131 583.518 157.101 583.572 157.041 583.62C156.993 583.68 156.945 583.71 156.897 583.71H146.853C146.385 583.71 146.067 583.626 145.899 583.458C145.731 583.29 145.647 583.014 145.647 582.63V580.524C145.647 580.14 145.725 579.864 145.881 579.696C146.049 579.528 146.367 579.444 146.835 579.444H154.467C154.563 579.444 154.623 579.438 154.647 579.426C154.671 579.402 154.683 579.33 154.683 579.21V578.67C154.683 578.538 154.671 578.46 154.647 578.436C154.623 578.4 154.557 578.382 154.449 578.382H145.863C145.803 578.382 145.743 578.364 145.683 578.328C145.635 578.28 145.611 578.226 145.611 578.166V576.96C145.611 576.9 145.635 576.846 145.683 576.798C145.743 576.75 145.803 576.726 145.863 576.726H155.493C155.985 576.726 156.309 576.804 156.465 576.96C156.633 577.104 156.717 577.38 156.717 577.788V579.894C156.717 580.314 156.633 580.596 156.465 580.74C156.309 580.884 155.985 580.956 155.493 580.956H147.897C147.801 580.956 147.741 580.974 147.717 581.01C147.693 581.034 147.681 581.1 147.681 581.208V581.82C147.681 581.928 147.693 581.988 147.717 582C147.741 582.024 147.807 582.036 147.915 582.036H156.879C156.939 582.036 156.993 582.06 157.041 582.108C157.101 582.156 157.131 582.216 157.131 582.288V583.458ZM143.343 575.574C143.175 575.574 143.091 575.49 143.091 575.322V574.17C143.091 574.098 143.115 574.038 143.163 573.99C143.211 573.93 143.271 573.9 143.343 573.9H159.021C159.081 573.9 159.141 573.93 159.201 573.99C159.261 574.05 159.291 574.11 159.291 574.17V575.322C159.291 575.382 159.261 575.442 159.201 575.502C159.141 575.55 159.081 575.574 159.021 575.574H143.343ZM179.824 580.92C179.824 580.98 179.794 581.046 179.734 581.118C179.674 581.178 179.614 581.208 179.554 581.208H163.876C163.804 581.208 163.744 581.178 163.696 581.118C163.648 581.058 163.624 580.992 163.624 580.92V579.75C163.624 579.678 163.648 579.618 163.696 579.57C163.744 579.51 163.804 579.48 163.876 579.48H167.476V578.004C167.476 577.836 167.566 577.752 167.746 577.752H169.294C169.474 577.752 169.564 577.836 169.564 578.004V579.48H173.866V578.004C173.866 577.836 173.956 577.752 174.136 577.752H175.684C175.756 577.752 175.816 577.776 175.864 577.824C175.924 577.872 175.954 577.932 175.954 578.004V579.48H179.554C179.614 579.48 179.674 579.51 179.734 579.57C179.794 579.63 179.824 579.69 179.824 579.75V580.92ZM171.706 577.59C170.986 577.59 170.32 577.518 169.708 577.374C169.108 577.218 168.586 577.008 168.142 576.744C167.71 576.48 167.374 576.174 167.134 575.826C166.894 575.466 166.774 575.076 166.774 574.656C166.774 574.236 166.894 573.846 167.134 573.486C167.374 573.126 167.71 572.814 168.142 572.55C168.586 572.286 169.108 572.082 169.708 571.938C170.32 571.782 170.986 571.704 171.706 571.704C172.438 571.704 173.104 571.782 173.704 571.938C174.316 572.082 174.838 572.286 175.27 572.55C175.714 572.814 176.056 573.126 176.296 573.486C176.536 573.846 176.656 574.236 176.656 574.656C176.656 575.076 176.536 575.466 176.296 575.826C176.056 576.174 175.714 576.48 175.27 576.744C174.838 577.008 174.316 577.218 173.704 577.374C173.104 577.518 172.438 577.59 171.706 577.59ZM171.706 573.234C171.31 573.234 170.932 573.276 170.572 573.36C170.224 573.432 169.918 573.534 169.654 573.666C169.39 573.786 169.18 573.936 169.024 574.116C168.868 574.284 168.79 574.464 168.79 574.656C168.79 574.848 168.868 575.028 169.024 575.196C169.18 575.364 169.39 575.514 169.654 575.646C169.918 575.766 170.224 575.868 170.572 575.952C170.932 576.024 171.31 576.06 171.706 576.06C172.102 576.06 172.474 576.024 172.822 575.952C173.182 575.868 173.494 575.766 173.758 575.646C174.034 575.514 174.25 575.364 174.406 575.196C174.562 575.028 174.64 574.848 174.64 574.656C174.64 574.464 174.562 574.284 174.406 574.116C174.25 573.936 174.034 573.786 173.758 573.666C173.494 573.534 173.182 573.432 172.822 573.36C172.474 573.276 172.102 573.234 171.706 573.234ZM178.384 570.822C178.384 570.906 178.354 570.978 178.294 571.038C178.246 571.086 178.186 571.11 178.114 571.11H165.316C165.256 571.11 165.196 571.08 165.136 571.02C165.076 570.96 165.046 570.888 165.046 570.804V569.76C165.046 569.7 165.076 569.64 165.136 569.58C165.208 569.52 165.274 569.49 165.334 569.49H178.114C178.186 569.49 178.246 569.52 178.294 569.58C178.354 569.628 178.384 569.688 178.384 569.76V570.822ZM174.712 568.5C174.712 568.572 174.682 568.638 174.622 568.698C174.574 568.758 174.508 568.788 174.424 568.788H169.006C168.958 568.788 168.898 568.764 168.826 568.716C168.766 568.668 168.736 568.602 168.736 568.518V567.402C168.736 567.306 168.766 567.234 168.826 567.186C168.898 567.138 168.958 567.114 169.006 567.114H174.424C174.496 567.114 174.562 567.144 174.622 567.204C174.682 567.264 174.712 567.336 174.712 567.42V568.5ZM196.032 575.178C196.032 575.238 196.002 575.298 195.942 575.358C195.882 575.406 195.822 575.43 195.762 575.43H191.676V576.816H192.324C192.816 576.816 193.14 576.894 193.296 577.05C193.464 577.194 193.548 577.47 193.548 577.878V579.948C193.548 580.368 193.464 580.65 193.296 580.794C193.14 580.938 192.816 581.01 192.324 581.01H184.638C184.542 581.01 184.482 581.028 184.458 581.064C184.434 581.088 184.422 581.154 184.422 581.262V581.82C184.422 581.928 184.434 581.988 184.458 582C184.482 582.024 184.548 582.036 184.656 582.036H193.71C193.77 582.036 193.83 582.06 193.89 582.108C193.95 582.156 193.98 582.216 193.98 582.288V583.458C193.98 583.518 193.95 583.572 193.89 583.62C193.83 583.68 193.776 583.71 193.728 583.71H183.594C183.126 583.71 182.808 583.626 182.64 583.458C182.472 583.29 182.388 583.014 182.388 582.63V580.578C182.388 580.194 182.466 579.918 182.622 579.75C182.79 579.582 183.108 579.498 183.576 579.498H191.316C191.412 579.498 191.472 579.492 191.496 579.48C191.52 579.456 191.532 579.384 191.532 579.264V578.76C191.532 578.628 191.52 578.55 191.496 578.526C191.472 578.502 191.406 578.49 191.298 578.49H182.586C182.526 578.49 182.466 578.466 182.406 578.418C182.358 578.37 182.334 578.316 182.334 578.256V577.05C182.334 576.99 182.358 576.936 182.406 576.888C182.466 576.84 182.526 576.816 182.586 576.816H184.17V575.43H180.084C179.916 575.43 179.832 575.346 179.832 575.178V574.062C179.832 573.99 179.856 573.924 179.904 573.864C179.952 573.804 180.012 573.774 180.084 573.774H195.762C195.822 573.774 195.882 573.81 195.942 573.882C196.002 573.942 196.032 574.002 196.032 574.062V575.178ZM193.62 569.706C193.62 570.162 193.494 570.582 193.242 570.966C192.99 571.338 192.624 571.662 192.144 571.938C191.664 572.214 191.07 572.43 190.362 572.586C189.666 572.742 188.862 572.82 187.95 572.82C187.038 572.82 186.228 572.742 185.52 572.586C184.824 572.43 184.236 572.214 183.756 571.938C183.276 571.662 182.91 571.338 182.658 570.966C182.406 570.582 182.28 570.162 182.28 569.706C182.28 569.274 182.406 568.872 182.658 568.5C182.91 568.128 183.276 567.804 183.756 567.528C184.236 567.252 184.824 567.036 185.52 566.88C186.228 566.724 187.038 566.646 187.95 566.646C188.862 566.646 189.666 566.724 190.362 566.88C191.07 567.036 191.664 567.252 192.144 567.528C192.624 567.804 192.99 568.128 193.242 568.5C193.494 568.872 193.62 569.274 193.62 569.706ZM187.95 568.194C187.422 568.194 186.936 568.236 186.492 568.32C186.06 568.404 185.682 568.518 185.358 568.662C185.034 568.794 184.782 568.956 184.602 569.148C184.422 569.34 184.332 569.544 184.332 569.76C184.332 569.964 184.422 570.162 184.602 570.354C184.782 570.534 185.034 570.696 185.358 570.84C185.682 570.972 186.06 571.08 186.492 571.164C186.936 571.248 187.422 571.29 187.95 571.29C188.466 571.29 188.946 571.248 189.39 571.164C189.834 571.08 190.218 570.972 190.542 570.84C190.866 570.696 191.118 570.534 191.298 570.354C191.478 570.162 191.568 569.964 191.568 569.76C191.568 569.544 191.478 569.34 191.298 569.148C191.118 568.956 190.866 568.794 190.542 568.662C190.218 568.518 189.834 568.404 189.39 568.32C188.946 568.236 188.466 568.194 187.95 568.194ZM186.204 576.816H189.642V575.43H186.204V576.816ZM197.893 576.672C197.821 576.72 197.725 576.744 197.605 576.744C197.485 576.732 197.389 576.66 197.317 576.528L196.795 575.646C196.735 575.55 196.717 575.448 196.741 575.34C196.765 575.232 196.837 575.154 196.957 575.106C197.629 574.806 198.265 574.464 198.865 574.08C199.465 573.684 200.005 573.264 200.485 572.82C200.977 572.376 201.403 571.914 201.763 571.434C202.123 570.942 202.399 570.45 202.591 569.958C202.639 569.85 202.657 569.754 202.645 569.67C202.645 569.586 202.549 569.544 202.357 569.544H197.893C197.725 569.544 197.641 569.448 197.641 569.256V568.068C197.641 567.996 197.665 567.936 197.713 567.888C197.773 567.84 197.839 567.816 197.911 567.816H203.599C204.127 567.816 204.517 567.912 204.769 568.104C205.033 568.296 205.135 568.59 205.075 568.986C205.051 569.118 205.015 569.256 204.967 569.4C204.931 569.544 204.895 569.67 204.859 569.778C204.547 570.666 204.097 571.506 203.509 572.298C203.725 572.514 203.965 572.736 204.229 572.964C204.493 573.18 204.763 573.39 205.039 573.594C205.327 573.786 205.609 573.966 205.885 574.134C206.173 574.302 206.437 574.44 206.677 574.548C206.917 574.668 206.977 574.842 206.857 575.07L206.263 576.042C206.203 576.138 206.131 576.198 206.047 576.222C205.963 576.246 205.855 576.228 205.723 576.168C205.507 576.06 205.255 575.916 204.967 575.736C204.679 575.556 204.379 575.352 204.067 575.124C203.755 574.896 203.449 574.656 203.149 574.404C202.849 574.152 202.573 573.9 202.321 573.648C201.709 574.248 201.031 574.806 200.287 575.322C199.555 575.826 198.757 576.276 197.893 576.672ZM210.565 583.638C210.565 583.698 210.535 583.752 210.475 583.8C210.415 583.86 210.355 583.89 210.295 583.89H208.765C208.681 583.89 208.609 583.86 208.549 583.8C208.501 583.752 208.477 583.698 208.477 583.638V579.732C208.477 579.6 208.453 579.516 208.405 579.48C208.357 579.444 208.273 579.426 208.153 579.426H199.819C199.759 579.426 199.699 579.408 199.639 579.372C199.591 579.324 199.567 579.27 199.567 579.21V577.932C199.567 577.86 199.591 577.806 199.639 577.77C199.699 577.734 199.759 577.716 199.819 577.716H209.359C209.815 577.716 210.127 577.812 210.295 578.004C210.475 578.184 210.565 578.502 210.565 578.958V583.638ZM205.399 572.478V571.218C205.399 571.158 205.423 571.11 205.471 571.074C205.531 571.026 205.591 571.002 205.651 571.002H208.477V567.078C208.477 566.922 208.561 566.844 208.729 566.844H210.313C210.373 566.844 210.427 566.868 210.475 566.916C210.535 566.964 210.565 567.018 210.565 567.078V576.564C210.565 576.624 210.535 576.684 210.475 576.744C210.427 576.792 210.373 576.816 210.313 576.816H208.729C208.657 576.816 208.597 576.792 208.549 576.744C208.501 576.684 208.477 576.624 208.477 576.564V572.694H205.651C205.591 572.694 205.531 572.676 205.471 572.64C205.423 572.592 205.399 572.538 205.399 572.478ZM220.329 576.312C219.693 576.312 219.033 576.234 218.349 576.078C217.677 575.922 217.059 575.682 216.495 575.358C215.931 575.022 215.469 574.602 215.109 574.098C214.749 573.582 214.569 572.964 214.569 572.244C214.569 571.524 214.749 570.912 215.109 570.408C215.469 569.892 215.931 569.472 216.495 569.148C217.059 568.812 217.677 568.572 218.349 568.428C219.033 568.272 219.693 568.194 220.329 568.194C220.977 568.194 221.637 568.272 222.309 568.428C222.993 568.572 223.611 568.812 224.163 569.148C224.727 569.472 225.189 569.892 225.549 570.408C225.909 570.912 226.089 571.524 226.089 572.244C226.089 572.964 225.909 573.582 225.549 574.098C225.189 574.602 224.727 575.022 224.163 575.358C223.611 575.682 222.993 575.922 222.309 576.078C221.637 576.234 220.977 576.312 220.329 576.312ZM220.329 569.346C219.897 569.346 219.423 569.394 218.907 569.49C218.391 569.574 217.911 569.73 217.467 569.958C217.023 570.174 216.651 570.474 216.351 570.858C216.051 571.23 215.901 571.698 215.901 572.262C215.901 572.826 216.051 573.294 216.351 573.666C216.651 574.038 217.023 574.338 217.467 574.566C217.911 574.782 218.391 574.938 218.907 575.034C219.423 575.118 219.897 575.16 220.329 575.16C220.749 575.16 221.211 575.118 221.715 575.034C222.231 574.938 222.711 574.782 223.155 574.566C223.611 574.338 223.989 574.038 224.289 573.666C224.601 573.294 224.757 572.826 224.757 572.262C224.757 571.698 224.601 571.23 224.289 570.858C223.989 570.474 223.611 570.174 223.155 569.958C222.711 569.73 222.231 569.574 221.715 569.49C221.211 569.394 220.749 569.346 220.329 569.346ZM228.015 579.804C228.075 579.804 228.135 579.828 228.195 579.876C228.255 579.912 228.285 579.966 228.285 580.038V580.65C228.285 580.71 228.255 580.764 228.195 580.812C228.135 580.86 228.075 580.884 228.015 580.884H212.715C212.643 580.884 212.577 580.86 212.517 580.812C212.469 580.764 212.445 580.71 212.445 580.65V580.038C212.445 579.966 212.469 579.912 212.517 579.876C212.577 579.828 212.643 579.804 212.715 579.804H228.015ZM235.907 579.804V576.672H232.307C231.743 576.672 231.371 576.57 231.191 576.366C231.023 576.15 230.939 575.79 230.939 575.286V573.036C230.939 572.52 231.041 572.178 231.245 572.01C231.461 571.842 231.839 571.758 232.379 571.758H240.497C240.665 571.758 240.767 571.734 240.803 571.686C240.851 571.638 240.875 571.524 240.875 571.344V569.472C240.875 569.292 240.851 569.178 240.803 569.13C240.767 569.082 240.665 569.058 240.497 569.058H231.191C231.131 569.058 231.071 569.04 231.011 569.004C230.963 568.968 230.939 568.92 230.939 568.86V568.176C230.939 568.116 230.963 568.068 231.011 568.032C231.071 567.996 231.131 567.978 231.191 567.978H240.695C240.983 567.978 241.217 568.002 241.397 568.05C241.577 568.086 241.721 568.152 241.829 568.248C241.937 568.344 242.009 568.482 242.045 568.662C242.093 568.83 242.117 569.04 242.117 569.292V571.542C242.117 572.058 242.009 572.4 241.793 572.568C241.589 572.736 241.217 572.82 240.677 572.82H232.559C232.391 572.82 232.283 572.844 232.235 572.892C232.199 572.94 232.181 573.054 232.181 573.234V575.178C232.181 575.346 232.205 575.46 232.253 575.52C232.301 575.568 232.409 575.592 232.577 575.592H242.243C242.303 575.592 242.357 575.61 242.405 575.646C242.465 575.682 242.495 575.73 242.495 575.79V576.456C242.495 576.516 242.465 576.57 242.405 576.618C242.357 576.654 242.309 576.672 242.261 576.672H237.149V579.804H244.223C244.283 579.804 244.343 579.828 244.403 579.876C244.463 579.912 244.493 579.966 244.493 580.038V580.65C244.493 580.71 244.463 580.764 244.403 580.812C244.343 580.86 244.283 580.884 244.223 580.884H228.923C228.851 580.884 228.785 580.86 228.725 580.812C228.677 580.764 228.653 580.71 228.653 580.65V580.038C228.653 579.966 228.677 579.912 228.725 579.876C228.785 579.828 228.851 579.804 228.923 579.804H235.907ZM258.924 573.99C258.924 574.662 258.84 575.34 258.672 576.024C258.516 576.708 258.264 577.326 257.916 577.878C257.568 578.43 257.118 578.886 256.566 579.246C256.026 579.594 255.372 579.768 254.604 579.768C253.812 579.768 253.14 579.594 252.588 579.246C252.048 578.898 251.61 578.448 251.274 577.896C250.95 577.332 250.716 576.708 250.572 576.024C250.428 575.34 250.356 574.662 250.356 573.99C250.356 573.282 250.428 572.586 250.572 571.902C250.716 571.206 250.95 570.582 251.274 570.03C251.61 569.478 252.048 569.034 252.588 568.698C253.14 568.362 253.812 568.194 254.604 568.194C255.372 568.194 256.026 568.362 256.566 568.698C257.118 569.034 257.568 569.478 257.916 570.03C258.264 570.57 258.516 571.188 258.672 571.884C258.84 572.568 258.924 573.27 258.924 573.99ZM257.646 573.972C257.646 573.42 257.586 572.862 257.466 572.298C257.358 571.734 257.184 571.23 256.944 570.786C256.704 570.33 256.392 569.964 256.008 569.688C255.624 569.4 255.156 569.256 254.604 569.256C254.028 569.256 253.548 569.4 253.164 569.688C252.792 569.964 252.492 570.33 252.264 570.786C252.036 571.23 251.874 571.734 251.778 572.298C251.682 572.862 251.634 573.42 251.634 573.972C251.634 574.5 251.676 575.046 251.76 575.61C251.856 576.162 252.018 576.672 252.246 577.14C252.474 577.596 252.78 577.974 253.164 578.274C253.548 578.562 254.028 578.706 254.604 578.706C255.156 578.706 255.624 578.562 256.008 578.274C256.392 577.974 256.704 577.596 256.944 577.14C257.184 576.672 257.358 576.162 257.466 575.61C257.586 575.046 257.646 574.5 257.646 573.972ZM263.136 583.476C263.136 583.644 263.052 583.728 262.884 583.728H262.146C261.978 583.728 261.894 583.644 261.894 583.476V567.384C261.894 567.216 261.978 567.132 262.146 567.132H262.884C263.052 567.132 263.136 567.216 263.136 567.384V583.476ZM273.259 567.708C273.259 567.636 273.289 567.582 273.349 567.546C273.409 567.51 273.469 567.492 273.529 567.492H277.597C277.885 567.492 278.113 567.522 278.281 567.582C278.461 567.642 278.599 567.732 278.695 567.852C278.791 567.96 278.857 568.104 278.893 568.284C278.941 568.464 278.965 568.68 278.965 568.932C278.965 569.208 278.953 569.52 278.929 569.868C278.917 570.216 278.887 570.582 278.839 570.966C278.791 571.338 278.737 571.71 278.677 572.082C278.617 572.454 278.551 572.802 278.479 573.126H280.963C281.023 573.126 281.083 573.15 281.143 573.198C281.203 573.234 281.233 573.288 281.233 573.36V573.972C281.233 574.032 281.203 574.086 281.143 574.134C281.083 574.182 281.023 574.206 280.963 574.206H265.663C265.591 574.206 265.525 574.182 265.465 574.134C265.417 574.086 265.393 574.032 265.393 573.972V573.36C265.393 573.288 265.417 573.234 265.465 573.198C265.525 573.15 265.591 573.126 265.663 573.126H271.027C271.231 572.466 271.399 571.758 271.531 571.002C271.675 570.246 271.741 569.55 271.729 568.914C271.729 568.746 271.699 568.644 271.639 568.608C271.591 568.56 271.483 568.536 271.315 568.536H267.319C267.259 568.536 267.199 568.518 267.139 568.482C267.079 568.434 267.049 568.38 267.049 568.32V567.708C267.049 567.636 267.079 567.582 267.139 567.546C267.199 567.51 267.259 567.492 267.319 567.492H271.549C272.113 567.492 272.485 567.612 272.665 567.852C272.845 568.08 272.929 568.44 272.917 568.932C272.905 569.616 272.833 570.33 272.701 571.074C272.569 571.806 272.413 572.49 272.233 573.126H277.291C277.351 572.862 277.411 572.55 277.471 572.19C277.531 571.83 277.585 571.458 277.633 571.074C277.681 570.678 277.717 570.294 277.741 569.922C277.765 569.538 277.777 569.202 277.777 568.914C277.777 568.746 277.747 568.644 277.687 568.608C277.639 568.56 277.531 568.536 277.363 568.536H273.529C273.469 568.536 273.409 568.518 273.349 568.482C273.289 568.434 273.259 568.38 273.259 568.32V567.708ZM279.073 583.404C279.073 583.464 279.043 583.512 278.983 583.548C278.935 583.596 278.887 583.62 278.839 583.62H269.263C268.699 583.62 268.327 583.512 268.147 583.296C267.979 583.092 267.895 582.738 267.895 582.234V580.668C267.895 580.164 267.997 579.828 268.201 579.66C268.417 579.48 268.795 579.39 269.335 579.39H277.075C277.243 579.39 277.351 579.366 277.399 579.318C277.447 579.27 277.471 579.156 277.471 578.976V577.68C277.471 577.5 277.447 577.386 277.399 577.338C277.363 577.29 277.261 577.266 277.093 577.266H268.111C268.051 577.266 267.991 577.248 267.931 577.212C267.883 577.176 267.859 577.128 267.859 577.068V576.438C267.859 576.378 267.883 576.33 267.931 576.294C267.991 576.258 268.051 576.24 268.111 576.24H277.273C277.561 576.24 277.795 576.264 277.975 576.312C278.155 576.348 278.299 576.414 278.407 576.51C278.515 576.606 278.587 576.744 278.623 576.924C278.671 577.092 278.695 577.302 278.695 577.554V579.138C278.695 579.642 278.587 579.984 278.371 580.164C278.167 580.332 277.795 580.416 277.255 580.416H269.497C269.329 580.416 269.221 580.44 269.173 580.488C269.137 580.536 269.119 580.65 269.119 580.83V582.162C269.119 582.33 269.143 582.438 269.191 582.486C269.239 582.546 269.347 582.576 269.515 582.576H278.821C278.881 582.576 278.935 582.594 278.983 582.63C279.043 582.666 279.073 582.714 279.073 582.774V583.404ZM295.551 583.476C295.551 583.644 295.467 583.728 295.299 583.728H294.561C294.393 583.728 294.309 583.644 294.309 583.476V574.512H291.087C291.051 575.148 290.937 575.778 290.745 576.402C290.565 577.026 290.301 577.59 289.953 578.094C289.605 578.586 289.167 578.988 288.639 579.3C288.123 579.612 287.505 579.768 286.785 579.768C285.993 579.768 285.321 579.594 284.769 579.246C284.229 578.898 283.791 578.448 283.455 577.896C283.131 577.332 282.897 576.708 282.753 576.024C282.609 575.34 282.537 574.662 282.537 573.99C282.537 573.282 282.609 572.586 282.753 571.902C282.897 571.206 283.131 570.582 283.455 570.03C283.791 569.478 284.229 569.034 284.769 568.698C285.321 568.362 285.993 568.194 286.785 568.194C287.505 568.194 288.123 568.344 288.639 568.644C289.167 568.932 289.605 569.322 289.953 569.814C290.301 570.306 290.565 570.87 290.745 571.506C290.937 572.13 291.051 572.772 291.087 573.432H294.309V567.384C294.309 567.216 294.393 567.132 294.561 567.132H295.299C295.467 567.132 295.551 567.216 295.551 567.384V583.476ZM289.827 573.972C289.827 573.432 289.767 572.886 289.647 572.334C289.539 571.782 289.365 571.284 289.125 570.84C288.885 570.396 288.573 570.036 288.189 569.76C287.805 569.484 287.337 569.346 286.785 569.346C286.209 569.346 285.729 569.484 285.345 569.76C284.973 570.036 284.673 570.396 284.445 570.84C284.217 571.284 284.055 571.782 283.959 572.334C283.863 572.886 283.815 573.432 283.815 573.972C283.815 574.488 283.857 575.022 283.941 575.574C284.037 576.126 284.199 576.63 284.427 577.086C284.655 577.53 284.961 577.896 285.345 578.184C285.729 578.472 286.209 578.616 286.785 578.616C287.337 578.616 287.805 578.472 288.189 578.184C288.573 577.896 288.885 577.53 289.125 577.086C289.365 576.63 289.539 576.126 289.647 575.574C289.767 575.022 289.827 574.488 289.827 573.972ZM311.507 583.566C311.507 583.626 311.477 583.674 311.417 583.71C311.369 583.758 311.321 583.782 311.273 583.782H302.219C301.655 583.782 301.283 583.674 301.103 583.458C300.935 583.254 300.851 582.9 300.851 582.396V581.046C300.851 580.542 300.953 580.206 301.157 580.038C301.373 579.858 301.751 579.768 302.291 579.768H309.491C309.659 579.768 309.767 579.744 309.815 579.696C309.863 579.648 309.887 579.534 309.887 579.354V578.328C309.887 578.148 309.863 578.034 309.815 577.986C309.779 577.938 309.677 577.914 309.509 577.914H301.067C301.007 577.914 300.947 577.896 300.887 577.86C300.839 577.824 300.815 577.776 300.815 577.716V577.068C300.815 577.008 300.839 576.96 300.887 576.924C300.947 576.888 301.007 576.87 301.067 576.87H309.707C309.995 576.87 310.229 576.894 310.409 576.942C310.589 576.978 310.733 577.044 310.841 577.14C310.949 577.236 311.021 577.374 311.057 577.554C311.105 577.722 311.129 577.932 311.129 578.184V579.534C311.129 580.038 311.021 580.38 310.805 580.56C310.601 580.728 310.229 580.812 309.689 580.812H302.471C302.303 580.812 302.195 580.836 302.147 580.884C302.111 580.932 302.093 581.046 302.093 581.226V582.324C302.093 582.492 302.117 582.6 302.165 582.648C302.213 582.708 302.321 582.738 302.489 582.738H311.255C311.315 582.738 311.369 582.756 311.417 582.792C311.477 582.828 311.507 582.876 311.507 582.936V583.566ZM306.521 569.04C306.377 569.832 306.137 570.564 305.801 571.236C305.465 571.908 305.003 572.544 304.415 573.144C303.839 573.744 303.125 574.314 302.273 574.854C301.421 575.382 300.407 575.898 299.231 576.402C299.039 576.486 298.907 576.45 298.835 576.294L298.565 575.7C298.517 575.604 298.511 575.526 298.547 575.466C298.595 575.406 298.649 575.364 298.709 575.34C302.585 573.744 304.739 571.752 305.171 569.364C305.243 569.016 305.099 568.842 304.739 568.842H299.195C299.051 568.842 298.979 568.764 298.979 568.608V567.978C298.979 567.834 299.051 567.762 299.195 567.762H305.153C305.729 567.762 306.119 567.864 306.323 568.068C306.539 568.272 306.605 568.596 306.521 569.04ZM311.129 575.556C311.129 575.724 311.045 575.808 310.877 575.808H310.139C309.971 575.808 309.887 575.724 309.887 575.556V567.384C309.887 567.216 309.971 567.132 310.139 567.132H310.877C311.045 567.132 311.129 567.216 311.129 567.384V570.984H313.613C313.685 570.984 313.745 571.008 313.793 571.056C313.853 571.092 313.883 571.146 313.883 571.218V571.83C313.883 571.89 313.853 571.944 313.793 571.992C313.745 572.04 313.685 572.064 313.613 572.064H311.129V575.556ZM325.829 583.62C325.769 583.62 325.715 583.59 325.667 583.53C325.619 583.482 325.595 583.422 325.595 583.35V577.482H318.611C318.539 577.482 318.473 577.458 318.413 577.41C318.365 577.362 318.341 577.308 318.341 577.248V576.636C318.341 576.564 318.365 576.51 318.413 576.474C318.473 576.426 318.539 576.402 318.611 576.402H333.911C333.971 576.402 334.031 576.426 334.091 576.474C334.151 576.51 334.181 576.564 334.181 576.636V577.248C334.181 577.308 334.151 577.362 334.091 577.41C334.031 577.458 333.971 577.482 333.911 577.482H326.837V583.35C326.837 583.422 326.813 583.482 326.765 583.53C326.729 583.59 326.675 583.62 326.603 583.62H325.829ZM326.891 567.528C326.867 567.684 326.837 567.834 326.801 567.978C326.765 568.122 326.729 568.26 326.693 568.392C326.729 568.524 326.771 568.65 326.819 568.77C326.867 568.878 326.921 568.986 326.981 569.094C327.185 569.49 327.485 569.892 327.881 570.3C328.277 570.696 328.733 571.074 329.249 571.434C329.765 571.782 330.323 572.094 330.923 572.37C331.523 572.646 332.141 572.862 332.777 573.018C332.849 573.042 332.897 573.09 332.921 573.162C332.945 573.234 332.945 573.3 332.921 573.36L332.633 573.972C332.597 574.032 332.555 574.074 332.507 574.098C332.471 574.122 332.393 574.122 332.273 574.098C331.637 573.93 331.007 573.702 330.383 573.414C329.759 573.114 329.177 572.772 328.637 572.388C328.097 572.004 327.605 571.59 327.161 571.146C326.729 570.702 326.375 570.252 326.099 569.796C325.583 570.732 324.845 571.578 323.885 572.334C322.925 573.078 321.719 573.738 320.267 574.314C320.075 574.386 319.955 574.362 319.907 574.242L319.565 573.612C319.541 573.552 319.535 573.486 319.547 573.414C319.571 573.342 319.619 573.294 319.691 573.27C320.471 573.006 321.215 572.658 321.923 572.226C322.631 571.782 323.255 571.296 323.795 570.768C324.335 570.24 324.767 569.688 325.091 569.112C325.427 568.536 325.613 567.966 325.649 567.402C325.661 567.258 325.739 567.186 325.883 567.186L326.693 567.276C326.753 567.288 326.807 567.312 326.855 567.348C326.903 567.384 326.915 567.444 326.891 567.528ZM348.414 571.848C348.414 572.448 348.306 573 348.09 573.504C347.874 573.996 347.574 574.422 347.19 574.782C346.806 575.142 346.35 575.424 345.822 575.628C345.306 575.832 344.742 575.934 344.13 575.934C343.542 575.934 342.99 575.838 342.474 575.646C341.958 575.442 341.508 575.16 341.124 574.8C340.752 574.44 340.458 574.008 340.242 573.504C340.026 573 339.918 572.448 339.918 571.848C339.918 571.212 340.026 570.642 340.242 570.138C340.458 569.622 340.752 569.19 341.124 568.842C341.508 568.482 341.958 568.212 342.474 568.032C342.99 567.84 343.542 567.744 344.13 567.744C344.682 567.744 345.216 567.84 345.732 568.032C346.248 568.212 346.704 568.476 347.1 568.824C347.496 569.172 347.814 569.604 348.054 570.12C348.294 570.624 348.414 571.2 348.414 571.848ZM347.154 571.83C347.154 571.35 347.07 570.93 346.902 570.57C346.746 570.198 346.53 569.892 346.254 569.652C345.978 569.4 345.654 569.214 345.282 569.094C344.922 568.962 344.538 568.896 344.13 568.896C343.71 568.896 343.32 568.962 342.96 569.094C342.612 569.214 342.3 569.4 342.024 569.652C341.76 569.892 341.55 570.198 341.394 570.57C341.25 570.93 341.178 571.35 341.178 571.83C341.178 572.286 341.25 572.694 341.394 573.054C341.538 573.414 341.742 573.726 342.006 573.99C342.27 574.254 342.582 574.458 342.942 574.602C343.302 574.734 343.698 574.8 344.13 574.8C344.538 574.8 344.922 574.734 345.282 574.602C345.654 574.458 345.978 574.254 346.254 573.99C346.53 573.726 346.746 573.414 346.902 573.054C347.07 572.694 347.154 572.286 347.154 571.83ZM354.354 583.566C354.306 583.626 354.258 583.668 354.21 583.692C354.174 583.716 354.114 583.704 354.03 583.656C353.274 583.26 352.626 582.786 352.086 582.234C351.558 581.694 351.15 581.106 350.862 580.47C350.55 581.118 350.16 581.706 349.692 582.234C349.236 582.774 348.714 583.224 348.126 583.584C347.958 583.68 347.778 583.674 347.586 583.566C346.998 583.23 346.47 582.804 346.002 582.288C345.534 581.784 345.162 581.226 344.886 580.614C344.574 581.238 344.148 581.802 343.608 582.306C343.08 582.81 342.426 583.272 341.646 583.692C341.586 583.716 341.52 583.74 341.448 583.764C341.376 583.788 341.322 583.776 341.286 583.728L340.854 583.08C340.83 583.032 340.824 582.972 340.836 582.9C340.86 582.84 340.908 582.792 340.98 582.756C342.156 582.18 343.014 581.472 343.554 580.632C344.106 579.78 344.346 578.748 344.274 577.536C344.274 577.38 344.334 577.302 344.454 577.302L345.318 577.32C345.45 577.32 345.516 577.392 345.516 577.536C345.516 577.896 345.498 578.244 345.462 578.58C345.474 578.94 345.546 579.312 345.678 579.696C345.81 580.08 345.978 580.446 346.182 580.794C346.386 581.13 346.62 581.442 346.884 581.73C347.16 582.006 347.448 582.222 347.748 582.378C347.856 582.438 347.952 582.438 348.036 582.378C348.36 582.174 348.66 581.898 348.936 581.55C349.212 581.202 349.452 580.812 349.656 580.38C349.872 579.948 350.034 579.486 350.142 578.994C350.262 578.502 350.316 578.01 350.304 577.518C350.304 577.458 350.316 577.404 350.34 577.356C350.376 577.296 350.43 577.266 350.502 577.266L351.348 577.284C351.48 577.284 351.546 577.356 351.546 577.5C351.534 577.632 351.522 577.764 351.51 577.896C351.51 578.016 351.504 578.142 351.492 578.274C351.492 579.234 351.762 580.098 352.302 580.866C352.842 581.622 353.622 582.234 354.642 582.702C354.786 582.786 354.81 582.9 354.714 583.044L354.354 583.566ZM352.824 576.258C352.824 576.426 352.74 576.51 352.572 576.51H351.834C351.666 576.51 351.582 576.426 351.582 576.258V567.384C351.582 567.216 351.666 567.132 351.834 567.132H352.572C352.74 567.132 352.824 567.216 352.824 567.384V576.258ZM358.916 583.62C358.628 583.62 358.394 583.602 358.214 583.566C358.046 583.53 357.914 583.458 357.818 583.35C357.722 583.254 357.656 583.122 357.62 582.954C357.584 582.798 357.566 582.594 357.566 582.342V577.248C357.566 577.188 357.59 577.14 357.638 577.104C357.686 577.056 357.74 577.032 357.8 577.032H358.592C358.652 577.032 358.7 577.056 358.736 577.104C358.784 577.152 358.808 577.2 358.808 577.248V579.192H367.16V577.266C367.16 577.206 367.178 577.152 367.214 577.104C367.262 577.056 367.316 577.032 367.376 577.032H368.168C368.228 577.032 368.282 577.056 368.33 577.104C368.378 577.14 368.402 577.188 368.402 577.248V582.468C368.402 582.924 368.306 583.23 368.114 583.386C367.922 583.542 367.562 583.62 367.034 583.62H358.916ZM358.808 580.272V582.108C358.808 582.288 358.838 582.402 358.898 582.45C358.958 582.51 359.072 582.54 359.24 582.54H366.728C366.896 582.54 367.01 582.51 367.07 582.45C367.13 582.402 367.16 582.288 367.16 582.108V580.272H358.808ZM363.632 567.456C363.608 567.528 363.59 567.6 363.578 567.672C363.578 567.732 363.566 567.792 363.542 567.852C363.578 568.008 363.626 568.158 363.686 568.302C363.758 568.446 363.836 568.578 363.92 568.698C364.172 569.094 364.496 569.472 364.892 569.832C365.288 570.18 365.72 570.498 366.188 570.786C366.668 571.062 367.172 571.302 367.7 571.506C368.24 571.71 368.78 571.866 369.32 571.974C369.392 571.998 369.434 572.04 369.446 572.1C369.458 572.16 369.452 572.22 369.428 572.28L369.122 572.892C369.098 572.952 369.062 573 369.014 573.036C368.978 573.06 368.9 573.06 368.78 573.036C368.168 572.892 367.562 572.694 366.962 572.442C366.374 572.178 365.822 571.878 365.306 571.542C364.79 571.194 364.328 570.822 363.92 570.426C363.512 570.03 363.188 569.634 362.948 569.238C362.468 570.066 361.766 570.792 360.842 571.416C359.918 572.04 358.706 572.604 357.206 573.108C357.014 573.168 356.894 573.138 356.846 573.018L356.54 572.37C356.516 572.31 356.51 572.244 356.522 572.172C356.546 572.1 356.6 572.052 356.684 572.028C357.56 571.764 358.328 571.476 358.988 571.164C359.66 570.852 360.23 570.51 360.698 570.138C361.166 569.766 361.538 569.352 361.814 568.896C362.102 568.428 362.294 567.906 362.39 567.33C362.426 567.174 362.504 567.102 362.624 567.114L363.434 567.204C363.494 567.204 363.548 567.228 363.596 567.276C363.644 567.312 363.656 567.372 363.632 567.456ZM370.652 574.494C370.712 574.494 370.772 574.518 370.832 574.566C370.892 574.602 370.922 574.656 370.922 574.728V575.34C370.922 575.4 370.892 575.454 370.832 575.502C370.772 575.55 370.712 575.574 370.652 575.574H355.352C355.28 575.574 355.214 575.55 355.154 575.502C355.106 575.454 355.082 575.4 355.082 575.34V574.71C355.082 574.638 355.106 574.584 355.154 574.548C355.214 574.512 355.28 574.494 355.352 574.494H370.652ZM385.24 583.476C385.24 583.644 385.156 583.728 384.988 583.728H384.25C384.082 583.728 383.998 583.644 383.998 583.476V567.384C383.998 567.216 384.082 567.132 384.25 567.132H384.988C385.156 567.132 385.24 567.216 385.24 567.384V583.476ZM374.314 577.158C374.314 577.338 374.344 577.458 374.404 577.518C374.464 577.578 374.578 577.614 374.746 577.626C375.334 577.65 375.958 577.656 376.618 577.644C377.29 577.62 377.962 577.584 378.634 577.536C379.306 577.476 379.96 577.404 380.596 577.32C381.244 577.236 381.844 577.14 382.396 577.032C382.6 576.984 382.72 577.056 382.756 577.248L382.846 577.752C382.882 577.92 382.804 578.028 382.612 578.076C382.204 578.172 381.676 578.262 381.028 578.346C380.392 578.43 379.702 578.508 378.958 578.58C378.214 578.64 377.452 578.688 376.672 578.724C375.892 578.748 375.166 578.754 374.494 578.742C373.954 578.73 373.582 578.604 373.378 578.364C373.174 578.124 373.072 577.752 373.072 577.248V568.392C373.072 568.224 373.156 568.14 373.324 568.14H374.062C374.23 568.14 374.314 568.224 374.314 568.392V577.158ZM398.261 577.914C398.285 578.082 398.207 578.184 398.027 578.22C397.583 578.328 397.019 578.43 396.335 578.526C395.663 578.622 394.949 578.706 394.193 578.778C393.449 578.85 392.711 578.904 391.979 578.94C391.247 578.976 390.611 578.988 390.071 578.976C389.531 578.964 389.159 578.838 388.955 578.598C388.763 578.358 388.667 577.986 388.667 577.482V569.742C388.667 569.238 388.763 568.902 388.955 568.734C389.147 568.566 389.507 568.482 390.035 568.482H396.227C396.383 568.482 396.461 568.554 396.461 568.698V569.346C396.461 569.49 396.383 569.562 396.227 569.562H390.269C390.101 569.562 389.999 569.586 389.963 569.634C389.927 569.67 389.909 569.778 389.909 569.958V577.392C389.909 577.572 389.939 577.692 389.999 577.752C390.059 577.812 390.173 577.848 390.341 577.86C390.917 577.884 391.523 577.884 392.159 577.86C392.807 577.824 393.455 577.776 394.103 577.716C394.763 577.644 395.405 577.566 396.029 577.482C396.665 577.386 397.265 577.284 397.829 577.176C398.021 577.14 398.135 577.206 398.171 577.374L398.261 577.914ZM400.817 583.476C400.817 583.644 400.733 583.728 400.565 583.728H399.827C399.659 583.728 399.575 583.644 399.575 583.476V567.384C399.575 567.216 399.659 567.132 399.827 567.132H400.565C400.733 567.132 400.817 567.216 400.817 567.384V573.936H403.301C403.373 573.936 403.433 573.96 403.481 574.008C403.541 574.044 403.571 574.098 403.571 574.17V574.782C403.571 574.842 403.541 574.896 403.481 574.944C403.433 574.992 403.373 575.016 403.301 575.016H400.817V583.476ZM405.109 581.928C405.109 581.676 405.193 581.466 405.361 581.298C405.541 581.118 405.757 581.028 406.009 581.028C406.261 581.028 406.471 581.118 406.639 581.298C406.819 581.466 406.909 581.676 406.909 581.928C406.909 582.18 406.819 582.39 406.639 582.558C406.471 582.738 406.261 582.828 406.009 582.828C405.757 582.828 405.541 582.738 405.361 582.558C405.193 582.39 405.109 582.18 405.109 581.928Z" fill="white"/>
<path d="M331.583 426L336.207 415.632L336.751 416.56H330.399L331.391 415.552V418.464H329.455V414.8H338.159V416.192L333.807 426H331.583ZM343.325 426.16C342.439 426.16 341.639 425.936 340.925 425.488C340.221 425.04 339.666 424.389 339.261 423.536C338.855 422.672 338.653 421.627 338.653 420.4C338.653 419.173 338.855 418.133 339.261 417.28C339.666 416.416 340.221 415.76 340.925 415.312C341.639 414.864 342.439 414.64 343.325 414.64C344.221 414.64 345.021 414.864 345.725 415.312C346.429 415.76 346.983 416.416 347.389 417.28C347.805 418.133 348.013 419.173 348.013 420.4C348.013 421.627 347.805 422.672 347.389 423.536C346.983 424.389 346.429 425.04 345.725 425.488C345.021 425.936 344.221 426.16 343.325 426.16ZM343.325 424.352C343.847 424.352 344.301 424.213 344.685 423.936C345.069 423.648 345.367 423.211 345.581 422.624C345.805 422.037 345.917 421.296 345.917 420.4C345.917 419.493 345.805 418.752 345.581 418.176C345.367 417.589 345.069 417.157 344.685 416.88C344.301 416.592 343.847 416.448 343.325 416.448C342.823 416.448 342.375 416.592 341.981 416.88C341.597 417.157 341.293 417.589 341.069 418.176C340.855 418.752 340.749 419.493 340.749 420.4C340.749 421.296 340.855 422.037 341.069 422.624C341.293 423.211 341.597 423.648 341.981 423.936C342.375 424.213 342.823 424.352 343.325 424.352ZM350.506 426L358.154 414.8H359.722L352.074 426H350.506ZM351.434 420.832C350.912 420.832 350.448 420.704 350.042 420.448C349.637 420.192 349.322 419.835 349.098 419.376C348.874 418.917 348.762 418.379 348.762 417.76C348.762 417.141 348.874 416.603 349.098 416.144C349.322 415.685 349.637 415.328 350.042 415.072C350.448 414.816 350.912 414.688 351.434 414.688C351.978 414.688 352.448 414.816 352.842 415.072C353.248 415.328 353.562 415.685 353.786 416.144C354.01 416.603 354.122 417.141 354.122 417.76C354.122 418.379 354.01 418.917 353.786 419.376C353.562 419.835 353.248 420.192 352.842 420.448C352.448 420.704 351.978 420.832 351.434 420.832ZM351.45 419.712C351.877 419.712 352.208 419.547 352.442 419.216C352.688 418.875 352.81 418.389 352.81 417.76C352.81 417.131 352.688 416.651 352.442 416.32C352.208 415.979 351.877 415.808 351.45 415.808C351.024 415.808 350.682 415.979 350.426 416.32C350.181 416.661 350.058 417.141 350.058 417.76C350.058 418.379 350.181 418.859 350.426 419.2C350.682 419.541 351.024 419.712 351.45 419.712ZM358.778 426.112C358.256 426.112 357.792 425.984 357.386 425.728C356.981 425.472 356.666 425.115 356.442 424.656C356.218 424.197 356.106 423.659 356.106 423.04C356.106 422.421 356.218 421.883 356.442 421.424C356.666 420.965 356.981 420.608 357.386 420.352C357.792 420.096 358.256 419.968 358.778 419.968C359.322 419.968 359.792 420.096 360.186 420.352C360.592 420.608 360.906 420.965 361.13 421.424C361.354 421.883 361.466 422.421 361.466 423.04C361.466 423.659 361.354 424.197 361.13 424.656C360.906 425.115 360.592 425.472 360.186 425.728C359.792 425.984 359.322 426.112 358.778 426.112ZM358.778 424.992C359.205 424.992 359.541 424.821 359.786 424.48C360.032 424.139 360.154 423.659 360.154 423.04C360.154 422.421 360.032 421.941 359.786 421.6C359.541 421.259 359.205 421.088 358.778 421.088C358.362 421.088 358.026 421.259 357.77 421.6C357.525 421.931 357.402 422.411 357.402 423.04C357.402 423.669 357.525 424.155 357.77 424.496C358.026 424.827 358.362 424.992 358.778 424.992Z" fill="#00D675"/>
<path d="M179.122 126H186.602L187.588 129.094C187.928 130.25 188.325 131.587 188.778 133.106C189.231 134.602 189.696 136.155 190.172 137.764C190.648 139.373 191.124 140.96 191.6 142.524C192.099 144.088 192.552 145.505 192.96 146.774C193.391 148.043 193.765 149.109 194.082 149.97C194.422 150.809 194.671 151.296 194.83 151.432L194.864 151.398C194.728 151.058 194.615 150.605 194.524 150.038C194.456 149.471 194.399 148.712 194.354 147.76C194.309 146.785 194.275 145.561 194.252 144.088C194.229 142.615 194.218 140.813 194.218 138.682V126H201.018V160H193.538L192.552 156.906C192.212 155.75 191.815 154.424 191.362 152.928C190.909 151.409 190.444 149.845 189.968 148.236C189.492 146.627 189.005 145.04 188.506 143.476C188.03 141.912 187.577 140.495 187.146 139.226C186.738 137.957 186.364 136.903 186.024 136.064C185.707 135.203 185.469 134.704 185.31 134.568L185.276 134.602C185.412 134.942 185.514 135.395 185.582 135.962C185.673 136.529 185.741 137.299 185.786 138.274C185.831 139.249 185.865 140.473 185.888 141.946C185.911 143.397 185.922 145.187 185.922 147.318V160H179.122V126ZM203.514 145.346C203.514 142.241 204.364 139.872 206.064 138.24C207.786 136.585 210.268 135.758 213.51 135.758C216.683 135.758 219.131 136.597 220.854 138.274C222.576 139.929 223.438 142.286 223.438 145.346V150.854C223.438 153.937 222.576 156.305 220.854 157.96C219.154 159.615 216.694 160.442 213.476 160.442C210.257 160.442 207.786 159.626 206.064 157.994C204.364 156.339 203.514 153.959 203.514 150.854V145.346ZM210.314 152.078C210.314 153.075 210.586 153.857 211.13 154.424C211.674 154.968 212.456 155.24 213.476 155.24C214.496 155.24 215.278 154.968 215.822 154.424C216.366 153.857 216.638 153.075 216.638 152.078V144.122C216.638 143.125 216.366 142.354 215.822 141.81C215.278 141.243 214.496 140.96 213.476 140.96C212.456 140.96 211.674 141.243 211.13 141.81C210.586 142.354 210.314 143.125 210.314 144.122V152.078ZM224.726 136.2H225.95V129.4H232.75L232.24 136.2H235.028V139.022H232.41V153.438C232.41 153.891 232.568 154.22 232.886 154.424C233.203 154.628 233.724 154.753 234.45 154.798V160C232.818 160 231.458 159.909 230.37 159.728C229.282 159.547 228.409 159.241 227.752 158.81C227.094 158.357 226.63 157.756 226.358 157.008C226.086 156.26 225.95 155.331 225.95 154.22V139.022H224.726V136.2ZM236.026 131.236C236.026 130.171 236.343 129.366 236.978 128.822C237.612 128.278 238.462 128.006 239.528 128.006C240.593 128.006 241.443 128.278 242.078 128.822C242.735 129.366 243.064 130.171 243.064 131.236C243.064 132.301 242.735 133.117 242.078 133.684C241.443 134.228 240.593 134.5 239.528 134.5C238.462 134.5 237.612 134.228 236.978 133.684C236.343 133.117 236.026 132.301 236.026 131.236ZM236.298 136.2H242.758V160H236.298V136.2ZM244.818 145.346C244.818 142.241 245.668 139.872 247.368 138.24C249.091 136.585 251.573 135.758 254.814 135.758C257.988 135.758 260.436 136.597 262.158 138.274C263.881 139.929 264.742 142.286 264.742 145.346V150.854C264.742 153.937 263.881 156.305 262.158 157.96C260.458 159.615 257.999 160.442 254.78 160.442C251.562 160.442 249.091 159.626 247.368 157.994C245.668 156.339 244.818 153.959 244.818 150.854V145.346ZM251.618 152.078C251.618 153.075 251.89 153.857 252.434 154.424C252.978 154.968 253.76 155.24 254.78 155.24C255.8 155.24 256.582 154.968 257.126 154.424C257.67 153.857 257.942 153.075 257.942 152.078V144.122C257.942 143.125 257.67 142.354 257.126 141.81C256.582 141.243 255.8 140.96 254.78 140.96C253.76 140.96 252.978 141.243 252.434 141.81C251.89 142.354 251.618 143.125 251.618 144.122V152.078ZM267.011 136.2H273.811L273.335 141.98H273.471C273.675 139.849 274.332 138.285 275.443 137.288C276.553 136.268 278.106 135.758 280.101 135.758C282.299 135.758 283.92 136.37 284.963 137.594C286.005 138.795 286.527 140.597 286.527 143V160H280.067V143.918C280.067 141.923 279.035 140.926 276.973 140.926C275.907 140.926 275.057 141.232 274.423 141.844C273.788 142.433 273.471 143.159 273.471 144.02V160H267.011V136.2Z" fill="black"/>
<path d="M182.688 93.192C181.824 93.192 181.019 93.0533 180.272 92.776C179.536 92.488 178.896 92.0827 178.352 91.56C177.808 91.0373 177.381 90.424 177.072 89.72C176.773 89.016 176.624 88.2427 176.624 87.4C176.624 86.5573 176.773 85.784 177.072 85.08C177.381 84.376 177.808 83.7627 178.352 83.24C178.907 82.7173 179.552 82.3173 180.288 82.04C181.024 81.752 181.829 81.608 182.704 81.608C183.675 81.608 184.549 81.7787 185.328 82.12C186.117 82.4507 186.779 82.9413 187.312 83.592L185.648 85.128C185.264 84.6907 184.837 84.3653 184.368 84.152C183.899 83.928 183.387 83.816 182.832 83.816C182.309 83.816 181.829 83.9013 181.392 84.072C180.955 84.2427 180.576 84.488 180.256 84.808C179.936 85.128 179.685 85.5067 179.504 85.944C179.333 86.3813 179.248 86.8667 179.248 87.4C179.248 87.9333 179.333 88.4187 179.504 88.856C179.685 89.2933 179.936 89.672 180.256 89.992C180.576 90.312 180.955 90.5573 181.392 90.728C181.829 90.8987 182.309 90.984 182.832 90.984C183.387 90.984 183.899 90.8773 184.368 90.664C184.837 90.44 185.264 90.104 185.648 89.656L187.312 91.192C186.779 91.8427 186.117 92.3387 185.328 92.68C184.549 93.0213 183.669 93.192 182.688 93.192ZM192.686 93.128C191.768 93.128 190.952 92.936 190.238 92.552C189.534 92.168 188.974 91.6453 188.558 90.984C188.152 90.312 187.95 89.5493 187.95 88.696C187.95 87.832 188.152 87.0693 188.558 86.408C188.974 85.736 189.534 85.2133 190.238 84.84C190.952 84.456 191.768 84.264 192.686 84.264C193.592 84.264 194.403 84.456 195.118 84.84C195.832 85.2133 196.392 85.7307 196.798 86.392C197.203 87.0533 197.406 87.8213 197.406 88.696C197.406 89.5493 197.203 90.312 196.798 90.984C196.392 91.6453 195.832 92.168 195.118 92.552C194.403 92.936 193.592 93.128 192.686 93.128ZM192.686 91.08C193.102 91.08 193.475 90.984 193.806 90.792C194.136 90.6 194.398 90.328 194.59 89.976C194.782 89.6133 194.878 89.1867 194.878 88.696C194.878 88.1947 194.782 87.768 194.59 87.416C194.398 87.064 194.136 86.792 193.806 86.6C193.475 86.408 193.102 86.312 192.686 86.312C192.27 86.312 191.896 86.408 191.566 86.6C191.235 86.792 190.968 87.064 190.766 87.416C190.574 87.768 190.478 88.1947 190.478 88.696C190.478 89.1867 190.574 89.6133 190.766 89.976C190.968 90.328 191.235 90.6 191.566 90.792C191.896 90.984 192.27 91.08 192.686 91.08ZM199.074 93V81.128H201.57V93H199.074ZM203.886 93V81.128H206.382V93H203.886ZM213.979 93V91.32L213.819 90.952V87.944C213.819 87.4107 213.654 86.9947 213.323 86.696C213.003 86.3973 212.507 86.248 211.835 86.248C211.376 86.248 210.923 86.3227 210.475 86.472C210.038 86.6107 209.664 86.8027 209.355 87.048L208.459 85.304C208.928 84.9733 209.494 84.7173 210.155 84.536C210.816 84.3547 211.488 84.264 212.171 84.264C213.483 84.264 214.502 84.5733 215.227 85.192C215.952 85.8107 216.315 86.776 216.315 88.088V93H213.979ZM211.355 93.128C210.683 93.128 210.107 93.016 209.627 92.792C209.147 92.5573 208.779 92.2427 208.523 91.848C208.267 91.4533 208.139 91.0107 208.139 90.52C208.139 90.008 208.262 89.56 208.507 89.176C208.763 88.792 209.163 88.4933 209.707 88.28C210.251 88.056 210.96 87.944 211.835 87.944H214.123V89.4H212.107C211.52 89.4 211.115 89.496 210.891 89.688C210.678 89.88 210.571 90.12 210.571 90.408C210.571 90.728 210.694 90.984 210.939 91.176C211.195 91.3573 211.542 91.448 211.979 91.448C212.395 91.448 212.768 91.352 213.099 91.16C213.43 90.9573 213.67 90.664 213.819 90.28L214.203 91.432C214.022 91.9867 213.691 92.408 213.211 92.696C212.731 92.984 212.112 93.128 211.355 93.128ZM223.662 93.128C222.905 93.128 222.254 92.968 221.71 92.648C221.166 92.328 220.75 91.8427 220.462 91.192C220.174 90.5307 220.03 89.6987 220.03 88.696C220.03 87.6827 220.179 86.8507 220.478 86.2C220.787 85.5493 221.214 85.064 221.758 84.744C222.302 84.424 222.937 84.264 223.662 84.264C224.473 84.264 225.198 84.4453 225.838 84.808C226.489 85.1707 227.001 85.6827 227.374 86.344C227.758 87.0053 227.95 87.7893 227.95 88.696C227.95 89.592 227.758 90.3707 227.374 91.032C227.001 91.6933 226.489 92.2107 225.838 92.584C225.198 92.9467 224.473 93.128 223.662 93.128ZM218.574 93V81.128H221.07V86.136L220.91 88.68L220.958 91.24V93H218.574ZM223.23 91.08C223.646 91.08 224.014 90.984 224.334 90.792C224.665 90.6 224.926 90.328 225.118 89.976C225.321 89.6133 225.422 89.1867 225.422 88.696C225.422 88.1947 225.321 87.768 225.118 87.416C224.926 87.064 224.665 86.792 224.334 86.6C224.014 86.408 223.646 86.312 223.23 86.312C222.814 86.312 222.441 86.408 222.11 86.6C221.779 86.792 221.518 87.064 221.326 87.416C221.134 87.768 221.038 88.1947 221.038 88.696C221.038 89.1867 221.134 89.6133 221.326 89.976C221.518 90.328 221.779 90.6 222.11 90.792C222.441 90.984 222.814 91.08 223.23 91.08ZM233.717 93.128C232.799 93.128 231.983 92.936 231.269 92.552C230.565 92.168 230.005 91.6453 229.589 90.984C229.183 90.312 228.981 89.5493 228.981 88.696C228.981 87.832 229.183 87.0693 229.589 86.408C230.005 85.736 230.565 85.2133 231.269 84.84C231.983 84.456 232.799 84.264 233.717 84.264C234.623 84.264 235.434 84.456 236.149 84.84C236.863 85.2133 237.423 85.7307 237.829 86.392C238.234 87.0533 238.437 87.8213 238.437 88.696C238.437 89.5493 238.234 90.312 237.829 90.984C237.423 91.6453 236.863 92.168 236.149 92.552C235.434 92.936 234.623 93.128 233.717 93.128ZM233.717 91.08C234.133 91.08 234.506 90.984 234.837 90.792C235.167 90.6 235.429 90.328 235.621 89.976C235.813 89.6133 235.909 89.1867 235.909 88.696C235.909 88.1947 235.813 87.768 235.621 87.416C235.429 87.064 235.167 86.792 234.837 86.6C234.506 86.408 234.133 86.312 233.717 86.312C233.301 86.312 232.927 86.408 232.597 86.6C232.266 86.792 231.999 87.064 231.797 87.416C231.605 87.768 231.509 88.1947 231.509 88.696C231.509 89.1867 231.605 89.6133 231.797 89.976C231.999 90.328 232.266 90.6 232.597 90.792C232.927 90.984 233.301 91.08 233.717 91.08ZM240.105 93V84.392H242.489V86.824L242.153 86.12C242.409 85.512 242.82 85.0533 243.385 84.744C243.95 84.424 244.638 84.264 245.449 84.264V86.568C245.342 86.5573 245.246 86.552 245.161 86.552C245.076 86.5413 244.985 86.536 244.889 86.536C244.206 86.536 243.652 86.7333 243.225 87.128C242.809 87.512 242.601 88.1147 242.601 88.936V93H240.105ZM251.651 93V91.32L251.491 90.952V87.944C251.491 87.4107 251.325 86.9947 250.995 86.696C250.675 86.3973 250.179 86.248 249.507 86.248C249.048 86.248 248.595 86.3227 248.147 86.472C247.709 86.6107 247.336 86.8027 247.027 87.048L246.131 85.304C246.6 84.9733 247.165 84.7173 247.827 84.536C248.488 84.3547 249.16 84.264 249.843 84.264C251.155 84.264 252.173 84.5733 252.899 85.192C253.624 85.8107 253.987 86.776 253.987 88.088V93H251.651ZM249.027 93.128C248.355 93.128 247.779 93.016 247.299 92.792C246.819 92.5573 246.451 92.2427 246.195 91.848C245.939 91.4533 245.811 91.0107 245.811 90.52C245.811 90.008 245.933 89.56 246.179 89.176C246.435 88.792 246.835 88.4933 247.379 88.28C247.923 88.056 248.632 87.944 249.507 87.944H251.795V89.4H249.779C249.192 89.4 248.787 89.496 248.563 89.688C248.349 89.88 248.243 90.12 248.243 90.408C248.243 90.728 248.365 90.984 248.611 91.176C248.867 91.3573 249.213 91.448 249.651 91.448C250.067 91.448 250.44 91.352 250.771 91.16C251.101 90.9573 251.341 90.664 251.491 90.28L251.875 91.432C251.693 91.9867 251.363 92.408 250.883 92.696C250.403 92.984 249.784 93.128 249.027 93.128ZM259.766 93.128C258.752 93.128 257.963 92.872 257.398 92.36C256.832 91.8373 256.55 91.064 256.55 90.04V82.488H259.046V90.008C259.046 90.3707 259.142 90.6533 259.334 90.856C259.526 91.048 259.787 91.144 260.118 91.144C260.512 91.144 260.848 91.0373 261.126 90.824L261.798 92.584C261.542 92.7653 261.232 92.904 260.87 93C260.518 93.0853 260.15 93.128 259.766 93.128ZM255.222 86.504V84.584H261.19V86.504H255.222ZM263.199 93V84.392H265.695V93H263.199ZM264.447 83.192C263.988 83.192 263.615 83.0587 263.327 82.792C263.039 82.5253 262.895 82.1947 262.895 81.8C262.895 81.4053 263.039 81.0747 263.327 80.808C263.615 80.5413 263.988 80.408 264.447 80.408C264.906 80.408 265.279 80.536 265.567 80.792C265.855 81.0373 265.999 81.3573 265.999 81.752C265.999 82.168 265.855 82.5147 265.567 82.792C265.29 83.0587 264.916 83.192 264.447 83.192ZM272.107 93.128C271.19 93.128 270.374 92.936 269.659 92.552C268.955 92.168 268.395 91.6453 267.979 90.984C267.574 90.312 267.371 89.5493 267.371 88.696C267.371 87.832 267.574 87.0693 267.979 86.408C268.395 85.736 268.955 85.2133 269.659 84.84C270.374 84.456 271.19 84.264 272.107 84.264C273.014 84.264 273.825 84.456 274.539 84.84C275.254 85.2133 275.814 85.7307 276.219 86.392C276.625 87.0533 276.827 87.8213 276.827 88.696C276.827 89.5493 276.625 90.312 276.219 90.984C275.814 91.6453 275.254 92.168 274.539 92.552C273.825 92.936 273.014 93.128 272.107 93.128ZM272.107 91.08C272.523 91.08 272.897 90.984 273.227 90.792C273.558 90.6 273.819 90.328 274.011 89.976C274.203 89.6133 274.299 89.1867 274.299 88.696C274.299 88.1947 274.203 87.768 274.011 87.416C273.819 87.064 273.558 86.792 273.227 86.6C272.897 86.408 272.523 86.312 272.107 86.312C271.691 86.312 271.318 86.408 270.987 86.6C270.657 86.792 270.39 87.064 270.187 87.416C269.995 87.768 269.899 88.1947 269.899 88.696C269.899 89.1867 269.995 89.6133 270.187 89.976C270.39 90.328 270.657 90.6 270.987 90.792C271.318 90.984 271.691 91.08 272.107 91.08ZM283.728 84.264C284.41 84.264 285.018 84.4027 285.552 84.68C286.096 84.9467 286.522 85.3627 286.832 85.928C287.141 86.4827 287.296 87.1973 287.296 88.072V93H284.8V88.456C284.8 87.7627 284.645 87.2507 284.336 86.92C284.037 86.5893 283.61 86.424 283.056 86.424C282.661 86.424 282.304 86.5093 281.984 86.68C281.674 86.84 281.429 87.0907 281.248 87.432C281.077 87.7733 280.992 88.2107 280.992 88.744V93H278.496V84.392H280.88V86.776L280.432 86.056C280.741 85.48 281.184 85.0373 281.76 84.728C282.336 84.4187 282.992 84.264 283.728 84.264Z" fill="#227A51"/>
<rect x="229" y="399" width="133" height="8" rx="4" fill="#9EF3BA"/>
<rect x="104" y="399" width="201" height="8" rx="4" fill="#00D675"/>
<path fill-rule="evenodd" clip-rule="evenodd" d="M298 218C298 213.582 294.418 210 290 210H176C171.582 210 168 213.582 168 218V332C168 336.418 171.582 340 176 340H290C294.418 340 298 336.418 298 332V218Z" fill="#AAEED0"/>
<path d="M197.061 235.417L245.156 231.866C251.063 231.359 252.581 231.7 256.296 234.401L271.648 245.216C274.18 247.076 275.023 247.583 275.023 249.608V308.923C275.023 312.641 273.673 314.839 268.948 315.176L213.098 318.557C209.551 318.725 207.863 318.218 206.005 315.851L194.7 301.15C192.672 298.444 191.832 296.419 191.832 294.052V241.328C191.832 238.289 193.182 235.754 197.061 235.417Z" fill="white"/>
<path d="M245.156 231.866L197.061 235.417C193.182 235.754 191.832 238.289 191.832 241.328V294.052C191.832 296.419 192.672 298.444 194.7 301.15L206.005 315.851C207.863 318.218 209.551 318.725 213.098 318.557L268.948 315.176C273.67 314.839 275.023 312.641 275.023 308.923V249.608C275.023 247.687 274.264 247.134 272.03 245.494L271.645 245.216L256.296 234.401C252.581 231.7 251.064 231.359 245.156 231.866ZM214.361 248.638C209.801 248.945 208.766 249.014 206.176 246.908L199.591 241.67C198.921 240.992 199.258 240.146 200.944 239.978L247.178 236.6C251.06 236.261 253.083 237.614 254.601 238.796L262.53 244.541C262.869 244.712 263.713 245.723 262.698 245.723L214.952 248.597L214.361 248.638ZM209.045 308.417V258.062C209.045 255.863 209.719 254.849 211.742 254.678L266.581 251.468C268.441 251.3 269.281 252.482 269.281 254.678V304.696C269.281 306.895 268.942 308.755 265.906 308.923L213.428 311.965C210.392 312.133 209.045 311.123 209.045 308.417ZM260.847 260.762C261.183 262.283 260.847 263.805 259.326 263.978L256.797 264.479V301.657C254.601 302.839 252.579 303.514 250.889 303.514C248.189 303.514 247.514 302.668 245.492 300.136L228.952 274.113V299.29L234.184 300.475C234.184 300.475 234.184 303.517 229.963 303.517L218.324 304.192C217.985 303.514 218.324 301.825 219.504 301.489L222.543 300.646V267.357L218.325 267.015C217.985 265.494 218.828 263.298 221.193 263.127L233.68 262.287L250.889 288.646V265.326L246.503 264.822C246.164 262.959 247.514 261.606 249.2 261.441L260.847 260.762Z" fill="black"/>
</svg>
