<?xml version="1.0" encoding="UTF-8"?>
<svg id="_레이어_1" data-name="레이어 1" xmlns="http://www.w3.org/2000/svg" viewBox="0 0 84 44">
  <defs>
    <style>
      .cls-1 {
        fill: #00b2ff;
        stroke: #281904;
        stroke-linecap: round;
        stroke-linejoin: round;
      }
    </style>
  </defs>
  <path class="cls-1" d="M9.27,30.83s-6.94-2.4-4.72-6.28c4-7,13-4,13-4,0,0-1.37-3.31,4-6,4-2,6.7.37,6.7.37,0,0,.05-6.54,8.72-7.83,3.57-.53,16.98-.18,16.57,9.47,0,0,13-4,16,3,.88,2.06,11,1,10,10s-24.1,1.98-24.1,1.98c0,0-6.9,9.02-16.79,3.15,0,0-9.11,6.88-16.41-2.04,0,0-9.65,5.64-12.98-1.81Z"/>
</svg>