<?xml version="1.0" encoding="UTF-8"?>
<svg id="_레이어_1" data-name="레이어 1" xmlns="http://www.w3.org/2000/svg" viewBox="0 0 21.27 41.85">
  <defs>
    <style>
      .cls-1 {
        fill: #d793ff;
        stroke: #281904;
        stroke-linecap: round;
        stroke-linejoin: round;
      }
    </style>
  </defs>
  <path class="cls-1" d="M15.05,1.86c-.55-.99-1.82-1.69-2.86-1.21-1.18.55-1.34,2.12-1.42,3.41-.49,8.07-4.02,15.59-7.5,22.89-1.75-.51-3.23,1.83-2.65,3.56s2.33,2.74,4,3.48,3.48,1.42,4.55,2.89c1.08,1.48,1.41,3.74,3.14,4.35,1.87.66,3.72-1.39,3.91-3.36s-.61-3.9-.81-5.87c-.34-3.26.95-6.44,2.32-9.41,1.37-2.97,2.88-6,3.02-9.27.12-2.66-.91-4.57-2.48-6.58-1.55-1.98-1.97-2.62-3.22-4.87Z"/>
</svg>