<?xml version="1.0" encoding="UTF-8"?>
<svg id="_레이어_1" data-name="레이어 1" xmlns="http://www.w3.org/2000/svg" viewBox="0 0 165 57">
  <defs>
    <style>
      .cls-1 {
        fill: #00b2ff;
        stroke: #281904;
        stroke-linecap: round;
        stroke-linejoin: round;
      }
    </style>
  </defs>
  <path class="cls-1" d="M126.74,45.62c9.32,2.9,19.6,2.63,28.75-.75,1.04-.39,2.12-.85,2.8-1.72,1.33-1.71.55-4.38-1.11-5.76s-3.92-1.77-6.07-2c-1.08-.11-2.2-.2-3.17-.67-.87-.42-1.57-1.12-2.4-1.62-1.76-1.07-4.1-1.13-5.91-.14-.89-2.64-4.22-4.14-6.78-3.05.78-2.55.06-5.49-1.8-7.4s-4.8-2.67-7.36-1.94c-1.33-4.42-6.65-7.18-11.03-5.72-4.4-8.18-13.64-13.5-22.93-13.21-9.28.29-18.17,6.18-22.06,14.62-2.8-2.03-6.79-2.27-9.8-.58s-4.9,5.21-4.63,8.66c-4.51-1.64-10.11,1.24-11.41,5.86-3.58-2.9-9.41-2.43-12.48.99-1.96-2.17-5.15-3.15-7.99-2.44s-5.2,3.07-5.9,5.91c.18-.71-3.23-1.29-3.65-1.3-1.45-.04-2.97.4-4.12,1.31-2.48,1.94-2.04,6.16.43,7.96,2.01,1.47,5.09,1.19,6.81-.61,5.16,6.36,15.21,8.06,22.17,3.75,4.6,3.94,12.11,3.91,16.68-.06-2.69,5.05,4.57,7.41,8.14,8.3,5.26,1.31,11.43,2.36,16.51-.07.67-.32,5.49-3.26,4.93-4.27,1.46,2.6,4.71,4.04,7.62,3.39s5.23-3.36,5.43-6.33c2.8,3.23,8.42,3.39,11.4.32,5.39,4.46,14.27,3.79,18.93-1.42Z"/>
</svg>