<?xml version="1.0" encoding="UTF-8"?>
<svg id="_레이어_1" data-name="레이어 1" xmlns="http://www.w3.org/2000/svg" viewBox="0 0 84 44">
  <defs>
    <style>
      .cls-1 {
        fill: #00b2ff;
        stroke: #281904;
        stroke-linecap: round;
        stroke-linejoin: round;
      }
    </style>
  </defs>
  <path class="cls-1" d="M12.24,34.26c-1.82,2.86-6.72,2.88-8.57.03-1.84-2.85.18-7.31,3.53-7.8.26-3.67,4.86-6.25,8.13-4.56-.95-3.11.4-6.78,3.13-8.54s6.63-1.46,9.07.7c1.22-5.04,5.65-9.15,10.76-9.99s10.62,1.62,13.4,6c2.92-1.29,6.58-.68,8.93,1.49,2.34,2.17,3.24,5.77,2.18,8.78,3.56-2.34,9.19.8,9.08,5.05,2.39-.52,8.39.48,8.39,5.48,0,6-6,8-13,7-2.98-.43-5-1-8.81-3.23-.6,2.3-2.72,4.12-5.08,4.38s-4.82-1.08-5.9-3.2c-.98,2.33-3.52,3.91-6.04,3.76-2.52-.15-4.86-2.01-5.56-4.44-5.6,5.73-11.19.01-11.4.17-3.21,2.56-8.27,3.08-12.23-1.08Z"/>
</svg>