<?xml version="1.0" encoding="UTF-8"?>
<svg id="_레이어_1" data-name="레이어 1" xmlns="http://www.w3.org/2000/svg" viewBox="0 0 58.91 113.28">
  <defs>
    <style>
      .cls-1, .cls-2 {
        fill: #d793ff;
      }

      .cls-1, .cls-3 {
        stroke-width: 0px;
      }

      .cls-2, .cls-4, .cls-5, .cls-6, .cls-7 {
        stroke: #281904;
        stroke-linecap: round;
        stroke-linejoin: round;
      }

      .cls-4 {
        fill: #00b2ff;
      }

      .cls-3 {
        fill: #ff6a37;
      }

      .cls-5 {
        fill: none;
      }

      .cls-6 {
        fill: #ff97b5;
      }

      .cls-7 {
        fill: #00d675;
      }
    </style>
  </defs>
  <path class="cls-7" d="M10.53,65.71h43.43s-3.47,12.65-17.49,13.63c-14.02.98-22.98-2.1-25.95-13.63Z"/>
  <path class="cls-1" d="M51.89,69.76c.23,1.46-.89,2.86-2.24,3.46s-2.88.58-4.36.55c-9.73-.19-19.46-.39-29.19-.58-.69-.01-1.41-.03-2.02-.36-.78-.42-1.69-1.71-1.68-2.63,0-.7.79-.45,1.38-.45h2.18c2.91,0,5.81,0,8.72,0,5.83,0,11.67,0,17.5.01.83,0,9.68-.21,9.72,0Z"/>
  <circle class="cls-6" cx="29.46" cy="29.46" r="28.96"/>
  <path class="cls-1" d="M9.14,9.42c1.56,1.31,3.69,1.68,5.71,2,5,.79,10.11.27,15.16.71,1.96.17,7.05-.74,9-1,1.73-.23.33.53,2,0,1.35-.43,2.6.18,3.81-.56s2.27-1.83,2.67-3.19c3.72,2.78,7,7.36,8.52,11.75-2.56,3.54-8.21,4.15-12.12,2.19-.79-.4-1.61-.93-2.49-.83-1.14.13-1.86,1.24-2.65,2.08-1.38,1.47-3.33,2.29-5.32,2.65s-4.01.29-6.03.22c-1.88-.07-3.83-.17-5.5-1.05s-2.96-2.76-2.52-4.59c-2.8,1.28-5.89,2.28-8.91,1.72-2.64-.49-6.46-2.39-5.46-6.39.33-1.32,2-3,4.13-5.71Z"/>
  <path class="cls-3" d="M31.89.65c2.14.2,4.23.79,6.26,1.52,2.27.82,4.47,1.82,6.58,2.98,1.01.56,2.09,1.3,2.27,2.43.16,1.05-.56,2.07-1.48,2.61s-1.99.71-3.03.92c-2.89.58-5.7,1.51-8.59,2.07s-5.95.72-8.73-.24c-1.29-.45-2.52-1.13-3.87-1.36-1.68-.29-3.4.14-5.11.14-1.99,0-3.98-.61-5.63-1.73-.4-.27-.82-.66-.76-1.13.04-.35.33-.62.61-.85C16.4,3.1,24-.1,31.89.65Z"/>
  <line class="cls-5" x1="10.53" y1="51.36" x2="17.81" y2="65.71"/>
  <line class="cls-5" x1="50.51" y1="49.63" x2="42.02" y2="65.71"/>
  <line class="cls-5" x1="12" y1="69.79" x2="51.55" y2="69.79"/>
  <line class="cls-5" x1="14.51" y1="73.45" x2="49.29" y2="73.45"/>
  <path class="cls-4" d="M2.12,19.88s3.97,8.25,16.19,5.16c0,0,12.32,11.17,23.38.87,0,0,13.24,8.39,15.94-3.15l-.87-3.2c-.1-.39-.59-.53-.87-.24-6.87,6.93-14.86.58-14.86.58-10.26,12.34-21.74,0-21.74,0-11.97,4.77-14.78-4.25-14.78-4.25l-2.39,4.25Z"/>
  <line class="cls-5" x1="29.87" y1="31.12" x2="29.87" y2="58.41"/>
  <path class="cls-5" d="M51.55,29.46s-.13,13.87-7.6,25.06"/>
  <path class="cls-5" d="M6.77,25.03s-1.5,14.21,8.2,29.49"/>
  <path class="cls-5" d="M23.34,65.71v-7.3c-10.36-13.11-4.05-38.53-4.05-38.53l1.08-8.68L29.46.5l9.8,10.72,1.77,8.66s5.37,27.82-3.52,37.75l-1.03,8.08"/>
  <line class="cls-5" x1="36.48" y1="79.33" x2="36.48" y2="98.47"/>
  <line class="cls-5" x1="21.54" y1="78.56" x2="21.54" y2="90.61"/>
  <circle class="cls-4" cx="21.54" cy="94.62" r="3.85"/>
  <circle class="cls-2" cx="36.48" cy="105.69" r="7.09"/>
  <path class="cls-5" d="M9.51,8.63c-.08.69.22.69.69,1.2s1.09.85,1.72,1.13c2.69,1.19,5.83,1.33,8.62.39"/>
  <path class="cls-5" d="M20.75,11.22c5.45,3.45,12.82,3.59,18.39.34"/>
  <path class="cls-5" d="M39.32,11.67c1.75.06,3.58.06,5.17-.66s2.91-2.38,2.67-4.12"/>
  <path class="cls-5" d="M10.53,65.71h43.43s-3.47,12.65-17.49,13.63c-14.02.98-22.98-2.1-25.95-13.63Z"/>
  <circle class="cls-5" cx="29.46" cy="29.46" r="28.96"/>
</svg>