<svg id="monsters" viewBox="600 0 1000 500">
<g class="monsters">
    <path id="third-monster-leg-left" class="st10" d="M1065.7,328.7c0,0-11.2,21-4.6,59.9c0,0-14.4-18.9-26.7-3.1c0,0-9.5,18.4,10.6,21.5
    c20.1,3.1,35.8-8.2,35.8-8.2s-9.7-36.2,5.8-65L1065.7,328.7z"></path>
    <path id="third-monster-leg" class="st10" d="M1137.1,319c0,0,22.6,7.3,45,39.8c0,0-2.9-23.6,17-20.8c0,0,19.7,6.6,7.4,22.8c-12.3,16.2-31.4,19-31.4,19
    s-18.3-32.7-49.5-42.6L1137.1,319z"></path>
    <path class="st10" d="M1217.2,222.7c0,0,11.8,39.3,42.3,14.1c22-18.1,14.5-40.1,17.7-50.3s26-18.7,36.2-3.6s1.6,72.1-53.6,84
    c-55.2,11.9-69.7-9.8-69.7-9.8L1217.2,222.7z"></path>
    <path class="st10" d="M1038,273c0,0-36.1-19.4-39.9,19.9c-2.7,28.4,18.1,38.6,23,48.1c4.9,9.5-5.2,31.6-23,28.2
    s-52.1-49.8-21.5-97.3c30.6-47.5,56.2-42.4,56.2-42.4L1038,273z"></path>
    <path class="st11" d="M1040.4,329.8c0,0-90.6-45-61.1-154.8c23-85.8,105.1-114.2,208.4-138.7v25l36.7-7.5v32.3l26,0.8l-22.1,43.1
    c0,0,46.3,160-72.6,204.4C1102.5,354.2,1062.7,342.5,1040.4,329.8z"></path>
    <g>
    <circle class="st12" cx="1107.4" cy="217.8" r="65.2"></circle>
    <circle class="st4" cx="1109.5" cy="211.2" r="61.2"></circle>
    <circle class="st13" cx="1135.8" cy="203.4" r="28.4"></circle>
    <circle class="st4" cx="1147" cy="186.2" r="12.4"></circle>
    </g>
    <path class="st14" d="M1045.4,152.5c0,0,39.9-35.8,89.3-18.3C1134.7,134.2,1084.9,103.5,1045.4,152.5z"></path>
    <path class="st10" d="M1291.8,198.7c-4.1,1.8-7.3-1.8-10.7-4.2c-3.3-2.3-11.2-4.8-14.6-7c-8-5.3-5.5-12.4-1.9-15.1
    c4.5-3.4,15-3.2,21.6,6l5.2,7.4C1295.8,191.3,1295.6,197.1,1291.8,198.7z"></path>
    <path class="st10" d="M1294.1,185.9L1294.1,185.9c-4.7-0.7-5.5-6.4-5.4-9.5l-0.2-12.1c0.4-7.2,5.4-9.9,10.1-9.2l0,0
    c4.7,0.7,8.8,4.9,7,11.8l-3.7,11.5C1301.3,183,1297.5,186.4,1294.1,185.9z"></path>
    <path class="st10" d="M1304.5,188.4L1304.5,188.4c-3.9-2.8-1.9-8.3-0.4-10.9l5.4-10.8c3.7-6.2,9.4-6.3,13.2-3.6l0,0
    c3.9,2.8,5.6,8.4,0.8,13.7l-8.6,8.6C1312.2,189.2,1307.3,190.4,1304.5,188.4z"></path>
    <path class="st10" d="M1309,194.5L1309,194.5c-1.1-3.7,2.9-6.3,5.2-7.2l8.9-4.3c5.5-2.2,9.2,0.6,10.3,4.3l0,0
    c1.1,3.7-0.6,8.1-6.3,9.2l-9.8,1.3C1313.6,198.8,1309.8,197.1,1309,194.5z"></path>
    <path class="st15" d="M1093.4,301.1l41.5-10.5C1134.9,290.6,1125.7,322.5,1093.4,301.1z"></path>
    <polygon class="st9" points="1102.5,298.8 1108.8,304.2 1109.8,298.3 1113.4,299.5 1115,297.2 1117.8,298.6 1119.3,296.2
    1122.2,297.7 1124.2,295.4 1126.7,299.8 1128.1,292.3 	"></polygon>
    <path class="st12" d="M1108.9,312.2c0,0,12.2,4.4,21.4-4.8C1130.2,307.4,1123.4,319.1,1108.9,312.2z"></path>
    <circle class="st12" cx="1210.9" cy="153.4" r="10.5"></circle>
    <circle class="st12" cx="1188.7" cy="128.2" r="8"></circle>
    <circle class="st12" cx="1186" cy="171.1" r="8.5"></circle>
    <path class="st12" d="M1215,192.8c0,8.8,7.1,16,16,16c2.2,0,4.2-0.4,6.1-1.2c0.4-10.5,0-20.5-0.7-29.7c-1.7-0.6-3.5-1-5.4-1
    C1222.1,176.8,1215,184,1215,192.8z"></path>
    <circle class="st4" cx="1125.2" cy="216.9" r="5.7"></circle>
</g>
</svg>