<svg width="37" height="29" viewBox="0 0 37 29" fill="none" xmlns="http://www.w3.org/2000/svg">
<path d="M19.9751 3.42578C15.4074 -1.14193 7.99977 -1.14193 3.42578 3.42578C-1.14193 7.99349 -1.14193 15.4011 3.42578 19.9751C3.62055 20.1699 3.82161 20.3521 4.02266 20.528L11.6879 28.1932L19.2651 20.6159C19.2965 20.5908 19.3279 20.5657 19.3594 20.5343C19.5667 20.3521 19.774 20.1699 19.9688 19.9688C24.5365 15.4011 24.5365 7.99349 19.9688 3.4195L19.9751 3.42578Z" fill="#000"/>
<path d="M33.4764 20.6597C38.0441 16.0919 38.0441 8.68434 33.4764 4.11035C28.9087 -0.457356 21.5011 -0.457356 16.9271 4.11035C16.7323 4.30512 16.5501 4.50618 16.3742 4.70723L8.70898 12.3724L16.2862 19.9497C16.3114 19.9811 16.3365 20.0125 16.3679 20.0439C16.5501 20.2513 16.7323 20.4586 16.9334 20.6534C21.5011 25.2211 28.9087 25.2211 33.4827 20.6534L33.4764 20.6597Z" fill="#000"/>
</svg>
