<svg width="37" height="37" viewBox="0 0 37 37" fill="none" xmlns="http://www.w3.org/2000/svg">
<path d="M18.5 0L19.0808 9.26825L20.8187 0.145878L20.2333 9.41384L23.1008 0.581211L21.3584 9.70273L25.3103 1.29914L22.4385 10.1304L27.4124 2.28833L23.4564 10.69L29.374 3.53319L24.3962 11.3728L31.1641 5.01408L25.243 12.1679L32.7545 6.70766L25.9834 13.063L34.1201 8.5872L26.6058 14.0438L35.2393 10.6231L27.1004 15.0948L36.0945 12.7832L27.4594 16.1996L36.6723 15.0334L27.6771 17.3407L36.9635 17.3384L27.75 18.5L36.9635 19.6616L27.6771 19.6593L36.6723 21.9666L27.4594 20.8004L36.0945 24.2168L27.1004 21.9052L35.2393 26.3769L26.6058 22.9562L34.1201 28.4128L25.9834 23.937L32.7545 30.2923L25.243 24.8321L31.1641 31.9859L24.3962 25.6272L29.374 33.4668L23.4564 26.31L27.4124 34.7117L22.4385 26.8696L25.3103 35.7009L21.3584 27.2973L23.1008 36.4188L20.2333 27.5862L20.8187 36.8541L19.0808 27.7317L18.5 37L17.9192 27.7317L16.1813 36.8541L16.7667 27.5862L13.8992 36.4188L15.6416 27.2973L11.6897 35.7009L14.5615 26.8696L9.58756 34.7117L13.5436 26.31L7.62597 33.4668L12.6038 25.6272L5.83588 31.9859L11.757 24.8321L4.24551 30.2923L11.0166 23.937L2.87993 28.4128L10.3942 22.9562L1.7607 26.3769L9.89957 21.9052L0.905455 24.2168L9.54061 20.8004L0.327686 21.9666L9.32294 19.6593L0.0365047 19.6616L9.25 18.5L0.0365047 17.3384L9.32294 17.3407L0.327686 15.0334L9.54061 16.1996L0.905455 12.7832L9.89957 15.0948L1.7607 10.6231L10.3942 14.0438L2.87993 8.5872L11.0166 13.063L4.24551 6.70766L11.757 12.1679L5.83588 5.01408L12.6038 11.3728L7.62597 3.53319L13.5436 10.69L9.58756 2.28833L14.5615 10.1304L11.6897 1.29914L15.6416 9.70273L13.8992 0.581211L16.7667 9.41384L16.1813 0.145878L17.9192 9.26825L18.5 0Z" fill="#FFACAC"/>
</svg>
